<svg id="レイヤー_1" data-name="レイヤー 1" xmlns="http://www.w3.org/2000/svg" viewBox="0 0 184.38 181.19"><defs><style>.cls-1{fill:#e61f19;stroke:#d99d53;}.cls-1,.cls-2{stroke-miterlimit:10;}.cls-2{fill:#5ea482;stroke:#327454;}</style></defs><g id="つぼみ2"><path class="cls-1" d="M75.26,112c-1.19,2.84-4.64,4.13-7.49,3.75C55.2,114.09,44,78.32,48.45,75.63S79.59,101.69,75.26,112Z"/><path class="cls-1" d="M126.12,75.13c.1,3.32-2.77,5.62-5.8,6-13.36,1.65-40.83-32.95-37.6-37S125.75,63.06,126.12,75.13Z"/><path class="cls-1" d="M113.79,76.2c1-6.23-7.31-12-13.23-16.18s-20.69-13-23.76-9.56C72.36,55.38,91.64,86.4,105.48,84,109.39,83.27,113.17,79.86,113.79,76.2Z"/><path class="cls-1" d="M86.28,101.34c-.8,3.11-3.66,6.3-7,6.72-12,1.49-28.94-32.08-24.35-35.95S89.6,88.4,86.28,101.34Z"/><path class="cls-1" d="M102.88,86.66c-.52,3.14-4.07,4.94-7.38,4.74-13-.78-30.74-32.69-26.82-35.74S104.58,76.24,102.88,86.66Z"/><path class="cls-1" d="M93.08,95.38c-.75,3-4,4.76-6.84,4.8-12.69.16-29.13-33.59-25.14-36.9S95.81,84.51,93.08,95.38Z"/><path class="cls-1" d="M132.6,88.67c-.62,4.08-5.09,6.44-9.28,6.21C106.89,94,84.15,52.76,89.07,48.77,94.14,44.66,134.64,75.14,132.6,88.67Z"/><path class="cls-1" d="M129.42,92.63c1.61-8-8.67-16-16-21.58S87.92,53.31,83.88,57.58C78,63.75,101,104.83,118.58,102.3,123.54,101.58,128.47,97.34,129.42,92.63Z"/><path class="cls-1" d="M93.51,124c-1.15,4-4.9,8-9.21,8.39-15.25,1.38-35.08-42.91-29.1-47.71S98.3,107.34,93.51,124Z"/><path class="cls-1" d="M115.16,105.68c-.79,4-5.36,6.22-9.54,5.81C89.25,109.88,68.3,67.72,73.39,63.94S117.79,92.26,115.16,105.68Z"/><path class="cls-1" d="M102.39,116.53c-1.08,3.83-5.24,6-8.87,5.91-16-.38-35.25-44.87-30.06-49S106.33,102.58,102.39,116.53Z"/><path class="cls-2" d="M126.5,86.82c-1.85,3.26-5.1,2.1-9,6.19s-1.93,6.59-5.36,10.25c-4.33,4.63-8.45,1.77-13.49,6.33-3.51,3.17-1.94,5-6.67,11.49-2.73,3.78-5.8,8-10.27,8.57-4.95.62-9-3.62-8.94-3.66s13,13,28.36,11.41c6-.64,10.43-3.32,14-5.47,9.38-5.71,14-13.45,16.86-18.13,3.78-6.27,4.47-10,4.64-11a28.84,28.84,0,0,0-.84-12.22c-2.87-10.61-10.26-18-11.29-17.39S129.53,81.51,126.5,86.82Z"/></g></svg>