<svg xmlns="http://www.w3.org/2000/svg" xmlns:xlink="http://www.w3.org/1999/xlink" viewBox="0 0 208.49 88.37"><defs><style>.cls-1{fill:url(#名称未設定グラデーション_24);}.cls-2{fill:#57afb5;}.cls-2,.cls-3,.cls-5{opacity:0.3;}.cls-4{fill:#7ba1af;}.cls-6{fill:#6b949b;}.cls-7{fill:url(#名称未設定グラデーション_6);}</style><linearGradient id="名称未設定グラデーション_24" x1="104.15" y1="62.83" x2="103.58" y2="10.43" gradientUnits="userSpaceOnUse"><stop offset="0" stop-color="#11337e"/><stop offset="0.98" stop-color="#97c1c4"/></linearGradient><linearGradient id="名称未設定グラデーション_6" x1="102.56" y1="18.3" x2="106.55" y2="66.69" gradientUnits="userSpaceOnUse"><stop offset="0" stop-color="#11337e"/><stop offset="0.99" stop-color="#a6cfd5"/></linearGradient></defs><g id="レイヤー_2" data-name="レイヤー 2"><g id="Layer_1" data-name="Layer 1"><path class="cls-1" d="M15.51,4.06C77,14,136.13,14.25,191.87,0l9.07,40.33-18.5,4.45,18.5,2.49,7.55,24.94C140.06,93.59,70.58,93.93,0,72.21L10.62,22.87l11.71-2.24L12.51,16.7Z"/><path class="cls-2" d="M208.49,72.23,186,60.69s-95.17-6.88-96.86-6.45-44.75,0-44.75,0L7.22,67.71,0,72.23C68.3,94.42,137.87,93,208.49,72.23Z"/><polygon class="cls-3" points="200.94 40.33 195.47 38.24 169.17 36.82 174.13 45.6 182.44 44.78 200.94 40.33"/><polygon class="cls-3" points="12.51 16.7 16.66 15.77 23.46 14.64 45.45 20.68 38.47 26.82 33.37 20.73 22.33 20.63 12.51 16.7"/><path class="cls-4" d="M19.68,8.6c55.05,10.84,111.16,9,168-2.46l7.74,32.1L174.13,45.6l22.28,4.16,4.91,18.88A398.27,398.27,0,0,1,84.45,81.86L83.12,77l-2.64,4.91A365.49,365.49,0,0,1,7.22,67.7l5.1-20.59,13.22.38L12.51,44l4.91-19.92,16.42-3.21-17.18-5.1Z"/><polygon class="cls-3" points="25.54 47.49 12.51 44 6.28 45.75 25.54 47.49"/><g class="cls-5"><path class="cls-6" d="M64.24,29.74c2.16-2.51,5-8.51,7.49-14.6l-4.66-.3c-.17.42-.36.86-.56,1.31-6,13.31-10.48,18.33-13,21.49s-2.27,17.59-2.27,17.59,3.4-9.91,5.1-13.31A46.54,46.54,0,0,1,64.24,29.74Z"/><path class="cls-6" d="M99.64,18.7c.16-1,.33-2,.5-2.95q-2.94,0-5.88,0c-.18,7.85-.9,10.8,0,17.36,1.14,8.22,3.12,3.68,1.42,14.45S92.85,57.5,90.3,66.28c-1.13,3.88-1.92,10-2.46,15.67,1.33,0,2.66.08,4,.1A30.57,30.57,0,0,1,94,70.53c3.68-9.07,6-9.63,7.08-18.13s.85-8.21,0-15.29S96.81,36.82,99.64,18.7Z"/><path class="cls-6" d="M126.73,14.6c-3.08.22-5.81.42-9.21.58h0c1.13,14,1.09,23.9,0,22.77s.29-11-3.1-17.28c-1-1.77-1.78-3.63-2.48-5.24-1.53.06-3.07.12-4.6.16-1.47,5.25-2.63,8.61-.87,16.69,2,9.07,2,7.65,3.4,16.71s1.13,9.92-.57,14.73A163.06,163.06,0,0,0,105,82.05c1.66,0,3.31-.06,5-.11a58.77,58.77,0,0,0,3.56-10.85,188.1,188.1,0,0,0,2-22.37c0-3.68,3.3-.57,2.93,4.53s-.37,13.42-1.51,21c-.36,2.37-.72,5.06-.92,7.52q2.93-.12,5.83-.29c2.14-7,3.59-16.41,3.59-19.69,0-4.82,1.13-9.92,3.4-16.43s1.42-10.76,0-18.41C128.27,23.91,127.39,19.22,126.73,14.6Z"/><path class="cls-6" d="M88.88,47c-.28-7.36-.85-9.35-2.83-16.71-1-3.72-.82-9.11-.12-14.62-2.47-.06-5-.13-7.42-.23-.3,5.31-1.1,10.65-2.94,14-4.81,8.78-8.78,13-12.46,21.24s-4.82,6.23-7.65,18.41c-.81,3.52-1.41,6.64-1.86,9.32l3.89.61c1.09-3.71.81-6,3.92-12.48s3.68-9.34,7.08-13.88S76.35,41.92,78.65,38s1.17-9.07,2.3-4,3.12,9.63,0,18.69-6,11-9.06,17.28a41.16,41.16,0,0,0-3,10.65c1.37.17,2.75.32,4.14.48.3-.88.58-1.76.83-2.63,2-6.8,3.35-10.48,8.75-17.28S89.17,54.38,88.88,47Z"/><path class="cls-6" d="M41,12.16q-4.91-.67-9.81-1.49h0a80.27,80.27,0,0,0-5.37,7.82l8,2.37L24,22.8a18.84,18.84,0,0,0-.8,5.53c0,7.08,3.4,8.19,0,13.59a14.39,14.39,0,0,0-1.68,4.49l4,1.08-4.24-.12C20.17,53.24,20.21,61,17.51,66.85c-.51,1.11-1,2.25-1.4,3.41,2.12.58,4.27,1.14,6.42,1.68-.21-8.78-2.33-12.18,3.12-18.41S32,38.24,32,34s5.09-4,5.94-10.76A60.7,60.7,0,0,1,41,12.16Z"/><path class="cls-6" d="M138.73,38.81c.56-6.52-2-8.22,0-17.56.64-3,1.27-5.56,1.78-7.88-2.22.23-4.45.45-6.67.65a11.75,11.75,0,0,1-.21,1.85c-1.13,5.38-.94,5.38.24,14.16S138.16,45.32,138.73,38.81Z"/><path class="cls-6" d="M50.87,13.39A22.47,22.47,0,0,1,44.7,25.21C37.62,32,34.22,37.27,36.49,44.13s4,4.59,2.26,14.79c-.89,5.36-2.1,11.51-3,16.12l4,.85a73.4,73.4,0,0,1,1.82-9C43,61.18,45,62.6,45.27,54.1s-5.1-10.76-4.54-15,2-6.51,6.8-9.63c4.4-2.84,8.31-7.82,10.69-15.34Q54.55,13.79,50.87,13.39Z"/><path class="cls-6" d="M167.33,58.07C163.65,60.9,162,68,160.82,75.91c-.06.45-.14.89-.22,1.32,3.12-.49,6.23-1,9.32-1.59-2.23-5.54,2.28-17.68,2.79-21.82C173.28,49.29,171,55.23,167.33,58.07Z"/><path class="cls-6" d="M169.35,44.13c1.16-5.44,0-9.85-1.17-19.2-.5-4.14.06-10,.56-15.34l-4,.64c-.5,6.9-.66,14.44-.53,18.38.28,8.78-7.37,16.14-9.06,1.7-.83-7-1.12-12.69-1.49-18.49-1.95.25-3.89.5-5.83.73,0,.59,0,1.13-.05,1.62-.28,9.34,4,24.92,1.7,36.25S145.24,56.65,136.18,70c-3.61,5.3-4.11,8.48-3.39,10.67q9.27-.8,18.37-2c-4.27-10.32,1.73-11.21,3.71-16s1.7-8.78,2.83-14.16S168.18,49.57,169.35,44.13Z"/><path class="cls-6" d="M187.16,22.1c.32-5.53.61-10.64.83-14.84l-.26-1.12-1,.2c-1.61,9.34-3.74,22.82-4.08,30.73-.1,2.17-.16,4-.21,5.67l4-1.36C186.41,35.87,186.7,29.84,187.16,22.1Z"/><path class="cls-6" d="M186.88,55.23c-.21-2.51-.35-4.91-.43-7.33l-4.14-.77a94.05,94.05,0,0,1-1.38,15.47,40,40,0,0,1-3.53,11.6c3.69-.75,7.36-1.53,11-2.38C188.08,67,187.42,61.79,186.88,55.23Z"/></g><path class="cls-7" d="M43.2,18.7s-7.75,22.09-7.4,23.09S43,46.24,43,46.24H35.17L31.48,61.85A157.16,157.16,0,0,0,71.89,70c23,1.59,51.27,2.06,64.29,0s40.65-5.27,40.65-5.27-4.33-15.82-5.66-15.81S163,46.26,163,46.26s11.93-6.94,14.86-9-4.45-22.08-5.09-21.54S147.32,20,128,22.14,43.2,18.7,43.2,18.7Z"/><path class="cls-4" d="M47,24.35,41,42.29l4.43,3.92-6.92,2.1L35.71,59.58s16,2.88,24.61,5.27,34.4,4.57,46.83,3.92,38.32-1.2,47.58-2.34a83.83,83.83,0,0,0,18.07-4.62l-3.17-11-11.56-3.19,18.09-12.85-4.44-15.11a175.33,175.33,0,0,1-28.62,4.73c-14.21.93-47.49.59-56.15,0S47,24.35,47,24.35Z"/></g></g></svg>