<svg xmlns="http://www.w3.org/2000/svg" xmlns:xlink="http://www.w3.org/1999/xlink" viewBox="0 0 347.25 351.5"><defs><style>.cls-1{fill:url(#名称未設定グラデーション_15);}.cls-2{opacity:0.2;}.cls-3{fill:#ea8826;}.cls-4{opacity:0.3;}.cls-10,.cls-5{fill:#db7b33;}.cls-6{fill:#f7b67c;}.cls-7{fill:#f2d39c;}.cls-11,.cls-12,.cls-8{opacity:0.1;}.cls-8{fill:url(#linear-gradient);}.cls-9{fill:url(#名称未設定グラデーション_18);}.cls-10{opacity:0.4;}.cls-11{fill:url(#linear-gradient-2);}.cls-12{fill:url(#linear-gradient-3);}</style><linearGradient id="名称未設定グラデーション_15" x1="178.63" y1="336.03" x2="170.66" y2="88.18" gradientUnits="userSpaceOnUse"><stop offset="0" stop-color="#e25532"/><stop offset="1" stop-color="#efa23c"/></linearGradient><linearGradient id="linear-gradient" x1="171.31" y1="75.44" x2="170.38" y2="27.87" gradientUnits="userSpaceOnUse"><stop offset="0"/><stop offset="1" stop-color="#ffc05d"/></linearGradient><linearGradient id="名称未設定グラデーション_18" x1="171.58" y1="66.67" x2="170.29" y2="0.9" xlink:href="#名称未設定グラデーション_15"/><linearGradient id="linear-gradient-2" x1="289.61" y1="59.02" x2="295.56" y2="59.02" xlink:href="#linear-gradient"/><linearGradient id="linear-gradient-3" x1="46.65" y1="58.33" x2="52.61" y2="58.33" xlink:href="#linear-gradient"/></defs><g id="レイヤー_2" data-name="レイヤー 2"><g id="Layer_1" data-name="Layer 1"><path class="cls-1" d="M25.82,42.62,3.57,54.94s-8,59.32,0,60.44,19.29,3.93,19.29,3.93L5.73,130.38v44.79s1.15,55.57,1.15,69.35,3.2,43.64.54,49.57-4.69,43-4.69,43S45,343.94,80.67,347.72s110.18,3.78,136.81,3.78,84.45-4.9,93.25-3.78,33.64-10.61,33.64-10.61-2.67-22.69,0-29.89-5.33-39.38,0-53,.56-70.92.56-70.92H329.19L343,179s5.71-59.19,3.85-77.38S343,56.19,343,54.51s-9.38-15.1-9.38-15.1-79.83-6.1-109.78-6.1H85.54Z"/><path class="cls-2" d="M217.43,351.5c26.63,0,84.48-4.9,93.28-3.78s33.65-10.61,33.65-10.61-39.94-18.67-48.5-20-97.29-5.32-155.56-5.32-95.51,8-113,8-17.67,8.65-17.67,8.65l-7.1,8.69s42.37,6.83,78,10.61S190.8,351.5,217.43,351.5Z"/><path class="cls-3" d="M10.62,56.5S4.85,81.79,5.29,83.12s0,22.19,0,22.19h8.37l-8.37,2,11.12,5.15L26.27,119,8.73,133.59v26.94S33.46,158,34.79,158s7.44,2.53,7.44,2.53-22.69,2.35-28,2.35-6.51,5.33-5.71,6.66,0,22.56,0,22.56l2.57,15.16s2.66,2.22.88,9.32,0,11.54,0,14.65,1.33,18.64,1.33,18.64l10.42,1.77-9.53,2.22s-.05,8.66.95,13.32.61,10,.61,14V303s-4.85,8.12-4.85,10.45S6,333.1,7.22,331.64s10.7.11,24.35,3.77,50.88,7,64.53,7,41.58,1.33,49.57,2.33S153,334.08,153,334.08s2,11.11,4,10.71,21.63,1.27,25.63,1.61,42.93,1.33,50.92,0,28.29-3,36.62-3.33,34.28-1,34.28-1,17.31-5.33,19.64-5.33,14.06-2.5,14.06-2.5.75-10.81,0-16.14.33-14,.33-14l-19.39-1,17.31-2.33a45.13,45.13,0,0,0,0-10.31c-.66-5.33-2.33-7.66-2-14s-.34-16.31.66-19.64,4.49-13,3.41-17.31-.51-27.3.2-31,0-21.63,0-21.63l-21.25-2L339,176s-1.06-16,0-27S341,125.38,341,125.38l-15-1.33,15-2.33s1-4.66,0-12.65-3.33-21.64-3.33-26-.33-14.32-1-17.65a45.56,45.56,0,0,1-.34-9l-7.65-13.67s-51.93-2-63.25-1.66-44.93-2.67-51.59-2.67-97.53,4.66-104.85,4a164.28,164.28,0,0,0-23.3-1c-9.65.33-34.95,2.33-42.6,5a129.24,129.24,0,0,1-17.65,4.33Z"/><g class="cls-4"><path class="cls-5" d="M20.69,68.46c9.66,2.33,5.46,7.32,8.12,11.32s12,2.66,17.64,1.66,15.32-7.65,20.64-11.32,18-5,18-5-16-.66-20.31,2-11.32,8.32-17.64,8.32-7.66-3-6.66-7.32,7-3.78,15.43-8,24-3.75,37.28-1.5,23.07,1.74,44.38,0,20.86-4.77,35.82-4.77,46.64.46,46.64.46h54.23c21.3,0,40.83-.08,51.93,3a30.6,30.6,0,0,0,10.13,1.29c0-1.23.07-2.12.07-2.12l-2.86-5.13c-11.49-.13-39-2.13-46.4-2.13-9.32,0-14.65,0-25.74-.44s-16-.89-30.62-.89S213,47.49,213,47.49s-42.16-2.66-44.38-2.66-27.52,5.76-30.18,7.35-30.18-3.81-39.94-4.69-24.86,0-31.08,0-10.21,4-15.54,7.09-12,2.65-31.53,2.65c-3.89,0-7.13-.11-9.82-.28C10.2,58.3,9.2,62.67,8.15,67.46A48.88,48.88,0,0,1,20.69,68.46Z"/><path class="cls-5" d="M5.48,90.79c2.46.23,4.93.47,6.47.64,4,.44,7.1,3.55,15.09,4.88s21.74-1.78,34.17-4.44a120.5,120.5,0,0,1,22.64-2.66s15.53,2.66,24.49,2.66,21.22-4.44,31.87-4.44,27.52-6.65,43.49-12.1S209,73.23,225.86,71s31.51,0,43.05,0,27.08,4.44,53.26,4.32c7.26,0,12.12.14,15.36.39-.08-2.12-.2-4.29-.34-6.16-6.4-.43-27.52-1.93-32.77-3.43-6.21-1.78-28-3.55-44.38-2.66s-12-.45-27.07.18-26.19-.63-33.29,0-18.75.82-23.74,1.81-18.64,9-27,8.66-19.3-3.33-29.62-4-27,3.33-34.95,5.66-12.32,5.66-21.64,8.3-19,3.35-30.62,3.35-9.32-2.33-14-5c-2.46-1.38-8-1.87-12.69-1.73a8.14,8.14,0,0,0-.18,2A67.82,67.82,0,0,1,5.48,90.79ZM106,76.34c9.32-.89,23.07-1.78,27.07,0A42.06,42.06,0,0,0,142,78.9S129.11,83,121.57,84.33s-21.3,0-25.74,0-13.32-1.85-13.32-1.85S96.72,77.22,106,76.34Z"/><path class="cls-5" d="M248.5,77.67c-12,.44-23.08-.89-31.51,0s-25.3,8-34.62,9.76-32.84,6.66-32.84,6.66,16.17-.44,23.84,0,23.65,1.33,29.86-2.22,8-10.79,21.3-9.39,26.63,1.08,38.61,3.46,24,.16,34.18,2.38,31.95,6.19,35.5,6.2H339c-.55-3.81-1-7.32-1.18-9.7-3.9-.42-11-1.16-24.5-2.35C278.68,79.44,260.48,77.22,248.5,77.67Z"/><path class="cls-5" d="M17,112.71a143.21,143.21,0,0,0,14.48.91c8,0,16-1.78,22.63-2.22s5.77-4.88,18.64-1.33,34.17,4,39.5,3.55,10.65-5.33,21.75-1.78,28,5.33,42.6,5.33,32-1.33,43.94-6.22,34.17-7.17,43.94-5.36,56.66,7.25,66.7,6.25c3.87-.38,7.29-.67,10.06-.88-.06-.61-.12-1.23-.21-1.89-.19-1.53-.43-3.28-.69-5.12a246,246,0,0,1-39-3.2C279.57,97.2,262.7,95,251.16,94.53s-19.53-1.58-28.85,2.1-2.22,4.31-22.19,7.32-47.48,2.76-60.35,0-23.53-2.76-29.3-1.87-30.62,7.18-37.28,4-14.64-7.63-18.64-5.61S27.12,109.37,20.38,107s-15.11,0-15.11,0l11.12,5.33Z"/><path class="cls-5" d="M268.47,117.17c-17.75,1.33-15.16-2.47-25.55,2.54s-13.51,8.11-28.59,8.11-10.22.44-27.3,0-22,2.17-34.84.2-15-2.42-26.57-2.42-24-.44-31.12.44-19.1-2-28.41-3.2-16.86.79-24.85,0c-4.14-.41-11.73-1-18.46-1.18l-8.28,6.83c.91.07,1.83.16,2.77.27,10.66,1.28,19.53-1.72,34.62,0s18.42,1.72,34.51,3.94,33.22,2.22,47.73,2.22,22.7-3.55,39.24,0,22.32,3.55,40.51,3.55,26.63-3.55,35.06-7.1,16-4.24,18.64-3.68,13.32,1.66,26.63,0,31.33,1,37,1.9a70.16,70.16,0,0,0,9.47.55c.24-2.9.38-4.76.38-4.76l-15-1.33,15-2.33a2.32,2.32,0,0,0,0-.23A153.79,153.79,0,0,0,320,120.27C300.87,120.27,286.22,115.84,268.47,117.17Z"/><path class="cls-5" d="M314.07,137c-15.64,0-24.3-3-35.95,0s-29.18,6-29.18,6,14.87,5,27.19,3,30.95-6.19,42.27-4.93c7.78.87,16.42,2.09,21.06,2.76.21-2.3.41-4.56.59-6.69C335.12,137.23,326.2,137,314.07,137Z"/><path class="cls-5" d="M21.88,159.17c5.14-.11,10.08-.67,15-.59l.22.07a140.27,140.27,0,0,1,16.66,1.24c11.65,1.6,21.63,4.42,32.62,4.42h36.42s24.49-4.42,33.14-6.75,9.63-4.61,19.46-4.61,28.48,4.69,48.11,6.69,32.62,5.4,42.94,4.87,24.3-1.86,28-2.19,19.65-1.66,31.86-1.66A54.25,54.25,0,0,1,338.5,162c0-2,0-4.14.07-6.23-7.28-3-11.21-5.93-32.62-3.65-25,2.66-22.57,5.92-40.87,4.93s-26.93-3.69-40.25-5.86a171.06,171.06,0,0,0-30.27-2.52c-8.65,0-16.64-3.33-27.95,0S143.31,154,142,154.34s-24.19,1.33-29.73,1.66-13.87,1.18-13.87,1.18-22.63.15-28.29-1.51-5-4.29-14.65-3.48-9.32-.81-17,0-8.12-.81-17.44,0a65,65,0,0,1-12.3-.3v8.64s5.54-.59,11.66-1.19Zm10.7-1a100.9,100.9,0,0,1-10.61,1C26.13,158.75,30.22,158.36,32.58,158.15Z"/><path class="cls-5" d="M56.23,146.49c12.57,3.8,27.28-.47,46.29,0s35.52-4.47,37.06-5.4-17.54.93-22.67,0-30.17-1.73-34.06-2.62S37.68,134.7,24.6,135.7c-5.49.42-11.87.78-15.87,1.14V146C19.73,145.12,46.27,143.47,56.23,146.49Z"/><path class="cls-5" d="M24,180.29c15.24-1.63,34.75,1.67,57.89-.32s31.45,1.33,45.35,0,34.7-5.33,40-4.66,41.32-4,37-4-36.25-6-45.61-4-19.93,4.66-31.33,6a335.15,335.15,0,0,1-36,2c-10.81,0-41.78-4-53-4-7,0-20,1-29.45,2.13,0,2.55,0,6-.06,9.2C13,181.79,18.2,180.91,24,180.29Z"/><path class="cls-5" d="M299.57,176.23c-27.71,1.21-49-1.26-62-.06s-9.75.5-26.7,3.83-32.35,7.31-43.63,5.31-27.91,2-35.9,0-27.42.48-35,.57-13.95-2.09-22.76,0-6.23-2.75-20.16,0-41.94,7-44.92,6.23h0l.73,4.27c8.74-.89,21.74-4,29.06-3.58,8.52.49,6,1.5,28.59,0s19.65,2,45.39.51,54.58-3,74.78-3h41s34.15-5.84,44-5.64,28.53-1.18,39.77-.12c1.86.18,3.92.23,6.06.3L339,176s-.08-1.29-.18-3.36C330.58,173.44,321,175.3,299.57,176.23Z"/><path class="cls-5" d="M321.82,194.69c-31.51-.44-44,1-50.2.07s-25.32.74-35.08-.06-11.54.64-32,3.3-33.75,2.31-44.4,2.31h-32s-22.18,2.43-27,2.43-1.3,2.71,11.13,2.71,18.2-1.76,37.28,1.35,32.84,4.45,39.94,4.45,25.74-7.45,33.29-8.38,24.41-1.28,42.16,0,29.29-1.28,39.05,0,24,3.06,32,3.95a21.52,21.52,0,0,0,2.91.14c.18-2.75.15-7.53.06-11.73C336.21,195,331.14,194.82,321.82,194.69Z"/><path class="cls-5" d="M307.75,211.26c-15.31-1.34-24,1.33-40.61,0s-24.63,3.32-36.62,4-15.31,3.33-18,3.33-19.31-.67-29.29-4-26.63,2.67-41.28,0-21.3,0-29.73,0-25.52-5.32-36.17-8.9-35.28-1.75-44.6-2.81c-5.89-.67-14.78,1.78-20.54,3.69l.12.7s1.25,1.05,1.47,4h0c5.68-4,17.61-.67,26.27,0s9.32,5.32,7.32,9.58-18.64,5.06-29.29,5.73a42.93,42.93,0,0,0-5.33.65,33.34,33.34,0,0,1,.45,4c0,1,.14,3.41.34,6.15,4.07-1.32,9.13-3.33,15.19-5.49,15.2-5.41,10.65-4,28.63-10.65s15.31-7.32,20-6.24,12.65-.42,23,0,15,6.24,23,7.57,8.66,0,27.52,0,15.75.67,28.61,2.67,11.11,2,26.43,2,19.3-2,32-7.72,18.64-2.93,33.28-.65,30-2.28,51.26-.28a52.26,52.26,0,0,0,17-1c.08-2.27.18-4.32.3-5.93C328.94,211.91,316.35,212,307.75,211.26Z"/><path class="cls-5" d="M105.37,245.87c-4.66,2-18.64,2.67-22.86,3.33s10.21,2.66,22.19,4.66S122,249.2,130,246.54s-.66-13.32-3.33-16-32.62-2-47.26,0-26.63,6-37.28,8.36c-7,1.56-20.67,4.35-29.25,6.09.22,2.78.4,4.86.4,4.86l9.48,1.61c8.68-1.66,18-3.47,20-4.28,3.33-1.33,18-5.32,29.29-8.28s21.31-2.37,32,0S110,243.88,105.37,245.87Z"/><path class="cls-5" d="M337.86,226.19c-8.54.77-19.45,1.59-28.78,2.61-16,1.76-25.3-4.41-46.6,0s-23.3,4.42-34.62,6.42-22,5.41-36.61,3.7-41.72-4.36-41.72-4.36,3.32,2.79,18.86,7.05,34.17,4.93,45.49,4.93,20.19-3.2,36.39-4.93,28.19-2.32,35.51-2.69,28,.37,36,0c4.06-.19,10.86-.18,16.58-.14A100.22,100.22,0,0,1,337.86,226.19Z"/><path class="cls-5" d="M317.73,250.53c-30.62,0-43.93-1.44-61.24,1.95s-22.64,4.71-48.6,5.38-49.26-3.64-54.59-3.82-11.36-4.39-20,.38,2,9.43-24,10.09-29.66-2.66-44.12-3.33-13.79-3.32-28.44,0c-7.81,1.78-16.11,3-22.38,4,.08.7.19,1.37.32,2a30,30,0,0,1,.49,6.78,29.69,29.69,0,0,0,7.59.54c10-.67,14-4.66,26.63-4.66s30.62,4.77,43.94,4.72,31.24.05,39.92,0,10-7.38,28.65-8.05,35.94,0,53.92,0,20-3.56,37.28-4.11,36,.55,53.26,0c10.14-.32,20.9-.27,28.08-.17a23.56,23.56,0,0,1,.54-5.37c.39-1.3,1.16-3.56,1.89-6.09C333,250.59,327,250.53,317.73,250.53Z"/><path class="cls-5" d="M334.4,275.94c-20.47,1.61-52.63,3.22-61.94,3.22-12,0-16.64-3.26-35.28-2.29s-30.62,4.29-46.6,6.28-13.31-2-38.61,0-20-4.84-47.93.58-36.9,5.41-49.55,5.41c-8.17,0-27.76-2.5-38.76-3.73V295.8c19,.67,35.72,0,49.89,0s24.63-2,38.61-4,43.39,2.66,64.25,1.33,31.47-.67,45.45-2,20.61-7.62,31.26-5.81,22-2.47,33.94,0,16-2.47,31.29,0a199,199,0,0,0,25.49,2.4c-.76-3.6-1.8-6.1-1.53-11.23C334.39,276.31,334.39,276.12,334.4,275.94Z"/><path class="cls-5" d="M323.56,302.59c-25.61.06-41.44-.18-64.48-.11-23.3.08-39.24,4-57.21,5.35s-21.29-.69-56.57,0-40.6,1.59-54.58.46-14.93-5.84-34.24-5.82c-16.76,0-34.75-1.52-40.75-.61V303s-4.85,8.12-4.85,10.45c0,.2-.22.51-.28.89a47.57,47.57,0,0,0,15.64-.55c12-2.67,13.27-3.33,29.91-3.33s18.62,1.9,40.59,4.28,18,1.71,45.26,3,29.95,0,44.59,0a320.3,320.3,0,0,0,42.61-3.56c8-1.33,6.21-2.9,21.07-2.9h41.64s37.46,3,45.95,4h0a94.38,94.38,0,0,1,.58-10.74l-19.39-1.22Z"/><path class="cls-5" d="M262.48,318.36c-17.31,2.59-36.62,3.4-48.6,6.07s-25.3,3.33-40.87,3.2-38.35,3.45-60.76,3.45a454.86,454.86,0,0,0-69.46,5c-1.62.25-3.16.5-4.63.76,14.92,2.74,40.31,5,53.85,5.47l2.6.06,1.44.06H97.2c14.1.6,25.61.77,40.54,1.61l1.87.2a44.32,44.32,0,0,1,6,.52,5.79,5.79,0,0,0,3.59-.57c-2.92.2-6.07.05-9.63.05,3.56,0,6.71.13,9.63-.08l.08-.05c2.19-.15,4.26-.4,6.24-.72h0c7.42-1.2,13.8-3.37,22.43-5,14-2.66,24.57-2.66,39.22-5.39a293.9,293.9,0,0,1,44.6-5.26c16.65-.67,21.31,1.33,44.61,5.32,9,1.55,15.37,2.6,20.37,3.34,4.25-.67,11.33-2.18,11.33-2.18s.25-3.68.31-7.8a42,42,0,0,1-5.39-.68C323.06,323.76,279.79,315.77,262.48,318.36ZM104.55,342.52c10.19.16,23.08.6,32.14,1.44C127.63,343.35,114.74,342.76,104.55,342.52Zm48.43-7.7c0-.45,0-.72,0-.72h0C153,334.16,153,334.41,153,334.82Z"/></g><path class="cls-6" d="M5,81l5.49-24.6s18.7-7.4,20-7.62,14.9-4,14.9-4,26.46-2.48,30-2.72,21.52-.64,26.58-.21,14.24-1.58,15.57-1.58,53.75-2,56.06-2h47.71S172.27,41.64,169,41s-46.27-.07-47.27.6-15.64,3-18.31,3.29-18,.32-24.3.32S45.68,47.5,44.57,47.5s-14.2,3.77-14.2,3.77l-18.7,6.54Z"/><path class="cls-2" d="M41.52,63.65S38.23,106,38.16,117.17s-2.25,45.22-2.25,55.45,1.09,30.41,0,43.52S33.69,258.3,32.58,269s-8.21,52.81-8.21,52.81,19.54,8.69,36.4,9.59,50.59,1.73,68.79,4.06,65.68,5.44,80.77,4.11,54.59-1.56,63.91-4.11,30.18-.33,32.18-2.33,9.54-4.22,9.54-6.43-8.81-19.79-7.18-30.55-3.66-29.16-2.84-41.87,5.14-19.45.7-44.75S292,136.7,291.55,118.94,41.52,63.65,41.52,63.65Z"/><path class="cls-7" d="M41.82,51.31s-1.22,34.49.51,53.05-1,38.45-.92,63.54,1.93,42.84,0,63.39-9.35,87.06-9.35,87.06,51.8,9.4,80.2,12.73,128.46,6,144.67,3,55.8-8.34,55.8-8.34-9.6-60.79-6-84.24,4.24-68.17,3.95-89.82,2.21-58.38,0-71.59-13-28.63-13-28.63-61.8-7.52-88.52-6.74-93,6.57-109.07,6.57Z"/><path class="cls-8" d="M75.85,34.49s-3.46,17-2,17S76,82.55,76,82.55a41.71,41.71,0,0,1,16.65-2.4c9,.66,38.88-.28,46.91-2.18s16.36-4.66,28.68-4.66H212s36.15-1.86,42.8-.86a113,113,0,0,0,11.65,1.17s1.19-11.33,1.76-14-2-13.37-1.8-14.72,1.44-9.53,1.44-9.53S192,29.6,180,27.58,75.85,34.49,75.85,34.49Z"/><path class="cls-9" d="M78,5.74S153.7.36,177.43,0s90.8,5.73,90.8,5.73l-.36,23.89-9.06,1.9,9.06,3.79-5,33s-44-6.07-80.24-1.9S80.79,75.7,80.79,75.7L78,56.56l8.37-3.41L78,50.57S74.31,20.15,74.75,19s5.17-3.41,5.17-3.41l-5.21-1.52L72.59,8Z"/><path class="cls-2" d="M80.79,75.7s9.26-8.26,10.38-8.91,61.68-18.51,75.62-19.16,70.79.26,71.35,0,20.44,14.89,20.44,14.89l4.27,5.8c-30.67-3.52-59.59-4.76-85-1.37Z"/><path class="cls-3" d="M79.18,8.15s78.55-4.79,89.33-4.79,35.23-.39,41.54,0,53.44,4.79,53.44,4.79V27.82l-12.12,3.76L263.71,36l-5.17,26.54s-22.46-2.59-43.46-3-49.41,2.33-59.26,4.27-68.93,6.6-68.93,6.6L85.41,57.47l12.82-6.73L82.81,47.5S79.65,19,80,18.5s5.76-5.3,5.76-5.3S80,12,79.18,11.26,79.18,8.15,79.18,8.15Z"/><path class="cls-10" d="M213.8,36.8c-11.52-.09-27.13,1.9-42.5,2.93s-32.19.26-42.23,2.85-15.23,3.11-34.93,6c-1.39.2-2.7.37-4,.51l8,1.69-4.71,2.47A189.89,189.89,0,0,0,112.72,50c8.92-2.2,10.78-3,14.49-4.53s14.13-2.59,22.67-2.59,10.41,3.11,6,4.4S141,47,138.73,48s7.81,2.59,21.56,1.66,8.54-3.73,16.35-6.84,11.15-1.29,20.81-1.29a198.86,198.86,0,0,1,27.12,1.29c10.78,1.3,22.67.26,32.7-.26,2-.1,3.7-.12,5.23-.09l.87-4.43c-2.66.31-5.51.57-8.33.64C244.27,39,225.32,36.89,213.8,36.8Z"/><path class="cls-10" d="M222.94,23.42c-13.75.26-10.33,2.07-16.27,4.92S193.32,32.49,178.83,32s-25.62-.52-38.54-.52-14.94,2.07-22.75,5.35c-7.44,3.13-24.67,1.79-35.6,2.78.14,1.29.27,2.49.39,3.55l4.75-.29c11.89-.78,16.72-2.07,23-2.9s13.75-1.24,20.81-3.14,13-2,29.73-2,25.64-.26,37.16-.78,18.58-.26,28.24-.26,23.41,0,29.67-.69h0l-4.22-1.51,1.49-.45a57.5,57.5,0,0,1-7.62-.72c-6.13-1.16-25.27,0-29.72-.26s-1.12-1.81,3.71-3.1,17.69-.78,27.73-.78c5.18,0,10.82.07,16.39.14V22.23C251.23,20,236.69,23.16,222.94,23.42Z"/><path class="cls-10" d="M223.09,56.05a347.7,347.7,0,0,0-34.93,1.29c-12.64,1.29-15.24,2.59-22.3,2.59s-13.38.26-21.92.26a162.33,162.33,0,0,0-33.82,3.36C98.6,66,94.51,66.54,86.48,66.8l.42,3.61s59.08-4.66,68.93-6.6,38.27-4.66,59.27-4.27,43.48,3,43.48,3l.8-4.12c-.91-.19-1.85-.38-2.85-.54C245.75,56.05,232.38,56.05,223.09,56.05Z"/><path class="cls-10" d="M79.18,11.26c.84.77,6.6,1.94,6.6,1.94l-2.26,2c6.69.17,14.23.44,21.77.44,16.72,0,18.95-1.56,25.64-2.59s20.07.77,28.61,0,20.81-1,25.64-1.06,27.87-2,35.31-2S244.17,7.41,256,9.44c2.76.48,5.24.8,7.47,1V8.15S263,8.09,261.88,8c-11.49-.42-33.4-1.14-46.67-1.14-18.58,0-19.66,1.3-33,2.85s-31.2,0-47.55,1.56-32.69.25-45.33,0A52.93,52.93,0,0,1,78.82,9.9,1.76,1.76,0,0,0,79.18,11.26Z"/><path class="cls-10" d="M221.6,47.5c-15.23-.26-20.81,0-33.81,0s-5.95,1.81-13.75,4.14-17.1,2.07-32.84,2.07-7.67.26-20.67.26S106.78,55.79,96,58.89a43.72,43.72,0,0,1-10.23,1.74l.3,2.6c6.09-1,14.51-1.87,19.22-2.54,5.57-.8,9.66-4.13,15.61-4.39s26.38,0,36.41-.51,20.81-4.15,25.64-6,13,0,27.13,0,26,.52,38.65,1.55c4.49.37,8.44.9,11.75,1.42l1-5h-7.91C239.44,47.76,236.84,47.76,221.6,47.5Z"/><path class="cls-10" d="M223.09,12.94c-14.12-1.43-21.56,1.94-33.45,3.75S159.54,18,145.79,18s-16,.51-18.95,1.29-18.58,1.55-37.9.78c-3.52-.14-6.44-.19-8.91-.17.06.89.16,2.16.3,3.67,4.78-.14,10-.13,14.18-.4,8.18-.51,12.64,0,23,0s12.64-2.07,17.84-3.1,14.49,0,21.18,0,19,.52,21.93,2.07-4.46,3.36-7.58,3.36-19.18.52-19.18.52A127.53,127.53,0,0,0,180,27.57c14.12-1,16-3.89,21.18-8.55s8.55-3.1,14.87-3.1,21.41,1.81,29.21,1.81c5.59,0,12.68.66,18.25,1V14.88a49.3,49.3,0,0,0-6-.52C251.37,14.36,237.21,14.36,223.09,12.94Z"/><path class="cls-10" d="M131.67,26.53s-23.78.26-34.18,1.81C90.2,29.43,85,30,81,30.28c.12,1.24.25,2.51.38,3.76,5.1-1,12.74-2.53,18-3.62C106.78,28.87,131.67,26.53,131.67,26.53Z"/><circle class="cls-11" cx="292.59" cy="59.02" r="2.98"/><path class="cls-3" d="M294.47,58.33a2.29,2.29,0,1,1-2.28-2.28A2.28,2.28,0,0,1,294.47,58.33Z"/><circle class="cls-12" cx="49.63" cy="58.33" r="2.98"/><circle class="cls-3" cx="49.23" cy="57.64" r="2.29"/></g></g></svg>