<svg xmlns="http://www.w3.org/2000/svg" xmlns:xlink="http://www.w3.org/1999/xlink" viewBox="0 0 217.68 152.06"><defs><style>.cls-1{fill:none;}.cls-2{isolation:isolate;}.cls-3{fill:#d1d1d1;}.cls-4{fill:#8f673d;}.cls-5{fill:#749729;}.cls-6{fill:#835e39;}.cls-7{fill:#a37445;}.cls-8{clip-path:url(#clip-path);}.cls-9{opacity:0.4;mix-blend-mode:multiply;}.cls-10{fill:#edba83;}.cls-11{opacity:0.2;mix-blend-mode:soft-light;}.cls-12{fill:#815d38;}</style><clipPath id="clip-path" transform="translate(50.66 6.4)"><polygon class="cls-1" points="0 10.24 1.74 35.73 8.69 38.44 1.16 39.79 1.16 51.38 11.78 53.89 0 57.17 0 72.24 115.11 72.24 115.11 54.66 104.49 52.15 116.85 49.64 116.85 33.61 106.81 29.75 117.62 27.04 119.17 10.24 0 10.24"/></clipPath></defs><g class="cls-2"><g id="レイヤー_2" data-name="レイヤー 2"><g id="OBJECTS"><path class="cls-3" d="M105.2,138.75c0,3.82-19.91,6.91-44.47,6.91s-44.46-3.09-44.46-6.91,19.91-6.91,44.46-6.91S105.2,134.93,105.2,138.75Z" transform="translate(50.66 6.4)"/><polygon class="cls-4" points="101.88 6.4 109.05 6.4 118.62 6.4 118.62 145.15 101.88 145.15 101.88 6.4"/><path class="cls-5" d="M77.58,141.28a15.07,15.07,0,0,1,2.92-5.6l5.84-6.32s-7.28,3.25-8.76,4.26l-3.4,2.31v-9.25l-3.29,6.2a31.41,31.41,0,0,1,.61-9.24c1.1-4.54,3.53-11.8,3.53-11.8L61.77,133.13l-3.65-10.34v9.85l-7.91-15.09,1.95,15.7a53.56,53.56,0,0,0-5.6-8.15,74.49,74.49,0,0,0-8.76-7.91,50.27,50.27,0,0,1,5.11,11.19c1.78,6,1.71,7.55,1.71,7.55l-9.49-5.84,7,11.19H78.07" transform="translate(50.66 6.4)"/><path class="cls-6" d="M63.84,22a3.11,3.11,0,1,1-3.11-3.1A3.11,3.11,0,0,1,63.84,22Z" transform="translate(50.66 6.4)"/><path class="cls-6" d="M63.84,60.51a3.11,3.11,0,1,1-3.11-3.1A3.11,3.11,0,0,1,63.84,60.51Z" transform="translate(50.66 6.4)"/><polygon class="cls-7" points="50.66 16.64 52.4 42.13 59.36 44.84 51.82 46.19 51.82 57.78 62.45 60.29 50.66 63.57 50.66 78.64 165.77 78.64 165.77 61.06 155.15 58.55 167.51 56.04 167.51 40.01 157.47 36.15 168.29 33.44 169.83 16.64 50.66 16.64"/><polygon class="cls-1" points="50.66 16.64 52.4 42.13 59.36 44.84 51.82 46.19 51.82 57.78 62.45 60.29 50.66 63.57 50.66 78.64 165.77 78.64 165.77 61.06 155.15 58.55 167.51 56.04 167.51 40.01 157.47 36.15 168.29 33.44 169.83 16.64 50.66 16.64"/><g class="cls-8"><g class="cls-9"><path class="cls-10" d="M162.89,49.5c-8.59.06-17.2-.57-25.6,1.72-8.2,2.25-16.45,5.82-25.1,5.57a54.5,54.5,0,0,1-11.48-1.89c-3-.76-6.36-1.36-9-3.2-1.31-.94-3-2.78-2.43-4.56.45-1.47,2.07-2.4,3.35-3,3.82-1.94,8.31-2.74,12.52-3.34a39.3,39.3,0,0,1,8.6-.35,47.69,47.69,0,0,1,13,2.45c1.33.5,3.33,1.3,3.85,2.78.73,2.1-2.06,3.23-3.58,3.69A36.93,36.93,0,0,1,119,50.57a107.59,107.59,0,0,1-12.18.17,6.37,6.37,0,0,1-4.09-1.19,1.49,1.49,0,0,1-.17-2.37,7.62,7.62,0,0,1,3.85-1.4,21.91,21.91,0,0,1,4.43-.37c1.2,0,2.8.06,3.77.9.67.58,1.66-.4,1-1-2.14-1.86-5.91-1.41-8.49-1-2.19.31-6,.84-6.44,3.54s2.66,4,4.71,4.23A69.41,69.41,0,0,0,118.84,52a36.37,36.37,0,0,0,9-1.44c2-.67,4.29-1.91,4.29-4.3,0-4.14-6.78-5.43-9.75-6a52.13,52.13,0,0,0-12.2-1.32,56.52,56.52,0,0,0-12.72,2c-3.19.86-8.91,2.42-9.57,6.35-.34,2.06,1.15,4.06,2.67,5.27,2.67,2.14,6.26,2.85,9.51,3.66a56.27,56.27,0,0,0,12.56,2,49.26,49.26,0,0,0,14-2.32c4.72-1.34,9.36-3.08,14.18-4.06a70.3,70.3,0,0,1,14.85-1c2.43,0,4.85.07,7.27,0a.7.7,0,0,0,0-1.39Z" transform="translate(50.66 6.4)"/><path class="cls-10" d="M162.66,43.61c-6.19,1.13-12.88,1.93-19.13.79-3.48-.63-6.41-2.44-9.53-4-3.67-1.82-7.4-3.53-11.24-5-7.14-2.7-14.58-4.54-22.16-2.73a36,36,0,0,0-10.06,4.2A43.86,43.86,0,0,0,86.05,40a50,50,0,0,1-4.37,3.3C75.55,47,68.15,47.18,61.23,48c-3.93.47-7.82,1.25-11.76,1.65-4.27.43-8.38-.06-12.63-.43-7.9-.71-15.91.67-23.74-1a28.28,28.28,0,0,1-5.82-1.89,50.76,50.76,0,0,0-5.45-2.38,21.52,21.52,0,0,0-10.74-.7c-7.09,1.37-12.49,7-19.87,7.35-5,.21-9.95-.06-14.9.31a16.76,16.76,0,0,0-2.45.32c-.87.21-.5,1.55.37,1.35a28.86,28.86,0,0,1,6.09-.44c2.72-.06,5.45-.05,8.17-.08a27.58,27.58,0,0,0,6.72-.66c3.82-1,7-3.15,10.48-4.86A21,21,0,0,1-2.48,44.39,22.38,22.38,0,0,1,3.64,46.1c1.74.76,3.37,1.68,5.15,2.33,7.25,2.64,15.08,2,22.64,2,4.23,0,8.37.67,12.59.83a63.62,63.62,0,0,0,12.31-1.17C63.21,49,70.44,49,77.1,46.84a27,27,0,0,0,8.81-5,42.23,42.23,0,0,1,9.57-5.93,29.58,29.58,0,0,1,11.21-2.6,36.59,36.59,0,0,1,11.75,2.1,93.34,93.34,0,0,1,11.72,4.7c1.89.88,3.75,1.81,5.6,2.76A36.27,36.27,0,0,0,140.3,45c5.83,2,12.59,1.4,18.59.59Q161,45.33,163,45c.88-.16.51-1.5-.37-1.34Z" transform="translate(50.66 6.4)"/><path class="cls-10" d="M16.93,43.49c2,.18,4.13-.41,4.88-2.45a.7.7,0,0,0-.32-.78c-2.23-1.2-12.6-2-10.83,2.82,1.18,3.26,5.2,3.81,8.18,3.77,1.78,0,3.55-.23,5.32-.36a19.15,19.15,0,0,0,4.71-.83c2.78-.94,4.86-3.12,3.13-6-2.23-3.77-6.38-5.63-10.57-6.12a19.18,19.18,0,0,0-6.84.29,49.74,49.74,0,0,0-6.93,2.66A17.71,17.71,0,0,1-.36,38c-2.81-.14-5.58-.48-8.4-.48-3.28,0-6.55-.09-9.83.05-3.07.14-6.05.79-9.09,1.13a40.43,40.43,0,0,1-8.79-.46,30.77,30.77,0,0,0-9,.18c-.88.17-.51,1.51.37,1.34a27.23,27.23,0,0,1,7.1-.27c2.28.17,4.55.65,6.84.75,4.63.19,9.2-1.19,13.83-1.32a120,120,0,0,1,14.69.29,21.62,21.62,0,0,0,6.86-.12,33.66,33.66,0,0,0,5.93-2.22,25.12,25.12,0,0,1,6.39-2.06,19.34,19.34,0,0,1,6.21.25,12.78,12.78,0,0,1,5.41,2.3c1.23.94,3.17,2.7,3.18,4.38,0,2.62-4.8,3.16-6.63,3.3-3.08.25-6.41.84-9.45.06-1.19-.3-3.22-1.31-3.34-2.78-.07-.92,1.17-1.22,1.87-1.39,2.08-.48,5.1-.53,7,.51l-.32-.79c-.52,1.41-2.25,1.55-3.54,1.43-.89-.08-.88,1.32,0,1.39Z" transform="translate(50.66 6.4)"/><path class="cls-10" d="M-33.16,43.52c2.18,0,4.43-.63,6.61-.22.49.09,1.78.57,1.39,1.31-.24.49-1.47.55-1.92.6a23.54,23.54,0,0,1-6.58-.59,59.41,59.41,0,0,0-11.1-1.44.7.7,0,0,0,0,1.39A57.12,57.12,0,0,1-34,46a27.68,27.68,0,0,0,6.15.69c1.27,0,3.35-.14,4-1.48.76-1.56-.94-3-2.3-3.21-2.32-.46-4.66.12-7,.17a.7.7,0,0,0,0,1.39Z" transform="translate(50.66 6.4)"/><path class="cls-10" d="M-40.51,47.15A17.72,17.72,0,0,1-44.89,47a.71.71,0,0,0-.86.49.7.7,0,0,0,.49.85,18,18,0,0,0,4.75.18.7.7,0,0,0,.7-.69.72.72,0,0,0-.7-.7Z" transform="translate(50.66 6.4)"/><path class="cls-10" d="M-2.33,52.81A3,3,0,0,0,.43,49.63C.12,47.64-2,48-3.46,47.79c-3-.4-7.18-.48-7.57,3.53-.31,3.09,3,4.06,5.43,4.33,3.93.43,8-.21,11.91-.65a160.41,160.41,0,0,1,18.3-1.47,70.47,70.47,0,0,1,8.94.88,63,63,0,0,0,8.79.41c12-.09,24.17-1,36.13.37,6.62.75,12.59,3,18.57,5.83,5.59,2.66,11.36,3.45,17.45,4,.9.08.89-1.31,0-1.39-4.81-.43-9.57-.93-14.13-2.66s-8.87-4.19-13.64-5.6a63.13,63.13,0,0,0-15.11-2.09c-5.26-.23-10.52-.13-15.78-.06s-10.8.26-16.19.21c-5.14-.06-10.14-1.27-15.27-1.29A138.33,138.33,0,0,0,8.23,53.38a94.39,94.39,0,0,1-11.62,1c-2.09,0-7.36-.25-6.09-3.67.73-2,3.08-1.9,4.83-1.7a22,22,0,0,0,2.29.25c.68,0,1.5,0,1.39.94a1.75,1.75,0,0,1-1.36,1.22c-.88.09-.89,1.48,0,1.39Z" transform="translate(50.66 6.4)"/><path class="cls-10" d="M114.49,65c3.74.08,7.14-1.71,10.61-2.83,4-1.26,7.89-2.6,11.86-3.83,8.18-2.54,17-1.87,25.45-1.93a.7.7,0,0,0,0-1.39c-8.22.05-16.89-.63-24.89,1.69-4,1.17-8,2.7-12,3.89-3.61,1.06-7.15,3.09-11,3a.7.7,0,0,0,0,1.39Z" transform="translate(50.66 6.4)"/><path class="cls-10" d="M165.8,60.92c-7.69.07-15.39.07-23.08.15-2.28,0-5.13.18-6.83,1.93a4.53,4.53,0,0,0-.25,6,6.88,6.88,0,0,0,6.87,2.29.7.7,0,0,0-.37-1.34c-2.25.61-5.65-.74-6.1-3.25-.61-3.48,3.62-4.12,6.09-4.2,7.88-.23,15.79-.09,23.67-.15a.7.7,0,0,0,0-1.4Z" transform="translate(50.66 6.4)"/><path class="cls-10" d="M142.65,67.63a3.43,3.43,0,0,1,4.23,1.6c.67,1.12,1.07,3.25-.49,3.79a10.62,10.62,0,0,1-4.24,0,50,50,0,0,1-5.05-.39c-3.83-.77-7.33-2.67-11.22-3.21a88.72,88.72,0,0,0-14.11-.6c-4.72.1-9.44.38-14.16.43s-9.5-.38-14.25,0A15.64,15.64,0,0,0,78,70.4a32.82,32.82,0,0,0-4.69,2.74,23.35,23.35,0,0,1-4.86,2.7,22.29,22.29,0,0,1-5.33,1c-3.86.38-7.78.3-11.59,1.07a17.72,17.72,0,0,0-10.18,6c-.58.69.4,1.67,1,1a16.75,16.75,0,0,1,10.24-5.75c3.78-.67,7.65-.54,11.45-1A20.81,20.81,0,0,0,69.36,77a28,28,0,0,0,4.85-2.75,24.77,24.77,0,0,1,5.2-2.9,21.58,21.58,0,0,1,6.79-.81c5.08-.08,10.15.23,15.23.08s10.25-.45,15.38-.38c4.8.07,9.52.39,14.08,2a42.76,42.76,0,0,0,6,1.84c1.7.32,3.39.24,5.1.4,2.72.25,6.77.63,6.83-3.16a5.09,5.09,0,0,0-6.57-5c-.84.29-.48,1.64.37,1.34Z" transform="translate(50.66 6.4)"/><path class="cls-10" d="M164,65.14c-2.29,0-4.57-.35-6.86-.33-1.85,0-5,0-5.87,2.08-.33.83,1,1.2,1.34.37,0,.1.07-.12.09-.14s.09-.08.08-.08a1.57,1.57,0,0,1,.38-.25,4.56,4.56,0,0,1,1.24-.38,17,17,0,0,1,3.42-.21c2.06,0,4.12.33,6.18.33a.7.7,0,0,0,0-1.39Z" transform="translate(50.66 6.4)"/><path class="cls-10" d="M150.32,70.7c1,2.38,3.9,2,6,1.71a67.27,67.27,0,0,1,10-.69.7.7,0,0,0,0-1.39,56,56,0,0,0-9.25.54,20,20,0,0,1-3.08.39c-.8,0-2-.05-2.36-.93s-1.69-.46-1.34.37Z" transform="translate(50.66 6.4)"/><path class="cls-10" d="M166.27,74.78c-3.67,0-7.34-.09-11,.09-3.12.14-5.84,1.56-8.79,2.42-6.54,1.91-13-.94-19.42-1.86a63.08,63.08,0,0,0-9.72-.25c-3.45.06-6.91.11-10.36-.06-6.63-.35-13.37-2.84-20-.82-3.52,1.08-6.65,3.06-10,4.46S69.77,80.4,66.05,81c-.88.14-.51,1.48.37,1.35,3.26-.5,6.58-.63,9.71-1.74,3-1,5.68-2.65,8.55-3.91A21,21,0,0,1,95,75c3.39.29,6.71,1.14,10.11,1.41s6.9.26,10.35.21a92.34,92.34,0,0,1,10.12,0c6.21.62,12.19,3.35,18.53,2.55,3.44-.43,6.45-2.27,9.84-2.81a39.64,39.64,0,0,1,6-.21c2.12,0,4.24,0,6.36,0a.7.7,0,0,0,0-1.39Z" transform="translate(50.66 6.4)"/><path class="cls-10" d="M78.52,86.28c2.51-.68,4.64-2.46,7-3.51A56.06,56.06,0,0,1,94.21,80a31.75,31.75,0,0,1,9.87-1.34,50.22,50.22,0,0,1,9.32,1.68c3.13.75,6.29,1.09,9.46,1.63s6.16,1.58,9.32,2a36.8,36.8,0,0,0,17.59-1.87c1.57-.57,3.1-1.24,4.67-1.8a9.44,9.44,0,0,1,5.06-.85c2.36.5,4.2,2.28,6.63,2.69.88.14,1.25-1.2.37-1.34-2.22-.38-3.92-1.86-6-2.53-2.62-.82-5.24.22-7.68,1.17a51.53,51.53,0,0,1-9.24,2.88,34.68,34.68,0,0,1-9.43.48,80.66,80.66,0,0,1-9.52-1.93c-3.13-.66-6.33-.86-9.44-1.56a88.38,88.38,0,0,0-9.23-1.91A28.75,28.75,0,0,0,96.5,78a61.25,61.25,0,0,0-10,2.85,32.86,32.86,0,0,0-4.17,1.93,17.46,17.46,0,0,1-4.22,2.19.7.7,0,0,0,.37,1.35Z" transform="translate(50.66 6.4)"/><path class="cls-10" d="M79.63,63.63c1.43-.52,1.11-1.72-.08-2.32a3.55,3.55,0,0,0-3.94.09c-1,.78-2.77,2.26-2.46,3.75s1.88,1.78,3,1.94a18.94,18.94,0,0,0,5.1-.11c1.35-.18,2.78-.34,4.11-.65,1.5-.34,3-1.25,2.3-3a9,9,0,0,0-3.59-3.82,15.91,15.91,0,0,0-6.86-2.22,12.26,12.26,0,0,0-6.58,1.77C68.45,60.3,66.41,61.9,64,62.8a32.43,32.43,0,0,1-9.32,1.6c-6.45.41-12.93.44-19.38.51-3.15,0-6.31,0-9.45.16-2.91.13-5.81.34-8.71.4a40.71,40.71,0,0,1-9.86-.76c-2.69-.61-5.23-1.52-8-1.57a9.35,9.35,0,0,0-6.91,2.65,18.23,18.23,0,0,1-3.52,3,22.51,22.51,0,0,1-5,2,.7.7,0,0,0,.37,1.34A19.73,19.73,0,0,0-9.37,69.3c1.68-1.26,2.92-3.15,4.84-4.08,4.05-1.94,8.67.36,12.7,1.08a60.49,60.49,0,0,0,14,.35c5.11-.28,10.21-.31,15.32-.38,5.42-.06,10.84-.14,16.25-.42,4.61-.25,9.37-.73,13.44-3.07C71,60.59,74.46,57.89,79.11,59a12.05,12.05,0,0,1,5.37,2.55,9.23,9.23,0,0,1,1.68,1.85C86.82,64.47,86,64.76,85,65c-1.24.29-2.58.44-3.84.61a18.07,18.07,0,0,1-4.87.12c-.47-.08-1.48-.2-1.73-.69s.7-1.49,1.11-1.88a2.81,2.81,0,0,1,1.69-1,3.06,3.06,0,0,1,1.19.29,4.29,4.29,0,0,0,.46.2l.17.1c.22.22.24.08.05-.42-.84.3-.48,1.64.37,1.34Z" transform="translate(50.66 6.4)"/><path class="cls-10" d="M-15.3,70.79c-10.23,1.08-20.52,1.31-30.8,1.4a.7.7,0,0,0,0,1.39c10.28-.09,20.57-.32,30.8-1.4.89-.09.9-1.48,0-1.39Z" transform="translate(50.66 6.4)"/><path class="cls-10" d="M62.88,58a91,91,0,0,0-11.44.42c-3.73.51-7.38,1.52-11.14,1.84s-7.62-.3-11.44-.82a73.89,73.89,0,0,0-10.73-.19c-3.88,0-7.77,0-11.64.1-3.13.1-6.37.66-9.47,0-3.32-.69-6.47-2.1-9.79-2.83a44.39,44.39,0,0,0-10.29-.77c-4.13.06-8.26.08-12.39.11-1.7,0-3.38.08-5.07.2a13.65,13.65,0,0,1-5.06-.22c-.86-.27-1.23,1.08-.37,1.34,2.65.84,5.59.17,8.31.09,3.75-.1,7.52-.06,11.27-.09a71,71,0,0,1,11,.26A70.49,70.49,0,0,1-5.3,60.11a25.57,25.57,0,0,0,9.43.71c3.5-.22,7-.17,10.53-.2,3.86,0,7.76-.29,11.62-.08s7.41,1.14,11.17,1.18c4.07,0,8-.92,12-1.63a80.5,80.5,0,0,1,13.44-.75.7.7,0,0,0,0-1.39Z" transform="translate(50.66 6.4)"/><path class="cls-10" d="M-18.8,63.25c-2.65-1.84-5.74,3.34-2.42,4.53,2.39.85,6.94.39,7.27-2.8.3-3-3.48-5.14-6-5.55-4.41-.74-4.84,4.79-7.92,6.45a10.09,10.09,0,0,1-4,.79c-1.76.16-3.52.36-5.28.51-3.46.31-6.93.29-10.41.31a.7.7,0,0,0,0,1.39c4.46,0,8.85-.14,13.3-.59,3.33-.33,6.89-.07,9.08-3a25.75,25.75,0,0,1,2.71-3.73,2.85,2.85,0,0,1,3.22-.5c1.59.53,5.71,3.17,3.16,5.08-1,.7-2.7.65-3.82.53-.69-.08-1.5-.21-1.38-1.1.09-.73,1.08-1.57,1.78-1.09s1.44-.7.7-1.2Z" transform="translate(50.66 6.4)"/><path class="cls-10" d="M-30,61.24c-5.12.06-10.23.59-15.35.64a.7.7,0,0,0,0,1.39c5.12-.05,10.23-.58,15.35-.63a.7.7,0,0,0,0-1.4Z" transform="translate(50.66 6.4)"/><path class="cls-10" d="M79.91,69.91c-4.2.79-8.46.08-12.65-.4a47.1,47.1,0,0,0-12,.19c-4.26.59-8.49,1.51-12.8,1.63s-8.6,0-12.89-.1-8.81-.08-13.2.15a44.22,44.22,0,0,0-6.08.59,32.94,32.94,0,0,0-5.55,1.79A33.73,33.73,0,0,1-.65,75.58,31.12,31.12,0,0,1-6.9,76c-4.15,0-8.42-.2-12.52.53a68.14,68.14,0,0,1-7.37,1.07c-2.45.17-4.93.11-7.38.13l-15.17.12a.7.7,0,0,0,0,1.39h.82a.7.7,0,0,0,0-1.39h-.82V79.2l13.43-.11a93.16,93.16,0,0,0,12.83-.55c2.25-.33,4.46-.86,6.73-1s4.3-.15,6.46-.16c3.93,0,7.94.25,11.72-1s7.46-3,11.64-3.36c4.38-.36,8.79-.42,13.18-.39s8.79.16,13.19.16a76,76,0,0,0,12.32-1.16,53.14,53.14,0,0,1,14.18-.78c4.65.49,9.28,1.32,13.94.45.88-.16.5-1.5-.37-1.34Z" transform="translate(50.66 6.4)"/><path class="cls-10" d="M-.77,71.68A4.92,4.92,0,0,0,.94,71.5a4.25,4.25,0,0,0,1.79-.89,1.89,1.89,0,0,0,.55-2,1.44,1.44,0,0,0-.64-.9,2.44,2.44,0,0,0-1-.29,11.76,11.76,0,0,0-2.22-.1A9.61,9.61,0,0,0-2,67.48a3.74,3.74,0,0,0-1.75.74,1.67,1.67,0,0,0-.5,1.9,1.46,1.46,0,0,0,.89,1,4.11,4.11,0,0,0,1.1.2c.67,0,1.33,0,2,0a.7.7,0,0,0,0-1.39c-.47,0-.93,0-1.39,0l-.44,0h-.39l-.12,0-.18,0-.15,0h0c.11,0,0,0,0,0s.12,0,0,0,.06.1,0,0-.08-.15,0-.07a1.26,1.26,0,0,0,0-.12s0-.06,0-.08,0,.07,0,0,0-.19,0-.08,0-.06,0-.09c0,.18,0,0,0,0s.06-.1,0,0,0,0,0,0l.11-.1c-.09.08-.05,0,0,0l.32-.17c.11-.06-.09,0,.06,0l.16-.06.36-.1.34-.06s.22,0,.1,0h.09l.51,0c.55,0,1.1,0,1.65,0a3.4,3.4,0,0,1,.45,0l.2,0,.13,0,.35.1c.07,0,0,0,0,0l.06,0c.06,0,.15.15,0,0s-.05-.14,0,0,0,0,0,0a.76.76,0,0,1,0,.11,1.36,1.36,0,0,1,0,.17c0-.15,0,0,0,.08s0-.1,0,0,0,.09,0,.14c.05-.17,0,0,0,0s.06,0,0,0l-.14.15-.06.05c-.07.06.14-.09,0,0l-.36.22L1.13,70,1,70l-.43.13a3.15,3.15,0,0,1-.42.09l-.19,0c-.11,0,.12,0,0,0h-.1a3.09,3.09,0,0,1-.68,0,.7.7,0,0,0-.69.7.7.7,0,0,0,.69.69Z" transform="translate(50.66 6.4)"/><path class="cls-10" d="M53.33,73.56c-3.77.62-7.19,2.27-10.7,3.71A24.33,24.33,0,0,1,37.31,79a25.57,25.57,0,0,1-6.12,0c-4.1-.3-8.25-.3-12.37-.42A42.25,42.25,0,0,0,7.07,79.77c-2.26.56-4.5,1.25-6.73,1.91-1,.31-2.08.61-3.12.89a18.35,18.35,0,0,1-3.39.87c-.89,0-.89,1.44,0,1.39A27,27,0,0,0-.85,83.48C1.09,82.92,3,82.32,5,81.77A42.79,42.79,0,0,1,17.62,80c4.14.08,8.33.09,12.45.37a41.33,41.33,0,0,0,6.09.2,19.18,19.18,0,0,0,5.27-1.29c4.08-1.53,7.93-3.62,12.27-4.34.88-.14.51-1.48-.37-1.34Z" transform="translate(50.66 6.4)"/><path class="cls-10" d="M30.91,75c-5.4,0-10.77-.74-16.17-.62-4.25.09-8.5.43-12.75.48a.7.7,0,0,0,0,1.39c4.25,0,8.5-.39,12.75-.48,5.4-.11,10.77.64,16.17.63a.7.7,0,0,0,0-1.4Z" transform="translate(50.66 6.4)"/><path class="cls-10" d="M160.47,35.65c-1.07,2.7-5.47,3.48-7.93,3.83a24.93,24.93,0,0,1-12-1c-3.22-1.18-6-3.62-5.55-7.34.65-5.29,7.93-5.74,12-5.73a16,16,0,0,1,8.59,2.21c2.91,1.78,5.26,4.65,4.79,8.23-.11.89,1.28.88,1.39,0,.87-6.68-6.58-11.24-12.39-11.75a29.39,29.39,0,0,0-8.11.41c-2.53.49-5.3,1.5-6.76,3.76-2.42,3.74-.36,8.29,3.12,10.38,3.87,2.32,8.88,2.76,13.28,2.41,3.58-.29,9.31-1.16,10.84-5C162.14,35.19,160.79,34.83,160.47,35.65Z" transform="translate(50.66 6.4)"/><path class="cls-10" d="M150.77,30.55A4.32,4.32,0,0,1,153,32.21a2,2,0,0,1,.24,2,2.88,2.88,0,0,1-2.14,1.4,14.6,14.6,0,0,1-3.23.29c-1.87,0-4-.23-5.27-1.82a2.19,2.19,0,0,1-.47-1.92,2.64,2.64,0,0,1,1.63-1.58,9.88,9.88,0,0,1,3.41-.61,7.09,7.09,0,0,1,3.47.53c.8.41,1.5-.79.7-1.2a8.12,8.12,0,0,0-3.8-.73,12.74,12.74,0,0,0-3.88.56A4.46,4.46,0,0,0,141,31.19a3.4,3.4,0,0,0,.05,3c1.1,2.29,3.77,3,6.09,3.07a16.85,16.85,0,0,0,4-.27,4.57,4.57,0,0,0,3.1-1.79,3.34,3.34,0,0,0,.11-3.41,5.68,5.68,0,0,0-3.19-2.58c-.84-.31-1.21,1-.37,1.34Z" transform="translate(50.66 6.4)"/><path class="cls-10" d="M147.28,32.45h0l.11-.14,0,0,.14-.11,0,0,.17-.07-.07,0,.18,0a.34.34,0,0,1-.1,0l.18,0-.15,0,.16.07a.65.65,0,0,1-.16-.09l.15.11a.63.63,0,0,1-.12-.11l.11.14a.39.39,0,0,1-.06-.11l.07.17,0-.09,0,.18a.09.09,0,0,1,0,0l-.34.6h0l-.16.07.11,0-.18,0h.13l-.19,0,.16.05-.17-.07a.56.56,0,0,1,.17.09l-.14-.11.11.11-.11-.14.05.09-.07-.17s0,0,0,.06l0-.18v0l0-.19h0a.67.67,0,0,0,0,.28.61.61,0,0,0,.08.26.7.7,0,0,0,.18.2.55.55,0,0,0,.24.12l.19,0a.73.73,0,0,0,.35-.09.75.75,0,0,0,.32-.42.86.86,0,0,0,0-.45.85.85,0,0,0-.11-.26,1.5,1.5,0,0,0-.44-.43l-.29-.13a1.13,1.13,0,0,0-.32-.06,1.83,1.83,0,0,0-.33,0,1,1,0,0,0-.3.12.72.72,0,0,0-.35.6,2,2,0,0,0,0,.24s0,0,0,.06l.09.21,0,.05a1.21,1.21,0,0,0,.41.41l.1.07.27.11.29,0a1.32,1.32,0,0,0,.28,0,.93.93,0,0,0,.25-.1h0l.16-.12,0,0,.12-.16a.61.61,0,0,0,.08-.26.54.54,0,0,0,0-.28.58.58,0,0,0-.13-.23.47.47,0,0,0-.19-.18.69.69,0,0,0-.54-.07l-.17.07a.75.75,0,0,0-.25.25Z" transform="translate(50.66 6.4)"/><path class="cls-10" d="M163.63,25.17A25.23,25.23,0,0,0,157.4,22a58.27,58.27,0,0,0-7-2.71c-4.2-1.08-8.95-1.33-12.92.62-3.36,1.65-6,4.41-9.08,6.49a15,15,0,0,1-5.12,2.35c-2.53.55-5.36.28-7.94.2-3.17-.11-6.13-1.33-9.28-1.65a87.38,87.38,0,0,0-9.71.1.7.7,0,0,0,0,1.39c2.78,0,5.56-.31,8.34-.19s5.57,1.13,8.43,1.56a47.39,47.39,0,0,0,8.08.21,13.23,13.23,0,0,0,5.18-1.21c3.37-1.54,6-4.23,9-6.34a16.19,16.19,0,0,1,4.87-2.5,17.71,17.71,0,0,1,6.92-.23c3,.37,5.61,1.56,8.39,2.68a29.48,29.48,0,0,1,7.34,3.61c.71.54,1.4-.67.7-1.21Z" transform="translate(50.66 6.4)"/><path class="cls-10" d="M96.85,27.27c-3.74.12-7.37-1.21-11.12-1.34s-7.21.1-10.81.12a98.16,98.16,0,0,0-11.24.45c-3.66.43-7.3,1.18-11,1.47a25,25,0,0,1-5.4-.07A44.83,44.83,0,0,1,42,26.6a36.46,36.46,0,0,0-10.67-1c-2.06,0-4.12.12-6.18.15a14.1,14.1,0,0,1-4.8-.49c-2.1-.71-1.89-2.49-.76-4.12,1.76-2.55,5.46-1,8-1.07.9,0,.9-1.42,0-1.39-2.41.07-5-1-7.33.11A5.51,5.51,0,0,0,17.28,24c.52,3.46,5.88,3.23,8.41,3.16S31,27,33.67,27a27,27,0,0,1,6.34.59c1.94.46,3.84,1.1,5.8,1.5,3.72.77,7.54.34,11.26-.2a102.41,102.41,0,0,1,12.59-1.35q6.74-.16,13.48-.2a36.17,36.17,0,0,1,7,.53,30.6,30.6,0,0,0,6.66.84.7.7,0,0,0,0-1.39Z" transform="translate(50.66 6.4)"/><path class="cls-10" d="M23.68,23.41a35.8,35.8,0,0,0,3.87.18A6.16,6.16,0,0,0,31.1,21.9c1.92-1.78,1.59-4.16-.43-5.69-1.82-1.38-4.4-1.52-6.59-1.47a11.85,11.85,0,0,0-6.79,2c-1.05.72-2.06,1.51-3.16,2.15A11.32,11.32,0,0,1,9.3,20.22a87.43,87.43,0,0,1-10.11,0c-7.29-.13-14.42,1.63-21.7,1.69-4,0-8,.16-12.06.09s-8.11-.78-12.18-.78a.7.7,0,0,0,0,1.39c3.29,0,6.55.45,9.82.67s6.4.09,9.59.06,6.41,0,9.61-.24,6.61-.83,9.92-1.17a67,67,0,0,1,9.29-.25,53.82,53.82,0,0,0,8.89-.16,14.56,14.56,0,0,0,6.77-3,17.25,17.25,0,0,1,2.61-1.63,9.21,9.21,0,0,1,3.67-.73,17,17,0,0,1,3.9.18c1.34.24,3.29.92,3.68,2.44s-1.65,3-3,3.32S25.09,22,23.68,22a.7.7,0,0,0,0,1.39Z" transform="translate(50.66 6.4)"/><path class="cls-10" d="M42.78,35.51a5.22,5.22,0,0,0-5.29,2c-1.35,2,.13,3.95,2,4.95A16.58,16.58,0,0,0,47.74,44c3.71-.15,7.25-1.32,10.87-2s7.41-.69,11-1.68c2.6-.71,6.8-2.37,5.69-5.85C73.91,30,68.11,31,64.64,32c-2.14.65-4.13,1.74-6.27,2.37-3.36,1-6.65.17-9.95-.61a110.56,110.56,0,0,0-11-1.74c-3.78-.48-7.53-1.08-11.34-1.36-8-.58-16-.3-24.06-.3a119.45,119.45,0,0,0-13.11.22c-4,.44-7.79,1.83-11.71,2.66a64,64,0,0,1-11.93,1.64c-4,.09-7.95-1.71-11.86-.47-.85.27-.48,1.61.37,1.34,3.3-1,6.53.36,9.84.52a44.1,44.1,0,0,0,9.24-.79c6.61-1.09,12.9-3.53,19.64-3.71,7.1-.19,14.23-.11,21.33-.1a157.48,157.48,0,0,1,21.59,1.48c3.18.44,6.38.76,9.55,1.31,3,.52,5.84,1.49,8.84,1.74,4.77.39,8.7-2.41,13.22-3.38,1.79-.38,4.19-.75,5.8.39,1.1.77,1.79,2.39.87,3.54a7.81,7.81,0,0,1-4,2.1,33.07,33.07,0,0,1-5,1c-1.55.21-3.12.28-4.67.5-3.83.53-7.53,1.88-11.39,2.2-2.88.24-6.67,0-9.1-1.69-1.2-.85-1.63-2-.46-3.08a3.86,3.86,0,0,1,3.33-1,.7.7,0,0,0,.37-1.34Z" transform="translate(50.66 6.4)"/><path class="cls-10" d="M11,25.17c-9.38,1.11-18.8,1.45-28.21,2.06-9.23.61-18.39,2.11-27.66,2.21a.7.7,0,0,0,0,1.39c9.27-.1,18.43-1.6,27.66-2.21C-7.8,28,1.62,27.67,11,26.56c.87-.1.89-1.49,0-1.39Z" transform="translate(50.66 6.4)"/><path class="cls-10" d="M77.34,31.35c1.53,1.46,3.72,1.38,5.68,1.22s4.35-.58,6.08.7v-1.2c-2.2,1.23-4.26,2.69-6.38,4a24.69,24.69,0,0,1-6.4,3.23.7.7,0,0,0,.37,1.35c4.86-1.41,8.76-5,13.11-7.43a.7.7,0,0,0,0-1.2c-1.7-1.26-3.93-1.13-5.93-1-1.75.14-4.13.6-5.54-.75-.65-.61-1.64.37-1,1Z" transform="translate(50.66 6.4)"/><path class="cls-10" d="M-15.89,6.18c3.16-.09,6.2-1.46,9.38-1.28C-4,5-2.11,7.59-1.39,9.8S-2.82,13-4.52,13.69a31.14,31.14,0,0,1-6.79,1.64,76.63,76.63,0,0,1-11.5,1c-2.12,0-4.58-.18-6.37-1.46A4.77,4.77,0,0,1-30.57,9c1.17-1.91,4.09-2,6.06-2.05,1.16,0,2.32,0,3.48-.07,1.9-.09,3.76-.45,5.67-.48a.7.7,0,0,0,0-1.4c-1.94,0-3.85.41-5.78.49-1.21,0-2.42,0-3.62.08-2.17.09-4.79.3-6.4,2s-1.58,4.58-.54,6.57,3.49,3.07,5.75,3.43a32,32,0,0,0,7.89,0c2-.2,4.07-.36,6.09-.63A33.79,33.79,0,0,0-4,15c1.71-.68,4-1.84,4.21-3.93A6.77,6.77,0,0,0-1.36,6.91a9,9,0,0,0-3-3c-1.46-.72-3.37-.48-4.92-.25a54.71,54.71,0,0,1-6.6,1.09.7.7,0,0,0,0,1.39Z" transform="translate(50.66 6.4)"/><path class="cls-10" d="M-11.64,9a9.25,9.25,0,0,1,3,0l-.48-.48c.28,1.37-1.16,2.13-2.28,2.54a21.45,21.45,0,0,1-5.84,1,46.53,46.53,0,0,1-5,.07A11.91,11.91,0,0,1-23.62,12a4.23,4.23,0,0,1-.8-.18l-.26-.11c-.62.16.18-.15,0,0l0,.05c0,.21,0,.25,0,.13s-.06,0,0,0,.19-.18.28-.25a5.65,5.65,0,0,1,1.28-.69,28.22,28.22,0,0,1,4.53-1.19,23,23,0,0,1,6.38-.89c.9,0,.89-1.35,0-1.39a23.2,23.2,0,0,0-6.36.84,33.07,33.07,0,0,0-4.93,1.29c-.87.36-2.09.86-2.49,1.79-.46,1.08.63,1.7,1.53,1.91a23.66,23.66,0,0,0,6.18.23,25.89,25.89,0,0,0,7-1.06c2-.66,4-2,3.49-4.33a.71.71,0,0,0-.49-.49,11.27,11.27,0,0,0-3.71,0c-.88.15-.51,1.5.37,1.34Z" transform="translate(50.66 6.4)"/><path class="cls-10" d="M-22.08,1.05C-26.41,2.24-32.67.23-35.89,4.22c-1.86,2.29-1.47,5.22-1.7,8a2.34,2.34,0,0,1-2,2.33,39.35,39.35,0,0,1-7.5,1c-.89.08-.89,1.48,0,1.4A60.64,60.64,0,0,0-39.87,16a4.65,4.65,0,0,0,3.14-1.79,5.92,5.92,0,0,0,.56-3,13.66,13.66,0,0,1,.61-4.84c1-2.55,3.62-3.17,6.11-3.34s5.22,0,7.74-.65a.7.7,0,0,0-.37-1.34Z" transform="translate(50.66 6.4)"/><path class="cls-10" d="M-47.41,10.44a7.12,7.12,0,0,0,4.84-1.75A14.06,14.06,0,0,0-39,4.18c.46-.92.76-1.94,1.28-2.83A3.81,3.81,0,0,1-35.32-.43a25.74,25.74,0,0,1,7-.64,19.47,19.47,0,0,1,6.92.74c1.9.66,3.29,2.27,5.29,2.61,3.8.63,8,1,11.6-.63.82-.36.11-1.56-.7-1.2a13.85,13.85,0,0,1-6.56.89c-1.8-.11-4.16-.07-5.7-1A17.63,17.63,0,0,0-20-1.27a15.38,15.38,0,0,0-3-.92,28.77,28.77,0,0,0-6.29-.24c-3.31.1-8-.21-9.82,3.23C-40,2.6-40.58,4.44-41.9,6c-1.48,1.78-3.12,3-5.51,3a.7.7,0,0,0,0,1.39Z" transform="translate(50.66 6.4)"/><path class="cls-10" d="M-4.63,1.56C-3.27.8-1.71.91-.19.9A34,34,0,0,1,4,1,10.17,10.17,0,0,1,8.27,2.5a29.26,29.26,0,0,0,3.52,2.11,36.48,36.48,0,0,0,8.09,2.45,24.19,24.19,0,0,0,8.81.35c.88-.15.51-1.49-.37-1.34-3.29.58-6.62,0-9.83-.72A24.52,24.52,0,0,1,10,2,13.63,13.63,0,0,0,2.72-.47C.17-.59-3-.92-5.34.36c-.78.43-.08,1.63.71,1.2Z" transform="translate(50.66 6.4)"/><path class="cls-10" d="M28.36,7.47c7.38,0,14.33-2.68,21.45-4.3C57.12,1.51,64.9,1.35,72.37,1.31c7.64,0,15.46.34,22.9,2.18a48.14,48.14,0,0,1,10.32,4.12,37.59,37.59,0,0,0,9.92,3.71c2.78.5,7,1,9.22-1.29,2.46-2.59-2.65-4.75-4.62-4.82-.89,0-.89,1.36,0,1.39a5,5,0,0,1,2.71.9c.82.55,1.54,1.05.53,1.85-1.21,1-3.15,1-4.61,1a26.57,26.57,0,0,1-9.57-2.52c-3-1.32-5.78-3-8.85-4.19a49.63,49.63,0,0,0-9.45-2.41A113.3,113.3,0,0,0,70.46-.06C63.86.06,57,.23,50.55,1.59,43.16,3.14,36,6.06,28.36,6.08a.7.7,0,0,0,0,1.39Z" transform="translate(50.66 6.4)"/><path class="cls-10" d="M120.13,7.24A5.06,5.06,0,0,1,116,5.77c-1.33-1.72,1.54-3.27,2.91-3.58,2-.43,4,.25,5.88.91s3.46,1.25,5.2,1.86c7.52,2.6,14.81,6.21,22.74,7.44a31.2,31.2,0,0,0,13-.6.7.7,0,0,0-.37-1.34C156,13,146.86,9.91,138.14,6.55c-4.2-1.62-8.44-3.09-12.66-4.65C122,.63,117.38-.35,114.81,3.15s2.63,5.62,5.32,5.48c.89,0,.9-1.43,0-1.39Z" transform="translate(50.66 6.4)"/><path class="cls-10" d="M164,6.65a22,22,0,0,1-9.25.6A16.39,16.39,0,0,1,149,6c-.52-.27-1.21-.67-1.31-1.31-.14-.84.71-1.82,1.29-2.31A8.26,8.26,0,0,1,154.46.89c.8.06,2.46.54,2.39,1.59s-1.72,1.45-2.53,1.43a.7.7,0,0,0,0,1.39c2.27,0,5.39-2.29,3.15-4.54-1.86-1.87-5.07-1.41-7.31-.59-1.92.71-4.62,2.78-3.75,5.17.71,1.94,3.41,2.54,5.19,2.9a37,37,0,0,0,6.13.61A19.35,19.35,0,0,0,164.37,8c.85-.28.49-1.62-.37-1.35Z" transform="translate(50.66 6.4)"/><path class="cls-10" d="M147.7-4c-1.92,1.07-3.51,2.59-5.38,3.72a7.2,7.2,0,0,1-7.21.23c-2.28-1.1-4.26-2.46-6.72-3.17a30.78,30.78,0,0,0-8.59-1.15.7.7,0,0,0,0,1.39,28.92,28.92,0,0,1,9.32,1.45c2.57.87,4.67,2.72,7.29,3.47,5,1.44,8.06-2.56,12-4.73A.7.7,0,0,0,147.7-4Z" transform="translate(50.66 6.4)"/><path class="cls-10" d="M161,16.45c-5.28-.1-10.42-1.32-15.58-2.24-4.43-.8-9.28-1.67-13.76-1a69.68,69.68,0,0,0-7.12,1.88,39,39,0,0,1-7.67,1.13A47.34,47.34,0,0,1,102,14.49a61.61,61.61,0,0,0-7.56-1.71,60.7,60.7,0,0,0-7-.51,40.14,40.14,0,0,0-6.85.17,29.27,29.27,0,0,0-6.21,1.88c-3.49,1.37-7.18,2.92-11,2.81A3.62,3.62,0,0,1,60,15.4a5.36,5.36,0,0,1,.51-5.24C61.5,9,69.21,7,69,9.63c-.11,1.17-1.6,2.07-2.52,2.55a6,6,0,0,1-1.64.62,2.1,2.1,0,0,1-.61,0c-.09,0,0,.29,0,.06.07-.89-1.32-.88-1.39,0-.23,2.65,4.15.62,5,0a5.32,5.32,0,0,0,2.37-2.73,2.51,2.51,0,0,0-1.28-3c-1.5-.67-3.53-.21-5.07.08s-3.28.59-4.43,1.84c-2.11,2.28-1.85,7.25,1.11,8.73s7.7.15,10.72-.92c2.49-.9,4.9-2,7.46-2.74a29.78,29.78,0,0,1,8.43-.6,55.34,55.34,0,0,1,8.9.79c3,.56,6,1.6,9,2.22a46,46,0,0,0,16.59.44c3.25-.51,6.29-1.75,9.51-2.39s6.51-.19,9.7.19c6.74.81,13.3,2.82,20.13,2.94a.7.7,0,0,0,0-1.39Z" transform="translate(50.66 6.4)"/><path class="cls-10" d="M74.2,10.28c2,.16,6.43-.81,5-3.79C78.43,5,76.45,4.28,75,3.9a24.61,24.61,0,0,0-6.64-.3A38.52,38.52,0,0,0,55.48,6.29C51,8,46.89,10.46,42.07,10.92a63.21,63.21,0,0,1-7,.12c-2.1,0-4.19,0-6.28-.18-4-.34-8.11-1.1-12.15-.62a9.19,9.19,0,0,0-4,1.2,22,22,0,0,0-2.42,2.11A33.56,33.56,0,0,1,7,16.26c-.86.62-2.1,1.54-3.23,1.43a1.38,1.38,0,0,1-1.19-1c-.15-.63.47-1.18.88-1.58,1-1,2.4-1.85,3.11-3.17C8.16,9.06,4.07,5.85,1.7,4.92c-.84-.32-1.2,1-.37,1.35A8.48,8.48,0,0,1,5,9.23c1,1.46.33,2.42-.83,3.48C2.69,14,.05,15.79,1.71,18c2.88,3.81,8.76-2.82,10.82-4.65,2.22-2,5.42-1.93,8.24-1.8,3.76.17,7.49.86,11.26.87,4.27,0,8.61.37,12.82-.49S52.94,8.67,57,7.21A42.27,42.27,0,0,1,71.1,4.93,12.94,12.94,0,0,1,75,5.36c.9.27,2.35.74,2.84,1.64,1,1.81-2.75,2-3.66,1.89s-.88,1.32,0,1.39Z" transform="translate(50.66 6.4)"/><path class="cls-10" d="M47.83-6.32C42.22-3.57,37.12.71,31,2.21S17.51.65,12.52-3c-.72-.52-1.42.68-.7,1.2C16.94,2,24.2,5,30.64,3.7s12-5.93,17.89-8.82c.8-.4.1-1.6-.7-1.2Z" transform="translate(50.66 6.4)"/><path class="cls-10" d="M149.09,14.92c-4.15-.69-8.55-1.56-12.56.18a40.62,40.62,0,0,0-5,2.9,27.34,27.34,0,0,1-6,2.78,37.78,37.78,0,0,1-12.73,1.58c-4.54-.14-9-1.09-13.46-1.63-4.81-.57-9.65-.86-14.5-1a98.58,98.58,0,0,0-14.48.32c-4.42.55-8.77,1.54-13.17,2.19a50.24,50.24,0,0,1-7.35.59,14.9,14.9,0,0,1-5.1-.64c-2.44-.88-3.07-3.14-1.83-5.35a5.74,5.74,0,0,1,4.29-3c1.56-.27,3.84-.42,5.18.6,2.07,1.59-1,2.82-2.46,2.79a.7.7,0,0,0,0,1.39c2.61.05,6.44-2.49,3.57-5.07-2.09-1.88-6.52-1.63-8.88-.39-2.91,1.54-5.21,6.11-2.66,8.89s8.13,2.32,11.58,2c5.12-.43,10.13-1.64,15.21-2.4a96.54,96.54,0,0,1,16.83-.52,143.65,143.65,0,0,1,17.21,1.42,67.41,67.41,0,0,0,14.46,1.11,32.26,32.26,0,0,0,15-4.49c2.21-1.35,4.4-3,7-3.51,3.14-.63,6.43.05,9.54.57.88.15,1.25-1.19.37-1.34Z" transform="translate(50.66 6.4)"/><path class="cls-10" d="M72.09,1.24c3.18-.62,6.13.36,9,1.66C83.72,4.08,86.36,5.11,89,6.19c5.63,2.28,11,5.06,17.19,5.61.89.08.89-1.31,0-1.39-6.43-.58-12.09-3.76-18-6C85.42,3.31,82.76,2,80,.92a14.36,14.36,0,0,0-8.28-1c-.88.17-.51,1.52.37,1.34Z" transform="translate(50.66 6.4)"/></g><g class="cls-11"><path class="cls-10" d="M162.24,49.91c-6.24,0-12.51-.36-18.73.37s-11.86,2.92-17.73,4.6-11.89,2.82-18,2c-5-.68-9.78-2.29-14.72-3.25-1.13-.21-9.49-2-8.24,1.55.69,2,3.82,3.4,5.71,3.79.94.2,2.19.23,2.73-.75.69-1.25-.35-3-1-4a31.46,31.46,0,0,0-2.44-3.32A4.06,4.06,0,0,1,88.57,48c.31-2.3,3.46-3.56,5.31-4.26a47.47,47.47,0,0,1,9.25-2.32,46.68,46.68,0,0,1,6.77-.71,51.33,51.33,0,0,1,7,.54,38.48,38.48,0,0,1,9.61,2.22c1.68.68,4.81,2.4,3,4.59-1.1,1.36-3.3,1.82-4.91,2.17a45.07,45.07,0,0,1-5.91.77c-2.64.19-5.26.38-7.91.35-1.57,0-3.14-.08-4.71-.15a7.73,7.73,0,0,1-3.26-.65c-1.47-.74-2.16-2.2-.56-3.24s4.07-1.25,5.94-1.38c1.68-.12,4.28-.37,5.66.84.67.58,1.66-.4,1-1-1.39-1.21-3.47-1.32-5.23-1.3a25.33,25.33,0,0,0-5.87.76c-1.54.38-3.45,1.21-3.82,3a3.3,3.3,0,0,0,1.76,3.32c2,1.26,4.49,1.1,6.73,1.17a88,88,0,0,0,9.33-.22c3.68-.29,7.82-.44,11.15-2.21,2.22-1.19,3.42-3.76,1.59-5.85s-5.14-2.91-7.74-3.52a49.1,49.1,0,0,0-15.46-1.39,67.53,67.53,0,0,0-8.93,1.45,25.72,25.72,0,0,0-8.49,3.22c-1.84,1.25-3.3,3.17-2.52,5.48a14.13,14.13,0,0,0,2.47,3.63,15.79,15.79,0,0,1,1.85,2.94,3.08,3.08,0,0,1,.3,1.37.13.13,0,0,1-.07.08,3,3,0,0,1-.35.08,6.62,6.62,0,0,1-3.13-1,5.88,5.88,0,0,1-2.37-2c-.07-.13-.1-.09,0-.12a6.49,6.49,0,0,1,1.78-.24,44,44,0,0,1,10.23,1.85c5.68,1.47,11.42,2.79,17.32,2.21,6.2-.62,12.11-2.64,18-4.43a59.56,59.56,0,0,1,9.58-2.27,77,77,0,0,1,9.61-.5c3.19,0,6.38.09,9.57.07a.7.7,0,0,0,0-1.39Z" transform="translate(50.66 6.4)"/><path class="cls-10" d="M162,44c-6.2,1.13-12.89,1.93-19.14.79-3.47-.63-6.4-2.44-9.53-4-3.67-1.82-7.4-3.53-11.23-5C115,33.15,107.53,31.3,100,33.11a36.18,36.18,0,0,0-10.07,4.2,44.85,44.85,0,0,0-4.48,3.06A48.7,48.7,0,0,1,81,43.67c-6.12,3.72-13.52,3.92-20.44,4.74-3.93.47-7.82,1.25-11.76,1.65-4.27.43-8.38-.06-12.63-.43-7.9-.71-15.92.67-23.74-1a28.28,28.28,0,0,1-5.82-1.89,50.76,50.76,0,0,0-5.45-2.38,21.55,21.55,0,0,0-10.75-.7C-16.65,45-22,50.69-29.44,51c-5,.21-9.94-.06-14.9.31a16.81,16.81,0,0,0-2.44.32c-.87.21-.51,1.55.37,1.35a28.86,28.86,0,0,1,6.09-.44c2.72-.06,5.44,0,8.17-.08a27.62,27.62,0,0,0,6.72-.66c3.82-1,7-3.15,10.47-4.86A21.14,21.14,0,0,1-3.13,44.8,22.38,22.38,0,0,1,3,46.51c1.73.76,3.37,1.68,5.15,2.33,7.25,2.64,15.08,2,22.64,2,4.23,0,8.37.67,12.59.83a63.62,63.62,0,0,0,12.31-1.17c6.88-1.07,14.11-1.07,20.77-3.24a27,27,0,0,0,8.81-5,42,42,0,0,1,9.57-5.93A29.54,29.54,0,0,1,106,33.71a36.59,36.59,0,0,1,11.75,2.1,93.34,93.34,0,0,1,11.72,4.7c1.88.88,3.74,1.81,5.6,2.76a36.82,36.82,0,0,0,4.53,2.16c5.84,2,12.6,1.4,18.6.59,1.39-.19,2.77-.4,4.14-.65.88-.17.51-1.51-.37-1.35Z" transform="translate(50.66 6.4)"/><path class="cls-10" d="M16.28,43.91c2,.17,4.13-.42,4.88-2.46a.7.7,0,0,0-.32-.78c-2.23-1.2-12.6-2-10.83,2.82,1.18,3.27,5.2,3.81,8.18,3.77,1.78,0,3.55-.23,5.32-.36a19.23,19.23,0,0,0,4.71-.83c2.78-.94,4.86-3.12,3.13-6C29.12,36.25,25,34.39,20.78,33.9a19.18,19.18,0,0,0-6.84.29A49.27,49.27,0,0,0,7,36.85a17.71,17.71,0,0,1-8,1.58c-2.81-.14-5.58-.48-8.4-.48-3.28,0-6.56-.09-9.83,0-3.07.14-6.05.79-9.09,1.13s-5.83-.15-8.8-.46a30.7,30.7,0,0,0-9,.18c-.88.17-.51,1.51.37,1.34a26.74,26.74,0,0,1,7.09-.26c2.29.16,4.56.65,6.84.74,4.63.19,9.2-1.19,13.83-1.32a120.19,120.19,0,0,1,14.7.29,21.62,21.62,0,0,0,6.86-.12,34,34,0,0,0,5.92-2.21,25,25,0,0,1,6.4-2.07,19.34,19.34,0,0,1,6.21.25,12.78,12.78,0,0,1,5.41,2.3c1.23.94,3.17,2.7,3.18,4.38,0,2.62-4.8,3.16-6.63,3.3-3.08.25-6.41.84-9.45.06-1.2-.3-3.22-1.31-3.34-2.77-.07-.93,1.17-1.23,1.87-1.4,2.08-.48,5.1-.53,7,.51l-.32-.79c-.51,1.41-2.24,1.55-3.53,1.43-.89-.07-.88,1.32,0,1.4Z" transform="translate(50.66 6.4)"/><path class="cls-10" d="M-33.82,43.93c2.19,0,4.44-.63,6.61-.22.49.09,1.78.57,1.4,1.31-.25.49-1.48.55-1.92.6A23.14,23.14,0,0,1-34.31,45a59.41,59.41,0,0,0-11.1-1.44.7.7,0,0,0,0,1.39,58.07,58.07,0,0,1,10.73,1.39,27.68,27.68,0,0,0,6.15.69c1.26-.05,3.35-.14,4-1.47.76-1.57-.94-3-2.31-3.22-2.31-.46-4.65.12-7,.17a.7.7,0,0,0,0,1.39Z" transform="translate(50.66 6.4)"/><path class="cls-10" d="M-41.16,47.56a17.8,17.8,0,0,1-4.39-.13.7.7,0,0,0-.85.49.7.7,0,0,0,.48.85,18.07,18.07,0,0,0,4.76.18.72.72,0,0,0,.7-.7.71.71,0,0,0-.7-.69Z" transform="translate(50.66 6.4)"/><path class="cls-10" d="M-3,53.22A3,3,0,0,0-.22,50c-.31-2-2.41-1.64-3.89-1.84-3-.4-7.18-.48-7.58,3.53-.3,3.09,3,4.06,5.44,4.33,3.93.44,8-.21,11.91-.65A160.41,160.41,0,0,1,24,53.94a70.47,70.47,0,0,1,8.94.88,63,63,0,0,0,8.79.41c12-.09,24.17-1,36.13.37,6.62.75,12.59,3,18.57,5.83,5.59,2.66,11.36,3.45,17.45,4,.89.08.89-1.31,0-1.39-4.81-.43-9.58-.93-14.13-2.66s-8.88-4.19-13.64-5.6A63.14,63.14,0,0,0,71,53.69c-5.25-.23-10.51-.13-15.77-.06s-10.8.26-16.2.21c-5.13-.05-10.13-1.27-15.26-1.29A136.53,136.53,0,0,0,7.57,53.8,96,96,0,0,1-4,54.79c-2.09,0-7.36-.25-6.09-3.67.73-2,3.08-1.9,4.82-1.69.78.09,1.52.22,2.3.24s1.5,0,1.39.94A1.77,1.77,0,0,1-3,51.83c-.88.09-.89,1.48,0,1.39Z" transform="translate(50.66 6.4)"/><path class="cls-10" d="M113.84,65.43c3.73.08,7.14-1.71,10.6-2.83,4-1.26,7.9-2.6,11.86-3.83,8.19-2.55,17-1.87,25.46-1.93a.7.7,0,0,0,0-1.39c-8.23.06-16.89-.63-24.89,1.69-4.05,1.18-8,2.7-12,3.89-3.61,1.06-7.15,3.09-11,3a.7.7,0,0,0,0,1.39Z" transform="translate(50.66 6.4)"/><path class="cls-10" d="M165.15,61.33c-7.69.07-15.39.07-23.08.15-2.29,0-5.13.18-6.84,1.93a4.54,4.54,0,0,0-.24,6,6.87,6.87,0,0,0,6.86,2.29.7.7,0,0,0-.37-1.34c-2.24.61-5.64-.74-6.09-3.24-.61-3.49,3.62-4.13,6.09-4.21,7.88-.24,15.79-.09,23.67-.16a.7.7,0,0,0,0-1.39Z" transform="translate(50.66 6.4)"/><path class="cls-10" d="M142,68a3.43,3.43,0,0,1,4.23,1.6c.67,1.12,1.07,3.25-.49,3.79a10.66,10.66,0,0,1-4.25,0,50.06,50.06,0,0,1-5-.39c-3.83-.77-7.33-2.67-11.22-3.21a88.79,88.79,0,0,0-14.12-.6c-4.71.1-9.43.38-14.15.43s-9.51-.38-14.25,0a15.59,15.59,0,0,0-5.32,1.14,32.28,32.28,0,0,0-4.69,2.74,23.35,23.35,0,0,1-4.86,2.7,22.39,22.39,0,0,1-5.33,1c-3.86.38-7.78.3-11.59,1.07a17.67,17.67,0,0,0-10.18,6c-.58.68.4,1.67,1,1A16.75,16.75,0,0,1,52,79.53c3.78-.67,7.65-.54,11.45-1a20.9,20.9,0,0,0,5.3-1.14,27.55,27.55,0,0,0,4.84-2.75,24.36,24.36,0,0,1,5.21-2.89,21.27,21.27,0,0,1,6.79-.82c5.08-.08,10.15.23,15.23.08s10.24-.45,15.37-.38c4.81.07,9.53.39,14.09,2a42.76,42.76,0,0,0,6,1.84c1.7.33,3.39.24,5.09.4,2.73.25,6.78.63,6.84-3.16a5.09,5.09,0,0,0-6.57-5c-.84.29-.48,1.64.37,1.34Z" transform="translate(50.66 6.4)"/><path class="cls-10" d="M163.31,65.55c-2.29,0-4.57-.35-6.86-.33-1.86,0-5,0-5.87,2.08-.33.83,1,1.2,1.34.37,0,.1.07-.12.09-.14s.08-.08.08-.08a1.57,1.57,0,0,1,.38-.25,4.46,4.46,0,0,1,1.24-.38,17,17,0,0,1,3.42-.21c2.06,0,4.12.33,6.18.33a.7.7,0,0,0,0-1.39Z" transform="translate(50.66 6.4)"/><path class="cls-10" d="M149.67,71.11c1,2.38,3.9,2,6,1.71a67,67,0,0,1,10-.69.7.7,0,0,0,0-1.39,56,56,0,0,0-9.24.54,20,20,0,0,1-3.08.39c-.8,0-2,0-2.36-.93s-1.69-.46-1.34.37Z" transform="translate(50.66 6.4)"/><path class="cls-10" d="M165.61,75.19c-3.66,0-7.34-.09-11,.09-3.12.14-5.84,1.56-8.79,2.42-6.54,1.91-13-.94-19.43-1.85a61.69,61.69,0,0,0-9.71-.26c-3.46.06-6.91.11-10.36-.06-6.64-.35-13.37-2.84-19.95-.82-3.52,1.08-6.66,3.06-10,4.46s-7.22,1.64-10.93,2.2c-.88.14-.51,1.48.37,1.34,3.25-.49,6.58-.62,9.71-1.73,3-1,5.68-2.66,8.55-3.91a20.93,20.93,0,0,1,10.3-1.68c3.4.29,6.71,1.14,10.12,1.41s6.9.26,10.35.21a92.14,92.14,0,0,1,10.11,0c6.22.62,12.2,3.35,18.54,2.55,3.43-.43,6.45-2.27,9.84-2.81a39.55,39.55,0,0,1,6-.21c2.12,0,4.24,0,6.36,0a.7.7,0,0,0,0-1.4Z" transform="translate(50.66 6.4)"/><path class="cls-10" d="M77.87,86.69c2.5-.68,4.63-2.46,7-3.51a56.53,56.53,0,0,1,8.7-2.8A31.69,31.69,0,0,1,103.42,79a50.07,50.07,0,0,1,9.32,1.68c3.13.75,6.3,1.09,9.47,1.63s6.16,1.58,9.32,2a36.81,36.81,0,0,0,17.59-1.87c1.57-.57,3.1-1.24,4.67-1.8s3.33-1.21,5.05-.85c2.37.5,4.21,2.28,6.64,2.69.87.14,1.25-1.2.37-1.34-2.22-.37-3.93-1.86-6-2.53-2.61-.82-5.23.22-7.67,1.17a51.53,51.53,0,0,1-9.24,2.88,34.68,34.68,0,0,1-9.43.48c-3.28-.29-6.33-1.26-9.53-1.93s-6.32-.86-9.43-1.56a85.55,85.55,0,0,0-9.24-1.91,28.71,28.71,0,0,0-9.42.57,61,61,0,0,0-10,2.85,32.86,32.86,0,0,0-4.17,1.93,17.85,17.85,0,0,1-4.22,2.2.7.7,0,0,0,.37,1.34Z" transform="translate(50.66 6.4)"/><path class="cls-10" d="M79,64c1.43-.52,1.12-1.72-.07-2.32a3.55,3.55,0,0,0-3.94.09c-1,.78-2.77,2.26-2.46,3.75s1.87,1.78,3,1.94a18.86,18.86,0,0,0,5.09-.11c1.36-.18,2.79-.34,4.12-.65,1.5-.34,3-1.26,2.3-3a9,9,0,0,0-3.59-3.82,16,16,0,0,0-6.86-2.22A12.26,12.26,0,0,0,70,59.49c-2.22,1.22-4.26,2.82-6.65,3.72a32.37,32.37,0,0,1-9.31,1.6c-6.45.41-12.93.44-19.38.51-3.15,0-6.31,0-9.45.16-2.91.13-5.81.34-8.71.41a41.34,41.34,0,0,1-9.87-.77c-2.68-.61-5.23-1.52-8-1.57A9.34,9.34,0,0,0-8.27,66.2a18.53,18.53,0,0,1-3.52,3,22.39,22.39,0,0,1-5.05,2,.7.7,0,0,0,.37,1.34A19.69,19.69,0,0,0-10,69.71c1.68-1.26,2.92-3.15,4.84-4.08,4-1.94,8.66.36,12.7,1.08,4.63.84,9.37.61,14,.35,5.11-.28,10.21-.31,15.32-.38,5.42-.06,10.84-.14,16.25-.42,4.61-.24,9.37-.73,13.44-3.07C70.38,61,73.8,58.3,78.46,59.42A12.05,12.05,0,0,1,83.83,62a9.53,9.53,0,0,1,1.68,1.85c.66,1.06-.15,1.35-1.13,1.58-1.24.29-2.58.44-3.84.61a17.29,17.29,0,0,1-4.87.12c-.47-.07-1.48-.2-1.73-.69s.7-1.49,1.11-1.88a2.75,2.75,0,0,1,1.69-1,3.35,3.35,0,0,1,1.19.29,3.05,3.05,0,0,0,.46.2l.17.1c.22.22.23.08,0-.42-.83.3-.47,1.65.37,1.34Z" transform="translate(50.66 6.4)"/><path class="cls-10" d="M-15.95,71.2c-10.23,1.08-20.52,1.31-30.81,1.4a.7.7,0,0,0,0,1.39c10.29-.09,20.58-.32,30.81-1.4.88-.09.89-1.48,0-1.39Z" transform="translate(50.66 6.4)"/><path class="cls-10" d="M62.23,58.36a91,91,0,0,0-11.44.42c-3.73.51-7.38,1.52-11.14,1.84s-7.62-.3-11.44-.82a73.89,73.89,0,0,0-10.73-.19c-3.88,0-7.77,0-11.64.1-3.13.1-6.37.66-9.47,0-3.32-.69-6.47-2.1-9.8-2.83a44.82,44.82,0,0,0-10.28-.77c-4.13.06-8.26.08-12.39.11-1.7,0-3.38.09-5.08.2a13.67,13.67,0,0,1-5.06-.22c-.85-.27-1.22,1.07-.37,1.34,2.66.84,5.59.17,8.31.09,3.76-.1,7.52-.06,11.28-.09a70.81,70.81,0,0,1,11,.26A71.6,71.6,0,0,1-5.95,60.52a25.54,25.54,0,0,0,9.42.71C7,61,10.5,61.06,14,61c3.86,0,7.76-.29,11.62-.08S33,62.09,36.8,62.13c4.07,0,8-.92,12-1.63a80.5,80.5,0,0,1,13.44-.75.7.7,0,0,0,0-1.39Z" transform="translate(50.66 6.4)"/><path class="cls-10" d="M-19.45,63.66c-2.66-1.84-5.74,3.35-2.43,4.53,2.4.85,7,.4,7.27-2.8.31-3-3.47-5.14-5.95-5.55-4.42-.74-4.84,4.79-7.93,6.45a10,10,0,0,1-4,.79c-1.76.16-3.51.36-5.27.51-3.47.31-6.94.28-10.41.31a.7.7,0,0,0,0,1.39c4.46,0,8.85-.14,13.29-.59,3.34-.33,6.9-.07,9.09-3a25.75,25.75,0,0,1,2.71-3.73,2.84,2.84,0,0,1,3.21-.5c1.6.53,5.72,3.17,3.17,5.08-.95.71-2.7.66-3.82.53-.69-.07-1.5-.21-1.39-1.1.1-.73,1.09-1.57,1.79-1.09s1.43-.69.7-1.2Z" transform="translate(50.66 6.4)"/><path class="cls-10" d="M-30.67,61.65c-5.13.06-10.23.59-15.35.64a.7.7,0,0,0,0,1.39c5.12,0,10.22-.58,15.35-.63a.7.7,0,0,0,0-1.4Z" transform="translate(50.66 6.4)"/><path class="cls-10" d="M79.25,70.32c-4.2.79-8.45.08-12.64-.4a47.1,47.1,0,0,0-12,.19c-4.26.59-8.49,1.51-12.8,1.63s-8.6,0-12.89-.1-8.81-.08-13.21.16a42.71,42.71,0,0,0-6.07.58A35.31,35.31,0,0,0,4.1,74.17,33.29,33.29,0,0,1-1.3,76a31.12,31.12,0,0,1-6.25.38c-4.16,0-8.42-.2-12.53.53A67.78,67.78,0,0,1-27.45,78c-2.45.17-4.92.11-7.37.13L-50,78.22v1.39h.82a.7.7,0,0,0,0-1.39H-50a.7.7,0,0,0,0,1.39l13.42-.11A93.1,93.1,0,0,0-23.74,79c2.25-.33,4.47-.86,6.74-1s4.3-.15,6.46-.16c3.93,0,7.93.25,11.72-1s7.46-3,11.64-3.36C17.2,73,21.6,73,26,73s8.79.15,13.19.15A76,76,0,0,0,51.51,72a53.14,53.14,0,0,1,14.18-.78c4.65.49,9.28,1.32,13.93.45.88-.16.51-1.5-.37-1.34Z" transform="translate(50.66 6.4)"/><path class="cls-10" d="M-1.42,72.09a4.92,4.92,0,0,0,1.71-.18A4.11,4.11,0,0,0,2.07,71a1.89,1.89,0,0,0,.56-2A1.5,1.5,0,0,0,2,68.16,2.84,2.84,0,0,0,1,67.87a12.7,12.7,0,0,0-2.22-.1,9.51,9.51,0,0,0-1.51.12,3.7,3.7,0,0,0-1.75.74,1.66,1.66,0,0,0-.51,1.9,1.48,1.48,0,0,0,.9,1,4.11,4.11,0,0,0,1.1.2c.67,0,1.33,0,2,0a.7.7,0,0,0,0-1.39c-.47,0-.93,0-1.39,0l-.44,0h-.39l-.12,0-.19,0-.14,0h0c.11,0,0,0,0,0s.12,0,0,0,0,.1,0,0-.08-.15,0-.07a.64.64,0,0,1,0-.12.31.31,0,0,1,0-.08c0-.13,0,.07,0,0s0-.19,0-.08,0-.06,0-.09c0,.18,0,0,0,0s.06-.1,0,0,0,0,0,0l.1-.1c-.08.08,0,0,0,0l.32-.17c.11-.06-.09,0,.06,0l.15-.06.37-.1.34-.06s.21,0,.1,0H-2l.5,0c.55,0,1.11,0,1.66,0a3.4,3.4,0,0,1,.45,0l.2,0c-.14,0,.08,0,.12,0s.24.06.36.09-.05,0-.06,0,.06,0,.07,0,.14.15,0,0,0-.13,0,0,0,0,0,0a.56.56,0,0,1,0,.12.94.94,0,0,1,0,.16c0-.15,0,0,0,.08s0-.09,0,0a.57.57,0,0,0,0,.14c.05-.17,0,0,0,0s.06,0,0,0L1.09,70l-.06,0c-.07.06.14-.08,0,0l-.35.22-.19.08-.1,0L0,70.56l-.42.09-.2,0c-.1,0,.13,0,0,0h-.1a3.09,3.09,0,0,1-.68,0,.7.7,0,0,0-.69.7.7.7,0,0,0,.69.69Z" transform="translate(50.66 6.4)"/><path class="cls-10" d="M52.68,74c-3.78.62-7.19,2.27-10.7,3.71a24.54,24.54,0,0,1-5.32,1.74,26.1,26.1,0,0,1-6.12,0c-4.1-.3-8.25-.3-12.37-.42A42.25,42.25,0,0,0,6.42,80.18c-2.26.56-4.5,1.25-6.73,1.91-1,.31-2.08.61-3.12.89a18.35,18.35,0,0,1-3.39.87c-.89.05-.9,1.44,0,1.39A26.28,26.28,0,0,0-1.5,83.89c1.94-.56,3.87-1.16,5.81-1.71A42.79,42.79,0,0,1,17,80.37c4.14.08,8.33.09,12.45.37a41.33,41.33,0,0,0,6.09.2,19,19,0,0,0,5.26-1.29c4.09-1.53,7.94-3.62,12.28-4.33.88-.15.51-1.49-.37-1.35Z" transform="translate(50.66 6.4)"/><path class="cls-10" d="M30.26,75.4c-5.4,0-10.77-.74-16.17-.62-4.25.09-8.5.43-12.75.48a.7.7,0,0,0,0,1.39c4.25-.05,8.5-.39,12.75-.48,5.4-.11,10.77.64,16.17.63a.7.7,0,0,0,0-1.4Z" transform="translate(50.66 6.4)"/><path class="cls-10" d="M159.81,36.06c-1.06,2.7-5.46,3.48-7.92,3.83a24.93,24.93,0,0,1-12-1c-3.22-1.17-6-3.62-5.56-7.34.65-5.29,7.93-5.74,12-5.73A16,16,0,0,1,155,28c2.91,1.78,5.26,4.65,4.8,8.23-.12.88,1.28.88,1.39,0C162,29.57,154.6,25,148.79,24.5a29.87,29.87,0,0,0-8.12.41c-2.52.5-5.29,1.5-6.75,3.76-2.42,3.74-.37,8.29,3.11,10.38,3.87,2.32,8.89,2.76,13.29,2.41,3.57-.29,9.31-1.16,10.84-5C161.49,35.6,160.14,35.24,159.81,36.06Z" transform="translate(50.66 6.4)"/><path class="cls-10" d="M150.12,31a4.32,4.32,0,0,1,2.19,1.66,2.06,2.06,0,0,1,.24,2A2.89,2.89,0,0,1,150.41,36a14.64,14.64,0,0,1-3.24.3c-1.86,0-4-.24-5.26-1.83a2.22,2.22,0,0,1-.48-1.92A2.7,2.7,0,0,1,143.07,31a9.88,9.88,0,0,1,3.41-.61,7.21,7.21,0,0,1,3.47.53c.8.41,1.5-.79.7-1.2a8.12,8.12,0,0,0-3.8-.73,12.41,12.41,0,0,0-3.88.57,4.38,4.38,0,0,0-2.65,2.07,3.37,3.37,0,0,0,0,3c1.11,2.29,3.78,2.95,6.1,3.07a17.42,17.42,0,0,0,4-.26,4.6,4.6,0,0,0,3.09-1.8,3.31,3.31,0,0,0,.11-3.41,5.62,5.62,0,0,0-3.18-2.58c-.85-.31-1.21,1-.37,1.34Z" transform="translate(50.66 6.4)"/><path class="cls-10" d="M146.63,32.86h0l.11-.14,0,0,.14-.1,0,0,.17-.07-.07,0,.18,0H147l.19,0-.15-.05.16.07a.51.51,0,0,1-.16-.09l.14.11a.63.63,0,0,1-.11-.12l.11.15-.07-.11.07.17a.36.36,0,0,1,0-.1l0,.18v0l-.35.6h0l-.17.07.12,0-.19,0a.28.28,0,0,1,.13,0l-.18,0a.47.47,0,0,1,.16,0l-.17-.07a.51.51,0,0,1,.16.09l-.14-.11.11.11-.1-.14a.41.41,0,0,1,.05.09l-.07-.16,0,0,0-.18v.05l0-.19h0a.67.67,0,0,0,0,.28.61.61,0,0,0,.08.26.7.7,0,0,0,.18.2.55.55,0,0,0,.24.12l.18,0a.74.74,0,0,0,.36-.09.72.72,0,0,0,.32-.42.86.86,0,0,0,0-.45.85.85,0,0,0-.11-.26,1.5,1.5,0,0,0-.44-.43l-.29-.13a1.2,1.2,0,0,0-.33-.06,1.72,1.72,0,0,0-.32,0,1.17,1.17,0,0,0-.31.12.68.68,0,0,0-.34.6,1,1,0,0,0,0,.24.13.13,0,0,0,0,.06,1.89,1.89,0,0,0,.09.21l0,0,.13.18,0,.05a1,1,0,0,0,.23.18l.1.07.27.11a1.35,1.35,0,0,0,.29,0,.62.62,0,0,0,.19,0l.14,0,.18-.08h0a1,1,0,0,0,.32-.31.61.61,0,0,0,.08-.26.67.67,0,0,0,0-.28.58.58,0,0,0-.13-.23.47.47,0,0,0-.19-.18.69.69,0,0,0-.54-.07l-.17.07a.75.75,0,0,0-.25.25Z" transform="translate(50.66 6.4)"/><path class="cls-10" d="M163,25.58a25.41,25.41,0,0,0-6.23-3.17,58.93,58.93,0,0,0-7-2.71c-4.2-1.08-8.95-1.33-12.92.62-3.37,1.65-6,4.41-9.09,6.49a15,15,0,0,1-5.11,2.35c-2.53.55-5.37.28-7.94.2-3.18-.11-6.14-1.33-9.29-1.65a87.38,87.38,0,0,0-9.71.1.7.7,0,0,0,0,1.4c2.78,0,5.56-.32,8.34-.2s5.58,1.13,8.43,1.56a47.53,47.53,0,0,0,8.09.21,13.14,13.14,0,0,0,5.17-1.21c3.37-1.54,6-4.23,9-6.34a16.07,16.07,0,0,1,4.87-2.5,17.66,17.66,0,0,1,6.91-.23c3,.37,5.62,1.56,8.4,2.68a29.83,29.83,0,0,1,7.34,3.61c.71.54,1.4-.67.7-1.21Z" transform="translate(50.66 6.4)"/><path class="cls-10" d="M96.2,27.68c-3.74.12-7.37-1.21-11.12-1.33-3.6-.13-7.21.09-10.81.11A98.07,98.07,0,0,0,63,26.91c-3.66.43-7.3,1.19-11,1.47a25,25,0,0,1-5.4-.07A44.37,44.37,0,0,1,41.3,27a36.49,36.49,0,0,0-10.67-1c-2.06,0-4.12.12-6.18.15a14.19,14.19,0,0,1-4.81-.49c-2.09-.71-1.88-2.48-.75-4.12,1.76-2.55,5.46-1,8-1.07.9,0,.9-1.42,0-1.39-2.41.07-5-1-7.34.12a5.49,5.49,0,0,0-2.9,5.17c.52,3.47,5.88,3.23,8.41,3.16s5.32-.17,8-.17a26.51,26.51,0,0,1,6.34.58c1.94.46,3.84,1.1,5.79,1.5,3.73.77,7.55.35,11.27-.2A102.46,102.46,0,0,1,69,27.9c4.49-.11,9-.17,13.49-.2a36.07,36.07,0,0,1,7,.53,29.51,29.51,0,0,0,6.67.84c.89,0,.9-1.42,0-1.39Z" transform="translate(50.66 6.4)"/><path class="cls-10" d="M23,23.82A35.8,35.8,0,0,0,26.9,24a6.16,6.16,0,0,0,3.55-1.69c1.92-1.77,1.59-4.16-.43-5.69-1.82-1.38-4.4-1.52-6.59-1.47a11.83,11.83,0,0,0-6.79,2c-1.06.72-2.06,1.51-3.16,2.16a11.45,11.45,0,0,1-4.84,1.34,87.44,87.44,0,0,1-10.11,0c-7.28-.13-14.41,1.63-21.69,1.69-4,0-8,.16-12.07.09s-8.1-.78-12.18-.78a.7.7,0,0,0,0,1.39c3.3,0,6.55.45,9.83.67s6.39.09,9.58.07,6.42,0,9.62-.24,6.6-.83,9.92-1.18a68.6,68.6,0,0,1,9.29-.25,53.84,53.84,0,0,0,8.89-.16,14.46,14.46,0,0,0,6.77-3A17.55,17.55,0,0,1,19.1,17.3a9.21,9.21,0,0,1,3.67-.73,17,17,0,0,1,3.9.18c1.35.25,3.29.92,3.68,2.44s-1.65,3-3,3.33-2.94-.08-4.35-.09a.7.7,0,0,0,0,1.39Z" transform="translate(50.66 6.4)"/><path class="cls-10" d="M42.12,35.92a5.21,5.21,0,0,0-5.28,2c-1.35,2,.13,4,2,5a16.64,16.64,0,0,0,8.29,1.56c3.71-.14,7.25-1.32,10.87-2s7.41-.69,11-1.68c2.61-.71,6.81-2.37,5.7-5.85-1.45-4.53-7.24-3.52-10.71-2.47-2.14.65-4.13,1.74-6.27,2.37-3.36,1-6.65.17-9.95-.6a107.76,107.76,0,0,0-11-1.75C33,32,29.23,31.38,25.42,31.1c-8-.57-16-.3-24.06-.3A119.41,119.41,0,0,0-11.75,31c-4,.44-7.79,1.83-11.71,2.66a65,65,0,0,1-11.93,1.65c-4,.08-8-1.72-11.86-.48-.85.27-.49,1.62.37,1.34,3.3-1,6.53.36,9.84.52a43.44,43.44,0,0,0,9.24-.79c6.61-1.09,12.9-3.53,19.64-3.71,7.1-.19,14.23-.11,21.33-.1a157.48,157.48,0,0,1,21.59,1.48c3.18.44,6.38.76,9.55,1.31,2.95.52,5.84,1.49,8.84,1.74,4.77.39,8.7-2.41,13.22-3.38,1.78-.38,4.19-.74,5.8.39,1.1.77,1.79,2.39.87,3.55a7.87,7.87,0,0,1-4,2.09,31.9,31.9,0,0,1-5,1c-1.55.21-3.12.28-4.67.5-3.83.53-7.53,1.88-11.39,2.2-2.88.24-6.67,0-9.11-1.69-1.19-.85-1.62-2-.45-3.08a3.84,3.84,0,0,1,3.32-1,.7.7,0,0,0,.37-1.34Z" transform="translate(50.66 6.4)"/><path class="cls-10" d="M10.34,25.58C1,26.69-8.45,27-17.86,27.65c-9.24.6-18.4,2.1-27.66,2.2a.7.7,0,0,0,0,1.39c9.26-.1,18.42-1.6,27.66-2.2,9.41-.62,18.83-1,28.2-2.06.88-.11.89-1.5,0-1.4Z" transform="translate(50.66 6.4)"/><path class="cls-10" d="M76.69,31.76c1.53,1.46,3.71,1.38,5.68,1.22s4.35-.58,6.08.7v-1.2c-2.2,1.23-4.26,2.69-6.38,4.05a24.69,24.69,0,0,1-6.4,3.23A.7.7,0,0,0,76,41.11c4.85-1.41,8.76-5,13.11-7.43a.71.71,0,0,0,0-1.2c-1.7-1.26-3.93-1.13-5.93-1-1.75.14-4.14.6-5.55-.74-.64-.62-1.63.36-1,1Z" transform="translate(50.66 6.4)"/><path class="cls-10" d="M-16.54,6.59c3.16-.09,6.2-1.45,9.38-1.28,2.45.13,4.4,2.7,5.12,4.9s-1.43,3.23-3.14,3.89A31.46,31.46,0,0,1-12,15.75a76.38,76.38,0,0,1-11.49,1c-2.12,0-4.58-.17-6.37-1.46a4.77,4.77,0,0,1-1.39-5.9c1.17-1.91,4.09-2,6.06-2,1.16,0,2.32,0,3.47-.08,1.9-.09,3.77-.45,5.68-.48a.7.7,0,0,0,0-1.39c-1.95,0-3.85.4-5.78.48-1.21,0-2.42,0-3.62.08-2.17.1-4.79.3-6.4,2s-1.58,4.59-.54,6.57c1.12,2.14,3.48,3.08,5.74,3.43a32,32,0,0,0,7.89,0c2-.2,4.07-.35,6.1-.63A33.6,33.6,0,0,0-4.69,15.4c1.71-.68,4-1.84,4.22-3.93A6.72,6.72,0,0,0-2,7.32a8.94,8.94,0,0,0-3-3c-1.46-.72-3.37-.48-4.92-.25a55,55,0,0,1-6.6,1.09.7.7,0,0,0,0,1.39Z" transform="translate(50.66 6.4)"/><path class="cls-10" d="M-12.29,9.39a9,9,0,0,1,3,0l-.49-.49c.29,1.37-1.15,2.13-2.27,2.54a21.52,21.52,0,0,1-5.85,1,41.72,41.72,0,0,1-5,.07,12.28,12.28,0,0,1-1.35-.11,4.6,4.6,0,0,1-.8-.18l-.25-.11c-.63.16.18-.14,0,0l0,.05c0,.21,0,.25,0,.13s-.06,0,0,0,.18-.18.27-.25a5.72,5.72,0,0,1,1.29-.69,28,28,0,0,1,4.53-1.19,23,23,0,0,1,6.38-.89c.9,0,.89-1.35,0-1.39a23,23,0,0,0-6.37.85A32.17,32.17,0,0,0-24.13,10c-.87.36-2.08.86-2.48,1.79-.46,1.08.63,1.71,1.53,1.91a23.6,23.6,0,0,0,6.17.23,26,26,0,0,0,7-1.06c2-.66,4-2,3.48-4.33A.65.65,0,0,0-8.95,8a11.27,11.27,0,0,0-3.71,0c-.88.16-.51,1.5.37,1.34Z" transform="translate(50.66 6.4)"/><path class="cls-10" d="M-22.73,1.46C-27.06,2.65-33.32.64-36.55,4.63c-1.86,2.3-1.46,5.22-1.69,8a2.36,2.36,0,0,1-2,2.33,40.4,40.4,0,0,1-7.51,1c-.88.08-.89,1.47,0,1.39a58.56,58.56,0,0,0,7.23-.92,4.62,4.62,0,0,0,3.13-1.78,6,6,0,0,0,.57-3,13.58,13.58,0,0,1,.61-4.83c1-2.56,3.62-3.17,6.11-3.34s5.22,0,7.74-.66a.7.7,0,0,0-.37-1.34Z" transform="translate(50.66 6.4)"/><path class="cls-10" d="M-48.06,10.85A7.12,7.12,0,0,0-43.22,9.1,14.09,14.09,0,0,0-39.7,4.59c.46-.92.76-1.94,1.27-2.83A3.83,3.83,0,0,1-36,0c2.25-.7,4.67-.57,7-.64A19.49,19.49,0,0,1-22,.08c1.9.66,3.29,2.27,5.29,2.61,3.79.64,8,1,11.6-.62C-4.34,1.7-5,.5-5.86.86a13.94,13.94,0,0,1-6.56.9c-1.79-.11-4.15-.08-5.69-1.06A17.19,17.19,0,0,0-20.64-.86a14.49,14.49,0,0,0-3-.91A28.68,28.68,0,0,0-29.88-2c-3.32.1-8-.21-9.83,3.23-.94,1.8-1.52,3.64-2.84,5.23-1.48,1.79-3.12,3-5.51,3a.7.7,0,0,0,0,1.39Z" transform="translate(50.66 6.4)"/><path class="cls-10" d="M-5.29,2A9,9,0,0,1-.84,1.31a34,34,0,0,1,4.16.12,10.17,10.17,0,0,1,4.3,1.48A29.26,29.26,0,0,0,11.14,5a36.32,36.32,0,0,0,8.09,2.45A24.41,24.41,0,0,0,28,7.83c.88-.16.51-1.5-.37-1.35-3.29.58-6.62,0-9.84-.72A24.73,24.73,0,0,1,9.34,2.39,13.57,13.57,0,0,0,2.06-.06C-.49-.18-3.68-.51-6,.77c-.78.43-.08,1.64.7,1.2Z" transform="translate(50.66 6.4)"/><path class="cls-10" d="M27.71,7.88c7.38,0,14.33-2.68,21.45-4.3,7.31-1.66,15.09-1.82,22.56-1.86,7.64,0,15.46.34,22.9,2.18A48.66,48.66,0,0,1,104.94,8a37.12,37.12,0,0,0,9.92,3.71c2.75.5,7.4,1.07,9.4-1.51s-2.92-4.54-4.8-4.6c-.9,0-.9,1.36,0,1.39s4.61,1.1,3.63,2.44-3.45,1.31-4.83,1.27a26.07,26.07,0,0,1-9.74-2.53c-3-1.32-5.79-3-8.85-4.19a50.49,50.49,0,0,0-9.46-2.41A113.14,113.14,0,0,0,69.81.35C63.21.47,56.38.64,49.9,2,42.51,3.55,35.35,6.47,27.71,6.49a.7.7,0,0,0,0,1.39Z" transform="translate(50.66 6.4)"/><path class="cls-10" d="M119.48,7.65a5.05,5.05,0,0,1-4.18-1.47c-1.34-1.71,1.54-3.27,2.91-3.58,2-.43,4,.25,5.88.91s3.45,1.26,5.2,1.86C136.81,8,144.1,11.58,152,12.81a31.2,31.2,0,0,0,13-.6.7.7,0,0,0-.37-1.34c-9.37,2.52-18.46-.55-27.18-3.91-4.2-1.61-8.44-3.09-12.66-4.65C121.39,1,116.73.06,114.16,3.56s2.63,5.62,5.32,5.48c.89,0,.89-1.43,0-1.39Z" transform="translate(50.66 6.4)"/><path class="cls-10" d="M163.35,7.07a22.25,22.25,0,0,1-9.26.59,15.82,15.82,0,0,1-5.84-1.31c-.53-.27-1.19-.68-1.25-1.34a3.21,3.21,0,0,1,1.35-2.28A8.27,8.27,0,0,1,154,1.32c.76.08,2.35.63,2.2,1.63s-1.7,1.39-2.52,1.37a.7.7,0,0,0,0,1.39c2.17,0,5.31-2.14,3.28-4.41-1.82-2-5.16-1.56-7.44-.72-1.91.71-4.51,2.69-3.79,5.05.61,2,3.44,2.66,5.23,3a36,36,0,0,0,6.12.61,19.44,19.44,0,0,0,6.65-.85c.85-.28.49-1.62-.37-1.34Z" transform="translate(50.66 6.4)"/><path class="cls-10" d="M147-3.54c-1.92,1.06-3.5,2.58-5.37,3.71a7.15,7.15,0,0,1-7.21.23C132.18-.7,130.2-2,127.74-2.77a30.78,30.78,0,0,0-8.59-1.15.7.7,0,0,0,0,1.39,29,29,0,0,1,9.32,1.45c2.56.87,4.67,2.72,7.29,3.47,5,1.44,8.06-2.56,12-4.73a.69.69,0,0,0-.7-1.2Z" transform="translate(50.66 6.4)"/><path class="cls-10" d="M160.33,16.86c-5.27-.09-10.41-1.31-15.58-2.24-4.42-.8-9.27-1.67-13.76-1a71.08,71.08,0,0,0-7.12,1.88,38.91,38.91,0,0,1-7.67,1.13,47.67,47.67,0,0,1-14.88-1.73,59.08,59.08,0,0,0-7.56-1.72,60.7,60.7,0,0,0-7-.51,40.19,40.19,0,0,0-6.85.17,30.24,30.24,0,0,0-6.21,1.88c-3.48,1.37-7.17,2.92-11,2.81-1.36,0-2.78-.41-3.41-1.73a5.33,5.33,0,0,1,.51-5.24c1-1.18,8.75-3.2,8.5-.53-.11,1.17-1.61,2.08-2.53,2.55a6,6,0,0,1-1.64.62,2.07,2.07,0,0,1-.61,0c-.08,0,0,.29,0,.07.08-.9-1.31-.89-1.39,0-.23,2.64,4.16.61,5,0a5.31,5.31,0,0,0,2.36-2.72,2.51,2.51,0,0,0-1.27-3c-1.5-.67-3.53-.2-5.08.09S60,8.34,58.82,9.59c-2.11,2.28-1.85,7.25,1.1,8.73,3.11,1.57,7.71.16,10.73-.92,2.49-.9,4.9-2,7.46-2.73a29,29,0,0,1,8.42-.6,54.12,54.12,0,0,1,8.9.78c3,.57,6,1.6,9,2.22a46,46,0,0,0,16.59.44c3.25-.51,6.29-1.75,9.5-2.39s6.52-.19,9.71.19c6.74.81,13.3,2.82,20.12,2.94a.7.7,0,0,0,0-1.39Z" transform="translate(50.66 6.4)"/><path class="cls-10" d="M73.55,10.69c2,.17,6.42-.81,5-3.79-.74-1.48-2.71-2.21-4.2-2.59A25.08,25.08,0,0,0,67.66,4a38.23,38.23,0,0,0-12.83,2.7c-4.45,1.69-8.59,4.17-13.41,4.62a58.71,58.71,0,0,1-7,.12c-2.1,0-4.19,0-6.28-.18-4-.34-8.11-1.1-12.15-.62a9.19,9.19,0,0,0-4,1.2A22,22,0,0,0,9.58,14a33.33,33.33,0,0,1-3.23,2.71c-.86.62-2.1,1.54-3.23,1.43a1.38,1.38,0,0,1-1.19-1c-.15-.63.47-1.18.88-1.58,1-1,2.4-1.85,3.11-3.17,1.59-2.93-2.5-6.14-4.87-7.06C.21,5-.15,6.36.68,6.68a8.61,8.61,0,0,1,3.64,3c1,1.46.33,2.42-.83,3.48C2,14.44-.6,16.2,1.05,18.39c2.89,3.81,8.76-2.81,10.83-4.65s5.42-1.93,8.24-1.8c3.76.17,7.49.86,11.26.87,4.27,0,8.61.37,12.82-.49s8.09-3.24,12.14-4.69A41.77,41.77,0,0,1,70.45,5.35a12.93,12.93,0,0,1,3.92.42c.9.27,2.34.74,2.83,1.64,1,1.81-2.74,2-3.65,1.89s-.89,1.32,0,1.39Z" transform="translate(50.66 6.4)"/><path class="cls-10" d="M47.18-5.91c-5.61,2.76-10.71,7-16.88,8.53S16.86,1.06,11.87-2.57c-.72-.52-1.42.68-.7,1.21C16.29,2.36,23.55,5.36,30,4.11S42-1.81,47.88-4.71c.8-.39.1-1.6-.7-1.2Z" transform="translate(50.66 6.4)"/><path class="cls-10" d="M148.44,15.33c-4.15-.69-8.56-1.56-12.56.18a40.62,40.62,0,0,0-5,2.9,27.55,27.55,0,0,1-6,2.78,37.53,37.53,0,0,1-12.73,1.58c-4.54-.14-9-1.09-13.47-1.63-4.81-.57-9.65-.86-14.49-1a98.72,98.72,0,0,0-14.49.32C65.26,21,60.92,22,56.52,22.67a50.24,50.24,0,0,1-7.35.59,14.9,14.9,0,0,1-5.1-.64c-2.44-.88-3.07-3.13-1.83-5.35a5.74,5.74,0,0,1,4.29-3c1.56-.27,3.84-.42,5.18.6,2.07,1.59-1.05,2.82-2.47,2.79a.7.7,0,0,0,0,1.39c2.62,0,6.45-2.49,3.58-5.07-2.09-1.88-6.53-1.63-8.88-.39-2.92,1.54-5.21,6.11-2.66,8.89s8.13,2.32,11.57,2C58,24.06,63,22.85,68.07,22.1a95.55,95.55,0,0,1,16.83-.53A143.48,143.48,0,0,1,102.1,23a66.82,66.82,0,0,0,14.46,1.11,32.26,32.26,0,0,0,15-4.49c2.21-1.35,4.39-3,7-3.51,3.15-.63,6.44,0,9.55.57.87.15,1.25-1.19.37-1.34Z" transform="translate(50.66 6.4)"/><path class="cls-10" d="M71.44,1.65c3.17-.62,6.13.36,9,1.66,2.62,1.18,5.26,2.22,7.93,3.29,5.63,2.28,11,5.06,17.19,5.61.89.08.88-1.31,0-1.39-6.44-.58-12.09-3.76-18-6-2.78-1.07-5.44-2.35-8.19-3.46a14.37,14.37,0,0,0-8.28-1c-.88.17-.51,1.52.37,1.34Z" transform="translate(50.66 6.4)"/></g></g><path class="cls-12" d="M62.55,27.44a3,3,0,1,1-3-3A3,3,0,0,1,62.55,27.44Z" transform="translate(50.66 6.4)"/><path class="cls-12" d="M62.55,55a3,3,0,1,1-3-3A3,3,0,0,1,62.55,55Z" transform="translate(50.66 6.4)"/></g></g></g></svg>