<svg xmlns="http://www.w3.org/2000/svg" xmlns:xlink="http://www.w3.org/1999/xlink" viewBox="0 0 65.63 43.71"><defs><style>.cls-1{fill:#3f3d39;}.cls-2{fill:#1e1d1a;}.cls-3{fill:#60605f;}.cls-4{fill:#777776;}.cls-5{fill:url(#linear-gradient);}.cls-6{fill:url(#linear-gradient-2);}.cls-7{fill:url(#linear-gradient-3);}.cls-8{fill:url(#linear-gradient-4);}.cls-9{fill:url(#linear-gradient-5);}.cls-10{fill:url(#linear-gradient-6);}.cls-11{fill:url(#linear-gradient-7);}.cls-12{fill:url(#linear-gradient-8);}.cls-13{fill:url(#linear-gradient-9);}.cls-14{fill:url(#linear-gradient-10);}.cls-15{fill:#593607;opacity:0.66;}.cls-16{fill:url(#linear-gradient-11);}.cls-17{fill:url(#linear-gradient-12);}</style><linearGradient id="linear-gradient" x1="32.7" y1="5.87" x2="32.7" y2="3.17" gradientUnits="userSpaceOnUse"><stop offset="0" stop-color="#ddbb8a"/><stop offset="0.99" stop-color="#a37633"/></linearGradient><linearGradient id="linear-gradient-2" x1="32.67" y1="8.99" x2="32.67" y2="6.28" xlink:href="#linear-gradient"/><linearGradient id="linear-gradient-3" x1="32.7" y1="12.09" x2="32.7" y2="9.38" xlink:href="#linear-gradient"/><linearGradient id="linear-gradient-4" x1="32.7" y1="15.19" x2="32.7" y2="12.49" xlink:href="#linear-gradient"/><linearGradient id="linear-gradient-5" x1="32.73" y1="18.29" x2="32.73" y2="15.58" xlink:href="#linear-gradient"/><linearGradient id="linear-gradient-6" x1="32.72" y1="21.75" x2="32.72" y2="20.82" gradientUnits="userSpaceOnUse"><stop offset="0" stop-color="#a7752b"/><stop offset="0.99" stop-color="#875812"/></linearGradient><linearGradient id="linear-gradient-7" x1="32.64" y1="23.08" x2="32.64" y2="21.73" xlink:href="#linear-gradient-6"/><linearGradient id="linear-gradient-8" x1="32.71" y1="24.74" x2="32.71" y2="23.06" gradientUnits="userSpaceOnUse"><stop offset="0" stop-color="#c79954"/><stop offset="0.99" stop-color="#93651f"/></linearGradient><linearGradient id="linear-gradient-9" x1="32.69" y1="27.11" x2="32.69" y2="24.74" xlink:href="#linear-gradient"/><linearGradient id="linear-gradient-10" x1="32.69" y1="29.82" x2="32.69" y2="27.11" xlink:href="#linear-gradient"/><linearGradient id="linear-gradient-11" x1="0" y1="19.29" x2="7.25" y2="19.29" xlink:href="#linear-gradient"/><linearGradient id="linear-gradient-12" x1="-354.5" y1="19.29" x2="-347.26" y2="19.29" gradientTransform="matrix(-1, 0, 0, 1, -288.87, 0)" xlink:href="#linear-gradient"/></defs><g id="レイヤー_2" data-name="レイヤー 2"><g id="Layer_1" data-name="Layer 1"><path class="cls-1" d="M63.12,28.74l-.06,0,0,.07S63.13,28.71,63.12,28.74Z"/><path class="cls-1" d="M63.06,28.71l0-.09s0,.06,0,.08Z"/><path class="cls-1" d="M61.83,38.69c.1-1.23.34-2.46.46-3.7s.29-2.23.41-3.34c.06-.61.18-1.25.26-1.87,0-.1,0-.19,0-.28a5.36,5.36,0,0,0,0-.8c-.78-.36-3.27-.57-3.55.3a7.71,7.71,0,0,0-.07,2c0,1-.08,2-.11,3-.07,1.79-.07,3.6-.16,5.4A15,15,0,0,0,59.08,41a2.44,2.44,0,0,0,0,.27.19.19,0,0,0,0,.08,2.74,2.74,0,0,0,.08.64c.27,1.56,1.24,1.74,2.35,1.74.86,0,1.59-.08,2-1h0l0-.07h0a2.91,2.91,0,0,0,.33-1.33A2.6,2.6,0,0,0,61.83,38.69Z"/><path class="cls-2" d="M63.12,28.74l-.06,0,0,.07S63.13,28.71,63.12,28.74Z"/><path class="cls-2" d="M63.06,28.71l0-.09s0,.06,0,.08Z"/><path class="cls-2" d="M62.7,31.65c.06-.61.18-1.25.26-1.87,0-.1,0-.19,0-.28a5.36,5.36,0,0,0,0-.8c-.78-.36-3.27-.57-3.55.3a3.33,3.33,0,0,0-.1,1.07,3,3,0,0,1,.87.42c1.85,1.27,1.88,3.2,1.5,5.21-.12.65-.68,2.37-.84,3,0,0,0,0,0,.05a3.56,3.56,0,0,1,.47-.05,3.93,3.93,0,0,1,.49,0h-.06c.1-1.23.34-2.46.46-3.7S62.58,32.76,62.7,31.65Z"/><path class="cls-1" d="M2.34,28.78l0-.07-.06,0S2.32,28.75,2.34,28.78Z"/><path class="cls-1" d="M2.38,28.7v-.08l0,.09Z"/><path class="cls-1" d="M1.57,41.33a2.87,2.87,0,0,0,.62,1.79,2.5,2.5,0,0,1,.77.26,2.7,2.7,0,0,1,.94,0,4.6,4.6,0,0,1,1.76-.21,2.86,2.86,0,0,0,.68-1.87c0-.1,0-.2,0-.3a9,9,0,0,0,0-1.63c-.08-1.8-.08-3.61-.15-5.4,0-1-.11-2-.11-3a7.71,7.71,0,0,0-.07-2c-.28-.87-2.77-.66-3.56-.3a26.64,26.64,0,0,0,.34,2.95c.12,1.11.3,2.22.41,3.34s.36,2.47.46,3.7A2.6,2.6,0,0,0,1.57,41.33Z"/><path class="cls-3" d="M5.61,39.4A2.23,2.23,0,0,0,4,38.65a2.55,2.55,0,0,0-2.38,2.68,3.12,3.12,0,0,0,.12.82c0-.14-.1-.9.13-.94s0,.63.34.62-.11-1.16.31-1.15.23,1,.51,1.12.08-1.09.46-1,.3.93.58,1,0-.4.32-.37.38,1.29.73,1.23S4.4,39.36,5.61,39.4Z"/><path class="cls-4" d="M2.27,39.94c.16.13.29-.1.42-.17a.64.64,0,0,1,.43-.09c.31,0,.52.34.84.16.14-.08.23-.24.4-.2s.19.2.28.2.3-.48.36-.6l0,0C4.66,38.77,2.53,38.61,2.27,39.94Z"/><path class="cls-2" d="M2.34,28.78l0-.07-.06,0S2.32,28.75,2.34,28.78Z"/><path class="cls-2" d="M2.38,28.7v-.08l0,.09Z"/><path class="cls-2" d="M5,43c-.14,0-.28-.19-.41-.16s-.16.27-.32.28-.16-.29-.27-.38-.2,0-.27.06-.07.15-.14.24-.31,0-.41-.13-.26-.21-.44-.06-.13.15-.2.17a.25.25,0,0,1-.25-.09h0c-.2-.14-.33-.27-.39-.27.38,1,1.13,1.05,2,1.05,1.32,0,2.45-.24,2.44-2.73a14.8,14.8,0,0,0-.07-1.58c-.08-1.8-.08-3.61-.15-5.4,0-1.48-.11-2-.11-3a7.71,7.71,0,0,0-.07-2c-.28-.87-2.77-.66-3.56-.3a9.53,9.53,0,0,0,.16,1.67c3.07-.26,3.07,3.32,3.24,6C5.93,38.55,6.5,41.84,5,43Z"/><path class="cls-3" d="M63.72,42.15a2.76,2.76,0,0,0,.13-.82,2.55,2.55,0,0,0-2.38-2.68,2.23,2.23,0,0,0-1.66.75c1.21,0,.2,3.15.54,3.22s.42-1.21.73-1.23,0,.41.31.37.26-.91.59-1,.18,1.14.46,1,.1-1.11.51-1.12,0,1.14.31,1.15.11-.65.34-.62S63.68,42,63.72,42.15Z"/><path class="cls-4" d="M60.4,39.22l0,0c.06.12.15.58.36.6s.18-.18.28-.2.25.12.4.2c.32.18.52-.12.83-.16a.68.68,0,0,1,.44.09c.13.07.25.3.42.17C62.88,38.61,60.76,38.77,60.4,39.22Z"/><path class="cls-1" d="M61.31,21.84s.31-16.15,0-19c-.25-2-1.4-3-2.85-2.62-1.64.38-.45,3.21-.34,3.68.82,3.15.66,15.24.43,17.93A27.74,27.74,0,0,0,61.31,21.84Z"/><path class="cls-2" d="M58.68,17c0,.55,0,1.09,0,1.58A3,3,0,0,1,61.1,20a3.12,3.12,0,0,1,.23.49c0-.77,0-1.8.05-3A12.8,12.8,0,0,1,58.68,17Z"/><path class="cls-2" d="M60.93,7.19c-.07,2.92.06,5.88-.08,8.79a3.08,3.08,0,0,1,.54.16c.06-5,.1-11.59-.12-13.34S60.15.1,59,.11C61,1.67,61,4.8,60.93,7.19Z"/><path class="cls-1" d="M7.17.07C5.72-.27,4.57.69,4.32,2.69c-.35,2.88,0,19,0,19a27.7,27.7,0,0,0,2.8-.05C6.85,19,6.69,6.9,7.51,3.75,7.63,3.28,8.81.45,7.17.07Z"/><path class="cls-2" d="M4.22,17.82c0,.94,0,1.76,0,2.4a4.3,4.3,0,0,1,.42-.59,3.34,3.34,0,0,1,2.26-1.11c0-.28,0-.58,0-.88C6,17.76,5.13,17.78,4.22,17.82Z"/><path class="cls-2" d="M6.24,16.71a3,3,0,0,1,.52.23l.15.11c-.07-4.67,0-11.12.6-13.3.12-.47,1.3-3.3-.34-3.68A2.39,2.39,0,0,0,6.53,0c.79,1.42.47,3.32.2,5C6.1,8.87,5.26,12.8,6.24,16.71Z"/><path class="cls-5" d="M3.05,3.17a1.08,1.08,0,0,0-1.18,1V4.9a1.08,1.08,0,0,0,1.18,1h59.3a1.09,1.09,0,0,0,1.18-1V4.13a1.09,1.09,0,0,0-1.18-1Z"/><path class="cls-6" d="M3,6.28a1.1,1.1,0,0,0-1.18,1V8A1.09,1.09,0,0,0,3,9H62.33A1.09,1.09,0,0,0,63.5,8V7.25a1.09,1.09,0,0,0-1.17-1Z"/><path class="cls-7" d="M3.05,9.38a1.08,1.08,0,0,0-1.18,1v.77a1.09,1.09,0,0,0,1.18,1h59.3a1.1,1.1,0,0,0,1.18-1v-.77a1.09,1.09,0,0,0-1.18-1Z"/><path class="cls-8" d="M3.05,12.49a1.08,1.08,0,0,0-1.18,1v.78a1.08,1.08,0,0,0,1.18,1h59.3a1.09,1.09,0,0,0,1.18-1v-.78a1.09,1.09,0,0,0-1.18-1Z"/><path class="cls-9" d="M3.07,15.58a1.08,1.08,0,0,0-1.17,1v.77a1.09,1.09,0,0,0,1.17,1H62.38a1.09,1.09,0,0,0,1.17-1v-.77a1.08,1.08,0,0,0-1.17-1Z"/><path class="cls-10" d="M3.06,20.82c-.65,0-1.17.15-1.17.33v.27c0,.18.52.33,1.17.33H62.37c.65,0,1.17-.15,1.17-.33v-.27c0-.18-.52-.33-1.17-.33Z"/><path class="cls-11" d="M2.48,21.73c-.66,0-1.2.21-1.2.48v.39c0,.26.54.48,1.2.48H62.8c.66,0,1.19-.22,1.19-.48v-.39c0-.27-.53-.48-1.19-.48Z"/><path class="cls-12" d="M2.14,23.06c-.67,0-1.21.27-1.21.6v.48c0,.33.54.6,1.21.6H63.28c.67,0,1.21-.27,1.21-.6v-.48c0-.33-.54-.6-1.21-.6Z"/><path class="cls-13" d="M2,24.74c-.68,0-1.22.38-1.22.85v.68c0,.46.54.84,1.22.84H63.44c.67,0,1.21-.38,1.21-.84v-.68c0-.47-.54-.85-1.21-.85Z"/><path class="cls-14" d="M2,27.11a1.12,1.12,0,0,0-1.22,1v.77a1.11,1.11,0,0,0,1.22,1H63.44a1.11,1.11,0,0,0,1.21-1v-.77a1.11,1.11,0,0,0-1.21-1Z"/><path class="cls-4" d="M4.85,2.24c.22.56.77-.05.87-.3.19-.43.17-.7.72-.77S6.89.4,6.3.36,4.65,1.7,4.85,2.24Z"/><path class="cls-2" d="M5.18,4.54a.43.43,0,1,0,.43-.43A.42.42,0,0,0,5.18,4.54Z"/><path class="cls-1" d="M5.24,4.48a.31.31,0,1,0,.31-.31A.31.31,0,0,0,5.24,4.48Z"/><polygon class="cls-2" points="5.54 4.86 5.53 4.85 5.53 4.86 5.54 4.86"/><path class="cls-2" d="M5.6,4.14c-.27,0-.17.56-.07.71,0-.13,0-.25,0-.38A.74.74,0,0,1,5.6,4.14Z"/><path class="cls-2" d="M5.53,4.87h0S5.52,4.87,5.53,4.87Z"/><path class="cls-4" d="M5.34,4.62a1,1,0,0,1,0-.25s.07-.11.06-.14S5.19,4.54,5.34,4.62Z"/><path class="cls-4" d="M5.37,4.21l0,0h0Z"/><path class="cls-4" d="M5.79,4.36c0-.09-.1-.16-.18-.16a.51.51,0,0,0,0,.59s0-.2,0-.27S5.69,4.37,5.79,4.36Z"/><path class="cls-2" d="M5,7.64a.43.43,0,0,0,.85,0,.43.43,0,1,0-.85,0Z"/><path class="cls-1" d="M5.05,7.58a.31.31,0,1,0,.31-.31A.31.31,0,0,0,5.05,7.58Z"/><polygon class="cls-2" points="5.34 7.96 5.34 7.95 5.34 7.96 5.34 7.96"/><path class="cls-2" d="M5.41,7.24c-.28,0-.17.56-.07.71a2.47,2.47,0,0,1,0-.39A.92.92,0,0,1,5.41,7.24Z"/><path class="cls-2" d="M5.34,8h0S5.32,8,5.34,8Z"/><path class="cls-4" d="M5.15,7.72a1,1,0,0,1,0-.25s.07-.11.05-.14S5,7.64,5.15,7.72Z"/><path class="cls-4" d="M5.18,7.31v0h0Z"/><path class="cls-4" d="M5.59,7.46c0-.09-.1-.16-.18-.16a.53.53,0,0,0,0,.59s0-.2,0-.27S5.5,7.47,5.59,7.46Z"/><path class="cls-2" d="M4.86,10.73a.43.43,0,1,0,.42-.42A.42.42,0,0,0,4.86,10.73Z"/><path class="cls-1" d="M4.92,10.68a.31.31,0,1,0,.31-.31A.31.31,0,0,0,4.92,10.68Z"/><polygon class="cls-2" points="5.21 11.05 5.21 11.05 5.21 11.05 5.21 11.05"/><path class="cls-2" d="M5.28,10.34c-.28,0-.17.56-.07.71a2.66,2.66,0,0,1,0-.39A.92.92,0,0,1,5.28,10.34Z"/><path class="cls-2" d="M5.21,11.06h0S5.19,11.06,5.21,11.06Z"/><path class="cls-4" d="M5,10.82a.7.7,0,0,1,0-.25s.07-.11.06-.14S4.87,10.74,5,10.82Z"/><path class="cls-4" d="M5.05,10.41l0,0h0Z"/><path class="cls-4" d="M5.46,10.56c0-.09-.1-.17-.18-.16a.51.51,0,0,0,0,.58s0-.2,0-.27A.17.17,0,0,1,5.46,10.56Z"/><path class="cls-2" d="M4.89,13.84a.43.43,0,0,0,.43.42.43.43,0,1,0,0-.85A.43.43,0,0,0,4.89,13.84Z"/><path class="cls-1" d="M5,13.78a.31.31,0,1,0,.3-.31A.31.31,0,0,0,5,13.78Z"/><polygon class="cls-2" points="5.25 14.16 5.24 14.15 5.24 14.16 5.25 14.16"/><path class="cls-2" d="M5.32,13.44c-.28,0-.17.56-.08.71,0-.13,0-.25,0-.38A.75.75,0,0,1,5.32,13.44Z"/><path class="cls-2" d="M5.25,14.17h0S5.23,14.17,5.25,14.17Z"/><path class="cls-4" d="M5.06,13.92a.49.49,0,0,1,0-.24s.06-.11,0-.15S4.91,13.85,5.06,13.92Z"/><path class="cls-4" d="M5.09,13.51v0h0Z"/><path class="cls-4" d="M5.5,13.66c0-.09-.1-.16-.18-.16a.53.53,0,0,0,0,.59s0-.2,0-.27S5.4,13.67,5.5,13.66Z"/><path class="cls-2" d="M4.93,16.93a.43.43,0,1,0,.85,0,.43.43,0,0,0-.85,0Z"/><path class="cls-1" d="M5,16.88a.31.31,0,0,0,.31.31.31.31,0,0,0,0-.62A.31.31,0,0,0,5,16.88Z"/><polygon class="cls-2" points="5.28 17.25 5.28 17.25 5.28 17.25 5.28 17.25"/><path class="cls-2" d="M5.36,16.54c-.28,0-.18.56-.08.71,0-.14,0-.26,0-.39A.63.63,0,0,1,5.36,16.54Z"/><path class="cls-2" d="M5.28,17.27v0h0S5.27,17.26,5.28,17.27Z"/><path class="cls-4" d="M5.09,17a1,1,0,0,1,0-.25s.07-.11.06-.14S5,16.94,5.09,17Z"/><path class="cls-4" d="M5.13,16.61v0h0Z"/><path class="cls-4" d="M5.54,16.76c0-.09-.1-.17-.18-.16a.5.5,0,0,0,0,.59c0-.05,0-.21,0-.28A.17.17,0,0,1,5.54,16.76Z"/><path class="cls-2" d="M59.26,4.58a.43.43,0,1,0,.85,0,.43.43,0,1,0-.85,0Z"/><path class="cls-1" d="M59.32,4.53a.31.31,0,1,0,.62,0,.31.31,0,1,0-.62,0Z"/><path class="cls-2" d="M59.61,4.91h0S59.59,4.91,59.61,4.91Z"/><polygon class="cls-2" points="59.61 4.9 59.61 4.89 59.61 4.9 59.61 4.9"/><path class="cls-2" d="M59.68,4.19c-.28,0-.17.56-.07.7a2.43,2.43,0,0,1,0-.38A.86.86,0,0,1,59.68,4.19Z"/><path class="cls-4" d="M59.42,4.67a1.07,1.07,0,0,1,0-.25s.07-.11.05-.15S59.27,4.59,59.42,4.67Z"/><path class="cls-4" d="M59.45,4.25v0h0Z"/><path class="cls-4" d="M59.86,4.41c0-.1-.1-.17-.18-.17a.53.53,0,0,0,0,.59s0-.2,0-.27A.17.17,0,0,1,59.86,4.41Z"/><path class="cls-2" d="M59.57,7.75A.43.43,0,1,0,60,7.32.43.43,0,0,0,59.57,7.75Z"/><path class="cls-1" d="M59.63,7.69a.31.31,0,1,0,.31-.31A.31.31,0,0,0,59.63,7.69Z"/><polygon class="cls-2" points="59.92 8.07 59.92 8.06 59.92 8.07 59.92 8.07"/><path class="cls-2" d="M59.92,8.08h0S59.91,8.08,59.92,8.08Z"/><path class="cls-2" d="M60,7.36c-.27,0-.17.55-.07.7,0-.13-.05-.25,0-.38A.86.86,0,0,1,60,7.36Z"/><path class="cls-4" d="M59.73,7.83a1,1,0,0,1,0-.24s.07-.11.06-.15S59.58,7.76,59.73,7.83Z"/><path class="cls-4" d="M59.76,7.42l0,0h0Z"/><path class="cls-4" d="M60.18,7.57A.18.18,0,0,0,60,7.41c-.12.12-.14.49,0,.59s0-.2,0-.27A.18.18,0,0,1,60.18,7.57Z"/><path class="cls-2" d="M59.44,10.84a.43.43,0,1,0,.85,0,.43.43,0,0,0-.85,0Z"/><path class="cls-1" d="M59.5,10.79a.31.31,0,1,0,.31-.31A.31.31,0,0,0,59.5,10.79Z"/><polygon class="cls-2" points="59.8 11.16 59.79 11.16 59.79 11.16 59.8 11.16"/><path class="cls-2" d="M59.87,10.45c-.28,0-.17.56-.08.71,0-.14,0-.26,0-.39A.76.76,0,0,1,59.87,10.45Z"/><path class="cls-2" d="M59.79,11.17h0S59.78,11.17,59.79,11.17Z"/><path class="cls-4" d="M59.61,10.93a.69.69,0,0,1,0-.25s.07-.11.06-.14S59.45,10.85,59.61,10.93Z"/><path class="cls-4" d="M59.63,10.52l0,0h0Z"/><path class="cls-4" d="M60.05,10.67c0-.09-.1-.17-.18-.16a.48.48,0,0,0,0,.58s0-.2,0-.27A.17.17,0,0,1,60.05,10.67Z"/><path class="cls-2" d="M59.48,14a.43.43,0,1,0,.42-.42A.42.42,0,0,0,59.48,14Z"/><path class="cls-1" d="M59.54,13.9a.31.31,0,1,0,.31-.31A.31.31,0,0,0,59.54,13.9Z"/><path class="cls-2" d="M59.83,14.28h0S59.82,14.28,59.83,14.28Z"/><polygon class="cls-2" points="59.83 14.27 59.83 14.26 59.83 14.27 59.83 14.27"/><path class="cls-2" d="M59.9,13.56c-.28,0-.17.56-.07.7a2.43,2.43,0,0,1,0-.38A.86.86,0,0,1,59.9,13.56Z"/><path class="cls-4" d="M59.64,14a.71.71,0,0,1,0-.25s.07-.11,0-.15S59.49,14,59.64,14Z"/><path class="cls-4" d="M59.67,13.63h0Z"/><path class="cls-4" d="M60.08,13.78c0-.09-.1-.17-.18-.16a.51.51,0,0,0,0,.58c.05,0,0-.2,0-.27A.17.17,0,0,1,60.08,13.78Z"/><path class="cls-2" d="M59.51,17.05a.43.43,0,0,0,.43.42.43.43,0,1,0,0-.85A.43.43,0,0,0,59.51,17.05Z"/><path class="cls-1" d="M59.58,17a.31.31,0,1,0,.31-.31A.31.31,0,0,0,59.58,17Z"/><polygon class="cls-2" points="59.87 17.37 59.87 17.36 59.87 17.36 59.87 17.37"/><path class="cls-2" d="M59.87,17.38v0h0S59.85,17.37,59.87,17.38Z"/><path class="cls-2" d="M59.94,16.65c-.28,0-.17.56-.07.71a2.56,2.56,0,0,1,0-.39A.75.75,0,0,1,59.94,16.65Z"/><path class="cls-4" d="M59.68,17.13a.69.69,0,0,1,0-.25s.06-.11,0-.14S59.53,17.05,59.68,17.13Z"/><path class="cls-4" d="M59.71,16.72s0,0,0,0h0Z"/><path class="cls-4" d="M60.12,16.87c0-.09-.1-.16-.18-.16a.53.53,0,0,0,0,.59s0-.21,0-.27S60,16.88,60.12,16.87Z"/><path class="cls-4" d="M58.19,1.55c.24.17.41-.13.72-.07s.43.6.89.57c.21-.21-.6-1.38-1-1.37C58.16.6,57.65,1.2,58.19,1.55Z"/><path class="cls-2" d="M63.12,28.74l-.06,0,0,.07S63.13,28.71,63.12,28.74Z"/><path class="cls-2" d="M63.06,28.71l0-.09s0,.06,0,.08Z"/><path class="cls-2" d="M63.52,42.5a.08.08,0,0,0,0-.07.2.2,0,0,0-.29-.1c-.1.05-.11.21-.22.25s-.19-.1-.27-.18c-.1.1-.16.31-.32.31s-.16-.31-.33-.36-.24.25-.31.35-.23.12-.42,0c-.1.09-.2.24-.33.12s-.07-.33-.29-.19-.17.18-.32.22h-.1a3,3,0,0,1-1.06-.5c.36,1.18,1.25,1.34,2.25,1.34s1.59-.08,2-1h0l0-.07h0a1.89,1.89,0,0,0,.09-.21Z"/><path class="cls-15" d="M3.68,29.85c.17,0,1.16,0,1.16,0a6,6,0,0,1-.32-5.2A25.92,25.92,0,0,1,7,20.82H4.45a13.55,13.55,0,0,0-1.37,2c-.92,1.32-.85,2.82-.7,4.4A4.07,4.07,0,0,0,3.68,29.85Z"/><path class="cls-1" d="M2.41,22.43a4.64,4.64,0,0,1-1.2.24,2.67,2.67,0,0,1-.4,0,9,9,0,0,0,2,7.2,19.82,19.82,0,0,0,2.18,0C2.91,28.55,2.19,24.89,2.41,22.43Z"/><path class="cls-2" d="M2.82,27.23a7.18,7.18,0,0,0,1.8,2.66H5c-2-1.33-2.76-5-2.54-7.45a4.64,4.64,0,0,1-1.2.24,2.67,2.67,0,0,1-.4,0c0,.36-.06.73-.07,1.12A5.33,5.33,0,0,1,2.82,27.23Z"/><path class="cls-16" d="M3.92,15.28c-1.44.44-3,3.48-3.65,5.48-.25.78-.44,2.47,0,2.51a7,7,0,0,0,2.82-.08c.55-.34.54-2.08,1.41-3.91,1-2.17,2.79-3.31,2.79-3.89A11.52,11.52,0,0,0,3.92,15.28Z"/><path class="cls-15" d="M7,15.31a20.83,20.83,0,0,0-2,2.24,14.53,14.53,0,0,0-1.64,4C2.63,23.42,1.5,23,0,22.93c0,.2.1.33.21.34a7,7,0,0,0,2.82-.08c.55-.34.54-2.08,1.41-3.91,1-2.17,2.79-3.31,2.79-3.89C7.25,15.36,7.16,15.33,7,15.31Z"/><path class="cls-15" d="M62,29.85c-.17,0-1.16,0-1.16,0a6.27,6.27,0,0,0,.72-2.23,6.11,6.11,0,0,0-.4-3,25.92,25.92,0,0,0-2.5-3.83h2.58a12.27,12.27,0,0,1,1.36,2c.93,1.32.86,2.81.7,4.4A4,4,0,0,1,62,29.85Z"/><path class="cls-1" d="M63.23,22.43a4.64,4.64,0,0,0,1.2.24,1.7,1.7,0,0,0,.39,0,9,9,0,0,1-2,7.21c-.55.05-1.62,0-2.18,0C62.72,28.55,63.44,24.89,63.23,22.43Z"/><path class="cls-2" d="M62.82,27.23A7.43,7.43,0,0,1,61,29.89h-.34c2-1.33,2.76-5,2.55-7.45a4.64,4.64,0,0,0,1.2.24,1.7,1.7,0,0,0,.39,0c0,.36.07.74.08,1.12A5.3,5.3,0,0,0,62.82,27.23Z"/><path class="cls-17" d="M61.72,15.27c1.43.45,3,3.49,3.64,5.49.25.78.44,2.47,0,2.51a7,7,0,0,1-2.82-.08c-.55-.34-.55-2.08-1.42-3.91-1-2.17-2.78-3.31-2.78-3.89A11.84,11.84,0,0,1,61.72,15.27Z"/><path class="cls-15" d="M58.63,15.3a20.76,20.76,0,0,1,2,2.24,14.46,14.46,0,0,1,1.65,4.05c.68,1.83,1.81,1.44,3.28,1.33,0,.2-.1.34-.2.35a7,7,0,0,1-2.82-.08c-.55-.34-.55-2.08-1.42-3.91-1-2.17-2.78-3.31-2.78-3.89C58.39,15.36,58.48,15.33,58.63,15.3Z"/></g></g></svg>