<svg xmlns="http://www.w3.org/2000/svg" viewBox="0 0 1920 1080"><defs><style>.cls-1{fill:#e6f0d8;}.cls-2{fill:#e09927;}.cls-3{fill:#89aeb2;}.cls-4{fill:#b0cdd3;}.cls-5{fill:#df7d22;}.cls-6{fill:#ecb42a;}.cls-7{fill:#c5dfe0;}.cls-8{fill:#d7eaec;}.cls-9{fill:#b2452e;}.cls-10{fill:#d15736;}.cls-11{fill:#ba995f;opacity:0.3;}.cls-12{fill:#e79c92;}.cls-13{fill:#fff;stroke:#aeaeaf;stroke-miterlimit:10;stroke-width:0.25px;}.cls-14{fill:#aeaeaf;}.cls-15{fill:#534741;}.cls-16{fill:#b70825;}.cls-17{fill:#ebefeb;}.cls-18{fill:#bcbcbc;}.cls-19{fill:#384465;}.cls-20{fill:#3f496e;}.cls-21{fill:#444f75;}.cls-22{fill:#ebdfd2;}.cls-23{fill:#686886;}.cls-24{fill:#393762;}.cls-25{fill:#efd88e;}</style></defs><g id="レイヤー_2" data-name="レイヤー 2"><g id="object"><rect class="cls-1" width="1920" height="1080"/><polygon class="cls-2" points="602.5 91.75 608.97 91.75 629.4 266.67 622.94 266.67 602.5 91.75"/><rect class="cls-3" x="619.09" y="266.67" width="14.16" height="5.47"/><rect class="cls-3" x="578.65" y="266.67" width="14.16" height="5.47"/><rect class="cls-4" x="623.06" y="266.67" width="14.16" height="5.47"/><rect class="cls-4" x="582.63" y="266.67" width="14.16" height="5.47"/><polygon class="cls-5" points="582.5 266.67 588.96 266.67 609.39 91.75 602.93 91.75 582.5 266.67"/><polygon class="cls-6" points="584.49 266.67 590.95 266.67 611.38 91.75 604.92 91.75 584.49 266.67"/><rect class="cls-6" x="593.49" y="200.53" width="26.84" height="6.46"/><path class="cls-2" d="M622.94,266.67,602.51,91.75Z"/><polygon class="cls-6" points="631.38 266.67 624.92 266.67 604.49 91.75 610.95 91.75 631.38 266.67"/><polygon class="cls-2" points="381.08 91.75 387.54 91.75 407.97 266.67 401.51 266.67 381.08 91.75"/><rect class="cls-3" x="397.66" y="266.67" width="14.16" height="5.47"/><rect class="cls-3" x="357.22" y="266.67" width="14.16" height="5.47"/><rect class="cls-4" x="401.63" y="266.67" width="14.16" height="5.47"/><rect class="cls-4" x="361.2" y="266.67" width="14.16" height="5.47"/><polygon class="cls-5" points="361.08 266.67 367.54 266.67 387.97 91.75 381.51 91.75 361.08 266.67"/><polygon class="cls-6" points="363.06 266.67 369.52 266.67 389.96 91.75 383.5 91.75 363.06 266.67"/><rect class="cls-6" x="372.06" y="200.53" width="26.84" height="6.46"/><path class="cls-2" d="M401.51,266.67,381.08,91.75Z"/><polygon class="cls-6" points="409.96 266.67 403.5 266.67 383.07 91.75 389.53 91.75 409.96 266.67"/><rect class="cls-6" x="384.83" y="91.34" width="221.26" height="4.8"/><path class="cls-7" d="M567.32,98.7V100a1.35,1.35,0,0,1-.68,1.16v1.48a2.73,2.73,0,0,0,2-2.64V98.55a2.68,2.68,0,0,0-.12-.64A3.51,3.51,0,0,1,567.32,98.7Z"/><path class="cls-7" d="M564.59,100V98.7a3.47,3.47,0,0,1-1.23-.79,2.69,2.69,0,0,0-.13.64V100a2.72,2.72,0,0,0,2,2.63v-1.46A1.37,1.37,0,0,1,564.59,100Z"/><path class="cls-7" d="M564.59,108.38v-1.44a1.34,1.34,0,0,1,.69-1.16V104.3a2.73,2.73,0,0,0-2,2.64v1.44a2.73,2.73,0,0,0,2,2.64v-1.46A1.38,1.38,0,0,1,564.59,108.38Z"/><path class="cls-7" d="M567.32,106.94v1.44a1.36,1.36,0,0,1-.68,1.17V111a2.73,2.73,0,0,0,2-2.64v-1.44a2.72,2.72,0,0,0-2-2.63v1.46A1.36,1.36,0,0,1,567.32,106.94Z"/><path class="cls-8" d="M565.28,106.26a.68.68,0,1,0,1.36,0v-5.59a.68.68,0,1,0-1.36,0v5.59Z"/><path class="cls-7" d="M567.32,115.34v1.44a1.35,1.35,0,0,1-.68,1.16v1.48a2.73,2.73,0,0,0,2-2.64v-1.44a2.74,2.74,0,0,0-2-2.64v1.46A1.37,1.37,0,0,1,567.32,115.34Z"/><path class="cls-7" d="M564.59,116.78v-1.44a1.35,1.35,0,0,1,.69-1.17V112.7a2.73,2.73,0,0,0-2,2.64v1.44a2.72,2.72,0,0,0,2,2.63V118A1.37,1.37,0,0,1,564.59,116.78Z"/><path class="cls-8" d="M565.28,114.66a.68.68,0,1,0,1.36,0v-5.6a.68.68,0,1,0-1.36,0v5.6Z"/><path class="cls-7" d="M564.59,125.17v-1.44a1.34,1.34,0,0,1,.69-1.16v-1.48a2.73,2.73,0,0,0-2,2.64v1.44a2.73,2.73,0,0,0,2,2.64v-1.46A1.38,1.38,0,0,1,564.59,125.17Z"/><path class="cls-7" d="M567.32,123.73v1.44a1.36,1.36,0,0,1-.68,1.17v1.47a2.73,2.73,0,0,0,2-2.64v-1.44a2.72,2.72,0,0,0-2-2.63v1.46A1.36,1.36,0,0,1,567.32,123.73Z"/><path class="cls-8" d="M565.28,123.05a.68.68,0,1,0,1.36,0v-5.59a.68.68,0,1,0-1.36,0v5.59Z"/><path class="cls-7" d="M567.32,132.13v1.44a1.35,1.35,0,0,1-.68,1.16v1.48a2.73,2.73,0,0,0,2-2.64v-1.44a2.74,2.74,0,0,0-2-2.64V131A1.37,1.37,0,0,1,567.32,132.13Z"/><path class="cls-7" d="M564.59,133.57v-1.44a1.35,1.35,0,0,1,.69-1.17v-1.47a2.73,2.73,0,0,0-2,2.64v1.44a2.72,2.72,0,0,0,2,2.63v-1.46A1.37,1.37,0,0,1,564.59,133.57Z"/><path class="cls-8" d="M565.28,131.45a.68.68,0,1,0,1.36,0v-5.6a.68.68,0,1,0-1.36,0v5.6Z"/><path class="cls-7" d="M564.59,142v-1.44a1.34,1.34,0,0,1,.69-1.16v-1.48a2.73,2.73,0,0,0-2,2.64V142a2.73,2.73,0,0,0,2,2.64v-1.46A1.38,1.38,0,0,1,564.59,142Z"/><path class="cls-7" d="M567.32,140.52V142a1.37,1.37,0,0,1-.68,1.17v1.47a2.73,2.73,0,0,0,2-2.64v-1.44a2.72,2.72,0,0,0-2-2.63v1.46A1.36,1.36,0,0,1,567.32,140.52Z"/><path class="cls-8" d="M565.28,139.84a.68.68,0,1,0,1.36,0v-5.59a.68.68,0,1,0-1.36,0v5.59Z"/><path class="cls-7" d="M564.59,150.36v-1.44a1.35,1.35,0,0,1,.69-1.17v-1.47a2.73,2.73,0,0,0-2,2.64v1.44a2.72,2.72,0,0,0,2,2.63v-1.46A1.37,1.37,0,0,1,564.59,150.36Z"/><path class="cls-7" d="M567.32,148.92v1.44a1.35,1.35,0,0,1-.68,1.16V153a2.73,2.73,0,0,0,2-2.64v-1.44a2.73,2.73,0,0,0-2-2.64v1.46A1.37,1.37,0,0,1,567.32,148.92Z"/><path class="cls-8" d="M565.28,148.24a.68.68,0,1,0,1.36,0v-5.6a.68.68,0,1,0-1.36,0v5.6Z"/><path class="cls-7" d="M567.32,157.31v1.44a1.37,1.37,0,0,1-.68,1.17v1.47a2.73,2.73,0,0,0,2-2.64v-1.44a2.72,2.72,0,0,0-2-2.63v1.46A1.36,1.36,0,0,1,567.32,157.31Z"/><path class="cls-7" d="M564.59,158.75v-1.44a1.34,1.34,0,0,1,.69-1.16v-1.48a2.73,2.73,0,0,0-2,2.64v1.44a2.73,2.73,0,0,0,2,2.64v-1.47A1.35,1.35,0,0,1,564.59,158.75Z"/><path class="cls-8" d="M565.28,156.63a.68.68,0,1,0,1.36,0V151a.68.68,0,1,0-1.36,0v5.59Z"/><path class="cls-7" d="M567.32,165.71v1.44a1.35,1.35,0,0,1-.68,1.16v1.48a2.73,2.73,0,0,0,2-2.64v-1.44a2.73,2.73,0,0,0-2-2.64v1.46A1.37,1.37,0,0,1,567.32,165.71Z"/><path class="cls-7" d="M564.59,167.15v-1.44a1.35,1.35,0,0,1,.69-1.17v-1.47a2.72,2.72,0,0,0-2,2.64v1.44a2.72,2.72,0,0,0,2,2.63v-1.46A1.38,1.38,0,0,1,564.59,167.15Z"/><path class="cls-8" d="M565.28,165a.68.68,0,1,0,1.36,0v-5.6a.68.68,0,1,0-1.36,0V165Z"/><path class="cls-7" d="M564.59,175.54V174.1a1.34,1.34,0,0,1,.69-1.16v-1.48a2.73,2.73,0,0,0-2,2.64v1.44a2.73,2.73,0,0,0,2,2.64v-1.47A1.35,1.35,0,0,1,564.59,175.54Z"/><path class="cls-7" d="M567.32,174.1v1.44a1.38,1.38,0,0,1-.68,1.17v1.47a2.73,2.73,0,0,0,2-2.64V174.1a2.72,2.72,0,0,0-2-2.63v1.46A1.36,1.36,0,0,1,567.32,174.1Z"/><path class="cls-8" d="M565.28,173.42a.68.68,0,1,0,1.36,0v-5.6a.68.68,0,1,0-1.36,0v5.6Z"/><path class="cls-7" d="M564.59,183.94v-1.45a1.34,1.34,0,0,1,.69-1.16v-1.48a2.74,2.74,0,0,0-2,2.64v1.45a2.72,2.72,0,0,0,2,2.63v-1.46A1.38,1.38,0,0,1,564.59,183.94Z"/><path class="cls-7" d="M567.32,182.49v1.45a1.35,1.35,0,0,1-.68,1.16v1.48a2.73,2.73,0,0,0,2-2.64v-1.45a2.72,2.72,0,0,0-2-2.63v1.46A1.37,1.37,0,0,1,567.32,182.49Z"/><path class="cls-8" d="M565.28,181.82a.68.68,0,1,0,1.36,0v-5.6a.68.68,0,1,0-1.36,0v5.6Z"/><path class="cls-7" d="M564.59,192.33v-1.44a1.37,1.37,0,0,1,.69-1.17v-1.47a2.73,2.73,0,0,0-2,2.64v1.44a2.71,2.71,0,0,0,2,2.63V193.5A1.37,1.37,0,0,1,564.59,192.33Z"/><path class="cls-7" d="M567.32,190.89v1.44a1.35,1.35,0,0,1-.68,1.16V195a2.73,2.73,0,0,0,2-2.64v-1.44a2.74,2.74,0,0,0-2-2.64v1.47A1.35,1.35,0,0,1,567.32,190.89Z"/><path class="cls-8" d="M565.28,190.21a.68.68,0,1,0,1.36,0v-5.6a.68.68,0,1,0-1.36,0v5.6Z"/><path class="cls-7" d="M564.59,200.72v-1.44a1.34,1.34,0,0,1,.69-1.16v-1.48a2.73,2.73,0,0,0-2,2.64v1.44a2.73,2.73,0,0,0,2,2.64V201.9A1.38,1.38,0,0,1,564.59,200.72Z"/><path class="cls-7" d="M567.32,199.28v1.44a1.36,1.36,0,0,1-.68,1.17v1.47a2.72,2.72,0,0,0,2-2.64v-1.44a2.72,2.72,0,0,0-2-2.63v1.46A1.37,1.37,0,0,1,567.32,199.28Z"/><path class="cls-8" d="M565.28,198.61a.68.68,0,1,0,1.36,0V193a.68.68,0,1,0-1.36,0v5.6Z"/><path class="cls-7" d="M564.59,209.12v-1.44a1.37,1.37,0,0,1,.69-1.17V205a2.73,2.73,0,0,0-2,2.64v1.44a2.71,2.71,0,0,0,2,2.63v-1.46A1.37,1.37,0,0,1,564.59,209.12Z"/><path class="cls-7" d="M567.32,207.68v1.44a1.35,1.35,0,0,1-.68,1.16v1.48a2.73,2.73,0,0,0,2-2.64v-1.44a2.74,2.74,0,0,0-2-2.64v1.47A1.35,1.35,0,0,1,567.32,207.68Z"/><path class="cls-8" d="M565.28,207a.68.68,0,1,0,1.36,0v-5.6a.68.68,0,1,0-1.36,0V207Z"/><path class="cls-7" d="M564.59,217.51v-1.44a1.34,1.34,0,0,1,.69-1.16v-1.48a2.73,2.73,0,0,0-2,2.64v1.44a2.73,2.73,0,0,0,2,2.64v-1.46A1.38,1.38,0,0,1,564.59,217.51Z"/><path class="cls-7" d="M567.32,216.07v1.44a1.36,1.36,0,0,1-.68,1.17v1.47a2.73,2.73,0,0,0,2-2.64v-1.44a2.72,2.72,0,0,0-2-2.63v1.46A1.36,1.36,0,0,1,567.32,216.07Z"/><path class="cls-8" d="M565.28,215.39a.68.68,0,1,0,1.36,0V209.8a.68.68,0,1,0-1.36,0v5.59Z"/><path class="cls-7" d="M564.59,225.91v-1.44a1.36,1.36,0,0,1,.69-1.17v-1.47a2.73,2.73,0,0,0-2,2.64v1.44a2.72,2.72,0,0,0,2,2.63v-1.46A1.37,1.37,0,0,1,564.59,225.91Z"/><path class="cls-7" d="M567.32,224.47v1.44a1.35,1.35,0,0,1-.68,1.16v1.48a2.73,2.73,0,0,0,2-2.64v-1.44a2.74,2.74,0,0,0-2-2.64v1.46A1.37,1.37,0,0,1,567.32,224.47Z"/><path class="cls-8" d="M565.28,223.79a.68.68,0,1,0,1.36,0v-5.6a.68.68,0,1,0-1.36,0v5.6Z"/><path class="cls-7" d="M567.32,232.86v1.44a1.36,1.36,0,0,1-.68,1.17v.33h1.56a2.78,2.78,0,0,0,.48-1.5v-1.44a2.72,2.72,0,0,0-2-2.63v1.46A1.36,1.36,0,0,1,567.32,232.86Z"/><path class="cls-7" d="M565.28,235.48a1.38,1.38,0,0,1-.69-1.18v-1.44a1.34,1.34,0,0,1,.69-1.16v-1.48a2.73,2.73,0,0,0-2,2.64v1.44a2.79,2.79,0,0,0,.49,1.5h1.56Z"/><path class="cls-8" d="M566.64,235a.68.68,0,1,0-1.36,0v.82h1.36V235Z"/><path class="cls-8" d="M565.28,232.18a.68.68,0,1,0,1.36,0v-5.59a.68.68,0,1,0-1.36,0v5.59Z"/><path class="cls-4" d="M564.59,98.7a3.45,3.45,0,0,0,1.29.26H566a3.44,3.44,0,0,0,1.28-.26,3.51,3.51,0,0,0,1.24-.79,3.54,3.54,0,0,0,1-2.51V92.91A3.57,3.57,0,0,0,566,89.35h-.16a3.56,3.56,0,0,0-3.56,3.56V95.4a3.5,3.5,0,0,0,1,2.51A3.47,3.47,0,0,0,564.59,98.7Z"/><path class="cls-7" d="M518.52,98.7V100a1.33,1.33,0,0,1-.68,1.16v1.48a2.73,2.73,0,0,0,2-2.64V98.55a2.69,2.69,0,0,0-.13-.64A3.51,3.51,0,0,1,518.52,98.7Z"/><path class="cls-7" d="M515.8,100V98.7a3.51,3.51,0,0,1-1.24-.79,2.68,2.68,0,0,0-.12.64V100a2.71,2.71,0,0,0,2,2.63v-1.46A1.36,1.36,0,0,1,515.8,100Z"/><path class="cls-7" d="M515.8,108.38v-1.44a1.35,1.35,0,0,1,.68-1.16V104.3a2.73,2.73,0,0,0-2,2.64v1.44a2.72,2.72,0,0,0,2,2.64v-1.46A1.37,1.37,0,0,1,515.8,108.38Z"/><path class="cls-7" d="M518.52,106.94v1.44a1.34,1.34,0,0,1-.68,1.17V111a2.73,2.73,0,0,0,2-2.64v-1.44a2.72,2.72,0,0,0-2-2.63v1.46A1.36,1.36,0,0,1,518.52,106.94Z"/><path class="cls-8" d="M516.48,106.26a.68.68,0,1,0,1.36,0v-5.59a.68.68,0,1,0-1.36,0v5.59Z"/><path class="cls-7" d="M518.52,115.34v1.44a1.33,1.33,0,0,1-.68,1.16v1.48a2.73,2.73,0,0,0,2-2.64v-1.44a2.73,2.73,0,0,0-2-2.64v1.46A1.37,1.37,0,0,1,518.52,115.34Z"/><path class="cls-7" d="M515.8,116.78v-1.44a1.36,1.36,0,0,1,.68-1.17V112.7a2.73,2.73,0,0,0-2,2.64v1.44a2.71,2.71,0,0,0,2,2.63V118A1.36,1.36,0,0,1,515.8,116.78Z"/><path class="cls-8" d="M516.48,114.66a.68.68,0,1,0,1.36,0v-5.6a.68.68,0,1,0-1.36,0v5.6Z"/><path class="cls-7" d="M515.8,125.17v-1.44a1.35,1.35,0,0,1,.68-1.16v-1.48a2.73,2.73,0,0,0-2,2.64v1.44a2.72,2.72,0,0,0,2,2.64v-1.46A1.37,1.37,0,0,1,515.8,125.17Z"/><path class="cls-7" d="M518.52,123.73v1.44a1.34,1.34,0,0,1-.68,1.17v1.47a2.73,2.73,0,0,0,2-2.64v-1.44a2.72,2.72,0,0,0-2-2.63v1.46A1.36,1.36,0,0,1,518.52,123.73Z"/><path class="cls-8" d="M516.48,123.05a.68.68,0,1,0,1.36,0v-5.59a.68.68,0,1,0-1.36,0v5.59Z"/><path class="cls-7" d="M518.52,132.13v1.44a1.33,1.33,0,0,1-.68,1.16v1.48a2.73,2.73,0,0,0,2-2.64v-1.44a2.73,2.73,0,0,0-2-2.64V131A1.37,1.37,0,0,1,518.52,132.13Z"/><path class="cls-7" d="M515.8,133.57v-1.44a1.36,1.36,0,0,1,.68-1.17v-1.47a2.73,2.73,0,0,0-2,2.64v1.44a2.71,2.71,0,0,0,2,2.63v-1.46A1.36,1.36,0,0,1,515.8,133.57Z"/><path class="cls-8" d="M516.48,131.45a.68.68,0,1,0,1.36,0v-5.6a.68.68,0,1,0-1.36,0v5.6Z"/><path class="cls-7" d="M518.52,140.52V142a1.35,1.35,0,0,1-.68,1.17v1.47a2.73,2.73,0,0,0,2-2.64v-1.44a2.72,2.72,0,0,0-2-2.63v1.46A1.36,1.36,0,0,1,518.52,140.52Z"/><path class="cls-7" d="M515.8,142v-1.44a1.35,1.35,0,0,1,.68-1.16v-1.48a2.73,2.73,0,0,0-2,2.64V142a2.72,2.72,0,0,0,2,2.64v-1.46A1.37,1.37,0,0,1,515.8,142Z"/><path class="cls-8" d="M516.48,139.84a.68.68,0,1,0,1.36,0v-5.59a.68.68,0,1,0-1.36,0v5.59Z"/><path class="cls-7" d="M515.8,150.36v-1.44a1.36,1.36,0,0,1,.68-1.17v-1.47a2.73,2.73,0,0,0-2,2.64v1.44a2.71,2.71,0,0,0,2,2.63v-1.46A1.36,1.36,0,0,1,515.8,150.36Z"/><path class="cls-7" d="M518.52,148.92v1.44a1.33,1.33,0,0,1-.68,1.16V153a2.73,2.73,0,0,0,2-2.64v-1.44a2.73,2.73,0,0,0-2-2.64v1.46A1.37,1.37,0,0,1,518.52,148.92Z"/><path class="cls-8" d="M516.48,148.24a.68.68,0,1,0,1.36,0v-5.6a.68.68,0,1,0-1.36,0v5.6Z"/><path class="cls-7" d="M515.8,158.75v-1.44a1.35,1.35,0,0,1,.68-1.16v-1.48a2.73,2.73,0,0,0-2,2.64v1.44a2.72,2.72,0,0,0,2,2.64v-1.46A1.37,1.37,0,0,1,515.8,158.75Z"/><path class="cls-7" d="M518.52,157.31v1.44a1.35,1.35,0,0,1-.68,1.17v1.47a2.73,2.73,0,0,0,2-2.64v-1.44a2.71,2.71,0,0,0-2-2.63v1.46A1.36,1.36,0,0,1,518.52,157.31Z"/><path class="cls-8" d="M516.48,156.63a.68.68,0,1,0,1.36,0V151a.68.68,0,1,0-1.36,0v5.59Z"/><path class="cls-7" d="M518.52,165.71v1.44a1.33,1.33,0,0,1-.68,1.16v1.48a2.73,2.73,0,0,0,2-2.64v-1.44a2.73,2.73,0,0,0-2-2.64v1.46A1.37,1.37,0,0,1,518.52,165.71Z"/><path class="cls-7" d="M515.8,167.15v-1.44a1.36,1.36,0,0,1,.68-1.17v-1.47a2.72,2.72,0,0,0-2,2.64v1.44a2.71,2.71,0,0,0,2,2.63v-1.46A1.37,1.37,0,0,1,515.8,167.15Z"/><path class="cls-8" d="M516.48,165a.68.68,0,1,0,1.36,0v-5.6a.68.68,0,1,0-1.36,0V165Z"/><path class="cls-7" d="M515.8,175.54V174.1a1.35,1.35,0,0,1,.68-1.16v-1.48a2.73,2.73,0,0,0-2,2.64v1.44a2.72,2.72,0,0,0,2,2.64v-1.47A1.35,1.35,0,0,1,515.8,175.54Z"/><path class="cls-7" d="M518.52,174.1v1.44a1.36,1.36,0,0,1-.68,1.17v1.47a2.73,2.73,0,0,0,2-2.64V174.1a2.71,2.71,0,0,0-2-2.63v1.46A1.36,1.36,0,0,1,518.52,174.1Z"/><path class="cls-8" d="M516.48,173.42a.68.68,0,1,0,1.36,0v-5.6a.68.68,0,1,0-1.36,0v5.6Z"/><path class="cls-7" d="M518.52,182.49v1.45a1.33,1.33,0,0,1-.68,1.16v1.48a2.73,2.73,0,0,0,2-2.64v-1.45a2.72,2.72,0,0,0-2-2.63v1.46A1.37,1.37,0,0,1,518.52,182.49Z"/><path class="cls-7" d="M515.8,183.94v-1.45a1.35,1.35,0,0,1,.68-1.16v-1.48a2.74,2.74,0,0,0-2,2.64v1.45a2.71,2.71,0,0,0,2,2.63v-1.46A1.37,1.37,0,0,1,515.8,183.94Z"/><path class="cls-8" d="M516.48,181.82a.68.68,0,1,0,1.36,0v-5.6a.68.68,0,1,0-1.36,0v5.6Z"/><path class="cls-7" d="M518.52,190.89v1.44a1.33,1.33,0,0,1-.68,1.16V195a2.73,2.73,0,0,0,2-2.64v-1.44a2.73,2.73,0,0,0-2-2.64v1.47A1.35,1.35,0,0,1,518.52,190.89Z"/><path class="cls-7" d="M515.8,192.33v-1.44a1.38,1.38,0,0,1,.68-1.17v-1.47a2.73,2.73,0,0,0-2,2.64v1.44a2.7,2.7,0,0,0,2,2.63V193.5A1.36,1.36,0,0,1,515.8,192.33Z"/><path class="cls-8" d="M516.48,190.21a.68.68,0,1,0,1.36,0v-5.6a.68.68,0,1,0-1.36,0v5.6Z"/><path class="cls-7" d="M515.8,200.72v-1.44a1.35,1.35,0,0,1,.68-1.16v-1.48a2.73,2.73,0,0,0-2,2.64v1.44a2.72,2.72,0,0,0,2,2.64V201.9A1.37,1.37,0,0,1,515.8,200.72Z"/><path class="cls-7" d="M518.52,199.28v1.44a1.34,1.34,0,0,1-.68,1.17v1.47a2.72,2.72,0,0,0,2-2.64v-1.44a2.72,2.72,0,0,0-2-2.63v1.46A1.37,1.37,0,0,1,518.52,199.28Z"/><path class="cls-8" d="M516.48,198.61a.68.68,0,1,0,1.36,0V193a.68.68,0,1,0-1.36,0v5.6Z"/><path class="cls-7" d="M518.52,207.68v1.44a1.33,1.33,0,0,1-.68,1.16v1.48a2.73,2.73,0,0,0,2-2.64v-1.44a2.73,2.73,0,0,0-2-2.64v1.47A1.35,1.35,0,0,1,518.52,207.68Z"/><path class="cls-7" d="M515.8,209.12v-1.44a1.38,1.38,0,0,1,.68-1.17V205a2.73,2.73,0,0,0-2,2.64v1.44a2.7,2.7,0,0,0,2,2.63v-1.46A1.36,1.36,0,0,1,515.8,209.12Z"/><path class="cls-8" d="M516.48,207a.68.68,0,1,0,1.36,0v-5.6a.68.68,0,1,0-1.36,0V207Z"/><path class="cls-7" d="M518.52,216.07v1.44a1.34,1.34,0,0,1-.68,1.17v1.47a2.73,2.73,0,0,0,2-2.64v-1.44a2.72,2.72,0,0,0-2-2.63v1.46A1.36,1.36,0,0,1,518.52,216.07Z"/><path class="cls-7" d="M515.8,217.51v-1.44a1.35,1.35,0,0,1,.68-1.16v-1.48a2.73,2.73,0,0,0-2,2.64v1.44a2.72,2.72,0,0,0,2,2.64v-1.46A1.37,1.37,0,0,1,515.8,217.51Z"/><path class="cls-8" d="M516.48,215.39a.68.68,0,1,0,1.36,0V209.8a.68.68,0,1,0-1.36,0v5.59Z"/><path class="cls-7" d="M518.52,224.47v1.44a1.33,1.33,0,0,1-.68,1.16v1.48a2.73,2.73,0,0,0,2-2.64v-1.44a2.73,2.73,0,0,0-2-2.64v1.46A1.37,1.37,0,0,1,518.52,224.47Z"/><path class="cls-7" d="M515.8,225.91v-1.44a1.37,1.37,0,0,1,.68-1.17v-1.47a2.73,2.73,0,0,0-2,2.64v1.44a2.71,2.71,0,0,0,2,2.63v-1.46A1.36,1.36,0,0,1,515.8,225.91Z"/><path class="cls-8" d="M516.48,223.79a.68.68,0,1,0,1.36,0v-5.6a.68.68,0,1,0-1.36,0v5.6Z"/><path class="cls-7" d="M518.52,232.86v1.44a1.34,1.34,0,0,1-.68,1.17v.33h1.56a2.79,2.79,0,0,0,.49-1.5v-1.44a2.72,2.72,0,0,0-2-2.63v1.46A1.36,1.36,0,0,1,518.52,232.86Z"/><path class="cls-7" d="M516.48,235.48a1.37,1.37,0,0,1-.68-1.18v-1.44a1.35,1.35,0,0,1,.68-1.16v-1.48a2.73,2.73,0,0,0-2,2.64v1.44a2.78,2.78,0,0,0,.48,1.5h1.56Z"/><path class="cls-8" d="M517.84,235a.68.68,0,1,0-1.36,0v.82h1.36V235Z"/><path class="cls-8" d="M516.48,232.18a.68.68,0,1,0,1.36,0v-5.59a.68.68,0,1,0-1.36,0v5.59Z"/><path class="cls-4" d="M515.8,98.7a3.44,3.44,0,0,0,1.28.26h.16a3.4,3.4,0,0,0,1.28-.26,3.51,3.51,0,0,0,1.24-.79,3.54,3.54,0,0,0,1-2.51V92.91a3.56,3.56,0,0,0-3.56-3.56h-.16a3.57,3.57,0,0,0-3.56,3.56V95.4a3.54,3.54,0,0,0,1,2.51A3.51,3.51,0,0,0,515.8,98.7Z"/><rect class="cls-9" x="507.51" y="235.8" width="5.29" height="5.07"/><polygon class="cls-10" points="568.38 235.79 568.2 235.79 566.64 235.79 565.27 235.79 563.72 235.79 519.4 235.79 517.84 235.79 516.48 235.79 514.92 235.79 512.8 235.79 512.8 240.87 568.38 240.87 573.67 240.87 573.67 235.79 568.38 235.79"/><path class="cls-7" d="M479.9,100V98.7a3.51,3.51,0,0,1-1.24-.79,2.68,2.68,0,0,0-.12.64V100a2.72,2.72,0,0,0,2,2.63v-1.46A1.36,1.36,0,0,1,479.9,100Z"/><path class="cls-7" d="M482.63,98.7V100a1.34,1.34,0,0,1-.69,1.16v1.48A2.73,2.73,0,0,0,484,100V98.55a2.69,2.69,0,0,0-.13-.64A3.47,3.47,0,0,1,482.63,98.7Z"/><path class="cls-7" d="M482.63,106.94v1.44a1.35,1.35,0,0,1-.69,1.17V111a2.73,2.73,0,0,0,2.05-2.64v-1.44a2.72,2.72,0,0,0-2.05-2.63v1.46A1.37,1.37,0,0,1,482.63,106.94Z"/><path class="cls-7" d="M479.9,108.38v-1.44a1.35,1.35,0,0,1,.68-1.16V104.3a2.73,2.73,0,0,0-2,2.64v1.44a2.73,2.73,0,0,0,2,2.64v-1.46A1.37,1.37,0,0,1,479.9,108.38Z"/><path class="cls-8" d="M480.58,106.26a.68.68,0,1,0,1.36,0v-5.59a.68.68,0,1,0-1.36,0v5.59Z"/><path class="cls-7" d="M479.9,116.78v-1.44a1.36,1.36,0,0,1,.68-1.17V112.7a2.73,2.73,0,0,0-2,2.64v1.44a2.72,2.72,0,0,0,2,2.63V118A1.36,1.36,0,0,1,479.9,116.78Z"/><path class="cls-7" d="M482.63,115.34v1.44a1.34,1.34,0,0,1-.69,1.16v1.48a2.73,2.73,0,0,0,2.05-2.64v-1.44a2.73,2.73,0,0,0-2.05-2.64v1.46A1.38,1.38,0,0,1,482.63,115.34Z"/><path class="cls-8" d="M480.58,114.66a.68.68,0,1,0,1.36,0v-5.6a.68.68,0,1,0-1.36,0v5.6Z"/><path class="cls-7" d="M482.63,123.73v1.44a1.35,1.35,0,0,1-.69,1.17v1.47a2.73,2.73,0,0,0,2.05-2.64v-1.44a2.72,2.72,0,0,0-2.05-2.63v1.46A1.37,1.37,0,0,1,482.63,123.73Z"/><path class="cls-7" d="M479.9,125.17v-1.44a1.35,1.35,0,0,1,.68-1.16v-1.48a2.73,2.73,0,0,0-2,2.64v1.44a2.74,2.74,0,0,0,2,2.64v-1.46A1.37,1.37,0,0,1,479.9,125.17Z"/><path class="cls-8" d="M480.58,123.05a.68.68,0,1,0,1.36,0v-5.59a.68.68,0,1,0-1.36,0v5.59Z"/><path class="cls-7" d="M479.9,133.57v-1.44a1.36,1.36,0,0,1,.68-1.17v-1.47a2.73,2.73,0,0,0-2,2.64v1.44a2.72,2.72,0,0,0,2,2.63v-1.46A1.36,1.36,0,0,1,479.9,133.57Z"/><path class="cls-7" d="M482.63,132.13v1.44a1.34,1.34,0,0,1-.69,1.16v1.48a2.73,2.73,0,0,0,2.05-2.64v-1.44a2.73,2.73,0,0,0-2.05-2.64V131A1.38,1.38,0,0,1,482.63,132.13Z"/><path class="cls-8" d="M480.58,131.45a.68.68,0,1,0,1.36,0v-5.6a.68.68,0,1,0-1.36,0v5.6Z"/><path class="cls-7" d="M479.9,142v-1.44a1.35,1.35,0,0,1,.68-1.16v-1.48a2.73,2.73,0,0,0-2,2.64V142a2.74,2.74,0,0,0,2,2.64v-1.46A1.37,1.37,0,0,1,479.9,142Z"/><path class="cls-7" d="M482.63,140.52V142a1.36,1.36,0,0,1-.69,1.17v1.47A2.73,2.73,0,0,0,484,142v-1.44a2.72,2.72,0,0,0-2.05-2.63v1.46A1.37,1.37,0,0,1,482.63,140.52Z"/><path class="cls-8" d="M480.58,139.84a.68.68,0,1,0,1.36,0v-5.59a.68.68,0,1,0-1.36,0v5.59Z"/><path class="cls-7" d="M482.63,148.92v1.44a1.34,1.34,0,0,1-.69,1.16V153a2.73,2.73,0,0,0,2.05-2.64v-1.44a2.73,2.73,0,0,0-2.05-2.64v1.46A1.38,1.38,0,0,1,482.63,148.92Z"/><path class="cls-7" d="M479.9,150.36v-1.44a1.36,1.36,0,0,1,.68-1.17v-1.47a2.73,2.73,0,0,0-2,2.64v1.44a2.72,2.72,0,0,0,2,2.63v-1.46A1.36,1.36,0,0,1,479.9,150.36Z"/><path class="cls-8" d="M480.58,148.24a.68.68,0,1,0,1.36,0v-5.6a.68.68,0,1,0-1.36,0v5.6Z"/><path class="cls-7" d="M479.9,158.75v-1.44a1.35,1.35,0,0,1,.68-1.16v-1.48a2.73,2.73,0,0,0-2,2.64v1.44a2.74,2.74,0,0,0,2,2.64v-1.47A1.35,1.35,0,0,1,479.9,158.75Z"/><path class="cls-7" d="M482.63,157.31v1.44a1.36,1.36,0,0,1-.69,1.17v1.47a2.73,2.73,0,0,0,2.05-2.64v-1.44a2.71,2.71,0,0,0-2.05-2.63v1.46A1.37,1.37,0,0,1,482.63,157.31Z"/><path class="cls-8" d="M480.58,156.63a.68.68,0,1,0,1.36,0V151a.68.68,0,1,0-1.36,0v5.59Z"/><path class="cls-7" d="M479.9,167.15v-1.44a1.36,1.36,0,0,1,.68-1.17v-1.47a2.72,2.72,0,0,0-2,2.64v1.44a2.72,2.72,0,0,0,2,2.63v-1.46A1.37,1.37,0,0,1,479.9,167.15Z"/><path class="cls-7" d="M482.63,165.71v1.44a1.34,1.34,0,0,1-.69,1.16v1.48a2.73,2.73,0,0,0,2.05-2.64v-1.44a2.73,2.73,0,0,0-2.05-2.64v1.46A1.38,1.38,0,0,1,482.63,165.71Z"/><path class="cls-8" d="M480.58,165a.68.68,0,1,0,1.36,0v-5.6a.68.68,0,1,0-1.36,0V165Z"/><path class="cls-7" d="M482.63,174.1v1.44a1.37,1.37,0,0,1-.69,1.17v1.47a2.73,2.73,0,0,0,2.05-2.64V174.1a2.71,2.71,0,0,0-2.05-2.63v1.46A1.37,1.37,0,0,1,482.63,174.1Z"/><path class="cls-7" d="M479.9,175.54V174.1a1.35,1.35,0,0,1,.68-1.16v-1.48a2.73,2.73,0,0,0-2,2.64v1.44a2.74,2.74,0,0,0,2,2.64v-1.47A1.35,1.35,0,0,1,479.9,175.54Z"/><path class="cls-8" d="M480.58,173.42a.68.68,0,1,0,1.36,0v-5.6a.68.68,0,1,0-1.36,0v5.6Z"/><path class="cls-7" d="M482.63,182.49v1.45a1.34,1.34,0,0,1-.69,1.16v1.48a2.73,2.73,0,0,0,2.05-2.64v-1.45a2.72,2.72,0,0,0-2.05-2.63v1.46A1.38,1.38,0,0,1,482.63,182.49Z"/><path class="cls-7" d="M479.9,183.94v-1.45a1.35,1.35,0,0,1,.68-1.16v-1.48a2.74,2.74,0,0,0-2,2.64v1.45a2.72,2.72,0,0,0,2,2.63v-1.46A1.37,1.37,0,0,1,479.9,183.94Z"/><path class="cls-8" d="M480.58,181.82a.68.68,0,1,0,1.36,0v-5.6a.68.68,0,1,0-1.36,0v5.6Z"/><path class="cls-7" d="M479.9,192.33v-1.44a1.38,1.38,0,0,1,.68-1.17v-1.47a2.73,2.73,0,0,0-2,2.64v1.44a2.72,2.72,0,0,0,2,2.63V193.5A1.36,1.36,0,0,1,479.9,192.33Z"/><path class="cls-7" d="M482.63,190.89v1.44a1.34,1.34,0,0,1-.69,1.16V195a2.73,2.73,0,0,0,2.05-2.64v-1.44a2.73,2.73,0,0,0-2.05-2.64v1.47A1.35,1.35,0,0,1,482.63,190.89Z"/><path class="cls-8" d="M480.58,190.21a.68.68,0,1,0,1.36,0v-5.6a.68.68,0,1,0-1.36,0v5.6Z"/><path class="cls-7" d="M479.9,200.72v-1.44a1.35,1.35,0,0,1,.68-1.16v-1.48a2.73,2.73,0,0,0-2,2.64v1.44a2.73,2.73,0,0,0,2,2.64V201.9A1.37,1.37,0,0,1,479.9,200.72Z"/><path class="cls-7" d="M482.63,199.28v1.44a1.35,1.35,0,0,1-.69,1.17v1.47a2.72,2.72,0,0,0,2.05-2.64v-1.44a2.72,2.72,0,0,0-2.05-2.63v1.46A1.38,1.38,0,0,1,482.63,199.28Z"/><path class="cls-8" d="M480.58,198.61a.68.68,0,1,0,1.36,0V193a.68.68,0,1,0-1.36,0v5.6Z"/><path class="cls-7" d="M482.63,207.68v1.44a1.34,1.34,0,0,1-.69,1.16v1.48a2.73,2.73,0,0,0,2.05-2.64v-1.44a2.73,2.73,0,0,0-2.05-2.64v1.47A1.35,1.35,0,0,1,482.63,207.68Z"/><path class="cls-7" d="M479.9,209.12v-1.44a1.38,1.38,0,0,1,.68-1.17V205a2.73,2.73,0,0,0-2,2.64v1.44a2.72,2.72,0,0,0,2,2.63v-1.46A1.36,1.36,0,0,1,479.9,209.12Z"/><path class="cls-8" d="M480.58,207a.68.68,0,1,0,1.36,0v-5.6a.68.68,0,1,0-1.36,0V207Z"/><path class="cls-7" d="M479.9,217.51v-1.44a1.35,1.35,0,0,1,.68-1.16v-1.48a2.73,2.73,0,0,0-2,2.64v1.44a2.73,2.73,0,0,0,2,2.64v-1.46A1.37,1.37,0,0,1,479.9,217.51Z"/><path class="cls-7" d="M482.63,216.07v1.44a1.35,1.35,0,0,1-.69,1.17v1.47a2.73,2.73,0,0,0,2.05-2.64v-1.44a2.72,2.72,0,0,0-2.05-2.63v1.46A1.37,1.37,0,0,1,482.63,216.07Z"/><path class="cls-8" d="M480.58,215.39a.68.68,0,1,0,1.36,0V209.8a.68.68,0,1,0-1.36,0v5.59Z"/><path class="cls-7" d="M482.63,224.47v1.44a1.34,1.34,0,0,1-.69,1.16v1.48a2.73,2.73,0,0,0,2.05-2.64v-1.44a2.73,2.73,0,0,0-2.05-2.64v1.46A1.38,1.38,0,0,1,482.63,224.47Z"/><path class="cls-7" d="M479.9,225.91v-1.44a1.37,1.37,0,0,1,.68-1.17v-1.47a2.73,2.73,0,0,0-2,2.64v1.44a2.72,2.72,0,0,0,2,2.63v-1.46A1.36,1.36,0,0,1,479.9,225.91Z"/><path class="cls-8" d="M480.58,223.79a.68.68,0,1,0,1.36,0v-5.6a.68.68,0,1,0-1.36,0v5.6Z"/><path class="cls-7" d="M482.63,232.86v1.44a1.35,1.35,0,0,1-.69,1.17v.33h1.56a2.79,2.79,0,0,0,.49-1.5v-1.44a2.72,2.72,0,0,0-2.05-2.63v1.46A1.37,1.37,0,0,1,482.63,232.86Z"/><path class="cls-7" d="M480.58,235.48a1.37,1.37,0,0,1-.68-1.18v-1.44a1.35,1.35,0,0,1,.68-1.16v-1.48a2.73,2.73,0,0,0-2,2.64v1.44a2.78,2.78,0,0,0,.48,1.5h1.56Z"/><path class="cls-8" d="M481.94,235a.68.68,0,1,0-1.36,0v.82h1.36V235Z"/><path class="cls-8" d="M480.58,232.18a.68.68,0,1,0,1.36,0v-5.59a.68.68,0,1,0-1.36,0v5.59Z"/><path class="cls-4" d="M479.9,98.7a3.44,3.44,0,0,0,1.28.26h.16a3.75,3.75,0,0,0,2.52-1,3.54,3.54,0,0,0,1-2.51V92.91a3.56,3.56,0,0,0-3.56-3.56h-.16a3.57,3.57,0,0,0-3.56,3.56V95.4a3.54,3.54,0,0,0,1,2.51A3.51,3.51,0,0,0,479.9,98.7Z"/><path class="cls-7" d="M431.1,100V98.7a3.47,3.47,0,0,1-1.23-.79,2.69,2.69,0,0,0-.13.64V100a2.72,2.72,0,0,0,2.05,2.63v-1.46A1.37,1.37,0,0,1,431.1,100Z"/><path class="cls-7" d="M433.83,98.7V100a1.35,1.35,0,0,1-.68,1.16v1.48a2.73,2.73,0,0,0,2-2.64V98.55a2.68,2.68,0,0,0-.12-.64A3.51,3.51,0,0,1,433.83,98.7Z"/><path class="cls-7" d="M431.1,108.38v-1.44a1.34,1.34,0,0,1,.69-1.16V104.3a2.73,2.73,0,0,0-2.05,2.64v1.44a2.73,2.73,0,0,0,2.05,2.64v-1.46A1.38,1.38,0,0,1,431.1,108.38Z"/><path class="cls-7" d="M433.83,106.94v1.44a1.36,1.36,0,0,1-.68,1.17V111a2.73,2.73,0,0,0,2-2.64v-1.44a2.72,2.72,0,0,0-2-2.63v1.46A1.36,1.36,0,0,1,433.83,106.94Z"/><path class="cls-8" d="M431.79,106.26a.68.68,0,1,0,1.36,0v-5.59a.68.68,0,1,0-1.36,0v5.59Z"/><path class="cls-7" d="M433.83,115.34v1.44a1.35,1.35,0,0,1-.68,1.16v1.48a2.73,2.73,0,0,0,2-2.64v-1.44a2.74,2.74,0,0,0-2-2.64v1.46A1.37,1.37,0,0,1,433.83,115.34Z"/><path class="cls-7" d="M431.1,116.78v-1.44a1.35,1.35,0,0,1,.69-1.17V112.7a2.73,2.73,0,0,0-2.05,2.64v1.44a2.72,2.72,0,0,0,2.05,2.63V118A1.37,1.37,0,0,1,431.1,116.78Z"/><path class="cls-8" d="M431.79,114.66a.68.68,0,1,0,1.36,0v-5.6a.68.68,0,1,0-1.36,0v5.6Z"/><path class="cls-7" d="M431.1,125.17v-1.44a1.34,1.34,0,0,1,.69-1.16v-1.48a2.73,2.73,0,0,0-2.05,2.64v1.44a2.73,2.73,0,0,0,2.05,2.64v-1.46A1.38,1.38,0,0,1,431.1,125.17Z"/><path class="cls-7" d="M433.83,123.73v1.44a1.36,1.36,0,0,1-.68,1.17v1.47a2.73,2.73,0,0,0,2-2.64v-1.44a2.72,2.72,0,0,0-2-2.63v1.46A1.36,1.36,0,0,1,433.83,123.73Z"/><path class="cls-8" d="M431.79,123.05a.68.68,0,1,0,1.36,0v-5.59a.68.68,0,1,0-1.36,0v5.59Z"/><path class="cls-7" d="M433.83,132.13v1.44a1.35,1.35,0,0,1-.68,1.16v1.48a2.73,2.73,0,0,0,2-2.64v-1.44a2.74,2.74,0,0,0-2-2.64V131A1.37,1.37,0,0,1,433.83,132.13Z"/><path class="cls-7" d="M431.1,133.57v-1.44a1.35,1.35,0,0,1,.69-1.17v-1.47a2.73,2.73,0,0,0-2.05,2.64v1.44a2.72,2.72,0,0,0,2.05,2.63v-1.46A1.37,1.37,0,0,1,431.1,133.57Z"/><path class="cls-8" d="M431.79,131.45a.68.68,0,1,0,1.36,0v-5.6a.68.68,0,1,0-1.36,0v5.6Z"/><path class="cls-7" d="M433.83,140.52V142a1.37,1.37,0,0,1-.68,1.17v1.47a2.73,2.73,0,0,0,2-2.64v-1.44a2.72,2.72,0,0,0-2-2.63v1.46A1.36,1.36,0,0,1,433.83,140.52Z"/><path class="cls-7" d="M431.1,142v-1.44a1.34,1.34,0,0,1,.69-1.16v-1.48a2.73,2.73,0,0,0-2.05,2.64V142a2.73,2.73,0,0,0,2.05,2.64v-1.46A1.38,1.38,0,0,1,431.1,142Z"/><path class="cls-8" d="M431.79,139.84a.68.68,0,1,0,1.36,0v-5.59a.68.68,0,1,0-1.36,0v5.59Z"/><path class="cls-7" d="M431.1,150.36v-1.44a1.35,1.35,0,0,1,.69-1.17v-1.47a2.73,2.73,0,0,0-2.05,2.64v1.44a2.72,2.72,0,0,0,2.05,2.63v-1.46A1.37,1.37,0,0,1,431.1,150.36Z"/><path class="cls-7" d="M433.83,148.92v1.44a1.35,1.35,0,0,1-.68,1.16V153a2.73,2.73,0,0,0,2-2.64v-1.44a2.73,2.73,0,0,0-2-2.64v1.46A1.37,1.37,0,0,1,433.83,148.92Z"/><path class="cls-8" d="M431.79,148.24a.68.68,0,1,0,1.36,0v-5.6a.68.68,0,1,0-1.36,0v5.6Z"/><path class="cls-7" d="M431.1,158.75v-1.44a1.34,1.34,0,0,1,.69-1.16v-1.48a2.73,2.73,0,0,0-2.05,2.64v1.44a2.73,2.73,0,0,0,2.05,2.64v-1.46A1.38,1.38,0,0,1,431.1,158.75Z"/><path class="cls-7" d="M433.83,157.31v1.44a1.38,1.38,0,0,1-.68,1.17v1.47a2.73,2.73,0,0,0,2-2.64v-1.44a2.72,2.72,0,0,0-2-2.63v1.46A1.36,1.36,0,0,1,433.83,157.31Z"/><path class="cls-8" d="M431.79,156.63a.68.68,0,1,0,1.36,0V151a.68.68,0,1,0-1.36,0v5.59Z"/><path class="cls-7" d="M431.1,167.15v-1.44a1.35,1.35,0,0,1,.69-1.17v-1.47a2.72,2.72,0,0,0-2.05,2.64v1.44a2.72,2.72,0,0,0,2.05,2.63v-1.46A1.38,1.38,0,0,1,431.1,167.15Z"/><path class="cls-7" d="M433.83,165.71v1.44a1.35,1.35,0,0,1-.68,1.16v1.48a2.73,2.73,0,0,0,2-2.64v-1.44a2.73,2.73,0,0,0-2-2.64v1.46A1.37,1.37,0,0,1,433.83,165.71Z"/><path class="cls-8" d="M431.79,165a.68.68,0,1,0,1.36,0v-5.6a.68.68,0,1,0-1.36,0V165Z"/><path class="cls-7" d="M433.83,174.1v1.44a1.38,1.38,0,0,1-.68,1.17v1.47a2.73,2.73,0,0,0,2-2.64V174.1a2.72,2.72,0,0,0-2-2.63v1.46A1.36,1.36,0,0,1,433.83,174.1Z"/><path class="cls-7" d="M431.1,175.54V174.1a1.34,1.34,0,0,1,.69-1.16v-1.48a2.73,2.73,0,0,0-2.05,2.64v1.44a2.73,2.73,0,0,0,2.05,2.64v-1.47A1.35,1.35,0,0,1,431.1,175.54Z"/><path class="cls-8" d="M431.79,173.42a.68.68,0,1,0,1.36,0v-5.6a.68.68,0,1,0-1.36,0v5.6Z"/><path class="cls-7" d="M433.83,182.49v1.45a1.35,1.35,0,0,1-.68,1.16v1.48a2.73,2.73,0,0,0,2-2.64v-1.45a2.72,2.72,0,0,0-2-2.63v1.46A1.37,1.37,0,0,1,433.83,182.49Z"/><path class="cls-7" d="M431.1,183.94v-1.45a1.34,1.34,0,0,1,.69-1.16v-1.48a2.74,2.74,0,0,0-2.05,2.64v1.45a2.72,2.72,0,0,0,2.05,2.63v-1.46A1.38,1.38,0,0,1,431.1,183.94Z"/><path class="cls-8" d="M431.79,181.82a.68.68,0,1,0,1.36,0v-5.6a.68.68,0,1,0-1.36,0v5.6Z"/><path class="cls-7" d="M433.83,190.89v1.44a1.35,1.35,0,0,1-.68,1.16V195a2.73,2.73,0,0,0,2-2.64v-1.44a2.74,2.74,0,0,0-2-2.64v1.47A1.35,1.35,0,0,1,433.83,190.89Z"/><path class="cls-7" d="M431.1,192.33v-1.44a1.37,1.37,0,0,1,.69-1.17v-1.47a2.73,2.73,0,0,0-2.05,2.64v1.44a2.71,2.71,0,0,0,2.05,2.63V193.5A1.37,1.37,0,0,1,431.1,192.33Z"/><path class="cls-8" d="M431.79,190.21a.68.68,0,1,0,1.36,0v-5.6a.68.68,0,1,0-1.36,0v5.6Z"/><path class="cls-7" d="M431.1,200.72v-1.44a1.34,1.34,0,0,1,.69-1.16v-1.48a2.73,2.73,0,0,0-2.05,2.64v1.44a2.73,2.73,0,0,0,2.05,2.64V201.9A1.38,1.38,0,0,1,431.1,200.72Z"/><path class="cls-7" d="M433.83,199.28v1.44a1.36,1.36,0,0,1-.68,1.17v1.47a2.72,2.72,0,0,0,2-2.64v-1.44a2.72,2.72,0,0,0-2-2.63v1.46A1.37,1.37,0,0,1,433.83,199.28Z"/><path class="cls-8" d="M431.79,198.61a.68.68,0,1,0,1.36,0V193a.68.68,0,1,0-1.36,0v5.6Z"/><path class="cls-7" d="M433.83,207.68v1.44a1.35,1.35,0,0,1-.68,1.16v1.48a2.73,2.73,0,0,0,2-2.64v-1.44a2.74,2.74,0,0,0-2-2.64v1.47A1.35,1.35,0,0,1,433.83,207.68Z"/><path class="cls-7" d="M431.1,209.12v-1.44a1.37,1.37,0,0,1,.69-1.17V205a2.73,2.73,0,0,0-2.05,2.64v1.44a2.71,2.71,0,0,0,2.05,2.63v-1.46A1.37,1.37,0,0,1,431.1,209.12Z"/><path class="cls-8" d="M431.79,207a.68.68,0,1,0,1.36,0v-5.6a.68.68,0,1,0-1.36,0V207Z"/><path class="cls-7" d="M431.1,217.51v-1.44a1.34,1.34,0,0,1,.69-1.16v-1.48a2.73,2.73,0,0,0-2.05,2.64v1.44a2.73,2.73,0,0,0,2.05,2.64v-1.46A1.38,1.38,0,0,1,431.1,217.51Z"/><path class="cls-7" d="M433.83,216.07v1.44a1.36,1.36,0,0,1-.68,1.17v1.47a2.73,2.73,0,0,0,2-2.64v-1.44a2.72,2.72,0,0,0-2-2.63v1.46A1.36,1.36,0,0,1,433.83,216.07Z"/><path class="cls-8" d="M431.79,215.39a.68.68,0,1,0,1.36,0V209.8a.68.68,0,1,0-1.36,0v5.59Z"/><path class="cls-7" d="M433.83,224.47v1.44a1.35,1.35,0,0,1-.68,1.16v1.48a2.73,2.73,0,0,0,2-2.64v-1.44a2.74,2.74,0,0,0-2-2.64v1.46A1.37,1.37,0,0,1,433.83,224.47Z"/><path class="cls-7" d="M431.1,225.91v-1.44a1.36,1.36,0,0,1,.69-1.17v-1.47a2.73,2.73,0,0,0-2.05,2.64v1.44a2.72,2.72,0,0,0,2.05,2.63v-1.46A1.37,1.37,0,0,1,431.1,225.91Z"/><path class="cls-8" d="M431.79,223.79a.68.68,0,1,0,1.36,0v-5.6a.68.68,0,1,0-1.36,0v5.6Z"/><path class="cls-7" d="M431.79,235.48a1.38,1.38,0,0,1-.69-1.18v-1.44a1.34,1.34,0,0,1,.69-1.16v-1.48a2.73,2.73,0,0,0-2.05,2.64v1.44a2.79,2.79,0,0,0,.49,1.5h1.56Z"/><path class="cls-7" d="M433.83,232.86v1.44a1.36,1.36,0,0,1-.68,1.17v.33h1.56a2.78,2.78,0,0,0,.48-1.5v-1.44a2.72,2.72,0,0,0-2-2.63v1.46A1.36,1.36,0,0,1,433.83,232.86Z"/><path class="cls-8" d="M433.15,235a.68.68,0,1,0-1.36,0v.82h1.36V235Z"/><path class="cls-8" d="M431.79,232.18a.68.68,0,1,0,1.36,0v-5.59a.68.68,0,1,0-1.36,0v5.59Z"/><path class="cls-4" d="M431.1,98.7a3.45,3.45,0,0,0,1.29.26h.16a3.44,3.44,0,0,0,1.28-.26,3.51,3.51,0,0,0,1.24-.79,3.54,3.54,0,0,0,1-2.51V92.91a3.57,3.57,0,0,0-3.56-3.56h-.16a3.56,3.56,0,0,0-3.56,3.56V95.4a3.54,3.54,0,0,0,1,2.51A3.47,3.47,0,0,0,431.1,98.7Z"/><rect class="cls-9" x="422.82" y="235.8" width="5.29" height="5.07"/><polygon class="cls-10" points="483.5 235.79 481.94 235.79 480.58 235.79 479.02 235.79 434.71 235.79 433.15 235.79 431.79 235.79 430.23 235.79 428.11 235.79 428.11 240.87 483.69 240.87 488.98 240.87 488.98 235.79 483.69 235.79 483.5 235.79"/><rect class="cls-10" x="429.3" y="200.19" width="6.34" height="26" rx="3.14"/><rect class="cls-10" x="478.09" y="200.19" width="6.34" height="26" rx="3.14"/><rect class="cls-10" x="514.46" y="198.53" width="6.34" height="26" rx="3.14"/><rect class="cls-10" x="563.25" y="198.53" width="6.34" height="26" rx="3.14"/><ellipse class="cls-11" cx="960" cy="655.12" rx="885.05" ry="323.38"/><path class="cls-12" d="M631.16,209.76c1.26,7.71,1.44,15.55,2.48,23.29.39,2.91,1,7.31,1.59,12.74.2,2.19.51,5.24,1,8.88,1.09,7.63,1.78,8.7,2.72,9,1.78.66,4.68-1.27,5.25-3.46.3-1.18-.18-2.06-.64-3.41-.54-1.56-.65-3.84-.87-8.41-.23-4.75-.12-8.35-.06-11,.16-7.33-.27-6.89-.24-13.29,0-2.23.05-3.92-.09-6.58s-.39-4.89-.62-6.86a42.12,42.12,0,0,0-1-6.58c-.66-1.94-4.74-9.53-8.37-5.84C629.65,201,630.59,206.29,631.16,209.76Z"/><path class="cls-12" d="M661.88,217.54a5.08,5.08,0,0,1,1.25,1.74,3.77,3.77,0,0,1,0,2.28,9.84,9.84,0,0,1-3.57,5,32.08,32.08,0,0,1-5.4,3.19q-7.56,3.85-14.81,8.3a15.3,15.3,0,0,1-2.64-6.35c.76-.64,2-1.65,3.65-2.78,3.11-2.14,3.75-2,5.57-3.66a32.68,32.68,0,0,0,3.83-4.22h0c-10.3-4.72-11.36-7.35-11.36-7.35-.7-1.73-.46-4.15-.34-6.28a4,4,0,0,1,.63-1.79,7.8,7.8,0,0,1,4.06-3.22c1.72-.61,2.94.83,4.24,1.82q5.06,3.9,9.74,8.25Q659.37,215,661.88,217.54Z"/><path class="cls-13" d="M656.43,167a1.15,1.15,0,0,0-.55-.23l-1.7-.31c-.35-.06-.49.12-.7,0s-.29-.47-.44-.5c-.38-.08-.75,1.91-2.2,3.48-.52.55-.94,1-1.58,1.08s-1.09-.47-3-2.12c-1.71-1.52-2.88-2.34-4.72-4.13h0l-2.68-2.6a5.72,5.72,0,0,0-2.53-1.13,2.09,2.09,0,0,0-.68-.05,3.12,3.12,0,0,0-2.41,2.78,5.07,5.07,0,0,0,1.25,3.64,15,15,0,0,0,3,2.6l6.55,4.81a14.94,14.94,0,0,0,4.23,2.44,5.1,5.1,0,0,0,4.68-.62,7.65,7.65,0,0,0,1.76-2.63C655.16,172.68,657.56,167.94,656.43,167Z"/><path class="cls-14" d="M635.94,220.1c3.13-.85,5.63-1.47,8.13-2.09,5.21-1.28,5.21-1.25,8.14-2.08,6-1.73,9.07-2.59,9.41-3.76.78-2.67-6.19-4.36-11.3-12.13-1.06-1.63-2-4.7-4.36-10.63-1.81-4.45-3.35-11.28-4.93-15.81-1-2.92-1.22-6-2-9-.63-2.42-2.25-7-5.44-7.1a12.65,12.65,0,0,0-2.28.26,13.92,13.92,0,0,1-4.51,0,3.37,3.37,0,0,0-2.49.12,2.66,2.66,0,0,0-.82,1,23.91,23.91,0,0,0-2.7,11.17,69.2,69.2,0,0,0,.59,8.06c.7,6,1.33,7.86,2.17,14,.53,3.85.24,2.79.88,7.83,1.35,10.65,1.75,8.45,2.37,14.51.41,4,.28,5.56,1.56,6.45C629.11,221.44,630.07,221.7,635.94,220.1Z"/><path class="cls-12" d="M629.27,151.75a6.25,6.25,0,0,0,2.81,5.13,5.8,5.8,0,0,0,4.71.27,4.66,4.66,0,0,0,1.81-1.06,6.75,6.75,0,0,0,1.24-2q1.1-2.37,2.2-4.76a5.72,5.72,0,0,0,.74-2.74,3.62,3.62,0,0,0-1.55-2.55,7.21,7.21,0,0,0-2.84-1.14,15.56,15.56,0,0,0-4-.29,5.88,5.88,0,0,0-2.58.63c-1.3.74-1.5,1.9-1.75,3.22A21.61,21.61,0,0,0,629.27,151.75Z"/><path class="cls-15" d="M631.76,150.83a1.92,1.92,0,0,1,.84-1.88,1.88,1.88,0,0,1,2.31,1.07,3.33,3.33,0,0,1,.72-3.58,3.21,3.21,0,0,1,2.69-.34c2.31.54,3.11,2.65,4.1,2.33.17-.06.43-.21,1-1.81.73-2.22,1.1-3.33.88-4.37-.38-1.75-1.84-2.77-3.21-3.72a11.82,11.82,0,0,0-4-1.73,12.57,12.57,0,0,0-5.67-.07c-3.9,1-7.16,5.21-8.22,10.67,0,0-1.59,4.7-.3,8.08a4,4,0,0,0,.66,1.11,4.14,4.14,0,0,0,1.7,1,8.53,8.53,0,0,0,1.78.45c1.73.27,2.32.31,3.18.44a26.54,26.54,0,0,1,4.87,1.06c.75.26,1.32.5,1.48.3s-.53-.81-1.14-1.94a13.05,13.05,0,0,1-1.25-4.13c-.11-.77-.13-1.46-.58-1.67s-.79.2-1.25,0S631.77,151,631.76,150.83Z"/><path class="cls-16" d="M657.89,154.21a.7.7,0,0,1,.27.19l2.83,2.74a19.54,19.54,0,0,0,1.67,1.49,23.21,23.21,0,0,0,2.23,1.4c.29.16.62.42.58.75s-.41.48-.72.54a4.73,4.73,0,0,1-3.06-.75,9.51,9.51,0,0,1-4.22-5.27C657.36,155,657.08,154,657.89,154.21Z"/><path class="cls-17" d="M663.42,180.37a2.4,2.4,0,0,0,.23-1c.09-.69.16-1.39.2-2.09.17-2.72-.13-5.43-.11-8.15a27.61,27.61,0,0,1,1.6-8.09.12.12,0,0,0,0-.1,2.58,2.58,0,0,1,.08-.26v-.16a19.24,19.24,0,0,1-6-3.5,15.42,15.42,0,0,1-1.13-1.28c-.52-.65-.7-1-1-1s-.82.5-1,.86c-1.07,1.67-1.32,3.38-1.78,6-.2,1.14-.57,2.23-.77,3.37a19.57,19.57,0,0,0-.21,3.59q0,4,0,7.92c0,1.56-.56,4.53,1.22,5.39a5,5,0,0,0,2.81.07c1.15-.18,2.29-.46,3.43-.71C661.7,181.05,663,181.06,663.42,180.37Z"/><path class="cls-18" d="M661.63,159.82a6.08,6.08,0,0,1-1.73-.76c-.27-.17-.81-.24-.76-.59a0,0,0,0,0,0-.06c-.34-.26-.8-.07-1.18-.24a.32.32,0,0,1-.26-.27v-.1a3,3,0,0,0-.48-.44,0,0,0,0,0,0-.06l-.43-.25s-.07,0-.06,0c.07.26.21.21.39.33s0,.06,0,.12l.2.13c.71.55.14.13.27.32,0,0,0,0,0,0a.71.71,0,0,0,.5.3c.17,0,.36,0,.54.07s.27.08.32.21-.06.07-.05.1.06.18.25.24a6.32,6.32,0,0,1,1.22.61,4.41,4.41,0,0,0,1.22.42A.06.06,0,1,0,661.63,159.82Z"/><path class="cls-18" d="M660.9,161.41a8,8,0,0,1-1-.8,2.1,2.1,0,0,0-.83-.54,5.31,5.31,0,0,0-1-.31c-.14,0-1-.24-1.09-.1a.07.07,0,0,0-.07-.11c-.3.1-.29-.11-.49-.23a.42.42,0,0,0-.21-.06l.06,0s0-.11,0-.1l-.18,0a0,0,0,0,0,0,.06l-.08.09s0,.1.05.1c.27,0,.34.24.53.33a.47.47,0,0,0,.31,0c.14.14.38.09.57.11a6,6,0,0,1,1.38.32,2.68,2.68,0,0,1,1,.66,6.19,6.19,0,0,0,1,.77C660.89,161.62,661,161.47,660.9,161.41Z"/><path class="cls-18" d="M661.38,161.06a4.39,4.39,0,0,1-1.21-.73,1.42,1.42,0,0,0-.74-.42,2.65,2.65,0,0,1-.5,0c-.2-.1-.27-.33-.41-.46s-1.1-.45-1.16-.84a.07.07,0,0,0-.06-.07c-.17,0-.81-.07-.68-.29,0,0,0-.1-.06-.1l-.39,0c-.06,0-.07.1,0,.11a.76.76,0,0,1,.27.06l0,.05a.07.07,0,0,0,0,.11c.21.11.51.13.7.24s.18.21.3.31a6.29,6.29,0,0,0,.67.37c.24.15.28.32.44.52a.85.85,0,0,0,.48.22,1.51,1.51,0,0,1,.88.28,6.66,6.66,0,0,0,1.39.91C661.41,161.29,661.49,161.11,661.38,161.06Z"/><path class="cls-16" d="M663.6,181.71a6.39,6.39,0,0,0,.13-1.76l.15-2.12c.39-5.77,1.62-11.24,1.67-17a.24.24,0,0,0,0-.08h0a.19.19,0,0,0-.24-.09,32.68,32.68,0,0,0-7.41-1.13,20,20,0,0,0-3.37.21c-.56.08-1.42.08-1.68.69a4.93,4.93,0,0,0-.14,1.58c0,.58-.07,1.17-.09,1.75-.48,13.62-1.34,16.72-1.34,16.72a24.07,24.07,0,0,0,3.48,1.4,19.55,19.55,0,0,0,7,.66C662.41,182.44,663.26,182.31,663.6,181.71Z"/><path class="cls-12" d="M654.82,171.16a2.43,2.43,0,0,0-.59-1,2.39,2.39,0,0,0-1.81-.31l-1.07.09a2.42,2.42,0,0,0-.92.21c-.58.31-.8,1-1.21,1.52a6.1,6.1,0,0,0-.72.89c-.39.71.14,1.41,0,2.13s-1,1.24-1,2a1.34,1.34,0,0,0,.45.78,1.36,1.36,0,0,0,.53.39,1.31,1.31,0,0,0,1-.26l3.4-2a5.58,5.58,0,0,0,1-.7,4.71,4.71,0,0,0,.88-1.28,3,3,0,0,0,.38-1.11A3.14,3.14,0,0,0,654.82,171.16Z"/><path class="cls-13" d="M626.83,162.9a6.72,6.72,0,0,0-.2,4.14,33.86,33.86,0,0,0,1.23,4.21,160.52,160.52,0,0,0,5.78,15.32c.71,1.54,1.64,3.21,3.28,3.67.54.15,1,0,3.28-.67,3.1-1,3.47-.94,3.94-1.28s.69-.71,2.12-3.12c2-3.39,3-5.08,3.3-5.51,1.09-1.54,1.55-1.9,1.46-2.65,0,0-.16-1.42-2.85-2.71a.56.56,0,0,0-.32-.07.85.85,0,0,0-.49.39l-3.81,5.24a7,7,0,0,1-1.91,2,2.32,2.32,0,0,1-2.61,0,3.36,3.36,0,0,1-.91-1.9q-1.29-5.32-2.57-10.64c-.57-2.4-1.25-5-3-6.91S628.09,160.17,626.83,162.9Z"/><path class="cls-13" d="M646.53,261.84a34.88,34.88,0,0,0,4.48,2.79c1.54.89,2.25,1.26,2.45,2.07a3.24,3.24,0,0,1-.9,2.57,5.14,5.14,0,0,1-3.45,1.78c-.92.09-1.88-.25-3.8-.93a26.29,26.29,0,0,1-3.51-1.52,10.14,10.14,0,0,1-2.16-1.23c-.86-.83-1.14-1.93-1.7-4.14-.21-.85,0-.28-.53-3.33a2.51,2.51,0,0,1,0-.93c.2-1,1.39-1.55,2.43-1.94a9.41,9.41,0,0,1,2.73-.8,1.12,1.12,0,0,1,.75.15,1.64,1.64,0,0,1,.51,1.05C644,258.91,645.86,261.14,646.53,261.84Z"/><path class="cls-12" d="M1037.27,164a44.19,44.19,0,0,0,.74,8.29c.24,1.26.52,2.44.82,3.55l3.74.29c.1-.55.19-1.1.29-1.64l.29-1.64c.12-.7.42-5.65,1.27-31.25l-8-.41Q1036.86,152.58,1037.27,164Z"/><path class="cls-12" d="M1055.87,163.64a43.81,43.81,0,0,1-.42,8.31c-.19,1.26-.43,2.46-.69,3.57L1051,176c-.11-.54-.23-1.08-.34-1.63l-.35-1.62c-.17-.78-.71-6.58-2.45-31.18l8-.71Q1055.86,152.22,1055.87,163.64Z"/><path class="cls-12" d="M1023.81,109.81l1.11-1.36-2.54-1.75-1.56,2-1.9,2.41s-1.26,1.44-.8,2.22a4.69,4.69,0,0,0,.46.78c.64.8.38,1.5.88,1.92s.9.1.9.1a.81.81,0,0,0,.24,1.13.67.67,0,0,0,.91-.11,17.26,17.26,0,0,0,1.48-1.64c.8,1,1.32-.4,1.26-1.5C1024.2,113.15,1023.81,109.81,1023.81,109.81Z"/><path class="cls-12" d="M1065.77,115.05l-.55-2.8-.43-2.37-2.85.37.35,1.61s-1.75,2.61-2.17,3.34c-.52.89-.69,2.27.41,1.78a15,15,0,0,0,.53,2,.61.61,0,0,0,.7.47.74.74,0,0,0,.68-.83s.09.46.79.3.68-.82,1.55-1.22a4.15,4.15,0,0,0,.72-.45C1066.21,116.79,1065.77,115.05,1065.77,115.05Z"/><path class="cls-19" d="M1054.48,109.74c-2,.21-4.07.32-6.09.34H1047l-1.84,0-1.9-.07c-2-.08-3.91-.22-5.48-.37-1.81-.16-3.22-.33-4-.44-.23,2.5-1,10-3.54,33.61,7.44,2.92,25.66,3.22,31.9-.4l-3.68-33.27C1057.18,109.39,1055.85,109.59,1054.48,109.74Z"/><path class="cls-20" d="M1057.3,144.41s-2.06-28.54-2.82-34.67c-2,.21-6.8.35-6.8.35H1047l-1.84,0s-5.81-.29-7.38-.44c-.8,5.91-3.12,34.78-3.12,34.78l7.38,1.11v.2h7.54v-.12Z"/><path class="cls-21" d="M1043.26,110,1042,145.72h7.54l-1.19-35.64C1046.62,110.11,1044.89,110.07,1043.26,110Z"/><polygon class="cls-20" points="1065.59 107.66 1060.61 108.21 1061.22 111.02 1061.63 111 1065.18 110.78 1065.91 110.74 1065.59 107.66"/><polygon class="cls-20" points="1021.33 105.73 1020.4 108.2 1021.01 108.42 1023.98 109.51 1024.31 109.64 1025.46 107.53 1021.33 105.73"/><path class="cls-22" d="M1060.74,109.74l5.55-1.45a150.83,150.83,0,0,1-4-17.49c-1.32-8-1.83-15.47-7.15-18.64l-.54-.3-.73.53c-2.28,1.64-8.51,6.12-8.44,6,.08.09-6.1-4.21-8.35-5.78l-.68-.47a20.27,20.27,0,0,0-5.11,6c-1.17,2.13-1.34,3.41-2.48,7.07-1.24,4-2.37,6.77-3.81,10.31-1,2.51-2.53,6-4.64,10.11l5,2.43a56.74,56.74,0,0,0,7.6-14.92,55.49,55.49,0,0,0,2-7.91q-.48,6.09-1,12.2l-1,11.62.72.1c.79.11,2.2.28,4,.44,1.57.15,3.44.29,5.48.37l1.9.07,1.84,0h1.39c2,0,4.09-.13,6.09-.34,1.37-.15,2.7-.35,4-.61l.66-.14q-.81-5.44-1.61-10.9c-.18-1.45-.39-2.93-.62-4.44-.33-2.18-.7-4.3-1.09-6.34q1.26,4.65,2.41,9.68C1059.21,101.4,1060,105.66,1060.74,109.74Z"/><path class="cls-20" d="M1042.63,70.62c-.18,0,.12-.63-6.32,1.48l.13.09.68.47c2.25,1.57,8.43,5.87,8.35,5.78s-2.84-7.82-2.84-7.82Z"/><path class="cls-20" d="M1050.3,70.8c-2-.44-1.89-.2-2-.18h0s-2.71,7.72-2.81,7.82,6.16-4.41,8.44-6l.73-.53.09-.06C1053.45,71.38,1050.3,70.8,1050.3,70.8Z"/><path class="cls-23" d="M1051.41,82.73,1051,77.3l-4.66.84h-1.78l-4.76-.84-.22,5.65,2.81-1.61c-1.07,1.48-2.59,3.64-2.59,3.78A46.06,46.06,0,0,0,1043.9,88l1.32-7.79h.41L1047,88a46.06,46.06,0,0,0,4.13-2.83c0-.14-1.69-2.53-2.75-4Z"/><path class="cls-24" d="M1054.63,58.72a28.32,28.32,0,0,0-2.62-7.25c-1.8-3.15-5.94-6-11.07-2.31-2.41.7-3.6,3.52-4.33,5.84-3.61,11.44-1.39,15.61.68,16.79,5.43-1.74,5.34-1.17,5.34-1.17.22-1.5.57-3.82.83-5.34A7,7,0,0,1,1040,61h0l-.07,0h0l-.06,0h0l-.07,0h0l-.09,0h0l-.39-.18h0a1.68,1.68,0,0,1-1-1.55c0-1.38,1.31-1.21,1.91-.6.42-4.2,2.21-5.74,2.79-6.06.13,1.93,1.14,5.25,5,5.85a4.41,4.41,0,0,1-1.41-2.91c1.81,3.62,3.34,3.35,3.93,3.32.4-1,1.91-1.21,1.91.06a2.27,2.27,0,0,1-1.71,2.15c-.06.15-.11.3-.17.44a7.73,7.73,0,0,1-3.26,3.85l1,5.34h0c.13,0,.07-.26,2,.18,0,0,2.38.44,3.85.83C1055.84,69.41,1055.94,64.71,1054.63,58.72Z"/><path class="cls-12" d="M1050.46,58.78c-.59,0-2.12.3-3.93-3.32a4.41,4.41,0,0,0,1.41,2.91c-3.82-.6-4.83-3.92-5-5.85-.58.32-2.37,1.86-2.79,6.06-.6-.61-1.91-.78-1.91.6a1.68,1.68,0,0,0,1,1.55h0l.39.18h0l.09,0h0l.07,0h0l.06,0h0l.07,0h0a4.64,4.64,0,0,0,1.12,3.1,4.45,4.45,0,0,0,1.71,1.19l-.24,5.3s2.74,7.72,2.84,7.82c.48-1.3,1-2.62,1.45-4s.92-2.59,1.36-3.87l-.45-5.17a9.86,9.86,0,0,0,2.24-2.4,3.89,3.89,0,0,0,.5-1.21,4.38,4.38,0,0,0,.09-.85,2.27,2.27,0,0,0,1.71-2.15C1052.37,57.57,1050.86,57.77,1050.46,58.78Z"/><path class="cls-13" d="M1000.46,179.32a33.58,33.58,0,0,0,3.9,3.8c1.36,1.24,2,1.78,2,2.65a3.36,3.36,0,0,1-1.48,2.39,5.37,5.37,0,0,1-3.88,1c-.94-.12-1.84-.68-3.63-1.78a30.33,30.33,0,0,1-3.21-2.31,10.49,10.49,0,0,1-1.9-1.72c-.69-1-.73-2.21-.81-4.57,0-.91,0-.28.2-3.47a2.31,2.31,0,0,1,.17-.95c.42-1,1.74-1.27,2.88-1.43a10,10,0,0,1,2.94-.2,1.12,1.12,0,0,1,.71.32,1.71,1.71,0,0,1,.29,1.17C998.54,175.8,999.94,178.47,1000.46,179.32Z"/><path class="cls-13" d="M985.21,180.32a34.85,34.85,0,0,0,2.84,4.65c1,1.54,1.49,2.21,1.3,3.06-.26,1.15-1.55,1.74-2,1.95a5.33,5.33,0,0,1-4,.05c-.88-.35-1.62-1.11-3.08-2.63a29.51,29.51,0,0,1-2.53-3,10.08,10.08,0,0,1-1.42-2.14c-.42-1.17-.16-2.32.35-4.62.2-.89.12-.26,1-3.32a2.52,2.52,0,0,1,.4-.87c.65-.84,2-.8,3.14-.67a9.53,9.53,0,0,1,2.9.53,1.17,1.17,0,0,1,.62.49,1.69,1.69,0,0,1,0,1.2C984.22,176.44,984.92,179.36,985.21,180.32Z"/><path class="cls-12" d="M963.08,110.4l-1.3,3.34s-.93,2.05-.1,2.77a6.79,6.79,0,0,0,.83.72c1,.67,1,1.55,1.75,1.85s1.09-.2,1.09-.2a.94.94,0,0,0,.7,1.18.81.81,0,0,0,1-.43,20.53,20.53,0,0,0,1.1-2.34c1.3.85,1.38-.9.9-2.11-.4-1-2.12-4.61-2.12-4.61l.79-1.91-3.61-1.09Z"/><path class="cls-12" d="M1022.38,109.46l-1.88-3L1019,104l-3.27,1.72,1.11,1.69s-1,3.8-1.17,4.83c-.24,1.26.16,2.93,1.26,1.87a19.38,19.38,0,0,0,1.49,2,.79.79,0,0,0,1.06.23.92.92,0,0,0,.46-1.26s.31.48,1.08,0,.45-1.26,1.34-2.11a6,6,0,0,0,.66-.85C1023.66,111.26,1022.38,109.46,1022.38,109.46Z"/><path class="cls-19" d="M972.19,110.7q.28,18.4,1.18,37.75.66,14.4,1.64,28.25l10.5-.38c-.24-8.4-.3-17.16-.13-26.26.19-10.49.68-20.53,1.37-30.09.9,9.41,1.55,19.41,1.86,30,.27,9.22.24,18,0,26.39l10.64.15q1.65-32.88,3.29-65.77a98.43,98.43,0,0,1-18.71,1.11A97.38,97.38,0,0,1,972.19,110.7Z"/><path class="cls-12" d="M986.45,57.22a14,14,0,0,1,.09,1.87v.12h.25v-.08c0-.62.09-1.33.12-1.88a.65.65,0,0,1,.6-.64c.8,0,1.49-.06,2-.1h.08c-.11-1-.23-2-.35-3.08a10.58,10.58,0,0,0,1.49-1.31,10.94,10.94,0,0,0,2.3-3.69,3,3,0,0,0,2.39-2.68c0-1.39-.89-1.4-1.47-1.26l-.44,1.58a8.57,8.57,0,0,0-.72-2.66,6.53,6.53,0,0,0-1.2-1.77,5.89,5.89,0,0,0-3-1.72c0,.71,2.13,2.13,2.13,2.13-2.28.29-5-2.17-6-3.33a6.4,6.4,0,0,0-4.12,4.73,7.22,7.22,0,0,0-.13,1v.17a6.23,6.23,0,0,0,.11,1.48L980,44.83a3.1,3.1,0,0,1-.17-.32v.05c-.5-.18-1.72-.45-1.72,1.18a3,3,0,0,0,2.39,2.68,9.8,9.8,0,0,0,3.72,5c0,1-.11,2-.16,3.08C985.82,56.53,986.32,56.89,986.45,57.22Z"/><path class="cls-24" d="M990.84,34.15a12.37,12.37,0,0,1,1.38-1A9.3,9.3,0,0,0,988.4,33l.62-1.25c-5-.71-6.74,2.13-7.09,3.55-1.77.71-2.47,2.48-2.84,3.9a7.44,7.44,0,0,0,.78,5.31,3.1,3.1,0,0,0,.17.32l.62,1.23h0a6.23,6.23,0,0,1-.11-1.48v-.17a7.22,7.22,0,0,1,.13-1,6.4,6.4,0,0,1,4.12-4.73c1,1.16,3.72,3.62,6,3.33,0,0-2.13-1.42-2.13-2.13a5.89,5.89,0,0,1,3,1.72,6.53,6.53,0,0,1,1.2,1.77,8.56,8.56,0,0,1,.72,2.67l.44-1.59C996,37.92,993.28,35.13,990.84,34.15Z"/><path class="cls-19" d="M1000.2,60.86a7.55,7.55,0,0,0-2.8-.31,14.61,14.61,0,0,0-5.83-1.33V57.11a.72.72,0,0,0-.67-.75s-.46.07-1.26.14h-.08c-.54,0-1.23.09-2,.1a.65.65,0,0,0-.6.64c0,.55-.08,1.26-.12,1.88v.08h-.25v-.12c0-.62-.06-1.33-.09-1.87a.63.63,0,0,0-.58-.62c-.56,0-1.15-.05-1.77-.1H984c-.42,0-.85-.08-1.29-.14s-.67.34-.67.75v2.12a13.49,13.49,0,0,0-5.62,1.4,7.36,7.36,0,0,0-2.56.46c-1.9.71-4.53,2.63-7.82,13.4a99,99,0,0,0-2.88,12.16q-1.61,10.48-3.2,21l9,1.85L972.2,87l.8-2.89c-.54,5.6-1,11.36-1.37,17.27-.21,3.42-.39,6.8-.52,10.12l34.29-.67q-.74-4.34-1.43-8.76-1.8-11.51-3.15-22.57c1.39,3.23,2.94,6.58,4.68,10a179.32,179.32,0,0,0,9.78,16.91l7.17-3.62c-2.1-3.55-5.18-9-8.53-16-1.63-3.4-2.45-5.1-3.49-7.52C1005.65,68.22,1004.74,62.3,1000.2,60.86Z"/><path class="cls-25" d="M986.58,89.3a1,1,0,1,0,1,1A1,1,0,0,0,986.58,89.3Z"/><path class="cls-25" d="M986.58,98.76a1,1,0,1,0,1,1A1,1,0,0,0,986.58,98.76Z"/><path class="cls-25" d="M986.58,63a1,1,0,1,0-1-1A1,1,0,0,0,986.58,63Z"/><path class="cls-25" d="M986.58,70.39a1,1,0,1,0,1,1A1,1,0,0,0,986.58,70.39Z"/><path class="cls-25" d="M986.58,79.85a1,1,0,1,0,1,1A1,1,0,0,0,986.58,79.85Z"/></g></g></svg>