<svg xmlns="http://www.w3.org/2000/svg" viewBox="0 0 111.62 84.75"><defs><style>.cls-1{fill:#e0dcc7;}.cls-2{fill:#c6bda3;}.cls-3{fill:#a5a08b;}.cls-4{fill:#84816f;}.cls-5{fill:#6b6859;}.cls-6{fill:#f7f0dc;}.cls-7{fill:#24afc6;}.cls-8{fill:#f2edda;}.cls-9{fill:#71c5d8;}.cls-10{fill:#a0ecf9;}.cls-11{fill:#7ad8e2;}.cls-12{fill:#e1fcff;}.cls-13{fill:#51c2ce;}.cls-14{fill:#9de3ea;}</style></defs><g id="レイヤー_2" data-name="レイヤー 2"><g id="Layer_1" data-name="Layer 1"><path class="cls-1" d="M66.57,82.18C68,85.39,73.34,84,76.42,83.83c3.6-.19,6.51-1.72,10.28-1.93,4.25-.24,5.53-3.22,3.57-6.52-.86-1.54-.44-3.85-.7-5.63s-.68-3.43-.95-5.16.18-3.68-1.87-4.41c-1.58-.56-4.08.34-5.58.7-3.7.9-7.57,1.5-11.31,2.31-6,1.27-2.84,3.6-2.59,8C67.49,74.8,65,78.61,66.57,82.18Z"/><path class="cls-2" d="M66.57,82.18C68,85.39,73.34,84,76.42,83.83c3.6-.19,6.51-1.72,10.28-1.93,3.5-.2,5-2.26,4.27-4.83A6.73,6.73,0,0,1,87.68,73c-.7-2.17,1.71-10,.08-10.8l-2.9,2.2-5,.86c-4.05,2.48-8.53,4.36-12.64-.85l-.14-.18c-1.91,1.39,0,3.55.18,6.94C67.49,74.8,65,78.61,66.57,82.18Z"/><path class="cls-3" d="M81.66,64.94l-1.78.31A26.87,26.87,0,0,1,76.32,67a10.06,10.06,0,0,1-4.18.61s.27.86.58,2.13A11,11,0,0,1,72.61,73c-.07,1.53-.49,3.65,0,5.13,0-1.13-.24-3.19.46-4.07.57-.73,2.44-1.24,3.27-1.51-.84.34-1.82.28-2.65.67-.76-.73-.61-2-.61-2.91,0-1.13-.43-1.82,0-2.4.4-.33,2.06,0,3.63-.54.93-.46,3.22-2.28,3.94-1.75.56.41,0,1.48-.2,3.93C80.53,69.42,81.61,65.08,81.66,64.94Z"/><path class="cls-3" d="M66.57,82.18C68,85.39,73.34,84,76.42,83.83c3.6-.19,6.51-1.72,10.28-1.93,3.25-.19,4.74-2,4.41-4.26-1,.14-2.25-10.4-3.21-10.63-2.41,9.22,4.42,13.1-6.72,12.3-8.27,3.25-11.48,1.07-12.06-3.17-.23-1.72,1.5-4.84-.35-8.76-1.26-2.68,5-2,7.76-2.41a20.22,20.22,0,0,1,12-1.9c-.09-1.25-.28-2.37-1.74-2.89s-4.08.34-5.58.7c-3.7.9-7.57,1.5-11.31,2.31-6,1.27-2.84,3.6-2.59,8C67.49,74.8,65,78.61,66.57,82.18Z"/><path class="cls-4" d="M66.57,82.18C68,85.39,73.34,84,76.42,83.83c3.6-.19,6.51-1.72,10.28-1.93,3.24-.19,4.74-2,4.41-4.25-.55.76-2.64-3.71-2.51-2.72.77,6-3.92,6.46-6.39,6.63a23.81,23.81,0,0,1-2.8-.08c-.28,0-.56,0-.84,0-9.54,4.8-12.5-1.25-11.06-6.7l1.41-4.72c-.6-1.15-1.17-.09-1.6-1.31a9.42,9.42,0,0,1-.45-4.37c-1.55,1.4.21,3.52.4,6.77C67.49,74.8,65,78.61,66.57,82.18Z"/><path class="cls-5" d="M88.94,78.29c.27.92.54,1.82.77,2.71a3.29,3.29,0,0,0,1.41-3.35c-.55.76-2.64-3.71-2.52-2.72a8.57,8.57,0,0,1,0,2.2C88.71,77.52,88.82,77.91,88.94,78.29Z"/><path class="cls-1" d="M101.77,50.63l-.19,0,.17.5C101.77,50.86,102.3,50.79,101.77,50.63Z"/><path class="cls-1" d="M94.33,55.1c-2.1,2.16-4.86,2.34-6,5.08s-.24,7.95,0,10.86c.17,1.9-.23,3.3.7,4.7a37.15,37.15,0,0,1,2.39,3.58c1,2.05,7.86-.5,9.29-1,1.19-.39.65-2.16,1.82-2.61s1.92.31,2.62.14c2.68-.61,5.73-5.16,6.32-7.74.76-3.28-1.88-7.51-3.6-10.19-.91-1.42-1-3.81-2.06-4.92a19.43,19.43,0,0,0-4.33-2.64l.09.28.19,0c.53.16,0,.23,0,.54l-.17-.5C98.26,51.31,96.69,52.69,94.33,55.1Z"/><path class="cls-2" d="M91.43,79.45c1,2,7.86-.5,9.29-1,1.19-.39.65-2.16,1.82-2.61s1.92.31,2.62.15c2.68-.62,5.73-5.16,6.32-7.75.76-3.28-1.88-7.51-3.6-10.19a19.35,19.35,0,0,1-1.32-3.57c-2.15,3.82-2.36,9-10,8.32-3-.25-5.86,1.71-8.83,1.58,0,2.4.43,5,.58,6.76s-.23,3.31.7,4.7A37.15,37.15,0,0,1,91.43,79.45Z"/><path class="cls-3" d="M91.88,56.89c-1.45.84-2.83,1.55-3.55,3.29-1.16,2.8-.24,7.95,0,10.86.17,1.9-.23,3.3.7,4.7a37.15,37.15,0,0,1,2.39,3.58c1,2.05,7.86-.5,9.29-1,1.19-.39.65-2.16,1.82-2.61s1.92.31,2.62.14c2.68-.61,5.73-5.16,6.32-7.74a6.32,6.32,0,0,0,0-2.7c-1.35,2.42-3.4,6.53-5.65,6.32-6.49-.6-9.82,9.52-15-4.25-1-2.54-.51-5.42.64-8.22A12.17,12.17,0,0,1,91.88,56.89Z"/><path class="cls-3" d="M94.33,55.1c-2.1,2.16-4.86,2.34-6,5.08a12.82,12.82,0,0,0-.53,5.2,10.26,10.26,0,0,1,3.21-3c2.75-1.63,5.83-2.43,8.66-3.87A12.82,12.82,0,0,0,102,57l1.36-1.27a7.5,7.5,0,0,1,.43-.82,9,9,0,0,1,.38-3c-1-.59-2.08-1.15-2.71-1.45l.09.28C98.26,51.31,96.69,52.69,94.33,55.1Z"/><path class="cls-4" d="M92.21,59.26a17.53,17.53,0,0,1,6.31-7.45,16.26,16.26,0,0,0-4.19,3.42c-2.1,2.16-4.86,2.34-6,5.08-.24.59-.38.34-.46,1.09-.36,3,.27,7.47.47,9.77.17,1.9-.23,3.31.7,4.7a37.15,37.15,0,0,1,2.39,3.58c1,2,7.86-.5,9.29-1,1.19-.39.65-2.16,1.82-2.61s1.92.31,2.62.15c2.68-.62,5.73-5.16,6.32-7.75a6.58,6.58,0,0,0-.09-3,17.23,17.23,0,0,1-1.4,4,8.88,8.88,0,0,1-7.84,5.3c-.1.07-.2.11-.3.17a7.08,7.08,0,0,1-5.62,2.82c-3.31,0-6.8-2-6.79-5.17,0-5.1-1.8-7.81-1.4-11.18C88.16,60.14,91.52,60.07,92.21,59.26Z"/><path class="cls-3" d="M105,57.89a7.37,7.37,0,0,1-3.61,4.3c-2,.93-5.84,0-7.83,1a22,22,0,0,1,4.64-.29c1.31.07,2.22-.13,3.55-.05.19,2,1,5.16,1,7.24.34-.67,0-2.07-.1-2.9a27.07,27.07,0,0,1,0-3.37C102.74,62,104.56,60.18,105,57.89Z"/><path class="cls-1" d="M41.76,63c-3.74-.8-7.62-1.41-11.32-2.3-1.49-.36-4-1.26-5.57-.7-2.05.74-1.6,2.63-1.88,4.41s-.68,3.42-.94,5.16.15,4.08-.7,5.63c-2,3.31-.69,6.28,3.57,6.51,3.76.21,6.67,1.75,10.27,1.93,3.08.17,8.43,1.56,9.85-1.64,1.59-3.57-.92-7.38-.7-11C44.6,66.64,47.71,64.31,41.76,63Z"/><path class="cls-2" d="M20.64,76.94c-.68,2.56.77,4.62,4.28,4.81,3.76.21,6.67,1.75,10.27,1.93,3.08.17,8.43,1.56,9.85-1.64,1.59-3.57-.92-7.38-.7-11,.2-3.38,2.1-5.54.18-6.93l-.13.18c-4.11,5.2-8.6,3.33-12.64.85l-5-.86-2.9-2.2c-1.64.75.77,8.63.08,10.81A6.77,6.77,0,0,1,20.64,76.94Z"/><path class="cls-3" d="M31.73,65.11l-5-.86,0,0-.07.09c-.4,2.81-.89,5.63-1.42,8.44.42-1.32,1.27-6.34,2.27-7.49s4.27.44,7.38,2c1.95.68,4.35.77,5.38.07C37.58,68.1,34.46,66.78,31.73,65.11Z"/><path class="cls-3" d="M23.71,66.87c-1,.23-2.25,10.78-3.21,10.63-.33,2.3,1.17,4.08,4.42,4.25,3.76.21,6.67,1.75,10.27,1.93,3.08.17,8.43,1.56,9.85-1.64,1.59-3.57-.92-7.38-.7-11,.26-4.37,3.37-6.7-2.58-8-3.74-.8-7.62-1.41-11.32-2.3-1.49-.36-4-1.26-5.57-.7s-1.65,1.65-1.74,2.89a20.2,20.2,0,0,1,12,1.9c2.76.36,9-.27,7.76,2.41-1.84,3.92-.11,7-.35,8.76-.58,4.24-3.78,6.42-12,3.17C19.3,80,26.13,76.09,23.71,66.87Z"/><path class="cls-4" d="M20.5,77.51c-.33,2.3,1.18,4.07,4.42,4.24,3.76.21,6.67,1.75,10.27,1.93,3.08.17,8.43,1.56,9.85-1.64,1.59-3.57-.92-7.38-.7-11,.19-3.24,2-5.37.4-6.76a9.42,9.42,0,0,1-.45,4.37c-.43,1.22-1,.16-1.6,1.31.14.44,1.4,4.69,1.41,4.72,1.44,5.45-1.52,11.5-11.06,6.7-.28,0-.55,0-.83,0a26.37,26.37,0,0,1-2.81.08c-2.46-.17-7.15-.64-6.38-6.63C23.14,73.8,21.05,78.27,20.5,77.51Z"/><path class="cls-5" d="M20.5,77.51a3.29,3.29,0,0,0,1.4,3.35c.24-.9.5-1.79.77-2.71.13-.38.23-.77.33-1.16a8.1,8.1,0,0,1,0-2.2C23.14,73.8,21,78.27,20.5,77.51Z"/><path class="cls-1" d="M9.86,51l.17-.5-.19,0C9.32,50.65,9.84,50.72,9.86,51Z"/><path class="cls-1" d="M5.79,52.89c-1,1.11-1.14,3.49-2.06,4.92C2,60.49-.62,64.72.13,68c.59,2.59,3.65,7.13,6.32,7.74.71.17,1.42-.6,2.62-.14s.63,2.22,1.83,2.61c1.42.46,8.25,3,9.29,1a35.26,35.26,0,0,1,2.38-3.58c.94-1.39.54-2.8.71-4.7.25-2.91,1.16-8.06,0-10.86s-3.9-2.92-6-5.08c-2.35-2.41-3.93-3.79-7.25-4.43l-.17.5c0-.31-.54-.38,0-.54l.19,0,.09-.28A19.28,19.28,0,0,0,5.79,52.89Z"/><path class="cls-2" d="M5.05,54.37a18.66,18.66,0,0,1-1.32,3.57C2,60.62-.62,64.85.13,68.13c.59,2.59,3.65,7.14,6.32,7.75.71.16,1.42-.61,2.62-.15S9.7,78,10.9,78.34c1.42.47,8.25,3,9.29,1a35.26,35.26,0,0,1,2.38-3.58c.94-1.39.54-2.8.71-4.7s.54-4.36.57-6.76c-3,.13-5.8-1.83-8.83-1.58C7.42,63.33,7.21,58.19,5.05,54.37Z"/><path class="cls-3" d="M5.82,71.62c-2.26.2-4.31-3.9-5.66-6.32a6.48,6.48,0,0,0,0,2.7c.59,2.59,3.65,7.13,6.32,7.74.71.17,1.42-.6,2.62-.14s.63,2.22,1.83,2.61c1.42.46,8.25,3,9.29,1a35.26,35.26,0,0,1,2.38-3.58c.94-1.39.54-2.8.71-4.7.25-2.91,1.16-8.06,0-10.86-.72-1.74-2.1-2.45-3.55-3.29a12.17,12.17,0,0,1,.49,2.4c1.15,2.8,1.61,5.68.64,8.22C15.64,81.14,12.3,71,5.82,71.62Z"/><path class="cls-3" d="M7.42,51.7a9,9,0,0,1,.37,3,5.8,5.8,0,0,1,.44.82l1.35,1.27a13.35,13.35,0,0,0,2.36,1.55c2.83,1.44,5.91,2.24,8.67,3.87a10.11,10.11,0,0,1,3.2,3,12.65,12.65,0,0,0-.53-5.2c-1.13-2.74-3.9-2.92-6-5.08-2.35-2.41-3.93-3.79-7.25-4.43l.09-.28A28.64,28.64,0,0,0,7.42,51.7Z"/><path class="cls-4" d="M15.39,77.48a7.1,7.1,0,0,1-5.63-2.82c-.09-.06-.2-.1-.29-.17a8.88,8.88,0,0,1-7.85-5.3,18.21,18.21,0,0,1-1.4-4,6.88,6.88,0,0,0-.09,2.95c.59,2.59,3.65,7.14,6.32,7.75.71.16,1.42-.61,2.62-.15S9.7,78,10.9,78.34c1.42.47,8.25,3,9.29,1a35.26,35.26,0,0,1,2.38-3.58c.94-1.39.54-2.8.71-4.7.19-2.29.82-6.78.47-9.77-.09-.75-.22-.5-.47-1.09-1.13-2.74-3.9-2.92-6-5.07a16.08,16.08,0,0,0-4.18-3.43,17.58,17.58,0,0,1,6.3,7.45c.7.81,4.05.88,4.18,2,.39,3.37-1.42,6.08-1.41,11.18C22.18,75.48,18.69,77.48,15.39,77.48Z"/><path class="cls-3" d="M8.86,69.93c0-2.08.81-5.2,1-7.24,1.33-.08,2.23.12,3.54.05a21.59,21.59,0,0,1,4.65.3c-2-1-5.79-.06-7.84-1-1.81-.82-2.8-2.38-3.6-4.3C7.05,60,8.87,61.82,9,63.67A25.12,25.12,0,0,1,9,67C8.89,67.86,8.53,69.26,8.86,69.93Z"/><path class="cls-1" d="M44.68,67.06c-.39,3-1.1,6-.88,9.12.19,2.55,1.14,4.2,1.21,6.68-.33,2.17,4.93.85,6.18,1.06,2.4.42,4.31,1.16,6.67.56,1.94-.48,5.29.89,6.9-.52,2-1.8,2-4.26,2.25-7.21.31-3.45.87-6.82.28-10.25-.56-3.21-3.31-3.35-5.89-3.34-4,0-7.92-.18-11.9-.18-1.16,0-2.76-.28-3.74.48S44.86,65.65,44.68,67.06Z"/><path class="cls-2" d="M58.26,70.71c-2.53.7-5.06.28-7.56-.23s-3.82-2.31-6.23-2a34.66,34.66,0,0,0-.67,7.69c.19,2.55,1.14,4.2,1.21,6.69-.33,2.16,4.93.84,6.18,1.06,2.4.41,4.31,1.15,6.67.56,1.94-.49,5.29.89,6.9-.52,2-1.8,2-4.26,2.25-7.21.15-1.75.38-3.48.48-5.2-1.46-1.43-3.59-2.9-5.22-2.83C62.58,68.92,58.85,70.55,58.26,70.71Z"/><path class="cls-3" d="M58.66,83.69c-1.12,0-3,.22-4.06-.32-.51,0-1.68-.94-2.19-1a7,7,0,0,1-3.94-.48,7,7,0,0,1-3.24-8c.05-.1-.39-4.15,2.32-6.44,2-1.65,0-2.35,1.61-4.23,0-.09.08-.18.12-.28-1.14,0-2.6-.22-3.52.49s-.9,2.19-1.08,3.6c-.39,3-1.1,6-.88,9.12.19,2.55,1.14,4.2,1.21,6.68-.33,2.17,4.93.85,6.18,1.06,2.4.42,4.31,1.16,6.67.56,1.94-.48,5.29.89,6.9-.52,2-1.8,2-4.26,2.25-7.21.31-3.45.87-6.82.28-10.25A3.48,3.48,0,0,0,65,63.59c0,.12.09.22.12.34.34,1.21-.44,2.55-.8,3.82A3,3,0,0,1,66,70.48a27.55,27.55,0,0,1-.49,3.24c.12.58.22,1.18.29,1.79a8.63,8.63,0,0,1-1.1,4.69C63.73,82.39,61,83.69,58.66,83.69Z"/><path class="cls-3" d="M44.68,67.06c-.17,1.28-.39,2.57-.58,3.86,3.15-5.72,9-4.39,15-4.34a13.54,13.54,0,0,1,8.4,3.18,19.89,19.89,0,0,0-.25-3.26c-.56-3.21-3.31-3.35-5.89-3.34-4,0-7.92-.18-11.9-.18-1.16,0-2.76-.28-3.74.48S44.86,65.65,44.68,67.06Z"/><path class="cls-4" d="M59.69,84c-.83-.14-3.4.49-4.27.16-.74,0-2-1.16-2.78-1.23-2.65.23-3.85.87-5.83-1.12a6.94,6.94,0,0,1-2-5.64,8.24,8.24,0,0,1-.16-5.43l.18-.5a8.49,8.49,0,0,1,0-1,9.46,9.46,0,0,1,.58-2.89c.24-.61.41-1,.53-1.33a8.58,8.58,0,0,1,.84-2,2.41,2.41,0,0,0-1,.44c-1.06.83-.9,2.19-1.08,3.6-.39,3-1.1,6-.88,9.11A52.86,52.86,0,0,0,45,82.86c-.33,2.16,4.93.85,6.18,1.06,2.4.42,4.31,1.16,6.67.56,1.94-.48,5.29.89,6.9-.52,2-1.8,2-4.26,2.25-7.21.31-3.45.87-6.82.28-10.25a3.56,3.56,0,0,0-3.06-3.13,7.14,7.14,0,0,1,1.49,1.84,9,9,0,0,1,1.14,4.11,14.39,14.39,0,0,1-.35,3.53c0-.08,0-.17,0-.26A8.6,8.6,0,0,1,66.16,74a8.61,8.61,0,0,1-1,6.53C63.78,82.61,63.19,84.58,59.69,84Z"/><path class="cls-5" d="M24.87,60c-1.47.52-1.65,1.65-1.74,2.89a4.76,4.76,0,0,1,.66-.09s.54-1.2,6.68-2.09h0C29,60.38,26.44,59.48,24.87,60Z"/><path class="cls-1" d="M55.72,65.27c25.85,0,46.81-6.29,46.81-14s-21-14.06-46.81-14.06S8.91,43.45,8.91,51.22,29.87,65.27,55.72,65.27Z"/><path class="cls-6" d="M8.84,51.22c0,7.76,21,14,46.81,14s46.81-6.29,46.81-14c0,0-2.07,13.72-48.2,13.39-25.48-.18-36.86-5.33-41.92-8.86-4.73-3.31-2.49-7.44-2.49-7.44A5,5,0,0,0,8.84,51.22Z"/><path class="cls-4" d="M55.72,60C79.09,60,98,55.38,98,49.63S79.09,39.22,55.72,39.22,13.41,43.88,13.41,49.63,32.36,60,55.72,60Z"/><path class="cls-7" d="M55.42,60c21.65,0,39.21-3.95,39.21-8.82s-17.56-8.83-39.21-8.83-39.21,4-39.21,8.83S33.77,60,55.42,60Z"/><path class="cls-3" d="M58.26,70.71a14.44,14.44,0,0,1-6.54,0c.05.37,3.58.61,4.79.8.33.69-.07,1.79-.07,2.49.34-.65.23-1.8.86-2.51,3.32-1,3,.67,3,.67,0,.66.41,8.05.08,10.07.78-2.07.15-12.36,2.34-13,.59-.15,2.72,1,3.39,2.49.08-.37.18-.74.28-1.11a7,7,0,0,0-4.09-1.84C62.58,68.92,58.85,70.55,58.26,70.71Z"/><path class="cls-3" d="M86.46,73.23c0-3-1.13-5.89-1.54-8.84-.35.08-1.25.11-1.4.41l-.11-.06c.23.14.51.85.7,1.17a21.74,21.74,0,0,1,1.11,2.8A30.85,30.85,0,0,1,86.46,73.23Z"/><path class="cls-1" d="M84.7,75.42a3.88,3.88,0,0,1-1.29.23c-1,.09-1.93-.18-2.93-.11,1.29.42,3-.07,4.32.47a12.41,12.41,0,0,1-1,2.52A36.13,36.13,0,0,0,85.86,74c.68-1.61-.54-3.07-.64-4.76l-.06-.11a1.87,1.87,0,0,0-.07.22,5.58,5.58,0,0,0,.47,2.55,2.76,2.76,0,0,1-.22,2.44C85.16,74.76,85.08,75.18,84.7,75.42Z"/><path class="cls-1" d="M30.79,76.75a4.46,4.46,0,0,0,.72-.18A2,2,0,0,0,30.79,76.75Z"/><path class="cls-1" d="M30.79,76.75l-.65.13.12.12A4,4,0,0,1,30.79,76.75Z"/><path class="cls-1" d="M33,75.71c.4-1.27,1-1.47,2.23-2.11a2.35,2.35,0,0,1,3,.08,25.56,25.56,0,0,0,3,1.18,15.47,15.47,0,0,1-4.22-2.44,10.49,10.49,0,0,1,2.89-1.77c-1.25.62-2.67,1.2-3.94,1.89-1.07.59-2.27,1.75-3.38,2.09-.29-.37-.78-.53-1-1,.21.53,1,1.86.72,2.43a1.14,1.14,0,0,1-.75.51c.86,0,.7,1.23.39,2.49A12.6,12.6,0,0,0,33,75.71Z"/><path class="cls-3" d="M33.87,74.42c-1.23.9-1.23,2.81-1.64,4.25.73-1.24.64-2.83,1.83-3.88,1.39-1.23,3-.85,4.62-.9-1,0-1.63-.66-2.61-.44A7.73,7.73,0,0,0,33.87,74.42Z"/><path class="cls-3" d="M32.23,78.67l0,.06-.18.53A5.89,5.89,0,0,0,32.23,78.67Z"/><path class="cls-1" d="M9.4,72H9.24a7.34,7.34,0,0,1,2.73,1,23.81,23.81,0,0,0,2.64,1.52c1.27.37,1.44-.87,1.83-1.76a18.41,18.41,0,0,1,2.41-3.52c-.82.36-1.7,1.63-2.29,2.33s-1,2.79-2,2.45c-1.28-.42-.9-2.34-1.06-3.28-.22-1.36-.54-2.68-.88-4a12.73,12.73,0,0,0-1.37-3.17,35.25,35.25,0,0,0,1,4.32c.16.73.14,1.46.26,2.22a11.6,11.6,0,0,1,.39,2.32C12,72.27,10.14,71.72,9.4,72Z"/><path class="cls-1" d="M96.29,63.55c-1.09.67-1.36,2.9-1.43,4a7.92,7.92,0,0,1-.46,2.14c-.22.68-.17,1.45-.39,2.14-.94-.11-2-2.56-2.51-3.33a8.46,8.46,0,0,1-.75-1.89,7.8,7.8,0,0,1-.5-2.08c-.13,1.94,1,4.11,1.9,5.74.71,1.25,1.9,4.07,3.51,4.28a7.79,7.79,0,0,0,3.46-.77,12.65,12.65,0,0,0,1.33-.87c.46-.31,1-.44,1.43-.74a7.52,7.52,0,0,0-3.07.95c-.93.38-1.62,1.09-2.64.8s-1.65-.72-1.7-1.76A14,14,0,0,1,95,68.32C95.43,66.67,95.83,65.13,96.29,63.55Z"/><path class="cls-1" d="M48.77,81.9a6.17,6.17,0,0,0,3.84.17l-.17-.17c-.87-1.38-1.18-3.6-1.5-5.2s-.4-3.2-.7-4.72v3.58c0,1.09.64,2.19.51,3.15a3.86,3.86,0,0,0-1.74.61,9.13,9.13,0,0,1,1.82,0c.24.77.63,1.38-.06,1.94C50.26,81.63,49.35,81.63,48.77,81.9Z"/><path class="cls-8" d="M63.09,68.48c-1.8-.62-4.7,1.29-6.64,1.48-2.64.27-5.66-.89-8.09-1.38C51,70.71,55.1,71,57.82,70.34,59.74,69.87,61.24,68.81,63.09,68.48Z"/><path class="cls-8" d="M8,57.8A12.28,12.28,0,0,0,5.72,55v.06A11.84,11.84,0,0,0,7.28,58c.51.82.84,1.72,1.45,2.52,1.24,1.63,3.89,1.15,5.77,1.25a22.14,22.14,0,0,1,3.94.85c-1.77-1.54-4.2-1-6.35-1.24S8.86,59.53,8,57.8Z"/><path class="cls-8" d="M25.75,63.07h-.07a3.61,3.61,0,0,0,.77.79,3.36,3.36,0,0,0,1.18.18c.86.14,1.73.31,2.54.51a15.67,15.67,0,0,1,2.23.52,17.82,17.82,0,0,1,1.86,1.14c-.91-1.35-2.38-1.66-3.9-2S27.27,63.31,25.75,63.07Z"/><path class="cls-8" d="M72.26,67.29a9,9,0,0,0,2.8-.25,5.78,5.78,0,0,0,2.61-1,5.07,5.07,0,0,1,2.73-1.12c1.19-.07,2.94-.79,4.14-.77-.85-.54-3,.47-4,.51a6.6,6.6,0,0,0-3.24,1,7.51,7.51,0,0,1-3,1.18A21.51,21.51,0,0,1,71,66.52c-.27,0-.64,0-.78-.26s-1.06,0-.81,0l.09.06C70.47,66.54,71.29,67.13,72.26,67.29Z"/><path class="cls-8" d="M100.13,62.1a3,3,0,0,0,2.45-1.35,15.55,15.55,0,0,0,1.33-1.59,18,18,0,0,1-2.38,1.89c-.47.37-.48.45-1,.46-.77,0-5.19.21-5.69.24a13.19,13.19,0,0,0-4.05,1l-.06,0A4.7,4.7,0,0,0,90.39,64c.83-.18,2-1,2.93-1.16a22.68,22.68,0,0,1,3.17-.61C97.88,62.13,98.71,62.1,100.13,62.1Z"/><path class="cls-9" d="M57.83,58.83c-.36.72,1.54,1,2.11,1.15,19.52-.51,34.69-4.24,34.69-8.76,0-4.88-17.56-8.83-39.21-8.83s-39.21,4-39.21,8.83c0,4.37,14.14,8,32.69,8.69,0-.12,1.2-.42.84-1.08s-2.68-.27-3.14-.94,1.92-.32,2.17-.56A13.37,13.37,0,0,1,43,54.9c-1.13-1-2.77-2.72-.86-3.68,3.78-1.24,8.16-.28,12.46-.07,3.51.17,7.05-.09,10.57,0,1.78.06,3.26-.48,4.28,1.2-.44,3.72-8,4.31-8.57,4.87s2.93-.17,2.26.63C62.62,58.45,58.19,58.12,57.83,58.83Z"/><path class="cls-1" d="M55.42,56.44c7.71,0,14-2.29,14-5.12s-5.8-11.14-13.51-11.14S41.46,48.5,41.46,51.32,47.71,56.44,55.42,56.44Z"/><path class="cls-2" d="M63.35,55.53c.4-.1.78-.21,1.15-.33l.29-.09.83-.3.3-.12c.26-.11.51-.23.75-.35l.21-.1a9.1,9.1,0,0,0,.83-.49h0a6.77,6.77,0,0,0,.64-.5c.06-.05.1-.11.15-.16a4.1,4.1,0,0,0,.35-.39L69,52.5a3.84,3.84,0,0,0,.21-.4l.07-.18a2.05,2.05,0,0,0,.11-.6,3.38,3.38,0,0,0-.12-.76l-.06-.2a6.25,6.25,0,0,0-.3-.85l0-.08c-1.56-3.56-6.61-9.25-13-9.25-5,0-9.58,3.52-12.18,6.75h0a15.07,15.07,0,0,0-1.63,2.46l0,.06a8.76,8.76,0,0,0-.38.89l-.06.2a3.15,3.15,0,0,0-.14.78,2,2,0,0,0,.1.59c0,.06,0,.11.07.17a2.14,2.14,0,0,0,.2.4l.13.18a4,4,0,0,0,.34.39l.14.15a6.86,6.86,0,0,0,.56.45l.06.05a10.5,10.5,0,0,0,1.81,1h0c.34.14.7.27,1.08.4l.07,0a30.75,30.75,0,0,0,9.37,1.33,32.51,32.51,0,0,0,7.87-.9h0Zm-.18-4.16c-4.76,2-10.6,2.63-15.32,0a10.06,10.06,0,0,1-2-1.49,12.16,12.16,0,0,1,4.25-7.51c.67-.54,1.51,1.94,5.34,2.06,3,.1,5.69-.93,7.67.56.79.89,1.69,1.6,1.93,2.76A10.39,10.39,0,0,1,65.25,50,7.65,7.65,0,0,1,63.17,51.37Z"/><path class="cls-3" d="M58.3,54.77a17.13,17.13,0,0,1-6.22-.16c-3-.62-7-1.81-8.43-4.9A11.44,11.44,0,0,1,43,47.85a7.26,7.26,0,0,0-1.54,3.47c0,2.83,6.25,5.12,14,5.12s14-2.29,14-5.12c0-1.73-2.21-5.56-5.71-8.24.76,1.67,2.78,4.47,2.37,6.68C65.54,52.45,61.1,54.38,58.3,54.77Z"/><path class="cls-4" d="M58.65,55.53c-5.49.88-13.21-.42-17-5.07a3.1,3.1,0,0,0-.17.86c0,2.83,6.25,5.12,14,5.12s14-2.29,14-5.12c0-1.57-1.81-4.84-4.73-7.44C65,44.72,73.24,53.17,58.65,55.53Z"/><path class="cls-1" d="M55.42,43.65c3.22,0,5.82-3.11,5.82-6.94s-2.41-15.13-5.63-15.13-6,11.29-6,15.13S52.2,43.65,55.42,43.65Z"/><path class="cls-2" d="M58.73,42.41a5,5,0,0,0,.48-.44l.12-.13c.12-.13.24-.27.35-.41l.12-.16c.11-.15.22-.31.32-.47l.08-.14a6.88,6.88,0,0,0,.35-.66h0a7.07,7.07,0,0,0,.27-.69l.06-.21a5.26,5.26,0,0,0,.15-.53,2.38,2.38,0,0,0,0-.26,4.85,4.85,0,0,0,.09-.55l0-.24a7,7,0,0,0,0-.8c0-.3,0-.66,0-1l0-.27c0-.36-.07-.75-.12-1.16,0,0,0-.07,0-.1-.65-4.84-2.76-12.56-5.42-12.56-2.1,0-4,4.77-5.08,9.16h0c-.3,1.17-.53,2.31-.69,3.34a.17.17,0,0,1,0,.07c-.06.43-.11.84-.15,1.21l0,.28c0,.39-.06.75-.06,1.06s0,.53,0,.79l0,.23a4.85,4.85,0,0,0,.09.55,2,2,0,0,0,0,.24c0,.18.09.36.14.53l.06.2a6.44,6.44,0,0,0,.24.61.14.14,0,0,0,0,.07A6.79,6.79,0,0,0,51,41.24v0c.14.19.29.37.45.55l0,0a5.31,5.31,0,0,0,3.91,1.81,5.12,5.12,0,0,0,3.28-1.22h0Zm-.07-5.64c-2,2.73-4.43,3.57-6.4,0a11.16,11.16,0,0,1-.84-2c-.86-3.32.26-6.25,1.41-9.26.29-.74,1,.58,2.59.74,1.27.13,2.6-.47,3.42,1.55a20.17,20.17,0,0,1,.59,4.07c.07,1.05.09,2.07.09,3.08A7,7,0,0,1,58.66,36.77Z"/><path class="cls-4" d="M57,25.51c1.41.56,1.83.65,2.59,2.1-1-3.26-2.4-6-4-6-1,0-2,1.17-2.9,2.89a4,4,0,0,0,1.74.65A9.85,9.85,0,0,1,57,25.51Z"/><path class="cls-3" d="M57,41.18c-2.29,1.2-5.74.67-7.33-5.65,0,.44-.07.85-.07,1.18,0,3.83,2.61,6.94,5.83,6.94s5.82-3.11,5.82-6.94a37.56,37.56,0,0,0-2-10.11C59.42,27.74,63.08,38,57,41.18Z"/><path class="cls-7" d="M25.41,53.76c0,.22.2.39.57.52a16.61,16.61,0,0,1,8.74,1.13h.34a1.22,1.22,0,0,0,0-.27c-.08-.89-2.67-1-3.87-2,.6-.89,2.53-.57,2.45-1.41S25,50.86,27.86,49a37.44,37.44,0,0,0-4,.5.56.56,0,0,0-.15.38c.1,1,6.17.33,6,2.14S25.49,52.53,25.41,53.76Z"/><path class="cls-10" d="M73.2,57.37c1.06.05,2.12.15,3.17.29,3.15.11,6.26-.82,6-1.28s-2.41-.31-2.56-.8,6.73-.82,6.58-1.57-5.29-.33-6.17-1.31c.43-.46,1.56-.53,1.66-.8.32-.57-2.46-.67-4-.85l-1.21.15c1.26.23,3.42.5,2.4,1.06-.53.29-2-.06-2,.6s6.08,1,4.47,1.57-5.53.19-5.16.8,2.48.52,3.41,1.31c-.94,1-5,.51-6.43.79Z"/><path class="cls-8" d="M48.4,48h-.09c-1.2,2.08,2.23,3.18,3.52,3.66a11.33,11.33,0,0,0,3,.91c.71.07,2.16.52,2.8,0,1.64-1.29-2.36-1.67-3-1.7-1.29-.06-3.31,0-4.08-1.32C50.09,48.75,49.78,46,48.4,48Z"/><path class="cls-11" d="M43.39,26.58c1.1-2.61,4.34-4.39,2.38-4.86-1.26-.31-3.62,5.58-4.32,6.11-1.07-3.76,1.45-12.58.47-15.52-1.61,1.1-2.24,8.56-2.69,10.26-.24.88-.9.8-1.12,1.63s-.52,3-1.14,3.45c-.6-.58-1-1.59-1.8-1.94a.66.66,0,0,0-.24.28c-.21.39.4,1.29.49,1.67.17.65.64,2.7.84,3.36.41,1.41.06,1.42.34,2.84.61,3,1.79,6,2,9.17l.08.34a6.93,6.93,0,0,0,1.61-.2c.46-.22.5-1,.6-1.5.22-1.12.42-2.33.67-3.48a24.42,24.42,0,0,1,1.09-3.33,16.39,16.39,0,0,0,1.19-3.54c-.3.3-.3.73-.5,1.1-1,1.87-1.19-.47-1-1.44A24.16,24.16,0,0,1,43.39,26.58Z"/><path class="cls-7" d="M42.59,35.58a16.66,16.66,0,0,1,2.32-5.32c.72-1,4.09-2,3-3.51-1.49-.95-2.38.7-3.37,2.19s-2.27,6.32-4.05,12.68c-.82,2.94.9-9.74,1.19-11.17,1.75-8.63,7.11-11.78,4.08-13-1.93-.75-3.35,3.79-4.78,10.79-.37,1.81-.6,14.17-1.78,13.85-.42-1.34-.33-12-.42-13.44A105,105,0,0,1,39,17.89c0-.74.61-4.62.21-4.89-1.71-1.12-1.4,2.13-1.48,2.91a61.45,61.45,0,0,0,.09,10.42c.15,1.72.14,3.27.33,5,.17,1.49.54,5.93.48,7.44-1.3-6.14-2.89-25-4.88-23.14-1.08,1,2.4,10.94,2.82,13.19.26,1.4,1.81,8.34,1.25,9.33-.44-.91-.67-3-1.39-3.14.32,2.51,1.89,5.9,1.51,8.22.44,2,2,1.29,2.58,1,.87-.46.38-.67.48-2.07C41.19,38.74,42.1,37.43,42.59,35.58Z"/><path class="cls-10" d="M31.93,29.63c-.74,1.82,2.75,1.84,3.83,4.36a32.79,32.79,0,0,1,2.35,7.19V41a35.69,35.69,0,0,0-1.82-8.62C35.23,28.93,32.65,27.91,31.93,29.63Z"/><path class="cls-10" d="M31.24,22.63c-.64,3,2.94,2.64,4.64,6a26.65,26.65,0,0,1,2.61,7.2A37.11,37.11,0,0,0,35.68,24.2C34.18,21,31.83,19.82,31.24,22.63Z"/><path class="cls-10" d="M38.69,39.25l0-.06Z"/><path class="cls-10" d="M41.86,24.9a26.6,26.6,0,0,0-1.38,11.54l.06.23a36.4,36.4,0,0,1,2.06-9.51c1.73-4.41,6.4-4.76,4.4-6.62S42.52,23.06,41.86,24.9Z"/><path class="cls-10" d="M44.23,6.65c-3.43-3.08-4.14,7-4.62,11.48a66.65,66.65,0,0,0,.16,17.81l0,.39c-.74-4.66.31-11.14,1-15C42.64,11.75,47.31,9.43,44.23,6.65Z"/><path class="cls-2" d="M37.92,43.14c-.4,0-1.12.9-1.3,1.32-.31.7.25.9.77,1.13,1.17.5,4.18.53,5.08-.33C43,44.79,41.6,43,41,43.13A4.35,4.35,0,0,1,37.92,43.14Z"/><path class="cls-4" d="M39.19,45.37c-2-.09-2.57-.91-2.57-.91-.31.7.25.9.77,1.13,1.17.5,4.18.53,5.08-.33C43,44.79,41.6,43,41,43.13,41,43.13,42.47,45.26,39.19,45.37Z"/><path class="cls-7" d="M38.26,47.81l.91,0c1.36-.31,3.39-.07,3.71-1.83-1.84.8-4.69,1.41-6.38-.09C36.56,46.93,37.49,47.38,38.26,47.81Z"/><path class="cls-12" d="M36.37,26.62s-.06,0-.08,0a.78.78,0,0,0,0,.14Z"/><path class="cls-12" d="M32.52,21.62c-1.3-.41-.78,1.51.06,2a10.25,10.25,0,0,1,2.65,1.81c.3.32.74,1,1.06,1.14a7.28,7.28,0,0,0-1.49-2.82A4.51,4.51,0,0,0,32.52,21.62Z"/><path class="cls-12" d="M39.76,21.42a1.59,1.59,0,0,1-.07.2l.06.1C39.75,21.62,39.76,21.52,39.76,21.42Z"/><path class="cls-12" d="M41.47,10.18a61,61,0,0,0-1.71,11.24c.57-1.53.86-3.39,1.44-5,.78-2.14,1.8-4,2.44-6.37.32-1.18.94-3.55-.34-3.39C42.35,6.81,41.76,8.82,41.47,10.18Z"/><path class="cls-10" d="M35.91,23.73l.06-.19c-.39-1.93-.57-5.71-1.84-6.83C33.31,17.57,35.63,22.59,35.91,23.73Z"/><path class="cls-10" d="M38.6,17a17.23,17.23,0,0,0,.28-3.28c-1.12.42-1,4.37-1,5.85,0,2.4.22,4.71.23,7.12v.18a11.68,11.68,0,0,0,.11-3.26c0-1.12,0-2.17.12-3.27S38.49,18.14,38.6,17Z"/><path class="cls-12" d="M32.88,30c-.16.87,2.31,1.22,2.57,1.91C34.92,30.79,33.11,28.71,32.88,30Z"/><path class="cls-11" d="M74.43,12.7c-1.61,1.11-2.24,8.56-2.69,10.27-.23.87-.9.8-1.11,1.63-.18.68-.53,3-1.15,3.45-.59-.59-1-1.6-1.8-1.95a.72.72,0,0,0-.24.28c-.21.4.4,1.29.5,1.67.16.65.64,2.7.83,3.37.41,1.4.06,1.41.35,2.83.61,3,1.78,6,2,9.17l.08.34a7.55,7.55,0,0,0,1.62-.19c.45-.23.49-1,.59-1.51.22-1.12.43-2.33.68-3.48a24.69,24.69,0,0,1,1.08-3.32,16,16,0,0,0,1.19-3.54c-.3.29-.29.73-.49,1.09-1,1.87-1.2-.46-1-1.43a24.07,24.07,0,0,1,1-4.41c1.09-2.61,4.34-4.38,2.38-4.86C77,21.8,74.66,27.7,74,28.23,72.89,24.46,75.42,15.65,74.43,12.7Z"/><path class="cls-7" d="M66.22,16c-1.08,1,2.41,11,2.83,13.2.26,1.39,1.81,8.33,1.24,9.32-.44-.91-.67-3-1.39-3.14.32,2.51,1.9,5.9,1.51,8.23.45,2,2,1.28,2.59,1,.86-.46.38-.68.47-2.07.24-3.41,1.14-4.73,1.64-6.58a16.44,16.44,0,0,1,2.32-5.32c.71-1,4.08-2,2.94-3.5-1.49-1-2.38.7-3.36,2.18S74.74,35.65,73,42c-.82,2.94.9-9.74,1.19-11.17,1.76-8.63,7.12-11.78,4.08-12.95-1.92-.75-3.34,3.79-4.78,10.79-.37,1.8-.6,14.17-1.77,13.84-.43-1.33-.34-12-.43-13.44a107.89,107.89,0,0,1,.23-10.8c0-.74.61-4.62.21-4.88-1.71-1.13-1.4,2.12-1.47,2.91a59.46,59.46,0,0,0,.09,10.42c.14,1.72.14,3.26.33,5,.16,1.5.53,5.94.48,7.45C69.8,33,68.22,14.15,66.22,16Z"/><path class="cls-10" d="M68.27,34.38a32.44,32.44,0,0,1,2.36,7.19v-.19a35.78,35.78,0,0,0-1.83-8.62c-1-3.43-3.64-4.45-4.35-2.73S67.19,31.87,68.27,34.38Z"/><path class="cls-10" d="M68.39,29A26.6,26.6,0,0,1,71,36.21a36.63,36.63,0,0,0-2.81-11.62c-1.5-3.19-3.85-4.38-4.44-1.57C63.12,26,66.69,25.66,68.39,29Z"/><path class="cls-10" d="M71.2,39.65s0,0,0-.07S71.2,39.62,71.2,39.65Z"/><path class="cls-10" d="M75.11,27.55c1.73-4.41,6.4-4.75,4.41-6.61S75,23.45,74.37,25.29A26.62,26.62,0,0,0,73,36.83l.07.23A36.51,36.51,0,0,1,75.11,27.55Z"/><path class="cls-10" d="M76.74,7.05c-3.43-3.09-4.14,7-4.61,11.47a66.62,66.62,0,0,0,.15,17.81l.06.39c-.74-4.65.3-11.14,1-15C75.15,12.14,79.83,9.82,76.74,7.05Z"/><path class="cls-2" d="M75,45.65c.5-.47-.88-2.31-1.52-2.12a4.37,4.37,0,0,1-3,0c-.4,0-1.12.91-1.31,1.33-.3.69.25.89.78,1.12C71.08,46.48,74.08,46.51,75,45.65Z"/><path class="cls-4" d="M71.71,45.76c-2-.09-2.58-.9-2.58-.9-.3.69.25.89.78,1.12,1.17.5,4.17.53,5.08-.33.5-.47-.88-2.31-1.52-2.12C73.47,43.53,75,45.65,71.71,45.76Z"/><path class="cls-7" d="M72.43,48.13c1.26-.17,2.7-.25,3-1.71-1.85.81-4.7,1.41-6.38-.08,0,.89.82,1.34,1.54,1.74C71.18,48.11,71.81,48.13,72.43,48.13Z"/><path class="cls-12" d="M68.8,27a.68.68,0,0,1,0,.14l.06-.1Z"/><path class="cls-12" d="M67.75,25.83c.3.32.73,1,1,1.14a7,7,0,0,0-1.49-2.82A4.48,4.48,0,0,0,65,22c-1.29-.4-.78,1.51.06,2A10.16,10.16,0,0,1,67.75,25.83Z"/><path class="cls-12" d="M72.21,22l.06.1v-.3Z"/><path class="cls-12" d="M75.81,7.09c-.94.11-1.53,2.12-1.82,3.48a60.19,60.19,0,0,0-1.72,11.24c.57-1.53.86-3.39,1.44-5,.79-2.14,1.8-4,2.44-6.37C76.48,9.29,77.09,6.93,75.81,7.09Z"/><path class="cls-10" d="M66.64,17.1c-.82.87,1.51,5.88,1.78,7l.06-.19C68.09,22,67.91,18.22,66.64,17.1Z"/><path class="cls-10" d="M71.12,17.42a18.09,18.09,0,0,0,.28-3.28c-1.12.42-1,4.37-1,5.85,0,2.41.23,4.71.23,7.12v.19A11.74,11.74,0,0,0,70.72,24c0-1.12,0-2.17.11-3.27S71,18.54,71.12,17.42Z"/><path class="cls-12" d="M68,32.3c-.52-1.12-2.33-3.2-2.57-1.9C65.23,31.27,67.7,31.61,68,32.3Z"/><path class="cls-7" d="M23.54,45.62a8.71,8.71,0,0,1,2.32-3.17c.72-.61,2.78-1.2,2.95-2.09a4.28,4.28,0,0,0-3.37,1.3c-1,.89-2.27,3.77-4.05,7.57-.83,1.75.9-5.81,1.19-6.67,1.75-5.15,6.23-5.64,4.08-7.73-1-1-3.35,2.26-4.78,6.44-.37,1.08-.6,8.45-1.78,8.26-.42-.79-.33-7.13-.42-8a38.58,38.58,0,0,1,.22-6.45c0-.44.47-2.66.22-2.91-.93-.92-1.4,1.27-1.48,1.74a21.2,21.2,0,0,0,.09,6.21c.15,1,.14,1.95.33,3a29,29,0,0,1,.48,4.44c-1.31-3.67-2.89-14.93-4.89-13.82-1.08.61,2.41,6.54,2.83,7.88.26.83,1.82,5,1.25,5.56-.45-.54-.67-1.76-1.39-1.87.32,1.5,1.89,3.52,1.51,4.91.44,1.19,2,.77,2.58.59.87-.27.38-.4.48-1.23C22.14,47.51,23.05,46.73,23.54,45.62Z"/><path class="cls-10" d="M12.88,42.07c-.75,1.09,2.75,1.1,3.83,2.61A14.65,14.65,0,0,1,19.06,49v-.11a14.55,14.55,0,0,0-1.82-5.14C16.18,41.66,13.59,41.05,12.88,42.07Z"/><path class="cls-10" d="M12.18,37.89c.58,2.19,3,1.58,4.65,3.57a12.79,12.79,0,0,1,2.61,4.3,15.28,15.28,0,0,0-2.82-6.93C15.13,36.92,11.61,35.71,12.18,37.89Z"/><path class="cls-10" d="M19.64,45.66s0,0,0-.06S19.63,45.64,19.64,45.66Z"/><path class="cls-10" d="M26.3,41.7a13.62,13.62,0,0,0-4.42,6.41v.15c.53-1.81,3.2-4,4.53-5.14,1.76-1.53,6-.32,6-3.1C32.42,38.41,27.43,40.75,26.3,41.7Z"/><path class="cls-10" d="M25.18,28.36c-2.26-2.59-4.14,4.18-4.62,6.85a23.94,23.94,0,0,0,.16,10.63l.05.23c-.74-2.78.31-6.65,1-9C23.59,31.4,27.09,30.56,25.18,28.36Z"/><path class="cls-2" d="M18.88,49.55c-.41,0-1.13.91-1.31,1.33-.31.69.25.89.77,1.12,1.17.5,4.18.53,5.08-.33.5-.47-.87-2.31-1.51-2.12A4.37,4.37,0,0,1,18.88,49.55Z"/><path class="cls-4" d="M20.14,51.78c-2-.09-2.57-.9-2.57-.9-.31.69.25.89.77,1.12,1.17.5,4.18.53,5.08-.33.5-.47-.87-2.31-1.51-2.12C21.91,49.55,23.42,51.67,20.14,51.78Z"/><path class="cls-7" d="M19,54.12c.43.05.86.09,1.29.11,1.36-.25,3.21-.11,3.51-1.79-1.84.8-4.69,1.41-6.38-.09C17.51,53.27,18.3,53.72,19,54.12Z"/><path class="cls-12" d="M17.31,40.27l-.07,0a.24.24,0,0,0,0,.08Z"/><path class="cls-12" d="M13.47,37.29c-1.3-.24-.78.9.06,1.2a12.4,12.4,0,0,1,2.65,1.08,4.75,4.75,0,0,0,1.06.68c-.14-.69-1-1.25-1.49-1.68A4.38,4.38,0,0,0,13.47,37.29Z"/><path class="cls-12" d="M20.71,37.17a.75.75,0,0,1-.07.12l.06.06C20.7,37.29,20.71,37.23,20.71,37.17Z"/><path class="cls-12" d="M22.42,30.46a23.17,23.17,0,0,0-1.71,6.71c.57-.91.86-2,1.44-3a36.18,36.18,0,0,0,2.44-3.8c.32-.7.94-2.12-.34-2C23.3,28.45,22.71,29.65,22.42,30.46Z"/><path class="cls-10" d="M16.86,38.55l.05-.11c-.38-1.16-.56-3.41-1.83-4.08C14.26,34.88,16.58,37.87,16.86,38.55Z"/><path class="cls-10" d="M19.55,34.55a6.28,6.28,0,0,0,.28-2c-1.12.25-1,2.61-1,3.49,0,1.44.22,2.82.23,4.25v.12c.29-.45.11-1.42.11-2a18.25,18.25,0,0,1,.12-2C19.33,35.88,19.44,35.21,19.55,34.55Z"/><path class="cls-12" d="M13.83,42.29c-.16.52,2.31.73,2.57,1.14C15.87,42.76,14.06,41.52,13.83,42.29Z"/><path class="cls-7" d="M82.62,33c-1.08.6,2.41,6.53,2.82,7.88.27.83,1.82,5,1.25,5.56-.44-.54-.67-1.77-1.39-1.87.32,1.5,1.9,3.52,1.51,4.91.44,1.19,2,.76,2.59.59.86-.28.37-.4.47-1.24.24-2,1.15-2.82,1.64-3.92a8.68,8.68,0,0,1,2.31-3.18c.72-.6,2.78-1.2,3-2.09A4.33,4.33,0,0,0,93.41,41c-1,.9-2.27,3.78-4.06,7.57-.82,1.76.9-5.81,1.19-6.66,1.76-5.16,6.23-5.64,4.08-7.74-1-1-3.35,2.27-4.78,6.44-.37,1.08-.6,8.46-1.77,8.27-.43-.8-.34-7.14-.43-8a38.55,38.55,0,0,1,.23-6.45c0-.44.46-2.67.21-2.92-.93-.91-1.4,1.28-1.48,1.74a22,22,0,0,0,.09,6.22c.15,1,.14,2,.33,3a29,29,0,0,1,.48,4.44C86.2,43.19,84.62,31.93,82.62,33Z"/><path class="cls-10" d="M84.67,44A14.6,14.6,0,0,1,87,48.29v-.11A14.15,14.15,0,0,0,85.2,43c-1-2.05-3.64-2.66-4.35-1.63S83.59,42.5,84.67,44Z"/><path class="cls-10" d="M84.79,40.79a12.63,12.63,0,0,1,2.61,4.3,15.16,15.16,0,0,0-2.81-6.93c-1.5-1.91-5-3.13-4.44-.94S83.09,38.79,84.79,40.79Z"/><path class="cls-10" d="M87.6,45s0-.05,0-.07S87.6,45,87.6,45Z"/><path class="cls-10" d="M100.38,39.35c0-1.62-5,.72-6.12,1.68a13.62,13.62,0,0,0-4.42,6.41v.15c.53-1.81,3.2-4,4.53-5.15C96.13,40.91,100.38,42.13,100.38,39.35Z"/><path class="cls-10" d="M93.14,27.69c-2.25-2.59-4.14,4.18-4.61,6.84a23.93,23.93,0,0,0,.15,10.63l0,.24c-.74-2.78.31-6.65,1-9C91.55,30.73,95.05,29.88,93.14,27.69Z"/><path class="cls-2" d="M91.39,51c.49-.47-.88-2.32-1.52-2.13a4.26,4.26,0,0,1-3,0c-.41,0-1.13.91-1.31,1.33-.3.7.25.9.78,1.12C87.48,51.83,90.48,51.85,91.39,51Z"/><path class="cls-4" d="M88.11,51.11c-2-.09-2.58-.91-2.58-.91-.3.7.25.9.78,1.12,1.17.51,4.17.53,5.08-.32.49-.47-.88-2.32-1.52-2.13C89.87,48.87,91.39,51,88.11,51.11Z"/><path class="cls-7" d="M88.28,53.56c1.36-.25,3.21-.12,3.52-1.8-1.85.81-4.7,1.42-6.38-.08,0,.91.85,1.36,1.58,1.77C87.43,53.5,87.85,53.54,88.28,53.56Z"/><path class="cls-12" d="M85.2,39.58s0,.05,0,.08l.06-.06Z"/><path class="cls-12" d="M81.49,37.82a12.18,12.18,0,0,1,2.66,1.08,4.69,4.69,0,0,0,1,.68c-.14-.69-1-1.25-1.48-1.69a4.43,4.43,0,0,0-2.29-1.27C80.13,36.38,80.65,37.52,81.49,37.82Z"/><path class="cls-12" d="M88.61,36.62l.06.05V36.5Z"/><path class="cls-12" d="M92.21,27.71c-.94.07-1.53,1.27-1.82,2.08a22.87,22.87,0,0,0-1.72,6.71c.57-.92.86-2,1.44-3a36.65,36.65,0,0,0,2.44-3.8C92.87,29,93.5,27.61,92.21,27.71Z"/><path class="cls-10" d="M83,33.68c-.82.52,1.51,3.51,1.78,4.2l.06-.12C84.49,36.61,84.31,34.36,83,33.68Z"/><path class="cls-10" d="M87.52,33.87a6.21,6.21,0,0,0,.27-1.95c-1.12.25-1,2.61-1,3.49,0,1.43.23,2.81.23,4.25v.11c.3-.44.12-1.41.12-2s0-1.3.11-2S87.41,34.54,87.52,33.87Z"/><path class="cls-12" d="M81.79,41.62c-.16.52,2.31.72,2.57,1.14C83.83,42.09,82,40.85,81.79,41.62Z"/><path class="cls-7" d="M71.09,54.49c.73.29,1.7.37,2.22,1a4.8,4.8,0,0,0-1.45.54,5.64,5.64,0,0,0,2.61-.51c-.77-.92-2-.86-.61-1.85.84-.62,2.27-.69,1.61-1.92-.25-.47-1.23-.15-1-1,.1-.42.93-.55,1.25-.63a26.14,26.14,0,0,1,3.41-.37,9.66,9.66,0,0,0,4.4-.88c1.91-1,.66-3.09-1.08-2.26,1.91.76-1.36,2.16-2,2.36a21.36,21.36,0,0,1-4.37.66c-1.14.12-3.12,0-3.9,1-1,1.31,1.67,1.34,2.4,2.24C74,53.68,70.75,53.18,71.09,54.49Z"/><path class="cls-12" d="M39.12,50.18c.48-.35,1.85-.69,2-1.21a3.17,3.17,0,0,0-2.25.75c-.66.51-1.35,1.61-2.54,3.79-.55,1,.44-2.78.63-3.27,1.17-3,4.16-3.23,2.72-4.44-.65-.55-2.23,1.3-3.19,3.7-.25.62-.27,4.29-1.06,4.18a25.73,25.73,0,0,1-.41-4,19.86,19.86,0,0,1,.15-3.7c0-.25.31-1.53.14-1.67-.61-.53-.93.73-1,1a10.7,10.7,0,0,0,.06,3.57c.1.59.09,1.12.22,1.71a14.7,14.7,0,0,1,.32,2.55C34,51,33,44.52,31.64,45.16c-.72.35,1.61,3.75,1.89,4.52.17.48,1.21,2.86.83,3.2-.29-.31-.45-1-.93-1.08.21.86.73,2,.47,2.77.3.68,2.85.43,3.22.32.58-.15.05-.44,0-.77A4.19,4.19,0,0,1,37.57,52,5,5,0,0,1,39.12,50.18Z"/><path class="cls-10" d="M30.46,50c-.5.62,1.83.63,2.55,1.49a8.2,8.2,0,0,1,1.57,2.46v-.06a7.58,7.58,0,0,0-1.21-3C32.66,49.72,30.93,49.37,30.46,50Z"/><path class="cls-10" d="M30,47.56c.39,1.26,2,.91,3.1,2a7,7,0,0,1,1.74,2.47,8,8,0,0,0-1.88-4C32,47,29.6,46.31,30,47.56Z"/><path class="cls-10" d="M35,52a.06.06,0,0,1,0,0S35,52,35,52Z"/><path class="cls-10" d="M39.77,48.08a8.05,8.05,0,0,0-3,3.68v.09c.36-1,2.14-2.29,3-3,1.17-.87,4-.18,4-1.77C43.86,46.19,40.53,47.53,39.77,48.08Z"/><path class="cls-10" d="M38.66,42.09c-1.5-1.48-2.76,2.41-3.07,3.93a11.73,11.73,0,0,0,.1,6.1l0,.13c-.49-1.59.21-3.81.69-5.14C37.61,43.84,39.94,43.36,38.66,42.09Z"/><path class="cls-2" d="M34,54c-.41,0-1.15.94-1.34,1.37-.32.71.25.92.79,1.15,1.21.52,4.3.55,5.23-.33.51-.49-.9-2.38-1.56-2.19A4.45,4.45,0,0,1,34,54Z"/><path class="cls-4" d="M35.26,56.25c-2-.09-2.65-.93-2.65-.93-.32.71.25.92.79,1.15,1.21.52,4.3.55,5.23-.33.51-.49-.9-2.38-1.56-2.19C37.07,54,38.63,56.14,35.26,56.25Z"/><path class="cls-7" d="M37,58.54c1-.17,1.82-.5,2-1.62-1.89.84-4.83,1.46-6.56-.08a1.7,1.7,0,0,0,.8,1.29,20,20,0,0,0,2.73.42,7.83,7.83,0,0,1,1,0h0Z"/><path class="cls-12" d="M33.41,48.93l0,0,0,.05Z"/><path class="cls-12" d="M30.85,47.22c-.87-.14-.52.52,0,.69a9.26,9.26,0,0,1,1.77.61,2.58,2.58,0,0,0,.7.39c-.09-.39-.69-.71-1-1A3.09,3.09,0,0,0,30.85,47.22Z"/><path class="cls-12" d="M35.68,47.15l0,.07,0,0Z"/><path class="cls-12" d="M36.83,43.3a11.48,11.48,0,0,0-1.15,3.85c.39-.52.58-1.16,1-1.71a20.15,20.15,0,0,0,1.63-2.17c.22-.41.63-1.22-.23-1.16C37.41,42.15,37,42.83,36.83,43.3Z"/><path class="cls-10" d="M33.11,47.94l0-.07c-.26-.66-.38-1.95-1.23-2.34C31.37,45.83,32.93,47.55,33.11,47.94Z"/><path class="cls-10" d="M34.91,45.64a2.89,2.89,0,0,0,.18-1.12c-.74.15-.68,1.5-.68,2,0,.82.15,1.61.16,2.43V49c.2-.26.07-.81.07-1.12a10.36,10.36,0,0,1,.08-1.12C34.77,46.41,34.84,46,34.91,45.64Z"/><path class="cls-12" d="M31.08,50.09c-.1.29,1.55.41,1.72.65C32.45,50.36,31.24,49.65,31.08,50.09Z"/><path class="cls-12" d="M64.3,46c-.72.35,1.6,3.75,1.89,4.52.17.47,1.21,2.85.83,3.19-.3-.31-.45-1-.93-1.07.21.86.72,2,.47,2.77.3.68,2.85.42,3.22.32.58-.16,0-.44,0-.77a4.25,4.25,0,0,1,.43-2.13A5.24,5.24,0,0,1,71.78,51c.48-.35,1.86-.69,2-1.2a3.13,3.13,0,0,0-2.24.75c-.67.51-1.36,1.61-2.55,3.79-.55,1,.44-2.78.63-3.27,1.17-3,4.16-3.23,2.72-4.44-.65-.55-2.23,1.3-3.19,3.69-.25.62-.27,4.29-1.06,4.19a25.85,25.85,0,0,1-.41-4,19.76,19.76,0,0,1,.15-3.69c0-.26.31-1.54.14-1.68-.62-.52-.93.73-1,1A10.7,10.7,0,0,0,67,49.66c.1.59.09,1.12.22,1.71a14.7,14.7,0,0,1,.32,2.55C66.69,51.81,65.63,45.35,64.3,46Z"/><path class="cls-10" d="M67.24,54.74v-.06a7.63,7.63,0,0,0-1.21-3c-.71-1.17-2.44-1.52-2.91-.93s1.83.63,2.55,1.49A8.4,8.4,0,0,1,67.24,54.74Z"/><path class="cls-10" d="M65.75,50.44a7.17,7.17,0,0,1,1.74,2.46,8,8,0,0,0-1.88-4c-1-1.09-3.35-1.79-3-.54S64.61,49.29,65.75,50.44Z"/><path class="cls-10" d="M67.62,52.84v0Z"/><path class="cls-10" d="M76.52,47.94c0-.92-3.33.42-4.09,1a8,8,0,0,0-3,3.68v.08c.36-1,2.14-2.29,3-3C73.68,48.84,76.52,49.54,76.52,47.94Z"/><path class="cls-10" d="M71.33,42.92c-1.51-1.48-2.77,2.4-3.08,3.93a11.83,11.83,0,0,0,.09,6.1l0,.13c-.49-1.59.21-3.82.69-5.14C70.27,44.67,72.6,44.18,71.33,42.92Z"/><path class="cls-2" d="M71.29,57c.51-.48-.9-2.38-1.56-2.18a4.51,4.51,0,0,1-3.12,0c-.42,0-1.16.93-1.34,1.37-.32.71.25.92.79,1.15C67.27,57.82,70.36,57.84,71.29,57Z"/><path class="cls-4" d="M67.91,57.07c-2-.09-2.64-.92-2.64-.92-.32.71.25.92.79,1.15,1.21.52,4.3.54,5.23-.34.51-.48-.9-2.38-1.56-2.18C69.73,54.78,71.29,57,67.91,57.07Z"/><path class="cls-7" d="M69.69,59.37c1-.17,1.82-.51,2-1.62-1.89.83-4.83,1.45-6.56-.09A1.7,1.7,0,0,0,66,59a23.72,23.72,0,0,0,2.73.42,7.69,7.69,0,0,1,1,0l-.09,0,.11,0Z"/><path class="cls-12" d="M66,49.74s0,0,0,0l0,0Z"/><path class="cls-12" d="M65.32,49.35a2.87,2.87,0,0,0,.7.39c-.09-.39-.69-.71-1-1A3.1,3.1,0,0,0,63.51,48c-.87-.14-.52.52,0,.69A9.15,9.15,0,0,1,65.32,49.35Z"/><path class="cls-12" d="M68.3,48l0,0V48A.43.43,0,0,1,68.3,48Z"/><path class="cls-12" d="M70.7,42.93c-.63,0-1,.73-1.21,1.2A11.74,11.74,0,0,0,68.34,48c.39-.52.58-1.15,1-1.7a19.32,19.32,0,0,0,1.63-2.18C71.15,43.69,71.56,42.88,70.7,42.93Z"/><path class="cls-10" d="M64.58,46.36c-.55.3,1,2,1.19,2.41l0-.07C65.55,48,65.43,46.75,64.58,46.36Z"/><path class="cls-10" d="M67.57,46.47a3.38,3.38,0,0,0,.19-1.12c-.75.14-.69,1.49-.69,2,0,.83.15,1.61.16,2.44v.06c.19-.25.07-.81.07-1.11a10.54,10.54,0,0,1,.08-1.13C67.42,47.23,67.5,46.85,67.57,46.47Z"/><path class="cls-12" d="M63.74,50.91c-.1.3,1.55.42,1.73.65C65.11,51.18,63.9,50.47,63.74,50.91Z"/><path class="cls-4" d="M40.54,7c-1.82,3.2-2.61,6.18-1.77,6.66s3-1.72,4.83-4.92,2.62-6.18,1.77-6.66S42.36,3.78,40.54,7Z"/><path class="cls-13" d="M34.18,12.36a4.29,4.29,0,0,0-2.36,2.21c.69.2,2-1.23,2.73-1.59a6.77,6.77,0,0,1,3.19-.67,5.65,5.65,0,0,1,2.85.85c.37.27.37,1.08.93.49.37-.39,2.34-3.29,1.71-4.09-1.12-.21-2.13-1.56-3-2.37-.24.62.51,1.26.69,1.82-.65.23-2.84-2.56-3.3-3.08C36.85,5.09,34.26.08,33.38.72,31.74,1.9,38.83,7.38,40.8,9.8a20.37,20.37,0,0,1-2.86-2c-.63-.54-1.27-.88-1.92-1.38A14.57,14.57,0,0,0,31.76,4c-.35-.11-2.06-.55-1.84.54.07.3,1.79.78,2.11.92a25.87,25.87,0,0,1,4.55,2.22c.57.41,4.24,2.49,4.6,3.13-.37,1-4.82-1.34-5.72-1.45-3.51-.4-6.76.3-6.53,1.44.52,2.51,2.79-.9,7.12-.39.71.09,5.91,1.35,4.35,1.36C37,11.77,35.22,11.89,34.18,12.36Z"/><path class="cls-14" d="M39.92,2.41c-1,.19-1.72,2.5-.76,4.12a10.32,10.32,0,0,0,2.76,3.38L42,10a11.12,11.12,0,0,1-1.94-3.49C39.49,5,41,2.21,39.92,2.41Z"/><path class="cls-14" d="M37.34.29c-1.26-1.28-2,2-1.28,3.92a11,11,0,0,0,3.57,4.85,9.65,9.65,0,0,1-1.84-3.71C37.15,3.24,38.6,1.57,37.34.29Z"/><path class="cls-10" d="M39.47,9.18l0,0Z"/><path class="cls-14" d="M31.6,12.41c-1.16.55-4.94,3.69-3.82,4.3,1.92,1,2.93-2.84,4.75-3.68,1.37-.64,4-2,5.52-1.73l-.1-.05A10.89,10.89,0,0,0,31.6,12.41Z"/><path class="cls-14" d="M31.85,6C29.8,5.41,24.3,4.4,25.11,7.18c.69,2.35,2.79-.14,7.5.55,1.92.28,5,.88,6.65,2.52l-.14-.14A16.19,16.19,0,0,0,31.85,6Z"/><path class="cls-12" d="M36.82,5.28s0,0,0,0,0,0,0,.07Z"/><path class="cls-12" d="M36.36,1.1a4.24,4.24,0,0,0-.1,2.31c.1.53.1,1.45.51,1.82a4.06,4.06,0,0,0,0-1.1,12.23,12.23,0,0,1,.41-2.54C37.32.81,36.76,0,36.36,1.1Z"/><path class="cls-12" d="M33.26,6.93V6.86l-.12,0Z"/><path class="cls-12" d="M25.53,6.44c-.63,1,.62,1,1.25,1a30.5,30.5,0,0,0,3.68-.54c.91-.12,1.8.07,2.67,0a16,16,0,0,0-5.37-1.13C27.07,5.68,26,5.71,25.53,6.44Z"/><path class="cls-10" d="M33.64,1.3c-.09,1.27,1.39,2.25,2,3h.11C35.41,3.82,34.35.83,33.64,1.3Z"/><path class="cls-10" d="M30.35,4.46A4.64,4.64,0,0,0,31.83,5a15.57,15.57,0,0,1,1.5.51c.48.19.93.39,1.4.63s1,.71,1.4.64l-.08,0c-1-.54-1.85-1.24-2.84-1.77C32.6,4.61,31,3.65,30.35,4.46Z"/><path class="cls-12" d="M39.66,3.25c-.63-.1-.56,1.82-.33,2.49C39.16,5.38,40.09,3.32,39.66,3.25Z"/><path class="cls-1" d="M38.36,13s0,2.28,2.65,1.19a5.38,5.38,0,0,1,6.29,2,9,9,0,0,0,4.55,7.34A8.85,8.85,0,0,0,64,20.32a8.85,8.85,0,0,0-3.43-12,9,9,0,0,0-8.63-.17,5.38,5.38,0,0,1-5-4.39c-.41-2.82-2.38-1.67-2.38-1.67C46.41,3.36,40.41,13.87,38.36,13Z"/><path class="cls-2" d="M38.36,13s0,2.28,2.65,1.19a5.38,5.38,0,0,1,6.29,2,9,9,0,0,0,4.55,7.34A8.85,8.85,0,0,0,64,20.32a8.61,8.61,0,0,0,.91-6.15c-.78,3.91-4,7.48-8.34,6.22a8.79,8.79,0,0,1-5.67-5.28,7.45,7.45,0,0,0-.77-.71c-.47-.36-.9-.72-1.31-1.1a6.6,6.6,0,0,1-4.05-4.91,8.54,8.54,0,0,1,1.45-6.32,1.58,1.58,0,0,0-1.61,0C46.41,3.36,40.41,13.87,38.36,13Z"/><path class="cls-3" d="M44.29,12.92a6.6,6.6,0,0,1-4.11-.82c-.72.69-1.37,1.05-1.82.85,0,0,0,2.28,2.65,1.19a5.38,5.38,0,0,1,6.29,2,9,9,0,0,0,14,7c-5.45,1.63-10.25-1.83-12.48-7.29C47.82,13.3,47,12.69,44.29,12.92Z"/><path class="cls-8" d="M48.67,7.54A19.46,19.46,0,0,1,47.3,6c-.69-.65-1.19-.35-.74.62.3.65,1.12,1,1.64,1.42,1.46,1.19,2.07,1.85,4,1.56a11.31,11.31,0,0,1,5.27,0c1.72.54,2.41,2,3.51,3.35.38.48,1,1.3,1.69,1.27,1.2-.05.35-1.31,0-2-1.67-3.32-4.91-4-8.35-3.48-1.25.19-3.06.42-3.8.1C50,8.35,49.27,8,48.67,7.54Z"/></g></g></svg>