<svg xmlns="http://www.w3.org/2000/svg" viewBox="0 0 37.8 56.18"><defs><style>.cls-1{fill:#78b1b5;}.cls-2{fill:#a6cfd5;}.cls-3{fill:#f79b08;}.cls-4{fill:#ce4328;}.cls-5{fill:#ffb600;}.cls-6{fill:#f15631;}.cls-7{fill:#511d0c;}</style></defs><g id="レイヤー_2" data-name="レイヤー 2"><g id="Layer_1" data-name="Layer 1"><ellipse class="cls-1" cx="16.55" cy="54.75" rx="6.71" ry="1.43"/><rect class="cls-1" x="9.98" y="51.72" width="13.15" height="2.89"/><path class="cls-2" d="M23.27,51.72c0,.79-3,1.43-6.72,1.43s-6.71-.64-6.71-1.43,3-1.43,6.71-1.43S23.27,50.93,23.27,51.72Z"/><path class="cls-1" d="M13.57,51.63a.26.26,0,0,0,0-.16h-.83c0-.75,1.14-.92,3.71-1.24a23.21,23.21,0,0,0,2.63-.41c-.63-.16-1.79-.3-2.63-.41-2.57-.31-3.71-.49-3.71-1.24s1.14-.92,3.71-1.24a25.89,25.89,0,0,0,2.63-.4,23.21,23.21,0,0,0-2.63-.41c-2.57-.32-3.71-.49-3.71-1.24s1.14-.93,3.71-1.24c.84-.11,2-.25,2.63-.41a23.21,23.21,0,0,0-2.63-.41c-2.57-.32-3.71-.49-3.71-1.25s1.14-.92,3.71-1.24a22.86,22.86,0,0,0,2.63-.41,25.28,25.28,0,0,0-2.63-.41c-2.57-.32-3.71-.49-3.71-1.24s1.14-.93,3.71-1.24a12.43,12.43,0,0,0,3-.58.27.27,0,0,0-.06.16h.84c0,.76-1.14.93-3.72,1.25a23.58,23.58,0,0,0-2.63.41,25.93,25.93,0,0,0,2.64.41c2.57.32,3.71.49,3.71,1.24s-1.14.93-3.71,1.24c-.84.11-2,.25-2.64.41A23.58,23.58,0,0,0,16.6,42c2.58.32,3.72.49,3.72,1.25s-1.14.92-3.72,1.24a23,23,0,0,0-2.62.41c.62.16,1.79.3,2.63.41,2.57.31,4,.54,3.71,1.24-.37.95-1.5,1.11-3.72,1.23a16.59,16.59,0,0,0-2.62.41,23.38,23.38,0,0,0,2.62.41c2.58.32,3.72.49,3.72,1.24s-1.14.93-3.72,1.24A12.55,12.55,0,0,0,13.57,51.63Z"/><path class="cls-3" d="M30.06,1.81a18.36,18.36,0,0,1,4.37,2.47,18.17,18.17,0,0,1,3.23,4,1,1,0,0,1-.11,1.15l-.62.72a1,1,0,0,1-1.15.26C34,9.66,30,8.55,29.22,9.91c-1,1.67-3.28,8.23-1.15,11.57,1.54,2.42,3.93,7.33,5.14,9.85A2.12,2.12,0,0,1,32.54,34l-.84.61a2.11,2.11,0,0,1-2.83-.31c-2.21-2.51-7.08-7.34-11.93-7.34-5,0-9.9,5.22-11.89,7.65a2.11,2.11,0,0,1-2.42.61l-1.3-.52A2.11,2.11,0,0,1,0,32.36C.66,28.46,2.63,19,7,16.88c5.58-2.65,10-.7,11.72-2.09s1.45-3.24,3.78-7.4C25.44,2.19,31.59,0,31.59,0Z"/><path class="cls-4" d="M17.79,16.05H10.53V14.54h7.26a.75.75,0,0,1,.75.75h0A.75.75,0,0,1,17.79,16.05Z"/><path class="cls-4" d="M11,16.05H9.57l-2.08-6a.7.7,0,0,1,.66-.92h0a.7.7,0,0,1,.66.47Z"/><path class="cls-5" d="M30.06,2.65a18.36,18.36,0,0,1,4.37,2.47,18.4,18.4,0,0,1,3.23,4,1,1,0,0,1-.11,1.15l-.62.73a1,1,0,0,1-1.15.26C34,10.5,30,9.38,29.22,10.74c-1,1.68-3.28,8.23-1.15,11.58,1.54,2.42,3.93,7.32,5.14,9.85a2.11,2.11,0,0,1-.67,2.62l-.84.62a2.11,2.11,0,0,1-2.83-.31c-2.21-2.51-7.08-7.34-11.93-7.34-5,0-9.9,5.22-11.89,7.64A2.11,2.11,0,0,1,2.63,36l-1.3-.52A2.12,2.12,0,0,1,0,33.19c.63-3.9,2.6-13.38,7-15.47,5.58-2.65,10-.7,11.72-2.1s1.45-3.23,3.78-7.4C25.44,3,31.59,0,31.59,0Z"/><path class="cls-1" d="M18.56,36.91h-4c-1.93,0-3.5-2.6-3.5-5.79v-6.5a2.53,2.53,0,0,1,2.53-2.53h6a2.52,2.52,0,0,1,2.52,2.53v6.5C22.06,34.31,20.5,36.91,18.56,36.91Z"/><path class="cls-2" d="M18.56,37.74h-4c-1.93,0-3.5-2.59-3.5-5.79v-6.5a2.52,2.52,0,0,1,2.53-2.52h6a2.52,2.52,0,0,1,2.52,2.52V32C22.06,35.15,20.5,37.74,18.56,37.74Z"/><path class="cls-6" d="M17.79,16.89H10.53V15.37h7.26a.76.76,0,0,1,.75.76h0A.75.75,0,0,1,17.79,16.89Z"/><path class="cls-6" d="M11,16.89H9.57L7.36,10.32A.69.69,0,0,1,8,9.41H8a.69.69,0,0,1,.66.47Z"/><path class="cls-6" d="M30.6,5.43a.74.74,0,1,1-.73-.73A.74.74,0,0,1,30.6,5.43Z"/><circle class="cls-7" cx="29.87" cy="5.43" r="0.54"/><path class="cls-1" d="M29.87,5.17a.24.24,0,0,1-.48,0,.24.24,0,0,1,.48,0Z"/></g></g></svg>