<svg xmlns="http://www.w3.org/2000/svg" viewBox="0 0 86.31 53.05"><defs><style>.cls-1{fill:#ffc545;}.cls-2{fill:#76aeb2;}.cls-3{fill:#fcd746;}.cls-4{fill:#ff9e1b;}.cls-5{fill:#ce4328;}.cls-6{fill:#ffa912;}.cls-7{fill:#f15631;}.cls-8{fill:#a6cfd5;}.cls-9{fill:#ffb600;}</style></defs><g id="レイヤー_2" data-name="レイヤー 2"><g id="Layer_1" data-name="Layer 1"><rect class="cls-1" x="23.34" y="19.25" width="16.98" height="1.02"/><rect class="cls-2" x="22.02" y="18.19" width="2.21" height="13.08" rx="1.09"/><rect class="cls-2" x="25.29" y="18.19" width="2.21" height="13.08" rx="1.09"/><rect class="cls-2" x="28.56" y="18.19" width="2.21" height="13.08" rx="1.09"/><rect class="cls-2" x="31.83" y="18.19" width="2.21" height="13.08" rx="1.09"/><rect class="cls-2" x="35.1" y="18.19" width="2.21" height="13.08" rx="1.09"/><rect class="cls-3" x="22.53" y="27.38" width="21.03" height="1.41"/><rect class="cls-4" x="21.14" y="9.35" width="1.68" height="43.7"/><rect class="cls-5" x="19.85" y="51.28" width="4.24" height="1.77"/><rect class="cls-6" x="21.9" y="9.35" width="1.68" height="43.7"/><rect class="cls-7" x="20.62" y="51.28" width="2.26" height="1.77"/><rect class="cls-4" x="22.23" y="9.35" width="1.68" height="43.7"/><rect class="cls-5" x="20.95" y="51.28" width="4.24" height="1.77"/><rect class="cls-4" x="39.56" y="9.35" width="1.68" height="43.7"/><rect class="cls-5" x="38.28" y="51.28" width="4.24" height="1.77"/><rect class="cls-6" x="40.33" y="9.35" width="1.68" height="43.7"/><rect class="cls-7" x="39.05" y="51.28" width="4.24" height="1.77"/><rect class="cls-4" x="40.52" y="9.35" width="1.68" height="43.7"/><rect class="cls-5" x="39.24" y="51.28" width="4.24" height="1.77"/><rect class="cls-6" x="23" y="9.35" width="1.68" height="43.7"/><rect class="cls-7" x="21.72" y="51.28" width="4.24" height="1.77"/><rect class="cls-6" x="41.29" y="9.35" width="1.68" height="43.7"/><rect class="cls-7" x="40.01" y="51.28" width="4.24" height="1.77"/><rect class="cls-1" x="22.36" y="28.79" width="21.03" height="1.41"/><rect class="cls-1" x="22.36" y="19.25" width="21.03" height="1.02"/><rect class="cls-8" x="25.1" y="18.19" width="2.21" height="13.08" rx="1.09"/><rect class="cls-8" x="28.37" y="18.19" width="2.21" height="13.08" rx="1.09"/><rect class="cls-8" x="31.63" y="18.19" width="2.21" height="13.08" rx="1.09"/><rect class="cls-8" x="34.9" y="18.19" width="2.21" height="13.08" rx="1.09"/><rect class="cls-8" x="38.17" y="18.19" width="2.21" height="13.08" rx="1.09"/><path class="cls-2" d="M40.49,28.92h.06a14.65,14.65,0,0,1,9.91,3.57L68.9,50.1a12.07,12.07,0,0,0,7.9,2.95H84l0,0a7,7,0,0,0-5.79-3.25h-.08a12.08,12.08,0,0,1-7.67-2.92L51.8,29.22a14.64,14.64,0,0,0-9.52-3.52H40.49Z"/><path class="cls-8" d="M42.79,28.92h.06a14.65,14.65,0,0,1,9.91,3.57L71.2,50.1a12.09,12.09,0,0,0,7.91,2.95h7.2l0,0a7,7,0,0,0-5.78-3.25h-.08a12.11,12.11,0,0,1-7.68-2.92L54.1,29.22a14.62,14.62,0,0,0-9.52-3.52H42.79Z"/><polygon class="cls-5" points="32.86 0 34.16 8.07 20.75 7.85 31.72 0 31.72 0 32.86 0"/><rect class="cls-5" x="20.75" y="7.85" width="22.07" height="1.52"/><polygon class="cls-7" points="43.78 7.85 21.85 7.85 32.86 0 32.86 0 43.78 7.85"/><rect class="cls-7" x="21.72" y="7.85" width="22.07" height="1.52"/><rect class="cls-4" x="1.13" y="49.18" width="2.85" height="0.93"/><rect class="cls-4" x="3.74" y="46.31" width="2.85" height="0.93"/><rect class="cls-4" x="6.57" y="43.04" width="2.85" height="0.93"/><rect class="cls-4" x="9.4" y="39.77" width="2.85" height="0.93"/><rect class="cls-2" x="3.28" y="40.65" width="0.89" height="9.21"/><rect class="cls-2" x="6.06" y="37.44" width="0.89" height="9.21"/><polygon class="cls-2" points="9.74 43.44 8.85 43.44 8.85 34.22 9.74 33.69 9.74 43.44"/><polygon class="cls-2" points="12.53 40.22 11.63 40.75 11.63 31.01 12.53 31.01 12.53 40.22"/><polygon class="cls-2" points="15.31 37.01 14.41 37.54 14.41 27.8 15.31 27.8 15.31 37.01"/><polygon class="cls-2" points="18.09 33.79 17.2 34.32 17.2 24.58 18.09 24.58 18.09 33.79"/><polygon class="cls-2" points="20.88 30.58 19.98 31.11 19.98 21.37 20.88 21.37 20.88 30.58"/><polygon class="cls-4" points="1.39 53.05 0.2 53.05 21.94 28.79 23.13 28.79 1.39 53.05"/><polygon class="cls-4" points="1.39 43.47 0.2 43.47 21.94 19.22 23.13 19.22 1.39 43.47"/><rect class="cls-5" y="41.85" width="1.39" height="11.2"/><polygon class="cls-9" points="15.7 37.44 12.87 37.43 12.87 36.5 16.78 36.5 15.7 37.44"/><polygon class="cls-9" points="18.6 34.16 15.7 34.16 15.7 33.23 19.61 33.23 18.6 34.16"/><polygon class="cls-9" points="20.8 31.11 17.9 31.11 17.9 30.18 21.81 30.18 20.8 31.11"/><rect class="cls-9" x="1.77" y="49.18" width="2.85" height="0.93"/><rect class="cls-9" x="4.39" y="46.31" width="2.85" height="0.93"/><rect class="cls-9" x="7.21" y="43.04" width="2.85" height="0.93"/><rect class="cls-9" x="10.04" y="39.77" width="2.85" height="0.93"/><rect class="cls-8" x="3.92" y="40.65" width="0.89" height="9.21"/><rect class="cls-8" x="6.7" y="37.44" width="0.89" height="9.21"/><polygon class="cls-8" points="10.38 43.44 9.49 43.44 9.49 34.22 10.38 33.69 10.38 43.44"/><polygon class="cls-8" points="13.17 40.22 12.27 40.75 12.27 31.01 13.17 31.01 13.17 40.22"/><polygon class="cls-8" points="15.95 37.01 15.05 37.54 15.05 27.8 15.95 27.8 15.95 37.01"/><polygon class="cls-8" points="18.73 33.79 17.84 34.32 17.84 24.58 18.73 24.58 18.73 33.79"/><polygon class="cls-8" points="21.52 30.58 20.62 31.11 20.62 21.37 21.52 21.37 21.52 30.58"/><polygon class="cls-9" points="2.03 53.05 0.84 53.05 22.58 28.79 23.77 28.79 2.03 53.05"/><polygon class="cls-9" points="2.03 43.47 0.84 43.47 22.58 19.22 23.77 19.22 2.03 43.47"/><rect class="cls-7" x="0.64" y="41.85" width="1.39" height="11.2"/><rect class="cls-5" x="21.48" y="19" width="1.39" height="11.2"/><rect class="cls-5" x="41.71" y="19" width="1.39" height="11.2"/><rect class="cls-7" x="22.25" y="19" width="1.39" height="11.2"/><rect class="cls-7" x="42.48" y="19" width="1.39" height="11.2"/></g></g></svg>