<svg xmlns="http://www.w3.org/2000/svg" viewBox="0 0 73.87 48.44"><defs><style>.cls-1{fill:#f15631;}.cls-2{fill:#ce4328;}.cls-3{fill:#f79b08;}.cls-4{fill:#ffb600;}.cls-5{fill:#b8dadd;}.cls-6{fill:#fcd746;}.cls-7{fill:#76aeb2;}.cls-8{fill:#a6cfd5;}.cls-9{fill:#992c1d;}.cls-10{fill:#39cfff;}.cls-11{fill:#ffd14d;}</style></defs><g id="レイヤー_2" data-name="レイヤー 2"><g id="Layer_1" data-name="Layer 1"><path class="cls-1" d="M71.75,6.2l-1.17.46c-.09-.21-.18-.43-.28-.63h1.37A1.3,1.3,0,0,1,71.75,6.2Z"/><path class="cls-2" d="M60.43,0V5.92H33.78A9.65,9.65,0,0,1,42.43,0Z"/><rect class="cls-3" x="36.54" y="2.03" width="1.57" height="35.55"/><rect class="cls-3" x="56.27" y="3.52" width="1.57" height="32.6"/><rect class="cls-4" x="37.24" y="2.03" width="1.57" height="35.55"/><rect class="cls-4" x="56.97" y="3.52" width="1.57" height="32.6"/><rect class="cls-2" x="37.18" y="15.86" width="21.17" height="2.74"/><rect class="cls-5" x="39.87" y="15.86" width="1.65" height="20.12"/><rect class="cls-5" x="43.4" y="15.86" width="1.65" height="20.12"/><rect class="cls-5" x="46.94" y="15.86" width="1.65" height="20.12"/><rect class="cls-5" x="50.47" y="15.86" width="1.65" height="20.12"/><rect class="cls-5" x="54.01" y="15.86" width="1.65" height="20.12"/><rect class="cls-4" x="47.13" y="33.23" width="21.17" height="2.74"/><rect class="cls-2" x="47.13" y="15.86" width="21.17" height="2.74"/><rect class="cls-3" x="46.43" y="2.03" width="1.57" height="35.55"/><rect class="cls-3" x="66.17" y="3.52" width="1.57" height="32.6"/><path class="cls-3" d="M57.85,3.52v0Z"/><rect class="cls-4" x="47.13" y="2.03" width="1.57" height="35.55"/><rect class="cls-4" x="66.87" y="3.52" width="1.57" height="32.6"/><path class="cls-4" d="M47.76,37.58h-15V29.45A7.42,7.42,0,0,1,40.2,22h.15a7.42,7.42,0,0,1,7.41,7.42Z"/><rect class="cls-4" x="18.13" y="22.03" width="22.6" height="15.43"/><path class="cls-6" d="M25.54,37.58h-15V29.45A7.42,7.42,0,0,1,18,22h.15a7.42,7.42,0,0,1,7.41,7.42Z"/><path class="cls-1" d="M11.93,36.21V29.45A6.06,6.06,0,0,1,18,23.4h.15a6.06,6.06,0,0,1,6,6.05v6.76Z"/><rect class="cls-7" x="49.12" y="15.86" width="1.65" height="20.12"/><rect class="cls-7" x="52.66" y="15.86" width="1.65" height="20.12"/><rect class="cls-7" x="56.19" y="15.86" width="1.65" height="20.12"/><rect class="cls-7" x="59.73" y="15.86" width="1.65" height="20.12"/><rect class="cls-7" x="63.27" y="15.86" width="1.65" height="20.12"/><rect class="cls-8" x="49.82" y="15.86" width="1.65" height="20.12"/><rect class="cls-8" x="53.36" y="15.86" width="1.65" height="20.12"/><rect class="cls-8" x="56.89" y="15.86" width="1.65" height="20.12"/><rect class="cls-8" x="60.43" y="15.86" width="1.65" height="20.12"/><rect class="cls-8" x="63.97" y="15.86" width="1.65" height="20.12"/><path class="cls-2" d="M71.67,6H51.83A9.63,9.63,0,0,0,43,0H62.63A9.63,9.63,0,0,1,71.67,6Z"/><polygon class="cls-4" points="13.21 37.58 10.69 37.58 0 47.63 2.52 47.63 13.21 37.58"/><polygon class="cls-9" points="27.95 38.28 14.74 47.63 14.74 48.34 17.26 48.34 27.95 38.28"/><polygon class="cls-9" points="27.95 37.58 25.44 37.58 14.74 47.63 17.26 47.63 27.95 37.58"/><polygon class="cls-9" points="13.21 38.28 0 47.63 0 48.34 2.52 48.34 13.21 38.28"/><polygon class="cls-10" points="13.21 37.58 10.69 37.58 0 47.63 2.52 47.63 13.21 37.58"/><polygon class="cls-2" points="26.98 38.49 25.52 39.86 8.26 39.86 8.26 38.95 26.98 37.69 26.98 38.49"/><polygon class="cls-2" points="24.98 40.43 23.52 41.81 6.26 41.81 6.26 40.89 24.98 39.63 24.98 40.43"/><polygon class="cls-2" points="22.89 42.38 21.43 43.75 4.18 43.75 4.18 42.84 22.89 41.58 22.89 42.38"/><polygon class="cls-2" points="20.79 44.32 19.33 45.69 2.07 45.69 2.07 44.78 20.79 43.52 20.79 44.32"/><polygon class="cls-2" points="18.72 46.26 17.26 47.63 0 47.63 0 46.72 18.72 45.46 18.72 46.26"/><polygon class="cls-1" points="26.98 37.58 25.52 38.95 8.26 38.95 9.72 37.58 26.98 37.58"/><polygon class="cls-1" points="24.92 39.52 23.46 40.89 6.2 40.89 7.66 39.52 24.92 39.52"/><polygon class="cls-1" points="22.85 41.46 21.39 42.84 4.13 42.84 5.59 41.46 22.85 41.46"/><polygon class="cls-1" points="20.79 43.41 19.33 44.78 2.07 44.78 3.53 43.41 20.79 43.41"/><polygon class="cls-1" points="18.72 45.35 17.26 46.72 0 46.72 1.46 45.35 18.72 45.35"/><path class="cls-1" d="M51.91,6.2l-1.17.46c-.09-.21-.18-.43-.28-.63l-.06-.11a8.56,8.56,0,0,0-15.24,0c-.12.23-.23.49-.33.74L33.66,6.2l.12-.28A9.65,9.65,0,0,1,42.43,0H43a9.61,9.61,0,0,1,8.74,5.92,1.17,1.17,0,0,1,0,.11Z"/><path class="cls-1" d="M51.83,6H50.46A8.42,8.42,0,0,0,43,1.26V0A9.63,9.63,0,0,1,51.83,6Z"/><rect class="cls-3" x="64.91" y="33.8" width="1.42" height="13.84"/><ellipse class="cls-3" cx="65.17" cy="40.72" rx="6.94" ry="6.89" transform="translate(-9.7 58.01) rotate(-45)"/><path class="cls-11" d="M73.78,39.54a6.93,6.93,0,1,1-5.65-5.65A6.93,6.93,0,0,1,73.78,39.54Z"/><path class="cls-4" d="M70.52,40.1a3.62,3.62,0,1,1-3-3A3.62,3.62,0,0,1,70.52,40.1Z"/><rect class="cls-3" x="47.45" y="33.8" width="1.42" height="13.84"/><ellipse class="cls-3" cx="47.7" cy="40.72" rx="6.94" ry="6.89" transform="translate(-14.82 45.64) rotate(-44.99)"/><path class="cls-11" d="M56.31,39.54a6.93,6.93,0,1,1-5.65-5.65A6.93,6.93,0,0,1,56.31,39.54Z"/><path class="cls-4" d="M53.05,40.1a3.62,3.62,0,1,1-2.95-3A3.62,3.62,0,0,1,53.05,40.1Z"/><rect class="cls-3" x="29.79" y="36.78" width="1.19" height="11.66"/><path class="cls-3" d="M35.75,41.62A5.83,5.83,0,1,1,31,36.86,5.84,5.84,0,0,1,35.75,41.62Z"/><path class="cls-11" d="M37.25,41.62a5.83,5.83,0,1,1-4.76-4.76A5.82,5.82,0,0,1,37.25,41.62Z"/><path class="cls-4" d="M34.51,42.09A3,3,0,1,1,32,39.6,3.05,3.05,0,0,1,34.51,42.09Z"/></g></g></svg>