<svg xmlns="http://www.w3.org/2000/svg" viewBox="0 0 67.99 37.17"><defs><style>.cls-1{fill:#a6cfd5;}.cls-2{fill:#fc7e0b;}.cls-3{fill:#78b1b5;}.cls-4{fill:#ffb600;}</style></defs><g id="レイヤー_2" data-name="レイヤー 2"><g id="Layer_1" data-name="Layer 1"><rect class="cls-1" x="34.29" y="20.11" width="2.28" height="2.79"/><path class="cls-2" d="M37,23.34H33.85V19.67H37Zm-2.28-.88h1.4V20.55h-1.4Z"/><path class="cls-3" d="M49.39,36.32c-2.66-16.76-26.78-16.76-29.44,0l-1.41-.23c2.91-18.36,29.35-18.36,32.26,0Z"/><path class="cls-1" d="M50.15,36.32c-2.66-16.76-26.78-16.76-29.44,0l-1.41-.23c2.91-18.36,29.35-18.36,32.26,0Z"/><rect class="cls-4" x="2.91" y="19.03" width="65.57" height="1.52" transform="translate(-4.21 11.24) rotate(-16.92)"/><rect class="cls-1" x="55.76" y="9.95" width="1.23" height="5.03" transform="translate(-1.19 16.94) rotate(-16.92)"/><rect class="cls-1" x="56.16" y="12.48" width="11.87" height="1.04" transform="matrix(0.96, -0.29, 0.29, 0.96, -1.1, 18.63)"/><polygon class="cls-1" points="66.84 9.53 65.3 10 63.99 0.47 65.54 0 66.84 9.53"/><polygon class="cls-1" points="67.99 11.76 67.17 12.01 65.86 2.48 66.68 2.23 67.99 11.76"/><path class="cls-2" d="M65.62,13.46h0a1.36,1.36,0,0,1,1.3,1v0a1.35,1.35,0,0,1-.9,1.69l-4.5,1.37a1.27,1.27,0,0,1-.39.06,1.36,1.36,0,0,1-1.29-1l0-.05a1.37,1.37,0,0,1,.1-1,1.33,1.33,0,0,1,.8-.65l4.5-1.37a1.32,1.32,0,0,1,.39-.06Zm0-.88a2.14,2.14,0,0,0-.65.1L60.48,14A2.24,2.24,0,0,0,59,16.83v0a2.24,2.24,0,0,0,2.14,1.59,2.1,2.1,0,0,0,.65-.1L66.29,17a2.22,2.22,0,0,0,1.48-2.78v-.05a2.23,2.23,0,0,0-2.14-1.58Z"/><rect class="cls-1" x="13.93" y="22.67" width="1.23" height="5.03" transform="matrix(0.96, -0.29, 0.29, 0.96, -6.7, 5.32)"/><rect class="cls-1" x="4.16" y="28.3" width="11.87" height="1.04" transform="matrix(0.96, -0.29, 0.29, 0.96, -7.95, 4.19)"/><polygon class="cls-1" points="4.22 28.57 5.76 28.11 1.54 19.46 0 19.93 4.22 28.57"/><polygon class="cls-1" points="4.51 31.07 5.33 30.82 1.11 22.17 0.29 22.42 4.51 31.07"/><path class="cls-2" d="M12.67,29.56a1.38,1.38,0,0,1,1.3,1v.05a1.36,1.36,0,0,1-.9,1.69l-4.5,1.36a1.32,1.32,0,0,1-.39.06,1.37,1.37,0,0,1-1.3-1v0A1.36,1.36,0,0,1,7.78,31l4.5-1.37a1.32,1.32,0,0,1,.39-.06Zm0-.87a2.48,2.48,0,0,0-.65.09L7.53,30.15A2.24,2.24,0,0,0,6,32.94v0a2.24,2.24,0,0,0,2.14,1.58,2.14,2.14,0,0,0,.65-.1l4.49-1.36a2.24,2.24,0,0,0,1.49-2.79v0a2.24,2.24,0,0,0-2.14-1.58Z"/><rect class="cls-1" x="17.79" y="35.47" width="32.25" height="1.71"/><rect class="cls-1" x="19.3" y="35.47" width="32.25" height="1.71"/></g></g></svg>