<svg xmlns="http://www.w3.org/2000/svg" viewBox="0 0 64.5 34.89"><defs><style>.cls-1{fill:#fc7e0b;}.cls-2{fill:#ce4328;}.cls-3{fill:#ffb600;}.cls-4{fill:#f15631;}.cls-5{fill:#76aeb2;}.cls-6{fill:#ffd14d;}.cls-7{fill:#a6cfd5;}.cls-8{fill:#ff7f06;}</style></defs><g id="レイヤー_2" data-name="レイヤー 2"><g id="Layer_1" data-name="Layer 1"><rect class="cls-1" x="0.99" y="21.54" width="3.49" height="13.34"/><rect class="cls-2" y="21.2" width="5.47" height="2.91"/><rect class="cls-3" x="2.14" y="21.54" width="3.49" height="13.34"/><rect class="cls-4" x="1.15" y="21.2" width="5.47" height="2.91"/><rect class="cls-5" x="3.89" y="26.84" width="51.72" height="8.04"/><rect class="cls-1" x="3.6" y="25.13" width="52.46" height="2.74"/><rect class="cls-3" x="53.79" y="21.54" width="3.49" height="13.34"/><rect class="cls-4" x="52.8" y="21.2" width="5.47" height="2.91"/><path class="cls-6" d="M11.68,27.65s1.54-3.42,9.06-4.28,9.58,1.54,13.18,0,6.67-5,13.34-5c11.53,0,13,8.38,13,8.38Z"/><rect class="cls-7" x="10.11" y="26.84" width="51.72" height="8.04"/><rect class="cls-3" x="9.83" y="25.13" width="52.46" height="2.74"/><rect class="cls-1" x="58.77" y="21.54" width="3.49" height="13.34"/><rect class="cls-2" x="57.78" y="21.2" width="5.47" height="2.91"/><rect class="cls-1" x="7.12" y="21.54" width="3.49" height="13.34"/><rect class="cls-2" x="6.13" y="21.2" width="5.47" height="2.91"/><rect class="cls-3" x="60.02" y="21.54" width="3.49" height="13.34"/><rect class="cls-4" x="59.02" y="21.2" width="5.47" height="2.91"/><rect class="cls-3" x="8.37" y="21.54" width="3.49" height="13.34"/><rect class="cls-4" x="7.37" y="21.2" width="5.47" height="2.91"/><path class="cls-4" d="M27.63,15.52l-1,7.82h0c0,.34-1.4.61-3.12.61s-3.11-.27-3.11-.61h0l-1-7.82Z"/><ellipse class="cls-4" cx="23.51" cy="15.46" rx="4.12" ry="0.88"/><path class="cls-8" d="M23.51,16.72c-.75,0-4.49-.06-4.49-1.26s3.74-1.25,4.49-1.25,4.5.06,4.5,1.25S24.26,16.72,23.51,16.72Zm-3.63-1.26a9.62,9.62,0,0,0,3.63.5,9.64,9.64,0,0,0,3.64-.5,9.87,9.87,0,0,0-3.64-.5A9.84,9.84,0,0,0,19.88,15.46Z"/><path class="cls-1" d="M19.4,15.8v-1a4.08,4.08,0,0,1,4.05-4.11h.09a4.09,4.09,0,0,1,4.06,4.11v1H28v-1a4.46,4.46,0,0,0-4.44-4.49h-.09A4.47,4.47,0,0,0,19,14.82v1Z"/><path class="cls-3" d="M25.4,11.54a4.6,4.6,0,0,0-3.53,0,.67.67,0,0,1-.83-.23h0a.62.62,0,0,1,.4-.83,5.78,5.78,0,0,1,4.4,0,.62.62,0,0,1,.4.83h0A.66.66,0,0,1,25.4,11.54Z"/><rect class="cls-7" x="42.01" y="8.09" width="11.67" height="0.91" transform="translate(26.86 52.39) rotate(-74.56)"/><path class="cls-7" d="M44.37,21.12l-2.64-.73.15-4.14a3,3,0,0,1,3.77-2.76l.77.22Z"/><path class="cls-7" d="M44.37,21.12l2.64.73,2-3.63a3,3,0,0,0-1.81-4.3l-.78-.21Z"/><path class="cls-5" d="M44.37,21.12,42,20.47l.14-3.73a2.67,2.67,0,0,1,3.38-2.49l.69.19Z"/><path class="cls-5" d="M44.37,21.12l2.37.66,1.79-3.28a2.67,2.67,0,0,0-1.62-3.87l-.69-.19Z"/><path class="cls-5" d="M50.08,3.75a3.83,3.83,0,0,1-.86-.11,2.36,2.36,0,0,1-1.7-1.85A1.39,1.39,0,0,1,47.83.63,1.38,1.38,0,0,1,49.27.18l1.66.46a1.38,1.38,0,0,1,1,.94,1.4,1.4,0,0,1-.24,1.26A1.48,1.48,0,0,1,50.08,3.75ZM48.89.89a.62.62,0,0,0-.48.23.59.59,0,0,0-.14.51A1.58,1.58,0,0,0,49.39,2.9a3,3,0,0,0,.69.09c.37,0,.79-.1.85-.4l0-.1L51,2.42a.63.63,0,0,0,.14-.62.6.6,0,0,0-.44-.43L49.06.91A.47.47,0,0,0,48.89.89Z"/><path class="cls-7" d="M50.8,1.58l-1.91-.53A.53.53,0,0,1,48.52.4h0A.53.53,0,0,1,49.17,0l1.92.53a.54.54,0,0,1,.37.65h0A.53.53,0,0,1,50.8,1.58Z"/></g></g></svg>