<svg xmlns="http://www.w3.org/2000/svg" xmlns:xlink="http://www.w3.org/1999/xlink" viewBox="0 0 407.25 162.17"><defs><style>.cls-1{fill:url(#linear-gradient);}.cls-2,.cls-4{opacity:0.3;}.cls-3{fill:#f8a942;}.cls-5{fill:#f69423;}.cls-6{fill:url(#linear-gradient-2);}</style><linearGradient id="linear-gradient" x1="203.44" y1="115.33" x2="202.4" y2="19.25" gradientUnits="userSpaceOnUse"><stop offset="0" stop-color="#8d2900"/><stop offset="1" stop-color="#ffc05d"/></linearGradient><linearGradient id="linear-gradient-2" x1="200.57" y1="33.05" x2="207.96" y2="122.54" xlink:href="#linear-gradient"/></defs><g id="レイヤー_2" data-name="レイヤー 2"><g id="Layer_1" data-name="Layer 1"><path class="cls-1" d="M30.29,7.45C150.31,25.62,265.9,26.15,374.77,0l17.72,74-36.14,8.17,36.15,4.57,14.75,45.76c-133.67,39.25-269.39,39.86-407.25,0L20.74,42l22.87-4.12-19.18-7.2Z"/><path class="cls-2" d="M407.25,132.54l-43.89-21.18S177.49,98.75,174.17,99.54s-87.41,0-87.41,0L14.1,124.25,0,132.54C133.4,173.27,269.3,170.66,407.25,132.54Z"/><polygon class="cls-2" points="392.49 74.01 381.8 70.18 330.45 67.58 340.13 83.69 356.35 82.18 392.49 74.01"/><polygon class="cls-2" points="24.43 30.65 32.55 28.94 45.82 26.86 88.79 37.95 75.14 49.21 65.17 38.04 43.61 37.85 24.43 30.65"/><path class="cls-3" d="M38.45,15.78C146,35.67,255.56,32.21,366.68,11.27L381.8,70.18,340.13,83.69l43.52,7.62L393.24,126A825.94,825.94,0,0,1,165,150.22l-2.59-9-5.16,9a754.52,754.52,0,0,1-143.1-26l10-37.77,25.82.69L24.43,80.74,34,44.19,66.11,38.3,32.54,28.94Z"/><polygon class="cls-2" points="49.88 87.15 24.43 80.74 12.26 83.95 49.88 87.15"/><g class="cls-4"><path class="cls-5" d="M125.48,54.58c4.21-4.61,9.7-15.62,14.64-26.8q-4.56-.26-9.1-.55c-.35.78-.72,1.58-1.11,2.41-11.62,24.42-20.47,33.64-25.45,39.43S100,101.36,100,101.36s6.63-18.19,9.95-24.43S115.53,65.5,125.48,54.58Z"/><path class="cls-5" d="M194.63,34.31q.47-2.76,1-5.41-5.74.08-11.48.07c-.36,14.39-1.76,19.81,0,31.85,2.22,15.07,6.09,6.76,2.77,26.51s-5.53,18.19-10.51,34.3c-2.2,7.11-3.75,18.38-4.8,28.75,2.6.07,5.2.15,7.78.19a53.54,53.54,0,0,1,4.21-21.14c7.19-16.64,11.62-17.67,13.83-33.27s1.66-15.07,0-28.06S189.1,67.58,194.63,34.31Z"/><path class="cls-5" d="M247.54,26.79c-6,.41-11.35.78-18,1.07h0c2.22,25.67,2.12,43.87-.05,41.79s.57-20.27-6.07-31.71c-1.89-3.25-3.47-6.66-4.84-9.61q-4.49.16-9,.29c-2.89,9.64-5.16,15.8-1.71,30.63,3.88,16.63,3.88,14,6.64,30.67s2.21,18.19-1.11,27c-2,5.27-6,21.06-8.35,33.62q4.86-.06,9.7-.2c3.19-7.15,6-14.92,7-19.9,2.21-12,3.87-34.31,3.87-41.06s6.44-1,5.71,8.31-.72,24.63-2.94,38.46c-.7,4.35-1.4,9.29-1.81,13.81,3.81-.16,7.61-.33,11.4-.54,4.18-12.76,7-30.12,7-36.14,0-8.83,2.21-18.19,6.63-30.14s2.79-19.75,0-33.78C250.55,43.88,248.82,35.26,247.54,26.79Z"/><path class="cls-5" d="M173.61,86.29c-.55-13.52-1.66-17.15-5.53-30.67-2-6.83-1.61-16.71-.23-26.83q-7.26-.15-14.5-.42c-.58,9.75-2.15,19.54-5.74,25.69-9.4,16.12-17.15,23.91-24.34,39s-9.4,11.44-14.94,33.79c-1.59,6.45-2.76,12.18-3.64,17.1,2.52.39,5.06.75,7.6,1.12,2.13-6.81,1.59-11,7.66-22.9s7.19-17.15,13.83-25.47,15.36-19.75,19.85-27,2.28-16.64,4.49-7.28,6.09,17.67,0,34.3-11.61,20.27-17.7,31.71c-2.66,5-4.57,12.45-5.85,19.54,2.69.31,5.39.59,8.09.87.59-1.6,1.14-3.23,1.63-4.82,3.88-12.47,6.54-19.23,17.1-31.71S174.17,99.8,173.61,86.29Z"/><path class="cls-5" d="M80.15,22.31Q70.55,21.08,61,19.59h0C56.84,24.89,53.22,29.39,50.49,34L66.11,38.3,46.84,41.84A32.45,32.45,0,0,0,45.27,52c0,13,6.65,15,0,24.94A25.45,25.45,0,0,0,42,85.17l7.88,2-8.28-.22C39.4,97.7,39.48,112,34.2,122.67c-1,2-1.91,4.15-2.74,6.26C35.61,130,39.81,131,44,132c-.41-16.12-4.55-22.36,6.09-33.79S62.42,70.18,62.42,62.38,72.38,55.1,74,42.63C74.68,37.77,77.18,30.06,80.15,22.31Z"/><path class="cls-5" d="M271,71.22c1.1-12-3.88-15.08,0-32.23,1.24-5.51,2.48-10.21,3.49-14.45q-6.53.64-13,1.18a20.68,20.68,0,0,1-.41,3.4c-2.21,9.87-1.85,9.87.46,26S269.87,83.17,271,71.22Z"/><path class="cls-5" d="M99.37,24.56C97.58,32.48,94,40.23,87.31,46.27,73.48,58.74,66.84,68.4,71.27,81s7.74,8.43,4.42,27.14c-1.74,9.85-4.1,21.12-6,29.59,2.63.53,5.28,1,7.93,1.56a125.48,125.48,0,0,1,3.56-16.6c2.76-10.4,6.64-7.8,7.19-23.39s-10-19.75-8.85-27.54,3.87-12,13.27-17.68c8.59-5.21,16.24-14.34,20.88-28.14C108.93,25.5,104.14,25.06,99.37,24.56Z"/><path class="cls-5" d="M326.85,106.56c-7.19,5.2-10.51,18.19-12.72,32.74-.13.83-.28,1.64-.44,2.43q9.15-1.36,18.22-2.93c-4.37-10.15,4.44-32.44,5.45-40C338.47,90.45,334,101.36,326.85,106.56Z"/><path class="cls-5" d="M330.79,81c2.27-10-.07-18.08-2.28-35.23-1-7.6.1-18.27,1.09-28.15l-7.8,1.17c-1,12.67-1.28,26.5-1,33.73.55,16.12-14.39,29.63-17.71,3.12-1.61-12.87-2.18-23.29-2.91-33.94q-5.68.7-11.37,1.35c0,1.07-.07,2.07-.1,3-.55,17.15,7.74,45.74,3.32,66.52s-8.3,11.44-26,35.87C259,138.11,258,144,259.38,148q18.09-1.47,35.89-3.7c-8.35-18.92,3.37-20.56,7.24-29.4s3.32-16.11,5.53-26S328.51,91,330.79,81Z"/><path class="cls-5" d="M365.58,40.55c.63-10.14,1.18-19.52,1.63-27.24l-.53-2-2,.36c-3.15,17.15-7.31,41.88-8,56.4-.18,4-.3,7.38-.39,10.41l7.71-2.5C364.12,65.83,364.69,54.77,365.58,40.55Z"/><path class="cls-5" d="M365,101.36c-.41-4.6-.68-9-.84-13.46l-8.07-1.41a163.48,163.48,0,0,1-2.7,28.38c-1.44,8.33-3.92,16-6.89,21.29q10.8-2.06,21.51-4.36C367.38,122.85,366.09,113.4,365,101.36Z"/></g><path class="cls-6" d="M84.38,34.32S69.24,74.85,69.92,76.69,84,84.86,84,84.86H68.69L61.48,113.5s33.91,12,78.94,14.94,100.15,3.78,125.58,0,79.39-9.67,79.39-9.67-8.45-29-11.05-29-15.9-4.86-15.9-4.86,23.3-12.73,29-16.45-8.7-40.53-9.94-39.53-49.78,7.79-87.6,11.72S84.38,34.32,84.38,34.32Z"/><path class="cls-3" d="M91.73,44.69,80.15,77.61l8.64,7.19L75.27,88.66l-5.53,20.68s31.19,5.29,48.09,9.68,67.19,8.38,91.46,7.18,74.86-2.21,92.94-4.29a172.37,172.37,0,0,0,35.3-8.48l-6.2-20.27-22.57-5.84,35.33-23.59L335.42,36s-28.17,7-55.91,8.67-92.76,1.08-109.66,0S91.73,44.69,91.73,44.69Z"/></g></g></svg>