<svg xmlns="http://www.w3.org/2000/svg" viewBox="0 0 13.19 101.64"><defs><style>.cls-1{fill:#494846;}.cls-2{fill:#212121;}.cls-3{fill:#706f6e;}.cls-4{fill:#6d6d6d;}.cls-5{fill:#9be0de;}.cls-6{fill:#cef4f2;}.cls-7{fill:#97dbd4;}.cls-8{fill:#7bbfb5;}.cls-9{fill:#f0fcfb;}.cls-10{fill:#93a3a2;}</style></defs><g id="レイヤー_2" data-name="レイヤー 2"><g id="Layer_1" data-name="Layer 1"><path class="cls-1" d="M7.7,20.24l-1.14.15a6,6,0,0,1-1.4-.19.77.77,0,0,0-.11.38L4.61,79.36a1.18,1.18,0,0,0,1.18,1.19H7a1.18,1.18,0,0,0,1.18-1.19L7.8,20.58A.75.75,0,0,0,7.7,20.24Z"/><path d="M7.69,20.24l-.76.1c.63,1.61.63,4.91-1.9,4v.44a3.3,3.3,0,0,1,.62.15c.66,0,1.31,0,2-.1l.18,0V20.58A.63.63,0,0,0,7.69,20.24Z"/><path d="M7.56,25.34l-.78.11-1.49-.07c.78.28,1.06.33,1.23.55a1,1,0,0,1,.23.65c-.07,11.79.45,49.47.46,50.31,0,2.17-.92,2.61-2.6,2,0,0-.19,1.77.31,1.77L7,80.55a1.18,1.18,0,0,0,1.18-1.19L7.82,25.25Z"/><path class="cls-1" d="M7.77,24.55a8.92,8.92,0,0,1-1.37.11A6.26,6.26,0,0,1,5,24.55a.47.47,0,1,0,0,.93,10.08,10.08,0,0,0,1.36.1,9.61,9.61,0,0,0,1.37-.1.47.47,0,1,0,0-.93Z"/><path class="cls-2" d="M7.92,24.58a.31.31,0,0,1-.17.37A3.75,3.75,0,0,1,6,25.26c-.5,0-1.14,0-1.44-.39a.8.8,0,0,0,0,.15.48.48,0,0,0,.49.46,10.08,10.08,0,0,0,1.36.1,9.61,9.61,0,0,0,1.37-.1A.47.47,0,0,0,8.25,25,.46.46,0,0,0,7.92,24.58Z"/><path class="cls-3" d="M5,24.62c-.11,0-.32.12-.35.23a1.22,1.22,0,0,1,.43-.07,1.24,1.24,0,0,1,.33,0,4.3,4.3,0,0,0,.73.07,2.88,2.88,0,0,0,.78,0c.41-.1.57-.1.7-.25a6.1,6.1,0,0,1-1.36.09A10.67,10.67,0,0,1,5,24.62Z"/><path class="cls-1" d="M8.1,19.41a11.8,11.8,0,0,1-1.64.12,8.44,8.44,0,0,1-1.64-.12.56.56,0,0,0-.58.55.57.57,0,0,0,.58.56,12.51,12.51,0,0,0,1.64.12,11.62,11.62,0,0,0,1.64-.12A.57.57,0,0,0,8.68,20,.56.56,0,0,0,8.1,19.41Z"/><path class="cls-2" d="M8.26,19.42a.38.38,0,0,1-.2.45A4.55,4.55,0,0,1,6,20.25c-.6,0-1.37,0-1.72-.48a.53.53,0,0,0,0,.18.57.57,0,0,0,.58.55,13.7,13.7,0,0,0,1.64.13,12.51,12.51,0,0,0,1.64-.13.55.55,0,0,0,.17-1.08Z"/><path class="cls-3" d="M4.94,19.72c-.11,0-.32.12-.35.23A1.22,1.22,0,0,1,5,19.88a1.19,1.19,0,0,1,.33,0,3.65,3.65,0,0,0,.74.08,3,3,0,0,0,.79,0c.4-.1.56-.1.69-.25a6.15,6.15,0,0,1-1.37.09A10.67,10.67,0,0,1,4.94,19.72Z"/><path class="cls-1" d="M8.24,80.59H4.46c-.78,0-1.41.9-1.41,2l-.7,17c0,1.1,1.72,2.08,4,2s4-.9,4-2l-.7-17C9.65,81.49,9,80.59,8.24,80.59Z"/><path d="M8.24,80.59H4.45c-.76,0-1.37.87-1.4,1.94.51.23,4.19,3.14,4.85,4.75a13.5,13.5,0,0,1,1,5.52,10.85,10.85,0,0,1-1.7,5.94,3.88,3.88,0,0,1-4.59,1.58c.53.79,2,1.38,3.79,1.32,2.31-.08,4-.9,4-2l-.71-17C9.64,81.49,9,80.59,8.24,80.59Z"/><path class="cls-2" d="M8.15,78.84c-.16.78-1.37,1.1-1.89,1s-1.32.09-1.65-.95a5,5,0,0,0-1.47,1.3,2,2,0,0,0,.1,2.11c1,1.48,4.53,1.1,5.44.53C10.45,81.77,9.37,79.79,8.15,78.84Z"/><path class="cls-1" d="M8.15,78.84c-.16.78-1.37,1-1.89,1-.82,0-1.52-.3-1.65-.95a4.29,4.29,0,0,0-1.32,1S2.56,83.38,6.67,82c2.47-.81,2.11-2.6,2.11-2.6S8.25,78.92,8.15,78.84Z"/><path class="cls-4" d="M3.71,84.12c-.33,3-.29,5.26-.38,7.94-.08,2.23-1,7.58.12,7.59,1,.2,1-7.38,1-8.71-.06-1.77.1-3.26.11-4.59C4.57,84.45,4.46,83.6,3.71,84.12Z"/><path class="cls-1" d="M7.88.33A2.38,2.38,0,0,0,5.34.4c-.62.48-1.2,1.48-.43,2H5.2c.87,0,2.15.36,3,0S8.6.75,7.88.33Z"/><path d="M7.86.33s.2.79-1.39,1.13c-1.4.3-1.89-.07-1.89-.07a.86.86,0,0,0,.31,1.05h.28c.88,0,2.16.36,3,0S8.57.75,7.86.33Z"/><path class="cls-5" d="M6.58,2.63C3,2.63,0,6.28,0,10.79S3,19,6.58,19s6.59-3.66,6.59-8.16S10.22,2.63,6.58,2.63Z"/><path class="cls-6" d="M6.61,4.73c-2.7,0-4.89,2.83-4.89,6.32s2.19,6.31,4.89,6.31,4.88-2.83,4.88-6.31S9.31,4.73,6.61,4.73Z"/><path class="cls-7" d="M9,5.78a7.87,7.87,0,0,1,1.15,4.46c-.42,4.94-2.06,6.54-2.47,7,2.08-.37,3.7-2.9,3.7-6A6.62,6.62,0,0,0,9,5.78Z"/><path class="cls-8" d="M9.53,5.7A8.29,8.29,0,0,1,11,10.6,10.53,10.53,0,0,1,8.51,17c1.93-.84,3.34-3.18,3.34-6A6.83,6.83,0,0,0,9.53,5.7Z"/><path class="cls-9" d="M1.72,11.05a6.45,6.45,0,0,0,3.15,5.88c-.31-.64-2-1.37-2-6.55C2.83,8.25,4.26,6.67,5.38,5,3.28,5.66,1.72,8.11,1.72,11.05Z"/><path class="cls-10" d="M6.61,17.86C0,17.86.5,11.69.26,8.74a9.75,9.75,0,0,0-.24,2C0,15.29,3,19,6.61,19s6.58-3.66,6.58-8.16A9.66,9.66,0,0,0,13,9.07C13.05,15.93,9.82,17.86,6.61,17.86Z"/><path class="cls-1" d="M6.5,2.08h0A6.53,6.53,0,0,0,1.07,5c-.24.3-.76.92-.35,1.26S1.81,6,2.17,5.85a7.58,7.58,0,0,1,3.25.05,6.24,6.24,0,0,0,1,.06h.17a6.32,6.32,0,0,0,1-.06,7.58,7.58,0,0,1,3.25-.05c.36.12,1.05.69,1.45.36s-.12-1-.35-1.26A6.53,6.53,0,0,0,6.5,2.08Z"/><path d="M10,3.15c-.9,1.58-5,1.92-7.55,1.6A8.92,8.92,0,0,1,1.3,4.67c-.07.09-.16.18-.23.28-.24.3-.76.92-.35,1.26S1.81,6,2.17,5.85a7.58,7.58,0,0,1,3.25.05,6.24,6.24,0,0,0,1,.06h.17a6.32,6.32,0,0,0,1-.06,7.58,7.58,0,0,1,3.25-.05c.36.12,1.05.69,1.45.36s-.12-1-.35-1.26A8.36,8.36,0,0,0,10,3.15Z"/><path class="cls-1" d="M7.9,5.47C6.66,6.16,6.46,7.8,6.31,9.25c0,.1,0,.2,0,.29a2.64,2.64,0,0,1,0-.29C6.13,7.8,5.93,6.16,4.7,5.47c-.48-.27-1.7-.08-1.41.92s.86.05,1.19.53a9.68,9.68,0,0,1,1,2.6c.71,2.34.56,5.47,0,9.87h0a2.83,2.83,0,0,0,.4,0H6l.19,0h.29l.19,0h0a2.83,2.83,0,0,0,.4,0h0c-.56-4.4-.7-7.53,0-9.87a10,10,0,0,1,1-2.6c.33-.48,1,.18,1.31-.76S8.37,5.2,7.9,5.47Z"/><path class="cls-1" d="M9.41,18a8.43,8.43,0,0,1-2.82.53,7.1,7.1,0,0,1-3-.58c-.27-.07-.7-.11-.73.48,0,.38.37.54,1.09.86a10.34,10.34,0,0,0,2.67.44,7.54,7.54,0,0,0,2.71-.53c.49-.23,1-.57.85-1S9.76,17.75,9.41,18Z"/><path d="M8.7,18.68h0a8.76,8.76,0,0,1-4.6,0L2.89,18.2a.89.89,0,0,0-.06.21c0,.38.37.54,1.09.86a10.34,10.34,0,0,0,2.67.44,7.54,7.54,0,0,0,2.71-.53c.49-.23,1-.57.85-1h0A5.57,5.57,0,0,1,8.7,18.68Z"/><path class="cls-1" d="M1.6,12.6C.91,10.12,1,7.91,1.35,7.4c.14-.23.19-.41.45-.49s.32.17.66.2c1.12.1,1.29-1.43.07-1.64S.84,6.38.58,7.07c0-.58.33-1.19,0-1.39C-.26,6.53.06,9.16.2,10.13.88,14.86,3.25,18,4,18.26a1.13,1.13,0,0,0,.52,0l-.07-.07A20.38,20.38,0,0,1,1.6,12.6Z"/><path class="cls-1" d="M12.38,5.45c-.48,0-.38.52-.18.89a3.13,3.13,0,0,0-1.36-1c-.49-.13-1.14-.1-1.3.33-.36,1,.05,1.15.72,1.25.47.06,1-.19,1.14-.1,1.54,1,.44,5.09.07,6.35a32.1,32.1,0,0,1-2.29,4.89c1.12.32,2.76-3.84,3.05-4.64A17.32,17.32,0,0,0,13,6.84,1.56,1.56,0,0,0,12.38,5.45Z"/></g></g></svg>