<svg xmlns="http://www.w3.org/2000/svg" viewBox="0 0 3247.66 2304"><defs><style>.cls-1{fill:#baeda2;}.cls-2{fill:#6ea050;}.cls-3{fill:#80b55e;}.cls-4{fill:#57893f;}</style></defs><g id="レイヤー_2" data-name="レイヤー 2"><g id="レイヤー_1-2" data-name="レイヤー 1"><g id="レイヤー_2-2" data-name="レイヤー 2"><g id="レイヤー_2-2-2" data-name="レイヤー 2-2"><path class="cls-1" d="M524.94,1792.46c-83.47-68.62-135.88-125.11-195.89-204.58-62.59-83-156.59-209.47-222.36-396.13-37.78-107-73.44-208.41-65.55-348.24C50.46,678,115.48,556.22,143.75,508.34c29.34-49.75,102-169.66,254.12-269.88,98.06-64.6,182.36-90.23,201.2-95.76a803.78,803.78,0,0,1,171.41-29.93c43.65-3.28,96-6.86,162.74,3.26a569.55,569.55,0,0,1,146.94,42.44c58.17,26.31,94.1,55.82,123.1,80,55.77,46.49,61.57,68.36,129,148.54,83.92,99.67,126.92,149.61,179.21,154.4,55.46,5,116.68-26.15,147.73-58.89,22.53-23.88,24.62-42.77,69.48-98,9.62-11.84,20.65-24.36,34.17-38.36a759.17,759.17,0,0,1,98.88-85.88A791.4,791.4,0,0,1,1980.9,188.4a776.87,776.87,0,0,1,111.17-43.54c35.89-10.82,63-16.1,103.26-24,46.6-9.08,74.24-14.45,113.82-17.41a764.4,764.4,0,0,1,108.5,0c15.73,1.08,54.54,4.23,119.12,17.41,53.87,11,108.67,22.16,169.43,45.7,85.17,33,139.48,73.76,185.3,108.83A879.27,879.27,0,0,1,3053,436.43c105.5,137.24,135.63,264.18,143,298.18,29,134.7,7.39,238.45-13.23,337.35-6.15,29.52-31.15,143.18-100.59,282.94-47.32,94.87-106.78,185.33-177.35,269.88a1594,1594,0,0,1-190.6,191.53c-124.65,106.15-237.87,171.32-278,193.71a1923.27,1923.27,0,0,1-238.26,111c-30.4,11.8-150.23,57.47-320.3,95.78-87.28,19.64-193.75,43.62-338.85,52.3-168.75,10.09-297.91-6-386.48-17.48-175.56-22.76-301.19-59.44-328.25-67.49,0,0-130.72-39.09-285.85-111-18.22-8.44-37.73-18.32-76.79-38.08-28.79-14.58-95.58-48.74-92.31-53.87.57-.89,2.74-.18,12.9-.82,0,0,6.26-.38,17.55-1.9,52.81-7.09,146.05-37.37,146.05-37.37,78-25.3,81.54-26.88,84.07-32.3C643.09,1880.18,583.42,1840.48,524.94,1792.46Z"/><path class="cls-2" d="M453.6,1458.17c-5.24,28.65-28.86,68.62-60.72,69.06s-58-38.15-64.18-67.55c-10.43-49.36,28.65-107.22,63.45-107C426.47,1352.94,462.46,1409.84,453.6,1458.17Z"/><path class="cls-2" d="M732.42,1529.79c-1.07,11.61-12.52,12.68-16.38,23.9-5.34,15.43,13.08,22.86,8.16,37.44-4,11.76-20.43,20.33-34.49,21.65-16.26,1.53-19.26-7.61-35.47-6.07-19.14,1.82-24,15.56-38.94,13.36-10.72-1.57-17.19-9.89-17.88-10.8-4.17-5.58-1.71-7.88-4.44-15.7-5-14.32-16.34-15.28-21.68-30.88a26.71,26.71,0,0,1-1.76-12.56c1.05-8.37,6.1-11.87,10.1-18.52,8.73-14.57-1.71-20.79,5.53-32.6,6.78-11,23.52-17.87,37.79-17.91,14.71,0,15.31,7.28,35.7,10.93,21.34,3.81,26.92-3.09,43.5,2.8A50.85,50.85,0,0,1,725,1510.76C727.87,1514.5,733.17,1521.37,732.42,1529.79Z"/><path class="cls-3" d="M599.59,1725.94c-4.63,25.2-25.39,60.33-53.46,60.78s-51-33.59-56.46-59.46c-9.14-43.42,25.21-94.35,55.84-94.13C575.72,1633.34,607.37,1683.41,599.59,1725.94Z"/><path class="cls-3" d="M732.42,1799.7c-1.07,11.62-12.52,12.68-16.38,23.9-5.34,15.44,13.08,22.87,8.16,37.45-4,11.75-20.43,20.34-34.49,21.65-16.26,1.52-19.26-7.62-35.47-6.08-19.14,1.82-24,15.56-38.94,13.37-10.72-1.58-17.19-9.9-17.88-10.81-4.17-5.57-1.71-7.87-4.44-15.7-5-14.32-16.34-15.28-21.68-30.87a26.69,26.69,0,0,1-1.63-12.48c1-8.37,6.09-11.87,10.1-18.52,8.72-14.57-1.71-20.79,5.53-32.6,6.78-11,23.51-17.87,37.78-17.91,14.71,0,15.32,7.29,35.7,10.93,21.35,3.81,26.92-3.09,43.51,2.8a50.87,50.87,0,0,1,22.78,15.93C727.87,1784.42,733.17,1791.28,732.42,1799.7Z"/><path class="cls-4" d="M404.48,1566.36c-4.51,24.6-24.79,58.88-52.16,59.31s-49.79-32.77-55.11-58c-8.91-42.39,24.62-92.07,54.48-91.87C381.2,1476,412.08,1524.87,404.48,1566.36Z"/><path class="cls-2" d="M1018.65,2180.64c-5.26,28.63-28.86,68.62-60.74,69.07s-58-38.15-64.18-67.56c-10.44-49.35,28.66-107.23,63.45-107C991.52,2075.41,1027.49,2132.35,1018.65,2180.64Z"/><path class="cls-4" d="M921.12,2062.5c-4.5,24.58-24.79,58.87-52.16,59.3s-49.78-32.76-55.17-58.07c-8.91-42.39,24.62-92.08,54.5-91.86C897.84,1972.14,928.72,2021,921.12,2062.5Z"/><path class="cls-4" d="M569.38,1596c-1,10.82-11.62,11.8-15.23,22.3-5,14.37,12.16,21.25,7.57,34.82-3.69,10.93-19,18.87-32.07,20.14-15.13,1.41-17.92-7.08-32.92-5.66C479,1669.27,474.46,1682,460.5,1680c-9.95-1.46-16-9.22-16.69-10.06-3.92-5.14-1.61-7.32-4.17-14.61-4.65-13.31-15.19-14.21-20.16-28.72a24.81,24.81,0,0,1-1.62-11.68c1-7.77,5.67-11,9.38-17.16,8.12-13.55-1.6-19.33,5.14-30.26,6.26-10.29,21.89-16.64,35.16-16.65,13.68,0,14.25,6.77,33.19,10.15,19.87,3.55,25-2.86,40.46,2.61a47.34,47.34,0,0,1,21.3,14.63C565.16,1581.68,570.09,1588.13,569.38,1596Z"/><path class="cls-2" d="M867.27,1895.31c-1.09,11.63-12.52,12.69-16.38,23.91-5.34,15.44,13.08,22.87,8.16,37.45-4,11.75-20.43,20.33-34.49,21.65-16.26,1.51-19.26-7.62-35.47-6.07-19.14,1.81-24,15.55-39,13.36-10.7-1.58-17.17-9.9-17.86-10.81-4.17-5.59-1.71-7.87-4.44-15.71-5-14.33-16.34-15.29-21.68-30.88a26.57,26.57,0,0,1-1.75-12.56c1-8.35,6.09-11.87,10.07-18.51,8.75-14.58-1.69-20.79,5.55-32.59,6.79-11,23.52-17.9,37.79-17.91,14.71,0,15.32,7.27,35.7,10.93,21.35,3.8,26.92-3.09,43.48,2.79a50.64,50.64,0,0,1,22.81,15.94C862.74,1880,868,1886.9,867.27,1895.31Z"/><path class="cls-3" d="M856.34,1797c-4.62,25.2-25.4,60.33-53.44,60.78s-51-33.58-56.48-59.45c-9.14-43.43,25.22-94.35,55.83-94.14C832.57,1704.42,864.14,1754.5,856.34,1797Z"/><path class="cls-4" d="M704.23,1961.49c-1,10.81-11.6,11.8-15.21,22.3-5,14.39,12.16,21.27,7.57,34.84-3.69,10.93-19,18.87-32.07,20.13-15.12,1.42-17.92-7.09-32.92-5.65-17.78,1.72-22.27,14.48-36.22,12.44-10-1.46-16-9.21-16.7-10-3.92-5.15-1.6-7.33-4.17-14.62-4.65-13.31-15.19-14.2-20.16-28.72a24.67,24.67,0,0,1-1.62-11.68c1-7.77,5.67-11,9.39-17.15,8.11-13.56-1.61-19.34,5.13-30.27,6.26-10.29,21.89-16.64,35.14-16.65,13.7,0,14.27,6.86,33.21,10.15,19.87,3.55,25-2.86,40.46,2.61a47.17,47.17,0,0,1,21.2,14.82C700,1947.29,705,1953.67,704.23,1961.49Z"/><path class="cls-4" d="M495.91,1466.21c-41.37,29.17-64.68,71-57,77,4.17,3.19,14-6.09,32-2.66,7.44,1.42,6.76,3.21,14,4.42,14.6,2.47,19.32-4.34,35-3.53,12.25.62,11.18,4.85,21,4.43,14.6-.66,18.4-10.09,31-9.75,12.21.35,17.41,9.47,20,8,7.77-4.46-27.25-92.26-69-91.14C514.63,1453.16,508.28,1457.52,495.91,1466.21Z"/><path class="cls-2" d="M498.73,1437.07c-35.26,24.82-55.13,60.55-48.6,65.7,3.47,2.71,11.92-5.15,27.3-2.26,6.36,1.21,5.77,2.72,11.95,3.77,12.37,2.09,16.46-3.71,29.86-3,10.43.53,9.53,4.15,17.92,3.77,12.52-.54,15.69-8.57,26.44-8.3,10.43.29,14.85,8.06,17.07,6.86,6.63-3.8-23.23-78.67-58.86-77.72C514.73,1425.93,509.31,1429.64,498.73,1437.07Z"/><path class="cls-3" d="M498.73,1402c-35.28,24.82-55.15,60.55-48.62,65.66,3.47,2.71,11.92-5.14,27.29-2.26,6.37,1.2,5.78,2.73,12,3.77,12.37,2.1,16.46-3.7,29.86-3,10.43.54,9.53,4.14,17.92,3.78,12.52-.57,15.69-8.58,26.44-8.3,10.43.29,14.85,8.06,17.07,6.86,6.63-3.81-23.23-78.69-58.87-77.73C514.73,1390.87,509.31,1394.57,498.73,1402Z"/><path class="cls-4" d="M447.36,1949.52c-41.38,29.16-64.68,71-57,77,4.07,3.19,14-6.09,32-2.66,7.45,1.42,6.78,3.21,14,4.43,14.61,2.45,19.32-4.34,35-3.54,12.25.62,11.19,4.86,21,4.43,14.61-.65,18.43-10.09,31-9.75,12.23.35,17.42,9.47,20,8,7.78-4.46-27.12-92.24-69-91.12C466.07,1936.46,459.71,1940.8,447.36,1949.52Z"/><path class="cls-2" d="M450.2,1920.37c-35.29,24.82-55.15,60.54-48.64,65.65,3.48,2.71,11.93-5.15,27.31-2.26,6.26,1.21,5.78,2.72,11.94,3.77,12.37,2.09,16.48-3.7,29.85-3,10.44.53,9.56,4.15,17.93,3.78,12.52-.55,15.71-8.58,26.46-8.31,10.43.29,14.83,8.07,17.06,6.86,6.62-3.8-23.24-78.68-58.88-77.72C466.16,1909.24,460.75,1912.94,450.2,1920.37Z"/><path class="cls-3" d="M450.2,1885.32c-35.29,24.83-55.15,60.56-48.64,65.65,3.48,2.73,11.93-5.14,27.31-2.26,6.26,1.22,5.78,2.73,11.94,3.77,12.37,2.11,16.48-3.68,29.85-3,10.44.54,9.56,4.16,17.93,3.78,12.52-.55,15.71-8.58,26.46-8.3,10.43.3,14.83,8.08,17.06,6.86,6.62-3.79-23.24-78.67-58.88-77.73C466.16,1874.15,460.75,1877.88,450.2,1885.32Z"/><path class="cls-4" d="M725.6,2082.77c-41.38,29.17-64.69,71-57,77,4.17,3.19,14-6.09,32-2.64,7.45,1.4,6.78,3.19,14,4.4,14.6,2.47,19.32-4.32,35-3.53,12.25.64,11.2,4.86,21,4.43,14.61-.66,18.42-10.09,31-9.73,12.2.34,17.4,9.45,20,8,7.78-4.46-27.23-92.26-69-91.14C744.31,2069.72,738,2074,725.6,2082.77Z"/><path class="cls-2" d="M728.43,2053.63c-35.28,24.82-55.14,60.55-48.63,65.65,3.48,2.73,11.93-5.15,27.31-2.26,6.26,1.21,5.78,2.72,11.93,3.77,12.38,2.11,16.49-3.69,29.86-3,10.43.53,9.56,4.15,17.92,3.77,12.52-.54,15.72-8.57,26.46-8.3,10.43.29,14.84,8.08,17.07,6.86,6.61-3.79-23.24-78.67-58.88-77.73C744.39,2042.49,739,2046.22,728.43,2053.63Z"/><path class="cls-3" d="M728.43,2018.56c-35.28,24.81-55.14,60.54-48.63,65.66,3.48,2.71,11.93-5.15,27.31-2.27,6.26,1.22,5.78,2.73,11.93,3.78,12.38,2.09,16.49-3.71,29.86-3,10.43.53,9.56,4.13,17.92,3.77,12.52-.55,15.72-8.58,26.46-8.3,10.43.29,14.84,8.06,17.07,6.86,6.61-3.81-23.24-78.69-58.88-77.73C744.39,2007.43,739,2011.14,728.43,2018.56Z"/><path class="cls-4" d="M659.24,1662.62c-41.37,29.16-64.68,71-57,77,4.07,3.17,14-6.11,32-2.66,7.47,1.42,6.78,3.19,14,4.43,14.5,2.45,19.32-4.34,35-3.54,12.23.62,11.18,4.86,21,4.41,14.61-.63,18.42-10.09,31-9.73,12.2.35,17.4,9.46,20,8,7.76-4.46-27.25-92.24-69-91.12C678,1649.58,671.62,1653.92,659.24,1662.62Z"/><path class="cls-2" d="M662.08,1633.49c-35.28,24.81-55.14,60.54-48.61,65.65,3.46,2.71,11.91-5.15,27.29-2.26,6.36,1.2,5.78,2.72,11.93,3.77,12.38,2.09,16.49-3.7,29.88-3,10.43.53,9.54,4.14,17.9,3.78,12.52-.55,15.71-8.58,26.46-8.31,10.43.29,14.84,8.07,17.07,6.86,6.63-3.8-23.25-78.68-58.88-77.72C678,1622.36,672.64,1626.06,662.08,1633.49Z"/><path class="cls-3" d="M662.08,1598.41c-35.28,24.82-55.14,60.55-48.61,65.65,3.46,2.73,11.91-5.15,27.29-2.26,6.36,1.21,5.78,2.72,11.93,3.77,12.38,2.09,16.49-3.71,29.88-3,10.43.53,9.54,4.15,17.9,3.77,12.52-.54,15.71-8.57,26.46-8.3,10.43.29,14.84,8.06,17.07,6.86,6.63-3.81-23.25-78.67-58.88-77.73C678,1587.27,672.64,1591,662.08,1598.41Z"/><path class="cls-4" d="M244.61,1388.6c-41.37,29.17-64.68,71-57,77,4.17,3.19,14-6.09,32-2.64,7.44,1.4,6.76,3.19,14,4.41,14.6,2.47,19.32-4.34,35-3.54,12.25.62,11.18,4.86,21,4.43,14.6-.65,18.4-10.09,31-9.73,12.21.34,17.41,9.45,20,8,7.77-4.46-27.25-92.26-69-91.14C263.33,1375.55,257,1379.91,244.61,1388.6Z"/><path class="cls-2" d="M247.45,1359.46c-35.28,24.82-55.15,60.56-48.62,65.65,3.47,2.73,11.92-5.15,27.3-2.26,6.36,1.21,5.78,2.72,12,3.77,12.37,2.11,16.46-3.69,29.86-3,10.43.53,9.53,4.15,17.9,3.77,12.52-.54,15.71-8.57,26.46-8.3,10.43.29,14.85,8.08,17.07,6.86,6.63-3.8-23.23-78.67-58.88-77.72C263.43,1348.38,258,1352.05,247.45,1359.46Z"/><path class="cls-3" d="M247.45,1324.36c-35.28,24.81-55.15,60.54-48.62,65.65,3.47,2.71,11.92-5.14,27.3-2.26,6.36,1.2,5.78,2.72,12,3.77,12.37,2.09,16.46-3.7,29.86-3,10.43.53,9.53,4.14,17.9,3.78,12.52-.55,15.71-8.58,26.46-8.31,10.43.29,14.85,8.07,17.07,6.87,6.63-3.81-23.23-78.69-58.88-77.73C263.43,1313.26,258,1317,247.45,1324.36Z"/><path class="cls-2" d="M224.39,1080.56c-5.23,28.64-28.85,68.62-60.71,69.06s-58-38.15-64.18-67.55c-10.44-49.36,28.64-107.22,63.45-107C197.27,975.33,233.26,1032.23,224.39,1080.56Z"/><path class="cls-2" d="M425.07,745.44c-1.08,11.63-12.51,12.69-16.37,23.91-5.35,15.44,13.08,22.87,8.15,37.45-4,11.75-20.42,20.33-34.49,21.65-16.25,1.53-19.25-7.62-35.47-6.07-19.13,1.81-23.95,15.56-38.95,13.36-10.71-1.58-17.17-9.9-17.86-10.81-4.18-5.57-1.71-7.87-4.45-15.69-5-14.35-16.33-15.29-21.68-30.88a26.78,26.78,0,0,1-1.75-12.58c1-8.35,6.09-11.87,10.08-18.51,8.74-14.56-1.69-20.79,5.55-32.59,6.78-11,23.51-17.89,37.79-17.91,14.71,0,15.31,7.27,35.7,10.93,21.34,3.8,26.91-3.09,43.5,2.79a50.84,50.84,0,0,1,22.79,15.94C420.55,730.17,425.85,737,425.07,745.44Z"/><path class="cls-3" d="M292.27,941.6c-4.63,25.2-25.42,60.34-53.46,60.76s-51-33.57-56.46-59.44c-9.14-43.42,25.21-94.35,55.84-94.13C268.4,849,300.05,899.08,292.27,941.6Z"/><path class="cls-3" d="M425.07,1015.35c-1.08,11.63-12.51,12.7-16.37,23.91-5.35,15.44,13.08,22.87,8.15,37.45-4,11.75-20.42,20.33-34.49,21.65-16.25,1.53-19.25-7.61-35.47-6.07-19.13,1.82-23.95,15.56-38.95,13.36-10.71-1.57-17.17-9.89-17.86-10.8-4.18-5.58-1.71-7.88-4.45-15.7-5-14.32-16.33-15.29-21.68-30.88a26.74,26.74,0,0,1-1.75-12.57c1-8.36,6.09-11.87,10.08-18.51,8.74-14.57-1.69-20.8,5.55-32.6,6.78-11,23.51-17.89,37.79-17.91,14.71,0,15.31,7.28,35.7,10.93,21.34,3.81,26.91-3.09,43.5,2.8a50.9,50.9,0,0,1,22.79,15.93C420.55,1000.13,425.85,1007,425.07,1015.35Z"/><path class="cls-3" d="M163,699.72c-1.07,11.63-12.52,12.68-16.38,23.91-5.34,15.44,13.08,22.87,8.16,37.45-4,11.74-20.43,20.33-34.49,21.65C104,784.24,101,775.1,84.83,776.64c-19.14,1.84-24,15.58-38.94,13.38C35.17,788.44,28.7,780.12,28,779.2c-4.17-5.58-1.71-7.86-4.44-15.7-5-14.32-16.34-15.28-21.66-30.88A26.55,26.55,0,0,1,.14,720.06c1-8.37,6.11-11.87,10.09-18.52C19,687,8.52,680.76,15.76,668.94c6.78-11,23.52-17.87,37.79-17.89,14.61,0,15.32,7.27,35.7,10.91,21.35,3.81,26.92-3.09,43.5,2.81a50.57,50.57,0,0,1,22.79,15.92C158.48,684.49,163.78,691.35,163,699.72Z"/><path class="cls-4" d="M270.49,1313.07c-4.49,24.6-24.77,58.88-52.17,59.31s-49.78-32.77-55.1-58c-8.91-42.39,24.62-92.09,54.5-91.87C247.2,1222.72,278.1,1271.57,270.49,1313.07Z"/><path class="cls-2" d="M711.32,1396.31c-5.25,28.63-28.85,68.62-60.74,69.06s-58-38.08-64.22-67.55c-10.43-49.36,28.67-107.24,63.45-107C684.2,1291.08,720.17,1348,711.32,1396.31Z"/><path class="cls-4" d="M613.8,1278.16c-4.51,24.59-24.79,58.88-52.16,59.31s-49.81-32.77-55.13-58c-8.91-42.39,24.62-92.09,54.48-91.87C590.54,1187.81,621.39,1236.66,613.8,1278.16Z"/><path class="cls-4" d="M262,811.62c-1,10.82-11.6,11.8-15.21,22.3-5,14.38,12.17,21.26,7.58,34.83-3.7,10.92-19,18.87-32.07,20.14-15.13,1.4-17.92-7.09-32.93-5.67-17.77,1.72-22.26,14.48-36.22,12.44-10-1.46-16-9.21-16.69-10-3.92-5.15-1.61-7.33-4.17-14.62-4.66-13.31-15.19-14.2-20.16-28.71a24.71,24.71,0,0,1-1.63-11.69c1-7.77,5.68-11,9.39-17.15,8.12-13.55-1.6-19.33,5.14-30.26,6.25-10.3,21.88-16.64,35.15-16.66,13.69,0,14.25,6.78,33.2,10.16,19.86,3.55,25-2.87,40.46,2.6a47.11,47.11,0,0,1,21.2,14.83C257.84,797.42,262.76,803.8,262,811.62Z"/><path class="cls-2" d="M560,1111c-1.09,11.63-12.52,12.7-16.38,23.92-5.34,15.43,13.08,22.86,8.16,37.44-4,11.76-20.43,20.33-34.49,21.65-16.26,1.51-19.28-7.61-35.47-6.07-19.14,1.82-24,15.56-39,13.36-10.7-1.57-17.17-9.89-17.86-10.8-4.17-5.6-1.71-7.88-4.44-15.72-5-14.32-16.34-15.28-21.68-30.88a26.52,26.52,0,0,1-1.76-12.55c1.05-8.36,6.1-11.87,10.08-18.53,8.74-14.56-1.69-20.77,5.55-32.59,6.78-11,23.52-17.9,37.77-17.91,14.73,0,15.33,7.27,35.72,10.91,21.34,3.82,26.91-3.07,43.48,2.81A50.51,50.51,0,0,1,552.48,1092C555.42,1095.7,560.72,1102.57,560,1111Z"/><path class="cls-3" d="M549,1012.69c-4.61,25.2-25.39,60.34-53.43,60.78s-51.1-33.57-56.48-59.44c-9.14-43.44,25.22-94.35,55.83-94.15C525.14,920.09,556.82,970.16,549,1012.69Z"/><path class="cls-4" d="M396.91,1177.15c-1,10.81-11.6,11.81-15.21,22.31-5,14.39,12.16,21.27,7.57,34.84-3.69,10.92-19,18.87-32.07,20.12-15.13,1.42-17.92-7.09-32.92-5.64-17.8,1.71-22.27,14.47-36.23,12.43-10-1.47-16-9.21-16.69-10-3.9-5.15-1.58-7.32-4.17-14.62-4.65-13.31-15.19-14.2-20.16-28.71a24.56,24.56,0,0,1-1.62-11.68c1-7.78,5.67-11,9.36-17.16,8.14-13.55-1.58-19.33,5.16-30.26,6.26-10.29,21.88-16.64,35.13-16.66,13.71,0,14.28,6.76,33.22,10.16,19.87,3.55,25-2.87,40.46,2.61a47,47,0,0,1,21.2,14.82C392.71,1163,397.64,1169.33,396.91,1177.15Z"/><path class="cls-4" d="M188.59,681.88c-41.38,29.16-64.68,71-57,77,4.17,3.19,14-6.09,32-2.66,7.45,1.43,6.76,3.21,14,4.43,14.61,2.47,19.32-4.34,35-3.54,12.24.62,11.18,4.86,21,4.43,14.6-.65,18.4-10.09,31-9.74,12.21.34,17.4,9.47,20,8,7.76-4.46-27.25-92.25-69-91.14C207.31,668.82,201,673.18,188.59,681.88Z"/><path class="cls-2" d="M191.43,652.73c-35.29,24.83-55.15,60.56-48.62,65.65,3.46,2.71,11.92-5.14,27.29-2.26,6.26,1.22,5.78,2.73,12,3.77,12.37,2.1,16.46-3.7,29.86-3,10.43.54,9.53,4.16,17.92,3.78,12.52-.55,15.69-8.58,26.44-8.3,10.43.29,14.85,8.06,17.06,6.86,6.64-3.81-23.22-78.67-58.88-77.73C207.41,641.6,202,645.3,191.43,652.73Z"/><path class="cls-3" d="M191.43,617.58c-35.29,24.82-55.15,60.56-48.62,65.67,3.46,2.71,11.92-5.15,27.29-2.26,6.26,1.2,5.78,2.72,12,3.77,12.37,2.09,16.46-3.71,29.86-3,10.43.53,9.53,4.14,17.92,3.78,12.52-.57,15.69-8.58,26.44-8.31,10.43.29,14.85,8.06,17.06,6.86,6.64-3.8-23.22-78.69-58.88-77.74C207.41,606.52,202,610.24,191.43,617.58Z"/><path class="cls-4" d="M140,1165.16c-41.38,29.17-64.69,71-57,77,4.17,3.18,14-6.09,32-2.65,7.45,1.42,6.78,3.2,14,4.42,14.61,2.45,19.32-4.34,35-3.53,12.25.61,11.18,4.85,21,4.42,14.61-.65,18.43-10.08,31-9.74,12.22.34,17.42,9.45,20,8,7.78-4.46-27.13-92.24-69-91.13C158.75,1152.13,152.37,1156.47,140,1165.16Z"/><path class="cls-2" d="M142.87,1136c-35.28,24.83-55.18,60.54-48.63,65.66,3.46,2.71,11.93-5.15,27.31-2.27,6.26,1.22,5.78,2.73,11.93,3.78,12.38,2.09,16.49-3.71,29.86-3,10.44.53,9.56,4.13,17.93,3.77,12.51-.55,15.71-8.58,26.45-8.3,10.44.29,14.84,8.06,17.05,6.86,6.63-3.81-23.22-78.69-58.86-77.73C158.84,1124.9,153.43,1128.61,142.87,1136Z"/><path class="cls-3" d="M142.87,1101c-35.28,24.83-55.18,60.56-48.63,65.59,3.46,2.72,11.93-5.15,27.31-2.27,6.26,1.22,5.78,2.73,11.93,3.78,12.38,2.11,16.49-3.69,29.86-3,10.44.53,9.56,4.15,17.93,3.77,12.51-.55,15.71-8.58,26.45-8.3,10.44.29,14.84,8.08,17.05,6.86,6.63-3.79-23.22-78.67-58.86-77.73C158.84,1089.82,153.43,1093.54,142.87,1101Z"/><path class="cls-4" d="M418.27,1298.44c-41.37,29.16-64.68,71-57,77,4.07,3.19,14-6.09,32-2.64,7.44,1.41,6.78,3.19,14,4.41,14.6,2.47,19.32-4.34,35-3.53,12.25.61,11.2,4.85,21,4.42,14.6-.65,18.42-10.09,31-9.72,12.2.34,17.4,9.45,20,8,7.79-4.47-27.23-92.26-69-91.15C437,1285.38,430.62,1289.74,418.27,1298.44Z"/><path class="cls-2" d="M421.11,1269.29c-35.28,24.83-55.15,60.56-48.64,65.65,3.49,2.73,11.94-5.14,27.32-2.26,6.26,1.22,5.78,2.73,11.93,3.77,12.37,2.11,16.48-3.68,29.86-3,10.43.53,9.56,4.15,17.92,3.77,12.52-.55,15.71-8.58,26.46-8.3,10.43.29,14.83,8.08,17.07,6.86,6.61-3.79-23.25-78.67-58.88-77.73C437.07,1258.16,431.67,1261.88,421.11,1269.29Z"/><path class="cls-3" d="M421.11,1234.23c-35.28,24.8-55.15,60.54-48.64,65.65,3.49,2.71,11.94-5.15,27.32-2.26,6.26,1.2,5.78,2.72,11.93,3.77,12.37,2.09,16.48-3.71,29.86-3,10.43.53,9.56,4.13,17.92,3.77,12.52-.54,15.71-8.57,26.46-8.3,10.43.29,14.83,8.06,17.07,6.86,6.61-3.8-23.25-78.69-58.88-77.72C437.07,1223.15,431.67,1226.8,421.11,1234.23Z"/><path class="cls-4" d="M351.92,878.34c-41.37,29.16-64.68,71-57,77,4.07,3.17,14-6.11,32-2.66,7.45,1.42,6.79,3.19,14,4.42,14.5,2.46,19.32-4.34,35-3.55,12.22.64,11.18,4.87,21,4.43,14.6-.64,18.42-10.09,31-9.73,12.21.34,17.41,9.45,20,8,7.77-4.46-27.25-92.24-69-91.13C370.64,865.23,364.29,869.59,351.92,878.34Z"/><path class="cls-2" d="M354.76,849.17c-35.28,24.82-55.15,60.56-48.62,65.67,3.47,2.71,11.92-5.15,27.3-2.26,6.36,1.2,5.77,2.72,11.93,3.77,12.37,2.09,16.48-3.71,29.88-3,10.43.53,9.53,4.14,17.9,3.78,12.52-.57,15.71-8.58,26.46-8.31,10.43.29,14.83,8.06,17.07,6.86,6.63-3.8-23.25-78.69-58.89-77.72C370.72,838,365.32,841.73,354.76,849.17Z"/><path class="cls-3" d="M354.76,814.07c-35.28,24.83-55.15,60.56-48.62,65.65,3.47,2.72,11.92-5.14,27.3-2.26,6.36,1.22,5.77,2.73,11.93,3.77,12.37,2.1,16.48-3.7,29.88-3,10.43.54,9.53,4.16,17.9,3.78,12.52-.55,15.71-8.58,26.46-8.3,10.43.29,14.83,8.06,17.07,6.86,6.63-3.81-23.25-78.67-58.89-77.73C370.72,802.94,365.32,806.66,354.76,814.07Z"/><path class="cls-4" d="M73.69,893.77c-41.38,29.17-64.67,71-56.95,77,4.18,3.19,14-6.09,32-2.66,7.45,1.42,6.78,3.21,14,4.43,14.61,2.47,19.32-4.35,35-3.54,12.23.62,11.19,4.86,21,4.43,14.61-.65,18.43-10.09,31-9.75,12.21.35,17.4,9.47,20,8,7.76-4.46-27.25-92.26-69-91.14C92.4,880.72,86.06,885.08,73.69,893.77Z"/><path class="cls-2" d="M76.52,864.61c-35.28,24.82-55.14,60.56-48.63,65.65C31.37,933,39.82,925.12,55.2,928c6.36,1.22,5.78,2.73,11.93,3.77,12.38,2.1,16.49-3.7,29.88-3,10.43.53,9.54,4.15,17.9,3.78,12.52-.55,15.72-8.58,26.46-8.31,10.43.3,14.84,8.07,17.07,6.87,6.61-3.81-23.24-78.68-58.88-77.73C92.48,853.49,87.08,857.22,76.52,864.61Z"/><path class="cls-3" d="M76.52,829.55c-35.28,24.77-55.14,60.55-48.63,65.67,3.48,2.71,11.93-5.15,27.31-2.27,6.36,1.2,5.78,2.73,11.93,3.78,12.38,2.09,16.49-3.71,29.88-3,10.43.53,9.54,4.13,17.9,3.77,12.52-.57,15.72-8.58,26.46-8.3,10.43.29,14.84,8.06,17.07,6.86,6.61-3.81-23.24-78.69-58.88-77.73C92.48,818.43,87.08,822.14,76.52,829.55Z"/><path class="cls-2" d="M2769.92,1495.5c5.26,28.65,28.88,68.62,60.74,69.06s58-38.15,64.18-67.55c10.43-49.36-28.67-107.22-63.45-107C2797,1390.27,2761.07,1447.17,2769.92,1495.5Z"/><path class="cls-2" d="M2491.14,1567.12c1.06,11.61,12.52,12.68,16.36,23.89,5.36,15.44-13.06,22.87-8.14,37.47,4,11.73,20.43,20.33,34.49,21.63,16.25,1.53,19.26-7.61,35.47-6.07,19.11,1.82,23.95,15.56,38.93,13.36,10.73-1.57,17.2-9.89,17.89-10.8,4.17-5.58,1.71-7.88,4.44-15.7,5-14.32,16.32-15.29,21.66-30.88a26.45,26.45,0,0,0,1.75-12.56c-1-8.37-6.09-11.87-10.08-18.52-8.72-14.57,1.71-20.8-5.53-32.6-6.78-11-23.53-17.87-37.78-17.91-14.73,0-15.32,7.29-35.7,10.93-21.37,3.81-26.92-3.09-43.51,2.8a50.87,50.87,0,0,0-22.78,15.93C2495.67,1551.83,2490.37,1558.69,2491.14,1567.12Z"/><path class="cls-3" d="M2624,1763.27c4.61,25.2,25.39,60.33,53.43,60.78s51-33.59,56.48-59.46c9.14-43.42-25.22-94.35-55.83-94.13C2647.84,1670.66,2616.16,1720.74,2624,1763.27Z"/><path class="cls-3" d="M2491.14,1837c1.06,11.62,12.52,12.68,16.36,23.9,5.36,15.44-13.06,22.87-8.14,37.46,4,11.74,20.43,20.33,34.49,21.64,16.25,1.52,19.26-7.62,35.47-6.08,19.11,1.84,23.95,15.58,38.93,13.37,10.73-1.56,17.2-9.9,17.89-10.81,4.17-5.58,1.71-7.87,4.44-15.7,5-14.32,16.32-15.28,21.66-30.88a26.39,26.39,0,0,0,1.75-12.55c-1-8.37-6.09-11.87-10.08-18.53-8.72-14.56,1.71-20.79-5.53-32.59-6.78-11-23.53-17.88-37.78-17.91-14.73,0-15.32,7.29-35.7,10.92-21.37,3.81-26.92-3.08-43.51,2.8a50.81,50.81,0,0,0-22.78,15.94C2495.67,1821.75,2490.37,1828.61,2491.14,1837Z"/><path class="cls-4" d="M2819.06,1603.69c4.5,24.6,24.78,58.88,52.16,59.31s49.8-32.77,55.1-58c8.93-42.39-24.6-92.07-54.48-91.87C2842.34,1513.34,2811.44,1562.19,2819.06,1603.69Z"/><path class="cls-2" d="M2207.19,2049c5.23,28.63,28.85,68.62,60.73,69.07s58-38.15,64.16-67.56c10.44-49.35-28.64-107.23-63.43-107C2234.31,1943.73,2198.32,2000.62,2207.19,2049Z"/><path class="cls-4" d="M2277.73,1910.76c4.51,24.6,24.79,58.88,52.16,59.31s49.81-32.77,55.11-58c8.93-42.39-24.6-92.07-54.48-91.87C2301,1820.41,2270.18,1869.27,2277.73,1910.76Z"/><path class="cls-4" d="M2654.1,1633.28c1,10.83,11.62,11.81,15.23,22.31,5,14.37-12.17,21.25-7.58,34.82,3.7,10.93,19,18.87,32.07,20.14,15.13,1.41,17.93-7.09,32.91-5.66,17.8,1.71,22.28,14.48,36.24,12.44,10-1.46,16-9.22,16.69-10.06,3.92-5.14,1.61-7.32,4.17-14.6,4.64-13.33,15.17-14.22,20.14-28.73a24.83,24.83,0,0,0,1.65-11.68c-1-7.77-5.68-11-9.39-17.16-8.12-13.55,1.58-19.33-5.15-30.26-6.26-10.29-21.87-16.64-35.14-16.66-13.69,0-14.25,6.78-33.22,10.16-19.84,3.55-25-2.87-40.44,2.61a47.13,47.13,0,0,0-21.22,14.82C2658.37,1619.08,2653.45,1625.46,2654.1,1633.28Z"/><path class="cls-2" d="M2356.27,1932.64c1.06,11.63,12.52,12.69,16.38,23.91,5.34,15.44-13.09,22.87-8.16,37.45,4,11.75,20.42,20.33,34.49,21.65,16.25,1.51,19.26-7.62,35.47-6.08,19.11,1.82,24,15.56,38.93,13.37,10.73-1.58,17.2-9.9,17.88-10.81,4.18-5.59,1.71-7.87,4.45-15.71,5-14.33,16.31-15.27,21.66-30.88a26.51,26.51,0,0,0,1.75-12.58c-1-8.35-6.09-11.87-10.08-18.51-8.72-14.58,1.71-20.79-5.53-32.59-6.78-11-23.51-17.89-37.78-17.91-14.74,0-15.32,7.27-35.71,10.93-21.34,3.81-26.91-3.09-43.5,2.79a50.81,50.81,0,0,0-22.78,15.94C2360.79,1917.37,2355.49,1924.23,2356.27,1932.64Z"/><path class="cls-3" d="M2367.2,1834.36c4.61,25.2,25.39,60.33,53.44,60.78s51-33.58,56.48-59.45c9.14-43.43-25.23-94.35-55.84-94.14C2391.05,1741.75,2359.4,1791.83,2367.2,1834.36Z"/><path class="cls-4" d="M1955.34,1966.36c1,10.81,11.63,11.79,15.23,22.3,5,14.38-12.16,21.27-7.57,34.84,3.69,10.91,19,18.87,32.07,20.13,15.13,1.4,17.92-7.09,32.93-5.66,17.77,1.71,22.26,14.49,36.22,12.43,10-1.46,16-9.19,16.69-10.05,3.92-5.15,1.61-7.32,4.17-14.6,4.66-13.33,15.17-14.22,20.14-28.72a25,25,0,0,0,1.65-11.68c-1-7.79-5.68-11-9.39-17.15-8.12-13.54,1.58-19.32-5.14-30.26-6.26-10.3-21.88-16.63-35.15-16.66-13.69,0-14.25,6.86-33.22,10.15-19.84,3.56-25-2.86-40.44,2.61a47.18,47.18,0,0,0-21.32,14.76C1959.56,1952.23,1954.63,1958.52,1955.34,1966.36Z"/><path class="cls-4" d="M2727.62,1503.54c41.38,29.17,64.69,71,57,77-4.18,3.19-14-6.09-32-2.66-7.45,1.42-6.76,3.2-14,4.42-14.61,2.47-19.32-4.34-35-3.53-12.25.62-11.19,4.85-21,4.42-14.61-.65-18.41-10.08-31-9.74-12.2.34-17.4,9.47-20,8-7.78-4.46,27.13-92.26,69-91.15C2708.89,1490.49,2715.25,1494.84,2727.62,1503.54Z"/><path class="cls-2" d="M2724.77,1474.4c35.3,24.82,55.14,60.55,48.63,65.65-3.46,2.73-11.91-5.15-27.29-2.27-6.26,1.22-5.78,2.73-12,3.78-12.38,2.09-16.49-3.71-29.86-3-10.44.53-9.54,4.15-17.93,3.77-12.52-.55-15.69-8.58-26.43-8.3-10.43.29-14.86,8.06-17.07,6.86-6.64-3.81,23.22-78.67,58.86-77.73C2708.8,1463.31,2714.23,1467,2724.77,1474.4Z"/><path class="cls-3" d="M2724.77,1439.3c35.3,24.82,55.14,60.55,48.63,65.67-3.46,2.71-11.91-5.15-27.29-2.27-6.26,1.2-5.78,2.73-12,3.78-12.38,2.09-16.49-3.71-29.86-3-10.44.53-9.54,4.13-17.93,3.77-12.52-.57-15.69-8.58-26.43-8.3-10.43.29-14.86,8.06-17.07,6.86-6.64-3.81,23.22-78.69,58.86-77.73C2708.8,1428.2,2714.23,1431.9,2724.77,1439.3Z"/><path class="cls-4" d="M2222.86,1907c41.37,29.16,64.68,71,57,77-4.17,3.18-14-6.1-32-2.66-7.45,1.43-6.78,3.19-14,4.43-14.5,2.45-19.32-4.34-35-3.55-12.23.63-11.18,4.87-21,4.42-14.61-.63-18.42-10.08-31-9.72-12.2.34-17.4,9.45-20,8-7.76-4.46,27.25-92.24,69.05-91.13C2204.14,1893.9,2210.48,1898.27,2222.86,1907Z"/><path class="cls-2" d="M2220.1,1877.83c35.28,24.82,55.15,60.55,48.64,65.66-3.49,2.71-11.94-5.14-27.31-2.26-6.26,1.2-5.78,2.73-11.94,3.77-12.37,2.1-16.48-3.7-29.88-3-10.43.54-9.53,4.14-17.9,3.78-12.52-.57-15.71-8.58-26.46-8.3-10.43.29-14.83,8.06-17.07,6.86-6.61-3.81,23.25-78.69,58.89-77.73C2204.06,1866.71,2209.46,1870.41,2220.1,1877.83Z"/><path class="cls-3" d="M2220.1,1842.76c35.28,24.82,55.15,60.56,48.64,65.65-3.49,2.71-11.94-5.14-27.31-2.26-6.26,1.22-5.78,2.73-11.94,3.77-12.37,2.1-16.48-3.7-29.88-3-10.43.53-9.53,4.15-17.9,3.78-12.52-.55-15.71-8.58-26.46-8.31-10.43.3-14.83,8.07-17.07,6.87-6.61-3.81,23.25-78.68,58.89-77.73C2204.06,1831.63,2209.46,1835.33,2220.1,1842.76Z"/><path class="cls-4" d="M2156.5,2084.44c41.38,29.16,64.69,71,57,77-4.07,3.17-14-6.11-32-2.66-7.45,1.42-6.78,3.19-14,4.43-14.6,2.45-19.32-4.34-35-3.56-12.25.64-11.18,4.88-21,4.43-14.61-.63-18.43-10.09-31-9.73-12.22.35-17.42,9.46-20,8-7.78-4.46,27.13-92.24,69-91.12C2137.79,2071.38,2144.15,2075.74,2156.5,2084.44Z"/><path class="cls-2" d="M2153.67,2055.29c35.28,24.83,55.14,60.56,48.63,65.67-3.46,2.71-11.93-5.15-27.31-2.26-6.26,1.2-5.78,2.72-11.93,3.77-12.38,2.09-16.49-3.71-29.86-3-10.43.53-9.56,4.14-17.93,3.78-12.51-.57-15.71-8.58-26.45-8.31-10.43.29-14.84,8.06-17.05,6.86-6.63-3.8,23.22-78.68,58.86-77.72C2137.7,2044.18,2143.11,2047.88,2153.67,2055.29Z"/><path class="cls-3" d="M2153.67,2020.23c35.28,24.82,55.14,60.55,48.63,65.65-3.46,2.71-11.93-5.15-27.31-2.27-6.26,1.22-5.78,2.73-11.93,3.78-12.38,2.09-16.49-3.71-29.86-3-10.43.53-9.56,4.15-17.93,3.77-12.51-.55-15.71-8.57-26.45-8.3-10.43.29-14.84,8.06-17.05,6.86-6.63-3.81,23.22-78.67,58.86-77.73C2137.7,2009.09,2143.11,2012.82,2153.67,2020.23Z"/><path class="cls-4" d="M2564.38,1700c41.37,29.16,64.68,71,57,77-4.17,3.17-14-6.09-32-2.66-7.45,1.42-6.76,3.19-14,4.43-14.6,2.45-19.32-4.35-35-3.54-12.25.62-11.18,4.86-21,4.41-14.61-.64-18.4-10.09-31-9.73-12.2.35-17.4,9.46-20,8-7.78-4.46,27.13-92.24,69-91.12C2545.6,1686.91,2551.86,1691.25,2564.38,1700Z"/><path class="cls-2" d="M2561.43,1670.89c35.31,24.8,55.15,60.54,48.64,65.65-3.46,2.71-11.91-5.15-27.29-2.27-6.26,1.21-5.78,2.73-12,3.78-12.37,2.09-16.48-3.71-29.86-3-10.43.53-9.53,4.13-17.92,3.77-12.52-.55-15.69-8.57-26.43-8.3-10.44.29-14.86,8.06-17.07,6.86-6.64-3.81,23.22-78.69,58.86-77.73C2545.47,1659.69,2550.9,1663.39,2561.43,1670.89Z"/><path class="cls-3" d="M2561.43,1635.74c35.31,24.82,55.15,60.55,48.64,65.65-3.46,2.73-11.91-5.15-27.29-2.27-6.26,1.22-5.78,2.73-12,3.78-12.37,2.11-16.48-3.69-29.86-3-10.43.53-9.53,4.15-17.92,3.77-12.52-.55-15.69-8.57-26.43-8.3-10.44.29-14.86,8.08-17.07,6.86-6.64-3.81,23.22-78.67,58.86-77.73C2545.47,1624.57,2550.9,1628.33,2561.43,1635.74Z"/><path class="cls-4" d="M2978.92,1425.93c41.38,29.17,64.69,71,57,77-4.18,3.19-14-6.09-32-2.64-7.45,1.4-6.76,3.19-14,4.4-14.61,2.47-19.32-4.32-35-3.53-12.25.64-11.19,4.86-21,4.43-14.61-.66-18.41-10.09-31-9.73-12.2.34-17.4,9.45-20,8-7.78-4.46,27.13-92.26,69-91.14C2960.19,1412.88,2966.55,1417.24,2978.92,1425.93Z"/><path class="cls-2" d="M2976.07,1396.79c35.3,24.82,55.14,60.55,48.63,65.65-3.46,2.73-11.91-5.15-27.29-2.27-6.26,1.22-5.78,2.73-12,3.78-12.37,2.11-16.48-3.69-29.85-3-10.44.53-9.54,4.15-17.93,3.77-12.52-.55-15.69-8.57-26.43-8.3-10.44.29-14.86,8.08-17.07,6.86-6.64-3.79,23.22-78.67,58.86-77.73C2960.1,1385.65,2965.53,1389.38,2976.07,1396.79Z"/><path class="cls-3" d="M2976.07,1361.72c35.3,24.81,55.14,60.54,48.63,65.65-3.46,2.72-11.91-5.14-27.29-2.26-6.26,1.22-5.78,2.73-12,3.77-12.37,2.1-16.48-3.7-29.85-3-10.44.53-9.54,4.13-17.93,3.77-12.52-.55-15.69-8.58-26.43-8.3-10.44.29-14.86,8.06-17.07,6.86-6.64-3.81,23.22-78.69,58.86-77.73C2960.1,1350.59,2965.53,1354.3,2976.07,1361.72Z"/><path class="cls-2" d="M1647.94,2100.13c5.23,28.65,28.85,68.62,60.74,69.07s58-38.15,64.16-67.54c10.43-49.37-28.65-107.23-63.43-107C1675.06,1994.91,1639.07,2051.81,1647.94,2100.13Z"/><path class="cls-2" d="M1405.44,2197.4c1.07,11.62,12.52,12.68,16.38,23.92,5.34,15.44-13.08,22.85-8.16,37.45,4,11.73,20.43,20.32,34.49,21.63,16.26,1.52,19.26-7.62,35.47-6.08,19.12,1.84,24,15.58,38.94,13.37,10.72-1.56,17.19-9.9,17.88-10.81,4.17-5.57,1.71-7.87,4.44-15.7,5-14.32,16.32-15.28,21.66-30.87a26.46,26.46,0,0,0,1.76-12.56c-1-8.37-6.1-11.87-10.08-18.53-8.72-14.56,1.71-20.77-5.53-32.59-6.78-11-23.54-17.88-37.79-17.9-14.73,0-15.31,7.28-35.7,10.91-21.36,3.81-26.91-3.08-43.5,2.8a50.79,50.79,0,0,0-22.79,15.94C1410,2182.1,1404.67,2189,1405.44,2197.4Z"/><path class="cls-3" d="M1350.25,2139.21c4.62,25.2,25.4,60.34,53.44,60.78s51-33.59,56.48-59.46c9.14-43.41-25.22-94.35-55.83-94.12C1374.12,2046.66,1342.45,2096.74,1350.25,2139.21Z"/><path class="cls-3" d="M1138.39,2101.11c1.06,11.63,12.52,12.7,16.36,23.92,5.36,15.44-13.06,22.86-8.14,37.45,4,11.75,20.43,20.32,34.49,21.64,16.26,1.51,19.26-7.61,35.47-6.07,19.11,1.82,23.93,15.56,38.94,13.37,10.72-1.58,17.19-9.9,17.88-10.81,4.17-5.59,1.71-7.88,4.44-15.72,5-14.32,16.32-15.28,21.66-30.87a26.33,26.33,0,0,0,1.75-12.56c-1-8.36-6.09-11.87-10.07-18.51-8.73-14.58,1.71-20.79-5.53-32.6-6.79-11-23.54-17.89-37.79-17.91-14.73,0-15.34,7.28-35.7,10.91-21.45,3.81-27-3-43.65,2.87a50.64,50.64,0,0,0-22.81,15.94C1142.92,2085.84,1137.6,2092.71,1138.39,2101.11Z"/><path class="cls-4" d="M1751.2,2218.13c4.51,24.6,24.79,58.87,52.16,59.3s49.79-32.77,55.11-58c8.91-42.37-24.6-92.07-54.48-91.86C1774.51,2127.84,1743.6,2176.7,1751.2,2218.13Z"/><path class="cls-4" d="M1559,2219.74c1,10.82,11.62,11.8,15.23,22.3,5,14.38-12.16,21.25-7.57,34.82,3.69,10.93,19,18.87,32.07,20.14,15.12,1.41,17.92-7.08,32.9-5.66,17.8,1.72,22.29,14.48,36.24,12.44,10-1.46,16-9.21,16.7-10.05,3.92-5.15,1.6-7.33,4.17-14.62,4.63-13.31,15.17-14.2,20.13-28.72a24.79,24.79,0,0,0,1.65-11.68c-1-7.77-5.67-11-9.39-17.15-8.11-13.56,1.59-19.34-5.15-30.26-6.26-10.3-21.87-16.64-35.14-16.66-13.69,0-14.25,6.86-33.21,10.15-19.85,3.55-25-2.86-40.44,2.61a47.1,47.1,0,0,0-21.22,14.82C1563.2,2205.53,1558.28,2211.92,1559,2219.74Z"/><path class="cls-2" d="M1876.58,2153.55c1.06,11.64,12.52,12.7,16.36,23.92,5.36,15.44-13.09,22.87-8.14,37.45,4,11.75,20.4,20.33,34.47,21.65,16.27,1.52,19.28-7.62,35.47-6.08,19.13,1.82,24,15.56,39,13.37,10.71-1.58,17.18-9.9,17.86-10.81,4.18-5.58,1.74-7.87,4.47-15.7,5-14.32,16.32-15.28,21.66-30.88a26.47,26.47,0,0,0,1.75-12.57c-1-8.35-6.09-11.87-10.08-18.51-8.72-14.56,1.71-20.79-5.53-32.59-6.78-11-23.53-17.9-37.78-17.91-14.73,0-15.34,7.27-35.73,10.92-21.34,3.81-26.89-3.08-43.48,2.8a50.82,50.82,0,0,0-22.8,15.94C1881.08,2138.29,1875.83,2145.15,1876.58,2153.55Z"/><path class="cls-3" d="M1022.44,2219c4.61,25.22,25.4,60.33,53.44,60.78s51-33.57,56.48-59.44c9.14-43.44-25.23-94.36-55.83-94.15C1046.29,2126.43,1014.62,2176.49,1022.44,2219Z"/><path class="cls-4" d="M944.26,2011.27c1,10.81,11.62,11.79,15.23,22.3,5,14.38-12.16,21.28-7.59,34.85,3.69,10.91,19,18.87,32.09,20.12,15.1,1.41,17.9-7.09,32.9-5.66,17.8,1.71,22.29,14.49,36.22,12.43,10-1.45,16-9.19,16.7-10,3.9-5.14,1.58-7.32,4.17-14.6,4.65-13.33,15.19-14.22,20.16-28.71a24.71,24.71,0,0,0,1.62-11.69c-1-7.78-5.67-11-9.37-17.15-8.11-13.54,1.59-19.32-5.15-30.26-6.26-10.3-21.89-16.63-35.14-16.66-13.7,0-14.27,6.86-33.21,10.16-19.87,3.55-25-2.87-40.46,2.6a47.26,47.26,0,0,0-21.2,14.83C948.46,1997.07,943.53,2003.43,944.26,2011.27Z"/><path class="cls-4" d="M1587.72,2053.05c41.38,29.16,64.68,71,57,77-4.18,3.19-14-6.09-32-2.66-7.45,1.42-6.78,3.21-14,4.43-14.61,2.45-19.32-4.34-35-3.54-12.25.62-11.19,4.86-21,4.43-14.6-.65-18.42-10.09-31-9.75-12.23.35-17.42,9.47-20,8-7.78-4.46,27.23-92.24,69-91.12C1569.11,2040,1575.37,2044.35,1587.72,2053.05Z"/><path class="cls-2" d="M1584.88,2023.9c35.29,24.82,55.15,60.56,48.64,65.65-3.48,2.71-11.93-5.15-27.31-2.26-6.26,1.21-5.78,2.72-11.94,3.77-12.37,2.09-16.48-3.71-29.86-3-10.43.53-9.55,4.15-17.92,3.77-12.52-.54-15.71-8.57-26.46-8.3-10.43.29-14.83,8.06-17.06,6.86-6.62-3.8,23.24-78.69,58.88-77.72C1568.92,2012.77,1574.33,2016.47,1584.88,2023.9Z"/><path class="cls-3" d="M1581.94,1987.79c37.7,22.3,61.12,56.61,55.15,62.08-3.19,3-12.52-4.36-27.44-.38-6.26,1.72-5.49,3.11-11.52,4.58-12.12,2.94-16.69-2.55-30.06-1-10.44,1.26-9.1,4.79-17.47,5-12.52.3-16.52-7.5-27.12-6.45-10.44,1-14,9.05-16.32,7.94-7-3.35,15.15-80,50.77-81.5C1564.94,1977.79,1570.67,1981.11,1581.94,1987.79Z"/><path class="cls-4" d="M1320.08,2216.29c41.38,29.16,64.69,71,57,77-4.17,3.17-14-6.11-32-2.66-7.47,1.43-6.78,3.19-14,4.43-14.5,2.45-19.32-4.34-35-3.55-12.23.63-11.19,4.87-21,4.42-14.61-.63-18.43-10.08-31-9.72-12.2.34-17.4,9.45-20,8-7.76-4.46,27.25-92.25,69-91.13C1301.37,2203.24,1307.71,2207.59,1320.08,2216.29Z"/><path class="cls-2" d="M1317.25,2187.14c35.28,24.83,55.14,60.56,48.61,65.67-3.46,2.71-11.91-5.14-27.29-2.26-6.26,1.2-5.78,2.73-11.93,3.77-12.38,2.1-16.49-3.7-29.88-3-10.44.53-9.54,4.14-17.91,3.78-12.51-.57-15.71-8.58-26.45-8.31-10.44.3-14.84,8.07-17.07,6.87-6.64-3.81,23.24-78.69,58.88-77.73C1301.28,2176,1306.69,2179.73,1317.25,2187.14Z"/><path class="cls-3" d="M1317.25,2152.08c35.28,24.82,55.14,60.56,48.61,65.65-3.46,2.71-11.91-5.15-27.29-2.26-6.26,1.21-5.78,2.72-11.93,3.77-12.38,2.09-16.49-3.7-29.88-3-10.44.53-9.54,4.15-17.91,3.78-12.51-.55-15.71-8.58-26.45-8.31-10.44.29-14.84,8.07-17.07,6.86-6.64-3.8,23.24-78.67,58.88-77.72C1301.28,2140.93,1306.69,2144.67,1317.25,2152.08Z"/><path class="cls-4" d="M1890.66,2015.84c41.38,29.16,64.68,71,57,77-4.18,3.19-14-6.09-32-2.66-7.47,1.42-6.78,3.21-14,4.43-14.61,2.47-19.32-4.34-35-3.54-12.23.62-11.19,4.86-21,4.43-14.6-.65-18.4-10.09-31-9.75-12.21.35-17.4,9.47-20,8-7.76-4.48,27.25-92.26,69-91.14C1872,2002.78,1878.29,2007.12,1890.66,2015.84Z"/><path class="cls-2" d="M1887.82,1986.69c35.29,24.82,55.15,60.56,48.62,65.65-3.46,2.71-11.91-5.14-27.29-2.26-6.37,1.22-5.78,2.72-12,3.77-12.37,2.09-16.46-3.7-29.86-3-10.43.53-9.53,4.15-17.9,3.78-12.52-.55-15.71-8.58-26.45-8.31-10.44.29-14.84,8.07-17.07,6.87-6.64-3.81,23.22-78.68,58.88-77.73C1871.84,1975.56,1877.27,1979.26,1887.82,1986.69Z"/><path class="cls-3" d="M1887.82,1951.61c35.29,24.82,55.15,60.56,48.62,65.65-3.46,2.73-11.91-5.15-27.29-2.25-6.37,1.2-5.78,2.73-12,3.76-12.37,2.11-16.46-3.69-29.86-3-10.43.53-9.53,4.13-17.9,3.75-12.52-.54-15.71-8.57-26.45-8.28-10.44.29-14.84,8.06-17.07,6.77-6.64-3.79,23.22-78.67,58.88-77.72C1871.84,1940.48,1877.27,1944.2,1887.82,1951.61Z"/><path class="cls-2" d="M3023.26,1107.06c5.24,28.63,28.86,68.62,60.74,69.07s58-38.16,64.16-67.56c10.43-49.35-28.65-107.22-63.43-107C3050.39,1001.85,3014.39,1058.74,3023.26,1107.06Z"/><path class="cls-2" d="M2822.58,772c1.09,11.63,12.52,12.69,16.38,23.91,5.34,15.44-13.08,22.87-8.16,37.45,4,11.75,20.43,20.33,34.49,21.65,16.26,1.52,19.28-7.62,35.47-6.08,19.14,1.82,24,15.56,39,13.37,10.7-1.58,17.17-9.9,17.86-10.81,4.17-5.57,1.71-7.87,4.44-15.71,5-14.33,16.34-15.27,21.68-30.88a26.66,26.66,0,0,0,1.75-12.58c-1-8.35-6.09-11.87-10.07-18.51-8.75-14.56,1.71-20.79-5.55-32.59-6.78-11-23.52-17.89-37.77-17.91-14.73,0-15.34,7.27-35.72,10.93-21.35,3.81-26.92-3.09-43.48,2.79A50.64,50.64,0,0,0,2830.05,753C2827.11,756.67,2821.81,763.54,2822.58,772Z"/><path class="cls-3" d="M2955.39,968.09c4.63,25.22,25.41,60.35,53.45,60.78s51-33.57,56.47-59.44c9.13-43.42-25.21-94.35-55.84-94.13C2979.26,875.5,2947.61,925.58,2955.39,968.09Z"/><path class="cls-3" d="M2822.58,1041.85c1.09,11.64,12.52,12.7,16.38,23.92,5.34,15.44-13.08,22.87-8.16,37.45,4,11.75,20.43,20.33,34.49,21.65,16.26,1.52,19.28-7.62,35.47-6.08,19.14,1.82,24,15.56,39,13.37,10.7-1.58,17.17-9.9,17.86-10.81,4.17-5.58,1.71-7.87,4.44-15.7,5-14.34,16.34-15.28,21.68-30.88a26.6,26.6,0,0,0,1.75-12.57c-1-8.35-6.09-11.87-10.07-18.51-8.75-14.56,1.71-20.79-5.55-32.59-6.93-11-23.62-17.83-37.85-17.83-14.73,0-15.34,7.28-35.72,10.93-21.35,3.81-26.92-3.09-43.49,2.8a50.59,50.59,0,0,0-22.8,15.93C2827.11,1026.59,2821.81,1033.45,2822.58,1041.85Z"/><path class="cls-3" d="M3084.65,726.22c1.08,11.63,12.52,12.68,16.38,23.92,5.34,15.44-13.09,22.86-8.16,37.45,4,11.73,20.42,20.32,34.49,21.65,16.25,1.51,19.26-7.64,35.47-6.09,19.13,1.83,24,15.57,39,13.38,10.71-1.58,17.18-9.9,17.86-10.83,4.18-5.57,1.72-7.86,4.45-15.7,5-14.32,16.34-15.28,21.68-30.87a26.7,26.7,0,0,0,1.75-12.56c-1-8.37-6.09-11.87-10.08-18.53-8.74-14.56,1.69-20.77-5.55-32.59-6.78-11-23.51-17.88-37.78-17.89-14.61,0-15.32,7.27-35.7,10.91-21.35,3.8-26.92-3.09-43.51,2.79a50.81,50.81,0,0,0-22.78,15.94C3089.17,711,3083.92,717.8,3084.65,726.22Z"/><path class="cls-4" d="M2977.17,1339.58c4.51,24.6,24.77,58.87,52.16,59.3s49.79-32.77,55.11-58c8.93-42.39-24.6-92.09-54.48-91.86C3000.46,1249.22,2969.56,1298.08,2977.17,1339.58Z"/><path class="cls-2" d="M2536.33,1422.79c5.26,28.65,28.88,68.62,60.74,69.09s58-38.16,64.18-67.56c10.43-49.35-28.67-107.23-63.45-107C2563.46,1317.58,2527.49,1374.47,2536.33,1422.79Z"/><path class="cls-4" d="M2633.86,1304.67c4.5,24.58,24.78,58.87,52.16,59.3s49.78-32.77,55.1-58c8.91-42.37-24.62-92.07-54.47-91.86C2657.14,1214.31,2626.26,1263.17,2633.86,1304.67Z"/><path class="cls-4" d="M2985.62,838.12c1,10.83,11.62,11.81,15.21,22.31,5,14.37-12.16,21.25-7.57,34.82,3.69,10.93,19,18.87,32.07,20.14,15.12,1.41,17.92-7.1,32.92-5.66,17.8,1.71,22.29,14.48,36.22,12.44,10-1.46,16-9.22,16.7-10.06,3.9-5.14,1.58-7.32,4.17-14.61,4.65-13.32,15.19-14.21,20.16-28.72a24.54,24.54,0,0,0,1.62-11.68c-1-7.77-5.67-11-9.37-17.16-8.13-13.55,1.59-19.33-5.15-30.26-6.26-10.29-21.89-16.64-35.14-16.66-13.7,0-14.27,6.78-33.21,10.16-19.87,3.55-25-2.87-40.46,2.61a47.09,47.09,0,0,0-21.2,14.82C2989.82,823.92,2984.89,830.3,2985.62,838.12Z"/><path class="cls-2" d="M2687.71,1137.48c1.08,11.63,12.52,12.69,16.38,23.91,5.34,15.44-13.08,22.87-8.16,37.45,4,11.75,20.43,20.33,34.49,21.65,16.25,1.51,19.28-7.62,35.47-6.09,19.13,1.83,24,15.57,39,13.38,10.7-1.58,17.17-9.9,17.86-10.81,4.17-5.59,1.71-7.87,4.44-15.71,5-14.33,16.34-15.29,21.68-30.88a26.57,26.57,0,0,0,1.75-12.56c-1-8.37-6.09-11.87-10.08-18.53-8.74-14.56,1.72-20.77-5.55-32.59-6.78-11-23.51-17.89-37.76-17.91-14.73,0-15.34,7.27-35.72,10.91-21.35,3.83-26.9-3.07-43.49,2.81a50.56,50.56,0,0,0-22.8,15.94C2692.24,1122.21,2686.94,1129.07,2687.71,1137.48Z"/><path class="cls-3" d="M2698.64,1039.2c4.61,25.2,25.4,60.33,53.44,60.78s51-33.58,56.48-59.45c9.14-43.43-25.23-94.35-55.84-94.14C2722.51,946.59,2690.86,996.7,2698.64,1039.2Z"/><path class="cls-4" d="M2850.75,1203.66c1,10.81,11.62,11.8,15.23,22.3,5,14.39-12.16,21.27-7.59,34.84,3.69,10.91,19,18.87,32.09,20.12,15.1,1.43,17.9-7.08,32.9-5.64,17.8,1.72,22.28,14.48,36.22,12.44,10-1.48,16-9.21,16.69-10.06,3.91-5.14,1.59-7.32,4.18-14.61,4.65-13.31,15.19-14.21,20.15-28.72a24.55,24.55,0,0,0,1.63-11.68c-1-7.79-5.67-11.05-9.37-17.16-8.11-13.55,1.59-19.33-5.15-30.26-6.26-10.29-21.89-16.64-35.14-16.65-13.71,0-14.27,6.76-33.22,10.15-19.86,3.55-25-2.88-40.45,2.61a47.09,47.09,0,0,0-21.2,14.82C2854.94,1189.45,2850,1195.84,2850.75,1203.66Z"/><path class="cls-4" d="M3059.07,708.38c41.37,29.17,64.68,71,57,77-4.17,3.19-14-6.09-32-2.66-7.47,1.42-6.78,3.2-14,4.42-14.5,2.47-19.32-4.34-35-3.53-12.23.62-11.18,4.85-21,4.42-14.61-.65-18.4-10.08-31-9.74-12.2.34-17.4,9.47-20,8-7.76-4.46,27.25-92.26,69-91.15C3040.35,695.33,3046.69,699.68,3059.07,708.38Z"/><path class="cls-2" d="M3056.23,679.24c35.28,24.82,55.15,60.55,48.61,65.65-3.46,2.71-11.91-5.15-27.29-2.27-6.26,1.22-5.78,2.73-12,3.78-12.38,2.09-16.47-3.71-29.86-3-10.43.53-9.54,4.15-17.9,3.77-12.52-.55-15.71-8.58-26.46-8.3-10.43.29-14.83,8.06-17.07,6.86-6.63-3.81,23.23-78.67,58.88-77.73C3040.25,668.1,3045.67,671.81,3056.23,679.24Z"/><path class="cls-3" d="M3056.23,644.15c35.28,24.83,55.15,60.56,48.61,65.66-3.46,2.72-11.91-5.15-27.29-2.25-6.26,1.2-5.78,2.73-12,3.76-12.38,2.11-16.47-3.69-29.86-3-10.43.54-9.54,4.14-17.9,3.76-12.52-.55-15.71-8.58-26.46-8.29-10.43.3-14.83,8.07-17.07,6.78-6.63-3.79,23.23-78.67,58.88-77.73C3040.25,633,3045.67,636.74,3056.23,644.15Z"/><path class="cls-4" d="M3107.62,1191.67c41.4,29.16,64.68,71,57,77-4.17,3.17-14-6.09-32-2.66-7.45,1.42-6.78,3.19-14,4.43-14.61,2.45-19.32-4.34-35-3.54-12.24.62-11.18,4.86-21,4.43-14.6-.65-18.4-10.09-31-9.75-12.23.35-17.4,9.46-20,8-7.78-4.46,27.23-92.24,69-91.12C3088.9,1178.63,3095.27,1183,3107.62,1191.67Z"/><path class="cls-2" d="M3104.78,1162.54c35.31,24.8,55.15,60.54,48.64,65.65-3.46,2.71-11.92-5.15-27.31-2.26-6.26,1.2-5.78,2.72-11.94,3.77-12.37,2.09-16.48-3.71-29.86-3-10.43.53-9.55,4.13-17.92,3.77-12.52-.54-15.71-8.57-26.46-8.3-10.43.29-14.83,8.06-17,6.86-6.64-3.8,23.22-78.69,58.86-77.72C3088.82,1151.41,3094.35,1155.11,3104.78,1162.54Z"/><path class="cls-3" d="M3104.78,1127.46c35.31,24.82,55.15,60.55,48.64,65.65-3.46,2.73-11.92-5.15-27.31-2.27-6.26,1.22-5.78,2.73-11.94,3.78-12.37,2.11-16.48-3.69-29.86-3-10.43.53-9.55,4.15-17.92,3.77-12.52-.55-15.71-8.57-26.46-8.3-10.43.29-14.83,8.08-17,6.86-6.64-3.81,23.22-78.67,58.86-77.73C3088.82,1116.32,3094.35,1120.05,3104.78,1127.46Z"/><path class="cls-4" d="M2829.36,1324.94c41.38,29.17,64.68,71,57,77-4.07,3.19-14-6.09-32-2.66-7.45,1.42-6.78,3.21-14,4.42-14.61,2.47-19.32-4.34-35-3.53-12.25.62-11.19,4.86-21,4.43-14.61-.66-18.43-10.09-31-9.73-12.23.34-17.42,9.45-20,8-7.78-4.46,27.13-92.26,69-91.14C2810.58,1311.89,2817,1316.25,2829.36,1324.94Z"/><path class="cls-2" d="M2826.55,1295.8c35.28,24.82,55.14,60.55,48.63,65.65-3.46,2.73-11.93-5.15-27.31-2.27-6.26,1.22-5.78,2.73-11.93,3.78-12.38,2.11-16.49-3.69-29.86-3-10.44.53-9.56,4.15-17.93,3.77-12.51-.55-15.71-8.57-26.45-8.3-10.44.29-14.84,8.08-17,6.86-6.64-3.81,23.22-78.67,58.86-77.73C2810.58,1284.66,2816,1288.34,2826.55,1295.8Z"/><path class="cls-3" d="M2826.55,1260.73c35.28,24.81,55.14,60.54,48.63,65.65-3.46,2.71-11.93-5.14-27.31-2.26-6.26,1.2-5.78,2.73-11.93,3.77-12.38,2.1-16.49-3.7-29.86-3-10.44.54-9.56,4.14-17.93,3.78-12.51-.55-15.71-8.58-26.45-8.3-10.44.29-14.84,8.06-17,6.86-6.64-3.81,23.22-78.69,58.86-77.73C2810.58,1249.6,2816,1253.3,2826.55,1260.73Z"/><path class="cls-4" d="M2895.73,904.79c41.38,29.16,64.69,71,57,77-4.17,3.17-14-6.11-32-2.66-7.45,1.42-6.78,3.19-14,4.43-14.6,2.45-19.34-4.34-35-3.56-12.23.64-11.18,4.88-21,4.43-14.61-.63-18.43-10.09-31-9.73-12.2.35-17.4,9.46-20,8-7.78-4.46,27.13-92.24,69-91.12C2877,891.73,2883.36,896.09,2895.73,904.79Z"/><path class="cls-2" d="M2892.9,875.64c35.28,24.82,55.14,60.56,48.63,65.67-3.48,2.71-11.93-5.15-27.31-2.26-6.36,1.2-5.78,2.72-11.93,3.77-12.38,2.09-16.49-3.71-29.88-3-10.44.53-9.54,4.13-17.9,3.77-12.52-.56-15.72-8.57-26.46-8.3-10.43.29-14.84,8.06-17.07,6.86-6.61-3.8,23.24-78.69,58.88-77.72C2876.94,864.61,2882.34,868.23,2892.9,875.64Z"/><path class="cls-3" d="M2892.9,840.59c35.28,24.83,55.14,60.56,48.63,65.66-3.48,2.71-11.93-5.15-27.31-2.27-6.36,1.22-5.78,2.73-11.93,3.78-12.38,2.09-16.49-3.71-29.88-3-10.44.53-9.54,4.15-17.9,3.77-12.52-.55-15.72-8.58-26.46-8.3-10.43.29-14.84,8.06-17.07,6.86-6.61-3.81,23.24-78.67,58.88-77.73C2876.94,829.44,2882.34,833.15,2892.9,840.59Z"/><path class="cls-4" d="M3174,920.28c41.38,29.16,64.68,71,57,77-4.18,3.19-14-6.09-32-2.66-7.45,1.43-6.78,3.21-14,4.43-14.61,2.47-19.32-4.34-35-3.53-12.25.61-11.21,4.85-21,4.42-14.6-.65-18.42-10.09-31-9.74-12.21.34-17.4,9.47-20,8-7.78-4.46,27.12-92.25,69-91.14C3155.25,907.22,3161.6,911.58,3174,920.28Z"/><path class="cls-2" d="M3171.13,891.13c35.29,24.83,55.15,60.56,48.64,65.65-3.48,2.71-11.93-5.14-27.31-2.26-6.26,1.22-5.78,2.73-11.94,3.77-12.37,2.1-16.48-3.7-29.86-3-10.43.54-9.55,4.16-17.92,3.78-12.52-.55-15.71-8.58-26.46-8.3-10.43.29-14.83,8.06-17.06,6.86-6.62-3.81,23.24-78.67,58.88-77.73C3155.17,880.05,3160.58,883.7,3171.13,891.13Z"/><path class="cls-3" d="M3171.13,856c35.29,24.83,55.15,60.56,48.64,65.67-3.48,2.71-11.93-5.14-27.31-2.26-6.26,1.2-5.78,2.73-11.94,3.77-12.37,2.09-16.48-3.7-29.86-3-10.43.53-9.55,4.14-17.92,3.78-12.52-.57-15.71-8.58-26.46-8.31-10.43.3-14.83,8.07-17.06,6.87-6.62-3.81,23.24-78.69,58.88-77.73C3155.17,844.93,3160.58,848.64,3171.13,856Z"/><path class="cls-2" d="M1065.49,366.56c5.23,28.64,28.85,68.61,60.72,69.06s58-38.15,64.18-67.54c10.43-49.37-28.65-107.23-63.45-107C1092.61,261.33,1056.62,318.23,1065.49,366.56Z"/><path class="cls-2" d="M1625.11,509.51c1.07,11.63,12.52,12.67,16.36,23.91,5.36,15.44-13.08,22.85-8.14,37.45,4,11.73,20.41,20.33,34.47,21.63,16.28,1.53,19.28-7.62,35.47-6.07,19.14,1.83,24,15.58,39,13.36,10.7-1.56,17.17-9.88,17.86-10.81,4.17-5.57,1.73-7.87,4.46-15.69,5-14.33,16.32-15.29,21.66-30.88a26.33,26.33,0,0,0,1.75-12.56c-1-8.37-6.09-11.87-10.07-18.52-8.73-14.57,1.71-20.78-5.53-32.6-6.78-11-23.54-17.87-37.79-17.89-14.73,0-15.34,7.27-35.72,10.91-21.35,3.81-26.9-3.09-43.48,2.8a50.76,50.76,0,0,0-22.81,15.93C1629.62,494.17,1624.32,501,1625.11,509.51Z"/><path class="cls-3" d="M736.44,275.88c4.64,25.2,25.42,60.33,53.46,60.77s51-33.57,56.46-59.44c9.16-43.43-25.2-94.35-55.81-94.14C760.31,183.29,728.66,233.31,736.44,275.88Z"/><path class="cls-3" d="M901.15,279.77c1.09,11.63,12.52,12.69,16.38,23.91,5.34,15.44-13.08,22.87-8.16,37.45,4,11.74,20.43,20.33,34.5,21.65,16.25,1.51,19.27-7.63,35.47-6.09,19.13,1.84,23.95,15.58,38.95,13.38,10.7-1.58,17.17-9.9,17.86-10.82,4.17-5.58,1.73-7.86,4.47-15.7,5-14.32,16.31-15.28,21.65-30.88a26.54,26.54,0,0,0,1.76-12.55c-1-8.38-6.1-11.88-10.08-18.53-8.74-14.57,1.71-20.78-5.53-32.6-6.8-11-23.54-17.87-37.79-17.89-14.73,0-15.33,7.27-35.72,10.91-21.34,3.83-26.89-3.09-43.48,2.82a50.54,50.54,0,0,0-22.89,15.93C905.6,264.5,900.38,271.35,901.15,279.77Z"/><path class="cls-3" d="M1208,391.34c1.07,11.62,12.52,12.68,16.38,23.9,5.35,15.44-13.08,22.87-8.15,37.47,4,11.73,20.42,20.33,34.49,21.63,16.25,1.53,19.25-7.62,35.47-6.07,19.13,1.83,23.95,15.57,38.93,13.36,10.73-1.56,17.19-9.9,17.88-10.81,4.18-5.57,1.71-7.87,4.45-15.69,5-14.33,16.33-15.29,21.65-30.88a26.59,26.59,0,0,0,1.78-12.56c-1-8.37-6.12-11.87-10.1-18.53-8.72-14.56,1.71-20.77-5.53-32.59-6.78-11-23.52-17.88-37.79-17.91-14.73,0-15.31,7.29-35.7,10.93-21.34,3.8-26.91-3.09-43.5,2.79a50.79,50.79,0,0,0-22.79,15.94C1212.48,376.06,1207.18,382.92,1208,391.34Z"/><path class="cls-4" d="M842.23,235.7c4.51,24.58,24.79,58.87,52.16,59.3s49.79-32.76,55.11-58c8.91-42.39-24.6-92.08-54.48-91.86C865.54,145.34,834.66,194.2,842.23,235.7Z"/><path class="cls-2" d="M401.41,318.92c5.24,28.65,28.86,68.62,60.74,69.08s58-38.17,64.16-67.56c10.43-49.35-28.65-107.23-63.43-107C428.54,213.69,392.57,270.59,401.41,318.92Z"/><path class="cls-4" d="M498.94,200.72c4.5,24.6,24.79,58.88,52.16,59.32s49.81-32.76,55.1-58c8.94-42.37-24.6-92.07-54.47-91.86C522.22,110.42,491.32,159.27,498.94,200.72Z"/><path class="cls-4" d="M1010.32,165.66c1,10.82,11.62,11.8,15.23,22.3,5,14.37-12.16,21.25-7.59,34.82,3.69,10.93,19,18.87,32.09,20.14,15.1,1.41,17.92-7.08,32.9-5.66,17.8,1.72,22.29,14.48,36.22,12.44,10-1.46,16-9.2,16.7-10.06,3.9-5.14,1.58-7.32,4.17-14.59,4.65-13.33,15.19-14.23,20.15-28.74a24.43,24.43,0,0,0,1.63-11.68c-1-7.77-5.65-11-9.37-17.16-8.11-13.55,1.59-19.31-5.15-30.26-6.26-10.29-21.89-16.64-35.14-16.65-13.71,0-14.25,6.86-33.21,10.15-19.87,3.55-25-2.86-40.46,2.61a47.09,47.09,0,0,0-21.2,14.82C1014.54,151.45,1009.59,157.83,1010.32,165.66Z"/><path class="cls-2" d="M1834.6,270c1.08,11.62,12.52,12.68,16.38,23.92,5.34,15.44-13.09,22.85-8.16,37.45,4,11.73,20.42,20.32,34.49,21.63,16.25,1.52,19.28-7.62,35.47-6.08,19.13,1.84,24,15.58,39,13.37,10.71-1.56,17.18-9.9,17.86-10.81,4.18-5.57,1.74-7.87,4.47-15.7,5-14.32,16.32-15.28,21.66-30.87a26.7,26.7,0,0,0,1.75-12.56c-1-8.37-6.09-11.87-10.08-18.53-8.74-14.56,1.71-20.77-5.53-32.59-6.8-11-23.53-17.88-37.78-17.9-14.73,0-15.34,7.28-35.72,10.91-21.35,3.81-26.9-3.08-43.49,2.8a50.56,50.56,0,0,0-22.8,15.94C1839.12,254.76,1833.82,261.62,1834.6,270Z"/><path class="cls-3" d="M1509.91,607c4.64,25.2,25.42,60.33,53.46,60.78s51-33.58,56.46-59.44c9.14-43.44-25.2-94.36-55.83-94.15C1533.78,514.4,1502.13,564.4,1509.91,607Z"/><path class="cls-4" d="M715.73,99.78c1,10.81,11.62,11.8,15.23,22.3,5,14.4-12.17,21.27-7.58,34.84,3.7,10.91,19,18.87,32.07,20.13,15.13,1.42,17.93-7.09,32.93-5.65,17.78,1.72,22.26,14.48,36.22,12.44,9.95-1.48,16-9.21,16.69-10.07,3.92-5.15,1.61-7.31,4.18-14.6,4.65-13.33,15.16-14.22,20.13-28.72a24.79,24.79,0,0,0,1.65-11.68c-1-7.79-5.68-11-9.39-17.15-8.12-13.56,1.58-19.34-5.13-30.28-6.26-10.29-21.89-16.62-35.16-16.64-13.69,0-14.25,6.76-33.22,10.15-19.84,3.54-25-2.88-40.44,2.61a47,47,0,0,0-21.22,14.82C720,85.58,715.1,91.94,715.73,99.78Z"/><path class="cls-4" d="M1807.39,368.24c41.37,29.16,64.68,71,57,77-4.07,3.17-14-6.09-32-2.66-7.45,1.42-6.78,3.19-14,4.42-14.6,2.46-19.32-4.34-35-3.53-12.22.62-11.18,4.86-21,4.43-14.6-.66-18.42-10.09-31-9.75-12.21.35-17.41,9.45-20,8-7.77-4.46,27.25-92.24,69-91.12C1788.67,355.2,1795,359.54,1807.39,368.24Z"/><path class="cls-2" d="M1804.55,339.11c35.28,24.8,55.15,60.54,48.64,65.65-3.49,2.71-11.94-5.15-27.31-2.27-6.26,1.22-5.78,2.73-11.94,3.78-12.37,2.09-16.48-3.71-29.88-3-10.43.53-9.53,4.13-17.9,3.77-12.52-.55-15.71-8.57-26.46-8.3-10.43.29-14.83,8.06-17.07,6.86-6.63-3.81,23.25-78.69,58.89-77.73C1788.59,328,1794,331.68,1804.55,339.11Z"/><path class="cls-3" d="M1804.55,304c35.28,24.82,55.15,60.55,48.64,65.65-3.49,2.73-11.94-5.15-27.31-2.27-6.26,1.22-5.78,2.73-11.94,3.78-12.37,2.11-16.48-3.69-29.88-3-10.43.53-9.53,4.15-17.9,3.77-12.52-.55-15.71-8.58-26.46-8.3-10.43.29-14.83,8.08-17.07,6.86-6.63-3.79,23.25-78.67,58.89-77.73C1788.59,292.89,1794,296.62,1804.55,304Z"/><path class="cls-4" d="M972.7,87.79c41.38,29.16,64.68,71,57,77-4.06,3.17-14-6.11-32-2.66-7.45,1.43-6.78,3.19-14,4.43-14.5,2.45-19.32-4.34-35-3.55-12.22.63-11.18,4.87-21,4.42-14.6-.63-18.42-10.08-31-9.72-12.21.34-17.4,9.45-20,8-7.76-4.46,27.25-92.25,69-91.13C954,74.74,960.33,79.09,972.7,87.79Z"/><path class="cls-2" d="M969.86,58.64c35.29,24.83,55.15,60.56,48.64,65.67-3.48,2.71-11.94-5.14-27.31-2.26-6.26,1.2-5.78,2.73-11.94,3.77-12.37,2.1-16.48-3.7-29.88-3-10.43.53-9.53,4.14-17.9,3.78C919,126,915.76,118,905,118.27c-10.43.3-14.83,8.07-17.06,6.87-6.64-3.81,23.24-78.69,58.88-77.73C953.9,47.53,959.31,51.23,969.86,58.64Z"/><path class="cls-3" d="M969.86,23.58c35.29,24.82,55.15,60.49,48.64,65.63-3.48,2.73-11.94-5.14-27.31-2.26-6.26,1.22-5.78,2.73-11.94,3.77-12.37,2.1-16.48-3.7-29.88-3-10.43.54-9.53,4.16-17.9,3.78C919,90.93,915.76,82.9,905,83.18c-10.43.29-14.83,8.06-17.06,6.86-6.64-3.81,23.24-78.67,58.88-77.73C953.9,12.45,959.31,16.17,969.86,23.58Z"/><path class="cls-4" d="M694.46,221.07c41.38,29.16,64.69,71,57,77-4.07,3.19-14-6.09-32-2.66-7.47,1.42-6.78,3.21-14,4.43-14.5,2.47-19.32-4.34-35-3.54-12.23.62-11.19,4.86-21,4.43-14.61-.65-18.43-10.09-31-9.75-12.2.35-17.4,9.47-20,8-7.76-4.46,27.25-92.26,69-91.14C675.75,208,682.09,212.37,694.46,221.07Z"/><path class="cls-2" d="M691.63,191.92c35.28,24.82,55.14,60.56,48.61,65.65-3.46,2.71-11.91-5.15-27.29-2.26-6.36,1.21-5.78,2.72-11.93,3.77-12.38,2.09-16.49-3.7-29.88-3-10.44.53-9.54,4.15-17.91,3.78-12.51-.55-15.71-8.58-26.45-8.31-10.43.29-14.84,8.07-17.07,6.86-6.63-3.8,23.24-78.67,58.88-77.72C675.66,180.79,681.07,184.51,691.63,191.92Z"/><path class="cls-3" d="M691.63,156.84c35.28,24.82,55.14,60.55,48.61,65.67-3.46,2.71-11.91-5.15-27.29-2.27-6.36,1.2-5.78,2.73-11.93,3.78-12.38,2.09-16.49-3.71-29.88-3-10.44.53-9.54,4.13-17.91,3.77-12.51-.56-15.71-8.58-26.45-8.3-10.43.29-14.84,8.06-17.07,6.86-6.63-3.81,23.24-78.69,58.88-77.73C675.66,145.72,681.07,149.43,691.63,156.84Z"/><path class="cls-4" d="M1431.8,511.33c41.37,29.16,64.68,71,57,77-4,3.19-14-6.09-32-2.66-7.45,1.42-6.76,3.21-14,4.43-14.6,2.47-19.32-4.34-35-3.54-12.25.62-11.18,4.86-21,4.43-14.61-.65-18.4-10.09-31-9.75-12.2.35-17.4,9.47-20,8-7.78-4.46,27.23-92.26,69-91.14C1413.06,498.27,1419.42,502.64,1431.8,511.33Z"/><path class="cls-2" d="M1428.94,482.18c35.3,24.82,55.14,60.56,48.63,65.65-3.46,2.71-11.91-5.15-27.29-2.26-6.26,1.21-5.78,2.72-12,3.77-12.38,2.09-16.49-3.71-29.86-3-10.43.53-9.54,4.15-17.92,3.77-12.52-.54-15.7-8.57-26.44-8.3-10.43.29-14.86,8.06-17.07,6.86-6.63-3.8,23.22-78.67,58.86-77.72C1413,471.05,1418.4,474.75,1428.94,482.18Z"/><path class="cls-3" d="M1428.94,447.1c35.3,24.82,55.14,60.55,48.63,65.65-3.46,2.73-11.91-5.15-27.29-2.25-6.26,1.2-5.78,2.73-12,3.76-12.38,2.11-16.49-3.69-29.86-3-10.43.53-9.54,4.13-17.92,3.75-12.52-.55-15.7-8.57-26.44-8.28-10.43.29-14.86,8.06-17.07,6.77-6.63-3.79,23.22-78.67,58.86-77.72C1413,436,1418.4,439.69,1428.94,447.1Z"/><path class="cls-4" d="M1242.38,257.81c41.38,29.16,64.68,71,57,77-4.18,3.2-14-6.09-32-2.65-7.45,1.42-6.76,3.2-14,4.42-14.5,2.46-19.32-4.34-35-3.53-12.25.62-11.19,4.85-21,4.42-14.61-.65-18.41-10.08-31-9.74-12.21.34-17.4,9.47-20,8-7.78-4.48,27.12-92.26,69-91.15C1223.67,244.76,1230,249.11,1242.38,257.81Z"/><path class="cls-2" d="M1239.44,228.67c35.3,24.82,55.15,60.55,48.64,65.65-3.47,2.71-11.92-5.15-27.29-2.27-6.26,1.22-5.78,2.73-12,3.78-12.37,2.09-16.48-3.71-29.86-3-10.43.53-9.53,4.15-17.92,3.77-12.52-.55-15.69-8.58-26.44-8.3-10.43.29-14.85,8.06-17.07,6.86-6.63-3.81,23.23-78.69,58.87-77.73C1223.56,217.53,1229,221.31,1239.44,228.67Z"/><path class="cls-3" d="M1239.44,193.58c35.3,24.83,55.15,60.56,48.64,65.66-3.47,2.72-11.92-5.15-27.29-2.27-6.26,1.22-5.78,2.73-12,3.77-12.37,2.11-16.48-3.68-29.86-3-10.43.53-9.53,4.15-17.92,3.77-12.52-.55-15.69-8.58-26.44-8.29-10.43.3-14.85,8.07-17.07,6.87-6.63-3.8,23.23-78.68,58.87-77.73C1223.56,182.45,1229,186.17,1239.44,193.58Z"/><path class="cls-2" d="M221.41,491.17c5.26,28.65,28.88,68.62,60.74,69.08s58-38.17,64.26-67.56c10.44-49.35-28.67-107.23-63.45-107C248.53,386,212.56,442.84,221.41,491.17Z"/><path class="cls-4" d="M292,353c4.5,24.6,24.78,58.87,52.16,59.3s49.78-32.77,55.1-58c8.91-42.39-24.62-92.07-54.48-91.86C315.26,262.63,284.36,311.49,292,353Z"/><path class="cls-4" d="M237.1,349.19c41.38,29.17,64.68,71,57,77-4.17,3.19-14-6.09-32-2.64-7.45,1.4-6.76,3.19-14,4.42-14.5,2.46-19.32-4.34-35-3.55-12.25.64-11.19,4.86-21,4.43-14.6-.65-18.4-10.09-31-9.73-12.21.34-17.4,9.45-20,8-7.78-4.46,27.12-92.26,69-91.14C218.36,336.14,224.73,340.5,237.1,349.19Z"/><path class="cls-2" d="M234.24,320.05c35.31,24.82,55.15,60.56,48.64,65.65-3.46,2.73-11.92-5.15-27.29-2.26-6.26,1.21-5.78,2.72-12,3.77-12.37,2.11-16.48-3.69-29.86-3-10.43.53-9.53,4.15-17.92,3.77-12.52-.54-15.69-8.57-26.44-8.3s-14.85,8.08-17.06,6.86c-6.64-3.79,23.22-78.67,58.86-77.72C218.28,308.92,223.71,312.64,234.24,320.05Z"/><path class="cls-3" d="M234.24,285c35.31,24.83,55.15,60.54,48.64,65.66-3.46,2.71-11.92-5.15-27.29-2.27-6.26,1.22-5.78,2.73-12,3.78-12.37,2.09-16.48-3.71-29.86-3-10.43.53-9.53,4.13-17.92,3.77-12.52-.55-15.69-8.58-26.44-8.3s-14.85,8.06-17.06,6.86c-6.64-3.81,23.22-78.69,58.86-77.73C218.28,273.85,223.71,277.56,234.24,285Z"/><path class="cls-4" d="M170.75,526.66c41.38,29.16,64.68,71,57,77-4.17,3.19-14-6.09-32-2.65-7.45,1.41-6.76,3.19-14,4.43-14.61,2.45-19.33-4.34-35-3.55-12.24.63-11.18,4.85-21,4.42-14.6-.65-18.4-10.08-31-9.72-12.21.34-17.4,9.45-20,8-7.79-4.46,27.12-92.26,69-91.15C152,513.61,158.38,518,170.75,526.66Z"/><path class="cls-2" d="M167.89,497.5c35.31,24.82,55.15,60.55,48.64,65.65-3.47,2.73-11.92-5.15-27.29-2.26-6.26,1.21-5.78,2.72-12,3.77-12.39,2.13-16.57-3.69-29.86-3-10.43.53-9.53,4.15-17.92,3.77-12.52-.55-15.69-8.58-26.44-8.28-10.43.29-14.85,8.06-17.06,6.86-6.66-3.88,23.22-78.76,58.86-77.82C151.93,486.38,157.35,490.1,167.89,497.5Z"/><path class="cls-3" d="M167.89,462.45C203.2,487.27,223,523,216.53,528.1c-3.47,2.71-11.92-5.14-27.29-2.26-6.26,1.22-5.78,2.73-12,3.77-12.39,2.1-16.57-3.7-29.86-3-10.43.53-9.53,4.15-17.92,3.78-12.52-.55-15.69-8.58-26.44-8.31C92.63,522.42,88.21,530.2,86,529c-6.66-3.94,23.22-78.82,58.86-77.81C151.93,451.32,157.35,455,167.89,462.45Z"/><path class="cls-2" d="M2240.24,354.31c-5.24,28.65-28.86,68.62-60.72,69.08s-58-38.17-64.18-67.56c-10.44-49.35,28.65-107.23,63.45-107C2213.11,249.1,2249.1,306,2240.24,354.31Z"/><path class="cls-2" d="M3218.62,611.87c-1.08,11.63-12.52,12.69-16.38,23.91-5.34,15.44,13.09,22.87,8.16,37.45-4,11.75-20.43,20.33-34.49,21.65-16.25,1.51-19.26-7.62-35.47-6.07-19.13,1.82-24,15.56-39,13.36-10.71-1.58-17.18-9.9-17.87-10.81-4.17-5.59-1.71-7.87-4.44-15.71-5-14.32-16.34-15.28-21.68-30.88a26.68,26.68,0,0,1-1.75-12.55c1-8.36,6.09-11.88,10.08-18.52,8.74-14.58-1.69-20.79,5.55-32.59,6.78-11,23.51-17.89,37.78-17.91,14.61,0,15.32,7.27,35.7,10.93,21.35,3.81,26.92-3.09,43.49,2.8a50.59,50.59,0,0,1,22.8,15.93C3214.09,596.6,3219.39,603.46,3218.62,611.87Z"/><path class="cls-3" d="M2569.28,263.63c-4.63,25.21-25.42,60.35-53.46,60.78s-51-33.58-56.46-59.45c-9.16-43.41,25.21-94.35,55.82-94.12C2545.41,171,2577.06,221.1,2569.28,263.63Z"/><path class="cls-3" d="M2404.57,267.52c-1.09,11.63-12.52,12.7-16.38,23.91-5.34,15.44,13.08,22.87,8.16,37.45-4,11.75-20.43,20.33-34.49,21.65-16.26,1.53-19.28-7.61-35.47-6.07-19.14,1.82-24,15.56-39,13.36-10.7-1.57-17.17-9.89-17.86-10.8-4.17-5.58-1.73-7.88-4.46-15.7-5-14.32-16.32-15.29-21.66-30.88a26.61,26.61,0,0,1-1.75-12.57c1-8.36,6.09-11.87,10.07-18.51,8.75-14.57-1.71-20.8,5.53-32.6,6.81-11,23.54-17.89,37.79-17.91,14.73,0,15.34,7.28,35.72,10.93,21.35,3.81,26.9-3.09,43.48,2.8a50.7,50.7,0,0,1,22.81,15.93C2400,252.18,2405.34,259.05,2404.57,267.52Z"/><path class="cls-3" d="M2079,364.75c-1.08,11.62-12.52,12.68-16.38,23.92-5.34,15.44,13.08,22.85,8.14,37.45-4,11.73-20.41,20.33-34.47,21.63-16.27,1.53-19.28-7.62-35.47-6.07-19.13,1.83-23.95,15.57-39,13.36-10.7-1.56-17.17-9.9-17.86-10.81-4.17-5.57-1.73-7.87-4.46-15.69-5-14.33-16.32-15.29-21.66-30.88a26.7,26.7,0,0,1-1.75-12.56c1-8.37,6.09-11.87,10.08-18.53,8.72-14.56-1.72-20.77,5.53-32.59,6.78-11,23.53-17.88,37.78-17.91,14.73,0,15.34,7.29,35.72,10.93,21.35,3.81,26.9-3.09,43.49,2.79a50.82,50.82,0,0,1,22.8,15.94C2074.48,349.47,2079.78,356.33,2079,364.75Z"/><path class="cls-4" d="M2463.49,223.45c-4.5,24.6-24.79,58.88-52.16,59.3s-49.78-32.76-55.11-58c-8.84-42.39,24.54-92.07,54.48-91.86C2440.19,133.1,2471.09,182,2463.49,223.45Z"/><path class="cls-2" d="M2904.31,306.69c-5.24,28.64-28.86,68.61-60.74,69.06s-58-38.15-64.18-67.56c-10.43-49.35,28.67-107.21,63.45-107C2877.19,201.46,2913.16,258.36,2904.31,306.69Z"/><path class="cls-4" d="M2806.79,188.54c-4.51,24.6-24.79,58.88-52.17,59.3s-49.8-32.76-55.1-58c-8.91-42.3,24.62-92,54.5-91.86C2783.46,98.19,2814.4,147,2806.79,188.54Z"/><path class="cls-4" d="M2295.4,153.42c-1,10.81-11.62,11.81-15.23,22.31-5,14.39,12.17,21.27,7.6,34.84-3.7,10.91-19,18.87-32.09,20.12-15.11,1.42-17.93-7.09-32.91-5.64-17.8,1.71-22.28,14.47-36.22,12.42-10-1.46-16-9.2-16.69-10.06-3.9-5.14-1.59-7.3-4.18-14.6-4.65-13.33-15.19-14.22-20.15-28.71a24.71,24.71,0,0,1-1.63-11.69c1-7.78,5.66-11,9.37-17.15,8.12-13.55-1.59-19.33,5.15-30.28,6.26-10.29,21.89-16.62,35.14-16.64,13.71,0,14.25,6.76,33.22,10.16,19.86,3.53,25-2.88,40.45,2.6a46.92,46.92,0,0,1,21.2,14.83C2291.19,139.22,2296.13,145.58,2295.4,153.42Z"/><path class="cls-2" d="M3067,351c-1.06,11.63-12.51,12.7-16.35,23.92-5.37,15.44,13.06,22.86,8.13,37.45-4,11.75-20.42,20.32-34.49,21.65-16.25,1.51-19.25-7.62-35.47-6.08-19.13,1.82-23.95,15.56-38.95,13.37-10.73-1.58-17.17-9.9-17.88-10.81-4.18-5.59-1.71-7.88-4.45-15.72-5-14.32-16.31-15.28-21.66-30.87a26.45,26.45,0,0,1-1.75-12.56c1-8.36,6.09-11.87,10.08-18.53,8.72-14.56-1.71-20.77,5.53-32.59,6.78-11,23.53-17.89,37.79-17.91,14.73,0,15.33,7.27,35.7,10.91,21.36,3.82,26.91-3.07,43.5,2.81A50.56,50.56,0,0,1,3059.5,332C3062.45,335.75,3067.77,342.61,3067,351Z"/><path class="cls-3" d="M3009.3,579.26c-4.61,25.22-25.39,60.35-53.43,60.78s-51-33.57-56.48-59.44c-9.14-43.42,25.22-94.36,55.83-94.13C2985.43,486.67,3017.15,536.73,3009.3,579.26Z"/><path class="cls-4" d="M2589.91,87.5c-1,10.82-11.62,11.8-15.23,22.3-5,14.38,12.17,21.25,7.58,34.82-3.7,10.93-19,18.87-32.07,20.14-15.13,1.41-17.93-7.08-32.93-5.66-17.78,1.72-22.26,14.48-36.22,12.44-9.95-1.46-16-9.21-16.69-10-3.92-5.15-1.61-7.33-4.18-14.62-4.65-13.31-15.16-14.2-20.13-28.72a24.79,24.79,0,0,1-1.65-11.68c1-7.77,5.68-11,9.39-17.15,8.12-13.56-1.61-19.34,5.13-30.26,6.26-10.3,21.89-16.64,35.16-16.66,13.69,0,14.25,6.77,33.22,10.15,19.84,3.56,25-2.86,40.44,2.61a47.25,47.25,0,0,1,21.42,14.74C2585.7,73.33,2590.62,79.71,2589.91,87.5Z"/><path class="cls-4" d="M3069,483.77c-41.38,29.17-64.69,71-57,77,4.18,3.19,14-6.09,32-2.66,7.45,1.42,6.76,3.21,14,4.43,14.61,2.45,19.32-4.35,35-3.54,12.25.62,11.19,4.86,21,4.43,14.61-.65,18.41-10.09,31-9.75,12.2.35,17.4,9.47,20,8,7.78-4.48-27.13-92.26-69-91.14C3087.69,470.69,3081.33,475,3069,483.77Z"/><path class="cls-2" d="M3071.82,454.61c-35.31,24.82-55.15,60.56-48.64,65.65,3.46,2.71,11.91-5.14,27.29-2.26,6.26,1.22,5.78,2.73,12,3.77,12.37,2.1,16.48-3.7,29.85-3,10.44.53,9.54,4.15,17.93,3.78,12.52-.55,15.69-8.58,26.43-8.31,10.44.3,14.86,8.07,17.07,6.87,6.64-3.81-23.22-78.68-58.86-77.73C3087.78,443.46,3082.35,447.17,3071.82,454.61Z"/><path class="cls-3" d="M3071.82,419.51c-35.31,24.83-55.15,60.56-48.64,65.65,3.46,2.73,11.91-5.14,27.29-2.24,6.26,1.2,5.78,2.72,12,3.75,12.37,2.11,16.48-3.68,29.85-3,10.44.53,9.54,4.14,17.93,3.76,12.52-.55,15.69-8.58,26.43-8.29,10.44.29,14.86,8.07,17.07,6.78,6.64-3.79-23.22-78.67-58.86-77.73C3087.78,408.38,3082.35,412.1,3071.82,419.51Z"/><path class="cls-4" d="M2333,75.49c-41.37,29.16-64.68,71-57,77,4.17,3.19,14-6.09,32-2.66,7.44,1.43,6.78,3.21,14,4.43,14.6,2.47,19.32-4.34,35-3.53,12.23.61,11.18,4.85,21,4.42,14.6-.65,18.42-10.08,31-9.74,12.2.34,17.4,9.47,20,8,7.76-4.46-27.25-92.26-69.05-91.15C2351.74,62.5,2345.4,66.91,2333,75.49Z"/><path class="cls-2" d="M2335.86,46.41c-35.28,24.83-55.15,60.56-48.64,65.65,3.49,2.71,11.94-5.14,27.32-2.26,6.26,1.22,5.78,2.73,11.93,3.77,12.37,2.1,16.48-3.7,29.88-3,10.43.54,9.54,4.16,17.9,3.78,12.52-.55,15.71-8.58,26.46-8.3,10.43.29,14.83,8.06,17.07,6.86,6.63-3.81-23.25-78.67-58.88-77.73C2351.82,35.28,2346.42,39,2335.86,46.41Z"/><path class="cls-3" d="M2335.86,11.33c-35.28,24.82-55.15,60.56-48.64,65.67,3.49,2.71,11.94-5.15,27.32-2.26,6.26,1.2,5.78,2.72,11.93,3.77,12.37,2.09,16.48-3.71,29.88-3,10.43.53,9.54,4.13,17.9,3.77,12.52-.56,15.71-8.57,26.46-8.3,10.43.29,14.83,8.06,17.07,6.86C2424.41,74,2394.53-.93,2358.9,0,2351.82.21,2346.42,3.92,2335.86,11.33Z"/><path class="cls-4" d="M2611.26,208.82c-41.38,29.16-64.68,71-57,77,4.06,3.17,14-6.11,32-2.66,7.47,1.42,6.78,3.19,14,4.42,14.61,2.46,19.32-4.34,35-3.55,12.22.64,11.18,4.88,21,4.43,14.6-.63,18.42-10.09,31-9.73,12.21.35,17.4,9.46,20,8,7.76-4.46-27.25-92.26-69-91.14C2630,195.76,2623.63,200.12,2611.26,208.82Z"/><path class="cls-2" d="M2614.1,179.67c-35.29,24.82-55.15,60.56-48.62,65.67,3.46,2.71,11.91-5.15,27.29-2.26,6.37,1.2,5.78,2.72,11.94,3.77,12.37,2.09,16.48-3.71,29.88-3,10.43.53,9.53,4.13,17.9,3.77C2665,247,2668.2,239,2679,239.3c10.43.29,14.83,8.06,17.06,6.86,6.64-3.81-23.24-78.69-58.88-77.73C2630.06,168.54,2624.65,172.26,2614.1,179.67Z"/><path class="cls-3" d="M2614.1,144.61c-35.29,24.82-55.15,60.55-48.62,65.65,3.46,2.71,11.91-5.15,27.29-2.27,6.37,1.22,5.78,2.73,11.94,3.78,12.37,2.09,16.48-3.71,29.88-3,10.43.53,9.53,4.15,17.9,3.77,12.52-.55,15.71-8.57,26.46-8.3,10.43.29,14.83,8.06,17.06,6.86,6.64-3.81-23.24-78.67-58.88-77.73C2630.06,133.47,2624.65,137.25,2614.1,144.61Z"/><path class="cls-4" d="M2822.35,421.47c-41.37,29.16-64.68,71-57,77,4.17,3.17,14-6.11,32-2.66,7.47,1.42,6.79,3.19,14,4.43,14.6,2.45,19.32-4.34,35-3.56,12.22.64,11.18,4.88,21,4.43,14.6-.63,18.4-10.09,31-9.73,12.21.35,17.41,9.46,20,8,7.77-4.46-27.25-92.24-69-91.12C2841.07,408.41,2834.72,412.77,2822.35,421.47Z"/><path class="cls-2" d="M2825.19,392.32c-35.28,24.83-55.15,60.56-48.62,65.67,3.47,2.71,11.92-5.15,27.3-2.26,6.25,1.2,5.77,2.72,12,3.77,12.37,2.09,16.46-3.71,29.86-3,10.43.53,9.53,4.14,17.9,3.78,12.52-.57,15.71-8.58,26.46-8.31,10.43.29,14.83,8.07,17.07,6.86,6.63-3.8-23.25-78.68-58.89-77.72C2841.17,381.21,2835.75,384.91,2825.19,392.32Z"/><path class="cls-3" d="M2825.19,357.26c-35.28,24.82-55.15,60.55-48.62,65.65,3.47,2.71,11.92-5.15,27.3-2.27,6.25,1.22,5.77,2.73,12,3.78,12.37,2.09,16.46-3.71,29.86-3,10.43.53,9.53,4.15,17.9,3.77,12.52-.55,15.71-8.57,26.46-8.3,10.43.29,14.83,8.06,17.07,6.86,6.63-3.81-23.25-78.67-58.89-77.73C2841.17,346.12,2835.75,349.83,2825.19,357.26Z"/><path class="cls-4" d="M2063.34,245.56c-41.37,29.17-64.68,71-57,77,4.17,3.19,14-6.09,32-2.65,7.45,1.41,6.77,3.2,14,4.41,14.5,2.47,19.32-4.32,35-3.53,12.24.63,11.18,4.85,21,4.43,14.6-.66,18.4-10.09,31-9.73,12.21.34,17.41,9.45,20,8,7.79-4.46-27.23-92.26-69-91.15C2082.06,232.51,2075.71,236.87,2063.34,245.56Z"/><path class="cls-2" d="M2066.2,216.42c-35.3,24.82-55.15,60.55-48.64,65.65,3.47,2.73,11.92-5.15,27.29-2.27,6.26,1.22,5.78,2.73,12,3.78,12.37,2.11,16.48-3.69,29.86-3,10.43.53,9.53,4.15,17.92,3.77,12.52-.55,15.69-8.57,26.44-8.3,10.43.31,14.85,8.08,17.07,6.86,6.63-3.79-23.23-78.67-58.87-77.73C2082.16,205.28,2076.74,209,2066.2,216.42Z"/><path class="cls-3" d="M2066.2,181.35c-35.3,24.83-55.15,60.54-48.64,65.69,3.47,2.71,11.92-5.15,27.29-2.27,6.26,1.22,5.78,2.73,12,3.78,12.37,2.09,16.48-3.71,29.86-3,10.43.53,9.53,4.13,17.92,3.77,12.52-.55,15.69-8.57,26.44-8.3,10.43.29,14.85,8.06,17.07,6.86,6.63-3.81-23.23-78.69-58.87-77.73C2082.16,170.22,2076.74,173.92,2066.2,181.35Z"/></g></g></g></g></svg>