<svg xmlns="http://www.w3.org/2000/svg" viewBox="0 0 1556.45 1343.03"><defs><style>.cls-1{fill:#baeda2;}.cls-2{fill:#6ea050;}.cls-3{fill:#80b55e;}.cls-4{fill:#57893f;}</style></defs><g id="レイヤー_2" data-name="レイヤー 2"><g id="レイヤー_2-2" data-name="レイヤー 2"><path class="cls-1" d="M251.56,1044.87c-40-40-65.12-72.93-93.88-119.26-30-48.36-75.05-122.1-106.57-230.91C33,632.34,15.91,573.21,19.69,491.7c4.47-96.51,35.63-167.47,49.18-195.38,14.06-29,48.9-98.9,121.79-157.32,47-37.66,87.4-52.6,96.43-55.82a324,324,0,0,1,82.15-17.45c20.92-1.91,46-4,78,1.9a237.52,237.52,0,0,1,70.42,24.74c27.88,15.34,45.1,32.54,59,46.63,26.73,27.1,29.51,39.85,61.85,86.59,40.22,58.1,60.83,87.21,85.89,90,26.58,2.92,55.92-15.24,70.8-34.33C806,267.34,807,256.33,828.5,224.11c4.61-6.9,9.9-14.2,16.38-22.36a396.33,396.33,0,0,1,47.39-50.06,373.38,373.38,0,0,1,57.09-41.87,335.69,335.69,0,0,1,53.28-25.38c17.2-6.31,30.2-9.39,49.49-14,22.33-5.29,35.58-8.42,54.55-10.15a302.41,302.41,0,0,1,52,0c7.54.63,26.14,2.47,57.09,10.15,25.82,6.4,52.08,12.92,81.2,26.64,40.82,19.24,66.85,43,88.81,63.44,13.39,12.43,46,44.22,77.39,93.88,50.56,80,65,154,68.51,173.82,13.9,78.52,3.54,139-6.34,196.65-2.95,17.21-14.93,83.46-48.21,164.93a843.88,843.88,0,0,1-85,157.32,867.84,867.84,0,0,1-91.35,111.65c-59.74,61.88-114,99.87-133.21,112.92a857.67,857.67,0,0,1-114.19,64.7c-14.57,6.88-72,33.5-153.51,55.83-41.83,11.45-92.86,25.43-162.4,30.49-80.88,5.88-142.78-3.5-185.23-10.19-84.14-13.27-144.35-34.65-157.32-39.34,0,0-62.65-22.79-137-64.7-8.73-4.92-18.08-10.68-36.8-22.2-13.8-8.5-45.81-28.41-44.24-31.4.27-.52,1.31-.11,6.18-.48,0,0,3-.22,8.41-1.11,25.31-4.13,70-21.78,70-21.78,37.37-14.75,39.08-15.67,40.29-18.83C308.19,1096,279.59,1072.86,251.56,1044.87Z"/><path class="cls-2" d="M217.37,850c-2.51,16.7-13.83,40-29.1,40.26s-27.8-22.24-30.76-39.38c-5-28.77,13.73-62.5,30.41-62.36C204.37,788.66,221.62,821.83,217.37,850Z"/><path class="cls-2" d="M351,891.75c-.51,6.77-6,7.39-7.85,13.93-2.56,9,6.27,13.33,3.91,21.83-1.9,6.85-9.79,11.85-16.53,12.62-7.79.89-9.23-4.44-17-3.54-9.17,1.06-11.48,9.07-18.66,7.79-5.14-.92-8.24-5.77-8.57-6.3-2-3.25-.82-4.59-2.13-9.15-2.4-8.35-7.83-8.91-10.39-18a18.67,18.67,0,0,1-.84-7.32c.5-4.88,2.92-6.92,4.84-10.8,4.18-8.49-.82-12.12,2.65-19,3.25-6.42,11.27-10.42,18.11-10.44,7.05,0,7.34,4.24,17.11,6.37,10.23,2.22,12.9-1.8,20.85,1.63a25,25,0,0,1,10.92,9.29C348.82,882.84,351.36,886.84,351,891.75Z"/><path class="cls-3" d="M287.34,1006.09c-2.22,14.69-12.17,35.17-25.62,35.43s-24.45-19.58-27.06-34.66c-4.38-25.31,12.08-55,26.76-54.87C275.9,952.11,291.07,981.3,287.34,1006.09Z"/><path class="cls-3" d="M351,1049.09c-.51,6.77-6,7.39-7.85,13.93-2.56,9,6.27,13.33,3.91,21.83-1.9,6.85-9.79,11.86-16.53,12.62-7.79.89-9.23-4.44-17-3.54-9.17,1.06-11.48,9.07-18.66,7.79-5.14-.92-8.24-5.77-8.57-6.3-2-3.25-.82-4.59-2.13-9.15-2.4-8.35-7.83-8.91-10.39-18A18.67,18.67,0,0,1,273,1061c.5-4.88,2.92-6.92,4.84-10.8,4.18-8.49-.82-12.12,2.65-19,3.25-6.42,11.27-10.42,18.11-10.44,7.05,0,7.34,4.25,17.11,6.37,10.23,2.22,12.9-1.8,20.85,1.63a25,25,0,0,1,10.92,9.29C348.82,1040.18,351.36,1044.18,351,1049.09Z"/><path class="cls-4" d="M193.83,913.07c-2.16,14.34-11.88,34.32-25,34.57s-23.86-19.1-26.41-33.81c-4.27-24.71,11.8-53.67,26.11-53.55C182.67,860.4,197.47,888.88,193.83,913.07Z"/><path class="cls-2" d="M488.18,1271.15c-2.52,16.69-13.83,40-29.11,40.26s-27.79-22.24-30.76-39.38c-5-28.77,13.74-62.51,30.41-62.36C475.18,1209.81,492.42,1243,488.18,1271.15Z"/><path class="cls-4" d="M441.44,1202.28c-2.16,14.33-11.88,34.32-25,34.57S392.58,1217.75,390,1203c-4.27-24.71,11.8-53.68,26.12-53.55C430.28,1149.61,445.08,1178.09,441.44,1202.28Z"/><path class="cls-4" d="M272.86,930.32c-.48,6.31-5.57,6.88-7.3,13-2.39,8.38,5.83,12.39,3.63,20.3-1.77,6.37-9.1,11-15.37,11.74-7.25.82-8.59-4.13-15.78-3.3-8.52,1-10.67,8.44-17.36,7.25-4.77-.85-7.66-5.37-8-5.86-1.88-3-.77-4.27-2-8.52-2.23-7.76-7.28-8.28-9.66-16.74a17.37,17.37,0,0,1-.78-6.81c.47-4.53,2.72-6.43,4.5-10,3.89-7.9-.77-11.27,2.46-17.64,3-6,10.49-9.7,16.85-9.71,6.56,0,6.83,3.95,15.91,5.92,9.52,2.07,12-1.67,19.39,1.52A23.17,23.17,0,0,1,269.56,920C270.84,922,273.2,925.76,272.86,930.32Z"/><path class="cls-2" d="M415.63,1104.82c-.52,6.78-6,7.4-7.85,13.94-2.56,9,6.27,13.33,3.91,21.83-1.9,6.85-9.79,11.85-16.53,12.62-7.79.88-9.23-4.44-17-3.54-9.17,1.06-11.48,9.07-18.67,7.79-5.13-.92-8.23-5.77-8.56-6.3-2-3.26-.82-4.59-2.13-9.16-2.4-8.35-7.83-8.91-10.39-18a18.62,18.62,0,0,1-.84-7.32c.5-4.87,2.92-6.92,4.83-10.79,4.19-8.5-.81-12.12,2.66-19,3.25-6.42,11.27-10.43,18.11-10.44,7.05,0,7.34,4.24,17.11,6.37,10.23,2.22,12.9-1.8,20.84,1.63a24.91,24.91,0,0,1,10.93,9.29C413.46,1095.92,416,1099.92,415.63,1104.82Z"/><path class="cls-3" d="M410.39,1047.53c-2.21,14.69-12.17,35.17-25.61,35.43s-24.46-19.57-27.07-34.65c-4.38-25.32,12.09-55,26.76-54.88C399,993.55,414.13,1022.74,410.39,1047.53Z"/><path class="cls-4" d="M337.49,1143.4c-.47,6.3-5.56,6.88-7.29,13-2.39,8.39,5.83,12.4,3.63,20.31-1.77,6.37-9.1,11-15.37,11.73-7.25.83-8.59-4.13-15.78-3.29-8.52,1-10.67,8.44-17.36,7.25-4.77-.85-7.66-5.37-8-5.86-1.88-3-.77-4.27-2-8.52-2.23-7.76-7.28-8.28-9.66-16.74a17.21,17.21,0,0,1-.78-6.81c.47-4.53,2.72-6.43,4.5-10,3.89-7.9-.77-11.27,2.46-17.64,3-6,10.49-9.7,16.84-9.71,6.57,0,6.84,4,15.92,5.92,9.52,2.07,12-1.67,19.39,1.52a23.17,23.17,0,0,1,10.16,8.64C335.48,1135.12,337.84,1138.84,337.49,1143.4Z"/><path class="cls-4" d="M237.65,854.69c-19.83,17-31,41.38-27.33,44.87,2,1.86,6.7-3.55,15.35-1.55,3.57.83,3.24,1.87,6.71,2.58,7,1.44,9.26-2.53,16.78-2.06,5.87.36,5.36,2.83,10.07,2.58,7-.38,8.82-5.88,14.86-5.68,5.85.2,8.34,5.52,9.59,4.65,3.72-2.6-13.06-53.78-33.08-53.13C246.62,847.08,243.58,849.62,237.65,854.69Z"/><path class="cls-2" d="M239,837.7C222.1,852.17,212.58,873,215.71,876c1.66,1.58,5.71-3,13.08-1.32,3.05.71,2.77,1.59,5.73,2.2,5.93,1.22,7.89-2.16,14.31-1.76,5,.31,4.57,2.42,8.59,2.2,6-.32,7.52-5,12.67-4.84,5,.17,7.12,4.7,8.18,4,3.18-2.22-11.13-45.86-28.21-45.31C246.67,831.21,244.07,833.37,239,837.7Z"/><path class="cls-3" d="M239,817.25c-16.91,14.47-26.43,35.3-23.3,38.28,1.66,1.58,5.71-3,13.08-1.32,3.05.7,2.77,1.59,5.73,2.2,5.93,1.22,7.89-2.16,14.31-1.76,5,.31,4.57,2.41,8.59,2.2,6-.33,7.52-5,12.67-4.84,5,.17,7.12,4.7,8.18,4,3.18-2.22-11.13-45.87-28.21-45.31C246.67,810.77,244.07,812.93,239,817.25Z"/><path class="cls-4" d="M214.38,1136.42c-19.83,17-31,41.38-27.33,44.87,1.95,1.86,6.7-3.55,15.34-1.55,3.57.83,3.25,1.87,6.71,2.58,7,1.43,9.26-2.53,16.78-2.06,5.87.36,5.36,2.83,10.07,2.58,7-.38,8.83-5.88,14.86-5.68,5.86.2,8.35,5.52,9.59,4.64,3.73-2.6-13-53.77-33.08-53.12C223.35,1128.81,220.3,1131.34,214.38,1136.42Z"/><path class="cls-2" d="M215.74,1119.43c-16.91,14.47-26.43,35.29-23.31,38.27,1.67,1.58,5.72-3,13.09-1.32,3,.71,2.77,1.59,5.72,2.2,5.93,1.22,7.9-2.16,14.31-1.76,5,.31,4.58,2.42,8.59,2.2,6-.32,7.53-5,12.68-4.84,5,.17,7.11,4.7,8.18,4,3.17-2.22-11.14-45.87-28.22-45.31C223.39,1112.94,220.8,1115.1,215.74,1119.43Z"/><path class="cls-3" d="M215.74,1099c-16.91,14.47-26.43,35.3-23.31,38.27,1.67,1.59,5.72-3,13.09-1.32,3,.71,2.77,1.59,5.72,2.2,5.93,1.23,7.9-2.15,14.31-1.76,5,.31,4.58,2.42,8.59,2.2,6-.32,7.53-5,12.68-4.84,5,.18,7.11,4.71,8.18,4,3.17-2.21-11.14-45.86-28.22-45.31C223.39,1092.49,220.8,1094.66,215.74,1099Z"/><path class="cls-4" d="M347.73,1214.1c-19.83,17-31,41.39-27.33,44.87,2,1.86,6.7-3.55,15.34-1.54,3.57.82,3.25,1.86,6.71,2.57,7,1.44,9.26-2.52,16.78-2.06,5.87.37,5.37,2.83,10.07,2.58,7-.38,8.83-5.88,14.87-5.67,5.85.2,8.34,5.51,9.58,4.64,3.73-2.6-13.05-53.78-33.08-53.13C356.7,1206.49,353.66,1209,347.73,1214.1Z"/><path class="cls-2" d="M349.09,1197.11c-16.91,14.47-26.43,35.3-23.31,38.27,1.67,1.59,5.72-3,13.09-1.32,3,.71,2.77,1.59,5.72,2.2,5.93,1.23,7.9-2.15,14.31-1.76,5,.31,4.58,2.42,8.59,2.2,6-.32,7.53-5,12.68-4.84,5,.17,7.11,4.71,8.18,4,3.17-2.21-11.14-45.86-28.22-45.31C356.74,1190.62,354.15,1192.79,349.09,1197.11Z"/><path class="cls-3" d="M349.09,1176.67c-16.91,14.46-26.43,35.29-23.31,38.27,1.67,1.58,5.72-3,13.09-1.32,3,.71,2.77,1.59,5.72,2.2,5.93,1.22,7.9-2.16,14.31-1.76,5,.31,4.58,2.41,8.59,2.2,6-.32,7.53-5,12.68-4.84,5,.17,7.11,4.7,8.18,4,3.17-2.22-11.14-45.87-28.22-45.31C356.74,1170.18,354.15,1172.34,349.09,1176.67Z"/><path class="cls-4" d="M315.93,969.18c-19.83,17-31,41.39-27.33,44.88,1.95,1.85,6.7-3.56,15.34-1.55,3.58.83,3.25,1.86,6.72,2.58,6.95,1.43,9.26-2.53,16.78-2.06,5.86.36,5.36,2.83,10.06,2.57,7-.37,8.83-5.88,14.87-5.67,5.85.2,8.34,5.51,9.59,4.64,3.72-2.6-13.06-53.77-33.09-53.12C324.9,961.58,321.86,964.11,315.93,969.18Z"/><path class="cls-2" d="M317.29,952.2c-16.91,14.46-26.43,35.29-23.3,38.27,1.66,1.58,5.71-3,13.08-1.32,3.05.7,2.77,1.59,5.72,2.2,5.93,1.22,7.9-2.16,14.32-1.76,5,.31,4.57,2.41,8.58,2.2,6-.32,7.53-5,12.68-4.84,5,.17,7.11,4.7,8.18,4,3.18-2.22-11.14-45.87-28.22-45.31C324.94,945.71,322.35,947.87,317.29,952.2Z"/><path class="cls-3" d="M317.29,931.75c-16.91,14.47-26.43,35.3-23.3,38.27,1.66,1.59,5.71-3,13.08-1.32,3.05.71,2.77,1.59,5.72,2.2,5.93,1.22,7.9-2.16,14.32-1.76,5,.31,4.57,2.42,8.58,2.2,6-.32,7.53-5,12.68-4.84,5,.17,7.11,4.7,8.18,4,3.18-2.22-11.14-45.86-28.22-45.31C324.94,925.26,322.35,927.43,317.29,931.75Z"/><path class="cls-4" d="M117.21,809.45c-19.83,17-31,41.39-27.33,44.87,2,1.86,6.7-3.55,15.35-1.54,3.57.82,3.24,1.86,6.71,2.57,7,1.44,9.26-2.53,16.78-2.06,5.87.36,5.36,2.83,10.07,2.58,7-.38,8.82-5.88,14.86-5.67,5.85.2,8.34,5.51,9.59,4.64,3.72-2.6-13.06-53.78-33.08-53.13C126.18,801.84,123.14,804.38,117.21,809.45Z"/><path class="cls-2" d="M118.57,792.46c-16.91,14.47-26.43,35.3-23.3,38.27,1.66,1.59,5.71-3,13.08-1.32,3.05.71,2.77,1.59,5.73,2.2,5.93,1.23,7.89-2.15,14.31-1.76,5,.31,4.57,2.42,8.58,2.2,6-.32,7.53-5,12.68-4.84,5,.17,7.12,4.71,8.18,4,3.18-2.22-11.13-45.86-28.22-45.31C126.23,786,123.63,788.14,118.57,792.46Z"/><path class="cls-3" d="M118.57,772c-16.91,14.46-26.43,35.29-23.3,38.27,1.66,1.58,5.71-3,13.08-1.32,3.05.7,2.77,1.59,5.73,2.2,5.93,1.22,7.89-2.16,14.31-1.76,5,.31,4.57,2.41,8.58,2.2,6-.32,7.53-5,12.68-4.84,5,.17,7.12,4.7,8.18,4,3.18-2.22-11.13-45.87-28.22-45.31C126.23,765.53,123.63,767.69,118.57,772Z"/><path class="cls-2" d="M107.52,629.88c-2.51,16.7-13.83,40-29.1,40.26s-27.8-22.24-30.76-39.38c-5-28.77,13.73-62.5,30.41-62.36C94.52,568.54,111.77,601.71,107.52,629.88Z"/><path class="cls-2" d="M203.7,434.53c-.52,6.78-6,7.4-7.85,13.94-2.56,9,6.27,13.33,3.91,21.83-1.9,6.85-9.79,11.85-16.53,12.62-7.79.89-9.23-4.44-17-3.54-9.17,1.06-11.48,9.07-18.67,7.79-5.13-.92-8.23-5.77-8.56-6.3-2-3.25-.82-4.59-2.13-9.15-2.4-8.36-7.83-8.91-10.39-18a18.7,18.7,0,0,1-.84-7.33c.5-4.87,2.92-6.92,4.83-10.79,4.19-8.49-.81-12.12,2.66-19,3.25-6.42,11.27-10.43,18.11-10.44,7.05,0,7.34,4.24,17.11,6.37,10.23,2.22,12.9-1.8,20.85,1.63a25,25,0,0,1,10.92,9.29C201.53,425.63,204.07,429.63,203.7,434.53Z"/><path class="cls-3" d="M140.05,548.88c-2.22,14.69-12.18,35.17-25.62,35.42S90,564.73,87.37,549.65c-4.38-25.31,12.08-55,26.76-54.87C128.61,494.9,143.78,524.09,140.05,548.88Z"/><path class="cls-3" d="M203.7,591.87c-.52,6.78-6,7.4-7.85,13.94-2.56,9,6.27,13.33,3.91,21.83-1.9,6.85-9.79,11.85-16.53,12.62-7.79.89-9.23-4.44-17-3.54-9.17,1.06-11.48,9.07-18.67,7.79-5.13-.92-8.23-5.77-8.56-6.3-2-3.25-.82-4.59-2.13-9.15-2.4-8.35-7.83-8.91-10.39-18a18.7,18.7,0,0,1-.84-7.33c.5-4.87,2.92-6.92,4.83-10.79,4.19-8.49-.81-12.12,2.66-19,3.25-6.42,11.27-10.43,18.11-10.44,7.05,0,7.34,4.24,17.11,6.37,10.23,2.22,12.9-1.8,20.85,1.63a25,25,0,0,1,10.92,9.29C201.53,583,204.07,587,203.7,591.87Z"/><path class="cls-3" d="M78.1,407.88c-.51,6.78-6,7.39-7.85,13.94-2.56,9,6.27,13.33,3.91,21.83-1.9,6.84-9.79,11.85-16.53,12.62-7.79.88-9.23-4.45-17-3.55-9.17,1.07-11.48,9.08-18.66,7.8-5.14-.92-8.24-5.77-8.57-6.31-2-3.25-.82-4.58-2.13-9.15-2.4-8.35-7.83-8.91-10.38-18a18.62,18.62,0,0,1-.85-7.32c.5-4.88,2.93-6.92,4.84-10.8,4.18-8.49-.82-12.11,2.65-19,3.25-6.42,11.27-10.42,18.11-10.43,7,0,7.34,4.24,17.11,6.36,10.23,2.22,12.9-1.8,20.85,1.64a24.83,24.83,0,0,1,10.92,9.28C75.93,399,78.47,403,78.1,407.88Z"/><path class="cls-4" d="M129.61,765.42c-2.15,14.34-11.87,34.32-25,34.57s-23.86-19.1-26.41-33.81C73.93,741.47,90,712.5,104.32,712.63,118.45,712.75,133.26,741.23,129.61,765.42Z"/><path class="cls-2" d="M340.89,813.94c-2.52,16.69-13.83,40-29.11,40.26S284,832,281,814.82c-5-28.77,13.74-62.51,30.41-62.36C327.89,752.6,345.13,785.76,340.89,813.94Z"/><path class="cls-4" d="M294.15,745.07c-2.16,14.33-11.88,34.32-25,34.57s-23.87-19.1-26.42-33.81c-4.27-24.71,11.8-53.68,26.11-53.55C283,692.4,297.79,720.88,294.15,745.07Z"/><path class="cls-4" d="M125.56,473.11c-.47,6.31-5.56,6.88-7.29,13-2.39,8.38,5.83,12.39,3.63,20.3-1.77,6.37-9.1,11-15.37,11.74-7.25.82-8.59-4.13-15.78-3.3-8.52,1-10.67,8.44-17.36,7.25-4.77-.85-7.66-5.37-8-5.86-1.88-3-.77-4.27-2-8.52-2.23-7.76-7.28-8.28-9.66-16.74a17.19,17.19,0,0,1-.78-6.81c.47-4.53,2.72-6.43,4.5-10,3.89-7.9-.77-11.27,2.46-17.64,3-6,10.49-9.7,16.85-9.71,6.56,0,6.83,3.95,15.91,5.92,9.52,2.07,12-1.67,19.39,1.52a23.17,23.17,0,0,1,10.16,8.64C123.55,464.83,125.91,468.55,125.56,473.11Z"/><path class="cls-2" d="M268.34,647.61c-.52,6.78-6,7.4-7.85,13.94-2.56,9,6.27,13.33,3.91,21.83-1.9,6.85-9.79,11.85-16.53,12.62-7.79.88-9.24-4.44-17-3.54-9.17,1.06-11.48,9.07-18.67,7.79-5.13-.92-8.23-5.77-8.56-6.3-2-3.26-.82-4.59-2.13-9.16-2.4-8.35-7.83-8.91-10.39-18a18.62,18.62,0,0,1-.84-7.32c.5-4.87,2.92-6.92,4.83-10.8,4.19-8.49-.81-12.11,2.66-19,3.25-6.42,11.27-10.43,18.1-10.44,7.06,0,7.35,4.24,17.12,6.36,10.23,2.23,12.9-1.79,20.84,1.64a24.83,24.83,0,0,1,10.93,9.29C266.17,638.71,268.71,642.71,268.34,647.61Z"/><path class="cls-3" d="M263.1,590.32c-2.21,14.69-12.17,35.17-25.61,35.43S213,606.18,210.42,591.1c-4.38-25.32,12.09-55,26.76-54.88C251.66,536.34,266.84,565.53,263.1,590.32Z"/><path class="cls-4" d="M190.2,686.19c-.47,6.3-5.56,6.88-7.29,13-2.39,8.39,5.83,12.4,3.63,20.31-1.77,6.37-9.1,11-15.37,11.73-7.25.83-8.59-4.13-15.78-3.29-8.53,1-10.67,8.44-17.36,7.25-4.78-.86-7.66-5.37-8-5.86-1.87-3-.76-4.27-2-8.52-2.23-7.76-7.28-8.28-9.66-16.74a17.21,17.21,0,0,1-.78-6.81c.47-4.53,2.72-6.43,4.49-10,3.9-7.9-.76-11.27,2.47-17.64,3-6,10.49-9.7,16.84-9.71,6.57,0,6.84,3.94,15.92,5.92,9.52,2.07,12-1.67,19.39,1.52a23.17,23.17,0,0,1,10.16,8.64C188.19,677.91,190.55,681.63,190.2,686.19Z"/><path class="cls-4" d="M90.36,397.48c-19.83,17-31,41.38-27.33,44.87,2,1.86,6.7-3.55,15.35-1.55,3.57.83,3.24,1.87,6.71,2.58,7,1.44,9.26-2.53,16.78-2.06,5.87.36,5.36,2.83,10.07,2.58,7-.38,8.82-5.88,14.86-5.68,5.85.2,8.34,5.52,9.59,4.65,3.72-2.6-13.06-53.78-33.08-53.13C99.33,389.87,96.29,392.41,90.36,397.48Z"/><path class="cls-2" d="M91.72,380.49c-16.91,14.47-26.43,35.3-23.3,38.27,1.66,1.58,5.71-3,13.08-1.32,3,.71,2.77,1.59,5.73,2.2,5.93,1.22,7.89-2.16,14.31-1.76,5,.31,4.57,2.42,8.59,2.2,6-.32,7.52-5,12.67-4.84,5,.17,7.12,4.7,8.18,4,3.18-2.22-11.13-45.86-28.22-45.31C99.38,374,96.78,376.16,91.72,380.49Z"/><path class="cls-3" d="M91.72,360c-16.91,14.47-26.43,35.3-23.3,38.28,1.66,1.58,5.71-3,13.08-1.32,3,.7,2.77,1.59,5.73,2.2,5.93,1.22,7.89-2.16,14.31-1.76,5,.31,4.57,2.41,8.59,2.2,6-.33,7.52-5,12.67-4.84,5,.17,7.12,4.7,8.18,4,3.18-2.22-11.13-45.87-28.22-45.32C99.38,353.55,96.78,355.72,91.72,360Z"/><path class="cls-4" d="M67.09,679.2c-19.83,17-31,41.39-27.33,44.88,2,1.85,6.7-3.55,15.34-1.55,3.57.83,3.25,1.87,6.71,2.58,7,1.43,9.26-2.53,16.78-2.06,5.87.36,5.36,2.83,10.07,2.58,7-.38,8.83-5.88,14.86-5.68,5.86.2,8.35,5.51,9.59,4.64,3.73-2.6-13-53.77-33.08-53.12C76.06,671.6,73,674.13,67.09,679.2Z"/><path class="cls-2" d="M68.45,662.22C51.54,676.69,42,697.51,45.14,700.49c1.66,1.58,5.72-3,13.09-1.32,3,.71,2.77,1.59,5.72,2.2,5.93,1.22,7.9-2.16,14.31-1.76,5,.31,4.58,2.41,8.59,2.2,6-.32,7.53-5,12.68-4.84,5,.17,7.11,4.7,8.17,4,3.18-2.22-11.13-45.87-28.21-45.31C76.1,655.73,73.51,657.89,68.45,662.22Z"/><path class="cls-3" d="M68.45,641.77C51.54,656.24,42,677.07,45.14,680c1.66,1.59,5.72-3,13.09-1.32,3,.71,2.77,1.59,5.72,2.2,5.93,1.23,7.9-2.15,14.31-1.76,5,.31,4.58,2.42,8.59,2.2,6-.32,7.53-5,12.68-4.84,5,.17,7.11,4.71,8.17,4,3.18-2.21-11.13-45.86-28.21-45.31C76.1,635.28,73.51,637.45,68.45,641.77Z"/><path class="cls-4" d="M200.44,756.89c-19.83,17-31,41.39-27.33,44.87,1.95,1.86,6.7-3.55,15.34-1.54,3.57.82,3.25,1.86,6.71,2.57,7,1.44,9.26-2.53,16.78-2.06,5.87.36,5.37,2.83,10.07,2.58,7-.38,8.83-5.88,14.87-5.67,5.85.2,8.34,5.51,9.58,4.64,3.73-2.6-13.05-53.78-33.08-53.13C209.41,749.28,206.36,751.82,200.44,756.89Z"/><path class="cls-2" d="M201.8,739.9c-16.91,14.47-26.43,35.3-23.31,38.27,1.67,1.59,5.72-3,13.09-1.32,3,.71,2.77,1.59,5.72,2.2,5.93,1.23,7.9-2.15,14.31-1.76,5,.31,4.58,2.42,8.59,2.2,6-.32,7.53-5,12.68-4.84,5,.17,7.11,4.71,8.18,4,3.17-2.21-11.14-45.86-28.22-45.31C209.45,733.41,206.86,735.58,201.8,739.9Z"/><path class="cls-3" d="M201.8,719.46c-16.91,14.46-26.43,35.29-23.31,38.27,1.67,1.58,5.72-3,13.09-1.32,3,.7,2.77,1.59,5.72,2.2,5.93,1.22,7.9-2.16,14.31-1.76,5,.31,4.58,2.41,8.59,2.2,6-.32,7.53-5,12.68-4.84,5,.17,7.11,4.7,8.18,4,3.17-2.22-11.14-45.87-28.22-45.31C209.45,713,206.86,715.13,201.8,719.46Z"/><path class="cls-4" d="M168.64,512c-19.83,17-31,41.39-27.33,44.88,1.95,1.85,6.7-3.56,15.34-1.55,3.57.83,3.25,1.86,6.72,2.58,6.95,1.43,9.26-2.53,16.78-2.07,5.86.37,5.36,2.84,10.06,2.58,7-.37,8.83-5.88,14.87-5.67,5.85.2,8.34,5.51,9.59,4.64,3.72-2.6-13.06-53.77-33.09-53.12C177.61,504.36,174.57,506.9,168.64,512Z"/><path class="cls-2" d="M170,495c-16.91,14.47-26.43,35.3-23.3,38.28,1.66,1.58,5.71-3,13.08-1.32,3.05.7,2.77,1.59,5.72,2.2,5.93,1.22,7.9-2.16,14.32-1.76,5,.31,4.57,2.41,8.58,2.2,6-.33,7.53-5,12.68-4.84,5,.17,7.11,4.7,8.18,4,3.18-2.22-11.14-45.87-28.22-45.31C177.65,488.5,175.06,490.66,170,495Z"/><path class="cls-3" d="M170,474.54c-16.91,14.47-26.43,35.3-23.3,38.27,1.66,1.58,5.71-3,13.08-1.32,3.05.71,2.77,1.59,5.72,2.2,5.93,1.22,7.9-2.16,14.32-1.76,5,.31,4.57,2.42,8.58,2.2,6-.32,7.53-5,12.68-4.84,5,.17,7.11,4.7,8.18,4,3.18-2.22-11.14-45.86-28.22-45.31C177.65,468.05,175.06,470.22,170,474.54Z"/><path class="cls-4" d="M35.29,521C15.46,538,4.3,562.38,8,565.87c2,1.86,6.7-3.55,15.34-1.55,3.57.83,3.25,1.87,6.72,2.58,7,1.44,9.26-2.53,16.78-2.06,5.86.36,5.36,2.83,10.06,2.58,7-.38,8.83-5.88,14.87-5.68,5.85.2,8.34,5.52,9.59,4.65,3.72-2.6-13.06-53.78-33.09-53.13C44.26,513.39,41.22,515.93,35.29,521Z"/><path class="cls-2" d="M36.65,504c-16.91,14.47-26.43,35.3-23.31,38.27,1.67,1.58,5.72-3,13.09-1.32,3.05.71,2.77,1.59,5.72,2.2,5.93,1.22,7.9-2.16,14.32-1.76,5,.31,4.57,2.42,8.58,2.2,6-.32,7.53-5,12.68-4.84,5,.17,7.11,4.7,8.18,4,3.17-2.22-11.14-45.86-28.22-45.31C44.3,497.52,41.71,499.69,36.65,504Z"/><path class="cls-3" d="M36.65,483.56C19.74,498,10.22,518.86,13.34,521.84c1.67,1.58,5.72-3,13.09-1.32,3.05.7,2.77,1.59,5.72,2.2,5.93,1.22,7.9-2.16,14.32-1.76,5,.31,4.57,2.41,8.58,2.2,6-.33,7.53-5,12.68-4.84,5,.17,7.11,4.7,8.18,4,3.17-2.22-11.14-45.87-28.22-45.31C44.3,477.08,41.71,479.24,36.65,483.56Z"/><path class="cls-2" d="M1327.51,871.76c2.52,16.7,13.84,40,29.11,40.26s27.79-22.24,30.76-39.38c5-28.77-13.74-62.5-30.41-62.36C1340.51,810.42,1323.27,843.59,1327.51,871.76Z"/><path class="cls-2" d="M1193.9,913.51c.51,6.77,6,7.39,7.84,13.93,2.57,9-6.26,13.33-3.9,21.84,1.9,6.84,9.79,11.85,16.53,12.61,7.79.89,9.23-4.44,17-3.54,9.16,1.06,11.48,9.07,18.66,7.79,5.14-.92,8.24-5.77,8.57-6.3,2-3.25.82-4.59,2.13-9.15,2.4-8.35,7.82-8.91,10.38-18a18.49,18.49,0,0,0,.84-7.32c-.5-4.88-2.92-6.92-4.83-10.8-4.18-8.49.82-12.12-2.65-19-3.25-6.42-11.28-10.42-18.11-10.44-7.06,0-7.34,4.25-17.11,6.37-10.24,2.22-12.9-1.8-20.85,1.63a25,25,0,0,0-10.92,9.29C1196.07,904.6,1193.53,908.6,1193.9,913.51Z"/><path class="cls-3" d="M1257.55,1027.85c2.21,14.69,12.17,35.17,25.61,35.43s24.46-19.58,27.07-34.66c4.38-25.31-12.09-55-26.76-54.87C1269,973.87,1253.82,1003.06,1257.55,1027.85Z"/><path class="cls-3" d="M1193.9,1070.85c.51,6.77,6,7.39,7.84,13.93,2.57,9-6.26,13.33-3.9,21.84,1.9,6.84,9.79,11.85,16.53,12.61,7.79.89,9.23-4.44,17-3.54,9.16,1.07,11.48,9.08,18.66,7.79,5.14-.91,8.24-5.77,8.57-6.3,2-3.25.82-4.59,2.13-9.15,2.4-8.35,7.82-8.91,10.38-18a18.49,18.49,0,0,0,.84-7.32c-.5-4.88-2.92-6.92-4.83-10.8-4.18-8.49.82-12.12-2.65-19-3.25-6.42-11.28-10.42-18.11-10.44-7.06,0-7.34,4.25-17.11,6.37-10.24,2.22-12.9-1.8-20.85,1.63a25,25,0,0,0-10.92,9.29C1196.07,1061.94,1193.53,1065.94,1193.9,1070.85Z"/><path class="cls-4" d="M1351.06,934.83c2.16,14.34,11.88,34.32,25,34.57s23.87-19.1,26.41-33.81c4.28-24.71-11.79-53.67-26.11-53.55C1362.22,882.16,1347.41,910.64,1351.06,934.83Z"/><path class="cls-2" d="M1057.81,1194.39c2.51,16.69,13.83,40,29.11,40.26s27.79-22.24,30.75-39.38c5-28.77-13.73-62.51-30.4-62.36C1070.81,1133.05,1053.56,1166.21,1057.81,1194.39Z"/><path class="cls-4" d="M1091.62,1113.83c2.16,14.34,11.88,34.32,25,34.57s23.87-19.1,26.41-33.81c4.28-24.71-11.79-53.67-26.11-53.55C1102.78,1061.16,1088,1089.64,1091.62,1113.83Z"/><path class="cls-4" d="M1272,952.08c.48,6.31,5.57,6.88,7.3,13,2.38,8.38-5.83,12.39-3.63,20.3,1.77,6.37,9.1,11,15.37,11.74,7.25.82,8.59-4.13,15.77-3.3,8.53,1,10.68,8.44,17.37,7.25,4.77-.85,7.65-5.37,8-5.86,1.88-3,.77-4.27,2-8.51,2.22-7.77,7.27-8.29,9.65-16.75a17.35,17.35,0,0,0,.79-6.81c-.47-4.53-2.72-6.43-4.5-10-3.89-7.9.76-11.27-2.47-17.64-3-6-10.48-9.7-16.84-9.71-6.56,0-6.83,3.95-15.92,5.92-9.51,2.07-12-1.67-19.38,1.52a23.18,23.18,0,0,0-10.17,8.64C1274.05,943.8,1271.69,947.52,1272,952.08Z"/><path class="cls-2" d="M1129.26,1126.58c.51,6.78,6,7.4,7.85,13.94,2.56,9-6.27,13.33-3.91,21.83,1.9,6.85,9.79,11.85,16.53,12.62,7.79.88,9.23-4.44,17-3.54,9.16,1.06,11.48,9.07,18.66,7.79,5.14-.92,8.24-5.77,8.57-6.3,2-3.26.82-4.59,2.13-9.16,2.4-8.35,7.82-8.9,10.38-18a18.52,18.52,0,0,0,.84-7.33c-.5-4.87-2.92-6.92-4.83-10.79-4.18-8.5.82-12.12-2.65-19-3.25-6.42-11.27-10.43-18.11-10.44-7.06,0-7.34,4.24-17.11,6.37-10.23,2.22-12.9-1.8-20.85,1.63a25,25,0,0,0-10.92,9.29C1131.43,1117.68,1128.89,1121.68,1129.26,1126.58Z"/><path class="cls-3" d="M1134.5,1069.29c2.21,14.69,12.17,35.17,25.61,35.43s24.46-19.57,27.07-34.65c4.38-25.32-12.09-55-26.76-54.88C1145.93,1015.31,1130.76,1044.5,1134.5,1069.29Z"/><path class="cls-4" d="M937.11,1146.24c.48,6.3,5.57,6.87,7.3,13,2.39,8.38-5.83,12.4-3.63,20.31,1.77,6.36,9.1,11,15.37,11.73,7.25.82,8.59-4.13,15.78-3.3,8.52,1,10.67,8.45,17.36,7.25,4.77-.85,7.66-5.36,8-5.86,1.88-3,.77-4.27,2-8.51,2.23-7.77,7.27-8.29,9.65-16.74a17.4,17.4,0,0,0,.79-6.81c-.47-4.54-2.72-6.44-4.5-10-3.89-7.89.76-11.26-2.46-17.64-3-6-10.49-9.69-16.85-9.71-6.56,0-6.83,4-15.92,5.92-9.51,2.07-12-1.67-19.38,1.52A23.18,23.18,0,0,0,940.4,1136C939.13,1138,936.77,1141.67,937.11,1146.24Z"/><path class="cls-4" d="M1307.24,876.45c19.83,17,31,41.38,27.32,44.87-2,1.86-6.69-3.55-15.34-1.55-3.57.83-3.24,1.87-6.71,2.58-7,1.44-9.26-2.53-16.78-2.06-5.87.36-5.36,2.83-10.07,2.58-7-.38-8.82-5.88-14.86-5.68-5.85.2-8.34,5.52-9.59,4.65-3.73-2.6,13-53.78,33.08-53.13C1298.26,868.84,1301.31,871.38,1307.24,876.45Z"/><path class="cls-2" d="M1305.87,859.46c16.92,14.47,26.43,35.3,23.31,38.27-1.66,1.59-5.71-3-13.08-1.32-3,.71-2.77,1.59-5.73,2.2-5.93,1.22-7.9-2.16-14.31-1.76-5,.31-4.57,2.42-8.59,2.2-6-.32-7.52-5-12.67-4.84-5,.17-7.12,4.7-8.18,4-3.18-2.22,11.13-45.86,28.21-45.31C1298.22,853,1300.82,855.14,1305.87,859.46Z"/><path class="cls-3" d="M1305.87,839c16.92,14.47,26.43,35.3,23.31,38.28-1.66,1.58-5.71-3-13.08-1.32-3,.7-2.77,1.59-5.73,2.2-5.93,1.22-7.9-2.16-14.31-1.76-5,.31-4.57,2.41-8.59,2.2-6-.33-7.52-5-12.67-4.84-5,.17-7.12,4.7-8.18,4-3.18-2.22,11.13-45.87,28.21-45.31C1298.22,832.53,1300.82,834.69,1305.87,839Z"/><path class="cls-4" d="M1065.32,1111.62c19.83,17,31,41.39,27.33,44.88-2,1.85-6.7-3.56-15.34-1.55-3.57.83-3.25,1.86-6.72,2.58-6.95,1.43-9.26-2.53-16.78-2.07-5.86.37-5.36,2.84-10.06,2.58-7-.37-8.83-5.88-14.87-5.67-5.85.2-8.34,5.51-9.59,4.64-3.72-2.6,13.06-53.77,33.09-53.12C1056.35,1104,1059.39,1106.55,1065.32,1111.62Z"/><path class="cls-2" d="M1064,1094.63c16.91,14.47,26.43,35.3,23.31,38.28-1.67,1.58-5.72-3-13.09-1.32-3,.7-2.77,1.59-5.72,2.2-5.93,1.22-7.9-2.16-14.32-1.76-5,.31-4.57,2.41-8.58,2.2-6-.33-7.53-5-12.68-4.84-5,.17-7.11,4.7-8.18,4-3.17-2.22,11.14-45.87,28.22-45.31C1056.31,1088.15,1058.9,1090.31,1064,1094.63Z"/><path class="cls-3" d="M1064,1074.19c16.91,14.47,26.43,35.3,23.31,38.27-1.67,1.58-5.72-3-13.09-1.32-3,.71-2.77,1.59-5.72,2.2-5.93,1.22-7.9-2.16-14.32-1.76-5,.31-4.57,2.42-8.58,2.2-6-.32-7.53-5-12.68-4.84-5,.17-7.11,4.7-8.18,4-3.17-2.22,11.14-45.86,28.22-45.31C1056.31,1067.7,1058.9,1069.86,1064,1074.19Z"/><path class="cls-4" d="M1033.52,1215.07c19.83,17,31,41.39,27.33,44.88-1.95,1.85-6.7-3.56-15.34-1.55-3.57.83-3.25,1.86-6.71,2.58-7,1.43-9.26-2.53-16.78-2.07-5.87.37-5.36,2.84-10.07,2.58-7-.37-8.83-5.88-14.86-5.67-5.86.2-8.35,5.51-9.59,4.64-3.73-2.6,13-53.77,33.08-53.12C1024.55,1207.46,1027.6,1210,1033.52,1215.07Z"/><path class="cls-2" d="M1032.16,1198.08c16.91,14.47,26.43,35.3,23.31,38.28-1.66,1.58-5.72-3-13.09-1.32-3,.7-2.77,1.59-5.72,2.2-5.93,1.22-7.9-2.16-14.31-1.76-5,.31-4.58,2.41-8.59,2.2-6-.33-7.53-5-12.68-4.84-5,.17-7.11,4.7-8.17,4-3.18-2.22,11.13-45.87,28.21-45.31C1024.51,1191.6,1027.1,1193.76,1032.16,1198.08Z"/><path class="cls-3" d="M1032.16,1177.64c16.91,14.47,26.43,35.3,23.31,38.27-1.66,1.58-5.72-3-13.09-1.32-3,.71-2.77,1.59-5.72,2.2-5.93,1.22-7.9-2.16-14.31-1.76-5,.31-4.58,2.42-8.59,2.2-6-.32-7.53-5-12.68-4.84-5,.17-7.11,4.7-8.17,4-3.18-2.22,11.13-45.86,28.21-45.31C1024.51,1171.15,1027.1,1173.32,1032.16,1177.64Z"/><path class="cls-4" d="M1229,990.94c19.83,17,31,41.39,27.33,44.88-2,1.85-6.7-3.55-15.35-1.55-3.57.83-3.24,1.86-6.71,2.58-7,1.43-9.26-2.53-16.78-2.06-5.87.36-5.36,2.83-10.07,2.57-7-.37-8.82-5.88-14.86-5.67-5.85.2-8.34,5.51-9.59,4.64-3.73-2.6,13-53.77,33.08-53.12C1220,983.34,1223,985.87,1229,990.94Z"/><path class="cls-2" d="M1227.59,974c16.92,14.46,26.43,35.29,23.31,38.27-1.66,1.58-5.71-3-13.08-1.32-3,.7-2.77,1.59-5.73,2.2-5.93,1.22-7.9-2.16-14.31-1.76-5,.31-4.57,2.41-8.59,2.2-6-.32-7.52-5-12.67-4.84-5,.17-7.12,4.7-8.18,4-3.18-2.22,11.13-45.87,28.21-45.31C1219.94,967.47,1222.54,969.63,1227.59,974Z"/><path class="cls-3" d="M1227.59,953.51c16.92,14.47,26.43,35.3,23.31,38.27-1.66,1.59-5.71-3-13.08-1.32-3,.71-2.77,1.59-5.73,2.2-5.93,1.23-7.9-2.15-14.31-1.76-5,.31-4.57,2.42-8.59,2.2-6-.32-7.52-5-12.67-4.84-5,.17-7.12,4.71-8.18,4-3.18-2.22,11.13-45.86,28.21-45.31C1219.94,947,1222.54,949.19,1227.59,953.51Z"/><path class="cls-4" d="M1427.68,831.21c19.83,17,31,41.39,27.32,44.87-2,1.86-6.69-3.55-15.34-1.54-3.57.82-3.24,1.86-6.71,2.57-7,1.44-9.26-2.52-16.78-2.06-5.87.37-5.36,2.83-10.07,2.58-7-.38-8.82-5.88-14.86-5.67-5.85.2-8.34,5.51-9.59,4.64-3.73-2.6,13-53.78,33.08-53.13C1418.7,823.6,1421.75,826.14,1427.68,831.21Z"/><path class="cls-2" d="M1426.31,814.22c16.92,14.47,26.43,35.3,23.31,38.27-1.66,1.59-5.71-3-13.08-1.32-3,.71-2.77,1.59-5.73,2.2-5.93,1.23-7.9-2.15-14.31-1.76-5,.31-4.57,2.42-8.59,2.2-6-.32-7.52-5-12.67-4.84-5,.17-7.12,4.71-8.18,4-3.18-2.21,11.13-45.86,28.21-45.31C1418.66,807.73,1421.26,809.9,1426.31,814.22Z"/><path class="cls-3" d="M1426.31,793.78c16.92,14.46,26.43,35.29,23.31,38.27-1.66,1.58-5.71-3-13.08-1.32-3,.71-2.77,1.59-5.73,2.2-5.93,1.22-7.9-2.16-14.31-1.76-5,.31-4.57,2.41-8.59,2.2-6-.32-7.52-5-12.67-4.84-5,.17-7.12,4.7-8.18,4-3.18-2.22,11.13-45.87,28.21-45.31C1418.66,787.29,1421.26,789.45,1426.31,793.78Z"/><path class="cls-2" d="M789.78,1224.22c2.51,16.7,13.83,40,29.11,40.26s27.79-22.24,30.75-39.37c5-28.78-13.73-62.51-30.4-62.37C802.78,1162.88,785.53,1196.05,789.78,1224.22Z"/><path class="cls-2" d="M673.56,1280.92c.51,6.77,6,7.39,7.85,13.94,2.56,9-6.27,13.32-3.91,21.83,1.9,6.84,9.79,11.85,16.53,12.61,7.79.89,9.23-4.44,17-3.54,9.16,1.07,11.48,9.08,18.66,7.79,5.14-.91,8.24-5.77,8.57-6.3,2-3.25.82-4.59,2.13-9.15,2.4-8.35,7.82-8.91,10.38-18a18.46,18.46,0,0,0,.84-7.32c-.5-4.88-2.92-6.92-4.83-10.8-4.18-8.49.82-12.11-2.65-19-3.25-6.42-11.28-10.42-18.11-10.43-7.06,0-7.34,4.24-17.11,6.36-10.24,2.22-12.9-1.8-20.85,1.63a25,25,0,0,0-10.92,9.29C675.73,1272,673.19,1276,673.56,1280.92Z"/><path class="cls-3" d="M647.11,1247c2.21,14.69,12.17,35.17,25.61,35.43s24.46-19.58,27.07-34.66c4.38-25.31-12.09-55-26.76-54.87C658.55,1193.05,643.37,1222.24,647.11,1247Z"/><path class="cls-3" d="M545.57,1224.79c.51,6.78,6,7.4,7.84,13.94,2.57,9-6.26,13.33-3.9,21.83,1.9,6.85,9.79,11.85,16.53,12.62,7.79.88,9.23-4.44,17-3.54,9.16,1.06,11.47,9.07,18.66,7.79,5.14-.92,8.24-5.77,8.57-6.3,2-3.26.82-4.59,2.13-9.16,2.4-8.35,7.82-8.91,10.38-18a18.44,18.44,0,0,0,.84-7.32c-.5-4.87-2.92-6.92-4.83-10.79-4.18-8.5.82-12.12-2.65-19-3.25-6.42-11.28-10.43-18.11-10.44-7.06,0-7.35,4.24-17.11,6.36C570.64,1205,568,1201,560,1204.45a24.94,24.94,0,0,0-10.93,9.29C547.74,1215.89,545.19,1219.89,545.57,1224.79Z"/><path class="cls-4" d="M839.27,1293c2.16,14.34,11.88,34.32,25,34.57s23.86-19.1,26.41-33.81c4.27-24.7-11.79-53.67-26.11-53.55C850.44,1240.37,835.63,1268.85,839.27,1293Z"/><path class="cls-4" d="M747.15,1293.94c.48,6.31,5.57,6.88,7.3,13,2.38,8.38-5.83,12.39-3.63,20.3,1.77,6.37,9.1,11,15.37,11.74,7.25.82,8.59-4.13,15.77-3.3,8.53,1,10.68,8.44,17.37,7.25,4.77-.85,7.65-5.37,8-5.86,1.88-3,.77-4.27,2-8.52,2.22-7.76,7.27-8.28,9.65-16.74a17.35,17.35,0,0,0,.79-6.81c-.47-4.53-2.72-6.43-4.5-10-3.89-7.9.76-11.27-2.47-17.64-3-6-10.48-9.7-16.84-9.71-6.56,0-6.83,4-15.92,5.92-9.51,2.07-12-1.67-19.38,1.52a23.18,23.18,0,0,0-10.17,8.64C749.17,1285.66,746.81,1289.38,747.15,1293.94Z"/><path class="cls-2" d="M899.36,1255.36c.51,6.78,6,7.4,7.84,13.94,2.57,9-6.27,13.33-3.9,21.83,1.9,6.85,9.78,11.85,16.52,12.62,7.8.89,9.24-4.44,17-3.54,9.17,1.06,11.48,9.07,18.67,7.79,5.13-.92,8.23-5.77,8.56-6.3,2-3.25.83-4.59,2.14-9.15,2.39-8.35,7.82-8.91,10.38-18a18.52,18.52,0,0,0,.84-7.33c-.5-4.87-2.92-6.92-4.83-10.79-4.18-8.49.82-12.12-2.65-19-3.25-6.42-11.28-10.43-18.11-10.44-7.06,0-7.35,4.24-17.12,6.37-10.23,2.22-12.89-1.8-20.84,1.63a25,25,0,0,0-10.93,9.29C901.52,1246.46,899,1250.46,899.36,1255.36Z"/><path class="cls-3" d="M490,1293.52c2.21,14.7,12.17,35.17,25.61,35.43s24.46-19.57,27.07-34.65c4.38-25.32-12.09-55-26.76-54.88C501.43,1239.55,486.25,1268.73,490,1293.52Z"/><path class="cls-4" d="M452.53,1172.42c.48,6.3,5.57,6.87,7.3,13,2.38,8.38-5.83,12.4-3.64,20.31,1.77,6.36,9.11,11,15.38,11.73,7.24.82,8.58-4.13,15.77-3.3,8.53,1,10.68,8.45,17.36,7.25,4.78-.85,7.66-5.36,8-5.86,1.87-3,.76-4.27,2-8.51,2.23-7.77,7.28-8.29,9.66-16.74a17.24,17.24,0,0,0,.78-6.81c-.46-4.54-2.72-6.44-4.49-10-3.89-7.89.76-11.26-2.47-17.64-3-6-10.49-9.69-16.84-9.71-6.57,0-6.84,4-15.92,5.92-9.52,2.07-12-1.67-19.39,1.52a23.25,23.25,0,0,0-10.16,8.64C454.54,1164.14,452.18,1167.85,452.53,1172.42Z"/><path class="cls-4" d="M760.92,1196.77c19.83,17,31,41.38,27.33,44.87-2,1.86-6.7-3.55-15.34-1.55-3.57.83-3.25,1.87-6.71,2.58-7,1.43-9.26-2.53-16.78-2.06-5.87.36-5.36,2.83-10.07,2.58-7-.38-8.83-5.88-14.86-5.68-5.86.2-8.35,5.52-9.59,4.64-3.73-2.6,13.05-53.77,33.08-53.12C752,1189.16,755,1191.7,760.92,1196.77Z"/><path class="cls-2" d="M759.56,1179.78c16.91,14.47,26.43,35.3,23.31,38.27-1.67,1.58-5.72-3-13.09-1.32-3,.71-2.77,1.59-5.72,2.2-5.93,1.22-7.9-2.16-14.31-1.76-5,.31-4.58,2.42-8.59,2.2-6-.32-7.53-5-12.68-4.84-5,.17-7.11,4.7-8.18,4-3.17-2.22,11.14-45.87,28.22-45.31C751.91,1173.29,754.5,1175.45,759.56,1179.78Z"/><path class="cls-3" d="M758.15,1158.73c18.07,13,29.29,33,26.43,36.19-1.53,1.72-6-2.54-13.15-.22-3,1-2.63,1.81-5.52,2.67-5.81,1.71-8-1.49-14.41-.56-5,.73-4.36,2.79-8.37,2.91-6,.18-7.92-4.37-13-3.76-5,.59-6.7,5.28-7.82,4.63-3.35-1.95,7.26-46.64,24.33-47.51C750,1152.9,752.75,1154.84,758.15,1158.73Z"/><path class="cls-4" d="M632.65,1291.93c19.83,17,31,41.39,27.33,44.88-2,1.85-6.7-3.56-15.34-1.55-3.58.83-3.25,1.86-6.72,2.58-6.95,1.43-9.26-2.53-16.78-2.07-5.86.37-5.36,2.84-10.06,2.58-7-.37-8.83-5.88-14.87-5.67-5.85.2-8.34,5.51-9.59,4.64-3.72-2.6,13.06-53.77,33.09-53.12C623.68,1284.32,626.72,1286.86,632.65,1291.93Z"/><path class="cls-2" d="M631.29,1274.94c16.91,14.47,26.43,35.3,23.3,38.28-1.66,1.58-5.71-3-13.08-1.32-3,.7-2.77,1.59-5.72,2.2-5.93,1.22-7.9-2.16-14.32-1.76-5,.31-4.57,2.41-8.58,2.2-6-.33-7.53-5-12.68-4.84-5,.17-7.11,4.7-8.18,4-3.18-2.22,11.14-45.87,28.22-45.31C623.64,1268.46,626.23,1270.62,631.29,1274.94Z"/><path class="cls-3" d="M631.29,1254.5c16.91,14.47,26.43,35.3,23.3,38.27-1.66,1.58-5.71-3-13.08-1.32-3,.71-2.77,1.59-5.72,2.2-5.93,1.22-7.9-2.16-14.32-1.76-5,.31-4.57,2.42-8.58,2.2-6-.32-7.53-5-12.68-4.84-5,.17-7.11,4.7-8.18,4-3.18-2.22,11.14-45.86,28.22-45.31C623.64,1248,626.23,1250.18,631.29,1254.5Z"/><path class="cls-4" d="M906.11,1175.08c19.83,17,31,41.38,27.33,44.87-2,1.86-6.7-3.55-15.34-1.55-3.58.83-3.25,1.87-6.72,2.58-7,1.44-9.26-2.53-16.78-2.06-5.86.36-5.36,2.83-10.07,2.58-7-.38-8.82-5.88-14.86-5.68-5.85.2-8.34,5.52-9.59,4.65-3.72-2.61,13.06-53.78,33.08-53.13C897.14,1167.47,900.18,1170,906.11,1175.08Z"/><path class="cls-2" d="M904.75,1158.09c16.91,14.47,26.43,35.3,23.3,38.27-1.66,1.58-5.71-3-13.08-1.32-3.05.71-2.77,1.59-5.73,2.2-5.93,1.22-7.89-2.16-14.31-1.76-5,.31-4.57,2.42-8.58,2.2-6-.32-7.53-5-12.68-4.84-5,.17-7.11,4.7-8.18,4-3.18-2.22,11.13-45.86,28.22-45.31C897.09,1151.6,899.69,1153.76,904.75,1158.09Z"/><path class="cls-3" d="M904.75,1137.64c16.91,14.47,26.43,35.3,23.3,38.27-1.66,1.59-5.71-3-13.08-1.31-3.05.7-2.77,1.59-5.73,2.19-5.93,1.23-7.89-2.15-14.31-1.75-5,.31-4.57,2.41-8.58,2.19-6-.32-7.53-5-12.68-4.83-5,.17-7.11,4.7-8.18,3.95-3.18-2.21,11.13-45.86,28.22-45.31C897.09,1131.15,899.69,1133.32,904.75,1137.64Z"/><path class="cls-2" d="M1448.93,645.33c2.51,16.69,13.83,40,29.11,40.26s27.79-22.24,30.75-39.38c5-28.77-13.73-62.5-30.4-62.36C1461.93,584,1444.68,617.16,1448.93,645.33Z"/><path class="cls-2" d="M1352.75,450c.52,6.78,6,7.4,7.85,13.94,2.56,9-6.27,13.33-3.91,21.83,1.9,6.85,9.79,11.85,16.53,12.62,7.79.89,9.24-4.44,17-3.54,9.17,1.06,11.48,9.07,18.67,7.79,5.13-.92,8.23-5.77,8.56-6.3,2-3.25.82-4.59,2.13-9.16,2.4-8.35,7.83-8.9,10.39-18a18.7,18.7,0,0,0,.84-7.33c-.5-4.87-2.92-6.92-4.83-10.79-4.19-8.49.82-12.12-2.66-19-3.25-6.42-11.27-10.43-18.1-10.44-7.06,0-7.35,4.24-17.12,6.37-10.23,2.22-12.9-1.8-20.84,1.63a24.91,24.91,0,0,0-10.93,9.29C1354.92,441.08,1352.38,445.08,1352.75,450Z"/><path class="cls-3" d="M1416.4,564.32c2.22,14.7,12.18,35.18,25.62,35.43s24.45-19.57,27.06-34.65c4.38-25.31-12.08-55-26.76-54.87C1427.84,510.35,1412.67,539.54,1416.4,564.32Z"/><path class="cls-3" d="M1352.75,607.32c.52,6.78,6,7.4,7.85,13.94,2.56,9-6.27,13.33-3.91,21.83,1.9,6.85,9.79,11.85,16.53,12.62,7.79.89,9.24-4.44,17-3.54,9.17,1.06,11.48,9.07,18.67,7.79,5.13-.92,8.23-5.77,8.56-6.3,2-3.25.82-4.59,2.13-9.15,2.4-8.36,7.83-8.91,10.39-18a18.7,18.7,0,0,0,.84-7.33c-.5-4.87-2.92-6.92-4.83-10.79-4.19-8.49.82-12.12-2.66-19C1420,583,1412,579,1405.18,579c-7.06,0-7.35,4.24-17.12,6.37-10.23,2.22-12.9-1.8-20.84,1.63a24.91,24.91,0,0,0-10.93,9.29C1354.92,598.42,1352.38,602.42,1352.75,607.32Z"/><path class="cls-3" d="M1478.35,423.33c.52,6.78,6,7.39,7.85,13.94,2.56,9-6.27,13.33-3.91,21.83,1.9,6.84,9.79,11.85,16.53,12.62,7.79.88,9.23-4.45,17-3.55,9.17,1.07,11.48,9.08,18.67,7.8,5.13-.92,8.23-5.77,8.56-6.31,2-3.25.82-4.58,2.13-9.15,2.4-8.35,7.83-8.91,10.39-18a18.65,18.65,0,0,0,.84-7.32c-.5-4.88-2.92-6.92-4.83-10.8-4.19-8.49.81-12.11-2.66-19-3.25-6.42-11.27-10.42-18.11-10.43-7,0-7.34,4.24-17.11,6.36-10.23,2.22-12.9-1.8-20.85,1.63a25,25,0,0,0-10.92,9.29C1480.52,414.43,1478,418.42,1478.35,423.33Z"/><path class="cls-4" d="M1426.84,780.87c2.16,14.34,11.87,34.32,25,34.57s23.86-19.1,26.41-33.81c4.28-24.71-11.79-53.68-26.11-53.55C1438,728.2,1423.19,756.68,1426.84,780.87Z"/><path class="cls-2" d="M1215.56,829.38c2.52,16.7,13.84,40,29.11,40.27s27.79-22.24,30.76-39.38c5-28.77-13.74-62.51-30.41-62.36C1228.56,768.05,1211.32,801.21,1215.56,829.38Z"/><path class="cls-4" d="M1262.3,760.52c2.16,14.33,11.88,34.32,25,34.57s23.86-19.1,26.41-33.82c4.27-24.7-11.8-53.67-26.11-53.55C1273.46,707.85,1258.66,736.33,1262.3,760.52Z"/><path class="cls-4" d="M1430.89,488.56c.47,6.31,5.57,6.88,7.29,13,2.39,8.38-5.83,12.39-3.63,20.3,1.77,6.37,9.1,11,15.37,11.74,7.25.82,8.59-4.14,15.78-3.3,8.53,1,10.68,8.44,17.36,7.25,4.78-.85,7.66-5.37,8-5.86,1.87-3,.76-4.27,2-8.52,2.23-7.76,7.28-8.28,9.66-16.74a17.19,17.19,0,0,0,.78-6.81c-.47-4.53-2.72-6.43-4.49-10-3.9-7.9.76-11.27-2.47-17.64-3-6-10.49-9.7-16.84-9.71-6.57,0-6.84,3.95-15.92,5.92-9.52,2.07-12-1.67-19.39,1.52a23.17,23.17,0,0,0-10.16,8.64C1432.9,480.28,1430.54,484,1430.89,488.56Z"/><path class="cls-2" d="M1288.11,663.06c.52,6.78,6,7.4,7.85,13.94,2.56,9-6.27,13.33-3.91,21.83,1.9,6.85,9.79,11.85,16.53,12.62,7.79.88,9.24-4.44,17-3.55,9.17,1.07,11.48,9.08,18.67,7.8,5.13-.92,8.23-5.77,8.56-6.3,2-3.26.82-4.59,2.13-9.16,2.4-8.35,7.83-8.91,10.39-18a18.62,18.62,0,0,0,.84-7.32c-.5-4.88-2.92-6.92-4.83-10.8-4.19-8.49.82-12.11-2.66-19-3.25-6.42-11.27-10.43-18.1-10.44-7.06,0-7.35,4.24-17.12,6.36-10.23,2.23-12.89-1.79-20.84,1.64a24.83,24.83,0,0,0-10.93,9.29C1290.28,654.16,1287.74,658.16,1288.11,663.06Z"/><path class="cls-3" d="M1293.35,605.77c2.21,14.69,12.17,35.17,25.61,35.43s24.46-19.57,27.07-34.65c4.38-25.32-12.09-55-26.76-54.88C1304.79,551.79,1289.62,581,1293.35,605.77Z"/><path class="cls-4" d="M1366.25,701.64c.48,6.3,5.57,6.88,7.3,13,2.38,8.39-5.83,12.4-3.64,20.31,1.77,6.36,9.11,11,15.38,11.73,7.24.83,8.58-4.13,15.77-3.29,8.53,1,10.68,8.44,17.36,7.25,4.78-.86,7.66-5.37,8-5.86,1.87-3,.76-4.27,2-8.52,2.23-7.76,7.28-8.28,9.66-16.74a17.21,17.21,0,0,0,.78-6.81c-.46-4.54-2.72-6.44-4.49-10-3.89-7.9.76-11.27-2.47-17.64-3-6-10.49-9.7-16.84-9.71-6.57,0-6.84,3.94-15.92,5.92-9.52,2.07-12-1.68-19.39,1.52a23.17,23.17,0,0,0-10.16,8.64C1368.26,693.36,1365.9,697.08,1366.25,701.64Z"/><path class="cls-4" d="M1466.09,412.93c19.83,17,31,41.38,27.33,44.87-2,1.86-6.7-3.55-15.34-1.55-3.58.83-3.25,1.87-6.72,2.58-6.95,1.44-9.26-2.53-16.78-2.06-5.86.36-5.36,2.83-10.07,2.58-7-.38-8.82-5.88-14.86-5.68-5.85.2-8.34,5.52-9.59,4.65-3.72-2.6,13.06-53.78,33.08-53.13C1457.12,405.32,1460.16,407.86,1466.09,412.93Z"/><path class="cls-2" d="M1464.73,395.94c16.91,14.47,26.43,35.3,23.3,38.27-1.66,1.58-5.71-3-13.08-1.32-3,.71-2.77,1.59-5.73,2.2-5.93,1.22-7.89-2.16-14.31-1.76-5,.31-4.57,2.42-8.58,2.2-6-.32-7.53-5-12.68-4.84-5,.17-7.11,4.7-8.18,4-3.18-2.22,11.13-45.86,28.22-45.31C1457.07,389.45,1459.67,391.61,1464.73,395.94Z"/><path class="cls-3" d="M1464.73,375.49c16.91,14.47,26.43,35.3,23.3,38.27-1.66,1.59-5.71-3-13.08-1.31-3,.7-2.77,1.59-5.73,2.19-5.93,1.23-7.89-2.15-14.31-1.75-5,.31-4.57,2.41-8.58,2.19-6-.32-7.53-5-12.68-4.83-5,.17-7.11,4.7-8.18,3.95-3.18-2.21,11.13-45.86,28.22-45.31C1457.07,369,1459.67,371.17,1464.73,375.49Z"/><path class="cls-4" d="M1489.36,694.65c19.84,17,31,41.39,27.33,44.88-2,1.85-6.7-3.55-15.34-1.55-3.57.83-3.25,1.86-6.71,2.58-7,1.43-9.26-2.53-16.78-2.06-5.87.36-5.36,2.83-10.07,2.58-7-.38-8.82-5.88-14.86-5.68-5.86.2-8.34,5.51-9.59,4.64-3.73-2.6,13.05-53.77,33.08-53.12C1480.39,687.05,1483.44,689.58,1489.36,694.65Z"/><path class="cls-2" d="M1488,677.67c16.92,14.46,26.43,35.29,23.31,38.27-1.66,1.58-5.71-3-13.09-1.32-3,.7-2.77,1.59-5.72,2.2-5.93,1.22-7.9-2.16-14.31-1.76-5,.31-4.58,2.41-8.59,2.2-6-.32-7.53-5-12.68-4.84-5,.17-7.11,4.7-8.17,4-3.18-2.22,11.13-45.87,28.21-45.31C1480.35,671.18,1483,673.34,1488,677.67Z"/><path class="cls-3" d="M1488,657.22c16.92,14.47,26.43,35.3,23.31,38.27-1.66,1.59-5.71-3-13.09-1.32-3,.71-2.77,1.59-5.72,2.2-5.93,1.23-7.9-2.15-14.31-1.76-5,.31-4.58,2.42-8.59,2.2-6-.32-7.53-5-12.68-4.84-5,.17-7.11,4.71-8.17,4-3.18-2.22,11.13-45.86,28.21-45.31C1480.35,650.73,1483,652.9,1488,657.22Z"/><path class="cls-4" d="M1356,772.34c19.83,17,31,41.38,27.33,44.87-1.95,1.86-6.7-3.55-15.34-1.55-3.57.83-3.25,1.87-6.71,2.58-7,1.44-9.26-2.53-16.78-2.06-5.87.36-5.36,2.83-10.07,2.58-7-.38-8.83-5.88-14.86-5.67-5.86.2-8.35,5.51-9.59,4.64-3.73-2.6,13-53.78,33.08-53.13C1347,764.73,1350.09,767.27,1356,772.34Z"/><path class="cls-2" d="M1354.65,755.35c16.91,14.47,26.43,35.3,23.31,38.27-1.66,1.59-5.72-3-13.09-1.32-3,.71-2.77,1.59-5.72,2.2-5.93,1.23-7.9-2.15-14.31-1.76-5,.31-4.58,2.42-8.59,2.2-6-.32-7.53-5-12.68-4.84-5,.17-7.11,4.71-8.17,4-3.18-2.22,11.13-45.86,28.21-45.31C1347,748.86,1349.59,751,1354.65,755.35Z"/><path class="cls-3" d="M1354.65,734.91c16.91,14.46,26.43,35.29,23.31,38.27-1.66,1.58-5.72-3-13.09-1.32-3,.7-2.77,1.59-5.72,2.2-5.93,1.22-7.9-2.16-14.31-1.76-5,.31-4.58,2.41-8.59,2.2-6-.32-7.53-5-12.68-4.84-5,.17-7.11,4.7-8.17,4-3.18-2.22,11.13-45.87,28.21-45.31C1347,728.42,1349.59,730.58,1354.65,734.91Z"/><path class="cls-4" d="M1387.81,527.42c19.83,17,31,41.39,27.33,44.88-2,1.85-6.7-3.56-15.34-1.55-3.57.83-3.25,1.86-6.71,2.58-7,1.43-9.27-2.53-16.79-2.07-5.86.37-5.36,2.84-10.06,2.58-7-.37-8.83-5.88-14.87-5.67-5.85.2-8.34,5.51-9.58,4.64-3.73-2.6,13-53.77,33.08-53.12C1378.84,519.81,1381.88,522.35,1387.81,527.42Z"/><path class="cls-2" d="M1386.45,510.43c16.91,14.47,26.43,35.3,23.31,38.28-1.67,1.58-5.72-3-13.09-1.32-3.05.7-2.77,1.59-5.72,2.2-5.93,1.22-7.9-2.16-14.32-1.76-5,.31-4.57,2.41-8.58,2.2-6-.33-7.53-5-12.68-4.84-5,.17-7.11,4.7-8.18,4-3.17-2.22,11.14-45.87,28.22-45.31C1378.8,504,1381.39,506.11,1386.45,510.43Z"/><path class="cls-3" d="M1386.45,490c16.91,14.47,26.43,35.3,23.31,38.27-1.67,1.58-5.72-3-13.09-1.32-3.05.71-2.77,1.59-5.72,2.2-5.93,1.22-7.9-2.16-14.32-1.76-5,.31-4.57,2.42-8.58,2.2-6-.32-7.53-5-12.68-4.84-5,.17-7.11,4.7-8.18,4-3.17-2.22,11.14-45.86,28.22-45.31C1378.8,483.5,1381.39,485.66,1386.45,490Z"/><path class="cls-4" d="M1521.16,536.45c19.83,17,31,41.38,27.33,44.87-2,1.86-6.7-3.55-15.34-1.55-3.57.83-3.25,1.87-6.71,2.58-7,1.44-9.26-2.53-16.78-2.06-5.87.36-5.37,2.83-10.07,2.58-7-.38-8.83-5.88-14.87-5.68-5.85.2-8.34,5.52-9.58,4.65-3.73-2.6,13-53.78,33.08-53.13C1512.19,528.84,1515.23,531.38,1521.16,536.45Z"/><path class="cls-2" d="M1519.8,519.46c16.91,14.47,26.43,35.3,23.31,38.27-1.67,1.58-5.72-3-13.09-1.32-3,.71-2.77,1.59-5.72,2.2-5.93,1.22-7.9-2.16-14.31-1.76-5,.31-4.58,2.42-8.59,2.2-6-.32-7.53-5-12.68-4.84-5,.17-7.11,4.7-8.18,4-3.17-2.22,11.14-45.86,28.22-45.31C1512.15,513,1514.74,515.13,1519.8,519.46Z"/><path class="cls-3" d="M1519.8,499c16.91,14.47,26.43,35.3,23.31,38.28-1.67,1.58-5.72-3-13.09-1.32-3,.7-2.77,1.59-5.72,2.2-5.93,1.22-7.9-2.16-14.31-1.76-5,.31-4.58,2.41-8.59,2.2-6-.33-7.53-5-12.68-4.84-5,.17-7.11,4.7-8.18,4-3.17-2.22,11.14-45.87,28.22-45.31C1512.15,492.53,1514.74,494.69,1519.8,499Z"/><path class="cls-2" d="M510.63,213.67c2.51,16.7,13.83,40,29.1,40.26s27.8-22.24,30.76-39.37c5-28.78-13.73-62.51-30.41-62.37C523.63,152.33,506.38,185.5,510.63,213.67Z"/><path class="cls-2" d="M778.84,297c.51,6.78,6,7.39,7.84,13.94,2.57,9-6.27,13.32-3.9,21.83,1.9,6.84,9.78,11.85,16.52,12.61,7.8.89,9.24-4.44,17-3.54,9.17,1.07,11.48,9.08,18.67,7.79,5.13-.91,8.23-5.76,8.56-6.3,2-3.25.83-4.59,2.14-9.15,2.39-8.35,7.82-8.91,10.38-18a18.46,18.46,0,0,0,.84-7.32c-.5-4.88-2.92-6.92-4.83-10.8-4.18-8.49.82-12.11-2.65-19-3.25-6.42-11.28-10.42-18.11-10.43-7.06,0-7.35,4.24-17.12,6.36-10.23,2.22-12.89-1.8-20.84,1.63a25,25,0,0,0-10.93,9.29C781,288.06,778.46,292.05,778.84,297Z"/><path class="cls-3" d="M352.93,160.81c2.22,14.69,12.18,35.17,25.62,35.43s24.45-19.57,27.06-34.65c4.39-25.32-12.08-55-26.75-54.88C364.37,106.84,349.2,136,352.93,160.81Z"/><path class="cls-3" d="M431.87,163.08c.52,6.78,6,7.4,7.85,13.94,2.56,9-6.27,13.33-3.91,21.83,1.9,6.84,9.79,11.85,16.53,12.62,7.79.88,9.24-4.45,17-3.55,9.17,1.07,11.48,9.08,18.67,7.8,5.13-.92,8.23-5.77,8.56-6.31,2-3.25.83-4.58,2.14-9.15,2.39-8.35,7.82-8.91,10.38-18a18.62,18.62,0,0,0,.84-7.32c-.5-4.88-2.92-6.92-4.83-10.8-4.19-8.49.82-12.11-2.65-19-3.26-6.42-11.28-10.42-18.11-10.43-7.06,0-7.35,4.24-17.12,6.36-10.23,2.23-12.89-1.8-20.84,1.64A24.83,24.83,0,0,0,435.41,152C434,154.18,431.5,158.17,431.87,163.08Z"/><path class="cls-3" d="M578.91,228.12c.51,6.77,6,7.39,7.85,13.93,2.56,9-6.27,13.33-3.91,21.84,1.9,6.84,9.79,11.85,16.53,12.61,7.79.89,9.23-4.44,17-3.54,9.17,1.07,11.48,9.08,18.66,7.79,5.14-.91,8.24-5.77,8.57-6.3,2-3.25.82-4.59,2.13-9.15,2.4-8.35,7.83-8.91,10.38-18a18.62,18.62,0,0,0,.85-7.32c-.5-4.88-2.93-6.92-4.84-10.8-4.18-8.49.82-12.11-2.65-19-3.25-6.42-11.27-10.42-18.11-10.44-7.06,0-7.34,4.25-17.11,6.37-10.23,2.22-12.9-1.8-20.85,1.63a25,25,0,0,0-10.92,9.29C581.08,219.21,578.54,223.21,578.91,228.12Z"/><path class="cls-4" d="M403.63,137.39c2.16,14.33,11.88,34.32,25,34.57s23.86-19.1,26.41-33.81c4.27-24.71-11.79-53.68-26.11-53.55C414.8,84.72,400,113.2,403.63,137.39Z"/><path class="cls-2" d="M192.36,185.9c2.51,16.7,13.83,40,29.11,40.27s27.79-22.25,30.75-39.38c5-28.77-13.73-62.51-30.4-62.37C205.36,124.56,188.12,157.73,192.36,185.9Z"/><path class="cls-4" d="M239.1,117c2.16,14.34,11.88,34.32,25,34.58s23.87-19.1,26.41-33.82c4.28-24.7-11.79-53.67-26.11-53.55C250.26,64.36,235.45,92.84,239.1,117Z"/><path class="cls-4" d="M484.19,96.56c.48,6.31,5.57,6.88,7.3,13,2.38,8.38-5.83,12.39-3.64,20.3,1.77,6.37,9.11,11,15.38,11.74,7.24.82,8.59-4.13,15.77-3.3,8.53,1,10.68,8.44,17.36,7.25,4.78-.85,7.66-5.36,8-5.86,1.87-3,.76-4.27,2-8.51,2.23-7.77,7.28-8.29,9.66-16.75a17.19,17.19,0,0,0,.78-6.81c-.46-4.53-2.71-6.43-4.49-10-3.89-7.9.76-11.26-2.47-17.64-3-6-10.49-9.7-16.84-9.71-6.57,0-6.83,4-15.92,5.92-9.52,2.07-12-1.67-19.39,1.52a23.17,23.17,0,0,0-10.16,8.64C486.21,88.28,483.84,92,484.19,96.56Z"/><path class="cls-2" d="M879.24,157.41c.52,6.77,6,7.39,7.85,13.94,2.56,9-6.27,13.32-3.91,21.83,1.9,6.84,9.79,11.85,16.53,12.61,7.79.89,9.24-4.44,17-3.54,9.17,1.07,11.48,9.08,18.67,7.79,5.13-.91,8.23-5.77,8.56-6.3,2-3.25.83-4.59,2.14-9.15,2.39-8.35,7.82-8.91,10.38-18a18.65,18.65,0,0,0,.84-7.32c-.5-4.88-2.92-6.92-4.83-10.8-4.19-8.49.82-12.11-2.65-19-3.26-6.42-11.28-10.42-18.11-10.43-7.06,0-7.35,4.24-17.12,6.36-10.23,2.22-12.89-1.8-20.84,1.63a24.91,24.91,0,0,0-10.93,9.29C881.41,148.5,878.87,152.5,879.24,157.41Z"/><path class="cls-3" d="M723.63,353.83c2.22,14.69,12.18,35.17,25.62,35.43s24.45-19.57,27.06-34.65c4.38-25.32-12.08-55-26.76-54.88C735.07,299.85,719.9,329,723.63,353.83Z"/><path class="cls-4" d="M343,58.16c.48,6.3,5.57,6.88,7.3,13,2.39,8.39-5.83,12.4-3.63,20.31,1.77,6.36,9.1,11,15.37,11.73,7.25.83,8.59-4.13,15.78-3.29,8.52,1,10.67,8.44,17.36,7.25,4.77-.86,7.66-5.37,8-5.87,1.88-3,.77-4.26,2-8.51,2.23-7.77,7.27-8.29,9.65-16.74a17.38,17.38,0,0,0,.79-6.81c-.47-4.54-2.72-6.44-4.5-10-3.89-7.9.76-11.27-2.46-17.65-3-6-10.49-9.69-16.85-9.7-6.56,0-6.83,3.94-15.92,5.92-9.51,2.06-12-1.68-19.38,1.52a23.11,23.11,0,0,0-10.17,8.64C345.06,49.88,342.7,53.59,343,58.16Z"/><path class="cls-4" d="M866.2,214.65c19.83,17,31,41.39,27.33,44.88-1.95,1.85-6.7-3.55-15.34-1.55-3.57.83-3.25,1.86-6.72,2.58-7,1.43-9.26-2.53-16.78-2.06-5.86.36-5.36,2.83-10.06,2.58-7-.38-8.83-5.88-14.87-5.68-5.85.2-8.34,5.51-9.59,4.64-3.72-2.6,13.06-53.77,33.09-53.12C857.23,207.05,860.27,209.58,866.2,214.65Z"/><path class="cls-2" d="M864.84,197.67c16.91,14.46,26.43,35.29,23.31,38.27-1.67,1.58-5.72-3-13.09-1.32-3,.71-2.77,1.59-5.72,2.2-5.93,1.22-7.9-2.16-14.32-1.76-5,.31-4.57,2.41-8.58,2.2-6-.32-7.53-5-12.68-4.84-5,.17-7.11,4.7-8.18,4-3.18-2.22,11.14-45.87,28.22-45.31C857.19,191.18,859.78,193.34,864.84,197.67Z"/><path class="cls-3" d="M864.84,177.22c16.91,14.47,26.43,35.3,23.31,38.27-1.67,1.59-5.72-3-13.09-1.32-3,.71-2.77,1.59-5.72,2.2-5.93,1.23-7.9-2.15-14.32-1.76-5,.31-4.57,2.42-8.58,2.2-6-.32-7.53-5-12.68-4.84-5,.17-7.11,4.71-8.18,4-3.18-2.21,11.14-45.86,28.22-45.31C857.19,170.73,859.78,172.9,864.84,177.22Z"/><path class="cls-4" d="M466.16,51.17c19.83,17,31,41.39,27.33,44.88-1.95,1.85-6.7-3.56-15.34-1.55-3.57.83-3.25,1.86-6.72,2.58-6.95,1.43-9.26-2.53-16.78-2.07-5.86.37-5.36,2.84-10.06,2.58-7-.37-8.83-5.88-14.87-5.67-5.85.2-8.34,5.51-9.59,4.64-3.72-2.6,13.06-53.77,33.09-53.12C457.19,43.56,460.23,46.1,466.16,51.17Z"/><path class="cls-2" d="M464.8,34.18c16.91,14.47,26.43,35.3,23.31,38.28-1.67,1.58-5.72-3-13.09-1.32-3,.7-2.77,1.59-5.72,2.2-5.93,1.22-7.9-2.16-14.32-1.76-5,.31-4.57,2.41-8.58,2.2-6-.33-7.53-5-12.68-4.84-5,.17-7.11,4.7-8.18,4-3.18-2.22,11.14-45.87,28.22-45.31C457.15,27.7,459.74,29.86,464.8,34.18Z"/><path class="cls-3" d="M464.8,13.74C481.71,28.21,491.23,49,488.11,52c-1.67,1.59-5.72-3-13.09-1.32-3,.71-2.77,1.59-5.72,2.2-5.93,1.22-7.9-2.16-14.32-1.76-5,.31-4.57,2.42-8.58,2.2-6-.32-7.53-5-12.68-4.84-5,.17-7.11,4.7-8.18,4-3.18-2.22,11.14-45.86,28.22-45.31C457.15,7.25,459.74,9.42,464.8,13.74Z"/><path class="cls-4" d="M332.81,128.86c19.83,17,31,41.38,27.33,44.87-1.95,1.86-6.7-3.55-15.34-1.55-3.58.83-3.25,1.87-6.72,2.58-6.95,1.44-9.26-2.53-16.78-2.06-5.86.36-5.36,2.83-10.06,2.58-7-.38-8.83-5.88-14.87-5.68-5.85.2-8.34,5.52-9.59,4.65-3.72-2.6,13.06-53.78,33.09-53.13C323.84,121.25,326.88,123.79,332.81,128.86Z"/><path class="cls-2" d="M331.45,111.87c16.91,14.47,26.43,35.3,23.3,38.27-1.66,1.58-5.71-3-13.08-1.32-3.05.71-2.77,1.59-5.72,2.2-5.93,1.22-7.9-2.16-14.32-1.76-5,.31-4.57,2.42-8.58,2.2-6-.32-7.53-5-12.68-4.84-5,.17-7.11,4.7-8.18,4-3.18-2.22,11.14-45.86,28.22-45.31C323.8,105.38,326.39,107.55,331.45,111.87Z"/><path class="cls-3" d="M331.45,91.42c16.91,14.47,26.43,35.3,23.3,38.28-1.66,1.58-5.71-3-13.08-1.32-3.05.7-2.77,1.59-5.72,2.2-5.93,1.22-7.9-2.16-14.32-1.76-5,.31-4.57,2.41-8.58,2.2-6-.33-7.53-5-12.68-4.84-5,.17-7.11,4.7-8.18,4-3.18-2.22,11.14-45.87,28.22-45.31C323.8,84.94,326.39,87.1,331.45,91.42Z"/><path class="cls-4" d="M686.19,298.06c19.83,17,31,41.38,27.32,44.87-1.94,1.86-6.69-3.55-15.34-1.55-3.57.83-3.24,1.87-6.71,2.58-7,1.44-9.26-2.53-16.78-2.06-5.87.36-5.36,2.83-10.07,2.58-7-.38-8.82-5.88-14.86-5.68-5.85.2-8.34,5.52-9.59,4.65-3.73-2.6,13.05-53.78,33.08-53.13C677.21,290.45,680.26,293,686.19,298.06Z"/><path class="cls-2" d="M684.82,281.07c16.92,14.47,26.43,35.3,23.31,38.27-1.66,1.58-5.71-3-13.08-1.32-3,.71-2.77,1.59-5.73,2.2-5.93,1.22-7.9-2.16-14.31-1.76-5,.31-4.57,2.42-8.59,2.2-6-.32-7.52-5-12.67-4.84-5,.17-7.12,4.7-8.18,4-3.18-2.22,11.13-45.86,28.21-45.31C677.17,274.58,679.77,276.74,684.82,281.07Z"/><path class="cls-3" d="M684.82,260.62c16.92,14.47,26.43,35.3,23.31,38.27-1.66,1.59-5.71-3-13.08-1.31-3,.7-2.77,1.59-5.73,2.19-5.93,1.23-7.9-2.15-14.31-1.75-5,.31-4.57,2.41-8.59,2.19-6-.32-7.52-5-12.67-4.83-5,.17-7.12,4.7-8.18,3.95-3.18-2.21,11.13-45.86,28.21-45.31C677.17,254.13,679.77,256.3,684.82,260.62Z"/><path class="cls-4" d="M595.41,150.28c19.83,17,31,41.38,27.33,44.87-2,1.86-6.7-3.55-15.35-1.55-3.57.83-3.24,1.87-6.71,2.58-6.95,1.43-9.26-2.53-16.78-2.06-5.87.36-5.36,2.83-10.07,2.58-7-.38-8.82-5.88-14.86-5.68-5.85.2-8.34,5.52-9.59,4.65-3.73-2.61,13-53.78,33.08-53.13C586.44,142.67,589.48,145.21,595.41,150.28Z"/><path class="cls-2" d="M594,133.29c16.92,14.47,26.43,35.3,23.31,38.27-1.66,1.58-5.71-3-13.08-1.32-3,.71-2.77,1.59-5.73,2.2-5.93,1.22-7.9-2.16-14.31-1.76-5,.31-4.57,2.42-8.59,2.2-6-.32-7.52-5-12.67-4.84-5,.17-7.12,4.7-8.18,4-3.18-2.22,11.13-45.87,28.21-45.31C586.39,126.8,589,129,594,133.29Z"/><path class="cls-3" d="M594,112.84c16.92,14.47,26.43,35.3,23.31,38.27-1.66,1.59-5.71-3-13.08-1.32-3,.71-2.77,1.59-5.73,2.2-5.93,1.23-7.9-2.15-14.31-1.76-5,.31-4.57,2.42-8.59,2.2-6-.32-7.52-5-12.67-4.83-5,.17-7.12,4.7-8.18,4-3.18-2.21,11.13-45.86,28.21-45.31C586.39,106.35,589,108.52,594,112.84Z"/><path class="cls-2" d="M106.09,286.31c2.52,16.7,13.84,40,29.11,40.27S163,304.33,166,287.2c5-28.77-13.74-62.51-30.41-62.37C119.09,225,101.85,258.14,106.09,286.31Z"/><path class="cls-4" d="M139.9,205.76c2.16,14.34,11.88,34.32,25,34.57s23.86-19.1,26.41-33.81c4.27-24.71-11.8-53.67-26.11-53.55C151.07,153.09,136.26,181.57,139.9,205.76Z"/><path class="cls-4" d="M113.61,203.55c19.83,17,31,41.39,27.32,44.87-2,1.86-6.69-3.55-15.34-1.54-3.57.82-3.24,1.86-6.71,2.58-6.95,1.43-9.26-2.53-16.78-2.07-5.87.37-5.36,2.83-10.07,2.58-7-.38-8.82-5.88-14.86-5.67-5.85.2-8.34,5.51-9.59,4.64-3.73-2.6,13-53.78,33.08-53.13C104.63,195.94,107.68,198.48,113.61,203.55Z"/><path class="cls-2" d="M112.24,186.56c16.92,14.47,26.43,35.3,23.31,38.27-1.66,1.59-5.71-3-13.08-1.32-3,.71-2.77,1.59-5.73,2.2-5.93,1.23-7.9-2.15-14.31-1.76-5,.31-4.57,2.42-8.59,2.2-6-.32-7.52-5-12.67-4.84s-7.12,4.71-8.18,4c-3.18-2.21,11.13-45.86,28.21-45.31C104.59,180.07,107.19,182.24,112.24,186.56Z"/><path class="cls-3" d="M112.24,166.12c16.92,14.47,26.43,35.29,23.31,38.27-1.66,1.58-5.71-3-13.08-1.32-3,.71-2.77,1.59-5.73,2.2-5.93,1.22-7.9-2.16-14.31-1.76-5,.31-4.57,2.41-8.59,2.2-6-.32-7.52-5-12.67-4.84s-7.12,4.7-8.18,4c-3.18-2.22,11.13-45.87,28.21-45.31C104.59,159.63,107.19,161.79,112.24,166.12Z"/><path class="cls-4" d="M81.81,307c19.83,17,31,41.39,27.33,44.87-2,1.86-6.7-3.55-15.35-1.54-3.57.82-3.24,1.86-6.71,2.58-7,1.43-9.26-2.53-16.78-2.07-5.87.37-5.36,2.83-10.07,2.58-7-.38-8.82-5.88-14.86-5.67-5.85.2-8.34,5.51-9.59,4.64-3.73-2.6,13-53.78,33.08-53.13C72.84,299.39,75.88,301.93,81.81,307Z"/><path class="cls-2" d="M80.44,290c16.92,14.47,26.43,35.3,23.31,38.27-1.66,1.59-5.71-3-13.08-1.32-3,.71-2.77,1.59-5.73,2.2C79,330.39,77,327,70.63,327.4c-5,.31-4.57,2.42-8.59,2.2-6-.32-7.52-5-12.67-4.83-5,.17-7.12,4.7-8.18,4C38,326.51,52.32,282.86,69.4,283.41,72.79,283.52,75.39,285.69,80.44,290Z"/><path class="cls-3" d="M80.44,269.57c16.92,14.47,26.43,35.29,23.31,38.27-1.66,1.58-5.71-3-13.08-1.32-3,.71-2.77,1.59-5.73,2.2C79,309.94,77,306.56,70.63,307c-5,.31-4.57,2.42-8.59,2.2-6-.32-7.52-5-12.67-4.84-5,.17-7.12,4.7-8.18,4C38,306.06,52.32,262.41,69.4,263,72.79,263.08,75.39,265.24,80.44,269.57Z"/><path class="cls-2" d="M1073.65,206.53c-2.51,16.7-13.83,40-29.1,40.27s-27.8-22.25-30.76-39.38c-5-28.77,13.73-62.51,30.41-62.36C1060.65,145.2,1077.9,178.36,1073.65,206.53Z"/><path class="cls-2" d="M1542.56,356.67c-.52,6.78-6,7.4-7.85,13.94-2.56,9,6.27,13.33,3.91,21.83-1.9,6.85-9.79,11.85-16.53,12.62-7.79.88-9.23-4.44-17-3.54-9.17,1.06-11.48,9.07-18.67,7.79-5.13-.92-8.23-5.77-8.56-6.3-2-3.26-.82-4.59-2.13-9.16-2.4-8.35-7.83-8.91-10.39-18a18.62,18.62,0,0,1-.84-7.32c.5-4.87,2.92-6.92,4.83-10.79,4.19-8.5-.81-12.12,2.66-19,3.25-6.42,11.27-10.43,18.11-10.44,7,0,7.34,4.24,17.11,6.37,10.23,2.22,12.9-1.8,20.84,1.63a24.91,24.91,0,0,1,10.93,9.29C1540.39,347.77,1542.93,351.77,1542.56,356.67Z"/><path class="cls-3" d="M1231.35,153.67c-2.22,14.7-12.18,35.18-25.62,35.43s-24.45-19.57-27.06-34.65c-4.39-25.31,12.08-55,26.75-54.87C1219.91,99.7,1235.08,128.88,1231.35,153.67Z"/><path class="cls-3" d="M1152.41,155.94c-.52,6.78-6,7.4-7.85,13.94-2.56,9,6.27,13.33,3.91,21.83-1.9,6.85-9.79,11.85-16.53,12.62-7.79.89-9.24-4.44-17-3.54-9.17,1.06-11.48,9.07-18.67,7.79-5.13-.92-8.23-5.77-8.56-6.3-2-3.25-.83-4.59-2.14-9.15-2.39-8.35-7.82-8.91-10.38-18a18.7,18.7,0,0,1-.84-7.33c.5-4.87,2.92-6.92,4.83-10.79,4.19-8.49-.82-12.12,2.65-19,3.26-6.42,11.28-10.43,18.11-10.44,7.06,0,7.35,4.24,17.12,6.37,10.23,2.22,12.89-1.8,20.84,1.63a24.91,24.91,0,0,1,10.93,9.29C1150.24,147,1152.78,151,1152.41,155.94Z"/><path class="cls-3" d="M996.38,212.62c-.52,6.77-6,7.39-7.85,13.94-2.56,9,6.27,13.32,3.9,21.83-1.9,6.84-9.78,11.85-16.52,12.61-7.8.89-9.24-4.44-17-3.54-9.17,1.07-11.48,9.08-18.67,7.79-5.13-.91-8.23-5.77-8.56-6.3-2-3.25-.83-4.59-2.14-9.15-2.39-8.35-7.82-8.91-10.38-18a18.65,18.65,0,0,1-.84-7.32c.5-4.88,2.92-6.92,4.83-10.8,4.18-8.49-.82-12.11,2.65-19,3.25-6.42,11.28-10.42,18.11-10.44,7.06,0,7.35,4.25,17.12,6.37,10.23,2.22,12.89-1.8,20.84,1.63a25,25,0,0,1,10.93,9.29C994.21,203.71,996.75,207.71,996.38,212.62Z"/><path class="cls-4" d="M1180.65,130.25c-2.16,14.34-11.88,34.32-25,34.57s-23.86-19.1-26.41-33.81C1125,106.3,1141,77.34,1155.35,77.46,1169.48,77.58,1184.29,106.06,1180.65,130.25Z"/><path class="cls-2" d="M1391.92,178.77c-2.51,16.7-13.83,40-29.11,40.26s-27.79-22.24-30.76-39.38c-5-28.77,13.74-62.5,30.41-62.36C1378.92,117.43,1396.16,150.6,1391.92,178.77Z"/><path class="cls-4" d="M1345.18,109.9c-2.16,14.34-11.88,34.32-25,34.57s-23.87-19.1-26.41-33.81C1289.5,86,1305.57,57,1319.89,57.11,1334,57.23,1348.83,85.71,1345.18,109.9Z"/><path class="cls-4" d="M1100.09,89.43c-.48,6.3-5.57,6.88-7.3,13-2.38,8.39,5.83,12.4,3.64,20.31-1.77,6.36-9.11,11-15.38,11.73-7.24.83-8.59-4.13-15.77-3.29-8.53,1-10.68,8.44-17.36,7.24-4.78-.85-7.66-5.36-8-5.86-1.87-3-.76-4.26-2-8.51-2.23-7.77-7.28-8.29-9.66-16.74a17.21,17.21,0,0,1-.78-6.81c.46-4.54,2.71-6.44,4.49-10,3.89-7.9-.76-11.27,2.47-17.65,3-6,10.49-9.69,16.84-9.7,6.57,0,6.83,3.94,15.92,5.92,9.52,2.06,12-1.68,19.39,1.52a23.1,23.1,0,0,1,10.16,8.64C1098.07,81.15,1100.44,84.86,1100.09,89.43Z"/><path class="cls-2" d="M1469.88,204.61c-.51,6.78-6,7.4-7.84,13.94-2.57,9,6.26,13.33,3.9,21.83-1.9,6.85-9.79,11.85-16.53,12.62-7.79.88-9.23-4.44-17-3.54-9.17,1.06-11.48,9.07-18.67,7.79-5.14-.92-8.23-5.77-8.57-6.3-2-3.26-.82-4.59-2.13-9.16-2.39-8.35-7.82-8.91-10.38-18a18.44,18.44,0,0,1-.84-7.32c.5-4.87,2.92-6.92,4.83-10.8,4.18-8.49-.82-12.11,2.65-19,3.25-6.42,11.28-10.43,18.11-10.44,7.06,0,7.35,4.24,17.11,6.36,10.24,2.23,12.9-1.79,20.85,1.64a24.89,24.89,0,0,1,10.93,9.29C1467.71,195.71,1470.26,199.71,1469.88,204.61Z"/><path class="cls-3" d="M1442.24,337.66c-2.21,14.7-12.17,35.18-25.61,35.43s-24.46-19.57-27.07-34.65c-4.38-25.31,12.09-55,26.76-54.87C1430.8,283.69,1446,312.87,1442.24,337.66Z"/><path class="cls-4" d="M1241.24,51c-.48,6.31-5.57,6.88-7.3,13-2.39,8.38,5.83,12.39,3.63,20.3-1.77,6.37-9.1,11-15.37,11.74-7.25.82-8.59-4.13-15.78-3.3-8.52,1-10.67,8.44-17.36,7.25-4.77-.85-7.66-5.37-8-5.86-1.88-3-.77-4.27-2-8.52-2.23-7.76-7.27-8.28-9.65-16.74a17.35,17.35,0,0,1-.79-6.81c.47-4.53,2.72-6.43,4.5-10,3.89-7.9-.77-11.27,2.46-17.64,3-6,10.49-9.7,16.85-9.71,6.56,0,6.83,3.95,15.92,5.92,9.51,2.07,12-1.67,19.38,1.52A23.18,23.18,0,0,1,1238,40.74C1239.22,42.74,1241.58,46.46,1241.24,51Z"/><path class="cls-4" d="M1470.83,282c-19.83,17-31,41.38-27.32,44.87,2,1.86,6.69-3.55,15.34-1.55,3.57.83,3.24,1.87,6.71,2.58,7,1.43,9.26-2.53,16.78-2.06,5.87.36,5.36,2.83,10.07,2.58,7-.38,8.82-5.88,14.86-5.68,5.85.2,8.34,5.52,9.59,4.65,3.73-2.61-13-53.78-33.08-53.13C1479.81,274.37,1476.76,276.91,1470.83,282Z"/><path class="cls-2" d="M1472.2,265c-16.92,14.47-26.43,35.3-23.31,38.27,1.66,1.58,5.71-3,13.08-1.32,3,.71,2.77,1.59,5.73,2.2,5.93,1.22,7.9-2.16,14.31-1.76,5,.31,4.57,2.42,8.59,2.2,6-.32,7.52-5,12.67-4.84,5,.17,7.12,4.7,8.18,4,3.18-2.22-11.13-45.86-28.21-45.31C1479.85,258.5,1477.25,260.66,1472.2,265Z"/><path class="cls-3" d="M1472.2,244.54c-16.92,14.47-26.43,35.3-23.31,38.27,1.66,1.59,5.71-3,13.08-1.31,3,.7,2.77,1.59,5.73,2.19,5.93,1.23,7.9-2.15,14.31-1.75,5,.31,4.57,2.41,8.59,2.19,6-.32,7.52-5,12.67-4.83,5,.17,7.12,4.7,8.18,3.95,3.18-2.21-11.13-45.86-28.21-45.31C1479.85,238.05,1477.25,240.22,1472.2,244.54Z"/><path class="cls-4" d="M1118.12,44c-19.83,17-31,41.38-27.33,44.87,2,1.86,6.7-3.55,15.34-1.55,3.57.83,3.25,1.87,6.72,2.58,7,1.44,9.26-2.53,16.78-2.06,5.86.36,5.36,2.83,10.06,2.58,7-.38,8.83-5.88,14.87-5.68,5.85.2,8.34,5.52,9.59,4.65,3.72-2.6-13.06-53.78-33.09-53.13C1127.09,36.43,1124.05,39,1118.12,44Z"/><path class="cls-2" d="M1119.48,27.05c-16.91,14.47-26.43,35.3-23.31,38.27,1.67,1.58,5.72-3,13.09-1.32,3,.71,2.77,1.59,5.72,2.2,5.93,1.22,7.9-2.16,14.32-1.76,5,.31,4.57,2.42,8.58,2.2,6-.32,7.53-5,12.68-4.84,5,.17,7.11,4.7,8.18,4,3.18-2.22-11.14-45.86-28.22-45.31C1127.13,20.56,1124.54,22.72,1119.48,27.05Z"/><path class="cls-3" d="M1119.48,6.6c-16.91,14.47-26.43,35.3-23.31,38.28,1.67,1.58,5.72-3,13.09-1.32,3,.7,2.77,1.59,5.72,2.2,5.93,1.22,7.9-2.16,14.32-1.76,5,.31,4.57,2.41,8.58,2.2,6-.33,7.53-5,12.68-4.84,5,.17,7.11,4.7,8.18,4C1161.92,43.1,1147.6-.55,1130.52,0,1127.13.12,1124.54,2.28,1119.48,6.6Z"/><path class="cls-4" d="M1251.47,121.72c-19.83,17-31,41.39-27.33,44.88,1.95,1.85,6.7-3.56,15.34-1.55,3.58.83,3.25,1.86,6.72,2.58,7,1.43,9.26-2.53,16.78-2.07,5.86.37,5.36,2.84,10.06,2.58,7-.37,8.83-5.88,14.87-5.67,5.85.2,8.34,5.51,9.59,4.64,3.72-2.6-13.06-53.78-33.09-53.13C1260.44,114.11,1257.4,116.65,1251.47,121.72Z"/><path class="cls-2" d="M1252.83,104.73c-16.91,14.47-26.43,35.3-23.3,38.28,1.66,1.58,5.71-3,13.08-1.32,3.05.7,2.77,1.59,5.72,2.2,5.93,1.22,7.9-2.16,14.32-1.76,5,.31,4.57,2.41,8.58,2.2,6-.33,7.53-5,12.68-4.84,5,.17,7.11,4.7,8.18,4,3.18-2.22-11.14-45.87-28.22-45.31C1260.48,98.24,1257.89,100.41,1252.83,104.73Z"/><path class="cls-3" d="M1252.83,84.29c-16.91,14.47-26.43,35.3-23.3,38.27,1.66,1.58,5.71-3,13.08-1.32,3.05.71,2.77,1.59,5.72,2.2,5.93,1.22,7.9-2.16,14.32-1.76,5,.31,4.57,2.42,8.58,2.2,6-.32,7.53-5,12.68-4.84,5,.17,7.11,4.7,8.18,4,3.18-2.22-11.14-45.86-28.22-45.31C1260.48,77.8,1257.89,80,1252.83,84.29Z"/><path class="cls-4" d="M1352.64,245.68c-19.83,17-31,41.39-27.33,44.88,2,1.85,6.7-3.56,15.34-1.55,3.58.83,3.25,1.86,6.72,2.58,7,1.43,9.26-2.53,16.78-2.07,5.86.37,5.36,2.84,10.07,2.58,7-.37,8.82-5.88,14.86-5.67,5.85.2,8.34,5.51,9.59,4.64,3.72-2.6-13.06-53.77-33.08-53.12C1361.61,238.07,1358.57,240.61,1352.64,245.68Z"/><path class="cls-2" d="M1354,228.69c-16.91,14.47-26.43,35.3-23.3,38.28,1.66,1.58,5.71-3,13.08-1.32,3,.7,2.77,1.59,5.73,2.2,5.93,1.22,7.89-2.16,14.31-1.76,5,.31,4.57,2.41,8.58,2.2,6-.33,7.53-5,12.68-4.84,5,.17,7.11,4.7,8.18,4,3.18-2.22-11.14-45.87-28.22-45.31C1361.66,222.21,1359.06,224.37,1354,228.69Z"/><path class="cls-3" d="M1354,208.25c-16.91,14.47-26.43,35.3-23.3,38.27,1.66,1.58,5.71-3,13.08-1.32,3,.71,2.77,1.59,5.73,2.2,5.93,1.22,7.89-2.16,14.31-1.76,5,.31,4.57,2.42,8.58,2.2,6-.32,7.53-5,12.68-4.84,5,.17,7.11,4.7,8.18,4,3.18-2.22-11.14-45.86-28.22-45.31C1361.66,201.76,1359.06,203.92,1354,208.25Z"/><path class="cls-4" d="M988.87,143.14c-19.83,17-31,41.39-27.33,44.87,2,1.86,6.7-3.55,15.35-1.54,3.57.82,3.24,1.86,6.71,2.57,6.95,1.44,9.26-2.52,16.78-2.06,5.87.37,5.36,2.83,10.07,2.58,7-.38,8.82-5.88,14.86-5.67,5.85.2,8.34,5.51,9.59,4.64,3.73-2.6-13.05-53.78-33.08-53.13C997.84,135.53,994.8,138.07,988.87,143.14Z"/><path class="cls-2" d="M990.24,126.15c-16.92,14.47-26.43,35.3-23.31,38.27,1.66,1.59,5.71-3,13.08-1.32,3,.71,2.77,1.59,5.73,2.2,5.93,1.23,7.9-2.15,14.31-1.76,5,.31,4.57,2.42,8.59,2.2,6-.32,7.52-5,12.67-4.84,5,.18,7.12,4.71,8.18,4,3.18-2.21-11.13-45.86-28.21-45.31C997.89,119.66,995.29,121.83,990.24,126.15Z"/><path class="cls-3" d="M990.24,105.71C973.32,120.18,963.81,141,966.93,144c1.66,1.58,5.71-3,13.08-1.32,3,.71,2.77,1.59,5.73,2.2,5.93,1.22,7.9-2.16,14.31-1.76,5,.31,4.57,2.41,8.59,2.2,6-.32,7.52-5,12.67-4.84,5,.17,7.12,4.7,8.18,4,3.18-2.22-11.13-45.87-28.21-45.31C997.89,99.22,995.29,101.38,990.24,105.71Z"/></g></g></svg>