<svg xmlns="http://www.w3.org/2000/svg" viewBox="0 0 2426.14 1343.06"><defs><style>.cls-1{fill:#baeda2;}.cls-2{fill:#6ea050;}.cls-3{fill:#80b55e;}.cls-4{fill:#57893f;}</style></defs><g id="レイヤー_2" data-name="レイヤー 2"><g id="レイヤー_1-2" data-name="レイヤー 1"><g id="レイヤー_2-2" data-name="レイヤー 2"><g id="レイヤー_2-2-2" data-name="レイヤー 2-2"><path class="cls-1" d="M392.15,1044.88c-62.35-40-101.5-72.93-146.33-119.26-46.76-48.36-117-122.1-166.12-230.91-28.22-62.36-54.86-121.49-49-203,7-96.51,55.54-167.47,76.66-195.38,21.91-29,76.22-98.9,189.83-157.32,73.26-37.66,136.23-52.6,150.31-55.82A754.33,754.33,0,0,1,575.58,65.74c32.61-1.91,71.7-4,121.58,1.9A519.75,519.75,0,0,1,806.92,92.38c43.46,15.34,70.3,32.54,92,46.63,41.66,27.1,46,39.85,96.4,86.59,62.69,58.1,94.82,87.21,133.88,90,41.43,2.92,87.16-15.24,110.36-34.33,16.83-13.92,18.39-24.93,51.9-57.15,7.19-6.9,15.43-14.2,25.53-22.36a549.76,549.76,0,0,1,73.87-50.06,639.57,639.57,0,0,1,89-41.87,682.83,682.83,0,0,1,83-25.38c26.81-6.31,47.08-9.39,77.15-14,34.8-5.29,55.45-8.42,85-10.15a730.64,730.64,0,0,1,81.06,0c11.75.63,40.74,2.47,89,10.15,40.25,6.4,81.18,12.92,126.57,26.64,63.63,19.24,104.2,43,138.43,63.44,20.87,12.43,71.7,44.22,120.63,93.88,78.81,80,101.31,154,106.79,173.82,21.66,78.52,5.51,139-9.89,196.65-4.59,17.21-23.27,83.46-75.14,164.93-35.36,55.3-79.77,108-132.49,157.32-42.55,39.68-90.18,77-142.39,111.65a1375.36,1375.36,0,0,1-207.64,112.92,1652,1652,0,0,1-178,64.7c-22.71,6.88-112.22,33.5-239.27,55.83-65.2,11.45-144.75,25.43-253.14,30.49-126.07,5.88-222.55-3.5-288.72-10.19-131.15-13.27-225-34.65-245.21-39.34,0,0-97.66-22.79-213.55-64.7-13.61-4.92-28.18-10.68-57.36-22.2-21.51-8.5-71.4-28.41-69-31.4.42-.52,2.05-.11,9.64-.48,0,0,4.67-.22,13.11-1.11,39.45-4.13,109.11-21.78,109.11-21.78,58.24-14.75,60.91-15.67,62.8-18.83C480.42,1096,435.84,1072.87,392.15,1044.88Z"/><path class="cls-2" d="M338.86,850c-3.92,16.7-21.56,40-45.36,40.26S250.17,868,245.55,850.89c-7.79-28.77,21.4-62.5,47.4-62.36C318.59,788.67,345.48,821.84,338.86,850Z"/><path class="cls-2" d="M547.15,891.76c-.8,6.77-9.36,7.39-12.24,13.93-4,9,9.77,13.33,6.1,21.83-3,6.85-15.26,11.85-25.77,12.62-12.14.89-14.39-4.44-26.5-3.54-14.29,1.06-17.89,9.07-29.08,7.79a23,23,0,0,1-13.36-6.3c-3.12-3.25-1.28-4.59-3.32-9.15-3.74-8.35-12.21-8.91-16.2-18a12.52,12.52,0,0,1-1.31-7.32c.78-4.88,4.55-6.92,7.55-10.8,6.51-8.49-1.28-12.12,4.13-19,5.06-6.42,17.56-10.42,28.23-10.44,11,0,11.44,4.24,26.67,6.37,15.94,2.22,20.1-1.8,32.5,1.63,7,2,12.88,5.19,17,9.29C543.75,882.85,547.71,886.85,547.15,891.76Z"/><path class="cls-3" d="M447.92,1006.1c-3.46,14.69-19,35.17-39.94,35.43s-38.11-19.58-42.17-34.66c-6.83-25.31,18.83-55,41.71-54.87C430.09,952.12,453.73,981.31,447.92,1006.1Z"/><path class="cls-3" d="M547.15,1049.1c-.8,6.77-9.36,7.39-12.24,13.93-4,9,9.77,13.33,6.1,21.83-3,6.85-15.26,11.86-25.77,12.62-12.14.89-14.39-4.44-26.5-3.54-14.29,1.06-17.89,9.07-29.08,7.79a23,23,0,0,1-13.36-6.3c-3.12-3.25-1.28-4.59-3.32-9.15-3.74-8.35-12.21-8.91-16.2-18a12.38,12.38,0,0,1-1.21-7.27c.78-4.88,4.55-6.92,7.54-10.8,6.52-8.49-1.28-12.12,4.13-19,5.07-6.42,17.57-10.42,28.23-10.44,11,0,11.44,4.25,26.67,6.37,15.95,2.22,20.11-1.8,32.5,1.63,7,2,12.88,5.19,17,9.29C543.75,1040.19,547.71,1044.19,547.15,1049.1Z"/><path class="cls-4" d="M302.16,913.08c-3.36,14.34-18.51,34.32-39,34.57S226,928.55,222,913.84c-6.66-24.71,18.39-53.67,40.7-53.55C284.77,860.41,307.84,888.89,302.16,913.08Z"/><path class="cls-2" d="M761,1271.16c-3.93,16.69-21.56,40-45.37,40.26s-43.32-22.24-48-39.38c-7.79-28.77,21.42-62.51,47.4-62.36C740.71,1209.82,767.58,1243,761,1271.16Z"/><path class="cls-4" d="M688.12,1202.29c-3.37,14.33-18.52,34.32-39,34.57S612,1217.76,607.94,1203c-6.66-24.71,18.39-53.68,40.71-53.55C670.72,1149.62,693.79,1178.1,688.12,1202.29Z"/><path class="cls-4" d="M425.35,930.33c-.75,6.31-8.68,6.88-11.38,13-3.73,8.38,9.09,12.39,5.66,20.3-2.76,6.37-14.19,11-24,11.74-11.3.82-13.39-4.13-24.6-3.3-13.28,1-16.63,8.44-27.05,7.25a21.89,21.89,0,0,1-12.47-5.86c-2.93-3-1.2-4.27-3.12-8.52-3.48-7.76-11.35-8.28-15.06-16.74a11.54,11.54,0,0,1-1.21-6.81c.73-4.53,4.23-6.43,7-10,6.06-7.9-1.2-11.27,3.83-17.64,4.68-6,16.35-9.7,26.27-9.71,10.22,0,10.64,4,24.8,5.92,14.84,2.07,18.7-1.67,30.22,1.52A36.76,36.76,0,0,1,420.21,920C422.2,922,425.88,925.77,425.35,930.33Z"/><path class="cls-2" d="M647.89,1104.83c-.81,6.78-9.36,7.4-12.24,13.94-4,9,9.77,13.32,6.09,21.82-3,6.85-15.26,11.85-25.76,12.62-12.14.88-14.39-4.43-26.5-3.54-14.29,1.07-17.89,9.07-29.1,7.79a23,23,0,0,1-13.34-6.3c-3.12-3.26-1.28-4.59-3.32-9.16-3.74-8.35-12.21-8.91-16.2-18a12.49,12.49,0,0,1-1.31-7.32c.78-4.87,4.55-6.92,7.53-10.79,6.53-8.5-1.26-12.12,4.15-19,5.06-6.42,17.56-10.43,28.23-10.44,11,0,11.44,4.24,26.67,6.37,15.94,2.22,20.1-1.8,32.48,1.63,7,2,12.9,5.19,17,9.3C644.5,1095.93,648.46,1099.93,647.89,1104.83Z"/><path class="cls-3" d="M639.72,1047.54c-3.45,14.69-19,35.17-39.92,35.43s-38.13-19.57-42.19-34.65c-6.83-25.32,18.84-55,41.71-54.88C622,993.56,645.55,1022.75,639.72,1047.54Z"/><path class="cls-4" d="M526.09,1143.41c-.73,6.3-8.67,6.88-11.36,13-3.73,8.39,9.08,12.4,5.65,20.31-2.76,6.37-14.18,11-23.95,11.73-11.3.83-13.39-4.13-24.6-3.29-13.28,1-16.63,8.44-27.06,7.25a21.94,21.94,0,0,1-12.47-5.86c-2.93-3-1.2-4.27-3.12-8.52-3.47-7.76-11.34-8.28-15.05-16.74a11.47,11.47,0,0,1-1.22-6.81c.73-4.53,4.24-6.43,7-10,6.07-7.9-1.2-11.27,3.84-17.64,4.68-6,16.35-9.7,26.25-9.71,10.24,0,10.66,4,24.81,5.92,14.84,2.07,18.71-1.67,30.23,1.52,6.48,1.82,12,4.82,15.83,8.64C523,1135.13,526.63,1138.85,526.09,1143.41Z"/><path class="cls-4" d="M370.47,854.7c-30.91,17-48.32,41.38-42.6,44.87,3.11,1.86,10.44-3.55,23.92-1.55,5.57.83,5,1.87,10.46,2.58,10.91,1.44,14.44-2.53,26.16-2.06,9.15.36,8.35,2.83,15.69,2.58,10.91-.38,13.75-5.88,23.17-5.68,9.11.2,13,5.52,14.94,4.65,5.8-2.6-20.35-53.78-51.56-53.13C384.45,847.09,379.71,849.63,370.47,854.7Z"/><path class="cls-2" d="M372.57,837.71c-26.34,14.47-41.18,35.3-36.3,38.3,2.59,1.58,8.9-3,20.39-1.32,4.75.71,4.31,1.59,8.93,2.2,9.24,1.22,12.3-2.16,22.3-1.76,7.8.31,7.13,2.42,13.39,2.2,9.35-.32,11.72-5,19.75-4.84,7.79.17,11.1,4.7,12.75,4,5-2.22-17.35-45.86-44-45.31C384.53,831.22,380.47,833.38,372.57,837.71Z"/><path class="cls-3" d="M372.57,817.26c-26.36,14.47-41.2,35.3-36.32,38.28,2.59,1.58,8.9-3,20.39-1.32,4.75.7,4.32,1.59,8.93,2.2,9.25,1.22,12.3-2.16,22.31-1.76,7.79.31,7.12,2.41,13.39,2.2,9.35-.33,11.72-5,19.75-4.84,7.79.17,11.09,4.7,12.75,4,5-2.22-17.35-45.87-44-45.31C384.53,810.78,380.47,812.94,372.57,817.26Z"/><path class="cls-4" d="M334.2,1136.43c-30.91,17-48.32,41.38-42.6,44.87,3,1.86,10.44-3.55,23.91-1.55,5.56.83,5.06,1.87,10.46,2.58,10.91,1.43,14.43-2.53,26.15-2.06,9.15.36,8.36,2.82,15.7,2.57,10.91-.38,13.76-5.88,23.16-5.68,9.13.2,13,5.52,14.95,4.64,5.81-2.6-20.27-53.77-51.56-53.12C348.18,1128.82,343.42,1131.35,334.2,1136.43Z"/><path class="cls-2" d="M336.32,1119.44c-26.36,14.47-41.2,35.29-36.34,38.27,2.6,1.58,8.92-3,20.41-1.32,4.67.71,4.31,1.59,8.91,2.2,9.24,1.22,12.31-2.16,22.31-1.76,7.79.31,7.14,2.42,13.39,2.2,9.35-.32,11.73-5,19.76-4.84,7.79.17,11.08,4.7,12.75,4,4.94-2.22-17.36-45.87-44-45.31C348.24,1113,344.2,1115.11,336.32,1119.44Z"/><path class="cls-3" d="M336.32,1099c-26.36,14.47-41.2,35.3-36.34,38.27,2.6,1.59,8.92-3,20.41-1.32,4.67.71,4.31,1.59,8.91,2.2,9.24,1.23,12.31-2.15,22.31-1.76,7.79.31,7.14,2.42,13.39,2.2,9.35-.32,11.73-5,19.76-4.84,7.79.18,11.08,4.71,12.75,4,4.94-2.21-17.36-45.86-44-45.31C348.24,1092.5,344.2,1094.67,336.32,1099Z"/><path class="cls-4" d="M542.05,1214.11c-30.91,17-48.32,41.39-42.6,44.87,3.12,1.86,10.44-3.55,23.91-1.54,5.57.82,5.07,1.86,10.46,2.57,10.91,1.43,14.43-2.52,26.15-2.07,9.15.37,8.38,2.83,15.7,2.58,10.91-.38,13.76-5.88,23.18-5.67,9.12.2,13,5.51,14.93,4.64,5.82-2.6-20.34-53.78-51.56-53.13C556,1206.5,551.29,1209,542.05,1214.11Z"/><path class="cls-2" d="M544.17,1197.12c-26.36,14.47-41.2,35.3-36.33,38.27,2.6,1.59,8.91-3,20.4-1.32,4.68.71,4.32,1.59,8.92,2.2,9.24,1.23,12.31-2.15,22.3-1.76,7.79.31,7.14,2.42,13.39,2.2,9.35-.32,11.74-5,19.76-4.84,7.8.17,11.09,4.71,12.75,4,4.95-2.21-17.36-45.86-44-45.31C556.09,1190.63,552.06,1192.8,544.17,1197.12Z"/><path class="cls-3" d="M544.17,1176.68C517.81,1191.14,503,1212,507.84,1215c2.6,1.58,8.91-3,20.4-1.32,4.68.71,4.32,1.59,8.92,2.2,9.24,1.22,12.31-2.16,22.3-1.76,7.79.31,7.14,2.41,13.39,2.2,9.35-.32,11.74-5,19.76-4.84,7.8.17,11.09,4.7,12.75,4,4.95-2.22-17.36-45.87-44-45.31C556.09,1170.19,552.06,1172.35,544.17,1176.68Z"/><path class="cls-4" d="M492.48,969.19c-30.91,17-48.32,41.39-42.6,44.88,3,1.85,10.45-3.56,23.91-1.55,5.58.83,5.07,1.86,10.48,2.58,10.83,1.43,14.43-2.53,26.15-2.06,9.14.36,8.36,2.83,15.68,2.57,10.91-.37,13.77-5.88,23.18-5.67,9.12.2,13,5.51,15,4.64,5.8-2.6-20.36-53.77-51.58-53.12C506.46,961.59,501.73,964.12,492.48,969.19Z"/><path class="cls-2" d="M494.6,952.21c-26.36,14.46-41.19,35.29-36.32,38.27,2.59,1.58,8.9-3,20.39-1.32,4.76.7,4.32,1.59,8.92,2.2,9.24,1.22,12.31-2.16,22.32-1.76,7.79.31,7.12,2.41,13.37,2.2,9.35-.32,11.74-5,19.77-4.84,7.79.17,11.08,4.7,12.75,4,5-2.22-17.37-45.87-44-45.31C506.53,945.72,502.49,947.88,494.6,952.21Z"/><path class="cls-3" d="M494.6,931.76c-26.36,14.47-41.19,35.3-36.32,38.27,2.59,1.59,8.9-3,20.39-1.32,4.76.71,4.32,1.59,8.92,2.2,9.24,1.22,12.31-2.16,22.32-1.76,7.79.31,7.12,2.42,13.37,2.2,9.35-.32,11.74-5,19.77-4.84,7.79.17,11.08,4.7,12.75,4,5-2.22-17.37-45.86-44-45.31C506.53,925.27,502.49,927.44,494.6,931.76Z"/><path class="cls-4" d="M182.74,809.46c-30.91,17-48.32,41.39-42.6,44.87,3.11,1.86,10.44-3.55,23.92-1.54,5.57.82,5.05,1.86,10.46,2.57,10.91,1.44,14.43-2.53,26.16-2.06,9.15.36,8.35,2.83,15.69,2.58,10.91-.38,13.75-5.88,23.16-5.67,9.12.2,13,5.51,14.95,4.64,5.8-2.6-20.35-53.78-51.56-53.13C196.72,801.85,192,804.39,182.74,809.46Z"/><path class="cls-2" d="M184.86,792.47c-26.36,14.47-41.2,35.3-36.32,38.27,2.58,1.59,8.9-3,20.39-1.32,4.75.71,4.31,1.59,8.93,2.2,9.24,1.23,12.29-2.15,22.3-1.76,7.8.31,7.13,2.42,13.38,2.2,9.35-.32,11.73-5,19.76-4.84,7.79.17,11.1,4.71,12.75,4,5-2.22-17.35-45.86-44-45.31C196.8,786,192.74,788.15,184.86,792.47Z"/><path class="cls-3" d="M184.86,772c-26.36,14.46-41.2,35.29-36.32,38.27,2.58,1.58,8.9-3,20.39-1.32,4.75.7,4.31,1.59,8.93,2.2,9.24,1.22,12.29-2.16,22.3-1.76,7.8.31,7.13,2.41,13.38,2.2,9.35-.32,11.73-5,19.76-4.84,7.79.17,11.1,4.7,12.75,4,5-2.22-17.35-45.87-44-45.31C196.8,765.54,192.74,767.7,184.86,772Z"/><path class="cls-2" d="M167.63,629.89c-3.91,16.7-21.56,40-45.36,40.26s-43.33-22.24-47.94-39.38c-7.8-28.77,21.4-62.5,47.4-62.36C147.37,568.55,174.26,601.72,167.63,629.89Z"/><path class="cls-2" d="M317.55,434.54c-.81,6.78-9.35,7.4-12.24,13.94-4,9,9.78,13.33,6.1,21.83-3,6.85-15.26,11.85-25.77,12.62-12.14.89-14.39-4.44-26.5-3.54-14.29,1.06-17.89,9.07-29.1,7.79a23,23,0,0,1-13.34-6.3c-3.12-3.25-1.28-4.59-3.32-9.15-3.74-8.36-12.2-8.91-16.2-18a12.48,12.48,0,0,1-1.3-7.33c.77-4.87,4.55-6.92,7.52-10.79,6.54-8.49-1.26-12.12,4.15-19,5.07-6.42,17.57-10.43,28.23-10.44,11,0,11.44,4.24,26.67,6.37,15.94,2.22,20.11-1.8,32.5,1.63,7,2,12.88,5.19,17,9.29C314.17,425.64,318.13,429.64,317.55,434.54Z"/><path class="cls-3" d="M218.34,548.89c-3.46,14.69-19,35.17-39.94,35.42s-38.08-19.57-42.18-34.65c-6.82-25.31,18.83-55,41.71-54.87C200.5,494.91,224.15,524.1,218.34,548.89Z"/><path class="cls-3" d="M317.55,591.88c-.81,6.78-9.35,7.4-12.24,13.94-4,9,9.78,13.33,6.1,21.83-3,6.85-15.26,11.85-25.77,12.62-12.14.89-14.39-4.44-26.5-3.54-14.29,1.06-17.89,9.07-29.1,7.79a23,23,0,0,1-13.34-6.3c-3.12-3.25-1.28-4.59-3.32-9.15-3.74-8.35-12.2-8.91-16.2-18a12.48,12.48,0,0,1-1.3-7.33c.77-4.87,4.55-6.92,7.52-10.79,6.54-8.49-1.26-12.12,4.15-19,5.07-6.42,17.57-10.43,28.23-10.44,11,0,11.44,4.24,26.67,6.37,15.94,2.22,20.11-1.8,32.5,1.63,7,2,12.88,5.19,17,9.29C314.17,583,318.13,587,317.55,591.88Z"/><path class="cls-3" d="M121.77,407.89c-.79,6.78-9.35,7.39-12.23,13.94-4,9,9.77,13.33,6.09,21.83-3,6.84-15.26,11.85-25.76,12.62-12.14.88-14.39-4.45-26.5-3.55-14.29,1.07-17.89,9.08-29.09,7.8a22.93,22.93,0,0,1-13.35-6.31c-3.12-3.25-1.28-4.58-3.32-9.15-3.75-8.35-12.21-8.91-16.18-18A12.46,12.46,0,0,1,.1,419.75c.78-4.88,4.57-6.92,7.55-10.8,6.51-8.49-1.28-12.11,4.13-19,5.06-6.42,17.56-10.42,28.22-10.43,10.92,0,11.45,4.24,26.67,6.36,16,2.22,20.11-1.8,32.5,1.64,7,2,12.9,5.18,17,9.28C118.39,399,122.35,403,121.77,407.89Z"/><path class="cls-4" d="M202.06,765.43c-3.35,14.34-18.5,34.32-39,34.57s-37.2-19.1-41.17-33.81c-6.66-24.71,18.39-53.68,40.71-53.55C184.67,712.76,207.75,741.24,202.06,765.43Z"/><path class="cls-2" d="M531.39,814c-3.93,16.69-21.56,40-45.38,40.26s-43.3-22.2-48-39.38c-7.8-28.77,21.41-62.51,47.4-62.36C511.12,752.61,538,785.77,531.39,814Z"/><path class="cls-4" d="M458.53,745.08c-3.36,14.33-18.51,34.32-39,34.57s-37.21-19.1-41.19-33.81c-6.65-24.71,18.4-53.68,40.7-53.55C441.15,692.41,464.21,720.89,458.53,745.08Z"/><path class="cls-4" d="M195.75,473.12c-.73,6.31-8.67,6.88-11.36,13-3.73,8.38,9.09,12.39,5.66,20.3-2.76,6.37-14.19,11-24,11.74-11.3.82-13.39-4.13-24.6-3.3-13.28,1-16.63,8.44-27.06,7.25A21.94,21.94,0,0,1,102,516.25c-2.93-3-1.2-4.27-3.11-8.52C95.37,500,87.5,499.45,83.79,491a11.47,11.47,0,0,1-1.22-6.81c.74-4.53,4.24-6.43,7-10,6.06-7.9-1.2-11.27,3.83-17.64,4.68-6,16.35-9.7,26.27-9.71,10.22,0,10.64,3.95,24.79,5.92,14.84,2.07,18.71-1.67,30.23,1.52,6.48,1.82,12,4.82,15.83,8.64C192.62,464.84,196.3,468.56,195.75,473.12Z"/><path class="cls-2" d="M418.3,647.62c-.81,6.78-9.35,7.4-12.23,13.94-4,9,9.77,13.33,6.09,21.83-3,6.85-15.26,11.85-25.76,12.62-12.15.88-14.41-4.44-26.5-3.54-14.29,1.06-17.9,9.07-29.1,7.79a23.09,23.09,0,0,1-13.35-6.3c-3.11-3.26-1.27-4.59-3.32-9.16-3.74-8.35-12.2-8.91-16.19-18a12.44,12.44,0,0,1-1.31-7.32c.78-4.87,4.55-6.92,7.53-10.8,6.53-8.49-1.26-12.11,4.15-19,5.06-6.42,17.56-10.43,28.21-10.44,11,0,11.45,4.24,26.68,6.36,15.95,2.23,20.11-1.79,32.49,1.64,7,2,12.9,5.18,17,9.29C414.92,638.72,418.88,642.72,418.3,647.62Z"/><path class="cls-3" d="M410.14,590.33c-3.45,14.69-19,35.17-39.92,35.43S332,606.19,328,591.11c-6.82-25.32,18.85-55,41.71-54.88C392.3,536.35,416,565.54,410.14,590.33Z"/><path class="cls-4" d="M296.51,686.2c-.74,6.3-8.67,6.88-11.37,13-3.72,8.39,9.09,12.4,5.66,20.31-2.76,6.37-14.18,11-24,11.73-11.3.83-13.39-4.13-24.59-3.29-13.3,1-16.63,8.44-27.06,7.25a21.92,21.92,0,0,1-12.47-5.86c-2.92-3-1.19-4.27-3.12-8.52-3.48-7.76-11.35-8.28-15.06-16.74a11.54,11.54,0,0,1-1.21-6.81c.73-4.53,4.24-6.43,7-10,6.08-7.9-1.19-11.27,3.85-17.64,4.67-6,16.35-9.7,26.25-9.71,10.24,0,10.66,3.94,24.81,5.92,14.84,2.07,18.7-1.67,30.22,1.52A36.39,36.39,0,0,1,291.3,676C293.37,677.92,297.05,681.64,296.51,686.2Z"/><path class="cls-4" d="M140.88,397.49c-30.91,17-48.32,41.38-42.6,44.87,3.12,1.86,10.45-3.55,23.93-1.55,5.57.83,5.05,1.87,10.46,2.58,10.91,1.44,14.43-2.53,26.15-2.06,9.15.36,8.36,2.83,15.7,2.58,10.91-.38,13.75-5.88,23.16-5.68,9.12.2,13,5.52,14.95,4.65,5.8-2.6-20.36-53.78-51.56-53.13C154.87,389.88,150.13,392.42,140.88,397.49Z"/><path class="cls-2" d="M143,380.5c-26.35,14.47-41.19,35.3-36.31,38.27,2.58,1.58,8.9-3,20.38-1.32,4.68.71,4.32,1.59,8.94,2.2,9.24,1.22,12.29-2.16,22.3-1.76,7.79.31,7.12,2.42,13.39,2.2,9.35-.32,11.72-5,19.75-4.84,7.79.17,11.1,4.7,12.75,4,5-2.22-17.35-45.86-44-45.31C154.94,374,150.89,376.17,143,380.5Z"/><path class="cls-3" d="M143,360c-26.35,14.47-41.19,35.3-36.31,38.28,2.58,1.58,8.9-3,20.38-1.32,4.68.7,4.32,1.59,8.94,2.2,9.24,1.22,12.29-2.16,22.3-1.76,7.79.31,7.12,2.41,13.39,2.2,9.35-.33,11.72-5,19.75-4.84,7.79.17,11.1,4.7,12.75,4,5-2.22-17.35-45.87-44-45.32C154.94,353.56,150.89,355.73,143,360Z"/><path class="cls-4" d="M104.61,679.21c-30.91,17-48.32,41.39-42.6,44.88,3.12,1.85,10.45-3.55,23.91-1.55,5.57.83,5.07,1.87,10.46,2.58,10.91,1.43,14.44-2.53,26.16-2.06,9.15.36,8.35,2.83,15.69,2.58,10.92-.38,13.77-5.88,23.17-5.68,9.13.2,13,5.51,14.94,4.64,5.82-2.6-20.26-53.77-51.56-53.12C118.59,671.61,113.82,674.14,104.61,679.21Z"/><path class="cls-2" d="M106.73,662.23C80.37,676.7,65.5,697.52,70.4,700.5c2.59,1.58,8.92-3,20.4-1.32,4.68.71,4.32,1.59,8.92,2.2,9.24,1.22,12.31-2.16,22.3-1.76,7.8.31,7.14,2.41,13.39,2.2,9.36-.32,11.74-5,19.77-4.84,7.79.17,11.08,4.7,12.73,4,5-2.22-17.35-45.87-44-45.31C118.66,655.74,114.62,657.9,106.73,662.23Z"/><path class="cls-3" d="M106.73,641.78C80.37,656.25,65.5,677.08,70.4,680c2.59,1.59,8.92-3,20.4-1.32,4.68.71,4.32,1.59,8.92,2.2,9.24,1.23,12.31-2.15,22.3-1.76,7.8.31,7.14,2.42,13.39,2.2,9.36-.32,11.74-5,19.77-4.84,7.79.17,11.08,4.71,12.73,4,5-2.21-17.35-45.86-44-45.31C118.66,635.29,114.62,637.46,106.73,641.78Z"/><path class="cls-4" d="M312.47,756.9c-30.91,17-48.32,41.39-42.6,44.87,3,1.86,10.44-3.55,23.91-1.54,5.56.82,5.06,1.86,10.46,2.57,10.91,1.44,14.43-2.53,26.15-2.06,9.15.36,8.37,2.83,15.7,2.58,10.91-.38,13.76-5.88,23.18-5.67,9.11.2,13,5.51,14.93,4.64,5.81-2.6-20.34-53.78-51.56-53.13C326.45,749.29,321.69,751.83,312.47,756.9Z"/><path class="cls-2" d="M314.59,739.91c-26.36,14.47-41.2,35.3-36.34,38.27,2.61,1.59,8.92-3,20.41-1.32,4.67.71,4.31,1.59,8.91,2.2,9.25,1.23,12.32-2.15,22.31-1.76,7.79.31,7.14,2.42,13.39,2.2,9.35-.32,11.73-5,19.76-4.84,7.8.17,11.08,4.71,12.75,4,4.94-2.21-17.36-45.86-44-45.31C326.51,733.42,322.47,735.59,314.59,739.91Z"/><path class="cls-3" d="M314.59,719.47c-26.36,14.46-41.2,35.29-36.34,38.27,2.61,1.58,8.92-3,20.41-1.32,4.67.7,4.31,1.59,8.91,2.2,9.25,1.22,12.32-2.16,22.31-1.76,7.79.31,7.14,2.41,13.39,2.2,9.35-.32,11.73-5,19.76-4.84,7.8.17,11.08,4.7,12.75,4,4.94-2.22-17.36-45.87-44-45.31C326.51,713,322.47,715.14,314.59,719.47Z"/><path class="cls-4" d="M262.9,512c-30.91,17-48.32,41.39-42.6,44.88,3,1.85,10.44-3.56,23.91-1.55,5.57.83,5.07,1.86,10.48,2.58,10.83,1.43,14.43-2.53,26.15-2.07,9.13.37,8.36,2.84,15.68,2.58,10.91-.37,13.76-5.88,23.18-5.67,9.12.2,13,5.51,14.95,4.64,5.8-2.6-20.36-53.77-51.58-53.12C276.88,504.37,272.14,506.91,262.9,512Z"/><path class="cls-2" d="M265,495c-26.36,14.47-41.2,35.3-36.32,38.28,2.59,1.58,8.9-3,20.39-1.32,4.75.7,4.32,1.59,8.92,2.2,9.24,1.22,12.31-2.16,22.32-1.76,7.79.31,7.12,2.41,13.37,2.2,9.35-.33,11.74-5,19.76-4.84,7.8.17,11.09,4.7,12.75,4,5-2.22-17.36-45.87-44-45.31C276.94,488.51,272.91,490.67,265,495Z"/><path class="cls-3" d="M265,474.55c-26.36,14.47-41.2,35.3-36.32,38.27,2.59,1.58,8.9-3,20.39-1.32,4.75.71,4.32,1.59,8.92,2.2,9.24,1.22,12.31-2.16,22.32-1.76,7.79.31,7.12,2.42,13.37,2.2,9.35-.32,11.74-5,19.76-4.84,7.8.17,11.09,4.7,12.75,4,5-2.22-17.36-45.86-44-45.31C276.94,468.06,272.91,470.23,265,474.55Z"/><path class="cls-4" d="M55.05,521c-30.91,17-48.31,41.38-42.54,44.87,3.12,1.86,10.44-3.55,23.91-1.55,5.56.83,5.07,1.87,10.47,2.58,10.91,1.44,14.44-2.53,26.16-2.06,9.13.36,8.35,2.83,15.68,2.58,10.91-.38,13.76-5.88,23.18-5.68,9.12.2,13,5.52,15,4.65,5.79-2.6-20.36-53.78-51.58-53.13C69,513.4,64.29,515.94,55.05,521Z"/><path class="cls-2" d="M57.17,504c-26.36,14.47-41.2,35.3-36.34,38.27,2.61,1.58,8.92-3,20.41-1.32,4.75.71,4.31,1.59,8.91,2.2,9.24,1.22,12.32-2.16,22.32-1.76,7.8.31,7.13,2.42,13.38,2.2,9.35-.32,11.73-5,19.76-4.84,7.79.17,11.08,4.7,12.75,4,4.94-2.22-17.36-45.86-44-45.31C69.09,497.53,65.05,499.7,57.17,504Z"/><path class="cls-3" d="M57.17,483.57C30.81,498,16,518.87,20.83,521.85c2.61,1.58,8.92-3,20.41-1.32,4.75.7,4.31,1.59,8.91,2.2,9.24,1.22,12.32-2.16,22.32-1.76,7.8.31,7.13,2.41,13.38,2.2,9.35-.33,11.73-5,19.76-4.84,7.79.17,11.08,4.7,12.75,4,4.94-2.22-17.36-45.87-44-45.31C69.09,477.09,65.05,479.25,57.17,483.57Z"/><path class="cls-2" d="M2069.24,871.77c3.93,16.7,21.58,40,45.38,40.26s43.31-22.24,47.94-39.38c7.8-28.77-21.41-62.5-47.4-62.36C2089.51,810.43,2062.63,843.6,2069.24,871.77Z"/><path class="cls-2" d="M1861,913.52c.8,6.77,9.36,7.39,12.22,13.93,4,9-9.75,13.33-6.07,21.84,3,6.84,15.26,11.85,25.76,12.61,12.14.89,14.39-4.44,26.5-3.54,14.28,1.06,17.89,9.07,29.08,7.79a23,23,0,0,0,13.36-6.3c3.12-3.25,1.28-4.59,3.32-9.15,3.74-8.35,12.19-8.91,16.18-18a12.37,12.37,0,0,0,1.31-7.32c-.78-4.88-4.55-6.92-7.53-10.8-6.51-8.49,1.28-12.12-4.13-19-5.06-6.42-17.58-10.42-28.23-10.44-11,0-11.44,4.25-26.67,6.37-16,2.22-20.1-1.8-32.49,1.63-7,2-12.89,5.19-17,9.29C1864.37,904.61,1860.41,908.61,1861,913.52Z"/><path class="cls-3" d="M1960.2,1027.86c3.44,14.69,19,35.17,39.91,35.43s38.13-19.58,42.2-34.66c6.83-25.31-18.85-55-41.71-54.87C1978,973.88,1954.38,1003.07,1960.2,1027.86Z"/><path class="cls-3" d="M1861,1070.86c.8,6.77,9.36,7.39,12.22,13.93,4,9-9.75,13.33-6.07,21.84,3,6.84,15.26,11.85,25.76,12.61,12.14.89,14.39-4.44,26.5-3.54,14.28,1.07,17.89,9.08,29.08,7.79a23,23,0,0,0,13.36-6.3c3.12-3.25,1.28-4.59,3.32-9.15,3.74-8.35,12.19-8.91,16.18-18a12.37,12.37,0,0,0,1.31-7.32c-.78-4.88-4.55-6.92-7.53-10.8-6.51-8.49,1.28-12.12-4.13-19-5.06-6.42-17.58-10.42-28.23-10.44-11,0-11.44,4.25-26.67,6.37-16,2.22-20.1-1.8-32.49,1.63-7,2-12.89,5.19-17,9.29C1864.37,1062,1860.41,1066,1861,1070.86Z"/><path class="cls-4" d="M2106,934.84c3.37,14.34,18.52,34.32,39,34.57s37.21-19.1,41.16-33.81c6.68-24.71-18.37-53.67-40.69-53.55C2123.35,882.17,2100.26,910.65,2106,934.84Z"/><path class="cls-2" d="M1648.86,1194.4c3.91,16.69,21.56,40,45.37,40.26s43.32-22.24,47.93-39.38c7.8-28.77-21.4-62.51-47.38-62.36C1669.12,1133.06,1642.23,1166.22,1648.86,1194.4Z"/><path class="cls-4" d="M1701.56,1113.84c3.37,14.34,18.52,34.32,39,34.57s37.2-19.1,41.16-33.82c6.67-24.7-18.37-53.67-40.7-53.55C1719,1061.17,1695.92,1089.65,1701.56,1113.84Z"/><path class="cls-4" d="M1982.72,952.09c.75,6.31,8.68,6.88,11.38,13,3.71,8.38-9.09,12.39-5.66,20.3,2.76,6.37,14.18,11,24,11.74,11.3.82,13.39-4.13,24.58-3.3,13.29,1,16.65,8.44,27.07,7.25a21.94,21.94,0,0,0,12.47-5.86c2.93-3,1.2-4.27,3.12-8.51,3.46-7.77,11.33-8.29,15-16.75a11.62,11.62,0,0,0,1.23-6.81c-.73-4.53-4.24-6.43-7-10-6.06-7.9,1.18-11.27-3.85-17.64-4.68-6-16.34-9.7-26.25-9.71-10.22,0-10.65,4-24.81,5.92-14.83,2.07-18.71-1.67-30.21,1.52a36.43,36.43,0,0,0-15.85,8.64C1985.91,943.81,1982.24,947.53,1982.72,952.09Z"/><path class="cls-2" d="M1760.23,1126.59c.79,6.78,9.35,7.4,12.23,13.94,4,9-9.77,13.33-6.09,21.83,3,6.84,15.26,11.84,25.77,12.62,12.14.88,14.38-4.44,26.49-3.55,14.28,1.07,17.9,9.07,29.09,7.8a23.14,23.14,0,0,0,13.36-6.31c3.11-3.26,1.28-4.59,3.32-9.16,3.74-8.35,12.19-8.9,16.18-18a12.38,12.38,0,0,0,1.31-7.33c-.78-4.87-4.56-6.92-7.53-10.79-6.52-8.5,1.28-12.12-4.13-19-5.07-6.42-17.57-10.43-28.23-10.44-11,0-11.44,4.24-26.67,6.37-15.95,2.22-20.11-1.8-32.5,1.63-7,2-12.88,5.2-17,9.3C1763.61,1117.69,1759.65,1121.69,1760.23,1126.59Z"/><path class="cls-3" d="M1768.4,1069.3c3.44,14.69,19,35.17,39.92,35.43s38.12-19.57,42.19-34.65c6.83-25.32-18.85-55-41.71-54.88C1786.21,1015.32,1762.57,1044.51,1768.4,1069.3Z"/><path class="cls-4" d="M1460.72,1146.25c.75,6.3,8.68,6.87,11.38,13,3.73,8.38-9.09,12.4-5.66,20.31,2.76,6.36,14.19,11,24,11.73,11.3.82,13.39-4.13,24.6-3.3,13.28,1,16.63,8.45,27.06,7.25a21.87,21.87,0,0,0,12.47-5.86c2.93-3,1.2-4.27,3.11-8.51,3.48-7.77,11.34-8.29,15-16.74a11.63,11.63,0,0,0,1.24-6.81c-.74-4.54-4.24-6.44-7-10-6.06-7.89,1.19-11.26-3.83-17.64-4.68-6-16.35-9.69-26.27-9.71-10.22,0-10.64,4-24.81,5.92-14.82,2.07-18.71-1.67-30.21,1.52a36.65,36.65,0,0,0-15.93,8.6C1463.87,1138,1460.19,1141.68,1460.72,1146.25Z"/><path class="cls-4" d="M2037.65,876.46c30.91,17,48.32,41.38,42.58,44.87-3.12,1.86-10.43-3.55-23.91-1.55-5.56.83-5.05,1.87-10.46,2.58-10.91,1.44-14.43-2.53-26.15-2.06-9.15.36-8.36,2.83-15.7,2.58-10.91-.38-13.75-5.88-23.16-5.68-9.12.2-13,5.52-14.95,4.65-5.81-2.6,20.26-53.78,51.56-53.13C2023.65,868.85,2028.41,871.39,2037.65,876.46Z"/><path class="cls-2" d="M2035.51,859.47c26.38,14.47,41.2,35.3,36.34,38.27-2.59,1.59-8.9-3-20.39-1.32-4.68.71-4.32,1.59-8.93,2.2-9.25,1.22-12.32-2.16-22.31-1.76-7.79.31-7.12,2.42-13.39,2.2-9.35-.32-11.72-5-19.75-4.84-7.79.17-11.09,4.7-12.75,4-4.95-2.22,17.35-45.86,44-45.31C2023.59,853,2027.64,855.15,2035.51,859.47Z"/><path class="cls-3" d="M2035.51,839c26.38,14.47,41.2,35.3,36.34,38.28-2.59,1.58-8.9-3-20.39-1.32-4.68.7-4.32,1.59-8.93,2.2-9.25,1.22-12.32-2.16-22.31-1.76-7.79.31-7.12,2.41-13.39,2.2-9.35-.33-11.72-5-19.75-4.84-7.79.17-11.09,4.7-12.75,4-4.95-2.22,17.35-45.87,44-45.31C2023.59,832.54,2027.64,834.7,2035.51,839Z"/><path class="cls-4" d="M1660.56,1111.63c30.91,17,48.32,41.39,42.6,44.88-3.11,1.85-10.44-3.56-23.91-1.55-5.56.83-5.06,1.86-10.47,2.58-10.83,1.43-14.43-2.53-26.16-2.07-9.13.37-8.35,2.84-15.68,2.58-10.91-.37-13.76-5.88-23.17-5.67-9.12.19-13,5.51-15,4.64-5.8-2.6,20.35-53.77,51.58-53.12C1646.58,1104,1651.32,1106.56,1660.56,1111.63Z"/><path class="cls-2" d="M1658.51,1094.64c26.36,14.47,41.19,35.3,36.33,38.28-2.6,1.58-8.91-3-20.4-1.32-4.68.7-4.32,1.59-8.92,2.2-9.24,1.22-12.31-2.16-22.32-1.76-7.79.31-7.12,2.41-13.37,2.2-9.35-.33-11.74-5-19.77-4.84-7.79.17-11.08,4.7-12.75,4-4.94-2.22,17.37-45.87,44-45.31C1646.52,1088.16,1650.56,1090.32,1658.51,1094.64Z"/><path class="cls-3" d="M1658.51,1074.2c26.36,14.47,41.19,35.3,36.33,38.27-2.6,1.58-8.91-3-20.4-1.32-4.68.71-4.32,1.59-8.92,2.2-9.24,1.22-12.31-2.16-22.32-1.76-7.79.31-7.12,2.42-13.37,2.2-9.35-.32-11.74-5-19.77-4.84-7.79.17-11.08,4.7-12.75,4-4.94-2.22,17.37-45.86,44-45.31C1646.52,1067.71,1650.56,1069.87,1658.51,1074.2Z"/><path class="cls-4" d="M1611,1215.08c30.91,17,48.32,41.39,42.6,44.88-3,1.85-10.45-3.56-23.91-1.55-5.57.83-5.07,1.86-10.46,2.58-10.91,1.43-14.44-2.54-26.16-2.07-9.15.37-8.35,2.84-15.69,2.58-10.91-.37-13.77-5.88-23.17-5.68-9.13.2-13,5.51-14.94,4.64-5.82-2.59,20.26-53.77,51.56-53.12C1597,1207.47,1601.77,1210,1611,1215.08Z"/><path class="cls-2" d="M1608.88,1198.09c26.36,14.47,41.19,35.3,36.33,38.28-2.59,1.58-8.91-3-20.4-1.32-4.68.7-4.32,1.59-8.92,2.2-9.24,1.22-12.31-2.16-22.3-1.76-7.8.31-7.14,2.41-13.39,2.2-9.35-.33-11.74-5-19.77-4.84-7.79.17-11.08,4.7-12.73,4-5-2.22,17.35-45.87,44-45.31C1597,1191.61,1601,1193.77,1608.88,1198.09Z"/><path class="cls-3" d="M1608.88,1177.65c26.36,14.47,41.19,35.3,36.33,38.27-2.59,1.58-8.91-3-20.4-1.32-4.68.71-4.32,1.59-8.92,2.2-9.24,1.22-12.31-2.16-22.3-1.76-7.8.31-7.14,2.42-13.39,2.2-9.35-.32-11.74-5-19.77-4.84-7.79.17-11.08,4.7-12.73,4-5-2.22,17.35-45.86,44-45.31C1597,1171.16,1601,1173.33,1608.88,1177.65Z"/><path class="cls-4" d="M1915.69,991c30.91,17,48.32,41.39,42.6,44.88-3.11,1.85-10.44-3.55-23.92-1.55-5.57.83-5,1.86-10.46,2.58-10.91,1.43-14.43-2.54-26.16-2.07-9.15.36-8.35,2.83-15.69,2.57-10.91-.37-13.75-5.88-23.16-5.67-9.12.2-13,5.51-15,4.64-5.82-2.6,20.26-53.77,51.56-53.12C1901.67,983.35,1906.34,985.88,1915.69,991Z"/><path class="cls-2" d="M1913.5,974c26.37,14.46,41.19,35.29,36.33,38.27-2.59,1.58-8.9-3-20.39-1.32-4.67.7-4.31,1.59-8.93,2.2-9.24,1.22-12.31-2.16-22.3-1.76-7.8.31-7.13,2.41-13.39,2.2-9.36-.32-11.72-5-19.75-4.84-7.8.17-11.1,4.7-12.75,4-5-2.22,17.35-45.87,44-45.31C1901.57,967.48,1905.63,969.64,1913.5,974Z"/><path class="cls-3" d="M1913.5,953.52c26.37,14.47,41.19,35.3,36.33,38.27-2.59,1.59-8.9-3-20.39-1.32-4.67.71-4.31,1.59-8.93,2.2-9.24,1.23-12.31-2.15-22.3-1.76-7.8.31-7.13,2.42-13.39,2.2-9.36-.32-11.72-5-19.75-4.84-7.8.17-11.1,4.71-12.75,4-5-2.22,17.35-45.86,44-45.31C1901.57,947,1905.63,949.2,1913.5,953.52Z"/><path class="cls-4" d="M2225.38,831.22c30.91,17,48.32,41.39,42.58,44.87-3.11,1.86-10.42-3.55-23.91-1.54-5.56.82-5.05,1.86-10.46,2.57-10.91,1.44-14.43-2.52-26.15-2.06-9.15.37-8.36,2.83-15.7,2.58-10.91-.38-13.75-5.88-23.16-5.67-9.12.2-13,5.51-14.95,4.64-5.81-2.6,20.27-53.78,51.56-53.13C2211.38,823.61,2216.14,826.15,2225.38,831.22Z"/><path class="cls-2" d="M2223.24,814.23c26.38,14.47,41.2,35.3,36.34,38.27-2.59,1.59-8.9-3-20.39-1.32-4.68.71-4.32,1.59-8.93,2.2-9.24,1.23-12.32-2.15-22.31-1.76-7.79.31-7.12,2.42-13.39,2.2-9.35-.32-11.72-5-19.74-4.84-7.8.17-11.1,4.71-12.76,4-4.95-2.21,17.35-45.86,44-45.31C2211.32,807.74,2215.37,809.91,2223.24,814.23Z"/><path class="cls-3" d="M2223.24,793.79c26.38,14.46,41.2,35.29,36.34,38.27-2.59,1.58-8.9-3-20.39-1.32-4.68.71-4.32,1.59-8.93,2.2-9.24,1.22-12.32-2.16-22.31-1.76-7.79.31-7.12,2.41-13.39,2.2-9.35-.32-11.72-5-19.74-4.84-7.8.17-11.1,4.7-12.76,4-4.95-2.22,17.35-45.87,44-45.31C2211.32,787.3,2215.37,789.46,2223.24,793.79Z"/><path class="cls-2" d="M1231.08,1224.23c3.91,16.7,21.55,40,45.37,40.26s43.32-22.24,47.93-39.37c7.8-28.78-21.4-62.51-47.38-62.37C1251.34,1162.89,1224.45,1196.06,1231.08,1224.23Z"/><path class="cls-2" d="M1049.92,1280.93c.8,6.77,9.36,7.39,12.24,13.94,4,9-9.77,13.32-6.09,21.83,3,6.84,15.26,11.85,25.76,12.61,12.14.89,14.39-4.44,26.5-3.54,14.28,1.06,17.89,9.07,29.08,7.79a23,23,0,0,0,13.36-6.3c3.12-3.25,1.28-4.59,3.32-9.15,3.74-8.35,12.19-8.92,16.18-18a12.29,12.29,0,0,0,1.31-7.32c-.78-4.88-4.55-6.92-7.53-10.8-6.51-8.49,1.28-12.11-4.13-19-5.06-6.43-17.58-10.43-28.23-10.44-11,0-11.44,4.24-26.67,6.36-16,2.22-20.1-1.8-32.49,1.63-7,2-12.89,5.2-17,9.29C1053.31,1272,1049.35,1276,1049.92,1280.93Z"/><path class="cls-3" d="M1008.7,1247c3.44,14.69,19,35.17,39.91,35.43s38.13-19.58,42.2-34.66c6.83-25.31-18.85-55-41.71-54.87C1026.53,1193.06,1002.87,1222.25,1008.7,1247Z"/><path class="cls-3" d="M850.42,1224.8c.8,6.78,9.36,7.4,12.23,13.94,4,9-9.76,13.33-6.08,21.83,3,6.85,15.26,11.85,25.76,12.62,12.14.88,14.39-4.44,26.5-3.54,14.28,1.06,17.88,9.06,29.09,7.79a23,23,0,0,0,13.35-6.3c3.12-3.26,1.28-4.59,3.32-9.16,3.74-8.35,12.19-8.92,16.18-18a12.29,12.29,0,0,0,1.31-7.32c-.78-4.87-4.55-6.92-7.53-10.79-6.51-8.5,1.28-12.12-4.13-19-5.06-6.43-17.58-10.44-28.23-10.44-11,0-11.45,4.24-26.66,6.36-16,2.22-20.14-1.78-32.61,1.67-7,2-12.9,5.18-17,9.29C853.81,1215.9,849.83,1219.9,850.42,1224.8Z"/><path class="cls-4" d="M1308.22,1293c3.37,14.34,18.52,34.32,39,34.57s37.19-19.1,41.16-33.81c6.66-24.7-18.38-53.68-40.7-53.56C1325.63,1240.38,1302.54,1268.86,1308.22,1293Z"/><path class="cls-4" d="M1164.63,1294c.75,6.31,8.68,6.88,11.38,13,3.71,8.38-9.09,12.39-5.66,20.3,2.76,6.37,14.18,11,24,11.74,11.3.82,13.39-4.13,24.58-3.3,13.29,1,16.65,8.44,27.07,7.25a21.94,21.94,0,0,0,12.47-5.86c2.93-3,1.2-4.27,3.12-8.52,3.46-7.76,11.33-8.28,15-16.74a11.63,11.63,0,0,0,1.23-6.81c-.73-4.53-4.24-6.44-7-10-6.06-7.9,1.18-11.27-3.85-17.64-4.68-6-16.34-9.7-26.25-9.71-10.22,0-10.65,4-24.81,5.92-14.83,2.07-18.71-1.67-30.21,1.52a36.43,36.43,0,0,0-15.85,8.64C1167.78,1285.67,1164.1,1289.39,1164.63,1294Z"/><path class="cls-2" d="M1401.88,1255.37c.8,6.78,9.35,7.4,12.22,13.94,4,9-9.77,13.33-6.08,21.83,3,6.85,15.25,11.85,25.75,12.62,12.16.89,14.4-4.44,26.5-3.55,14.29,1.07,17.89,9.07,29.1,7.8a23,23,0,0,0,13.34-6.31c3.12-3.25,1.3-4.58,3.34-9.15,3.73-8.35,12.19-8.91,16.18-18a12.37,12.37,0,0,0,1.31-7.32c-.78-4.87-4.55-6.93-7.53-10.8-6.52-8.49,1.28-12.12-4.13-19-5.07-6.42-17.58-10.43-28.23-10.43-11,0-11.46,4.24-26.68,6.37-16,2.21-20.1-1.81-32.49,1.63-7,2-12.89,5.19-17,9.29C1405.25,1246.47,1401.32,1250.47,1401.88,1255.37Z"/><path class="cls-3" d="M763.81,1293.53c3.44,14.7,19,35.17,39.92,35.43s38.12-19.57,42.19-34.65c6.83-25.32-18.84-55-41.71-54.88C781.62,1239.56,758,1268.74,763.81,1293.53Z"/><path class="cls-4" d="M705.4,1172.43c.75,6.3,8.68,6.87,11.38,13,3.71,8.38-9.09,12.4-5.67,20.31,2.76,6.36,14.2,11,24,11.73,11.29.82,13.37-4.13,24.58-3.3,13.3,1,16.65,8.45,27.06,7.25a21.78,21.78,0,0,0,12.47-5.86c2.91-3,1.18-4.27,3.12-8.51,3.47-7.77,11.34-8.29,15.05-16.74a11.47,11.47,0,0,0,1.22-6.81c-.72-4.54-4.24-6.44-7-10-6.06-7.89,1.19-11.26-3.85-17.64-4.67-6-16.35-9.69-26.25-9.71-10.24,0-10.66,4-24.81,5.92-14.84,2.07-18.71-1.67-30.22,1.52a36.39,36.39,0,0,0-15.84,8.64C708.54,1164.15,704.86,1167.86,705.4,1172.43Z"/><path class="cls-4" d="M1186.09,1196.78c30.91,17,48.32,41.38,42.6,44.87-3.11,1.86-10.44-3.55-23.91-1.55-5.56.83-5.06,1.87-10.46,2.58-10.91,1.43-14.43-2.53-26.15-2.06-9.15.36-8.36,2.82-15.7,2.57-10.91-.38-13.76-5.88-23.16-5.68-9.13.2-13,5.52-15,4.64-5.81-2.6,20.34-53.77,51.56-53.12C1172.19,1189.17,1176.87,1191.71,1186.09,1196.78Z"/><path class="cls-2" d="M1184,1179.79c26.36,14.47,41.2,35.3,36.34,38.27-2.61,1.58-8.92-3-20.41-1.32-4.67.71-4.31,1.59-8.91,2.2-9.25,1.22-12.32-2.16-22.31-1.76-7.79.31-7.14,2.42-13.39,2.2-9.35-.32-11.73-5-19.76-4.84-7.79.17-11.08,4.7-12.75,4-4.94-2.22,17.36-45.87,44-45.31C1172.05,1173.3,1176.09,1175.46,1184,1179.79Z"/><path class="cls-3" d="M1181.78,1158.74c28.16,13,45.65,33,41.19,36.19-2.38,1.72-9.35-2.54-20.49-.22-4.68,1-4.1,1.81-8.61,2.67-9,1.71-12.47-1.49-22.46-.56-7.79.73-6.8,2.79-13.05,2.91-9.35.18-12.34-4.37-20.26-3.76s-10.44,5.28-12.19,4.63c-5.22-1.95,11.32-46.64,37.92-47.51C1169.07,1152.91,1173.36,1154.85,1181.78,1158.74Z"/><path class="cls-4" d="M986.16,1291.94c30.91,17,48.32,41.39,42.6,44.88-3.12,1.85-10.45-3.56-23.91-1.55-5.58.83-5.07,1.86-10.48,2.58-10.83,1.43-14.43-2.53-26.15-2.07-9.14.37-8.36,2.84-15.68,2.58-10.91-.37-13.77-5.88-23.18-5.67-9.12.2-13,5.51-15,4.64-5.8-2.6,20.36-53.77,51.58-53.12C972.18,1284.33,976.91,1286.87,986.16,1291.94Z"/><path class="cls-2" d="M984,1275c26.36,14.47,41.19,35.3,36.32,38.28-2.59,1.58-8.9-3-20.39-1.32-4.68.7-4.32,1.59-8.92,2.2-9.24,1.22-12.31-2.16-22.32-1.76-7.79.31-7.12,2.41-13.37,2.2-9.35-.33-11.74-5-19.77-4.84-7.79.17-11.08,4.7-12.75,4-5-2.22,17.37-45.87,44-45.31C972.11,1268.47,976.15,1270.63,984,1275Z"/><path class="cls-3" d="M984,1254.51c26.36,14.47,41.19,35.3,36.32,38.27-2.59,1.58-8.9-3-20.39-1.32-4.68.71-4.32,1.59-8.92,2.2-9.24,1.22-12.31-2.16-22.32-1.76-7.79.31-7.12,2.42-13.37,2.2-9.35-.32-11.74-5-19.77-4.84-7.79.17-11.08,4.7-12.75,4-5-2.22,17.37-45.86,44-45.31C972.11,1248,976.15,1250.19,984,1254.51Z"/><path class="cls-4" d="M1412.4,1175.09c30.91,17,48.32,41.38,42.6,44.87-3.12,1.86-10.44-3.55-23.91-1.55-5.58.83-5.06,1.87-10.47,2.58-10.91,1.43-14.44-2.54-26.16-2.07-9.13.36-8.35,2.83-15.69,2.58-10.92-.38-13.75-5.88-23.17-5.68-9.12.2-13,5.52-14.94,4.65-5.8-2.61,20.35-53.78,51.56-53.13C1398.42,1167.48,1403.16,1170,1412.4,1175.09Z"/><path class="cls-2" d="M1410.28,1158.1c26.36,14.47,41.2,35.3,36.32,38.27-2.59,1.58-8.9-3-20.39-1.32-4.75.71-4.31,1.59-8.93,2.2-9.24,1.22-12.3-2.16-22.3-1.76-7.8.31-7.13,2.42-13.38,2.2-9.35-.32-11.73-5-19.76-4.84-7.8.17-11.08,4.7-12.75,4-5-2.22,17.35-45.86,44-45.31C1398.34,1151.61,1402.4,1153.77,1410.28,1158.1Z"/><path class="cls-3" d="M1410.28,1137.65c26.36,14.47,41.2,35.3,36.32,38.27-2.59,1.59-8.9-3-20.39-1.31-4.75.7-4.31,1.59-8.93,2.19-9.24,1.23-12.3-2.15-22.3-1.75-7.8.31-7.13,2.41-13.38,2.19-9.35-.32-11.73-5-19.76-4.83-7.8.17-11.08,4.7-12.75,3.95-5-2.21,17.35-45.86,44-45.32C1398.34,1131.16,1402.4,1133.33,1410.28,1137.65Z"/><path class="cls-2" d="M2258.5,645.34c3.91,16.69,21.56,40,45.38,40.26s43.31-22.24,47.93-39.38c7.79-28.77-21.4-62.5-47.39-62.36C2278.77,584,2251.88,617.17,2258.5,645.34Z"/><path class="cls-2" d="M2108.59,450c.81,6.78,9.35,7.4,12.23,13.94,4,9-9.77,13.33-6.09,21.83,3,6.85,15.26,11.85,25.76,12.62,12.14.89,14.4-4.44,26.5-3.54,14.29,1.06,17.89,9.07,29.1,7.79a23,23,0,0,0,13.34-6.3c3.12-3.25,1.28-4.59,3.32-9.16,3.74-8.35,12.21-8.9,16.2-18a12.57,12.57,0,0,0,1.31-7.33c-.78-4.87-4.55-6.92-7.53-10.79-6.53-8.49,1.28-12.12-4.15-19-5.06-6.42-17.56-10.43-28.21-10.44-11,0-11.46,4.24-26.68,6.37-16,2.22-20.11-1.8-32.49,1.63-7,1.95-12.9,5.18-17,9.29C2112,441.09,2108,445.09,2108.59,450Z"/><path class="cls-3" d="M2207.8,564.33c3.46,14.7,19,35.18,39.93,35.43s38.11-19.57,42.18-34.65c6.83-25.31-18.83-55-41.71-54.87C2225.63,510.36,2202,539.55,2207.8,564.33Z"/><path class="cls-3" d="M2108.59,607.33c.81,6.78,9.35,7.4,12.23,13.94,4,9-9.77,13.33-6.09,21.83,3,6.85,15.26,11.85,25.76,12.62,12.14.89,14.4-4.44,26.5-3.54,14.29,1.06,17.89,9.07,29.1,7.79a23,23,0,0,0,13.34-6.3c3.12-3.25,1.28-4.59,3.32-9.15,3.74-8.36,12.21-8.91,16.2-18a12.57,12.57,0,0,0,1.31-7.33c-.78-4.87-4.55-6.92-7.53-10.79-6.53-8.49,1.28-12.12-4.15-19-5.17-6.39-17.64-10.39-28.27-10.39-11,0-11.46,4.24-26.69,6.37-15.94,2.22-20.1-1.8-32.48,1.63-7,2-12.9,5.18-17,9.29C2112,598.43,2108,602.43,2108.59,607.33Z"/><path class="cls-3" d="M2304.36,423.34c.81,6.78,9.35,7.39,12.24,13.94,4,9-9.78,13.33-6.1,21.83,3,6.84,15.26,11.85,25.77,12.62,12.14.88,14.38-4.45,26.49-3.55,14.3,1.07,17.9,9.08,29.11,7.8a23,23,0,0,0,13.34-6.31c3.12-3.25,1.28-4.58,3.32-9.15,3.74-8.35,12.2-8.91,16.19-18a12.44,12.44,0,0,0,1.31-7.32c-.78-4.88-4.55-6.92-7.53-10.8-6.53-8.49,1.27-12.11-4.14-19-5.07-6.42-17.57-10.42-28.23-10.43-10.91,0-11.44,4.24-26.67,6.36-15.95,2.22-20.11-1.8-32.5,1.63-7,2-12.88,5.19-17,9.29C2307.74,414.44,2303.81,418.43,2304.36,423.34Z"/><path class="cls-4" d="M2224.07,780.88c3.37,14.34,18.5,34.32,39,34.57s37.19-19.1,41.16-33.81c6.67-24.71-18.37-53.68-40.69-53.55C2241.47,728.21,2218.38,756.69,2224.07,780.88Z"/><path class="cls-2" d="M1894.75,829.39c3.92,16.7,21.57,40,45.37,40.27s43.32-22.24,48-39.38c7.79-28.77-21.42-62.51-47.4-62.36C1915,768.06,1888.14,801.22,1894.75,829.39Z"/><path class="cls-4" d="M1967.6,760.53c3.37,14.33,18.52,34.32,39,34.57s37.19-19.1,41.16-33.82c6.66-24.7-18.39-53.67-40.69-53.55C1985,707.86,1961.93,736.34,1967.6,760.53Z"/><path class="cls-4" d="M2230.38,488.57c.74,6.31,8.68,6.88,11.37,13,3.72,8.38-9.09,12.39-5.66,20.3,2.76,6.37,14.18,11,24,11.74,11.3.82,13.38-4.14,24.59-3.3,13.3,1,16.65,8.44,27.06,7.25a21.85,21.85,0,0,0,12.47-5.86c2.92-3,1.19-4.27,3.12-8.52,3.47-7.76,11.35-8.28,15.06-16.74a11.54,11.54,0,0,0,1.21-6.81c-.73-4.53-4.24-6.43-7-10-6.08-7.9,1.19-11.27-3.85-17.64-4.67-6-16.35-9.7-26.25-9.71-10.24,0-10.66,4-24.81,5.92-14.84,2.07-18.71-1.67-30.22,1.52-6.49,1.82-12,4.82-15.84,8.64C2233.52,480.29,2229.84,484,2230.38,488.57Z"/><path class="cls-2" d="M2007.83,663.07c.81,6.78,9.35,7.4,12.24,13.94,4,9-9.78,13.33-6.1,21.83,3,6.85,15.26,11.85,25.77,12.62,12.14.88,14.4-4.44,26.49-3.55,14.3,1.07,17.9,9.08,29.11,7.8a23.08,23.08,0,0,0,13.34-6.3c3.12-3.26,1.28-4.59,3.32-9.16,3.74-8.35,12.2-8.91,16.19-18a12.37,12.37,0,0,0,1.31-7.32c-.78-4.88-4.55-6.92-7.53-10.8-6.53-8.49,1.28-12.11-4.14-19-5.07-6.42-17.57-10.43-28.21-10.44-11,0-11.46,4.24-26.69,6.36-15.94,2.23-20.09-1.79-32.48,1.64-7,1.95-12.91,5.18-17,9.29C2011.21,654.17,2007.25,658.17,2007.83,663.07Z"/><path class="cls-3" d="M2016,605.78c3.44,14.69,19,35.17,39.92,35.43s38.12-19.57,42.19-34.65c6.83-25.32-18.84-55-41.71-54.88C2033.83,551.8,2010.18,581,2016,605.78Z"/><path class="cls-4" d="M2129.63,701.65c.75,6.3,8.68,6.88,11.38,13,3.71,8.39-9.09,12.4-5.68,20.31,2.76,6.36,14.2,11,24,11.73,11.28.83,13.37-4.13,24.58-3.29,13.29,1,16.64,8.44,27.06,7.25a21.92,21.92,0,0,0,12.47-5.86c2.91-3,1.18-4.27,3.11-8.52,3.48-7.76,11.35-8.28,15.06-16.74a11.55,11.55,0,0,0,1.22-6.81c-.72-4.54-4.24-6.44-7-10-6.07-7.9,1.18-11.27-3.85-17.64-4.68-6-16.35-9.7-26.25-9.71-10.24,0-10.66,3.94-24.82,5.92-14.83,2.07-18.7-1.68-30.22,1.52a36.45,36.45,0,0,0-15.84,8.64C2132.76,693.37,2129.08,697.09,2129.63,701.65Z"/><path class="cls-4" d="M2285.25,412.94c30.91,17,48.32,41.38,42.6,44.87-3.12,1.86-10.44-3.55-23.91-1.55-5.58.83-5.07,1.87-10.48,2.58-10.83,1.44-14.43-2.53-26.15-2.06-9.14.36-8.36,2.83-15.7,2.58-10.91-.38-13.75-5.88-23.16-5.68-9.12.2-13,5.52-14.95,4.65-5.8-2.6,20.36-53.78,51.56-53.13C2271.27,405.33,2276,407.87,2285.25,412.94Z"/><path class="cls-2" d="M2283.13,396c26.36,14.47,41.2,35.3,36.32,38.27-2.59,1.58-8.9-3-20.39-1.32-4.68.71-4.32,1.59-8.93,2.2-9.24,1.22-12.3-2.16-22.31-1.76-7.79.31-7.12,2.42-13.37,2.2-9.35-.32-11.74-5-19.77-4.84-7.79.17-11.08,4.7-12.75,4-4.95-2.22,17.35-45.86,44-45.31C2271.19,389.46,2275.24,391.62,2283.13,396Z"/><path class="cls-3" d="M2283.13,375.5c26.36,14.47,41.2,35.3,36.32,38.27-2.59,1.59-8.9-3-20.39-1.31-4.68.7-4.32,1.59-8.93,2.19-9.24,1.23-12.3-2.15-22.31-1.75-7.79.31-7.12,2.41-13.37,2.19-9.35-.32-11.74-5-19.77-4.83-7.79.17-11.08,4.7-12.75,3.95-4.95-2.21,17.35-45.86,44-45.31C2271.19,369,2275.24,371.18,2283.13,375.5Z"/><path class="cls-4" d="M2321.52,694.66c30.93,17,48.32,41.39,42.6,44.88-3.12,1.85-10.44-3.55-23.91-1.55-5.56.83-5.07,1.86-10.46,2.58-10.91,1.43-14.43-2.53-26.15-2.06-9.15.36-8.36,2.83-15.7,2.58-10.91-.38-13.75-5.88-23.16-5.68-9.14.2-13,5.51-14.95,4.64-5.81-2.6,20.34-53.77,51.56-53.12C2307.54,687.06,2312.29,689.59,2321.52,694.66Z"/><path class="cls-2" d="M2319.4,677.68c26.37,14.46,41.2,35.29,36.33,38.27-2.58,1.58-8.9-3-20.4-1.32-4.68.7-4.32,1.59-8.91,2.2-9.25,1.22-12.32-2.16-22.31-1.76-7.79.31-7.14,2.41-13.39,2.2-9.35-.32-11.74-5-19.76-4.84-7.8.17-11.09,4.7-12.74,4-5-2.22,17.35-45.87,44-45.31C2307.48,671.19,2311.61,673.35,2319.4,677.68Z"/><path class="cls-3" d="M2319.4,657.23c26.37,14.47,41.2,35.3,36.33,38.27-2.58,1.59-8.9-3-20.4-1.32-4.68.71-4.32,1.59-8.91,2.2-9.25,1.23-12.32-2.15-22.31-1.76-7.79.31-7.14,2.42-13.39,2.2-9.35-.32-11.74-5-19.76-4.84-7.8.17-11.09,4.71-12.74,4-5-2.22,17.35-45.86,44-45.31C2307.48,650.74,2311.61,652.91,2319.4,657.23Z"/><path class="cls-4" d="M2113.65,772.35c30.91,17,48.32,41.38,42.6,44.87-3,1.86-10.44-3.55-23.91-1.55-5.56.83-5.07,1.87-10.46,2.58-10.91,1.44-14.43-2.53-26.15-2.06-9.15.36-8.36,2.83-15.7,2.58-10.91-.38-13.76-5.88-23.16-5.67-9.14.2-13,5.51-14.95,4.64-5.81-2.6,20.26-53.78,51.56-53.13C2099.62,764.74,2104.44,767.28,2113.65,772.35Z"/><path class="cls-2" d="M2111.55,755.36c26.35,14.47,41.19,35.3,36.33,38.27-2.59,1.59-8.92-3-20.4-1.32-4.68.71-4.32,1.59-8.92,2.2-9.24,1.23-12.31-2.15-22.3-1.76-7.8.31-7.14,2.42-13.39,2.2-9.36-.32-11.74-5-19.77-4.84-7.79.17-11.08,4.71-12.73,4-5-2.22,17.35-45.86,44-45.31C2099.62,748.87,2103.66,751,2111.55,755.36Z"/><path class="cls-3" d="M2111.55,734.92c26.35,14.46,41.19,35.29,36.33,38.27-2.59,1.58-8.92-3-20.4-1.32-4.68.7-4.32,1.59-8.92,2.2-9.24,1.22-12.31-2.16-22.3-1.76-7.8.31-7.14,2.41-13.39,2.2-9.36-.32-11.74-5-19.77-4.84-7.79.17-11.08,4.7-12.73,4-5-2.22,17.35-45.87,44-45.31C2099.62,728.43,2103.66,730.59,2111.55,734.92Z"/><path class="cls-4" d="M2163.23,527.43c30.91,17,48.32,41.39,42.6,44.88-3.11,1.85-10.44-3.56-23.91-1.55-5.56.83-5.06,1.86-10.46,2.58-10.91,1.43-14.45-2.53-26.17-2.07-9.13.37-8.35,2.84-15.68,2.58-10.91-.37-13.76-5.88-23.18-5.67-9.11.2-13,5.51-14.93,4.64-5.81-2.6,20.27-53.77,51.56-53.12C2149.25,519.82,2154,522.36,2163.23,527.43Z"/><path class="cls-2" d="M2161.11,510.44c26.36,14.47,41.2,35.3,36.34,38.28-2.61,1.58-8.92-3-20.41-1.32-4.75.7-4.31,1.59-8.91,2.2-9.25,1.22-12.32-2.16-22.32-1.76-7.8.31-7.13,2.41-13.38,2.2-9.35-.33-11.73-5-19.76-4.84-7.79.17-11.08,4.7-12.75,4-4.94-2.22,17.36-45.87,44-45.31C2149.19,504,2153.23,506.12,2161.11,510.44Z"/><path class="cls-3" d="M2161.11,490c26.36,14.47,41.2,35.3,36.34,38.27-2.61,1.58-8.92-3-20.41-1.32-4.75.71-4.31,1.59-8.91,2.2-9.25,1.22-12.32-2.16-22.32-1.76-7.8.31-7.13,2.42-13.38,2.2-9.35-.32-11.73-5-19.76-4.84-7.79.17-11.08,4.7-12.75,4-4.94-2.22,17.36-45.86,44-45.31C2149.19,483.51,2153.23,485.67,2161.11,490Z"/><path class="cls-4" d="M2371.09,536.46c30.91,17,48.32,41.38,42.6,44.87-3.12,1.86-10.45-3.55-23.91-1.55-5.57.83-5.07,1.87-10.46,2.58-10.91,1.44-14.44-2.53-26.16-2.06-9.15.36-8.37,2.83-15.69,2.58-10.91-.38-13.77-5.88-23.18-5.68-9.12.2-13,5.52-14.93,4.65-5.82-2.6,20.26-53.78,51.56-53.13C2357.11,528.85,2361.84,531.39,2371.09,536.46Z"/><path class="cls-2" d="M2369,519.47c26.36,14.47,41.19,35.3,36.33,38.27-2.6,1.58-8.91-3-20.4-1.32-4.68.71-4.32,1.59-8.92,2.2-9.24,1.22-12.31-2.16-22.3-1.76-7.8.31-7.14,2.42-13.39,2.2-9.35-.32-11.74-5-19.77-4.84-7.79.17-11.08,4.7-12.75,4-4.94-2.22,17.37-45.86,44-45.31C2357,513,2361.08,515.14,2369,519.47Z"/><path class="cls-3" d="M2369,499c26.36,14.47,41.19,35.3,36.33,38.28-2.6,1.58-8.91-3-20.4-1.32-4.68.7-4.32,1.59-8.92,2.2-9.24,1.22-12.31-2.16-22.3-1.76-7.8.31-7.14,2.41-13.39,2.2-9.35-.33-11.74-5-19.77-4.84-7.79.17-11.08,4.7-12.75,4-4.94-2.22,17.37-45.87,44-45.31C2357,492.54,2361.08,494.7,2369,499Z"/><path class="cls-2" d="M796,213.68c3.92,16.7,21.56,40,45.36,40.26s43.33-22.24,47.95-39.37c7.79-28.78-21.4-62.51-47.4-62.37C816.23,152.34,789.34,185.51,796,213.68Z"/><path class="cls-2" d="M1214,297c.79,6.78,9.35,7.39,12.22,13.94,4,9-9.78,13.32-6.08,21.83,3,6.84,15.24,11.85,25.75,12.61,12.15.89,14.4-4.44,26.49-3.54,14.3,1.07,17.9,9.08,29.11,7.79a23,23,0,0,0,13.34-6.3c3.12-3.25,1.29-4.59,3.33-9.15,3.73-8.35,12.19-8.91,16.18-18a12.29,12.29,0,0,0,1.31-7.32c-.78-4.88-4.55-6.92-7.53-10.8-6.51-8.49,1.28-12.11-4.13-19-5.06-6.42-17.58-10.42-28.22-10.43-11,0-11.46,4.24-26.69,6.36-15.95,2.22-20.09-1.8-32.48,1.63-7,2-12.9,5.19-17,9.29C1217.39,288.07,1213.43,292.06,1214,297Z"/><path class="cls-3" d="M550.15,160.82c3.47,14.69,19,35.17,39.94,35.43s38.11-19.57,42.18-34.65c6.84-25.32-18.83-55-41.7-54.88C568,106.85,544.34,136,550.15,160.82Z"/><path class="cls-3" d="M673.2,163.09c.81,6.78,9.35,7.4,12.24,13.94,4,9-9.78,13.33-6.1,21.83,3,6.84,15.26,11.85,25.77,12.62,12.14.88,14.4-4.45,26.49-3.55,14.3,1.07,17.9,9.08,29.11,7.8a23,23,0,0,0,13.34-6.31c3.12-3.25,1.29-4.58,3.33-9.15,3.73-8.35,12.19-8.91,16.18-18a12.37,12.37,0,0,0,1.31-7.32c-.78-4.88-4.55-6.92-7.53-10.8-6.53-8.49,1.28-12.11-4.13-19-5.08-6.42-17.58-10.42-28.22-10.43-11,0-11.46,4.24-26.69,6.36-15.95,2.23-20.09-1.8-32.48,1.64-7,1.94-13,5.17-17.1,9.29C676.52,154.19,672.62,158.18,673.2,163.09Z"/><path class="cls-3" d="M902.39,228.13c.8,6.77,9.35,7.39,12.24,13.93,4,9-9.78,13.33-6.1,21.84,3,6.84,15.26,11.85,25.77,12.61,12.14.89,14.39-4.44,26.5-3.54,14.29,1.07,17.89,9.08,29.08,7.79a23,23,0,0,0,13.36-6.3c3.12-3.25,1.28-4.59,3.32-9.15,3.74-8.35,12.21-8.91,16.18-18a12.46,12.46,0,0,0,1.33-7.32c-.78-4.88-4.57-6.92-7.55-10.8-6.51-8.49,1.28-12.11-4.13-19-5.07-6.42-17.57-10.42-28.23-10.44-11,0-11.44,4.25-26.67,6.37-15.94,2.22-20.1-1.8-32.5,1.63-7,2-12.88,5.19-17,9.29C905.77,219.22,901.82,223.22,902.39,228.13Z"/><path class="cls-4" d="M629.18,137.4c3.37,14.33,18.52,34.32,39,34.57s37.19-19.1,41.16-33.81c6.66-24.71-18.37-53.68-40.69-53.55C646.59,84.73,623.52,113.21,629.18,137.4Z"/><path class="cls-2" d="M299.87,185.91c3.91,16.7,21.56,40,45.38,40.27s43.31-22.25,47.93-39.38c7.79-28.77-21.4-62.51-47.39-62.37C320.14,124.57,293.26,157.74,299.87,185.91Z"/><path class="cls-4" d="M372.73,117c3.36,14.34,18.51,34.32,39,34.58s37.21-19.1,41.17-33.82c6.67-24.7-18.38-53.67-40.7-53.55C390.12,64.37,367,92.85,372.73,117Z"/><path class="cls-4" d="M754.75,96.57c.75,6.31,8.68,6.88,11.38,13,3.71,8.38-9.09,12.39-5.67,20.3,2.75,6.37,14.2,11,24,11.74,11.28.82,13.39-4.13,24.58-3.3,13.3,1,16.65,8.44,27.06,7.25a21.78,21.78,0,0,0,12.47-5.86c2.91-3,1.18-4.27,3.12-8.51,3.47-7.77,11.34-8.29,15.05-16.75a11.47,11.47,0,0,0,1.22-6.81c-.72-4.53-4.22-6.43-7-10-6.06-7.9,1.19-11.26-3.85-17.64-4.68-6-16.35-9.7-26.25-9.71-10.24,0-10.64,4-24.81,5.92-14.84,2.07-18.71-1.67-30.23,1.52-6.48,1.82-12,4.82-15.83,8.64C757.9,88.29,754.21,92,754.75,96.57Z"/><path class="cls-2" d="M1370.52,157.42c.81,6.77,9.35,7.39,12.24,13.94,4,9-9.78,13.32-6.1,21.83,3,6.84,15.26,11.85,25.77,12.61,12.14.89,14.4-4.44,26.49-3.54,14.3,1.07,17.9,9.08,29.11,7.79a23,23,0,0,0,13.34-6.3c3.12-3.25,1.29-4.59,3.33-9.15,3.73-8.35,12.19-8.91,16.18-18a12.44,12.44,0,0,0,1.31-7.32c-.78-4.88-4.55-6.92-7.53-10.8-6.53-8.49,1.28-12.11-4.13-19-5.08-6.42-17.58-10.42-28.22-10.43-11,0-11.46,4.24-26.69,6.36-15.95,2.22-20.09-1.8-32.48,1.63-7,2-12.9,5.18-17,9.29C1373.9,148.51,1369.94,152.51,1370.52,157.42Z"/><path class="cls-3" d="M1128,353.84c3.46,14.69,19,35.17,39.93,35.43s38.11-19.57,42.18-34.65c6.83-25.32-18.83-55-41.71-54.88C1145.8,299.86,1122.16,329,1128,353.84Z"/><path class="cls-4" d="M534.68,58.17c.75,6.3,8.68,6.88,11.38,13,3.72,8.39-9.09,12.4-5.66,20.31,2.76,6.36,14.18,11,24,11.73,11.31.83,13.39-4.13,24.6-3.29,13.28,1,16.63,8.44,27.06,7.25a21.88,21.88,0,0,0,12.47-5.87c2.93-3,1.2-4.26,3.12-8.51,3.47-7.77,11.33-8.29,15-16.74a11.62,11.62,0,0,0,1.23-6.81c-.73-4.54-4.24-6.44-7-10C634.79,51.34,642,48,637,41.59c-4.67-6-16.35-9.69-26.26-9.7-10.23,0-10.65,3.94-24.82,5.92-14.82,2.06-18.7-1.68-30.2,1.52A36.31,36.31,0,0,0,539.88,48C537.89,49.89,534.21,53.6,534.68,58.17Z"/><path class="cls-4" d="M1350.19,214.66c30.91,17,48.32,41.39,42.6,44.88-3,1.85-10.44-3.55-23.91-1.55-5.56.83-5.06,1.86-10.47,2.58-10.91,1.43-14.43-2.53-26.16-2.06-9.13.36-8.35,2.83-15.68,2.58-10.91-.38-13.76-5.88-23.17-5.68-9.12.2-13,5.51-15,4.64-5.8-2.6,20.35-53.77,51.57-53.12C1336.21,207.06,1341,209.59,1350.19,214.66Z"/><path class="cls-2" d="M1348.07,197.68c26.36,14.46,41.2,35.29,36.34,38.27-2.6,1.58-8.92-3-20.41-1.32-4.67.71-4.31,1.59-8.91,2.2-9.24,1.22-12.32-2.16-22.32-1.76-7.8.31-7.13,2.41-13.38,2.2-9.35-.32-11.73-5-19.76-4.84-7.79.17-11.08,4.7-12.75,4-5-2.22,17.36-45.87,44-45.31C1336.15,191.19,1340.19,193.35,1348.07,197.68Z"/><path class="cls-3" d="M1348.07,177.23c26.36,14.47,41.2,35.3,36.34,38.27-2.6,1.59-8.92-3-20.41-1.32-4.67.71-4.31,1.59-8.91,2.2-9.24,1.23-12.32-2.15-22.32-1.76-7.8.31-7.13,2.42-13.38,2.2-9.35-.32-11.73-5-19.76-4.84-7.79.17-11.08,4.71-12.75,4-5-2.21,17.36-45.86,44-45.31C1336.15,170.74,1340.19,172.91,1348.07,177.23Z"/><path class="cls-4" d="M726.65,51.18c30.91,17,48.32,41.39,42.6,44.88-3,1.85-10.45-3.56-23.91-1.55-5.57.83-5.07,1.86-10.48,2.58C724,98.52,720.43,94.56,708.71,95c-9.14.37-8.36,2.84-15.68,2.58-10.91-.37-13.77-5.88-23.18-5.67-9.12.2-13,5.51-15,4.64-5.8-2.6,20.36-53.77,51.58-53.12C712.67,43.57,717.4,46.11,726.65,51.18Z"/><path class="cls-2" d="M724.53,34.19c26.36,14.47,41.19,35.3,36.33,38.28-2.6,1.58-8.91-3-20.4-1.32-4.68.7-4.32,1.59-8.92,2.2-9.24,1.22-12.31-2.16-22.32-1.76-7.79.31-7.12,2.41-13.37,2.2-9.35-.33-11.74-5-19.77-4.84-7.79.17-11.08,4.7-12.75,4-5-2.22,17.37-45.87,44-45.31C712.6,27.71,716.64,29.87,724.53,34.19Z"/><path class="cls-3" d="M724.53,13.75C750.89,28.22,765.72,49,760.86,52c-2.6,1.59-8.91-3-20.4-1.32-4.68.71-4.32,1.59-8.92,2.2-9.24,1.22-12.31-2.16-22.32-1.76-7.79.31-7.12,2.42-13.37,2.2-9.35-.32-11.74-5-19.77-4.84-7.79.17-11.08,4.7-12.75,4-5-2.22,17.37-45.86,44-45.31C712.6,7.26,716.64,9.43,724.53,13.75Z"/><path class="cls-4" d="M518.79,128.87c30.91,17,48.32,41.38,42.6,44.87-3,1.86-10.44-3.55-23.91-1.55-5.58.83-5.06,1.87-10.47,2.58-10.84,1.44-14.44-2.53-26.16-2.06-9.13.36-8.35,2.83-15.68,2.58-10.91-.38-13.76-5.88-23.18-5.68-9.11.2-13,5.52-14.94,4.65-5.8-2.6,20.35-53.78,51.57-53.13C504.81,121.26,509.55,123.8,518.79,128.87Z"/><path class="cls-2" d="M516.67,111.88c26.36,14.47,41.2,35.3,36.32,38.27-2.59,1.58-8.9-3-20.39-1.32-4.75.71-4.31,1.59-8.91,2.2-9.25,1.22-12.32-2.16-22.32-1.76-7.8.31-7.13,2.42-13.38,2.2-9.35-.32-11.73-5-19.76-4.84-7.79.17-11.08,4.7-12.75,4-5-2.22,17.36-45.86,44-45.31C504.75,105.39,508.79,107.56,516.67,111.88Z"/><path class="cls-3" d="M516.67,91.43c26.36,14.47,41.2,35.3,36.32,38.28-2.59,1.58-8.9-3-20.39-1.32-4.75.7-4.31,1.59-8.91,2.2-9.25,1.22-12.32-2.16-22.32-1.76-7.8.31-7.13,2.41-13.38,2.2-9.35-.33-11.73-5-19.76-4.84-7.79.17-11.08,4.7-12.75,4-5-2.22,17.36-45.87,44-45.31C504.75,85,508.79,87.11,516.67,91.43Z"/><path class="cls-4" d="M1069.61,298.07c30.91,17,48.32,41.38,42.58,44.87-3,1.86-10.42-3.55-23.91-1.55-5.56.83-5,1.87-10.45,2.58-10.92,1.44-14.44-2.53-26.16-2.06-9.15.36-8.35,2.83-15.7,2.58-10.91-.38-13.74-5.88-23.16-5.68-9.12.2-13,5.52-14.95,4.65-5.81-2.6,20.34-53.78,51.57-53.13C1055.61,290.46,1060.37,293,1069.61,298.07Z"/><path class="cls-2" d="M1067.48,281.08c26.37,14.47,41.19,35.3,36.33,38.27-2.59,1.58-8.9-3-20.39-1.32-4.68.71-4.32,1.59-8.93,2.2-9.24,1.22-12.31-2.16-22.31-1.76-7.79.31-7.12,2.42-13.38,2.2-9.36-.32-11.73-5-19.75-4.84-7.8.17-11.1,4.7-12.75,4-5-2.22,17.34-45.86,44-45.31C1055.55,274.59,1059.6,276.75,1067.48,281.08Z"/><path class="cls-3" d="M1067.48,260.63c26.37,14.47,41.19,35.3,36.33,38.27-2.59,1.59-8.9-3-20.39-1.31-4.68.7-4.32,1.59-8.93,2.19-9.24,1.23-12.31-2.15-22.31-1.75-7.79.31-7.12,2.41-13.38,2.19-9.36-.32-11.73-5-19.75-4.83-7.8.17-11.1,4.7-12.75,3.95-5-2.21,17.34-45.86,44-45.31C1055.55,254.14,1059.6,256.31,1067.48,260.63Z"/><path class="cls-4" d="M928.11,150.29c30.91,17,48.32,41.38,42.6,44.87-3.12,1.86-10.44-3.55-23.93-1.55-5.56.83-5,1.87-10.45,2.58-10.84,1.43-14.44-2.53-26.16-2.06-9.15.36-8.35,2.83-15.7,2.58-10.91-.38-13.74-5.88-23.16-5.68-9.12.2-13,5.52-14.95,4.65-5.81-2.61,20.27-53.78,51.57-53.13C914.13,142.68,918.87,145.22,928.11,150.29Z"/><path class="cls-2" d="M925.91,133.3c26.38,14.47,41.2,35.3,36.34,38.27-2.59,1.58-8.9-3-20.39-1.32-4.68.71-4.32,1.59-8.93,2.2-9.25,1.22-12.32-2.16-22.31-1.76-7.79.31-7.12,2.42-13.39,2.2-9.35-.32-11.72-5-19.75-4.84-7.79.17-11.09,4.7-12.75,4-5-2.22,17.35-45.87,44-45.31C914.05,126.81,918.12,129,925.91,133.3Z"/><path class="cls-3" d="M925.91,112.85c26.38,14.47,41.2,35.3,36.34,38.27-2.59,1.59-8.9-3-20.39-1.32-4.68.71-4.32,1.59-8.93,2.2-9.25,1.23-12.32-2.15-22.31-1.76-7.79.31-7.12,2.42-13.39,2.2-9.35-.32-11.72-5-19.75-4.83-7.79.17-11.09,4.7-12.75,4-5-2.21,17.35-45.86,44-45.31C914.05,106.36,918.12,108.53,925.91,112.85Z"/><path class="cls-2" d="M165.4,286.32c3.93,16.7,21.58,40,45.38,40.27s43.33-22.25,48-39.38c7.79-28.77-21.42-62.51-47.41-62.37C185.67,225,158.79,258.15,165.4,286.32Z"/><path class="cls-4" d="M218.1,205.77c3.37,14.34,18.52,34.32,39,34.57s37.19-19.1,41.17-33.81c6.65-24.71-18.4-53.67-40.7-53.55C235.51,153.1,212.43,181.58,218.1,205.77Z"/><path class="cls-4" d="M177.12,203.56c30.91,17,48.32,41.39,42.59,44.87-3.12,1.86-10.43-3.55-23.91-1.54-5.57.82-5.05,1.86-10.46,2.58-10.83,1.43-14.44-2.53-26.16-2.07-9.15.37-8.35,2.83-15.69,2.58-10.91-.38-13.75-5.88-23.17-5.67-9.11.2-13,5.51-14.94,4.64-5.82-2.6,20.26-53.78,51.56-53.13C163.13,196,167.88,198.49,177.12,203.56Z"/><path class="cls-2" d="M175,186.57c26.37,14.47,41.2,35.3,36.33,38.27-2.59,1.59-8.9-3-20.39-1.32-4.67.71-4.31,1.59-8.93,2.2-9.24,1.23-12.31-2.15-22.3-1.76-7.8.31-7.13,2.42-13.39,2.2-9.35-.32-11.72-5-19.75-4.84s-11.1,4.71-12.75,4c-5-2.21,17.35-45.86,44-45.31C163.06,180.08,167.12,182.25,175,186.57Z"/><path class="cls-3" d="M175,166.13c26.37,14.47,41.2,35.29,36.33,38.27-2.59,1.58-8.9-3-20.39-1.32-4.67.71-4.31,1.59-8.93,2.2-9.24,1.22-12.31-2.16-22.3-1.76-7.8.31-7.13,2.41-13.39,2.2-9.35-.32-11.72-5-19.75-4.84s-11.1,4.7-12.75,4c-5-2.22,17.35-45.87,44-45.31C163.06,159.64,167.12,161.8,175,166.13Z"/><path class="cls-4" d="M127.56,307c30.91,17,48.32,41.39,42.6,44.87-3.12,1.86-10.45-3.55-23.93-1.54-5.56.82-5,1.86-10.46,2.58-10.91,1.43-14.43-2.53-26.15-2.07-9.15.37-8.36,2.83-15.7,2.58-10.91-.38-13.75-5.88-23.16-5.67-9.12.2-13,5.51-15,4.64-5.81-2.6,20.26-53.78,51.56-53.13C113.58,299.4,118.31,301.94,127.56,307Z"/><path class="cls-2" d="M125.42,290c26.38,14.47,41.2,35.3,36.34,38.27-2.59,1.59-8.9-3-20.39-1.32-4.68.71-4.32,1.59-8.93,2.2-9.26,1.24-12.38-2.15-22.31-1.75-7.79.31-7.12,2.42-13.39,2.2-9.35-.32-11.72-5-19.75-4.83-7.79.17-11.1,4.7-12.75,4-5-2.26,17.35-45.91,44-45.36C113.5,283.53,117.55,285.7,125.42,290Z"/><path class="cls-3" d="M125.42,269.58c26.38,14.47,41.2,35.29,36.34,38.27-2.59,1.58-8.9-3-20.39-1.32-4.68.71-4.32,1.59-8.93,2.2-9.26,1.22-12.38-2.16-22.31-1.72-7.79.31-7.12,2.42-13.39,2.2-9.35-.32-11.72-5-19.75-4.84-7.79.17-11.1,4.7-12.75,4-5-2.3,17.35-45.95,44-45.36C113.5,263.09,117.55,265.25,125.42,269.58Z"/><path class="cls-2" d="M1673.55,206.54c-3.91,16.7-21.56,40-45.36,40.27s-43.33-22.25-48-39.38c-7.79-28.77,21.41-62.51,47.41-62.36C1653.29,145.21,1680.17,178.37,1673.55,206.54Z"/><path class="cls-2" d="M2404.44,356.68c-.81,6.78-9.35,7.4-12.23,13.94-4,9,9.77,13.33,6.09,21.83-3,6.85-15.26,11.85-25.76,12.62-12.14.88-14.39-4.44-26.5-3.54-14.29,1.06-17.89,9.07-29.1,7.79a23,23,0,0,1-13.34-6.3c-3.12-3.26-1.28-4.59-3.32-9.16-3.75-8.35-12.21-8.91-16.2-18a12.44,12.44,0,0,1-1.31-7.32c.78-4.87,4.55-6.92,7.53-10.79,6.53-8.5-1.26-12.12,4.15-19,5.06-6.42,17.56-10.43,28.22-10.44,10.92,0,11.45,4.24,26.67,6.37,15.95,2.22,20.11-1.8,32.49,1.63,7,1.95,12.9,5.18,17,9.29C2401.06,347.78,2405,351.78,2404.44,356.68Z"/><path class="cls-3" d="M1919.36,153.68c-3.46,14.7-19,35.18-39.94,35.43s-38.11-19.57-42.18-34.65c-6.84-25.31,18.83-55,41.7-54.87C1901.53,99.71,1925.17,128.89,1919.36,153.68Z"/><path class="cls-3" d="M1796.31,156c-.81,6.78-9.35,7.4-12.23,13.94-4,9,9.77,13.33,6.09,21.83-3,6.85-15.26,11.85-25.76,12.62-12.15.89-14.41-4.44-26.5-3.54-14.3,1.06-17.9,9.07-29.1,7.79a23.09,23.09,0,0,1-13.35-6.3c-3.11-3.25-1.29-4.59-3.33-9.15-3.73-8.35-12.19-8.91-16.18-18a12.49,12.49,0,0,1-1.31-7.33c.78-4.87,4.55-6.92,7.53-10.79,6.53-8.49-1.28-12.12,4.13-19,5.08-6.42,17.58-10.43,28.23-10.44,11,0,11.45,4.24,26.68,6.37,16,2.22,20.09-1.8,32.49,1.63,7,1.95,12.9,5.18,17,9.29C1792.93,147,1796.89,151,1796.31,156Z"/><path class="cls-3" d="M1553.11,212.63c-.81,6.77-9.35,7.39-12.24,13.94-4,9,9.77,13.32,6.08,21.83-3,6.84-15.24,11.85-25.75,12.61-12.16.89-14.4-4.44-26.5-3.54-14.29,1.07-17.89,9.08-29.1,7.79a23,23,0,0,1-13.34-6.3c-3.12-3.25-1.29-4.59-3.34-9.15-3.72-8.35-12.19-8.91-16.18-18a12.52,12.52,0,0,1-1.31-7.32c.78-4.88,4.56-6.92,7.53-10.8,6.52-8.49-1.28-12.11,4.13-19,5.07-6.42,17.59-10.42,28.23-10.44,11,0,11.46,4.25,26.69,6.37,15.94,2.22,20.09-1.8,32.48,1.63,7,2,12.89,5.19,17,9.29C1549.73,203.72,1553.68,207.72,1553.11,212.63Z"/><path class="cls-4" d="M1840.33,130.26c-3.37,14.34-18.52,34.32-39,34.57s-37.19-19.1-41.16-33.81c-6.61-24.71,18.33-53.67,40.7-53.55C1822.92,77.59,1846,106.07,1840.33,130.26Z"/><path class="cls-2" d="M2169.64,178.78c-3.91,16.7-21.56,40-45.37,40.26s-43.32-22.24-47.95-39.38c-7.79-28.77,21.42-62.5,47.4-62.36C2149.38,117.44,2176.25,150.61,2169.64,178.78Z"/><path class="cls-4" d="M2096.79,109.91c-3.37,14.34-18.52,34.32-39,34.57s-37.21-19.1-41.17-33.81C2010,86,2035.05,57,2057.37,57.12,2079.36,57.24,2102.48,85.72,2096.79,109.91Z"/><path class="cls-4" d="M1714.76,89.44c-.75,6.3-8.68,6.88-11.38,13-3.71,8.39,9.09,12.4,5.68,20.31-2.76,6.36-14.2,11-24,11.73-11.28.83-13.39-4.13-24.58-3.29-13.29,1-16.64,8.44-27.06,7.24a21.78,21.78,0,0,1-12.47-5.86c-2.91-3-1.18-4.26-3.11-8.51-3.48-7.77-11.35-8.29-15.06-16.74a11.55,11.55,0,0,1-1.22-6.81c.72-4.54,4.23-6.44,7-10,6.07-7.9-1.18-11.27,3.85-17.65,4.68-6,16.35-9.69,26.25-9.7,10.24,0,10.65,3.94,24.82,5.92,14.83,2.06,18.7-1.68,30.22,1.52a36.23,36.23,0,0,1,15.84,8.64C1711.61,81.16,1715.31,84.87,1714.76,89.44Z"/><path class="cls-2" d="M2291.16,204.62c-.8,6.78-9.36,7.4-12.22,13.94-4,9,9.75,13.33,6.08,21.83-3,6.85-15.26,11.85-25.77,12.62-12.14.88-14.39-4.44-26.5-3.54-14.29,1.06-17.89,9.07-29.1,7.79a23.13,23.13,0,0,1-13.36-6.3c-3.11-3.26-1.28-4.59-3.32-9.16-3.72-8.35-12.19-8.91-16.18-18a12.37,12.37,0,0,1-1.31-7.32c.78-4.87,4.56-6.92,7.53-10.8,6.52-8.49-1.28-12.11,4.13-19,5.07-6.42,17.59-10.43,28.23-10.44,11,0,11.46,4.24,26.67,6.36,16,2.23,20.11-1.79,32.5,1.64,7,1.95,12.9,5.18,17,9.29C2287.77,195.72,2291.75,199.72,2291.16,204.62Z"/><path class="cls-3" d="M2248.07,337.67c-3.44,14.7-19,35.18-39.91,35.43S2170,353.53,2166,338.45c-6.83-25.31,18.85-55,41.71-54.87C2230.24,283.7,2253.94,312.88,2248.07,337.67Z"/><path class="cls-4" d="M1934.77,51c-.74,6.31-8.68,6.88-11.38,13-3.72,8.38,9.09,12.39,5.66,20.3-2.76,6.37-14.18,11-24,11.74-11.31.82-13.39-4.13-24.6-3.3-13.28,1-16.63,8.44-27.06,7.25A21.89,21.89,0,0,1,1841,94.14c-2.93-3-1.2-4.27-3.12-8.52-3.47-7.76-11.33-8.28-15-16.74a11.62,11.62,0,0,1-1.23-6.81c.73-4.53,4.24-6.43,7-10,6.07-7.9-1.2-11.27,3.84-17.64,4.67-6,16.35-9.7,26.26-9.71,10.23,0,10.65,4,24.82,5.92,14.82,2.07,18.7-1.67,30.2,1.52,6.54,1.79,12.11,4.77,16,8.59C1931.62,42.75,1935.3,46.47,1934.77,51Z"/><path class="cls-4" d="M2292.64,282c-30.91,17-48.32,41.38-42.59,44.87,3.12,1.86,10.43-3.55,23.91-1.55,5.57.83,5.05,1.87,10.46,2.58,10.91,1.43,14.44-2.53,26.16-2.06,9.15.36,8.35,2.83,15.69,2.58,10.92-.38,13.75-5.88,23.17-5.68,9.12.2,13,5.52,14.95,4.65,5.81-2.61-20.27-53.78-51.57-53.13C2306.64,274.38,2301.88,276.92,2292.64,282Z"/><path class="cls-2" d="M2294.77,265c-26.37,14.47-41.19,35.3-36.33,38.27,2.59,1.58,8.9-3,20.39-1.32,4.67.71,4.32,1.59,8.93,2.2,9.24,1.22,12.31-2.16,22.3-1.76,7.8.31,7.13,2.42,13.39,2.2,9.36-.32,11.72-5,19.75-4.84,7.8.17,11.1,4.7,12.75,4,5-2.22-17.35-45.86-44-45.31C2306.7,258.51,2302.64,260.67,2294.77,265Z"/><path class="cls-3" d="M2294.77,244.55c-26.37,14.47-41.19,35.3-36.33,38.27,2.59,1.59,8.9-3,20.39-1.31,4.67.7,4.32,1.59,8.93,2.19,9.24,1.23,12.31-2.15,22.3-1.75,7.8.31,7.13,2.41,13.39,2.19,9.36-.32,11.72-5,19.75-4.83,7.8.17,11.1,4.7,12.75,3.95,5-2.21-17.35-45.86-44-45.31C2306.7,238.06,2302.64,240.23,2294.77,244.55Z"/><path class="cls-4" d="M1742.86,44c-30.9,17-48.32,41.38-42.59,44.87,3.11,1.86,10.44-3.55,23.91-1.55,5.56.83,5.06,1.87,10.47,2.58,10.91,1.44,14.43-2.53,26.16-2.06,9.13.36,8.35,2.83,15.68,2.58,10.91-.38,13.76-5.88,23.17-5.68,9.12.2,13,5.52,14.95,4.65,5.8-2.6-20.35-53.78-51.58-53.13C1756.85,36.44,1752.11,39,1742.86,44Z"/><path class="cls-2" d="M1745,27.06c-26.35,14.47-41.19,35.3-36.33,38.27,2.6,1.58,8.92-3,20.4-1.32,4.68.71,4.32,1.59,8.92,2.2,9.24,1.22,12.31-2.16,22.32-1.76,7.79.31,7.12,2.42,13.37,2.2,9.36-.32,11.74-5,19.77-4.84,7.79.17,11.08,4.7,12.75,4,5-2.22-17.36-45.86-44-45.31C1756.91,20.57,1752.87,22.73,1745,27.06Z"/><path class="cls-3" d="M1745,6.61c-26.35,14.47-41.19,35.3-36.33,38.28,2.6,1.58,8.92-3,20.4-1.32,4.68.7,4.32,1.59,8.92,2.2,9.24,1.22,12.31-2.16,22.32-1.76,7.79.31,7.12,2.41,13.37,2.2,9.36-.33,11.74-5,19.77-4.84,7.79.17,11.08,4.7,12.75,4,5-2.26-17.36-45.91-44-45.36C1756.91.13,1752.87,2.29,1745,6.61Z"/><path class="cls-4" d="M1950.72,121.73c-30.91,17-48.32,41.39-42.6,44.88,3,1.85,10.44-3.56,23.91-1.55,5.58.83,5.07,1.86,10.47,2.58,10.92,1.43,14.44-2.53,26.16-2.07,9.13.37,8.35,2.84,15.68,2.58,10.91-.37,13.76-5.88,23.18-5.67,9.12.2,13,5.51,15,4.64,5.79-2.6-20.36-53.78-51.58-53.13C1964.7,114.12,1960,116.66,1950.72,121.73Z"/><path class="cls-2" d="M1952.84,104.74c-26.36,14.47-41.2,35.3-36.32,38.28,2.59,1.58,8.9-3,20.39-1.32,4.75.7,4.32,1.59,8.91,2.2,9.25,1.22,12.32-2.16,22.33-1.76,7.79.31,7.12,2.41,13.37,2.2,9.35-.33,11.74-5,19.76-4.84,7.8.17,11.09,4.7,12.75,4,5-2.22-17.36-45.87-44-45.31C1964.76,98.25,1960.73,100.42,1952.84,104.74Z"/><path class="cls-3" d="M1952.84,84.3c-26.36,14.47-41.2,35.3-36.32,38.27,2.59,1.58,8.9-3,20.39-1.32,4.75.71,4.32,1.59,8.91,2.2,9.25,1.22,12.32-2.16,22.33-1.76,7.79.31,7.12,2.42,13.37,2.2,9.35-.32,11.74-5,19.76-4.84,7.8.17,11.09,4.7,12.75,4,5-2.22-17.36-45.86-44-45.31C1964.76,77.81,1960.73,80,1952.84,84.3Z"/><path class="cls-4" d="M2108.41,245.69c-30.91,17-48.32,41.39-42.6,44.88,3.12,1.85,10.45-3.56,23.91-1.55,5.58.83,5.07,1.86,10.48,2.58,10.91,1.43,14.43-2.53,26.15-2.07,9.14.37,8.36,2.84,15.7,2.58,10.91-.37,13.75-5.88,23.16-5.67,9.12.2,13,5.51,14.95,4.64,5.8-2.6-20.36-53.77-51.56-53.12C2122.4,238.08,2117.66,240.62,2108.41,245.69Z"/><path class="cls-2" d="M2110.53,228.7c-26.35,14.47-41.19,35.3-36.31,38.28,2.58,1.58,8.9-3,20.38-1.32,4.68.7,4.32,1.59,8.93,2.2,9.25,1.22,12.3-2.16,22.31-1.76,7.79.31,7.12,2.41,13.37,2.2,9.36-.33,11.74-5,19.77-4.84,7.79.17,11.08,4.7,12.75,4,5-2.22-17.37-45.87-44-45.31C2122.47,222.22,2118.42,224.38,2110.53,228.7Z"/><path class="cls-3" d="M2110.53,208.26c-26.35,14.47-41.19,35.3-36.31,38.27,2.58,1.58,8.9-3,20.38-1.32,4.68.71,4.32,1.59,8.93,2.2,9.25,1.22,12.3-2.16,22.31-1.76,7.79.31,7.12,2.42,13.37,2.2,9.36-.32,11.74-5,19.77-4.84,7.79.17,11.08,4.7,12.75,4,5-2.22-17.37-45.86-44-45.31C2122.47,201.77,2118.42,203.93,2110.53,208.26Z"/><path class="cls-4" d="M1541.4,143.15c-30.91,17-48.32,41.39-42.6,44.87,3.12,1.86,10.45-3.55,23.93-1.54,5.56.82,5,1.86,10.46,2.57,10.83,1.44,14.43-2.52,26.15-2.06,9.15.37,8.36,2.83,15.7,2.58,10.91-.38,13.75-5.88,23.16-5.67,9.12.2,13,5.51,15,4.64,5.81-2.6-20.34-53.78-51.56-53.13C1555.38,135.54,1550.64,138.08,1541.4,143.15Z"/><path class="cls-2" d="M1543.54,126.16c-26.38,14.47-41.2,35.3-36.34,38.27,2.59,1.59,8.9-3,20.39-1.32,4.68.71,4.32,1.59,8.93,2.2,9.25,1.23,12.32-2.15,22.31-1.76,7.79.31,7.12,2.42,13.39,2.2,9.35-.32,11.72-5,19.75-4.84,7.79.18,11.09,4.71,12.75,4,5-2.21-17.35-45.86-44-45.31C1555.46,119.67,1551.41,121.84,1543.54,126.16Z"/><path class="cls-3" d="M1543.54,105.72c-26.38,14.47-41.2,35.29-36.34,38.29,2.59,1.58,8.9-3,20.39-1.32,4.68.71,4.32,1.59,8.93,2.2,9.25,1.22,12.32-2.16,22.31-1.76,7.79.31,7.12,2.41,13.39,2.2,9.35-.32,11.72-5,19.75-4.84,7.79.17,11.09,4.7,12.75,4,5-2.22-17.35-45.87-44-45.31C1555.46,99.23,1551.41,101.39,1543.54,105.72Z"/></g></g></g></g></svg>