<svg xmlns="http://www.w3.org/2000/svg" xmlns:xlink="http://www.w3.org/1999/xlink" viewBox="0 0 106.48 112.78"><defs><style>.cls-1{fill:#1a1a1a;}.cls-2{isolation:isolate;}.cls-3{clip-path:url(#clip-path);}.cls-4{clip-path:url(#clip-path-2);}.cls-5{clip-path:url(#clip-path-3);}.cls-6{clip-path:url(#clip-path-4);}.cls-7{clip-path:url(#clip-path-5);}.cls-8{clip-path:url(#clip-path-6);}.cls-9{clip-path:url(#clip-path-7);}.cls-10{clip-path:url(#clip-path-8);}.cls-11{fill:#fff;}.cls-12{clip-path:url(#clip-path-9);}.cls-13{clip-path:url(#clip-path-10);}</style><clipPath id="clip-path"><path class="cls-1" d="M0,14.28,3.53.73s0,.06,0,.09V1s0,.07,0,.1L0,14.66s0-.07,0-.1v-.1a.28.28,0,0,1,0-.09A.29.29,0,0,1,0,14.28Z"/></clipPath><clipPath id="clip-path-2"><path class="cls-1" d="M106.35,51.3,98.55,63a.47.47,0,0,1-.09.12l-.11.1-.13.08a.94.94,0,0,1-.15.06.16.16,0,0,1-.09,0l-.11,0h-.21l7.77-11.71h.12l.11,0,.1,0,.1,0,.15-.06a.57.57,0,0,0,.13-.08l.12-.09Z"/></clipPath><clipPath id="clip-path-3"><path class="cls-1" d="M58.78,62.92l6.53-12.53a.64.64,0,0,1,.13-.19,1,1,0,0,1,.18-.17,1.48,1.48,0,0,1,.21-.13,1.14,1.14,0,0,1,.26-.09l.11,0,.12,0,.12,0h.13L60,62.24H59.9l-.12,0-.12,0-.11,0a1.09,1.09,0,0,0-.25.1l-.21.13-.18.17A1.27,1.27,0,0,0,58.78,62.92Z"/></clipPath><clipPath id="clip-path-4"><path class="cls-1" d="M58.78,62.92q3.27-6.26,6.53-12.53l0,0v0l0,.05a.06.06,0,0,0,0,0,1.12,1.12,0,0,0,0,.41,1.35,1.35,0,0,0,.1.42,1.94,1.94,0,0,0,.22.43,3.24,3.24,0,0,0,.35.42L59.28,64.76a2.34,2.34,0,0,1-.32-.4,2.13,2.13,0,0,1-.21-.43,1.67,1.67,0,0,1-.09-.42,1.4,1.4,0,0,1,.05-.41l0,0V63s0,0,0,0Z"/></clipPath><clipPath id="clip-path-5"><path class="cls-1" d="M50.14,59.54,44,72.38a2.73,2.73,0,0,0-.44-.39,2.84,2.84,0,0,0-.5-.32,3.66,3.66,0,0,0-.55-.21,2.75,2.75,0,0,0-.57-.12h-.52l-.24,0a.86.86,0,0,0-.23.06l-.24.09-.21.13a.9.9,0,0,0-.19.15,1.29,1.29,0,0,0-.16.17l6-12.92a1.29,1.29,0,0,1,.16-.17c.06-.06.13-.1.19-.15l.22-.12.25-.09.24-.05a1,1,0,0,1,.25,0h.26l.28,0a2.94,2.94,0,0,1,.59.12,3.76,3.76,0,0,1,1.11.55A3.54,3.54,0,0,1,50.14,59.54Z"/></clipPath><clipPath id="clip-path-6"><path class="cls-1" d="M104.31,88,95.47,99.71l-.06.08a.46.46,0,0,1-.07.07l-.07.07-.09,0L104,88.31l.08-.06.08-.06a.46.46,0,0,1,.07-.07Z"/></clipPath><clipPath id="clip-path-7"><path class="cls-1" d="M86,100.6l-8.53,11.86a3.78,3.78,0,0,1-.48.2,2.41,2.41,0,0,1-.43.1,3,3,0,0,1-.42,0,3,3,0,0,1-.42-.06l8.47-11.89a3.35,3.35,0,0,0,.44.07,2.08,2.08,0,0,0,.43,0,2.39,2.39,0,0,0,.45-.09A3.89,3.89,0,0,0,86,100.6Z"/></clipPath><clipPath id="clip-path-8"><path class="cls-1" d="M84.16,100.83l-8.47,11.89a3.06,3.06,0,0,1-.48-.17,2.88,2.88,0,0,1-.46-.24,3.36,3.36,0,0,1-.43-.31,3.41,3.41,0,0,1-.39-.37L82.3,99.7a5,5,0,0,0,.41.38,2.91,2.91,0,0,0,.46.32,3.29,3.29,0,0,0,.49.26A3,3,0,0,0,84.16,100.83Z"/></clipPath><clipPath id="clip-path-9"><path class="cls-1" d="M27.44,93.57l-5.92,13a2.23,2.23,0,0,1-.19.24,2.31,2.31,0,0,1-.24.2,1.45,1.45,0,0,1-.26.17l-.29.14a3.06,3.06,0,0,1-.43.13,2.5,2.5,0,0,1-.47,0,2.72,2.72,0,0,1-.49,0,4.91,4.91,0,0,1-.5-.1l5.8-13a4.87,4.87,0,0,0,.52.12,4.36,4.36,0,0,0,.51,0,2.63,2.63,0,0,0,.49,0,3.45,3.45,0,0,0,.46-.12l.29-.13A2.61,2.61,0,0,0,27,94a2.25,2.25,0,0,0,.24-.21A2.2,2.2,0,0,0,27.44,93.57Z"/></clipPath><clipPath id="clip-path-10"><path class="cls-1" d="M24.45,94.33l-5.8,13a3.32,3.32,0,0,1-.8-.34,3,3,0,0,1-1.15-1.15,2.4,2.4,0,0,1-.25-.74L22.09,92a2.58,2.58,0,0,0,.28.76,3,3,0,0,0,.52.66,3.75,3.75,0,0,0,.71.53A3.38,3.38,0,0,0,24.45,94.33Z"/></clipPath></defs><g id="レイヤー_2" data-name="レイヤー 2"><g id="Layer_1" data-name="Layer 1"><g class="cls-2"><path class="cls-1" d="M0,14.28,3.53.73s0,.06,0,.09V1s0,.07,0,.1L0,14.66s0-.07,0-.1v-.1a.28.28,0,0,1,0-.09A.29.29,0,0,1,0,14.28Z"/><g class="cls-3"><g class="cls-2"><path class="cls-1" d="M3.53,1.11,0,14.66s0-.07,0-.1v-.1a.28.28,0,0,1,0-.09.29.29,0,0,1,0-.09L3.53.73s0,.06,0,.09V1s0,.07,0,.1"/></g></g><path class="cls-1" d="M106.35,51.3,98.55,63a.47.47,0,0,1-.09.12l-.11.1-.13.08a.94.94,0,0,1-.15.06.16.16,0,0,1-.09,0l-.11,0h-.21l7.77-11.71h.12l.11,0,.1,0,.1,0,.15-.06a.57.57,0,0,0,.13-.08l.12-.09Z"/><g class="cls-4"><g class="cls-2"><path class="cls-1" d="M106.35,51.3,98.55,63a.21.21,0,0,1,0,.06l0,.06-.06,0,0,0,7.79-11.69.06,0,.05-.05,0,0,0-.06"/><path class="cls-1" d="M106.15,51.51,98.36,63.2l-.07,0-.07,0-.07,0s-.05,0-.08,0l-.08,0-.08,0-.09,0h-.09l7.78-11.71h.09l.09,0h.09l.08,0,.08,0,.07,0,.07,0,.07,0"/><path class="cls-1" d="M105.51,51.72,97.73,63.43h-.07l7.77-11.71h.08"/></g></g><polygon class="cls-1" points="98.41 48.61 90.92 60.46 4.7 17.67 8.42 4.2 98.41 48.61"/><polygon class="cls-1" points="98.41 48.61 90.92 60.46 60.02 62.24 66.57 49.73 98.41 48.61"/><polygon class="cls-1" points="105.44 51.72 97.66 63.43 64.64 65.56 71.44 53.15 105.44 51.72"/><path class="cls-1" d="M58.78,62.92l6.53-12.53a.64.64,0,0,1,.13-.19,1,1,0,0,1,.18-.17,1.48,1.48,0,0,1,.21-.13,1.14,1.14,0,0,1,.26-.09l.11,0,.12,0,.12,0h.13L60,62.24H59.9l-.12,0-.12,0-.11,0a1.09,1.09,0,0,0-.25.1l-.21.13-.18.17A1.27,1.27,0,0,0,58.78,62.92Z"/><g class="cls-5"><g class="cls-2"><path class="cls-1" d="M66.57,49.73,60,62.24H60L66.5,49.74h.07"/><path class="cls-1" d="M66.5,49.74,60,62.25h-.11l-.1,0-.1,0-.1,0-.1,0-.09,0-.09,0-.08.05L65.71,50l.09,0,.09,0,.1,0,.1,0,.1,0,.1,0h.21"/><path class="cls-1" d="M65.71,50,59.19,62.49l-.09.07-.08.06-.08.08-.07.08L65.4,50.24l.06-.07.08-.08.08-.06.09-.06"/><path class="cls-1" d="M65.4,50.24,58.87,62.78l0,0,0,0,0,0,0,0,6.53-12.53,0,0,0,0,0,0,0,0"/></g></g><path class="cls-1" d="M58.78,62.92q3.27-6.26,6.53-12.53l0,0v0l0,.05a.06.06,0,0,0,0,0,1.12,1.12,0,0,0,0,.41,1.35,1.35,0,0,0,.1.42,1.94,1.94,0,0,0,.22.43,3.24,3.24,0,0,0,.35.42L59.28,64.76a2.34,2.34,0,0,1-.32-.4,2.13,2.13,0,0,1-.21-.43,1.67,1.67,0,0,1-.09-.42,1.4,1.4,0,0,1,.05-.41l0,0V63s0,0,0,0Z"/><g class="cls-6"><g class="cls-2"><path class="cls-1" d="M65.87,52.24,59.28,64.76a2.34,2.34,0,0,1-.32-.4,2.13,2.13,0,0,1-.21-.43,1.67,1.67,0,0,1-.09-.42,1.4,1.4,0,0,1,.05-.41l0,0V63s0,0,0,0l0,0,6.53-12.53,0,0v0l0,.05a.06.06,0,0,0,0,0,1.12,1.12,0,0,0,0,.41,1.35,1.35,0,0,0,.1.42,1.94,1.94,0,0,0,.22.43,3.24,3.24,0,0,0,.35.42"/></g></g><path class="cls-1" d="M50.14,59.54,44,72.38a2.73,2.73,0,0,0-.44-.39,2.84,2.84,0,0,0-.5-.32,3.66,3.66,0,0,0-.55-.21,2.75,2.75,0,0,0-.57-.12h-.52l-.24,0a.86.86,0,0,0-.23.06l-.24.09-.21.13a.9.9,0,0,0-.19.15,1.29,1.29,0,0,0-.16.17l6-12.92a1.29,1.29,0,0,1,.16-.17c.06-.06.13-.1.19-.15l.22-.12.25-.09.24-.05a1,1,0,0,1,.25,0h.26l.28,0a2.94,2.94,0,0,1,.59.12,3.76,3.76,0,0,1,1.11.55A3.54,3.54,0,0,1,50.14,59.54Z"/><g class="cls-7"><g class="cls-2"><path class="cls-1" d="M50.14,59.54,44,72.38l0,0,0,0,0,0,0,0L50,59.4l0,0,0,0,0,0,0,0"/><path class="cls-1" d="M50,59.4,43.81,72.24a.52.52,0,0,0-.11-.1L43.58,72l-.13-.09-.13-.09L49.48,59l.14.09.13.1.13.1.12.11"/><path class="cls-1" d="M49.48,59,43.32,71.85l-.13-.08-.14-.08a.61.61,0,0,1-.14-.07l-.15-.06L48.9,58.69l.15.07.15.07.14.08.14.09"/><path class="cls-1" d="M48.9,58.69,42.76,71.56l-.21-.08-.22-.06-.22,0-.22,0h-.13l6.09-12.88H48l.23,0,.23,0,.22.07.23.08"/><path class="cls-1" d="M47.85,58.45,41.76,71.33h-.4l6.08-12.89h.41"/><path class="cls-1" d="M47.44,58.45,41.36,71.34l-.12,0-.12,0-.11,0-.11,0-.11,0-.1,0-.1,0-.1.06,6-12.92.1-.05.1,0,.11,0,.11,0,.11,0,.12,0,.12,0h.13"/><path class="cls-1" d="M46.54,58.71l-6,12.92-.1.06-.09.08-.09.08-.07.09,6-12.92.08-.09.09-.08.1-.07.1-.07"/><polyline class="cls-1" points="46.17 59.02 40.13 71.94 40.13 71.95 40.12 71.96 40.11 71.97 40.1 71.98 46.14 59.06 46.15 59.05 46.16 59.04 46.17 59.03 46.17 59.02"/></g></g><polygon class="cls-1" points="98.8 85.59 90.22 97.38 59.28 64.76 65.87 52.23 98.8 85.59"/><path class="cls-1" d="M104.31,88,95.47,99.71l-.06.08a.46.46,0,0,1-.07.07l-.07.07-.09,0L104,88.31l.08-.06.08-.06a.46.46,0,0,1,.07-.07Z"/><g class="cls-8"><g class="cls-2"><path class="cls-1" d="M104.31,88,95.47,99.71l0,0,0,0a.08.08,0,0,1,0,0l0,0,8.83-11.68,0,0,0,0,0,0,0,0"/><path class="cls-1" d="M104.17,88.19,95.34,99.87l0,0,0,0,0,0,0,0L104,88.31l0,0,0,0,0,0,0,0"/></g></g><polygon class="cls-1" points="98.8 85.59 90.22 97.38 75.53 107.35 83.85 95.39 98.8 85.59"/><polygon class="cls-1" points="83.85 95.39 75.53 107.35 43.95 72.38 50.14 59.54 83.85 95.39"/><polygon class="cls-1" points="104.02 88.31 95.18 99.98 77.44 112.46 85.97 100.6 104.02 88.31"/><polygon class="cls-1" points="82.3 99.7 73.93 111.63 42.73 76.72 48.97 63.87 82.3 99.7"/><path class="cls-1" d="M86,100.6l-8.53,11.86a3.78,3.78,0,0,1-.48.2,2.41,2.41,0,0,1-.43.1,3,3,0,0,1-.42,0,3,3,0,0,1-.42-.06l8.47-11.89a3.35,3.35,0,0,0,.44.07,2.08,2.08,0,0,0,.43,0,2.39,2.39,0,0,0,.45-.09A3.89,3.89,0,0,0,86,100.6Z"/><g class="cls-9"><g class="cls-2"><path class="cls-1" d="M86,100.6l-8.53,11.86-.21.1-.2.08-.19.06-.18,0,8.5-11.87.2,0a.7.7,0,0,0,.19-.06l.21-.07.21-.1"/><path class="cls-1" d="M85.16,100.87l-8.5,11.87-.1,0h-.3l8.5-11.87h.3l.1,0"/><path class="cls-1" d="M84.76,100.91l-8.5,11.87H76l-.14,0-.15,0,8.47-11.89.15,0,.15,0h.3"/></g></g><path class="cls-1" d="M84.16,100.83l-8.47,11.89a3.06,3.06,0,0,1-.48-.17,2.88,2.88,0,0,1-.46-.24,3.36,3.36,0,0,1-.43-.31,3.41,3.41,0,0,1-.39-.37L82.3,99.7a5,5,0,0,0,.41.38,2.91,2.91,0,0,0,.46.32,3.29,3.29,0,0,0,.49.26A3,3,0,0,0,84.16,100.83Z"/><g class="cls-10"><g class="cls-2"><path class="cls-1" d="M84.16,100.83l-8.47,11.89-.1,0-.1,0-.11,0-.1,0,8.45-11.89.11,0,.11,0,.11,0,.1,0"/><path class="cls-1" d="M83.73,100.69l-8.45,11.89-.16-.07-.16-.07-.15-.09-.15-.1,8.41-11.91.16.1.17.09.16.08.17.08"/><path class="cls-1" d="M83.07,100.34l-8.41,11.91-.15-.1-.15-.11-.14-.12-.14-.13,8.38-11.93.15.13.15.13.15.11.16.11"/><path class="cls-1" d="M82.46,99.86l-8.38,11.93,0,0,0,0,0,0,0,0L82.3,99.7l0,0,0,0,0,0,0,0"/></g></g><polygon class="cls-1" points="46.14 59.06 40.1 71.98 20.56 98.44 26.29 85.35 46.14 59.06"/><polygon class="cls-1" points="26.29 85.35 20.56 98.44 4.7 17.67 8.42 4.2 26.29 85.35"/><path class="cls-11" d="M8.42,4.2l90,44.41L66.57,49.73h-.13l-.12,0-.12,0-.11,0a1.34,1.34,0,0,0-.3.12,1.07,1.07,0,0,0-.25.16,1.3,1.3,0,0,0-.19.22.8.8,0,0,0-.11.25,1.12,1.12,0,0,0,0,.41,1.35,1.35,0,0,0,.1.42,1.94,1.94,0,0,0,.22.43,3.24,3.24,0,0,0,.35.42L98.8,85.59l-15,9.8L50.14,59.54a3.54,3.54,0,0,0-.45-.41,3.76,3.76,0,0,0-1.11-.55,2.94,2.94,0,0,0-.59-.12l-.28,0h-.26a1,1,0,0,0-.25,0l-.24.05-.25.09-.22.12c-.06,0-.13.09-.19.15a1.29,1.29,0,0,0-.16.17L26.29,85.35Z"/><polygon class="cls-1" points="48.97 63.87 42.73 76.72 21.52 106.52 27.44 93.57 48.97 63.87"/><polygon class="cls-1" points="22.09 92.03 16.45 105.1 0.02 14.66 3.53 1.11 22.09 92.03"/><path class="cls-1" d="M27.44,93.57l-5.92,13a2.23,2.23,0,0,1-.19.24,2.31,2.31,0,0,1-.24.2,1.45,1.45,0,0,1-.26.17l-.29.14a3.06,3.06,0,0,1-.43.13,2.5,2.5,0,0,1-.47,0,2.72,2.72,0,0,1-.49,0,4.91,4.91,0,0,1-.5-.1l5.8-13a4.87,4.87,0,0,0,.52.12,4.36,4.36,0,0,0,.51,0,2.63,2.63,0,0,0,.49,0,3.45,3.45,0,0,0,.46-.12l.29-.13A2.61,2.61,0,0,0,27,94a2.25,2.25,0,0,0,.24-.21A2.2,2.2,0,0,0,27.44,93.57Z"/><g class="cls-12"><g class="cls-2"><path class="cls-1" d="M27.44,93.57l-5.92,13v0h0L27.4,93.62h0v0h0"/><path class="cls-1" d="M27.4,93.62l-5.91,12.95-.1.12-.11.12-.12.1L21,107l5.9-13,.13-.1.12-.1.11-.11.1-.12"/><path class="cls-1" d="M26.94,94.05,21,107l-.12.08-.12.07-.13.06-.13.06-.13,0-.13,0-.14,0-.14,0,5.86-13,.15,0,.14,0,.14,0,.14,0,.13,0,.13-.07.13-.07.12-.07"/><path class="cls-1" d="M25.86,94.45l-5.86,13h-.11l-.12,0h-.23l5.84-13h.36l.12,0"/><path class="cls-1" d="M25.38,94.48l-5.84,13h-.22l-.22,0-.22,0-.23,0,5.8-13a1,1,0,0,0,.23.06l.24,0,.23,0h.23"/></g></g><path class="cls-1" d="M24.45,94.33l-5.8,13a3.32,3.32,0,0,1-.8-.34,3,3,0,0,1-1.15-1.15,2.4,2.4,0,0,1-.25-.74L22.09,92a2.58,2.58,0,0,0,.28.76,3,3,0,0,0,.52.66,3.75,3.75,0,0,0,.71.53A3.38,3.38,0,0,0,24.45,94.33Z"/><g class="cls-13"><g class="cls-2"><path class="cls-1" d="M24.45,94.33l-5.8,13-.09,0-.1,0-.09,0-.09,0,5.77-13,.1,0,.1,0,.1,0,.1,0"/><path class="cls-1" d="M24.05,94.2l-5.77,13-.17-.07-.16-.08-.16-.09-.15-.1,5.74-13,.16.1.16.09.17.08.18.08"/><path class="cls-1" d="M23.38,93.85l-5.74,13-.14-.1-.14-.11-.13-.12-.12-.12,5.7-13,.13.13.14.12.14.12.16.11"/><path class="cls-1" d="M22.81,93.37l-5.7,13a2.25,2.25,0,0,1-.24-.3,3.21,3.21,0,0,1-.19-.31,2.52,2.52,0,0,1-.15-.34c0-.12-.06-.24-.08-.36L22.09,92a1.89,1.89,0,0,0,.1.36,2.21,2.21,0,0,0,.16.35,3,3,0,0,0,.21.33,3.31,3.31,0,0,0,.25.3"/></g></g><path class="cls-1" d="M104.8,48.77a4.6,4.6,0,0,1,.6.37,5.26,5.26,0,0,1,.49.44,3.24,3.24,0,0,1,.36.49,2,2,0,0,1,.2.49,1,1,0,0,1,0,.37.85.85,0,0,1-.09.32.79.79,0,0,1-.21.24,1,1,0,0,1-.31.16l-.1,0-.1,0-.11,0h-.12l-34,1.43,32.22,32.31a3.9,3.9,0,0,1,.33.38,4.68,4.68,0,0,1,.27.4c.07.14.13.28.18.41a1.56,1.56,0,0,1,.1.4,1.72,1.72,0,0,1,0,.39,1.69,1.69,0,0,1-.09.34,1.14,1.14,0,0,1-.18.3,1.16,1.16,0,0,1-.26.23L86,100.6a3.89,3.89,0,0,1-.49.2,2.39,2.39,0,0,1-.45.09,2.08,2.08,0,0,1-.43,0,3.35,3.35,0,0,1-.44-.07,3,3,0,0,1-.5-.17,3.29,3.29,0,0,1-.49-.26,2.91,2.91,0,0,1-.46-.32,5,5,0,0,1-.41-.38L49,63.87,27.44,93.57a2.2,2.2,0,0,1-.2.23A2.25,2.25,0,0,1,27,94a2.61,2.61,0,0,1-.28.17l-.29.13a3.45,3.45,0,0,1-.46.12,2.63,2.63,0,0,1-.49,0,4.36,4.36,0,0,1-.51,0,4.87,4.87,0,0,1-.52-.12A3.38,3.38,0,0,1,23.6,94a3.75,3.75,0,0,1-.71-.53,3,3,0,0,1-.52-.66,2.58,2.58,0,0,1-.28-.76L3.53,1.11a.73.73,0,0,1,0-.36A.64.64,0,0,1,3.68.44,1.11,1.11,0,0,1,4,.2,1.55,1.55,0,0,1,4.42.05a3.48,3.48,0,0,1,.63,0,5.46,5.46,0,0,1,.58,0,4.56,4.56,0,0,1,.53.13,4.19,4.19,0,0,1,.49.2Zm-38.23,1,31.84-1.12L8.42,4.2,26.29,85.35,46.14,59.06a1.29,1.29,0,0,1,.16-.17c.06-.06.13-.1.19-.15l.22-.12.25-.09.24-.05a1,1,0,0,1,.25,0h.26l.28,0a2.94,2.94,0,0,1,.59.12,3.76,3.76,0,0,1,1.11.55,3.54,3.54,0,0,1,.45.41L83.85,95.39l15-9.8L65.87,52.24a3.24,3.24,0,0,1-.35-.42,1.94,1.94,0,0,1-.22-.43,1.35,1.35,0,0,1-.1-.42,1.12,1.12,0,0,1,0-.41.8.8,0,0,1,.11-.25,1.3,1.3,0,0,1,.19-.22,1.07,1.07,0,0,1,.25-.16,1.34,1.34,0,0,1,.3-.12l.11,0,.12,0,.12,0h.13"/></g></g></g></svg>