<svg xmlns="http://www.w3.org/2000/svg" xmlns:xlink="http://www.w3.org/1999/xlink" viewBox="0 0 68.58 68.58"><defs><style>.cls-1{fill:url(#linear-gradient);}.cls-2{fill:#f8a942;}.cls-3{fill:#f69423;opacity:0.3;}.cls-4{fill:#ffc892;}.cls-5{fill:url(#linear-gradient-2);}.cls-6{fill:url(#linear-gradient-3);}.cls-7{fill:#ffcd92;}</style><linearGradient id="linear-gradient" x1="34.53" y1="65.1" x2="33.99" y2="2.03" gradientUnits="userSpaceOnUse"><stop offset="0" stop-color="#7c2900"/><stop offset="1" stop-color="#ffc05d"/></linearGradient><linearGradient id="linear-gradient-2" x1="42.06" y1="45.72" x2="42.06" y2="25.68" gradientUnits="userSpaceOnUse"><stop offset="0" stop-color="#6d2900"/><stop offset="1" stop-color="#e98800"/></linearGradient><linearGradient id="linear-gradient-3" x1="28.19" y1="45.72" x2="28.19" y2="25.68" xlink:href="#linear-gradient-2"/></defs><g id="レイヤー_2" data-name="レイヤー 2"><g id="Layer_1" data-name="Layer 1"><path class="cls-1" d="M67.55,25.94a15.93,15.93,0,0,0,0-2.16c-.15-1.83-2.25-5.15-4.46-8.16a35.4,35.4,0,0,0-4.11-5.16s0-.06-.08-.08l-.07-.07a34.21,34.21,0,0,0-42.72-5,10.07,10.07,0,0,1,1.09,2.94c-.14.22-1.56-.82-2.9-1.86C11.52,7.61,9.18,9,8.1,10.38a24.47,24.47,0,0,0-3.92,7.5A34,34,0,0,0,0,34.29c0,.78,0,1.54.09,2.31A14.62,14.62,0,0,0,0,38.13C0,42,0,45,2.14,48.28S5,55.05,6.61,56.54a28.2,28.2,0,0,0,4.73,3.22,34.28,34.28,0,0,0,31.05,7.85l.08,0,.12,0A34.16,34.16,0,0,0,58,59c1.11-.59,2.19-1.12,3.13-1.54C64,56.24,64,53,65.58,48.32v0a34.27,34.27,0,0,0,2-22.34Z"/><path class="cls-2" d="M14.82,9.12l5,2.79s-1.26-4.15-.54-4.78,3.34-1,6.59-1.26,7.67-2,12.9,0S50,9.12,52.54,12.28s7.4,7.85,8.57,10.55a41.22,41.22,0,0,1,2.62,11.46c.27,3.84-1.36,7.9-1.63,10.6s-.81,5.55-2.84,7.45a55.56,55.56,0,0,1-6.77,5c-2.57,1.76-3.38,2.7-6.63,3.79s-4.47,1.76-8.12,2.3-5.28-4.87-5.28-4.87l-1.08,4.91a63.78,63.78,0,0,1-9.48-2.61C17.71,59.24,14.73,58.43,13,56s-3-2.7-4.6-6-3.12-3.93-3.52-7.18.13-7.4,0-8.57S5,32,4.69,30s1.51-7.18,3.68-9.48,2.84-4.87,3.52-7A13.06,13.06,0,0,1,14.82,9.12Z"/><path class="cls-3" d="M14.46,35.42c1.08-6.77,1.49-5.14.67-12.18-.43-3.78-.32-9.67-.42-14a14.45,14.45,0,0,0-2.46,3.38c.05,1.07.12,2.18.18,3.32.27,5.41-2.3,9.34-2.44,5.55,0-.84,0-2,0-3.18a12.13,12.13,0,0,1-1.64,2.23,9.41,9.41,0,0,0-.76.94C8,28.75,10.5,28.75,10,36.1A130.89,130.89,0,0,1,8.07,49.48l.3.56c1.62,3.25,2.84,3.52,4.6,6,0,.06.09.1.13.16-.13-1.71-.27-3.53-.27-5.16C12.83,44.49,13.37,42.19,14.46,35.42Z"/><path class="cls-3" d="M23.25,41.38c1.76-6-.54-10.29-1.89-14.89s-1.35-4.06-1.76-2S18.52,40.16,17,45a22,22,0,0,0,.18,14c1.29.56,2.77,1.09,4.46,1.74a39.89,39.89,0,0,1-1.12-7.22C20.28,46.66,21.5,47.33,23.25,41.38Z"/><path class="cls-3" d="M28.78,5.42c.38,1.25.72,2.7,1.38,4.42C31.51,13.36,31.81,22,32.34,20.4s1.46-8.81,1.87-12.46a25.6,25.6,0,0,1,.63-3A23.27,23.27,0,0,0,28.78,5.42Z"/><path class="cls-3" d="M24.47,23.92c3,5.27,4.74,8.39,4.74,11.91s-2,10.55-2,11,4.33-7,5-11S31.11,28.26,29.48,24,26.1,13.22,26.1,11.46c0-.83-.18-3.35-.19-5.6h-.08c-3.25.27-5.87.63-6.59,1.26a1.41,1.41,0,0,0-.22,1,17.1,17.1,0,0,0,.91,2.63C21.9,15.12,21.5,18.64,24.47,23.92Z"/><path class="cls-3" d="M41,56.13c2.57-2.71,2.57-2.71,2.43-6.09s-.27-4.6-.67-8.12a33.26,33.26,0,0,1-.41-6.64c0-4.06,1.62-3.78,3.79-6.36s.27-4.06-2-11.23-1-6.63-.18-10c-1.34-.45-2.72-.9-4.07-1.38a31.07,31.07,0,0,0-1.2,6.39c0,3.25-.68,4.06-3.22,8.26s-.85,4.87-1.26,8.25,1.77,3.25,3,5.55.54,4.47,0,10.15-3.12,6.5-5.69,10.83a9.3,9.3,0,0,0-1.25,7.53l1.12.23,1.08-4.91s1.42,4.73,4.6,4.9C36.11,60.93,38.41,58.84,41,56.13ZM37.6,24.46c1.36-3,2.44-5.42,3.52-4.2s3.66,2.84,1.76,6a14.52,14.52,0,0,1-4.37,4.6C37.6,28.79,36.25,27.43,37.6,24.46Z"/><path class="cls-3" d="M53.3,34c1.36-5.36.54-5.19,1-11.95.28-4.73.5-5.63.37-7.32-.77-.87-1.49-1.69-2.08-2.43a8,8,0,0,0-1.65-1.51c-.12,3.59-.18,7.62.11,8.27.54,1.22,1.49,8.39,0,11.78s-2.84,4.33-3.92,8,1.35,6.64,1.08,11.78c-.21,4-.73,6.9-.46,9.84a29.27,29.27,0,0,0,4.79-3.07l1.9-1.29c-.66-3.06-2.46-6.85-3.66-12C49.25,37.72,52,39.35,53.3,34Z"/><path class="cls-3" d="M62.65,30.82c.14-.31.31-.6.43-.9a36.87,36.87,0,0,0-2-7.09,11.69,11.69,0,0,0-1.38-2.22,94.11,94.11,0,0,1-2.08,10.21c-2,7-2.56,5.14-3,8.39s2,5.82,3.92,11c.26.71.5,1.42.73,2.11,2-1.89,2.43-4.7,2.7-7.39a19.5,19.5,0,0,0,.28-2.1h0C62.29,38,59.91,36.91,62.65,30.82Z"/><path class="cls-4" d="M6,24.42c.21-.47,1.15-3.51,2-4.48A22.68,22.68,0,0,0,10.4,16c.67-1.36,1.35-3.86,1.82-4.54s2.71-2.77,2.71-2.77L19,11s.26-3.18.22-3.86,1.17-1,3.61-1.27,3.4-.67,4.67-.56,4.06-.67,5.21-.67a38.75,38.75,0,0,1,4.8.84S33.16,4.55,32.34,5a14.72,14.72,0,0,1-4.69,1.33,34,34,0,0,0-5.27.57,12.64,12.64,0,0,0-2.45.54c-.06.21,0,5.36,0,5.36s-2.36-1.57-3-2A6.41,6.41,0,0,0,14.32,10a12.69,12.69,0,0,0-2.07,2.64c-.09.48-.81,2.39-1.07,3.09s-1,1.92-1.17,2.6a11,11,0,0,1-1.64,2.23Z"/><rect class="cls-5" x="37.98" y="21.63" width="8.16" height="24.65" rx="2.91"/><rect class="cls-6" x="24.11" y="21.63" width="8.16" height="24.65" rx="2.91"/><rect class="cls-7" x="36.16" y="20.71" width="8.16" height="24.65" rx="2.91"/><rect class="cls-7" x="22.29" y="20.71" width="8.16" height="24.65" rx="2.91"/></g></g></svg>