<svg xmlns="http://www.w3.org/2000/svg" viewBox="0 0 50 41.76"><defs><style>.cls-1{fill:#a5adbe;}.cls-2{fill:#98a0ac;}.cls-3{fill:#b6b9bf;}.cls-4{fill:#979a9e;}</style></defs><g id="レイヤー_2" data-name="レイヤー 2"><g id="Background"><path class="cls-1" d="M1.12,24.4a6.78,6.78,0,0,1-.91-1.67,6.46,6.46,0,0,1-.15-2.06C.25,16,.56,11,3.41,7.36c2.27-2.94,5.81-4.57,9.21-6.08A4.87,4.87,0,0,1,13.84.87a4.35,4.35,0,0,1,1,0L39.19,2.94a1.93,1.93,0,0,1,.92.23,2,2,0,0,1,.53.6,162.73,162.73,0,0,1,9,15.41,2.48,2.48,0,0,1,.34,1,2.4,2.4,0,0,1-.34,1.12q-2,4.08-4.3,8a17.41,17.41,0,0,1-4.15,5.24,28.48,28.48,0,0,1-3.88,2.2,26.59,26.59,0,0,0-4.6,3.12,7.24,7.24,0,0,1-2.07,1.41,5.92,5.92,0,0,1-1.72.3,70.62,70.62,0,0,1-17.12-.83,6.79,6.79,0,0,1-2.77-.93c-2-1.43-2.53-5-3.52-7.12A58.26,58.26,0,0,0,1.12,24.4Z"/><path class="cls-2" d="M50,20.18a2.48,2.48,0,0,0-.34-1,162.73,162.73,0,0,0-9-15.41,2.74,2.74,0,0,0-.4-.5,17.83,17.83,0,0,1-6.43,6.22,37.78,37.78,0,0,1,5.61,8.58,14.23,14.23,0,0,1,1.9,5.05,14.17,14.17,0,0,1-1,5.59,2.55,2.55,0,0,1-.52,1.07,2.36,2.36,0,0,1-1.1.59c-1.49.46-3.07.61-4.56,1.07a5.87,5.87,0,0,0-3.68,2.7c-.67,1.33-.83,3.28-2.28,3.61a3.3,3.3,0,0,1-1.46-.12c-2.12-.46-4.31-.54-6.44-1a9.41,9.41,0,0,1-5.6-3,12.51,12.51,0,0,1-1.58-3.06Q11.31,26,9.47,21.45a31.87,31.87,0,0,0-9,1.65l-.12,0a8.8,8.8,0,0,0,.75,1.25,58.26,58.26,0,0,1,4.41,8.29c1,2.16,1.48,5.69,3.52,7.12a6.79,6.79,0,0,0,2.77.93,70.62,70.62,0,0,0,17.12.83,5.92,5.92,0,0,0,1.72-.3,7.24,7.24,0,0,0,2.07-1.41,26.59,26.59,0,0,1,4.6-3.12,28.48,28.48,0,0,0,3.88-2.2,17.41,17.41,0,0,0,4.15-5.24q2.31-3.91,4.3-8A2.4,2.4,0,0,0,50,20.18Z"/><path class="cls-3" d="M12.26,10.94a11.47,11.47,0,0,1,3.67-1.29,39.52,39.52,0,0,1,13.24-.56,13,13,0,0,0,5,.09,7.45,7.45,0,0,0,3.6-2.43,21.45,21.45,0,0,0,2.42-3.68L18.91.25a13.4,13.4,0,0,0-4.42-.1,13.13,13.13,0,0,0-4.31,2q-3.07,2-6.1,4A10.89,10.89,0,0,0,2.2,9.26c1-.34,3-1.52,4.12-1.39a9.38,9.38,0,0,1,3.27,1A19.6,19.6,0,0,1,12.26,10.94Z"/><path class="cls-4" d="M3.83,8.33a3.16,3.16,0,0,0-1.63.93,2.42,2.42,0,0,0-.2.28C.55,12,.19,16.7.19,16.7c-.44,5.92,0,6.33.22,6.39A.47.47,0,0,0,.79,23a35.71,35.71,0,0,1,3.66-.87,27.45,27.45,0,0,1,4.78-.71s.15,0,.21,0-.09-.61-.15-.73a10.79,10.79,0,0,1-.58-4.44A5.18,5.18,0,0,1,9.33,14c1-1.77,3-2.16,2.85-3,0-.13-.22-.31-.63-.67A10,10,0,0,0,9.64,8.89,7.13,7.13,0,0,0,7.45,8a6.34,6.34,0,0,0-1.67-.12A7,7,0,0,0,3.83,8.33Z"/></g></g></svg>