<svg xmlns="http://www.w3.org/2000/svg" viewBox="0 0 82.48 104.8"><defs><style>.cls-1{fill:#035636;}.cls-2{fill:#297556;}.cls-3{fill:#066040;}.cls-4{fill:#65a083;}.cls-5{fill:#8de2af;}.cls-6{fill:#51936c;}.cls-7{fill:#107a54;}.cls-8{fill:#55bf7f;}.cls-9{fill:#086642;}.cls-10{fill:#147a58;}.cls-11{fill:#6fc18c;}.cls-12{fill:#24916d;}.cls-13{fill:#58d088;}.cls-14{fill:#147259;}</style></defs><g id="レイヤー_2" data-name="レイヤー 2"><g id="Layer_1" data-name="Layer 1"><path class="cls-1" d="M62.3,67c-1.55-.6-3.07-1.35-4.62-2.07-1.53-1.59-3.73-2.54-5.52-3.82s-3.42-2.41-5-3.71-3.18-2-4.5-3.41c-2.56-2.84-8.19-1.58-10.83.62a35.16,35.16,0,0,0-4.62,4.67c-.36.43-.74.91-1.15,1.32v-.11a10,10,0,0,0-2.6,1.56c-1.3.8-2.62,1.6-4,2.33C17.29,65.57,15.23,67,13.08,68a12.79,12.79,0,0,0-5,3.67c-.76,1.07-3.39,5.1-.32,3.45,1.66-.9,3.22-2,4.91-2.89,1.16-.58,2.82-2,4.14-2-.9,1.48-2.89,3.27-3.2,5-.51,3,2.94-.56,3.77-.82a.92.92,0,0,1,.61,0l-.09.17c-.66,1.27-2.12,4.07-1.67,5.53.59,1.94,2.63-2.17,3.64-2.48,1.25-.37,1.61,4.61,2.72,5.31,1-.8,1.13-2.6,2.26-3.52,1.43-1.16.73,2.65,2.35,3.37s2-1,2.36-1.27c1.07-.77,1.45-2.48,2.66-3a21.29,21.29,0,0,0,1.17,4.78c.51-1.85,1.18-3.71,1.58-5.59a9.75,9.75,0,0,1,.65-2.41c.66-1.24,1-.82,1.56.18,1.21,2,1.14,4.28,2.83,6,.58.58,1.51,2.09,2.47,1.51s.21-2.71,0-3.63c-.25-1.29-.63-4.21,1.23-2.23.2.21.42,1,.74,1.07.78.2.35-.54.91-.73.87-.28,1,.42,1.48,1.27.78,1.52,2.15,3.57,4.2,2.51a4.19,4.19,0,0,0,1.68-2.36c.22-.69-.07-1.81.32-2.24,1.27.59,2.49,2,4,1.89,2.41-.21,1.76-2.2.48-3.42l-.34-.31c.36-.39.47-1.11,1.37-.92s4.62,3.35,3.83.46c-.47-1.71-2.62-3.3-3.66-4.68,1.31-.19,3.1,1.07,4.31,1.54,1.76.7,3.42,1.67,5.16,2.41,3.22,1.36.22-2.41-.64-3.41A12.9,12.9,0,0,0,62.3,67Z"/><path class="cls-1" d="M74.4,84.71a71.42,71.42,0,0,1-14.38-2c-4.81-1.18-9-3.77-13.5-5.76l.14.06c-1.22-.69-4.9-2.08-4,.66a10.86,10.86,0,0,1,.75,2.53,7.3,7.3,0,0,0,.28,2.41c.72,1.77.5,3.06.46,5.05-.13,5.78,2.86,16.81,4.55,16s-2.87-8.24-2.58-12c.09-1.19.29-6.49,2.2-6.31s2,3.07,1.6,4.44c-.32,1.18-3.67,4.59-2.32,5.19s3.93-2.05,3.27-4.24c1.55,3.92,2.51,8.25,4.3,12.14,2.18-1.25-1.23-7.07-1-9C54.7,95,55,96.9,56,97.7c-.3-3.43-2.44-6.64-2.19-10.16,1.29.71,1.73,2.52,2.28,3.86C56.67,93,57.4,94.49,58.1,96c.94,2.06.33,2.77,1.61,4.62.33.47,1,2.61,1.64,2.32s.58-2.52.34-3.1A15,15,0,0,0,59.56,96a14.39,14.39,0,0,1-1.42-4,15.64,15.64,0,0,1-1-3.22,25.33,25.33,0,0,1,4.32,5.35A35.84,35.84,0,0,1,63.8,98.3c.47.93,1.09,3.45,2.11,3.77,1.44-2.32-.58-4.64-1.34-6.95a11.89,11.89,0,0,0,1.63,2.65c.85-.93-1.21-4.63-1.57-5.77,1.44,1.24,2,3.42,3,5.08s4.39,2,2.77-.49c-.88-1.35-1.52-2.76-2.27-4.2-.54-1-2.55-3.4-2.29-4.42a19,19,0,0,1,2.68,2.36c.91,1.14,1.72,2.42,2.58,3.62,1,1.45,4.11,4,4.75,3.61s-.1-2.33-2.19-4.51c-1.75-1.82-4.09-3.84-5.29-6,1.4,1.05,2.64,2.31,4.1,3.3A20.21,20.21,0,0,0,75,91.87c.55.27,2.2,1.22,2.82,1,1.63-.45-.92-2.92-1.62-3.43-1.29-1-3.65-1.78-4.48-3.15a24.21,24.21,0,0,0,5.19.45c1.66,0,4.1.25,5.58-.56C81.19,84.2,76.46,84.79,74.4,84.71Z"/><path class="cls-1" d="M63.87,85.75c-1.76-.67-3.48-1.52-5.23-2.34-1.73-1.8-4.22-2.87-6.25-4.32s-3.88-2.73-5.69-4.21-3.6-2.2-5.1-3.86c-2.9-3.21-9.27-1.78-12.26.7A40.38,40.38,0,0,0,24.1,77c-.4.48-.83,1-1.29,1.49v-.13a11.18,11.18,0,0,0-2.94,1.77c-1.47.9-3,1.82-4.5,2.63-2.46,1.33-4.79,2.9-7.22,4.11-2.07,1-4.28,2.22-5.63,4.15-.86,1.21-3.84,5.78-.36,3.9,1.88-1,3.64-2.29,5.56-3.26C9,91,10.91,89.4,12.4,89.47c-1,1.67-3.27,3.69-3.61,5.67-.59,3.34,3.32-.64,4.26-.93a1.08,1.08,0,0,1,.68,0l-.09.19c-.75,1.45-2.4,4.62-1.89,6.27.66,2.19,3-2.46,4.12-2.81,1.42-.42,1.83,5.22,3.07,6,1.19-.92,1.29-2.95,2.56-4,1.63-1.31.83,3,2.66,3.82s2.3-1.18,2.68-1.45c1.21-.87,1.64-2.81,3-3.45a23.79,23.79,0,0,0,1.32,5.41c.35-1.25.76-2.52,1.14-3.78,0,.26,0,.53,0,.79.07,1.66-.45,3.17,1.42,2.64.89-.26,2-1.76,2.59-2.41.44,1.42,1.37,1.06,2.34.7.66.69,1.69,2.32,2.75,1.68,1.22,0,2.82-1.08,3.69-1.83,1.12,1.29,2.5.82,3.25-.37a2.45,2.45,0,0,0,2.8.23,4.76,4.76,0,0,0,1.9-2.67c.25-.78-.09-2,.36-2.54,1.44.67,2.82,2.29,4.54,2.14,2.71-.23,2-2.49.53-3.86l-.38-.37c.41-.44.53-1.25,1.55-1S64.92,97.3,64,94c-.53-1.94-3-3.74-4.13-5.3,1.47-.21,3.5,1.21,4.87,1.75,2,.79,3.87,1.88,5.84,2.72,3.64,1.54.25-2.73-.73-3.86C68.34,87.56,66,86.57,63.87,85.75Z"/><path class="cls-2" d="M32.48,68.52c-.18-2.64-2.83-.2-3.63.8l.1-.1c-3.15,3.23-5.81,6.85-9.49,9.49A64.85,64.85,0,0,1,8,85.34c-1.72.78-5.94,1.89-6.34,4,1.53.18,3.53-.83,4.93-1.43a22.22,22.22,0,0,0,4.24-2.15c-.24,1.44-2,2.94-2.73,4.2-.41.67-1.74,3.63-.2,3.46.59-.07,1.66-1.44,2-1.85a17.67,17.67,0,0,0,1.67-2.12c.9-1.34,1.53-2.83,2.35-4.2-.3,2.2-1.59,4.71-2.45,6.85-1,2.56-2.56,8.18-1.87,8.32s4-6.85,4.34-8.42c.32-1.32.57-2.68,1-4a17.2,17.2,0,0,1,1.46-2.91c.58.78-.32,3.47-.43,4.53-.15,1.48-.21,2.89-.5,4.33-.54,2.65,2.25,1.25,2.53-.53s0-3.77.77-5.31c.08,1.08-.4,4.93.64,5.43a10.4,10.4,0,0,0,.47-2.81c.15,2.22-.78,4.88,1.24,6.36.75-.63.43-3,.5-3.92a33.74,33.74,0,0,1,.59-4.37,22.86,22.86,0,0,1,1.84-6A14.16,14.16,0,0,1,24.23,86a13.16,13.16,0,0,1,.16,3.86,32.53,32.53,0,0,0-.49,6.23c0,.57-.4,2.19.41,2.22.65,0,1-1.91,1.08-2.42.46-2,.15-4.42.25-6.48.07-1.54.18-3,.18-4.62,0-1.32-.24-3,.61-4.05,1.41,2.9.69,6.36,1.61,9.36.57-1,.13-2.72.22-3.89.82,1.53-.09,7.63,2.19,7.95.19-3.91-.47-7.91-.49-11.76.18,2.08,3.28,3.45,4.22,2.48s-3.07-2.72-3.74-3.61-1.76-3.5-.16-4.32,3.53,3.63,4,4.61c1.53,3.1.19,10.94,1.91,11.07s.48-10.25-1.59-15.1A64.6,64.6,0,0,1,32.48,68.52Z"/><path class="cls-2" d="M66.34,82.93A72,72,0,0,1,52.87,77.5c-4.38-2.3-7.81-5.82-11.72-8.83l.13.09c-1-1-4.27-3.2-4.06-.32a10.57,10.57,0,0,1,.12,2.64,7,7,0,0,0-.3,2.41c.28,1.89-.25,3.09-.77,5-1.51,5.57-1.25,17,.59,16.6s-.81-8.69.37-12.28c.38-1.14,1.85-6.24,3.65-5.61s1.18,3.45.49,4.7c-.59,1.07-4.66,3.57-3.5,4.48s4.31-1,4.19-3.33c.57,4.17.46,8.61,1.27,12.82,2.42-.7.5-7.17,1.15-8.95.28,1.25.07,3.18.84,4.18.53-3.39-.77-7,.31-10.38,1.09,1,1.08,2.86,1.28,4.29.24,1.7.59,3.32.9,5,.42,2.22.46,4.87,1.26,7,.2.54.84,2.59,1.54,2.46.87-.16.19-1.86.1-2.47a35.92,35.92,0,0,0-1.47-6.67,14.19,14.19,0,0,1-.42-4.21,15.59,15.59,0,0,1-.23-3.38,25.18,25.18,0,0,1,2.91,6.23,37.11,37.11,0,0,1,1.3,4.64c.23,1,.23,3.61,1.14,4.17,2-1.91.55-4.65.37-7.07a11,11,0,0,0,.95,3c1-.7-.07-4.79-.15-6,1.1,1.55,1.1,3.79,1.66,5.63s3.79,3,2.81.19c-.54-1.52-.81-3-1.21-4.62C58.1,87.75,56.71,85,57.22,84a19.73,19.73,0,0,1,2,2.93c.61,1.33,1.09,2.76,1.64,4.14.65,1.65,5.27,8.71,6,8.46s-1.79-6.11-3.29-8.72c-1.27-2.19-3.05-4.72-3.7-7,1.09,1.36,2,2.88,3.18,4.19a19.54,19.54,0,0,0,2.13,2c.47.39,1.85,1.71,2.49,1.69,1.69,0-.2-3-.75-3.71-1-1.25-3.11-2.61-3.59-4.14a24.43,24.43,0,0,0,4.92,1.69c1.61.43,3.92,1.22,5.56.79C73.07,84.07,68.33,83.5,66.34,82.93Z"/><path class="cls-3" d="M45.71,80.19c2.52,2.09,4.73,3.81,9,4C52.23,80.89,44,78.59,43.61,74.55c2.13,1.78,8.49,4.3,11.46,2.71-3.66-1.07-13.9-7.47-16.76-6.94a18,18,0,0,1-4.1,6.45c-1.77,1.78-4.87,3.49-5.69,5.55,2.9.31,5.56-2.68,7.51-3.7a58.61,58.61,0,0,0-6.44,10.66c2.17-1,4.23-3,5.89-4.52-.57,2.37-2.37,4.28-2.61,6.56.28-.3,1.76-1.62,1.75-1.6-.63,2.4-1.89,5,0,7.09,2.06-2.66,1.58-6.12,4.26-8.45-1.51,5.18-2.34,11.67,2.32,16.44.89-1.15.37-3,.31-4.41a4.37,4.37,0,0,0,3.45,2.6c-.21-1.82-1.72-3.74-1.81-5.66a23,23,0,0,0,3.56,2.56c.59-1.69-1.1-3.56-1.48-5.36-.34-1.63.23-3.77.14-5.24C46,91.54,48,93.64,48.8,95.83c1.19-2.9-1-5.77-1.13-8.57C49.78,89.39,55.26,95,59,91.4,52.88,88.72,46.92,85.14,45.71,80.19Z"/><path class="cls-4" d="M39.39,84.68c-.31-2.22-2.11-6.1-2.4-8.52a37,37,0,0,1-.23-6c-.41-1.86-3.16-.88-3.16-.88-1.35,1-12.48,4.58-15.79,4.88,2.22,2.19,8.09,1,10.24-.3-1.06,3.94-8.52,4.5-11.22,7.24,3.64.72,5.84-.53,8.37-2.08-2,4.67-7.69,7-13.36,8.37,2.47,4.32,8.17-.08,10.36-1.76-.64,2.75-3,5.15-2.57,8.28,1.06-2,3.16-3.68,4.18-5.77-.35,1.44-.27,3.69-.86,5.24-.67,1.7-2.45,3.21-2.28,5a18.47,18.47,0,0,0,3.51-1.79c-.44,1.88-2.08,3.47-2.6,5.24A3.71,3.71,0,0,0,25,99.93c-.32,1.35-1.11,3.11-.57,4.44,4.85-3.76,5.38-10.38,5.07-15.84,1.83,2.87.77,6.21,2,9.27,2-1.67,1.38-4.53,1.29-7,0,0,1,1.6,1.19,1.95.23-2.32-1-4.59-1-7.06,1.12,1.86,2.49,4.3,4.15,5.72a65.61,65.61,0,0,0-3.46-11.93C35.18,80.86,36.87,84.38,39.39,84.68Z"/><path class="cls-5" d="M17.81,74.12s3.33,0,8.72-1.79a41.06,41.06,0,0,0,7.65-3.25,4.29,4.29,0,0,0-.58.16C32.25,70.22,21.12,73.82,17.81,74.12Z"/><path class="cls-5" d="M30,89.54c1.1,2.62.4,5.55,1.5,8.26a3.25,3.25,0,0,0,.45-.46c-.16-1-.29-2-.45-2.94A13.58,13.58,0,0,0,30,89.54Z"/><path class="cls-5" d="M35.59,89.2c-.23-.51-.48-1-.72-1.51l0-.06a21,21,0,0,1-2.14-4l0,0-.19.18c.21.68.38,1.36.55,2.05A.14.14,0,0,0,33,86c0-.1,0-.21,0-.31a35.82,35.82,0,0,0,3,4.53C35.88,89.85,35.74,89.52,35.59,89.2Z"/><path class="cls-5" d="M26.38,102.35c0,.07-1.58,1.77-1.72,1-.07-.44.67-3.62.52-4-1,1.6-3.12,2.8-3,2,0,0,2.49-4.1,2.39-6.05-.11.18-.42,1.67-.53,1.84-.58,1.67-2,3.13-2.45,4.74A3.71,3.71,0,0,0,25,99.93c-.32,1.35-1.11,3.11-.57,4.44a11,11,0,0,0,2-2S26.37,102.33,26.38,102.35Z"/><path class="cls-5" d="M25.11,76.93a5.74,5.74,0,0,0,2.82-2.76,1,1,0,0,0,.12-.35A7.47,7.47,0,0,1,25.11,76.93Z"/><path class="cls-5" d="M25.3,78.78C22,81.33,17.23,81.3,17.45,81c.48-.77,4.63-2,7.66-4-2.72,1.48-6.51,2.34-8.28,4.13,3.64.72,5.84-.53,8.37-2.08-2,4.67-7.69,7-13.36,8.37,2.47,4.32,8.17-.08,10.36-1.76-.64,2.75-3,5.15-2.57,8.28a9.41,9.41,0,0,1,.8-1.25c-.41.53-.67.75-.62.37.22-1.92,3.14-7.86,2.53-7.83a22.84,22.84,0,0,1-3.63,2.59c-2.87,1.24-6.33,1.37-6.33-.3,0-.24,8.35-.28,12.92-8.31C25.21,79,25.63,78.52,25.3,78.78Z"/><path class="cls-5" d="M20.43,92.62l.19-.25A2.35,2.35,0,0,0,20.43,92.62Z"/><path class="cls-5" d="M20.62,92.37a27.42,27.42,0,0,0,3.19-4.27c-.35,1.44-.27,3.69-.86,5.24s-2,2.84-2.26,4.37c1.23-2.56,1.79-2.08,2.55-4.29a31.92,31.92,0,0,0,1-6.14C23.61,87.77,21.72,90.87,20.62,92.37Z"/><path class="cls-6" d="M25.73,98.91c0,.1,0,.2,0,.3C25.73,99.11,25.72,99,25.73,98.91Z"/><path class="cls-6" d="M28.83,80.77a4.19,4.19,0,0,0,.87,1.57,18.6,18.6,0,0,1-.51-4.08,36.26,36.26,0,0,0,.46-3.77c-.94.78-.88,2.56-1.62,3.61-1.33,3-3.29,3.28-4.11,6.44C25.06,84,26,83,27.18,82.42c-.73,2.68-2.19,5.39-2.93,8.06.88-.58,1.47-1.73,2.27-2.44-.63,1.65-1.47,3.58-1.29,5.43a48.21,48.21,0,0,1,.5,5.44,36.48,36.48,0,0,1,.83-4.11c.22-1.45-.08-3.09,1-4.24,0,.69,0,1.39,0,2.07,1.46-1.78-.56-6,1.13-7.94.93,1.35,1.45,3.15,2.48,4.43C31.14,87.16,27.67,82.18,28.83,80.77Z"/><path class="cls-7" d="M39.43,64.9c2.11.75,5.34,3.36,8,2.67-1.26-1.93-4.75-4.83-6.07-7a34.92,34.92,0,0,1-2.8-5.49c-1.2-1.57-3.61.39-3.61.39-1,1.42-10.87,9-14.14,10.54,3.21,1.18,8.74-2.15,10.38-4.19.58,4-6.83,7.41-8.45,11,4-.73,5.77-2.73,7.72-5.12,0,5.06-5,9.38-10.18,12.83,4.37,3,8.35-3.19,9.89-5.58.51,2.79-.93,5.92.87,8.64.23-2.28,1.69-4.61,1.85-6.93.25,1.46,1.29,3.51,1.33,5.17,0,1.83-1.15,3.9-.21,5.49a18.9,18.9,0,0,0,2.84-3c.35,1.91-.67,4-.45,5.84a3.78,3.78,0,0,0,2.72-3c.25,1.38.18,3.31,1.3,4.34,3.38-5.34,1.12-11.65-1.51-16.58,3.1,2,3,4.06,5.63,6.42,1.29-2.3-.13-3.34-1.28-5.63,0,0,1.7,1.1,2,1.35-.75-2.23-2.91-3.88-4-6.15,1.93,1.29,4.37,3,6.67,3.7A67.19,67.19,0,0,0,39.43,64.9Z"/><path class="cls-8" d="M20.86,66.05a33.91,33.91,0,0,0,8.19-5,44.14,44.14,0,0,0,6.48-5.92,4.48,4.48,0,0,0-.53.37C34,56.93,24.13,64.5,20.86,66.05Z"/><path class="cls-8" d="M45.5,73.2c-.45-.38-.92-.75-1.38-1.11l-.07,0a22.57,22.57,0,0,1-3.89-2.86,0,0,0,0,0,0,0l-.12.24c.5.55,1,1.11,1.43,1.68l0,.05c0-.09-.09-.19-.14-.28a40.58,40.58,0,0,0,5,3C46.07,73.69,45.78,73.44,45.5,73.2Z"/><path class="cls-8" d="M41.61,88.87c0,.06-.86,2.24-1.35,1.55-.26-.37-.84-3.6-1.17-3.92-.36,1.86-2,3.78-2.26,3,0,0,.82-4.74-.11-6.5,0,.2.27,1.7.24,1.9.11,1.77-.71,3.65-.51,5.31a3.78,3.78,0,0,0,2.72-3c.25,1.38.18,3.31,1.3,4.34a10.74,10.74,0,0,0,1.19-2.56Z"/><path class="cls-8" d="M29.54,65.86a5.49,5.49,0,0,0,1.73-3.63,1.08,1.08,0,0,0,0-.37A7,7,0,0,1,29.54,65.86Z"/><path class="cls-8" d="M30.9,82.72c-.59-1.85-.1-8.46-.72-8.2a21.51,21.51,0,0,1-2.62,3.78c-2.42,2.24-5.92,3.68-6.62,2.14-.1-.22,8.44-3.44,9.73-12.61-.13-.06.08-.69-.15-.33-2.35,3.62-7.22,5.41-7.14,5,.17-.9,3.9-3.65,6.16-6.64-2.16,2.4-5.69,4.64-6.75,7,4-.73,5.77-2.73,7.72-5.12,0,5.06-5,9.38-10.18,12.83,4.37,3,8.35-3.19,9.89-5.58.51,2.79-.93,5.92.87,8.64a8.72,8.72,0,0,1,.3-1.47C31.19,82.8,31,83.1,30.9,82.72Z"/><path class="cls-8" d="M31.39,82.14c0-.09.05-.19.08-.3C31.44,81.94,31.41,82.05,31.39,82.14Z"/><path class="cls-8" d="M33,75.76c-.4.69-1,4.28-1.53,6.08a24.83,24.83,0,0,0,1.47-5.16c.25,1.46,1.29,3.51,1.33,5.17s-.88,3.41-.46,4.9c.18-2.83.95-2.61.8-4.94A28.77,28.77,0,0,0,33,75.76Z"/><path class="cls-9" d="M52.41,70.54c3.22.74,5.46,3.8,8.57,5.08-.47-2.52-3.09-4.11-5.19-5.82,0,0,1.78.43,2.15.55-1.79-1.77-4.21-2.55-6.26-4.26,2,.53,4.7,1.29,6.64,1.14a82.31,82.31,0,0,0-11.42-6c1.85,0,5.54,1.28,7-.25-2-1.34-5-1.38-7.28-2.08a24.76,24.76,0,0,1-7-3.51c-2,.81-3.17,10.59-4.46,13.09,2.84,0,4.62-4.87,4.53-7.27,2.75,3.48-.28,9,.72,12.8,2.29-2,2.29-4.4,2.2-7.23,2.92,4.61,2.14,10.19.64,15.07,4.71,1.32,3.75-5.69,3.4-8.38,2,2.37,2.81,5.7,5.6,7.57-1.16-2.15-1.55-4.76-2.79-6.92,1,1.24,2.91,2.76,3.9,4.25,1.1,1.66,1.5,3.94,3.06,5.07a16.21,16.21,0,0,0,.16-3.67c1.35,1.62,1.89,3.86,3.1,5.46.91-1.09.55-2.55.07-3.66,1,1.16,2,2.94,3.39,3.5C62.24,79.13,57,74.14,52.41,70.54Z"/><path class="cls-3" d="M33.07,65.81c0-.13,0-.25.08-.37a12.94,12.94,0,0,0-.27-1.78Z"/><path class="cls-3" d="M33.15,65.44a28.82,28.82,0,0,1-.07,4.91c-.15,1.85,0,6.11,1.13,6.42s.5-3.5,1.32-4.72c1.77,2.12-.15,11.28,1.1,11.68s.82-3.75.78-5.22c.85,1.6,1.81,8.36,3.15,8.17,3.6-.52-1.79-11.65-1-12.37s.91,2.11,1.4,2c1.16-.32.71-2,.77-3.5a7.9,7.9,0,0,1,1.5.89C43.86,68.46,35,57.27,33.15,65.44Z"/><path class="cls-1" d="M53.4,31.14c-1-.53-.61-.85-1.6-1.48-1-1.4-2.41-2.23-3.57-3.36S46,24.17,45,23s-2.06-1.71-2.91-3c-1.65-2.49-3-1.57-4.7.36-1.1,1.24-1.5,4.36-4.68,5.86-1,.47-4.71,2.29-5.58,2.93-1.41,1-1.55.7-3.6,1.64-1.29.59-3.73.9-3.48,1.66.49,1.43,6.85,0,7.71,0-.58,1.3-4.2,4.77-4.39,6.31-.34,2.6,1.89-.5,2.43-.73a.49.49,0,0,1,.39,0,.88.88,0,0,0-.05.15c-.43,1.13-1.37,3.59-1.09,4.87.39,1.71,1.71-1.91,2.36-2.18.81-.32,1,4.06,1.75,4.68.68-.71.73-2.29,1.47-3.1.92-1,.46,2.33,1.51,3s1.31-.91,1.53-1.13c.69-.67.94-2.18,1.72-2.68a24.16,24.16,0,0,0,.75,4.21c.33-1.63.77-3.27,1-4.92a10.91,10.91,0,0,1,.42-2.12c.43-1.09.63-.72,1,.15.78,1.78.74,3.77,1.83,5.26.37.51,1,1.84,1.59,1.33s.14-2.38,0-3.19c-.16-1.14-.4-3.71.8-2,.13.18.27.87.47.94.51.18.23-.47.6-.64.55-.25.66.37.95,1.12.5,1.34,1.38,3.14,2.71,2.21a3.86,3.86,0,0,0,1.09-2.08c.14-.61-.05-1.59.21-2,.82.53,1.6,1.79,2.58,1.67,1.55-.18,1.14-1.93.31-3l-.22-.29c.23-.34.3-1,.88-.8s3,3,2.48.41c-.31-1.51-1.7-2.91-2.36-4.13.84-.16,2,1,2.78,1.36,1.14.62,2.6,2,3,1.65s-.4-2.12-1.12-2.87A14.64,14.64,0,0,0,53.4,31.14Z"/><path class="cls-9" d="M34.73,28.53c-1.49,1.14-2.64,2.94-4.09,4.22a18.16,18.16,0,0,1-7.56,3.43A42.38,42.38,0,0,0,16.51,38c-.92.4-4.51,2.65-1.75,2.77,1.6.06,3.28-1.48,4.82-1.24.93.15.46.73.2,1.54s-.49,1.42-.64,2.13c-.59,3,2.11.41,3,1.27.51.52.3,1.81.53,2.44.47,1.28.94.57,1.95,0,.59-.32,3.32-1.64,4-1,1,.9-.79,3.22.32,4.3s3.55-5.75,3.9-5.24c.52.77-1,7.22-.13,7.45,3.43.92,1.37-6.31,3.71-5.53,1.39.47.85,2.15,1,3.2s1,1.66,1.86.52c1-1.33.07-4.19-.19-5.64a21.45,21.45,0,0,1-.13-6.25,5.45,5.45,0,0,1,1.12-3.29c1-1.08,1.42-1.19,1.44-2.82a21.82,21.82,0,0,0-.21-4C40.75,25.53,36.78,25.81,34.73,28.53Z"/><path class="cls-1" d="M61.93,48.84c-1.36-.52-2.7-1.18-4.06-1.82-1.35-1.4-3.29-2.23-4.87-3.36s-3-2.12-4.42-3.27-2.8-1.71-4-3c-2.25-2.5-7.2-1.39-9.53.54A32.34,32.34,0,0,0,31,42.05c-.31.37-.64.79-1,1.16v-.1a8.81,8.81,0,0,0-2.28,1.37c-1.15.71-2.31,1.42-3.5,2.05-1.91,1-3.72,2.25-5.62,3.19A11.44,11.44,0,0,0,14.22,53c-.66.94-3,4.5-.27,3,1.46-.78,2.83-1.77,4.32-2.53,1-.52,2.48-1.77,3.64-1.72-.79,1.3-2.54,2.87-2.81,4.41-.46,2.6,2.58-.5,3.32-.72a.81.81,0,0,1,.53,0l-.08.15c-.58,1.12-1.86,3.58-1.47,4.87.52,1.7,2.32-1.92,3.21-2.18,1.1-.33,1.42,4,2.39,4.67.92-.71,1-2.29,2-3.1,1.27-1,.64,2.33,2.07,3s1.78-.92,2.08-1.12c.94-.68,1.28-2.19,2.34-2.69a18.64,18.64,0,0,0,1,4.21c.46-1.62,1-3.27,1.4-4.92a8.84,8.84,0,0,1,.57-2.12c.59-1.09.85-.72,1.38.16,1.06,1.77,1,3.77,2.48,5.25.52.51,1.33,1.85,2.18,1.33s.18-2.38,0-3.19c-.21-1.14-.55-3.71,1.09-2,.18.19.37.87.65.94.69.18.31-.47.8-.63.76-.25.92.37,1.3,1.11.69,1.34,1.89,3.15,3.7,2.21a3.67,3.67,0,0,0,1.48-2.08c.2-.61-.07-1.59.28-2C55,57.82,56,59.08,57.36,59c2.11-.18,1.54-1.93.41-3-.09-.1-.2-.19-.29-.28.32-.34.41-1,1.2-.81s4.07,3,3.37.41c-.41-1.51-2.3-2.91-3.21-4.13,1.14-.16,2.72,1,3.78,1.37,1.56.61,3,1.46,4.55,2.11,2.83,1.2.19-2.12-.57-3A11.29,11.29,0,0,0,61.93,48.84Z"/><path class="cls-2" d="M34.84,59.79l.15,0c-4.55.68-8.94,2-13.55,1.88A66.62,66.62,0,0,1,8,60c-1.87-.43-6-2.11-7.64-.61C0,60.5,3,61.27,4.49,61.64a27,27,0,0,0,5.32.91c-1.75.8-3.19.73-4.59,1.28-.75.3-3.65,1.89-2.29,2.69.52.31,2.23-.14,2.79-.25a18.58,18.58,0,0,0,2.66-.7c1.56-.53,3-1.36,4.5-2-1.59,1.61-4.19,2.85-6.21,4.07C4.26,69.11-.44,72.75,0,73.28s4.91-1.45,6.87-3C8,69.42,10.72,67.83,11.83,67a29.64,29.64,0,0,1,3.65-2,29.44,29.44,0,0,0-6.75,6.6C7.27,74,9.8,74.05,11.11,72.77s2.31-3.08,3.9-3.85c-.6.93-3.36,3.76-2.83,4.81a10.56,10.56,0,0,0,2.12-2c-1.25,1.9-3.63,3.48-2.91,5.93,1,0,2.18-2.16,2.83-2.88a32.82,32.82,0,0,1,3.16-3.19,23.27,23.27,0,0,1,5.19-3.76,15,15,0,0,1-1.72,2.65,13.18,13.18,0,0,1-2.25,3.23,34.29,34.29,0,0,0-4.22,4.78c-.35.46-1.68,1.53-1,2s2-1,2.38-1.3c1.6-1.35,2.83-3.5,4.18-5.12,1-1.21,2-2.37,3-3.65.81-1.07,1.65-2.59,3-2.92-.63,3.23-3.34,5.6-4.44,8.61,1.08-.48,1.78-2.14,2.57-3-.28,1.75-4.77,6.15-3.11,7.81,2.56-3.06,4.48-6.73,6.83-9.87-1.13,1.81.55,4.83,1.91,4.61s-.82-4.1-.82-5.24c0-1.32.72-3.92,2.53-3.6s.64,5.12.43,6.22c-.66,3.46-6.57,9-5.25,10.18s6.7-8,8-13.27c.44-1.79.55-3,1.64-4.43a6.7,6.7,0,0,0,.84-2.1,9.76,9.76,0,0,1,1.3-2.09C39.77,59.11,36.11,59.46,34.84,59.79Z"/><path class="cls-2" d="M65.88,64.19a67.15,67.15,0,0,1-13.1-3.43C48.46,59.14,44.87,56.3,40.91,54L41,54c-1.06-.77-4.32-2.46-3.79.18a9.83,9.83,0,0,1,.43,2.42,6.6,6.6,0,0,0,0,2.26c.48,1.72.13,2.9-.12,4.73C36.81,69,38.38,79.5,40,78.91S38.27,71,39,67.51c.21-1.1,1-6,2.71-5.61s1.49,3.05,1,4.28C42.24,67.24,38.77,70,40,70.74s3.87-1.47,3.49-3.57c1,3.79,1.43,7.91,2.68,11.7,2.15-.92-.38-6.68,0-8.4.4,1.12.43,2.92,1.27,3.77.09-3.21-1.55-6.42-.93-9.65,1.12.8,1.33,2.52,1.68,3.82.42,1.55.93,3,1.42,4.5.65,2,1,4.45,2,6.31.25.47,1.08,2.29,1.72,2.09s-.05-1.74-.2-2.29a34,34,0,0,0-2.14-6A13.34,13.34,0,0,1,50,69.18a14.38,14.38,0,0,1-.6-3.1,23.79,23.79,0,0,1,3.42,5.42,33.51,33.51,0,0,1,1.74,4.14c.33.9.64,3.31,1.55,3.72,1.58-2,0-4.36-.49-6.59a10.7,10.7,0,0,0,1.22,2.64c.88-.78-.62-4.43-.84-5.52,1.2,1.31,1.47,3.38,2.2,5s3.86,2.31,2.62-.15c-.67-1.34-1.11-2.72-1.65-4.13-.39-1-2-3.42-1.64-4.35a18.38,18.38,0,0,1,2.22,2.48c.73,1.16,1.33,2.42,2,3.63.8,1.45,5.9,7.44,6.54,7.12S66,74.07,64.26,71.83c-1.43-1.87-3.38-4-4.25-6.08,1.17,1.13,2.19,2.43,3.44,3.5a17.7,17.7,0,0,0,2.2,1.64c.49.3,1.91,1.36,2.51,1.27,1.56-.24-.55-2.8-1.13-3.35-1.09-1-3.19-2-3.81-3.4a22.27,22.27,0,0,0,4.75,1c1.54.22,3.77.67,5.23.08C72.23,64.46,67.78,64.49,65.88,64.19Z"/><path class="cls-10" d="M36.51,42.59c-1.71.11-13.78-3-17-4.66,1,3.25,7.06,5.57,9.68,5.6-2.83,2.95-10-.83-13.85.1,3.06,2.74,5.69,2.87,8.78,2.93-4,3.08-10.44,1.87-16.38-.13C8,51.75,15.4,51.06,18.23,50.8c-1.89,2.12-5.25,2.9-6.28,6,1.94-1.22,4.67-1.51,6.6-2.81-1,1.1-2,3.18-3.25,4.23s-3.79,1.5-4.46,3.21a19,19,0,0,0,4.11.4c-1.29,1.44-3.57,1.94-4.88,3.23a3.77,3.77,0,0,0,4.06.29c-.93,1-2.49,2.17-2.62,3.69,6.29-.62,9.87-6.29,12.15-11.39.36,3.64-2.19,6.05-2.46,9.53,2.61-.39,3.4-3.3,4.51-5.62,0,0,.18,2,.18,2.44,1.3-2,1.27-4.68,2.4-6.93.17,2.32.31,5.31,1.19,7.54a66.56,66.56,0,0,0,2.35-12.75c.71,2.12.9,7.87,2.85,8,1.7.34,2.18-5.13,3-7.48,1.2-3.27.33-7.93.33-7.93C37.61,42.08,36.51,42.59,36.51,42.59Z"/><path class="cls-8" d="M19.51,37.93a33.47,33.47,0,0,0,9,3.38,43.59,43.59,0,0,0,8.65,1.47,5.5,5.5,0,0,0-.61-.19C34.8,42.7,22.73,39.55,19.51,37.93Z"/><path class="cls-8" d="M21.2,67.18a4,4,0,0,0,.64-.16c.3-1,.63-1.93.95-2.91a14.12,14.12,0,0,0,.88-5.26C23.47,61.86,21.44,64.09,21.2,67.18Z"/><path class="cls-8" d="M28.9,55.07h0l-.26.06c-.13.73-.29,1.45-.45,2.16a.15.15,0,0,0,0,.07,2.55,2.55,0,0,1,.13-.29A40.63,40.63,0,0,0,29,62.88c0-.38.05-.76.06-1.13,0-.59,0-1.18,0-1.78,0,0,0,0,0-.08A23.68,23.68,0,0,1,28.9,55.07Z"/><path class="cls-8" d="M14.56,62.2c-1.32,1.17-3.3,1.69-4.49,2.86a3.77,3.77,0,0,0,4.06.29c-.93,1-2.49,2.17-2.62,3.69a10.94,10.94,0,0,0,2.75-.64s0-.1,0-.07-2.3.69-2.06-.12c.14-.43,2.33-2.87,2.38-3.33-1.69.86-4.23.73-3.74.05,0,0,4.25-2.27,5.06-4.09C15.74,60.94,14.76,62.1,14.56,62.2Z"/><path class="cls-8" d="M28.92,43.79a1,1,0,0,0,.27-.26A6.93,6.93,0,0,1,25,44.65,5.49,5.49,0,0,0,28.92,43.79Z"/><path class="cls-8" d="M15.34,43.63c3.06,2.74,5.69,2.87,8.78,2.93-4,3.08-10.44,1.87-16.38-.13C8,51.75,15.4,51.06,18.23,50.8c-1.89,2.12-5.25,2.9-6.28,6a8.82,8.82,0,0,1,1.34-.67c-.64.24-1,.29-.76,0,1.11-1.6,6.61-5.28,6-5.61a22.14,22.14,0,0,1-4.6.26c-3.25-.54-6.53-2.4-5.76-3.91.12-.22,7.92,4.54,15.94-.09,0-.13.59-.36.16-.32-4.3.38-8.7-2.36-8.33-2.55.81-.42,5.27.83,9,.77C21.77,44.42,17.83,43,15.34,43.63Z"/><path class="cls-8" d="M13.29,56.13l.29-.12Z"/><path class="cls-8" d="M18.55,54c-1,1.1-2,3.18-3.25,4.23s-3.23,1.4-4.15,2.65c2.34-1.6,2.64-.85,4.38-2.4a28.93,28.93,0,0,0,3.78-5c-.79.11-4,1.82-5.73,2.54A25.73,25.73,0,0,0,18.55,54Z"/><path class="cls-6" d="M35.56,52.27c-1.6.44-13.29-.14-16.49-1,1.3,2.83,7.2,3.82,9.68,3.34-2.39,3.31-9.56,1.19-13.06,2.8,3.15,2,5.65,1.57,8.57,1-3.49,3.67-9.67,3.8-15.47,3.09.78,4.92,7.67,2.82,10.32,2-1.58,2.34-4.67,3.73-5.34,6.83,1.71-1.51,4.26-2.33,6-3.91-.84,1.22-1.56,3.35-2.67,4.58s-3.42,2.14-3.89,3.88a17.89,17.89,0,0,0,3.91-.44c-1.07,1.61-3.18,2.52-4.29,4a3.7,3.7,0,0,0,3.86-.52c-.77,1.15-2.14,2.52-2.11,4,5.87-1.8,8.71-7.8,10.36-13,.69,3.33-1.48,6.07-1.4,9.38,2.42-.87,2.89-3.75,3.71-6.13,0,0,.37,1.85.41,2.24,1-2.08.74-4.62,1.59-6.94.39,2.13.81,4.9,1.85,6.81a65.63,65.63,0,0,0,1-12.37c.87,1.84,1.2,5.74,3.46,6.9.5-2.18.19-6.44.77-8.81a37.53,37.53,0,0,1,1.92-5.73C38.49,52.32,35.56,52.27,35.56,52.27Z"/><path class="cls-11" d="M19.07,51.24a29.94,29.94,0,0,0,8.79,1.41,42.2,42.2,0,0,0,8.3-.32,3.83,3.83,0,0,0-.6-.06C34,52.71,22.27,52.13,19.07,51.24Z"/><path class="cls-11" d="M23.5,78.24a3.54,3.54,0,0,0,.59-.27c.19-1,.41-1.93.61-2.91A13.7,13.7,0,0,0,25,70C25.12,72.82,23.43,75.31,23.5,78.24Z"/><path class="cls-11" d="M30.21,70s0,0,0-.07a21.55,21.55,0,0,1-.61-4.48h0l-.23.11c-.06.7-.14,1.4-.22,2.1,0,0,0,0,0,.06s.07-.19.1-.29a34.88,34.88,0,0,0,1.2,5.3c0-.36,0-.72-.06-1.07C30.32,71.08,30.27,70.53,30.21,70Z"/><path class="cls-11" d="M17.91,73.35c-.17.13-1,1.41-1.15,1.54-1.13,1.35-3,2.22-4,3.55a3.7,3.7,0,0,0,3.86-.52c-.77,1.15-2.14,2.52-2.11,4a11,11,0,0,0,2.53-1.13.32.32,0,0,0,0-.07c0,.07-2.1,1.1-1.95.3.08-.44,1.91-3.15,1.92-3.59-1.52,1.14-3.92,1.52-3.53.78C13.52,78.16,17.31,75.21,17.91,73.35Z"/><path class="cls-11" d="M28.52,54.87a1.21,1.21,0,0,0,.23-.29,7.23,7.23,0,0,1-3.85,1.86A5.74,5.74,0,0,0,28.52,54.87Z"/><path class="cls-11" d="M24.9,56.44c-3.06.43-6.92-.11-9.21.94,3.15,2,5.65,1.57,8.57,1-3.49,3.67-9.67,3.8-15.47,3.09.78,4.92,7.67,2.82,10.32,2-1.58,2.34-4.67,3.73-5.34,6.83A11.89,11.89,0,0,1,15,69.46c-.57.36-.89.47-.71.13.89-1.72,5.72-6.23,5.14-6.43a22.57,22.57,0,0,1-4.31,1.15c-3.12.13-6.4-1-5.81-2.53.09-.23,7.9,2.7,15-3.2,0-.12.53-.45.13-.33-4,1.19-8.44-.51-8.11-.76C17,56.94,21.37,57.23,24.9,56.44Z"/><path class="cls-11" d="M15,69.46l.27-.16Z"/><path class="cls-11" d="M19.73,66.44c-.84,1.22-1.56,3.35-2.67,4.58s-2.91,2-3.65,3.29c2.05-2,2.41-1.31,3.9-3.1a31.08,31.08,0,0,0,3.08-5.41c-.73.26-3.6,2.48-5.16,3.5A28.21,28.21,0,0,0,19.73,66.44Z"/><path class="cls-4" d="M47.38,61.64c2.29.85,4.26,1.52,7.1.07-2.6-1.93-8.73-.81-10.18-4.19,1.94.75,6.87.53,8.33-2-2.72.44-12.28-.41-13.52-1,0,0-2.38-.3-2.43,1.5a39.29,39.29,0,0,1,.73,5.59c.13,2.29-.74,6.23-.65,8.33,2-.82,2.83-4.42,3.8-6a72,72,0,0,0-1,11.69,25.75,25.75,0,0,0,2.49-6.15c.35,2.27-.26,4.61.28,6.69.09-.37.66-2.08.66-2.05.32,2.33.28,5.07,2.12,6.18.54-3.09-.82-5.91.23-9,.58,5.07,2,11,6.5,13.42.24-1.34-.67-2.78-1.13-4a2.69,2.69,0,0,0,3.05,1c-.68-1.5-2.26-2.6-2.9-4.23a13.14,13.14,0,0,0,3.12.87c-.14-1.68-1.81-2.67-2.61-4.09s-1-3.37-1.48-4.61C51,71.38,53,72.44,54.15,74.07c-.09-3-2.4-4.65-3.33-7,2,1.06,7.31,3.84,8.66-.66C54.67,66.34,49.68,65.48,47.38,61.64Z"/><path class="cls-5" d="M39.11,54.54s-.21,0-.5,0a29.07,29.07,0,0,0,6.69,1.3,21.56,21.56,0,0,0,7.33-.26C49.91,56,40.35,55.15,39.11,54.54Z"/><path class="cls-5" d="M45.08,72.37a14.72,14.72,0,0,0-.48,4.79c0,.94.06,1.87.08,2.79a3,3,0,0,0,.44.33C45.6,77.55,44.59,75,45.08,72.37Z"/><path class="cls-5" d="M42,67.55a23.13,23.13,0,0,1-1.14,4.12s0,0,0,.07c-.13.51-.25,1-.36,1.54-.07.33-.14.66-.2,1a37.26,37.26,0,0,0,1.74-4.81,2.89,2.89,0,0,0,0,.29v-.06c0-.67.07-1.33.13-2l-.18-.13Z"/><path class="cls-5" d="M50.36,76.37c.22,1.81,2.86,5,2.86,5,.21.74-1.68.1-2.75-1.15-.06.41,1,3.16,1,3.58,0,.77-1.54-.44-1.54-.51v.07a8.52,8.52,0,0,0,1.88,1.36c.24-1.34-.67-2.78-1.13-4a2.69,2.69,0,0,0,3.05,1c-.62-1.37-2-2.4-2.7-3.8C51,77.81,50.48,76.52,50.36,76.37Z"/><path class="cls-5" d="M44.3,57.52a1,1,0,0,0,.15.3,4.35,4.35,0,0,0,2.7,1.91A5.72,5.72,0,0,1,44.3,57.52Z"/><path class="cls-5" d="M47.38,61.64c2.29.85,4.26,1.52,7.1.07-1.7-1.26-4.91-1.22-7.33-2,2.75,1.16,6.31,1.41,6.81,2,.24.27-3.59,1.33-6.69-.27-.3-.16.11.22.06.33,4.92,6.36,11.68,4.57,11.72,4.79.25,1.53-2.57,2.17-5.08,1.67a16.74,16.74,0,0,1-3.33-1.59c-.5.11,2.77,4.91,3.24,6.62.09.35-.15.2-.57-.2a7.77,7.77,0,0,1,.84,1c-.09-3-2.4-4.65-3.33-7,2,1.06,7.31,3.84,8.66-.66C54.67,66.34,49.68,65.48,47.38,61.64Z"/><path class="cls-5" d="M53.31,73.09l-.18-.18Z"/><path class="cls-5" d="M49.9,69.69a22.35,22.35,0,0,0,3.23,3.22C52,71.77,50,69.35,49.45,69a30.8,30.8,0,0,0,1.71,5.42c1,1.86,1.33,1.3,2.71,3.37-.41-1.34-1.79-2.26-2.49-3.51S50.39,70.93,49.9,69.69Z"/><path class="cls-10" d="M26.21,59.78c-1.7,1.25-5.5,2-6.4,3.88,2,0,4-1.91,5.84-2.64-1.06,1.53-2.93,2.55-3.88,4.11a13.46,13.46,0,0,1,2.84-1c-.74,2.38-4.43,5.37-3.8,8.24a15,15,0,0,0,4-4.85c1-2,1.46-4.44,3-6.15A6.75,6.75,0,0,0,28.09,64c.57-.84.81-1.83,1.37-2.66.09,1.63-.23,3.85.85,5.25.66-1.27.29-3.63.51-5.1a10.46,10.46,0,0,1,1.54-4.8c.54.61.78,1.54,1.48,2a18.53,18.53,0,0,0-1.13-5.33A30.32,30.32,0,0,1,26.21,59.78Z"/><path class="cls-6" d="M46,65.25c-1.29-3.31-3.12-7.48-6.41-9.46l-.82-.66c-.38,1.13.11,2.51,0,3.8s-.77,2.73-.34,3.91c.6-1.29.68-3,1.16-4.26,1.67,1.81.4,5.61.36,7.77,1.35-.17,1.89-5.54,3.24-2.59.76,1.65-.22,5.2,1,6.43a8.47,8.47,0,0,0,.85-2.81c2.46,1.07,1.43,8,4.07,8.72.22-1.51-.77-4.2-1.25-5.64C47.33,68.72,46.7,67,46,65.25Z"/><path class="cls-12" d="M39,42c-.53-1.17-2.21-.13-2.21-.13-.75.84-7.6,4.81-9.74,5.48,1.78,1.14,5.49-.48,6.72-1.66-.14,2.76-5,4.19-6.38,6.39,2.51,0,3.78-1.19,5.24-2.57C32,52.9,28.48,55.25,24.93,57c2.26,2.5,5.39-1.22,6.61-2.64,0,1.91-1.28,3.83-.52,5.84.41-1.49,1.56-2.89,1.94-4.41a29.48,29.48,0,0,1,.18,3.58c-.2,1.23-1.16,2.48-.79,3.63a12.24,12.24,0,0,0,2.06-1.68c0,1.31-.88,2.59-1,3.84a2.51,2.51,0,0,0,2-1.72c0,.94-.28,2.21.26,3,2.68-3.18,2.08-7.63,1.09-11.2,1.62,1.64,1.4,4,2.66,5.84,1.06-1.39.27-3.19-.15-4.84,0,0,.89.91,1.06,1.12-.17-1.57-1.28-2.9-1.65-4.53A16.35,16.35,0,0,0,42.26,56a44.66,44.66,0,0,0-4-7.39c1.17.72,2.79,2.81,4.5,2.65-.52-1.43-2.26-3.73-2.8-5.29A24.87,24.87,0,0,1,39,42Z"/><path class="cls-13" d="M27,47.38A20.3,20.3,0,0,0,32.5,45a28.36,28.36,0,0,0,4.6-3.24,3.11,3.11,0,0,0-.36.19C36,42.74,29.14,46.71,27,47.38Z"/><path class="cls-13" d="M37.27,55.83c1.1,1.58,1.06,3.61,2.17,5.25a2.12,2.12,0,0,0,.24-.37c-.25-.62-.48-1.25-.72-1.88A9.51,9.51,0,0,0,37.27,55.83Z"/><path class="cls-13" d="M40.21,53.92l0,0a13.65,13.65,0,0,1-2-2.32h0l-.1.15c.23.42.44.85.65,1.28l0,0c0-.06,0-.13,0-.2a24.7,24.7,0,0,0,2.63,2.57l-.42-.59C40.68,54.51,40.45,54.21,40.21,53.92Z"/><path class="cls-13" d="M36.69,64.82c0,.05-.78,1.4-1,.89-.12-.28-.08-2.49-.24-2.74-.43,1.2-1.66,2.3-1.71,1.74,0,0,1.07-3.08.72-4.35,0,.14,0,1.16-.09,1.3-.14,1.18-.86,2.35-.94,3.48a2.51,2.51,0,0,0,2-1.72c0,.94-.28,2.21.26,3a7.52,7.52,0,0,0,1-1.57S36.68,64.81,36.69,64.82Z"/><path class="cls-13" d="M32.22,48.19A3.89,3.89,0,0,0,33.69,46a.65.65,0,0,0,0-.25A5,5,0,0,1,32.22,48.19Z"/><path class="cls-13" d="M32.61,49.39c-1.84,2.16-5,2.82-4.88,2.56.21-.58,2.77-2,4.49-3.76-1.58,1.37-4,2.48-4.88,3.92,2.51,0,3.78-1.19,5.24-2.57C32,52.9,28.48,55.25,24.93,57c2.26,2.5,5.39-1.22,6.61-2.64,0,1.91-1.28,3.83-.52,5.84a6.67,6.67,0,0,1,.35-.94c-.2.41-.33.59-.36.33-.13-1.3,1-5.64.55-5.54a14.71,14.71,0,0,1-2,2.24c-1.72,1.22-4,1.8-4.23.7,0-.16,5.48-1.38,7.35-7.34C32.59,49.57,32.8,49.18,32.61,49.39Z"/><path class="cls-13" d="M31.37,59.24l.09-.19Z"/><path class="cls-13" d="M31.46,59.05A19.24,19.24,0,0,0,33,55.77a29.48,29.48,0,0,1,.18,3.58c-.17,1.08-.94,2.18-.87,3.21.45-1.86.89-1.63,1.07-3.19a21.17,21.17,0,0,0-.24-4.21C32.78,55.58,32,57.9,31.46,59.05Z"/><polygon class="cls-2" points="38.57 35.34 38.57 35.34 38.56 35.33 38.57 35.34"/><path class="cls-2" d="M60.55,44.34a58.76,58.76,0,0,1-11.53-3c-3.81-1.42-7-3.93-10.45-6-.92-.41-2,2.13-3.23.22-1.49-2.29.49,6.66.27,8.28-.65,4.69.66,9,2.11,8.53.68-.24.69-1.11.52-2.15a1,1,0,0,1-.52-.12c-.39-.23-.19-.73.22-1.32a9.7,9.7,0,0,1-.33-2.27c0-1,.08-4.52,1.62-4.2s1.31,2.7.88,3.78a33.27,33.27,0,0,1-2.17,2.69c.11.49.22,1,.3,1.44A3.13,3.13,0,0,0,40.79,47c.9,3.33,1.27,7,2.36,10.29,1.9-.81-.33-5.88,0-7.39.36,1,.38,2.57,1.12,3.31.08-2.82-1.36-5.64-.82-8.48,1,.7,1.17,2.21,1.48,3.36.37,1.36.82,2.64,1.25,4,.57,1.76.87,3.92,1.74,5.55.22.41,1,2,1.52,1.84s0-1.53-.18-2a29.92,29.92,0,0,0-1.89-5.28,11.46,11.46,0,0,1-.77-3.38A12.6,12.6,0,0,1,46.07,46a20.86,20.86,0,0,1,3,4.76,30,30,0,0,1,1.54,3.65c.29.8.56,2.91,1.36,3.27,1.4-1.76,0-3.83-.43-5.79a8.84,8.84,0,0,0,1.08,2.31c.77-.67-.55-3.89-.74-4.85,1.06,1.15,1.29,3,1.93,4.42s3.4,2,2.31-.13c-.59-1.19-1-2.4-1.46-3.64-.34-.89-1.75-3-1.44-3.83a15.89,15.89,0,0,1,2,2.18c.64,1,1.17,2.14,1.76,3.21.71,1.27,5.19,6.54,5.75,6.26S60.62,53,59.12,51.06c-1.25-1.65-3-3.52-3.74-5.35,1,1,1.93,2.13,3,3.08a15.48,15.48,0,0,0,1.94,1.44c.42.27,1.68,1.2,2.2,1.12,1.37-.21-.48-2.46-1-3-1-.91-2.81-1.8-3.36-3a20.24,20.24,0,0,0,4.19.86c1.35.19,3.32.59,4.6.07C66.13,44.57,62.22,44.6,60.55,44.34Z"/><path class="cls-2" d="M38.57,35.34l.11.06Z"/><path class="cls-2" d="M37.72,50.1a1,1,0,0,0,.52.12c-.08-.46-.19-.95-.3-1.44C37.53,49.37,37.33,49.87,37.72,50.1Z"/><path class="cls-4" d="M50.59,46.75c2.3.17,3.68,2.09,5.84,2.65-.11-1.74-1.9-2.58-3.29-3.55,0,0,1.27.1,1.53.15-1.16-1.06-2.87-1.35-4.22-2.33a16.24,16.24,0,0,0,4.77.07,43.46,43.46,0,0,0-7.86-3c1.36-.22,4,.28,5.13-1-1.32-.73-4.15-1.32-5.58-2.14a25.41,25.41,0,0,1-3.37-2.32c-1.18-.53-1.76,1.36-1.76,1.36,0,1.12-2.56,8.62-3.73,10.54,2.09-.32,3.82-4,4-5.68,1.71,2.17-1,6.44-.6,9,1.86-1.68,2.06-3.38,2.25-5.38,1.74,3,.68,7-.86,10.63,3.34.41,3.26-4.46,3.23-6.33,1.23,1.46,1.57,3.73,3.46,4.74-.67-1.39-.73-3.2-1.45-4.6a26.64,26.64,0,0,1,2.49,2.58c.67,1.06.76,2.63,1.8,3.26a12.78,12.78,0,0,0,.45-2.63c.84,1,1,2.54,1.79,3.53A2.49,2.49,0,0,0,55,53.79c.61.72,1.24,1.86,2.18,2.11C57.05,51.75,53.67,48.79,50.59,46.75Z"/><path class="cls-5" d="M38.05,47.27a20.68,20.68,0,0,0,2.55-5.46,27.62,27.62,0,0,0,1.33-5.46,2.87,2.87,0,0,0-.15.38C41.77,37.85,39.22,45.35,38.05,47.27Z"/><path class="cls-5" d="M54.59,48a9.35,9.35,0,0,0-3.24-1.16c1.86.47,3.17,2,5.08,2.53a1.94,1.94,0,0,0-.06-.43Z"/><path class="cls-5" d="M52.3,43.5h0a14.38,14.38,0,0,1-3-.44h0l0,.17q.66.25,1.32.54h0l-.17-.12a24.24,24.24,0,0,0,3.67.21l-.71-.16Z"/><path class="cls-5" d="M56.82,54s.32,1.57-.17,1.32c-.26-.13-1.69-1.83-2-1.91.46,1.19.26,2.83-.15,2.43,0,0-1.22-3-2.31-3.74.05.13.73.9.78,1,.67,1,.9,2.34,1.58,3.24A2.49,2.49,0,0,0,55,53.79c.61.72,1.24,1.86,2.18,2.11a7.44,7.44,0,0,0-.26-1.85Z"/><path class="cls-5" d="M42,41.59a5,5,0,0,1,.5,2.85,3.91,3.91,0,0,0-.35-2.64A.76.76,0,0,0,42,41.59Z"/><path class="cls-5" d="M49.09,53.81c-1-.9-3-4.88-3.23-4.54a15.58,15.58,0,0,1,0,3c-.5,2.05-1.82,4-2.72,3.31-.14-.1,3.22-4.64.7-10.37-.08,0-.19-.42-.19-.14,0,2.84-1.9,5.39-2,5.13-.22-.57.77-3.34.92-5.78-.3,2.07-1.36,4.48-1.1,6.16,1.86-1.68,2.06-3.38,2.25-5.38,1.74,3,.68,7-.86,10.63,3.34.41,3.26-4.46,3.23-6.33,1.23,1.46,1.57,3.73,3.46,4.74a5.89,5.89,0,0,1-.36-.94C49.26,53.76,49.28,54,49.09,53.81Z"/><path class="cls-5" d="M49.14,53.32l-.06-.2Z"/><path class="cls-5" d="M47.77,49.11c0,.53.94,2.8,1.31,4a17.77,17.77,0,0,0-1-3.46,26.64,26.64,0,0,1,2.49,2.58c.58.93.73,2.26,1.47,3-.89-1.69-.41-1.81-1.3-3.11A20.92,20.92,0,0,0,47.77,49.11Z"/><path class="cls-2" d="M52.56,27c-2.94-.64-4.28-1.66-7-3.06s-4.31-4.2-6.88-6.25c-.68-.68-2.8,7.16-3,8.78-.48,4.69.54,14,1.61,13.45s-1.15-7-.71-10c.14-1,.63-5.27,1.75-5s1,2.7.65,3.78-2.51,3.39-1.75,4,2.5-1.3,2.26-3.14c.65,3.33.92,7,1.72,10.3,1.39-.82-.24-5.89,0-7.4.26,1,.28,2.57.82,3.32.06-2.82-1-5.65-.6-8.49.72.7.86,2.22,1.09,3.36.27,1.36.6,2.64.91,4a46.28,46.28,0,0,0,1.28,5.55c.17.42.7,2,1.11,1.84s0-1.53-.12-2a38.79,38.79,0,0,0-1.39-5.27,15.21,15.21,0,0,1-.57-3.39,16.21,16.21,0,0,1-.39-2.72,23,23,0,0,1,2.21,4.77,37.62,37.62,0,0,1,1.13,3.64c.21.8.4,2.91,1,3.28,1-1.77,0-3.84-.31-5.8a10.76,10.76,0,0,0,.79,2.32c.57-.68-.41-3.9-.54-4.86.77,1.15.95,3,1.42,4.42s2.49,2,1.69-.14c-.44-1.18-.72-2.39-1.07-3.63-.25-.89-1.29-3-1.06-3.82A15.42,15.42,0,0,1,50.05,31c.47,1,.86,2.14,1.29,3.21.52,1.27,3.81,6.54,4.22,6.26S54,35.69,52.93,33.72a30.72,30.72,0,0,1-2.75-5.35c.76,1,1.42,2.13,2.23,3.08a13.82,13.82,0,0,0,1.42,1.44c.32.27,1.24,1.2,1.62,1.12,1-.21.38-2.22-.73-2.95a10.65,10.65,0,0,1-3.37-3.13,14.9,14.9,0,0,0,3.36,1.48c1,.19,2.09.5,2.42-.35C57.13,27.93,53.79,27.29,52.56,27Z"/><path class="cls-14" d="M38.4,26.63c-.21-1.89-3-1.2-3-1.2-1.44.84-12.88,3.26-16.2,3.23,2,2.41,7.94,1.85,10.21.75-1.46,3.81-8.93,3.6-11.91,6.05,3.55,1.09,5.87.07,8.55-1.21-2.44,4.44-8.38,6.15-14.16,6.94,2,4.56,8.13.77,10.49-.67-.93,2.67-3.56,4.8-3.42,8,1.27-1.9,3.53-3.34,4.76-5.31-.5,1.39-.65,3.64-1.4,5.12-.83,1.63-2.77,2.94-2.78,4.74a18.57,18.57,0,0,0,3.68-1.42c-.63,1.83-2.43,3.24-3.14,4.94a3.67,3.67,0,0,0,3.6-1.5c-.45,1.32-1.42,3-1,4.37,5.22-3.24,6.42-9.77,6.69-15.23,1.52,3,.12,6.25,1.05,9.43,2.11-1.47,1.83-4.37,2-6.88,0,0,.83,1.7,1,2.07.46-2.28-.47-4.67-.24-7.13.91,2,2,4.53,3.53,6.12a65.45,65.45,0,0,0-2.21-12.22c1.31,1.56,2.63,5.24,5.11,5.8-.08-2.25-1.47-6.29-1.51-8.73A37.53,37.53,0,0,1,38.4,26.63Z"/><path class="cls-11" d="M19.15,28.66A30.22,30.22,0,0,0,28,27.77a42,42,0,0,0,8-2.43,4.48,4.48,0,0,0-.6.09C33.91,26.27,22.47,28.69,19.15,28.66Z"/><path class="cls-11" d="M29.7,45.25c.82,2.72-.18,5.56.64,8.38a5.21,5.21,0,0,0,.5-.41c-.07-1-.1-2-.16-3A13.66,13.66,0,0,0,29.7,45.25Z"/><path class="cls-11" d="M34.71,43.92s0-.05,0-.07A20.73,20.73,0,0,1,33,39.67l0,0-.2.16c.13.69.23,1.39.33,2.09a.13.13,0,0,0,0,.06c0-.1,0-.2,0-.31a34.72,34.72,0,0,0,2.51,4.82c-.11-.34-.21-.68-.33-1C35.1,45,34.9,44.44,34.71,43.92Z"/><path class="cls-11" d="M24.75,57.62c0,.07-1.75,1.6-1.8.78,0-.44,1-3.52.93-3.95-1.17,1.49-3.4,2.46-3.21,1.65,0,0,2.91-3.82,3-5.77-.13.17-.59,1.61-.72,1.78-.75,1.6-2.29,2.91-2.93,4.45a3.67,3.67,0,0,0,3.6-1.5c-.45,1.32-1.42,3-1,4.37a11.28,11.28,0,0,0,2.16-1.74S24.75,57.59,24.75,57.62Z"/><path class="cls-11" d="M26.11,32.2a5.75,5.75,0,0,0,3.1-2.44,1.09,1.09,0,0,0,.15-.35A7.37,7.37,0,0,1,26.11,32.2Z"/><path class="cls-11" d="M26.11,34.06c-3.58,2.19-8.29,1.68-8,1.35.56-.72,4.82-1.55,8-3.21-2.85,1.19-6.71,1.66-8.66,3.26,3.55,1.09,5.87.07,8.55-1.21-2.44,4.44-8.38,6.15-14.16,6.94,2,4.56,8.13.77,10.49-.67-.93,2.67-3.56,4.8-3.42,8a9.27,9.27,0,0,1,.93-1.16c-.46.48-.74.68-.66.3.42-1.89,3.94-7.49,3.33-7.53a22.43,22.43,0,0,1-3.88,2.21c-3,.93-6.43.7-6.26-1,0-.25,8.33.58,13.7-6.94C26,34.31,26.47,33.84,26.11,34.06Z"/><path class="cls-11" d="M19.84,47.33l.21-.23Z"/><path class="cls-11" d="M20.05,47.1a28.33,28.33,0,0,0,3.62-3.92c-.5,1.39-.65,3.64-1.4,5.12S20,50.92,19.58,52.41c1.48-2.41,2-1.88,3-4a31.16,31.16,0,0,0,1.6-6C23.5,42.83,21.3,45.72,20.05,47.1Z"/><path class="cls-6" d="M46.42,31c2.12.26,3.6,2.62,5.64,3.36-.29-2.11-2-3.18-3.4-4.39,0,0,1.17.16,1.42.22-1.18-1.32-2.77-1.7-4.12-2.93a11.46,11.46,0,0,0,4.39.19,40.1,40.1,0,0,0-7.53-3.76c1.22-.24,3.66.44,4.6-1-1.29-.92-3.28-.6-4.8-.92A12,12,0,0,1,38,19.49c-1.33.94-2.14,9.5-3,11.8,1.88-.34,3.08-4.74,3-6.8,1.8,2.67-.23,7.79.41,10.93,1.53-2,1.53-4.06,1.49-6.48,1.91,3.62,1.37,8.51.35,12.89,3.11.57,2.51-5.34,2.29-7.61,1.28,1.8,1.83,4.56,3.67,5.84-.76-1.71-1-3.91-1.82-5.62A38,38,0,0,1,47,37.63c.72,1.3,1,3.21,2,4a19.29,19.29,0,0,0,.12-3.18c.88,1.23,1.23,3.1,2,4.33a3.72,3.72,0,0,0,.06-3.16c.64.89,1.34,2.29,2.23,2.62C52.88,37.19,49.47,33.51,46.42,31Z"/><path class="cls-4" d="M38.55,17.42A35.88,35.88,0,0,1,35,20.72c-1.54,1.25-4.74,2.67-6.17,3.79,1.53.91,4.46-.36,6.07-.53a66.54,66.54,0,0,0-8.7,5.25,23,23,0,0,0,5.52-1.45c-1.43,1.38-3.37,2.16-4.57,3.57.3-.13,1.77-.61,1.75-.6-1.48,1.39-3.43,2.75-3.33,4.53,2.43-1.19,3.77-3.53,6.4-4.37-3.29,3-6.79,6.92-6.32,11.12,1.05-.53,1.63-1.86,2.24-2.76a2.14,2.14,0,0,0,.79,2.52c.72-1.22.74-2.82,1.58-4.07a10.33,10.33,0,0,0,.87,2.51c1.13-.94,1-2.55,1.64-3.8a36.61,36.61,0,0,1,2.53-3.32c-.64,1.61-.46,3.45-1,5,2.05-1.57,2.12-3.94,3.35-5.77.23,1.89.79,6.81,4.61,5.43-2.28-3.22-4.06-7-2.45-10.45.49,2,1,3.61,3.34,4.76.11-2.71-3.61-6.21-1.93-8.89.41,1.67,2.92,4.84,5.37,4.55-1.61-1.58-5.58-8.38-5.75-9.51C40.76,18.27,39.83,16.54,38.55,17.42Z"/><path class="cls-5" d="M40.54,17.93A23,23,0,0,0,42.82,23a16.77,16.77,0,0,0,3.69,4.74c-1.61-1.58-5.58-8.38-5.75-9.51A3.09,3.09,0,0,0,40.54,17.93Z"/><path class="cls-5" d="M25.55,34.83a2.26,2.26,0,0,0,0,.45c2.15-1.06,3.45-3,5.55-4a13.28,13.28,0,0,0-3.6,2.11C26.83,33.85,26.19,34.35,25.55,34.83Z"/><path class="cls-5" d="M29.51,28.15l-1.26.53-.79.38a36.54,36.54,0,0,0,4.22-1.28l-.19.17.05,0c.48-.31,1-.62,1.46-.92,0-.06,0-.12,0-.18v0a21.66,21.66,0,0,1-3.44,1.33Z"/><path class="cls-5" d="M28.62,41.24c-.42.51-.88-1.07-.51-2.41-.32.17-1.73,2.29-2,2.5-.54.39-.43-1.25-.38-1.28l-.05,0a7.06,7.06,0,0,0-.05,2c1.05-.53,1.63-1.86,2.24-2.76a2.14,2.14,0,0,0,.79,2.52c.66-1.11.73-2.54,1.38-3.72,0-.15.72-1.12.76-1.27C29.61,37.85,28.62,41.24,28.62,41.24Z"/><path class="cls-5" d="M41,23.48a3.65,3.65,0,0,0,0,2.76,4.71,4.71,0,0,1,.18-3A1.16,1.16,0,0,0,41,23.48Z"/><path class="cls-5" d="M43.07,32.12c.07-1.77-1.49-3.88-2.11-5.88.5,2.42,2,4.91,1.84,5.55-.08.3-2.66-1.72-3-4.58,0-.29-.1.18-.2.2a10,10,0,0,0,2.23,10.22c-1,.94-2.75-.61-3.6-2.54a13,13,0,0,1-.48-3c-.31-.28-2.13,4.32-3.11,5.5-.2.23-.21,0-.13-.48a6.25,6.25,0,0,1-.28,1c2.05-1.57,2.12-3.94,3.35-5.77.23,1.89.79,6.81,4.61,5.43-2.28-3.22-4.06-7-2.45-10.45C40.22,29.32,40.69,31,43.07,32.12Z"/><path class="cls-5" d="M34.5,37.1a1.43,1.43,0,0,0,0-.22A1.43,1.43,0,0,1,34.5,37.1Z"/><path class="cls-5" d="M31.45,39.86c.75-1,.73-2.33,1.28-3.43a36.61,36.61,0,0,1,2.53-3.32,18.6,18.6,0,0,0-.72,3.77c.27-1.32,1-3.87,1-4.41a28.16,28.16,0,0,0-3,3.88C31.67,37.92,32.25,37.9,31.45,39.86Z"/><path class="cls-14" d="M46.34,20.22c.69.15,4.07.09,2.73-.79-.49-.32-1.42-.2-2-.37a6.6,6.6,0,0,1-2.15-1.2,19.25,19.25,0,0,1-3-3.18c-.61-.8-1.51-2.53-2.69-2.41-.1.21-.28.33-.39.54l.19-.19A18.39,18.39,0,0,1,36,17a11.88,11.88,0,0,1-4.66,2.83,30.09,30.09,0,0,0-4.69,1.38c-2.67,1.24.39,1.55,1.77,1.42.31,0,1.76-.37,1.95-.19.49.5-1,.87-1.29,1a6.06,6.06,0,0,0-3.25,2.29c-1.28,2.21,2.56.77,3.41.42a16.63,16.63,0,0,0,3.28-1.54c.62-.42,1.15-1.2,1.8-1.51a41.93,41.93,0,0,1,.93,4.67c.36,1.51,1.81,2.17,2.15.28.27-1.42-.61-3,.35-4.24,1.32-1.63,2,.08,2.95,1.05,1.56,1.65,3.18,1.63,5.29,1.21.25-1.08-1.45-1.65-1.84-2.5,1.78-.23,4.69,2.38,6.09,0C51.29,21.73,47,21.36,46.34,20.22Z"/><path class="cls-6" d="M46.14,16.64a15.65,15.65,0,0,1-1.94-2.05c-.83-1.11-1.79-2.13-2.57-3.25C39.87,8.79,41.4,6,41.57,3.18c.06-1.06.54-4-1.31-3-1.51.81-.93,2.05-.91,3.3A10.84,10.84,0,0,1,39,7.67a6,6,0,0,1-2.81,2.78c-.37.21-3,1.84-1.66,2.18.22.06,1.08-.58,1.29-.68a4,4,0,0,1,1.59-.53,4.43,4.43,0,0,1-.52,3.29c-.27.64-1.36.83-1.89,1.09-1.2.58-3.23,1.33-3.57,2.72.51.55,5-2,4.34-.17-.23.6-1.35,1.06-1.78,1.5s-2.34,1.15-1.6,2,2.49-.46,3.47-1,2.65-1.75,3-.49c.28,1.08-.47,2.67-.47,3.83,0,.83-.14,2.93.47,3.47,1.07-.76,1.16-2.57,1.22-3.75,0-.88-.47-4,.45-4.38.25,1.49,1.14,1.77,2.35,2.54.5.31,2.4,1.4,2.81.44.32-.74-2-2.42-2.44-2.9-.73-.81-1.81-2.05-1.75-3.17,1.73,1.72,3.9,2.84,6.23,1.94C47.75,17.69,46.63,17.09,46.14,16.64Z"/><path class="cls-14" d="M46.15,16.64a15.08,15.08,0,0,1-1.94-2.06c-.83-1.1-1.79-2.12-2.57-3.24C39.88,8.78,41.4,6,41.57,3.18c.06-1,.48-3.56-.94-3.13a1.63,1.63,0,0,1,.23.92c-.08,2.81-1.32,5.64-1,8.44a9.22,9.22,0,0,0,3.38,5.7,30.37,30.37,0,0,0,4.5,3.16C47.62,17.61,46.61,17.06,46.15,16.64Z"/><path class="cls-5" d="M38.52,24.38c.14-1.11.74-4.06.29-4.45-1.09-1-5.36,2.7-6.13,2-1.21-.84,2.32-2,3.15-3.47a.31.31,0,0,0,0-.1c-.22.6-1.34,1.05-1.77,1.49s-2.34,1.15-1.6,2,2.49-.46,3.47-1,2.65-1.75,3-.49c.28,1.08-.47,2.67-.47,3.83,0,.83-.14,2.93.47,3.47a1.56,1.56,0,0,0,.35-.33A4,4,0,0,1,38.52,24.38Z"/><path class="cls-12" d="M46.33,87.08A30.63,30.63,0,0,1,42,79a18.64,18.64,0,0,0-2.67,4.75c.81-.25,1.32-1.06,2-1.48a10.44,10.44,0,0,1,0,5c-.22,1.48-1.28,3.62-1,5,1.45-1,1.82-3.23,2.39-4.76.29,1,.22,2,.51,3a6.81,6.81,0,0,0,1.07-2.47c1,2.1.69,4.54,1,6.77a14.91,14.91,0,0,0,2.34,5.82c1.46-2.55-1.17-6.51-1.16-9A12.76,12.76,0,0,1,49,93.51c-.44-1.78-1.92-3.3-2.47-5.08,1.49,1.23,2.88,3.66,4.78,4.27C51,90.61,47.58,88.77,46.33,87.08Z"/></g></g></svg>