<svg id="レイヤー_1" data-name="レイヤー 1" xmlns="http://www.w3.org/2000/svg" viewBox="0 0 133.88 290.44"><defs><style>.cls-1,.cls-2{fill:none;stroke:#5ea381;stroke-miterlimit:10;}.cls-1{stroke-width:7px;}.cls-2{stroke-width:8px;}.cls-3{fill:#5ea381;}</style></defs><g id="レイヤー_2" data-name="レイヤー 2"><g id="レイヤー_1-2" data-name="レイヤー 1-2"><g id="茎"><path class="cls-1" d="M5.2,50.6A132.65,132.65,0,0,1,31.05,69.27c9.41,8.71,26,24.07,32.48,46.6,8.47,29.63,3.66,60,.17,77.06-1.73,8.4-4.68,19.68-3.93,35.73A139.54,139.54,0,0,0,64.07,256a166.5,166.5,0,0,0,9.83,28.54"/><path class="cls-2" d="M92.76,2.78A128.79,128.79,0,0,0,56.66,97"/><path class="cls-2" d="M131.06,91.35A98,98,0,0,1,87.2,116.91,94.09,94.09,0,0,1,62.83,120"/><path class="cls-2" d="M127,184.55a97.75,97.75,0,0,0-47.51,17.87,94,94,0,0,0-17.81,16.93"/><path class="cls-2" d="M68,177.24a97.84,97.84,0,0,0-43.65-25.91A94.93,94.93,0,0,0,0,148"/></g></g></g><path class="cls-3" d="M61.85,287.23c2.19.78,6.18.31,8.77-.83,8.12-3.56-.46-12.43,1.66-28,1.49-11,7.28-18,5.85-18.21s-8.89,7.1-11.73,15.78c-2.37,7.25-.57,12.42-2.36,12.69S60.53,264,53.53,257.15c-4.71-4.64-9.86-8.3-10.32-8.12s3,3.27,7.92,9.38c3.51,4.35,5.26,6.52,6.51,9.26a29.76,29.76,0,0,1,2.51,10.67C60.38,283.64,59.05,286.24,61.85,287.23Z"/><path class="cls-3" d="M52,287.55a21.9,21.9,0,0,0,8.77-.13c5.24-1.41,1.05-5.24-.63-11.53-1.06-3.94-.58-6.78.09-10.82,1.55-9.24,7.6-15.82,6.52-15.9-.7-.06-3.56,2.66-5.94,5.55-5.19,6.32-4.63,9.33-7.36,17.29C50,282.17,46,286.26,52,287.55Z"/><path class="cls-3" d="M57.42,285.63a18.56,18.56,0,0,1-7.86,3.27c-5.48.66-4.07-4.66-6.35-11.38-1.42-4.21-3.55-6.77-6.57-10.42-6.92-8.33-16.22-12.34-15.31-12.83.58-.32,4.75,1.19,8.58,3.06,8.4,4.1,9.71,7.22,16.9,13.86C56,279.65,62,282.06,57.42,285.63Z"/><path class="cls-3" d="M65,284.49a2.18,2.18,0,0,1-1-1.17c-.26-1.14,1.2-2.5,2.55-5.85.26-.62.8-3.34,1.88-8.79.84-4.22,1.26-6.32,1.53-8.43,1-8.07.17-11.29-.16-12.4-.81-2.72-2-4.78-1.7-4.76s3.66,4.9,5.56,9.47c4.37,10.54.69,17.78,1.62,18,.73.16,1.19-4.84,8.1-9.69,2.35-1.65,5.41-3.26,5.92-3.08s-1.79,1.68-4,4.64-2.64,5.08-3.55,9.37c-.26,1.24-.29,1.69,0,1.78,1,.27,5-3.57,7.63-7.26,3.92-5.46,4.25-9.57,4.93-9.44s.57,4.69-.17,8.65a23.87,23.87,0,0,1-1.84,6.26c-1.83,3.91-4.94,7.52-5.29,7.42-.53-.14,1-9.4,15.09-15.61,7.19-3.15,15.17-4.43,15.78-4.14.82.39-12.55,3.39-19.7,11-.17.18-.32.35-.47.53A30.32,30.32,0,0,0,93.92,277c-2.21,4.43-3.28,7-5,8.69a8.73,8.73,0,0,1-2,1.46,8.42,8.42,0,0,1-2.78.86C80.05,288.61,69.63,288,65,284.49Z"/></svg>