<svg xmlns="http://www.w3.org/2000/svg" viewBox="0 0 133.88 290.44"><defs><style>.cls-1,.cls-2{fill:none;stroke:#5ea381;stroke-miterlimit:10;}.cls-1{stroke-width:7px;}.cls-2{stroke-width:8px;}</style></defs><g id="レイヤー_2" data-name="レイヤー 2"><g id="レイヤー_1-2" data-name="レイヤー 1"><g id="茎"><path class="cls-1" d="M5.2,50.6A132.73,132.73,0,0,1,31.05,69.27c9.41,8.71,26,24.07,32.48,46.6,8.47,29.63,3.66,60,.17,77.06-1.73,8.4-4.68,19.68-3.93,35.73A138.82,138.82,0,0,0,64.07,256a181.16,181.16,0,0,0,11.49,33"/><path class="cls-2" d="M92.76,2.78A128.8,128.8,0,0,0,56.66,97"/><path class="cls-2" d="M131.06,91.35A98,98,0,0,1,87.2,116.91,94.2,94.2,0,0,1,62.83,120"/><path class="cls-2" d="M127,184.55a97.76,97.76,0,0,0-47.51,17.87,94.23,94.23,0,0,0-17.81,16.93"/><path class="cls-2" d="M68,177.24a97.85,97.85,0,0,0-43.65-25.91A94.61,94.61,0,0,0,0,148"/></g></g></g></svg>