<svg xmlns="http://www.w3.org/2000/svg" viewBox="0 0 753.33 603.46"><defs><style>.cls-1,.cls-11,.cls-13{fill:#7c5438;}.cls-13,.cls-2,.cls-5,.cls-8{opacity:0.5;}.cls-3,.cls-5{fill:#ce9f38;}.cls-4{fill:#e5ae41;}.cls-6{fill:#c6bc93;}.cls-7,.cls-8{fill:#968f71;}.cls-9{fill:#c68655;}.cls-10{fill:#da9859;}.cls-11{opacity:0.7;}.cls-12{fill:#f7a969;}</style></defs><g id="レイヤー_2" data-name="レイヤー 2"><g id="Layer_1" data-name="Layer 1"><path class="cls-1" d="M56.88,159.67a22,22,0,1,1,21.95-21.95A22,22,0,0,1,56.88,159.67Zm0-36.86a14.91,14.91,0,1,0,14.91,14.91A14.93,14.93,0,0,0,56.88,122.81Z"/><g class="cls-2"><path class="cls-3" d="M57.12,157.32A19.84,19.84,0,1,1,77,137.48,19.86,19.86,0,0,1,57.12,157.32Zm0-37.33a17.5,17.5,0,1,0,17.49,17.49A17.52,17.52,0,0,0,57.12,120Z"/></g><path class="cls-4" d="M49,120.73a4.35,4.35,0,0,0-3,.43l-1.17.71c-1.76,2.69-4.43,4.39-5.87,7.5a18,18,0,0,0-1.42,5.17c-.25,2,.19,4.59,2,2.12,1.87-2.63,1.54-6.83,3.4-9.62C44.07,125.21,49.36,122.8,49,120.73Z"/><path class="cls-4" d="M75.51,140c-1.77-.42-3,7.11-4.42,8.88-2.59,3.29-5.37,4.42-9.16,5.4l-.71.24c-1.86.07-1.65,1.36,0,1.64.86.14,2.65-.68,3.47-1a17.92,17.92,0,0,0,5.51-3.64C73,149,77.12,144.07,75.51,140Z"/><rect class="cls-1" x="52.54" y="158.73" width="8.69" height="17.14"/><polygon class="cls-5" points="53.71 160.84 53.83 175.17 57.47 175.75 56.76 162.84 53.71 160.84"/><path class="cls-6" d="M64.57,76.78a.59.59,0,0,1,0,.08C64.56,76.94,64.57,76.88,64.57,76.78Z"/><path class="cls-6" d="M84.56,49.9c-2.9.23-15.73,7.75-23.48,16.44-2.15,2.4,0,7.55-2.35,9.62l5.87.47a3.06,3.06,0,0,0,0,.35c1.79-4.11,7.71-7.69,10.89-10.62s8.16-3.35,13.79-8C92.31,53.19,87.83,49.64,84.56,49.9Z"/><path class="cls-6" d="M50.46,84.47l.08.07C50.54,84.62,50.51,84.56,50.46,84.47Z"/><path class="cls-6" d="M21.56,67.54c2.76-.92,17.51,1,28,5.95,2.92,1.38,2.94,7,5.92,8L50.3,84.16a2.2,2.2,0,0,1,.16.31C47.21,81.38,40.37,80.41,36.29,79s-8.82.11-15.84-2C15.71,73.59,18.45,68.58,21.56,67.54Z"/><rect class="cls-6" x="48.33" width="13.15" height="135.25" rx="5.64"/><path class="cls-7" d="M53.31,18.55c2.93-1.85,5.84-4,7.62-7a1.18,1.18,0,0,0-2-1.19c-1.57,2.7-4.18,4.53-6.78,6.16-1.27.8-.1,2.83,1.19,2Z"/><path class="cls-7" d="M53.31,27.62c2.49-1.76,5-3.45,6.68-6.05.83-1.27-1.2-2.45-2-1.19-1.46,2.24-3.69,3.7-5.84,5.22-1.22.87,0,2.9,1.19,2Z"/><path class="cls-7" d="M53.62,38A21.11,21.11,0,0,0,60,32.21c.9-1.22-1.14-2.39-2-1.18a18.25,18.25,0,0,1-5.52,4.9,1.17,1.17,0,0,0,1.18,2Z"/><path class="cls-7" d="M53.31,47.66c2.74-1.71,5.34-3.52,7-6.37a1.17,1.17,0,0,0-2-1.18c-1.46,2.49-3.76,4-6.16,5.52-1.28.8-.1,2.84,1.19,2Z"/><path class="cls-7" d="M53.31,57.37A17.24,17.24,0,0,0,60,51.31c.82-1.28-1.21-2.45-2-1.19a14.85,14.85,0,0,1-5.84,5.22c-1.34.69-.15,2.72,1.19,2Z"/><path class="cls-7" d="M53.62,67.07a23.45,23.45,0,0,0,6.06-5.43c.9-1.22-1.14-2.39-2-1.18A20,20,0,0,1,52.44,65c-1.25.84-.08,2.88,1.18,2Z"/><path class="cls-7" d="M54.49,76.59c2-2,4.1-3.82,5.94-5.94,1-1.14-.66-2.81-1.66-1.67-1.84,2.13-4,4-5.94,6a1.17,1.17,0,0,0,1.66,1.66Z"/><path class="cls-7" d="M54.56,85.54A16,16,0,0,0,60,80.11c.85-1.26-1.18-2.43-2-1.18a13.68,13.68,0,0,1-4.58,4.59c-1.34.71-.16,2.73,1.18,2Z"/><path class="cls-7" d="M54.87,94.94c2.38-1.1,3.94-3.24,5.56-5.2,1-1.15-.69-2.82-1.66-1.66-1.49,1.8-2.9,3.82-5.08,4.83-1.37.63-.18,2.65,1.18,2Z"/><path class="cls-7" d="M54.49,103.83A32.91,32.91,0,0,0,60,98c.89-1.23-1.14-2.4-2-1.19a30.86,30.86,0,0,1-5.13,5.4c-1.16,1,.51,2.63,1.66,1.66Z"/><path class="cls-7" d="M53.66,112.27c3.11.81,5.26-3.46,6.65-5.55.83-1.26-1.2-2.44-2-1.18-.64,1-1.25,2-2,2.88-.38.47-1.31,1.78-2,1.59a1.17,1.17,0,0,0-.62,2.26Z"/><path class="cls-7" d="M55.19,123.11c2.1-1.12,3.31-3.22,4.93-4.88,1.06-1.08-.6-2.74-1.66-1.66-1.46,1.5-2.57,3.51-4.46,4.51-1.33.72-.15,2.75,1.19,2Z"/><path class="cls-7" d="M55.5,131.56A10.55,10.55,0,0,0,59.68,128a1.17,1.17,0,0,0-.42-1.6,1.2,1.2,0,0,0-1.61.42,8.44,8.44,0,0,1-3.33,2.71,1.17,1.17,0,0,0-.43,1.6,1.2,1.2,0,0,0,1.61.42Z"/><path class="cls-7" d="M53.23,10.22A52,52,0,0,0,58.43,4c.88-1.23-1.15-2.4-2-1.19a47.82,47.82,0,0,1-4.83,5.71c-1.06,1.08.6,2.74,1.66,1.66Z"/><path class="cls-6" d="M65.3,73.85c-2.91-.71-6.25.1-8.92,1.36a14.24,14.24,0,0,0-3.51,2.22,15.54,15.54,0,0,0-2.12,2l-1.41.24c-3.06-.18-8.25,2.64-8.92,5.63a8.4,8.4,0,0,0,5.16,9.45c3.59,1.34,8.4-.34,12-1,4.35-.85,7.54-2.69,9.91-6.52C70,83.08,71.54,75.36,65.3,73.85Z"/><path class="cls-8" d="M68.82,76.05c-2.4,1-4.7,4.15-6.32,5.49a43.18,43.18,0,0,1-14.39,7.57,29.05,29.05,0,0,1-7,1.4,8.3,8.3,0,0,0,4.43,4.06c3.59,1.33,8.4-.35,12-1,4.35-.86,7.54-2.69,9.91-6.52C69.34,84,70.64,79.09,68.82,76.05Z"/><path class="cls-7" d="M64.44,73.5a26.7,26.7,0,0,0,3.64-8.26,1.17,1.17,0,0,0-2.26-.63,24.69,24.69,0,0,1-3.41,7.71c-.88,1.23,1.16,2.4,2,1.18Z"/><path class="cls-7" d="M71.72,68.57a57.72,57.72,0,0,0,3-6.81c.6-1.37-1.42-2.57-2-1.18a56.83,56.83,0,0,1-3,6.81,1.17,1.17,0,0,0,2,1.18Z"/><path class="cls-7" d="M79.7,62.94a26.28,26.28,0,0,0,2.7-7.09c.32-1.48-1.94-2.11-2.26-.63a23.9,23.9,0,0,1-2.47,6.53c-.72,1.33,1.31,2.52,2,1.19Z"/><path class="cls-7" d="M85.81,60.12c.72-1.71,1.38-3.45,2.11-5.17.59-1.37-1.44-2.57-2-1.18-.72,1.71-1.38,3.45-2.11,5.16-.58,1.38,1.44,2.58,2,1.19Z"/><path class="cls-7" d="M23.11,76.07a15.6,15.6,0,0,1-2-5.35c-.22-1.49-2.48-.86-2.26.62a17.36,17.36,0,0,0,2.23,5.92,1.17,1.17,0,0,0,2-1.19Z"/><path class="cls-7" d="M28.28,75.84a11.56,11.56,0,0,1-2-4.42c-.26-1.49-2.52-.85-2.27.63a13.29,13.29,0,0,0,2.23,5c.83,1.26,2.87.09,2-1.18Z"/><path class="cls-7" d="M35.61,76.54C34,75.1,32,73.6,31.73,71.27c-.17-1.49-2.52-1.51-2.35,0,.36,3.09,2.33,5,4.57,6.93,1.14,1,2.8-.66,1.66-1.66Z"/><path class="cls-7" d="M43,79.72c-.06-2-.9-3.64-1.45-5.48a1.18,1.18,0,0,0-2.27.63c.49,1.6,1.32,3.14,1.37,4.85a1.18,1.18,0,0,0,2.35,0Z"/><path class="cls-7" d="M48.12,79.41c-.49-1.48-.92-3-1.41-4.46s-2.74-.82-2.26.62.92,3,1.41,4.46,2.74.82,2.26-.62Z"/><path class="cls-1" d="M700.31,159.67a22,22,0,1,1,22-21.95A22,22,0,0,1,700.31,159.67Zm0-36.86a14.91,14.91,0,1,0,14.91,14.91A14.92,14.92,0,0,0,700.31,122.81Z"/><g class="cls-2"><path class="cls-3" d="M700.54,157.32a19.84,19.84,0,1,1,19.84-19.84A19.86,19.86,0,0,1,700.54,157.32Zm0-37.33A17.5,17.5,0,1,0,718,137.48,17.51,17.51,0,0,0,700.54,120Z"/></g><path class="cls-4" d="M692.4,120.73a4.32,4.32,0,0,0-3,.43l-1.18.71c-1.75,2.69-4.43,4.39-5.87,7.5a17.93,17.93,0,0,0-1.41,5.17c-.25,2,.18,4.59,1.94,2.12,1.88-2.63,1.54-6.83,3.41-9.62C687.5,125.21,692.78,122.8,692.4,120.73Z"/><path class="cls-4" d="M718.93,140c-1.77-.42-3,7.11-4.42,8.88-2.58,3.29-5.36,4.42-9.16,5.4l-.7.24c-1.87.07-1.65,1.36,0,1.64.86.14,2.65-.68,3.47-1a18.17,18.17,0,0,0,5.51-3.64C716.37,149,720.55,144.07,718.93,140Z"/><rect class="cls-1" x="695.96" y="158.73" width="8.69" height="17.14"/><polygon class="cls-5" points="697.14 160.84 697.25 175.17 700.89 175.75 700.19 162.84 697.14 160.84"/><path class="cls-6" d="M709.74,76.78a.56.56,0,0,1,0,.08C709.72,76.94,709.73,76.88,709.74,76.78Z"/><path class="cls-6" d="M729.72,49.9c-2.9.23-15.73,7.75-23.48,16.44-2.15,2.4,0,7.55-2.35,9.62l5.87.47a1.83,1.83,0,0,0,0,.35c1.78-4.11,7.7-7.69,10.88-10.62s8.16-3.35,13.8-8C737.47,53.19,733,49.64,729.72,49.9Z"/><path class="cls-6" d="M695.63,84.47l.07.07C695.7,84.62,695.67,84.56,695.63,84.47Z"/><path class="cls-6" d="M666.73,67.54c2.76-.92,17.5,1,28,5.95,2.92,1.38,3,7,5.93,8l-5.22,2.72c0,.06.11.21.16.31-3.25-3.09-10.1-4.06-14.17-5.52-4.23-1.51-8.82.11-15.85-2C660.88,73.59,663.61,68.58,666.73,67.54Z"/><rect class="cls-6" x="693.5" width="13.15" height="135.25" rx="5.64"/><path class="cls-7" d="M698.47,18.55c2.94-1.85,5.84-4,7.63-7a1.18,1.18,0,0,0-2-1.19c-1.58,2.7-4.19,4.53-6.78,6.16-1.28.8-.1,2.83,1.18,2Z"/><path class="cls-7" d="M698.47,27.62c2.49-1.76,5-3.45,6.69-6.05.83-1.27-1.21-2.45-2-1.19-1.46,2.24-3.7,3.7-5.84,5.22-1.23.87,0,2.9,1.18,2Z"/><path class="cls-7" d="M698.79,38a21.23,21.23,0,0,0,6.37-5.75c.89-1.22-1.15-2.39-2-1.18a18.28,18.28,0,0,1-5.53,4.9,1.18,1.18,0,0,0,1.19,2Z"/><path class="cls-7" d="M698.47,47.66c2.74-1.71,5.34-3.52,7-6.37a1.17,1.17,0,0,0-2-1.18c-1.45,2.49-3.76,4-6.15,5.52-1.28.8-.1,2.84,1.18,2Z"/><path class="cls-7" d="M698.47,57.37a17.2,17.2,0,0,0,6.69-6.06c.82-1.28-1.22-2.45-2-1.19a14.92,14.92,0,0,1-5.84,5.22c-1.35.69-.16,2.72,1.18,2Z"/><path class="cls-7" d="M698.79,67.07a23.24,23.24,0,0,0,6.05-5.43c.9-1.22-1.14-2.39-2-1.18A20.23,20.23,0,0,1,697.6,65c-1.25.84-.08,2.88,1.19,2Z"/><path class="cls-7" d="M699.65,76.59c2-2,4.1-3.82,6-5.94,1-1.14-.67-2.81-1.66-1.67-1.85,2.13-4,4-6,6a1.17,1.17,0,0,0,1.66,1.66Z"/><path class="cls-7" d="M699.73,85.54a16.12,16.12,0,0,0,5.43-5.43c.85-1.26-1.19-2.43-2-1.18a13.71,13.71,0,0,1-4.59,4.59c-1.34.71-.15,2.73,1.19,2Z"/><path class="cls-7" d="M700,94.94c2.37-1.1,3.94-3.24,5.56-5.2,1-1.15-.7-2.82-1.66-1.66-1.49,1.8-2.9,3.82-5.09,4.83-1.37.63-.18,2.65,1.19,2Z"/><path class="cls-7" d="M699.65,103.83A33,33,0,0,0,705.16,98c.89-1.23-1.15-2.4-2-1.19a30.92,30.92,0,0,1-5.14,5.4c-1.16,1,.51,2.63,1.66,1.66Z"/><path class="cls-7" d="M698.82,112.27c3.12.81,5.27-3.46,6.65-5.55.84-1.26-1.2-2.44-2-1.18-.64,1-1.25,2-2,2.88-.37.47-1.3,1.78-2,1.59a1.17,1.17,0,0,0-.63,2.26Z"/><path class="cls-7" d="M700.35,123.11c2.1-1.12,3.32-3.22,4.94-4.88,1.05-1.08-.61-2.74-1.67-1.66-1.45,1.5-2.57,3.51-4.45,4.51-1.34.72-.15,2.75,1.18,2Z"/><path class="cls-7" d="M700.66,131.56a10.49,10.49,0,0,0,4.18-3.55,1.17,1.17,0,0,0-.42-1.6,1.18,1.18,0,0,0-1.6.42,8.4,8.4,0,0,1-3.34,2.71,1.17,1.17,0,0,0-.42,1.6,1.19,1.19,0,0,0,1.6.42Z"/><path class="cls-7" d="M698.4,10.22A52.89,52.89,0,0,0,703.59,4c.89-1.23-1.15-2.4-2-1.19a48.68,48.68,0,0,1-4.82,5.71,1.17,1.17,0,0,0,1.66,1.66Z"/><path class="cls-6" d="M710.47,73.85c-2.91-.71-6.25.1-8.92,1.36A14.3,14.3,0,0,0,698,77.43a16.21,16.21,0,0,0-2.12,2l-1.41.24c-3-.18-8.25,2.64-8.92,5.63a8.42,8.42,0,0,0,5.16,9.45c3.59,1.34,8.4-.34,12-1,4.35-.85,7.54-2.69,9.91-6.52C715.21,83.08,716.71,75.36,710.47,73.85Z"/><path class="cls-8" d="M714,76.05c-2.41,1-4.7,4.15-6.33,5.49a43.14,43.14,0,0,1-14.38,7.57,29.25,29.25,0,0,1-7,1.4,8.25,8.25,0,0,0,4.42,4.06c3.59,1.33,8.4-.35,12-1,4.35-.86,7.54-2.69,9.91-6.52C714.5,84,715.8,79.09,714,76.05Z"/><path class="cls-7" d="M709.6,73.5a26.24,26.24,0,0,0,3.64-8.26,1.17,1.17,0,0,0-2.26-.63,24.9,24.9,0,0,1-3.4,7.71c-.89,1.23,1.15,2.4,2,1.18Z"/><path class="cls-7" d="M716.88,68.57a57.78,57.78,0,0,0,3.06-6.81c.59-1.37-1.43-2.57-2-1.18a60.18,60.18,0,0,1-3,6.81,1.17,1.17,0,0,0,2,1.18Z"/><path class="cls-7" d="M724.87,62.94a26.62,26.62,0,0,0,2.7-7.09c.31-1.48-2-2.11-2.27-.63a24.2,24.2,0,0,1-2.46,6.53c-.72,1.33,1.3,2.52,2,1.19Z"/><path class="cls-7" d="M731,60.12c.73-1.71,1.39-3.45,2.11-5.17.59-1.37-1.43-2.57-2-1.18-.73,1.71-1.39,3.45-2.12,5.16-.58,1.38,1.44,2.58,2,1.19Z"/><path class="cls-7" d="M668.28,76.07a15.62,15.62,0,0,1-2-5.35c-.22-1.49-2.48-.86-2.26.62a17.57,17.57,0,0,0,2.23,5.92,1.18,1.18,0,0,0,2-1.19Z"/><path class="cls-7" d="M673.44,75.84a11.71,11.71,0,0,1-2-4.42c-.25-1.49-2.52-.85-2.27.63a13.15,13.15,0,0,0,2.24,5c.83,1.26,2.86.09,2-1.18Z"/><path class="cls-7" d="M680.77,76.54c-1.65-1.44-3.61-2.94-3.88-5.27-.17-1.49-2.52-1.51-2.35,0,.36,3.09,2.34,5,4.57,6.93,1.14,1,2.81-.66,1.66-1.66Z"/><path class="cls-7" d="M688.16,79.72c-.06-2-.89-3.64-1.45-5.48a1.17,1.17,0,0,0-2.26.63c.48,1.6,1.31,3.14,1.36,4.85.05,1.51,2.4,1.51,2.35,0Z"/><path class="cls-7" d="M693.29,79.41c-.49-1.48-.92-3-1.41-4.46s-2.74-.82-2.27.62.92,3,1.41,4.46,2.74.82,2.27-.62Z"/><rect class="cls-9" x="36.66" y="556.13" width="713.27" height="47.14"/><path class="cls-10" d="M36.66,565.85c6.15-.15,12.47-.16,15.47-.07,22.06.66,43.56,1.83,65.67,2.21,28.15.48,56,0,84.68,0,16.62,0,32.49-.24,49,.33,18,.63,35.43,1.84,53.69,1.89,33.65.08,68.24.63,101.73,1.58,30.08.86,59,1.92,88.93,3.4,19.82,1,43.12.4,62,2.34-.92,4.19-41.58,6.28-52.29,7-23.23,1.51-46.42,1.82-70.34,1.82-42.13,0-84-1.93-126.11-1.9s-78.92-4.63-121-4.63c-33.8,0-69.6,6.8-102.66,9.14-13.92,1-30.41-4.08-47.26-3.95l-.85,8.55c28.25-2.21,44.53,4.13,80.45-2.21,31.16-5.5,68,10.29,98.74,8.83,20-.95,40.09-2.35,61-1.75,23.21.66,46.59,2.25,69.79,2.77,44.58,1,91.88-1,139.34-1.51,19.91-.23,42.86-2.24,63.64-2.84,25.08-.73,51.79.24,77.17.24,29.15,0,58-.44,86.88.62,12.15.44,23.42,1.71,35.49,2.07V579.54c-36.63-.34-73.9.61-109.93,2.11-35.43,1.48-65.17,6.46-98.54,9.79-36.38,3.64-73,3.59-110.4,3.09-37-.48-74.11.56-111.23-.07-21-.35-51-2.05-71.26.07,0,0-90-2.7-83.32-5.16,21.66-7.91,94.75-1.67,102.87-1.67,16.92,0,38.88,1.67,55.8,1.67,35.7,0,65.09,1.7,101.31,2.32,32.83.56,69.25,2.45,99.59-2.13,15.21-2.29,31.25-4.75,46.85-6.63s30.14-2.91,45.89-4.52c25.24-2.58,47.41-4.52,73.93-5.38,19-.61,38.9-1.49,58.44-1.19v-5.18c-2.16,0-3.89,0-4.72,0-30.31.94-61.17,1.25-91.55,1.85-37.92.74-75.26,4.08-113.25,2.21-17.72-.87-35-2.87-52.59-4-23-1.52-45.91-1.27-69.4-1.27-18.92,0-37.85,0-56.62.31-11.13.19-24.35.43-35.14-.31l-37.09.31a5.53,5.53,0,0,0-1.64-.9c11.13.15,21.43-1,32.88-1s22.91.13,34.16.31c33.45.56,65.74-1.71,99.57-1.26,38.12.5,73.26,5.37,112,5.37,18.82,0,34.43-1.63,52.66-2.54,21-1,43.28,0,64.42-.61,19-.59,37.58-.95,56.89-1.26,1.47,0,5.15-.19,9.38-.32V559H36.66Z"/><rect class="cls-9" x="36.59" y="188.91" width="713.27" height="138.76"/><path class="cls-10" d="M745.36,274.68c-9.75,1.39-32.39,2.56-38.16,6.15,4,1.66,26.65-1.57,42.66-2.5v-4.15C748.14,274.35,746.53,274.51,745.36,274.68Z"/><path class="cls-10" d="M36.59,202.75v22.69c6.18.09,12.1.23,16.69.13,15.39-.31,29.05-1.81,43.92-2.88,32.66-2.36,65-2.05,98.59-2,34.36,0,68.46-3.72,103.47-3.68,35.48,0,69.66,1.89,105.21,3.18,21.89.8,44.25.5,66.38.5,10.46,0,43.79-.36,47.92-4.84-15.91-.87-32.26-1.74-48.44-2.14-28-.68-55.74-1.32-83.43-2.41-33.84-1.33-68.25-.67-102.28-1.25-27.91-.47-55.4-3.13-83.19-3.27-19.31-.1-37.86,1.64-57.16,1.63-16.19,0-32.3-.18-48.24-.83C76.29,206.76,55.71,205.19,36.59,202.75Z"/><path class="cls-10" d="M99.13,282.37c17.17.72,34.43-1.13,51.76-1.13,13.64,0,27.4-.23,41,0,39.66.65,78.42,6.36,118.07,7,18.6.28,36,1.1,53.71,2.47,14.61,1.14,31.8.23,45.73,2.09-.48,5.38-53.16-.07-61.37-.57-26.24-1.61-53.82-.78-80.22-1.93-33-1.42-67-4.35-100.39-3.7-29.15.57-56.74,2.17-86.1,1.64-15.08-.28-29.9.08-44.75.4v17.18c4.25.09,8.4.18,11.8,0,18.3-.85,35.65-4,52.93-6.05,65.32-7.91,127.31,9.41,194,5.21,34.72-2.19,71.51-2.23,107.37-1.62,34.6.59,65-4,98.59-5.31,40.25-1.58,75.1,4.92,114.21,6.54,17.13.7,35.49.52,52.66.83,24.27.43,47,2.65,71.55.28,3.44-.33,6.79-.69,10.12-1v-7.33c-4.5.54-9,1.17-13,1.52-12.7,1.08-24.81,2-37.58,2.46-27.22,1.07-56.47-1.32-82.78-4.6-28.48-3.55-53.49-4.81-83.16-4.81-30.16,0-58.32-.55-87.36-4-38.68-4.59-74.06-10-113.21-12a387.59,387.59,0,0,0,52.15-4.4c31-4.65,59.88-7.34,93-5.85,34.41,1.55,69.86,5.57,104.71,3.81,34.29-1.73,68.08-6.32,102.2-8.62,21.63-1.45,43.15-2.61,65.05-2V245.3c-4,0-7.74-.08-11.09-.08-33.45,0-67.39.73-100.77-.08-43.06-1-85-3-128.16-.66-20.8,1.12-41.39,3.33-62.4,3.62-22.83.32-45.63-.33-68.42-.41-41.84-.16-82.71-4-124.71-3.2-36.69.74-71.28,4.82-107.38,6.77-26.26,1.41-53.05.14-79,1.62-10.73.62-20.7,1.18-31.34,1.31v24C57.61,278.21,78.51,281.51,99.13,282.37ZM248.5,259.54c17.16.37,34.19,1.23,51.74,1.23,6.61,0,18.63-.88,24.4.4,8.84,2,2.69,4.43-4.82,5.77-14.16,2.51-35.21,1.06-50.82,1.61-16.43.58-29.61.79-44.9-.82l-2.93-.41c-8.78-2-6.94-5.34,1-7C229.09,259,240.6,259.38,248.5,259.54ZM172.39,273c-15.82-4.29-13.56-10.29,1.71-14.32,25.63-6.78,63.84-7,93.71-6.36,7.33.15,16.1.25,23.64.73,7.15.44,20.6,2.2,6.84,3.27-7.2.56-15.43-1-22.45-1.23-7.86-.29-16.53-.16-24.41,0-14.64.31-32.45.37-46.8,1.65-13.24,1.19-30.61,7.66-16.91,13.19,11,4.44,31.81,3.17,46.14,3.17,16,0,31.53-.41,47.83-.41l6.84-.41c5.77.46,13.59.35,17.69,2.45-7.71,4.35-33.13,3.83-45,4.1-15.13.34-31.82-.53-46.87-1.22C200.87,277,184.3,276.18,172.39,273Z"/><path class="cls-10" d="M746.1,263.64c-23.71.32-48.32,2-71.73,3.78-24.77,1.88-48.49,5.53-73.53,6.36-36.27,1.2-72.61-.88-108.25-2.39-16.92-.71-34.5-1.58-51.79-1.22-7.84.16-40.52.55-44,4.41a12.89,12.89,0,0,1-1.46.94c30.63,6.46,67.75,10.39,101.84,11,39.73.75,87-4,123.18,3.27,24.52,4.93,43.28,8.66,71.26,6.53,19.38-1.48,38.78-4.05,58.24-5.61v-8c-15.53,1-31.55,3.55-46.5,4.25-20.21.94-38.29-.88-58.4-1.3-.69-5,37.93-6.89,46.71-8.23,15.21-2.31,28.72-6.11,44.9-7.26,3.1-.22,8.55-.88,13.29-1v-5.55C748.25,263.65,746.93,263.63,746.1,263.64Z"/><path class="cls-10" d="M743.41,310.3c-18.45.39-37.17,0-55.64,0-35.79,0-68.27-2.05-103.47-4.4-38.5-2.58-74.18-5.84-113-1.63-46.85,5.08-94.56,1.08-142.46,3.66-28.92,1.56-54.8,3-84,1.24-25.7-1.53-51.31-3.64-77.14-4.7-34.25-1.41-61.22.76-93.68,4.91-12.25,1.56-24.77,2.86-37.43,3.58v5.28l3-.16c12-.75,23.32-1.89,35.11-2.88,24.14-2,50.06-.81,75.19-.81,32.78,0,65,1.36,97.62,2.05,16.09.34,32.24.83,48.8.82,15.72,0,29.09,1.78,44.91,2,39.23.66,79.84.49,118.11-1.61C498.12,315.55,538,316,577.7,316c16.67,0,32.92-.12,48.57,1.2,17.8,1.5,34,3.71,52.72,3.71,17,0,33.37,1.11,49.78.42,5.06-.21,13.07-1,21.09-1.5v-9.68Z"/><path class="cls-10" d="M36.59,197.85c6.15-.21,12.47-.22,15.47-.1,22.06.86,43.56,2.37,65.67,2.86,28.16.62,56,0,84.68,0,16.62,0,32.49-.33,49,.42,18,.81,35.43,2.38,53.69,2.44,33.65.11,68.25.82,101.74,2.06,30.07,1.1,59,2.48,88.92,4.39,19.82,1.26,43.12.52,62,3-.91,5.42-41.58,8.13-52.29,9-23.22,2-46.42,2.36-70.34,2.36-42.13,0-84-2.5-126.11-2.46s-83,2.86-125,2.86c-33.79,0-65.53-.05-98.59,3-13.91,1.28-32,2.81-48.84,3v21.42c28.25-2.86,56.88-3.65,86.75-4.86,31.63-1.29,62.48-3.12,93.17-5,20-1.23,40.1-3,61-2.27,23.21.86,46.59,2.92,69.79,3.59,44.58,1.28,96.66,3.95,139.34-2,19.81-2.74,42.86-2.91,63.64-3.69,25.08-.94,51.79.32,77.17.32,29.15,0,58-.57,86.88.8,12.16.57,23.42,2.21,35.49,2.69V215.57c-36.63-.44-73.9.79-109.93,2.74-35.43,1.91-65.17,8.36-98.53,12.68-36.38,4.7-73,4.63-110.41,4-37-.63-74.11.71-111.23-.09-21-.46-51-2.66-71.26.09l-1.95,1.63c-4-.53-8.86-.07-12.64-.84-10.52-2.13,1.57-2.72,8.74-2.84,8.1-.13,16.29,0,24.4,0h50.76c35.69,0,71.13-2.44,107.35-1.64,32.83.73,69.25,3.17,99.59-2.75,15.21-3,31.25-6.15,46.86-8.59s30.13-3.76,45.88-5.85c25.24-3.34,47.41-5.85,73.94-7,19-.8,38.89-1.94,58.43-1.55v-6.71c-2.16,0-3.89,0-4.72.06-30.31,1.21-61.17,1.62-91.55,2.38-37.92,1-75.25,5.29-113.24,2.87-17.73-1.13-35-3.72-52.59-5.22-23-2-45.92-1.65-69.4-1.65-18.93,0-37.85,0-56.63.41-11.13.25-24.35.56-35.14-.41l-37.09.41c-.54-.39-.71-.82-1.64-1.16,11.14.19,21.43-1.31,32.88-1.29s22.91.16,34.16.4c33.45.72,65.75-2.21,99.57-1.63,38.12.65,73.27,7,112,7,18.82,0,34.43-2.12,52.66-3.29,21-1.35,43.28.05,64.42-.8,19-.76,37.58-1.22,56.89-1.62,1.48,0,5.15-.26,9.38-.42v-6H36.59Z"/><path class="cls-10" d="M748.34,322.58c-22.63,0-44.55-.26-66.68-1.23-14.1-.62-28.24-.56-42.48-.82-15.42-.29-30.64-1.65-46.15-1.64-31.95,0-64-.37-95.66.91-29.51,1.2-57.93,2.46-87.85,2-37.08-.63-73.75-1.64-111-1.64-33.48,0-67.42,1.13-100.76.42-17.12-.37-33.87-2.15-51-2.87-16.79-.72-32.88-.18-49.57.5-21.14.87-40.6,2.71-60.61,4.87v4.63H749.86v-5.09Z"/><rect class="cls-9" x="36.59" y="323.36" width="713.27" height="138.76"/><path class="cls-10" d="M745.36,376.35c-9.75-1.4-32.39-2.57-38.16-6.15,4-1.67,26.65,1.57,42.66,2.5v4.15C748.14,376.67,746.53,376.51,745.36,376.35Z"/><path class="cls-10" d="M36.59,448.27V425.59c6.18-.09,12.1-.23,16.69-.14,15.39.31,29.05,1.82,43.92,2.89,32.66,2.35,65,2,98.59,2,34.36,0,68.46,3.73,103.47,3.69,35.48,0,69.66-1.89,105.21-3.19,21.89-.79,44.25-.5,66.38-.5,10.46,0,43.79.37,47.92,4.84-15.91.87-32.26,1.75-48.44,2.14-28,.68-55.74,1.32-83.43,2.41-33.84,1.34-68.25.68-102.28,1.25-27.9.48-55.4,3.14-83.19,3.28-19.31.1-37.86-1.65-57.16-1.64-16.19,0-32.3.19-48.24.83C76.29,444.26,55.71,445.83,36.59,448.27Z"/><path class="cls-10" d="M36.59,372.85v24c10.64.14,20.61.7,31.34,1.31,25.95,1.49,52.74.21,79,1.63,36.1,1.94,70.69,6,107.38,6.76,42,.84,82.87-3,124.71-3.19,22.79-.09,45.59-.74,68.42-.42,21,.29,41.6,2.51,62.4,3.62,43.12,2.32,85.1.39,128.16-.65,33.38-.81,67.32-.07,100.77-.08,3.35,0,7.11-.05,11.09-.08v-13.6c-21.9.65-43.42-.51-65.05-2-34.12-2.3-67.91-6.88-102.2-8.62-34.85-1.76-70.3,2.26-104.71,3.81-33.12,1.49-62-1.2-93-5.84a384.35,384.35,0,0,0-52.15-4.4c39.15-2,74.53-7.39,113.21-12,29-3.45,57.2-4,87.36-4a642.6,642.6,0,0,0,83.16-4.81c26.31-3.28,55.56-5.68,82.78-4.61,12.77.5,24.88,1.38,37.58,2.47,4.06.35,8.52,1,13,1.51v-7.33c-3.33-.35-6.68-.71-10.12-1-24.5-2.37-47.28-.14-71.55.29-17.17.31-35.53.12-52.66.83-39.11,1.62-74,8.12-114.21,6.54-33.58-1.32-64-5.9-98.59-5.31-35.86.61-72.65.56-107.37-1.62-66.73-4.2-128.72,13.11-194,5.21-17.28-2.09-34.63-5.2-52.93-6-3.4-.16-7.55-.07-11.8,0v17.18c14.85.33,29.67.69,44.75.41,29.37-.54,56.95,1.07,86.1,1.63,33.41.66,67.41-2.27,100.39-3.7,26.4-1.14,54-.31,80.22-1.92,8.21-.51,60.89-5.95,61.37-.57-13.93,1.86-31.12,1-45.73,2.08-17.74,1.38-35.11,2.2-53.71,2.48-39.65.6-78.41,6.31-118.06,7-13.63.22-27.39,0-41,0-17.33,0-34.59-1.86-51.76-1.14C78.51,369.51,57.61,372.81,36.59,372.85ZM222.2,390.66c-8-1.61-9.81-4.93-1-7l2.93-.41c15.29-1.61,28.47-1.39,44.9-.81,15.61.55,36.66-.91,50.82,1.61,7.51,1.34,13.66,3.8,4.82,5.76-5.77,1.28-17.79.4-24.4.4-17.55,0-34.58.87-51.74,1.23C240.6,391.65,229.09,392.06,222.2,390.66Zm-7.88-17.2c15.05-.69,31.74-1.56,46.87-1.22,11.9.27,37.32-.24,45,4.11-4.1,2.1-11.92,2-17.69,2.44l-6.84-.41c-16.3,0-31.79-.41-47.83-.41-14.33,0-35.13-1.27-46.14,3.18-13.7,5.52,3.67,12,16.91,13.18,14.35,1.29,32.16,1.35,46.8,1.65,7.88.17,16.55.29,24.41,0,7-.26,15.25-1.78,22.45-1.23,13.76,1.07.31,2.83-6.84,3.28-7.54.47-16.31.58-23.64.73-29.87.59-68.08.41-93.71-6.36-15.27-4-17.53-10-1.71-14.33C184.3,374.84,200.87,374.08,214.32,373.46Z"/><path class="cls-10" d="M746.1,387.39c-23.71-.32-48.32-2-71.73-3.79-24.77-1.88-48.49-5.52-73.53-6.35-36.27-1.21-72.61.87-108.25,2.38-16.92.72-34.5,1.58-51.79,1.23-7.84-.16-40.52-.55-44-4.41a11.63,11.63,0,0,0-1.46-.94c30.63-6.46,67.75-10.39,101.84-11,39.73-.76,87,4,123.18-3.28,24.52-4.92,43.28-8.65,71.26-6.52,19.38,1.47,38.78,4.05,58.24,5.6v8c-15.53-1-31.55-3.56-46.5-4.25-20.21-.95-38.29.87-58.4,1.3-.69,4.95,37.93,6.89,46.71,8.22,15.21,2.32,28.72,6.11,44.9,7.27,3.1.22,8.55.88,13.29,1v5.54C748.25,387.38,746.93,387.4,746.1,387.39Z"/><path class="cls-10" d="M743.41,340.73c-18.45-.39-37.17,0-55.64,0-35.79,0-68.27,2-103.47,4.4-38.5,2.57-74.18,5.83-113,1.62-46.85-5.07-94.56-1.07-142.46-3.66-28.92-1.56-54.8-3-84-1.24-25.7,1.54-51.31,3.65-77.14,4.71-34.25,1.4-61.22-.77-93.68-4.91-12.25-1.57-24.77-2.87-37.43-3.59v-5.27c1.11,0,2.14.1,3,.16,12,.74,23.32,1.89,35.11,2.88,24.14,2,50.06.81,75.19.8,32.78,0,65-1.36,97.62-2,16.09-.34,32.24-.84,48.8-.82,15.72,0,29.09-1.78,44.91-2,39.23-.66,79.84-.49,118.11,1.62C498.12,335.47,538,335,577.7,335c16.67,0,32.92.11,48.57-1.21,17.8-1.5,34-3.7,52.72-3.7,17,0,33.37-1.11,49.78-.42,5.06.21,13.07,1,21.09,1.49v9.69Z"/><path class="cls-10" d="M36.59,453.18c6.15.2,12.47.21,15.47.09,22.06-.86,43.56-2.36,65.67-2.85,28.16-.63,56,0,84.68,0,16.62,0,32.49.32,49-.42,18-.81,35.43-2.39,53.69-2.45,33.65-.11,68.25-.82,101.74-2.05,30.07-1.11,59-2.49,88.92-4.39,19.82-1.27,43.12-.52,62-3-.91-5.43-41.58-8.13-52.29-9-23.22-2-46.42-2.35-70.34-2.35-42.13,0-84,2.5-126.11,2.46s-83-2.87-125-2.87c-33.79,0-65.53.05-98.59-3-13.91-1.27-32-2.81-48.84-3V398.89c28.25,2.87,56.88,3.65,86.75,4.87,31.63,1.28,62.48,3.11,93.17,5,20,1.24,40.1,3.05,61,2.28,23.21-.86,46.59-2.93,69.79-3.6,44.58-1.28,96.66-3.94,139.34,2,19.81,2.74,42.86,2.9,63.64,3.68,25.08.94,51.79-.32,77.17-.32,29.15,0,58,.57,86.88-.79,12.16-.58,23.42-2.22,35.49-2.69v26.18c-36.63.44-73.9-.8-109.93-2.74-35.43-1.92-65.17-8.37-98.53-12.68-36.38-4.71-73-4.64-110.41-4-37,.63-74.11-.72-111.23.09-21,.46-51,2.66-71.26-.09l-1.95-1.64c-4,.53-8.86.07-12.64.84-10.52,2.13,1.57,2.73,8.74,2.84,8.1.14,16.29,0,24.4,0h50.76c35.69,0,71.13,2.45,107.35,1.64,32.83-.73,69.25-3.17,99.59,2.75,15.21,3,31.25,6.15,46.86,8.6s30.13,3.76,45.88,5.84c25.24,3.35,47.41,5.86,73.94,7,19,.79,38.89,1.93,58.43,1.55v6.7c-2.16,0-3.89,0-4.72-.05-30.31-1.21-61.17-1.62-91.55-2.39-37.92-1-75.25-5.29-113.24-2.87-17.73,1.14-35,3.72-52.59,5.22-23,2-45.92,1.65-69.4,1.65-18.93,0-37.85,0-56.63-.4-11.13-.25-24.35-.56-35.14.4l-37.09-.41c-.54.39-.71.83-1.64,1.17,11.14-.2,21.43,1.3,32.88,1.29s22.91-.17,34.16-.41c33.45-.72,65.75,2.21,99.57,1.64,38.12-.65,73.27-7,112-7,18.82,0,34.43,2.11,52.66,3.28,21,1.36,43.28-.05,64.42.8,19,.77,37.58,1.23,56.89,1.63,1.48,0,5.15.25,9.38.41v6H36.59Z"/><path class="cls-10" d="M748.34,328.45c-22.63,0-44.55.26-66.68,1.22-14.1.62-28.24.56-42.48.82-15.42.29-30.64,1.66-46.15,1.64-31.95,0-64,.37-95.66-.91-29.51-1.19-57.93-2.46-87.85-2-37.08.62-73.75,1.63-111,1.63-33.48,0-67.42-1.13-100.76-.41-17.12.36-33.87,2.14-51,2.87-16.79.72-32.88.17-49.57-.51-21.14-.86-40.6-2.7-60.61-4.87v-4.62H749.86v5.09Z"/><rect class="cls-9" x="36.59" y="462.81" width="713.27" height="138.76"/><path class="cls-10" d="M41.09,548.58c9.75,1.39,32.39,2.56,38.17,6.15-4,1.66-26.65-1.57-42.67-2.5v-4.15C38.31,548.25,39.93,548.41,41.09,548.58Z"/><path class="cls-10" d="M749.86,476.65v22.69c-6.17.09-12.09.23-16.68.13-15.4-.3-29.06-1.81-43.93-2.88-32.66-2.36-65-2-98.59-2-34.35,0-68.45-3.72-103.47-3.68-35.48,0-69.66,1.89-105.21,3.18-21.88.8-44.25.5-66.37.5-10.47,0-43.8-.36-47.93-4.84,15.92-.87,32.26-1.74,48.45-2.14,28-.68,55.73-1.32,83.42-2.41,33.84-1.33,68.25-.67,102.28-1.25,27.91-.47,55.4-3.13,83.19-3.27,19.32-.1,37.86,1.64,57.16,1.63,16.2,0,32.3-.18,48.24-.82C710.17,480.66,730.74,479.09,749.86,476.65Z"/><path class="cls-10" d="M749.86,552.08v-24c-10.64-.13-20.61-.69-31.33-1.31-25.95-1.48-52.75-.21-79-1.62-36.09-1.95-70.69-6-107.38-6.77-42-.84-82.87,3-124.7,3.2-22.79.08-45.6.73-68.43.41-21-.29-41.6-2.5-62.4-3.62-43.12-2.32-85.1-.39-128.16.66-33.37.81-67.32.07-100.76.08-3.36,0-7.12,0-11.1.08v13.59c21.9-.64,43.42.52,65.05,2,34.12,2.3,67.91,6.89,102.2,8.62,34.85,1.76,70.3-2.26,104.71-3.81,33.13-1.49,62,1.2,93,5.85a387.88,387.88,0,0,0,52.16,4.4c-39.16,2-74.54,7.38-113.21,12-29.05,3.44-57.2,4-87.37,4-29.66,0-54.67,1.26-83.16,4.81-26.31,3.28-55.56,5.67-82.78,4.6-12.76-.5-24.87-1.38-37.57-2.46-4.07-.35-8.53-1-13-1.52v7.33c3.33.35,6.69.71,10.12,1,24.51,2.37,47.29.15,71.55-.28,17.18-.31,35.54-.13,52.66-.83,39.11-1.62,74-8.12,114.21-6.54,33.58,1.32,64,5.9,98.59,5.31,35.86-.61,72.65-.57,107.37,1.62,66.73,4.2,128.72-13.12,194-5.21,17.28,2.09,34.64,5.2,52.93,6.05,3.4.16,7.55.07,11.8,0V562.5c-14.84-.32-29.67-.68-44.75-.4-29.36.53-57-1.07-86.09-1.64-33.42-.65-67.42,2.28-100.4,3.7-26.4,1.15-54,.32-80.22,1.93-8.21.5-60.89,5.95-61.37.57,13.93-1.86,31.13-.95,45.73-2.09,17.75-1.37,35.12-2.19,53.71-2.47,39.65-.6,78.42-6.31,118.07-7,13.62-.23,27.38,0,41,0,17.34,0,34.59,1.85,51.77,1.13C708,555.41,728.84,552.11,749.86,552.08ZM564.25,534.26c8,1.62,9.81,4.94,1,7l-2.93.41c-15.29,1.61-28.47,1.4-44.9.82-15.61-.55-36.65.9-50.81-1.61-7.52-1.34-13.67-3.81-4.83-5.77,5.78-1.28,17.8-.4,24.4-.4,17.55,0,34.58-.86,51.74-1.22C545.86,533.28,557.36,532.87,564.25,534.26Zm7.89,17.2c-15.06.69-31.75,1.56-46.88,1.22-11.9-.27-37.31.25-45-4.1,4.09-2.1,11.91-2,17.69-2.45l6.83.41c16.3,0,31.79.41,47.83.41,14.33,0,35.13,1.27,46.14-3.17,13.7-5.53-3.67-12-16.9-13.19-14.36-1.28-32.17-1.34-46.81-1.65-7.88-.16-16.54-.29-24.4,0-7,.26-15.25,1.79-22.45,1.23-13.76-1.07-.32-2.83,6.83-3.27,7.54-.48,16.31-.58,23.64-.73,29.88-.6,68.08-.42,93.72,6.36,15.26,4,17.52,10,1.7,14.32C602.16,550.08,585.58,550.85,572.14,551.46Z"/><path class="cls-10" d="M40.36,537.54c23.7.32,48.31,2,71.72,3.78,24.77,1.88,48.49,5.53,73.54,6.36,36.26,1.2,72.6-.87,108.24-2.39,16.92-.71,34.51-1.58,51.79-1.22,7.85.16,40.53.55,44,4.41a12.89,12.89,0,0,0,1.46.94c-30.63,6.46-67.75,10.39-101.84,11-39.72.75-87-4-123.18,3.27-24.52,4.93-43.27,8.66-71.26,6.53-19.38-1.48-38.78-4-58.24-5.61v-8c15.54,1,31.56,3.55,46.5,4.25,20.21.94,38.3-.88,58.4-1.3.69-5-37.93-6.89-46.71-8.23-15.21-2.31-28.72-6.11-44.9-7.26-3.1-.22-8.55-.88-13.29-1v-5.55C38.2,537.55,39.52,537.53,40.36,537.54Z"/><path class="cls-10" d="M43.05,584.2c18.44.39,37.16,0,55.63,0,35.79,0,68.28-2.05,103.48-4.4,38.49-2.58,74.17-5.84,113-1.63,46.85,5.08,94.57,1.08,142.46,3.66,28.92,1.56,54.8,3,84,1.24,25.71-1.53,51.31-3.64,77.14-4.7,34.25-1.41,61.22.76,93.69,4.91,12.25,1.56,24.76,2.86,37.42,3.58v5.28l-3-.16c-12-.75-23.32-1.89-35.11-2.88-24.13-2-50.06-.81-75.19-.81-32.78,0-65,1.36-97.61,2.05-16.1.34-32.25.83-48.81.82-15.72,0-29.09,1.78-44.9,2-39.24.66-79.84.49-118.12-1.61-38.76-2.14-78.61-1.66-118.35-1.66-16.67,0-32.91-.12-48.57,1.2-17.79,1.5-34,3.71-52.71,3.71-17,0-33.38,1.11-49.78.42-5.07-.21-13.07-1-21.1-1.49v-9.69Z"/><path class="cls-10" d="M749.86,471.75c-6.15-.21-12.47-.22-15.47-.1-22.06.86-43.56,2.37-65.67,2.86-28.15.63-56,0-84.68,0-16.62,0-32.49-.33-49,.42-18,.81-35.43,2.38-53.69,2.44-33.65.11-68.24.82-101.73,2.06-30.08,1.11-59,2.48-88.93,4.39-19.82,1.26-43.12.52-62,3,.92,5.42,41.58,8.13,52.29,9,23.23,2,46.42,2.36,70.34,2.36,42.13,0,84-2.5,126.12-2.46s83,2.87,125,2.87c33.79,0,65.53-.06,98.59,3,13.92,1.28,32,2.81,48.84,3V526c-28.24-2.86-56.88-3.65-86.75-4.86-31.62-1.29-62.48-3.12-93.17-5-20-1.23-40.09-3-61-2.27-23.21.86-46.59,2.92-69.78,3.59-44.59,1.29-96.67,3.95-139.35-2-19.8-2.74-42.86-2.91-63.64-3.69-25.08-.94-51.79.32-77.17.32-29.15,0-57.95-.57-86.88.8-12.15.57-23.42,2.21-35.49,2.69V489.47c36.63-.44,73.9.79,109.93,2.74,35.43,1.91,65.17,8.36,98.54,12.68,36.38,4.7,73,4.63,110.4,4,37-.63,74.11.71,111.23-.09,21-.46,51-2.66,71.26.09l1.95,1.63c4-.53,8.86-.07,12.64-.83,10.53-2.14-1.57-2.73-8.73-2.85-8.11-.13-16.29,0-24.41,0H468.64c-35.69,0-71.13-2.44-107.35-1.64-32.83.73-69.25,3.17-99.59-2.75-15.21-3-31.25-6.15-46.85-8.59S184.71,490.1,169,488c-25.24-3.34-47.41-5.85-73.93-7-19-.8-38.9-1.94-58.44-1.55v-6.71c2.16,0,3.89,0,4.72.06,30.31,1.21,61.17,1.62,91.55,2.38,37.92,1,75.26,5.29,113.25,2.87,17.72-1.13,35-3.72,52.59-5.22,23-2,45.91-1.65,69.4-1.65,18.92,0,37.85,0,56.62.41,11.13.25,24.35.56,35.14-.41l37.09.41c.55-.39.71-.82,1.64-1.16-11.13.19-21.43-1.31-32.88-1.29s-22.9.16-34.16.4c-33.45.72-65.74-2.21-99.57-1.63-38.12.65-73.26,7-112,7-18.82,0-34.43-2.12-52.66-3.29-21-1.35-43.28.05-64.42-.8-19-.76-37.58-1.22-56.89-1.62-1.47,0-5.15-.25-9.38-.42v-6H749.86Z"/><path class="cls-10" d="M38.11,596.48c22.63,0,44.55-.26,66.68-1.23,14.1-.62,28.24-.56,42.49-.82,15.41-.29,30.63-1.65,46.14-1.64,32,0,64-.37,95.66.91,29.51,1.2,57.93,2.46,87.86,2C414,595,450.68,594,488,594c33.48,0,67.42,1.13,100.76.42,17.13-.37,33.87-2.15,51-2.87,16.79-.72,32.89-.18,49.57.51,21.15.86,40.6,2.7,60.61,4.86v4.63H36.59v-5.09Z"/><path class="cls-11" d="M628.38,329.2c-33.35-1.29-68.48-.24-102.07-.36-32.39-.12-64.58.35-96.95.35-32.05,0-63.92.29-95.86-.27-32.52-.58-65.41.34-97.64-.43-24.36-.57-48.11-2.3-72.38-3.1-25.94-.86-52,.44-77.65,1.45-16.9.67-32.54,1.79-49.24,1.12v7.47q6.67.22,13.29.68c27.67,2,52.82.18,80.75-.37,36.84-.73,73.7-1.52,110.76-1.36,18,.07,35.54,1.57,53.41,2.08,27.07.78,54.39-.24,81.48-.72,47-.82,92.72,4.56,139.36,3.4,24.55-.61,47.87-3.62,72.6-4.05,16.38-.29,32.79-.36,49-1.08,32.34-1.43,66-.33,98.5-.33q7.05,0,14.1.05v-5.37C709.43,329.74,668.33,330.73,628.38,329.2Z"/><path class="cls-11" d="M749.86,459.9c-6-.18-11.27-.27-14.11-.38-21.14-.82-44.83.12-65.91.87-52.21,1.87-103.92,1.62-156.25-.39-33.36-1.29-71.09,2.33-104.68,2.21-32.39-.12-64.58.35-97,.35-32,0-63.92.29-95.86-.27-32.52-.58-65.41.34-97.64-.43-24.36-.58-48.11-2.3-72.39-3.1q-4.74-.17-9.48-.22v10.11c29.07-.56,58.17-1,87.39-.91,18,.08,35.54,1.58,53.41,2.09,27.07.78,54.4-.24,81.49-.72,47-.82,92.72,4.56,139.35,3.4,24.56-.61,47.88-3.63,72.61-4.06,16.38-.28,32.79-.35,49-1.07,32.34-1.43,66-.33,98.5-.33,25.72,0,51.54.62,77-.77,17.56-1,35.84-2.1,53.51-2.71l.94,0Z"/><polygon class="cls-9" points="6.04 172.41 749.38 173.38 749.38 220.52 36.11 220.52 6.04 172.41"/><path class="cls-12" d="M16.06,182.67c6.15-.16,32.52.27,35.52.36,22.06.67,43.56,1.83,65.67,2.21,28.16.48,56,0,84.68,0,16.62,0,32.49-.25,49,.32,18,.63,35.43,1.84,53.69,1.89,33.65.09,68.25.64,101.74,1.59,30.07.85,59,1.92,88.92,3.39,19.83,1,43.12.4,62,2.34-.91,4.19-41.58,6.28-52.29,7-23.22,1.52-46.42,1.82-70.34,1.82-42.13,0-84-1.93-126.11-1.9s-78.92-4.63-121-4.63c-33.8,0-69.6,6.8-102.66,9.15-13.91,1-35.11-3.57-52-3.44l3.86,8c28.24-2.22,44.52,4.12,80.44-2.22,31.16-5.5,68.05,10.29,98.74,8.84,20-1,40.1-2.36,61-1.76,23.21.66,46.59,2.26,69.79,2.77,44.58,1,91.88-1,139.34-1.51,19.92-.22,42.86-2.24,63.64-2.84,25.08-.73,51.79.24,77.17.24,29.15,0,58-.43,86.88.62,12.16.44,23.42,1.71,35.49,2.08V196.79c-36.63-.34-73.9.61-109.93,2.12-35.43,1.47-65.17,6.45-98.53,9.79-36.38,3.63-73,3.58-110.41,3.09-37-.49-74.11.55-111.23-.07-21-.36-51-2.06-71.26.07,0,0-90.05-2.71-83.32-5.17,21.66-7.91,94.76-1.66,102.87-1.66,16.92,0,38.89,1.66,55.81,1.66,35.69,0,65.08,1.7,101.3,2.32,32.83.56,69.25,2.45,99.6-2.12,15.2-2.29,31.24-4.75,46.85-6.64s30.14-2.9,45.88-4.51c25.24-2.58,47.41-4.53,73.94-5.38,19-.62,38.89-1.5,58.43-1.2v-5.17c-2.16,0-3.88,0-4.72,0-30.31.93-61.17,1.25-91.55,1.84-37.92.74-75.25,4.08-113.24,2.21-17.73-.87-35-2.87-52.59-4-23-1.51-45.92-1.27-69.4-1.27-18.93,0-37.85,0-56.63.31-11.13.19-24.35.43-35.13-.31L289,183a5,5,0,0,0-1.64-.9c11.14.15,21.43-1,32.88-1s22.91.13,34.16.32c33.45.55,65.75-1.71,99.57-1.27,38.12.5,73.27,5.37,112,5.37,18.82,0,34.43-1.63,52.66-2.53,21-1.05,43.28,0,64.43-.62,19-.59,37.57-.94,56.88-1.25,1.48,0,5.15-.2,9.38-.32v-4.62l-740.59-1Z"/><rect class="cls-13" x="36.11" y="204.5" width="714.37" height="16.03"/><polygon class="cls-9" points="38.16 556.13 751.43 556.13 751.43 603.27 0 603.46 38.16 556.13"/><path class="cls-12" d="M38.16,565.85c6.15-.15,12.47-.16,15.47-.07,22.06.66,43.56,1.83,65.67,2.21,28.16.48,56,0,84.68,0,16.62,0,32.49-.24,49,.33,18,.63,35.43,1.84,53.69,1.89,33.65.08,68.25.63,101.73,1.58,30.08.86,59,1.92,88.93,3.4,19.82,1,43.12.4,62,2.34-.91,4.19-41.58,6.28-52.29,7-23.22,1.51-46.42,1.82-70.34,1.82-42.13,0-84-1.93-126.11-1.9s-78.92-4.63-121-4.63c-33.8,0-69.6,6.8-102.66,9.14-13.92,1-49-5.17-65.81-5l-8.86,9.42c28.25-2.21,71.09,4.35,107-2,31.16-5.5,68,10.29,98.74,8.83,20-.95,40.1-2.35,61-1.75,23.21.66,46.59,2.25,69.79,2.77,44.58,1,91.88-1,139.34-1.51,19.92-.23,42.86-2.24,63.64-2.84,25.08-.73,51.79.24,77.17.24,29.15,0,58-.44,86.88.62,12.15.44,23.42,1.71,35.49,2.07V579.54c-36.63-.34-73.9.61-109.93,2.11-35.43,1.48-65.17,6.46-98.53,9.79-36.38,3.64-73,3.59-110.41,3.09-37-.48-74.11.56-111.23-.07-21-.35-51-2.05-71.26.07,0,0-90-2.7-83.32-5.16,21.66-7.91,94.76-1.67,102.87-1.67,16.92,0,38.89,1.67,55.81,1.67,35.69,0,65.08,1.7,101.3,2.32,32.83.56,69.25,2.45,99.59-2.13,15.21-2.29,31.25-4.75,46.86-6.63s30.13-2.91,45.88-4.52c25.24-2.58,47.41-4.52,73.94-5.38,19-.61,38.89-1.49,58.43-1.19v-5.18c-2.16,0-3.89,0-4.72,0-30.31.94-61.17,1.25-91.55,1.85-37.92.74-75.26,4.08-113.24,2.21-17.73-.87-35-2.87-52.59-4-23-1.52-45.92-1.27-69.41-1.27-18.92,0-37.85,0-56.62.31-11.13.19-24.35.43-35.14-.31l-37.09.31a5.4,5.4,0,0,0-1.64-.9c11.13.15,21.43-1,32.88-1s22.91.13,34.16.31c33.45.56,65.75-1.71,99.57-1.26,38.12.5,73.27,5.37,112,5.37,18.82,0,34.43-1.63,52.66-2.54,21-1,43.28,0,64.42-.61,19-.59,37.58-.95,56.89-1.26,1.48,0,5.15-.19,9.38-.32V559H38.16Z"/><polygon class="cls-13" points="750.81 603.27 2.83 603.43 17.2 588.13 751.32 587.6 750.81 603.27"/><rect class="cls-1" x="46.27" y="546.1" width="706.26" height="7.51"/><rect class="cls-1" x="49.15" y="216.56" width="703.38" height="9.04"/><polygon class="cls-9" points="0 603.46 2.01 172.45 49.15 216.56 47.36 555.2 0 603.46"/><path class="cls-12" d="M9.59,595.82c-.13-3.71,0,0,.1-1.81.73-13.33,2-26.34,2.39-39.7.57-17,.16-33.86.24-51.17,0-10-.16-19.63.46-29.63.68-10.89,1.94-21.42,2-32.46.18-20.33.83-41.24,1.88-61.49.94-18.18,2.08-35.65,3.64-53.77,1-12,.52-26.05,2.52-37.49,4.18.51,6.16,25.06,6.83,31.53a395.2,395.2,0,0,1,1.62,42.48c-.12,25.46-2.17,50.81-2.26,76.23s-4.85,47.73-5,73.14c-.1,20.42,7.17,59.19,7.17,59.19s8.94.79,4.15-16.81c-5.13-18.86,10.49-41.23,9.11-59.76-.89-12.09-2.24-24.2-1.58-36.86.73-14,2.39-28.18,3-42.2,1.12-26.95-.71-55.51-1.12-84.19-.17-12-2.12-25.87-2.66-38.43-.66-15.14.39-31.29.46-46.63,0-10.56,1.13-21.1.09-31.52-.19-2-7.69-9.33-7.69-9.33-4.29,9.49-8.47,22.61-7.77,33.49,1.38,21.39,6.27,39.31,9.51,59.44,3.53,21.95,3.38,44.09,2.78,66.68-.59,22.35.34,44.78-.38,67.22-.42,12.7-2.2,30.84-.13,43.06,0,0-3,54.44-5.4,50.4-7.85-13-1.4-57.25-1.38-62.15.05-10.22,1.78-23.51,1.83-33.74.1-21.57,1.88-39.34,2.6-61.23.66-19.85,2.64-41.87-1.84-60.16-2.25-9.17-4.67-18.84-6.51-28.25s-2.81-18.18-4.38-27.68a372.17,372.17,0,0,1-5.17-44.63c-.56-11.45-5.1,4.56-4.6,22.91.64,22.91,3.88,45.44,1.9,68.41-.93,10.72-3,21.18-4.18,31.82-1.58,13.93-1.4,27.76-1.47,41.95-.05,11.43-.11,22.87.16,34.21.15,6.72.36,14.71-.42,21.23l.21,22.42c-.3.33-.63.43-.9,1,.18-6.72-.95-12.94-.9-19.85S8.74,417.83,9,411c.65-20.22-1.53-39.71-1-60.15.61-23,5.58-44.33,5.69-67.76.06-11.37-1.53-20.78-2.39-31.79-1-12.68.16-26.15-.43-38.93C10.3,200.92,10,189.71,9.75,178c0-.89-4.92-5.62-4.92-5.62l-2,431Z"/><polygon class="cls-13" points="48.91 221.08 47.36 554.2 31.26 570.87 32.96 206.25 48.91 221.08"/><polygon class="cls-1" points="0 603.46 47.38 549.86 51.51 551.64 2.83 603.43 0 603.46"/><polygon class="cls-1" points="2.01 172.45 49.15 225.6 49.15 216.56 6.04 172.41 2.01 172.45"/><polygon class="cls-9" points="751.43 603.27 753.33 173.53 705.79 217.2 704.42 555.83 751.43 603.27"/><path class="cls-12" d="M741.8,596.81c.17-3.71,0,0-.08-1.81-.6-13.34-1.7-26.36-2-39.72-.41-17,.16-33.86.24-51.17,0-10.05.34-19.63-.19-29.63C739.18,463.57,738,453,738,442c0-20.33-.45-41.25-1.3-61.51-.77-18.19-1.75-35.66-3.14-53.8-.92-12-.28-26.06-2.17-37.51-4.19.47-6.4,25-7.13,31.46a394.34,394.34,0,0,0-2,42.47c-.12,25.46,1.69,50.82,1.54,76.24s4.4,47.78,4.28,73.19c-.09,20.42-7.72,59.12-7.72,59.12s-9,.7-4-16.86c5.31-18.8-10.1-41.31-8.55-59.83,1-12.09,2.46-24.18,1.93-36.85-.6-14-2.13-28.2-2.58-42.22-.86-27,1.23-55.51,1.9-84.18.28-12,2.36-25.85,3-38.4.8-15.14-.09-31.3,0-46.63,0-10.56-.93-21.11.2-31.52.21-2,7.78-9.26,7.78-9.26,4.2,9.53,8.26,22.69,7.46,33.56-1.58,21.38-6.64,39.25-10.07,59.35-3.73,21.91-3.79,44.06-3.4,66.65.38,22.35-.76,44.78-.24,67.22.29,12.7,1.91,30.86-.27,43.06,0,0,2.45,54.46,4.92,50.44,8-12.93,1.94-57.22,2-62.12.05-10.23-1.56-23.53-1.51-33.76.1-21.57-1.51-39.36-2-61.26-.47-19.85-2.25-41.89,2.4-60.14,2.34-9.14,4.84-18.79,6.77-28.18s3-18.16,4.64-27.64c2.65-15.2,4.66-28.56,5.59-44.58.66-11.44,5.06,4.61,4.38,23-.85,22.9-4.3,45.4-2.53,68.39.82,10.73,2.77,21.21,3.88,31.86,1.45,14,1.14,27.77,1.08,42-.06,11.43-.11,22.87-.48,34.21-.22,6.72-.5,14.7.22,21.23l-.42,22.41c.3.34.63.44.89,1-.12-6.73,1.07-12.93,1.09-19.85s-.06-13.84-.22-20.65c-.46-20.22,1.89-39.69,1.55-60.14-.4-23-5.17-44.37-5.06-67.8.05-11.37,1.73-20.78,2.68-31.78,1.11-12.66.09-26.15.8-38.91.64-11.48,1-22.69,1.42-34.35,0-.89,5-5.58,5-5.58l-2,430Z"/><polygon class="cls-13" points="705.98 221.72 704.42 554.84 720.37 571.66 722.07 207.04 705.98 221.72"/><polygon class="cls-1" points="751.43 603.27 704.44 550.49 700.3 552.24 747.61 603.46 751.43 603.27"/><polygon class="cls-1" points="753.33 173.53 705.7 226.24 705.79 217.2 749.3 173.45 753.33 173.53"/><polygon class="cls-1" points="48.91 218.7 48.02 552.9 55.34 553.61 55.34 220.52 48.91 218.7"/><polygon class="cls-1" points="705.79 217.2 704.51 553.41 700.3 552.24 700.3 221.08 705.79 217.2"/></g></g></svg>