<svg xmlns="http://www.w3.org/2000/svg" viewBox="0 0 165.37 180.5"><defs><style>.cls-1{fill:#54825d;}.cls-2{fill:#76a181;stroke:#fff;stroke-miterlimit:10;stroke-width:11px;}</style></defs><g id="レイヤー_2" data-name="レイヤー 2"><g id="花の位置見本"><path class="cls-1" d="M4.77,168.94c.23,5,6,8.9,11.35,11.56a47,47,0,0,1,8.18-13.86c2-2.37,5.3-6.18,9.06-8,9.71-4.6,20.94,5.2,30.66,8.81,23.6,8.77,52.48-13.78,60.06-19.3,36.4-26.54,38.58-68.5,41.23-119.76.27-5.18-.3-28-3.81-28.42-1.56-.16-3.14,4.22-3.77,5.7C149.19,25.59,96.61,19.25,52.56,39.52,40.83,44.92,14.17,57.64,4.37,84.4c-1.55,4.24-10,29.32,1.93,46.24,5.78,8.15,13.58,10.52,13.32,17.28C19.27,157.16,4.4,160.74,4.77,168.94Z"/><path class="cls-2" d="M52.43,67.55Q82.3,95.93,112.17,124.3"/><path class="cls-2" d="M112.17,67.55,52.43,124.3"/></g></g></svg>