<svg xmlns="http://www.w3.org/2000/svg" viewBox="0 0 1920 1080"><defs><style>.cls-1{fill:#e6f0d8;}.cls-2{fill:#ba995f;opacity:0.3;}.cls-3{fill:#e79c92;}.cls-4{fill:#aa9d93;}.cls-5{fill:#111e33;}.cls-6{fill:#1f3664;}.cls-7{fill:#968677;}.cls-29,.cls-30,.cls-33,.cls-8,.cls-84{fill:#fff;}.cls-10,.cls-8{stroke:#000;}.cls-10,.cls-11,.cls-13,.cls-8,.cls-84{stroke-miterlimit:10;}.cls-10,.cls-8,.cls-84{stroke-width:0.25px;}.cls-9{fill:#393762;}.cls-10{fill:#060000;}.cls-11{fill:none;}.cls-11,.cls-13{stroke:#281508;}.cls-12,.cls-13{fill:#cecece;}.cls-14{fill:#8caa43;}.cls-15{fill:#93f3ff;}.cls-16{fill:#8de0ec;}.cls-17{fill:#f2cf58;}.cls-18{fill:#7dcdfc;}.cls-19{fill:#e58e46;}.cls-20{fill:#e79b53;}.cls-21{fill:#62acf8;}.cls-22{fill:#6daefb;}.cls-23{fill:#5696e8;}.cls-24{fill:#efc257;}.cls-25{fill:#ffffc6;}.cls-26{fill:#e1a87e;}.cls-27{fill:#32344e;}.cls-28{fill:#5f789c;}.cls-29{opacity:0.34;}.cls-31{fill:#2b3248;}.cls-32{fill:#d47758;}.cls-33{opacity:0.11;}.cls-34{fill:#4b4d6a;}.cls-35{fill:#67615c;}.cls-36{fill:#929298;}.cls-37{fill:#f7e36d;}.cls-38{fill:#585858;}.cls-39{fill:#fffffd;}.cls-40{fill:#b7d285;}.cls-41{fill:#fbf4da;}.cls-42{fill:#e09171;}.cls-43{fill:#cc574a;}.cls-44{fill:#b13c36;}.cls-45{fill:#263656;}.cls-46{fill:#2e416e;}.cls-47{fill:#43619a;}.cls-48{fill:#253962;}.cls-49{fill:#dcbea5;}.cls-50{fill:#213254;}.cls-51{fill:#5071a6;}.cls-52{fill:#e9b2b2;}.cls-53{fill:#7c442b;}.cls-54{fill:#de9d9d;}.cls-55{fill:#416597;}.cls-56{fill:#26355f;}.cls-57{fill:#621512;}.cls-58{fill:#ead2bd;}.cls-59{fill:#c4a38e;}.cls-60{fill:#7e4b39;}.cls-61{fill:#bad0fc;}.cls-62{fill:#627eba;}.cls-63{fill:#8359da;}.cls-64{fill:#6a42c6;}.cls-65{fill:#88a1d9;}.cls-66{fill:#465b92;}.cls-67{fill:#ddbdaa;}.cls-68{fill:#364d7a;}.cls-69{fill:#23355a;}.cls-70{fill:#d6e5f7;}.cls-71{fill:#22ff4c;}.cls-72{fill:#df7d22;}.cls-73{fill:#b2452e;}.cls-74{fill:#ecb42a;}.cls-75{fill:#d15736;}.cls-76{fill:#87abaf;}.cls-77{fill:#b0cdd3;}.cls-78{fill:#e27e20;}.cls-79{fill:#b9a283;}.cls-80{fill:#ccb89d;}.cls-81{fill:#a18b6e;}.cls-82{fill:#988162;}.cls-83{fill:#f2d059;}.cls-84{stroke:#724d21;}.cls-85{fill:#d14019;}</style></defs><g id="レイヤー_2" data-name="レイヤー 2"><g id="object"><rect class="cls-1" width="1920" height="1080"/><ellipse class="cls-2" cx="960" cy="655.12" rx="885.05" ry="323.38"/><g id="しんぶん配達員"><path class="cls-3" d="M1693.89,94.48c4.06,4.28,8.2,10.22,9.61,11.16,2,1.31,3.82,3.19,3.31,4s-2.1.7-3.55-.22c-1-.64-8-4.81-12.65-9.74-3.65-3.85-7-7.6-7.62-9.77-.22-.76.31-1.13.71-1.51C1685.25,86.92,1688.94,89.28,1693.89,94.48Z"/><path class="cls-4" d="M1690.55,133.65c5,2.08,4.23,5.68,2.24,10-3.34,7.3-9.93,18.59-14.2,25.39,0,.09-1.15,1.74-1.21,1.82-1.56,2-3.44-.86-2.91-3.73C1675.35,162.45,1683.46,130.73,1690.55,133.65Z"/><path class="cls-4" d="M1662.43,112.21c-1.8-5.39,7.21-6.93,11.26-6,3.34.77,5.53,3.87,7.39,6.74,4.05,6.21,8.29,12.85,12.34,19.06,2,1.71,4.57,7.12,0,10.38-1.48,1.06-6.06-1.32-7.17-1.7C1681.92,136.52,1665,119.81,1662.43,112.21Z"/><path class="cls-5" d="M1675.08,166.58c-1,.12-2,3.69-2,3.69a10,10,0,0,0,3.09,3.87c.44.32,4.22,3.06,6.66,1.52.08,0,2.16-1,1.46-2.16C1683.37,171.89,1676.05,166.46,1675.08,166.58Z"/><path class="cls-6" d="M1660.58,118.2c6.19.54,15.37-1.19,15.37-5.17,0-1.93-2.59-1.76-4.52-1.76h-10.84c-3.82,0-4.77,5.68-.93,6.75A5,5,0,0,0,1660.58,118.2Z"/><path class="cls-6" d="M1620.3,161a22.93,22.93,0,1,1,22.93,22.93A23,23,0,0,1,1620.3,161Zm3.12,0a19.81,19.81,0,1,0,19.81-19.81A19.84,19.84,0,0,0,1623.42,161Z"/><path class="cls-6" d="M1698.81,161a22.93,22.93,0,1,1,22.93,22.93A23,23,0,0,1,1698.81,161Zm3.12,0a19.81,19.81,0,1,0,19.81-19.81A19.83,19.83,0,0,0,1701.93,161Z"/><path class="cls-6" d="M1722.68,163.84a1.26,1.26,0,0,1-1.2-.9c-3.77-13.08-13.65-47.28-14.11-48.53l-.51-1.41,1.48-.25c3.1-.52,4.41-1.93,4.39-2.29s-2.8-1.79-12,.24a1.23,1.23,0,0,1-1.48-.94,1.24,1.24,0,0,1,.94-1.49c5.33-1.17,12.15-2,14.39.49a2.57,2.57,0,0,1,.5,2.61c-.55,1.53-2.42,2.85-4.93,3.54,2.34,7.78,13.24,45.58,13.75,47.34a1.24,1.24,0,0,1-.85,1.54A1.48,1.48,0,0,1,1722.68,163.84Z"/><path class="cls-6" d="M1680.17,162.94c-3.72-12.86-13.47-46.49-13.92-47.73l2.34-.86c.55,1.52,13.43,46,14,47.9Z"/><path class="cls-6" d="M1681.37,163.84l-36.12-.75a2.92,2.92,0,0,1-2.25-4.71c26.5-34.13,26.7-34.13,27.55-34.13h41.52l.35.71c.47,1,.48,1-14.44,19.77-7.22,9.09-14.47,18.11-14.47,18.11A2.82,2.82,0,0,1,1681.37,163.84Zm-10.3-37.1c-1.88,2.14-11.67,14.58-26.1,33.17a.41.41,0,0,0,0,.44.44.44,0,0,0,.38.25l36.1.75a.31.31,0,0,0,.21-.11c9.44-11.76,23.11-28.92,27.31-34.5Z"/><path class="cls-6" d="M1680.84,168.31c-2.62,0-27.82-2.29-37.76-3.34h0a4,4,0,0,1-3.75-4,3.88,3.88,0,0,1,3.76-3.87c10.2-1,35.36-3.34,37.75-3.34a7.28,7.28,0,0,1,0,14.55Zm0-13.3c-2.35,0-27.44,2.34-37.63,3.33a2.65,2.65,0,0,0-2.64,2.63,2.82,2.82,0,0,0,2.64,2.76h0c9.92,1,35,3.33,37.63,3.33a6,6,0,1,0,0-12.05Z"/><rect class="cls-6" x="1680.14" y="161.77" width="2.49" height="13.81"/><rect class="cls-6" x="1676.77" y="174.34" width="9.24" height="2.49"/><path class="cls-7" d="M1699.2,128.52a5,5,0,0,1,2.66,3.39c.64,2.63-1.11,5-2.75,7.36-5.14,7.41-.93,2.93-11.68,17.83-2,2.82-3.46,4.74-6.06,5.4-2.1.54-5.16.29-6.21-1.4-1.21-1.95,1-4.54,4.78-11.34,5.49-9.95,5-12.15,9.23-16.37C1690.71,131.88,1695.63,127,1699.2,128.52Z"/><path class="cls-7" d="M1657.39,116.58c-4.1-6.85,9.15-7.66,13.28-8.18,3.39-.42,6.51,1.75,9.24,3.8,5.93,4.46,12.18,9.25,18.11,13.71,2.44.93,6.77,5.15,3.55,9.75-3.53,5.05-6.15.83-7.32.85C1688.76,134.07,1661.5,123.46,1657.39,116.58Z"/><path class="cls-8" d="M1677.85,72.59c-4.23,1.34-6.69,4.71-8.37,7.09-3.37,4.75-3.8,8.6-6,16.3a159,159,0,0,1-5.62,16.36l28.13,2.8A197.11,197.11,0,0,0,1691.11,89c.9-7.27.9-10.81-1.24-13.52C1687.09,72,1681.84,71.33,1677.85,72.59Z"/><path class="cls-5" d="M1675.32,159.73c-1.28.16-2.59,4.85-2.59,4.85a13,13,0,0,0,4.06,5.09c.58.43,5.55,4,8.77,2,.11-.06,2.83-1.3,1.92-2.84C1686.23,166.72,1676.59,159.58,1675.32,159.73Z"/><path class="cls-3" d="M1671.43,86.77c-.33,6.65,2.09,14.55,5.45,15a4,4,0,0,0,3.94-2.79,3.66,3.66,0,0,0-.87-2.54c-1.84-3.17-.41-5.69-.79-10s-2.57-9.56-4.27-9.52S1671.64,82.39,1671.43,86.77Z"/><path class="cls-3" d="M1685.48,101.46c4.3,3.78,6.45,5.66,8,6.24,1.78.67,3.23.79,5,2.27,1,.83,2.54,2.47,2.11,3.36s-3,.84-4,.46a60.76,60.76,0,0,1-13.23-6.58c-4.35-3-8.38-6-9.43-8a1,1,0,0,1-.14-.54,1.66,1.66,0,0,1,.53-1.09c.55-.57,2.53-1.23,5.17-.45C1681.39,97.67,1682.17,98.56,1685.48,101.46Z"/><path class="cls-8" d="M1676.25,76.06c-1-1.5-2.72-.84-3.87.54a12.76,12.76,0,0,0-2.7,6,44.17,44.17,0,0,0,.58,11.82c.44.18,8.42-.23,9.7-1C1680.49,88.78,1678.94,80.1,1676.25,76.06Z"/><path class="cls-3" d="M1684.14,78.34h0a2.76,2.76,0,0,0,3.5-1.69l1.62-5.68-5.51-3.25-1.69,7.35A2.75,2.75,0,0,0,1684.14,78.34Z"/><path class="cls-3" d="M1684.85,69.43l-3.92-.58a1.85,1.85,0,0,1,.54-3.66l4.14.62Z"/><path class="cls-3" d="M1688.58,58.48c2.15.32,3.48,2.26,4,3a9.67,9.67,0,0,1,1.21,6.38c-.14,1.93-.35,4.69-2.44,6.19a5.71,5.71,0,0,1-2.77,1,9.21,9.21,0,0,1-5.79-1.79,2.8,2.8,0,0,1-1.14-1.69c-.65-3.13.38-6.18,1.13-9.18A5.25,5.25,0,0,1,1688.58,58.48Z"/><path class="cls-9" d="M1684.93,64.8c1.77-1,3,.23,5.58-.4a5.6,5.6,0,0,0,3.44-2.07c.16-.22,1.55-2,.69-3.66a5.84,5.84,0,0,0-3.15-2.46,9.82,9.82,0,0,0-8.33.35c-2.41,1.39-4.79,5.36-3.39,8.18a3.2,3.2,0,0,0,3.4,1.31C1684,65.84,1684,65.33,1684.93,64.8Z"/><path class="cls-8" d="M1695.89,61.45c-.55.92-9.61.75-9.61.75h0l-.1,1.11a9.93,9.93,0,0,1-.59,3,5.24,5.24,0,0,1-3.29,2.55,5.44,5.44,0,0,1-4.15-.57,5.84,5.84,0,0,1-2.45-3.52,9.18,9.18,0,0,1,.68-6.54,10.61,10.61,0,0,1,6.26-5.6,10.83,10.83,0,0,1,8.29.91C1694.29,55.53,1697,59.68,1695.89,61.45Z"/><circle class="cls-10" cx="1680.6" cy="64.16" r="0.69"/><g id="新聞紙"><path class="cls-11" d="M1642.87,120.45c.29.75.5,1.31.24,1.64-.75.92-5.19,0-6.14-2.91-.48-1.46-.09-3.47.89-3.85C1639.31,114.79,1641.84,117.82,1642.87,120.45Z"/><path class="cls-11" d="M1643.59,120.45c-.3.75-.51,1.31-.24,1.64.75.92,5.19,0,6.14-2.91.47-1.46.09-3.47-.9-3.85C1647.15,114.79,1644.61,117.82,1643.59,120.45Z"/><rect class="cls-12" x="1624.62" y="122.86" width="37.23" height="3.01" rx="1.37"/><rect class="cls-12" x="1624.62" y="125.94" width="37.23" height="3.01" rx="1.37"/><rect class="cls-12" x="1624.62" y="129.03" width="37.23" height="3.01" rx="1.37"/><rect class="cls-12" x="1624.62" y="132.12" width="37.23" height="3.01" rx="1.37"/><rect class="cls-12" x="1624.62" y="135.2" width="37.23" height="3.01" rx="1.37"/><path class="cls-13" d="M1643.23,122.86v15.35"/></g></g><path class="cls-14" d="M1580.7,186a3.2,3.2,0,0,1-.54,0h-37.59a1.18,1.18,0,0,1-.27,0,9.07,9.07,0,1,1,4.71-17,14.67,14.67,0,0,1,28.91-3.51,11.13,11.13,0,0,1,9.35.3,9.39,9.39,0,0,1,4.4,4.4C1593.34,178,1588,185.63,1580.7,186Z"/><path class="cls-15" d="M1561,164.71c3.41,2.51,1.38,4.54-1.13,1.13-2.51,3.41-4.55,1.38-1.14-1.13-3.41-2.52-1.37-4.55,1.14-1.14C1562.37,160.16,1564.4,162.19,1561,164.71Z"/><path class="cls-16" d="M1560.66,163.9c4.19-.63,4.19,2.25,0,1.61.64,4.19-2.24,4.19-1.61,0-4.18.64-4.18-2.24,0-1.61C1558.42,159.72,1561.3,159.72,1560.66,163.9Z"/><path class="cls-17" d="M1560.77,164.71a.91.91,0,1,1-.91-.91A.91.91,0,0,1,1560.77,164.71Z"/><path class="cls-15" d="M1581.51,173.41c2.87,2.12,1.16,3.83-1,1-2.12,2.87-3.83,1.16-1-1-2.87-2.11-1.16-3.82,1-.95C1582.67,169.59,1584.38,171.3,1581.51,173.41Z"/><path class="cls-16" d="M1581.23,172.74c3.53-.54,3.53,1.88,0,1.35.54,3.52-1.88,3.52-1.35,0-3.52.53-3.52-1.89,0-1.35C1579.35,169.21,1581.77,169.21,1581.23,172.74Z"/><path class="cls-17" d="M1581.32,173.41a.77.77,0,1,1-.76-.76A.76.76,0,0,1,1581.32,173.41Z"/><path class="cls-15" d="M1543.22,176.64c3.14,2.32,1.26,4.19-1,1.05-2.31,3.14-4.19,1.27-1.05-1.05-3.14-2.31-1.26-4.18,1.05-1C1544.48,172.46,1546.36,174.33,1543.22,176.64Z"/><path class="cls-16" d="M1542.91,175.9c3.86-.58,3.86,2.07,0,1.48.59,3.86-2.06,3.86-1.48,0-3.86.59-3.86-2.06,0-1.48C1540.85,172.05,1543.5,172.05,1542.91,175.9Z"/><circle class="cls-17" cx="1542.17" cy="176.64" r="0.84"/><path class="cls-14" d="M1631,186a3.26,3.26,0,0,1-.55,0h-37.59a1.14,1.14,0,0,1-.26,0,9.07,9.07,0,1,1,4.71-17,14.67,14.67,0,0,1,28.9-3.51,11.16,11.16,0,0,1,9.36.3,9.33,9.33,0,0,1,4.39,4.4C1643.62,178,1638.26,185.63,1631,186Z"/><path class="cls-15" d="M1611.27,164.71c3.41,2.51,1.38,4.54-1.14,1.13-2.51,3.41-4.54,1.38-1.13-1.13-3.41-2.52-1.38-4.55,1.13-1.14C1612.65,160.16,1614.68,162.19,1611.27,164.71Z"/><path class="cls-16" d="M1610.94,163.9c4.19-.63,4.19,2.25,0,1.61.63,4.19-2.24,4.19-1.61,0-4.19.64-4.19-2.24,0-1.61C1608.7,159.72,1611.57,159.72,1610.94,163.9Z"/><path class="cls-17" d="M1611,164.71a.91.91,0,1,1-.91-.91A.91.91,0,0,1,1611,164.71Z"/><path class="cls-15" d="M1631.79,173.41c2.87,2.12,1.16,3.83-1,1-2.11,2.87-3.82,1.16-.95-1-2.87-2.11-1.16-3.82.95-.95C1633,169.59,1634.66,171.3,1631.79,173.41Z"/><path class="cls-16" d="M1631.51,172.74c3.52-.54,3.52,1.88,0,1.35.53,3.52-1.89,3.52-1.35,0-3.53.53-3.53-1.89,0-1.35C1629.62,169.21,1632,169.21,1631.51,172.74Z"/><path class="cls-17" d="M1631.6,173.41a.77.77,0,1,1-.77-.76A.76.76,0,0,1,1631.6,173.41Z"/><path class="cls-15" d="M1593.49,176.64c3.14,2.32,1.27,4.19-1,1.05-2.32,3.14-4.19,1.27-1-1.05-3.14-2.31-1.27-4.18,1-1C1594.76,172.46,1596.63,174.33,1593.49,176.64Z"/><path class="cls-16" d="M1593.19,175.9c3.85-.58,3.85,2.07,0,1.48.58,3.86-2.07,3.86-1.48,0-3.86.59-3.86-2.06,0-1.48C1591.12,172.05,1593.77,172.05,1593.19,175.9Z"/><circle class="cls-17" cx="1592.45" cy="176.64" r="0.84"/><path class="cls-14" d="M1678,185.71a3.32,3.32,0,0,1-.55,0h-37.59a1.23,1.23,0,0,1-.27,0,9.07,9.07,0,1,1,4.71-17,14.67,14.67,0,0,1,28.91-3.5,11.09,11.09,0,0,1,9.35.29,9.39,9.39,0,0,1,4.4,4.4C1690.65,177.73,1685.28,185.36,1678,185.71Z"/><path class="cls-15" d="M1658.3,164.44c3.41,2.51,1.37,4.54-1.14,1.13-2.51,3.41-4.55,1.38-1.14-1.13-3.41-2.51-1.37-4.55,1.14-1.14C1659.67,159.89,1661.71,161.93,1658.3,164.44Z"/><path class="cls-16" d="M1658,163.63c4.19-.63,4.19,2.25,0,1.61.64,4.19-2.24,4.19-1.6,0-4.19.64-4.19-2.24,0-1.61C1655.72,159.45,1658.6,159.45,1658,163.63Z"/><path class="cls-17" d="M1658.07,164.44a.91.91,0,1,1-.91-.91A.91.91,0,0,1,1658.07,164.44Z"/><path class="cls-15" d="M1678.81,173.14c2.87,2.12,1.16,3.83-1,1-2.11,2.87-3.83,1.16-1-1-2.87-2.11-1.15-3.82,1-.95C1680,169.32,1681.68,171,1678.81,173.14Z"/><path class="cls-16" d="M1678.53,172.47c3.53-.54,3.53,1.89,0,1.35.54,3.52-1.88,3.52-1.35,0-3.52.54-3.52-1.89,0-1.35C1676.65,169,1679.07,169,1678.53,172.47Z"/><path class="cls-17" d="M1678.62,173.14a.76.76,0,0,1-.76.77.77.77,0,1,1,0-1.53A.76.76,0,0,1,1678.62,173.14Z"/><path class="cls-15" d="M1640.52,176.38c3.14,2.31,1.26,4.18-1,1-2.31,3.14-4.19,1.27-1-1-3.15-2.32-1.27-4.19,1-1C1641.78,172.19,1643.66,174.06,1640.52,176.38Z"/><path class="cls-16" d="M1640.21,175.64c3.86-.59,3.86,2.06,0,1.48.59,3.85-2.06,3.85-1.48,0-3.85.58-3.85-2.07,0-1.48C1638.15,171.78,1640.8,171.78,1640.21,175.64Z"/><circle class="cls-17" cx="1639.47" cy="176.38" r="0.84"/><rect class="cls-18" x="148.74" y="84.3" width="2.43" height="147.52"/><path class="cls-19" d="M151.11,56.11V79.86h-7.05l-3.24-6a20.11,20.11,0,0,1-1-17.44l0-.09Z"/><path class="cls-20" d="M151,56.11V79.86h7.06l3.23-6a20.08,20.08,0,0,0,1-17.44l0-.09Z"/><path class="cls-21" d="M151.16,88.68H150a4,4,0,0,1-4.17-3.86V80.91h5.32Z"/><rect class="cls-22" x="151.17" y="84.3" width="2.43" height="147.52"/><path class="cls-23" d="M151.16,88.68h1.15a4,4,0,0,0,4.16-3.86V80.91h-5.31Z"/><rect class="cls-21" x="148.84" y="56.11" width="2.05" height="24.81"/><rect class="cls-23" x="150.89" y="56.11" width="2.05" height="24.81"/><path class="cls-18" d="M144.57,52.31h-5.51c-1.71,0-3.09.87-3.09,1.94v0c0,1.07,1.38,1.94,3.09,1.94h12V52.31Z"/><path class="cls-22" d="M166.19,54.25c0-1.07-1.38-1.94-3.08-1.94h-12v3.92h12c1.7,0,3.08-.87,3.08-1.94Z"/><path class="cls-23" d="M151.08,52.31h10.61v0c0-2.06-2.65-3.73-5.93-3.73h-4.68Z"/><path class="cls-21" d="M151.08,48.54H146.4c-3.27,0-5.92,1.67-5.92,3.73v0h10.6Z"/><path class="cls-22" d="M155.34,48.54v0c0-.92-1.19-1.68-2.66-1.68h-1.6v1.7Z"/><path class="cls-18" d="M151.08,46.84h-1.59c-1.47,0-2.67.76-2.67,1.68v0h4.26Z"/><path class="cls-18" d="M143.34,236.15h-6.55c-2,0-3.66,1-3.66,2.3v.05c0,1.28,1.64,2.31,3.66,2.31h14.29v-4.66Z"/><path class="cls-22" d="M169,238.45c0-1.27-1.64-2.3-3.66-2.3h-14.3v4.66h14.3c2,0,3.66-1,3.66-2.31Z"/><path class="cls-23" d="M151.08,236.15h12.61v-.05c0-2.45-3.15-4.43-7-4.43h-5.57Z"/><path class="cls-21" d="M151.08,231.67h-5.56c-3.89,0-7,2-7,4.43v.05h12.6Z"/><path class="cls-22" d="M156.15,231.67v0c0-1.1-1.42-2-3.17-2h-1.9v2Z"/><path class="cls-18" d="M151.08,229.65h-1.89c-1.75,0-3.17.9-3.17,2v0h5.06Z"/><path class="cls-18" d="M151.11,82.35h-5a3.17,3.17,0,0,1-3.28-3v0h8.23Z"/><path class="cls-22" d="M151.11,82.35h5a3.17,3.17,0,0,0,3.28-3v0h-8.24Z"/><path class="cls-24" d="M146.72,63.71c0,1.88-1.19,3.4-2.67,3.4s-2.67-1.52-2.67-3.4,1.2-3.4,2.67-3.4S146.72,61.84,146.72,63.71Z"/><path class="cls-25" d="M145.78,63.71a1.77,1.77,0,1,1-1.73-2.19A2,2,0,0,1,145.78,63.71Z"/><rect class="cls-18" x="1722.07" y="50.32" width="2.1" height="127.49"/><path class="cls-19" d="M1724.13,26V46.48H1718l-2.8-5.2a17.42,17.42,0,0,1-.85-15.08l0-.08Z"/><path class="cls-20" d="M1724.05,26V46.48h6.1l2.8-5.2a17.42,17.42,0,0,0,.85-15.08l0-.08Z"/><path class="cls-21" d="M1724.16,54.1h-1a3.47,3.47,0,0,1-3.6-3.34V47.39h4.59Z"/><rect class="cls-22" x="1724.18" y="50.32" width="2.1" height="127.49"/><path class="cls-23" d="M1724.16,54.1h1a3.47,3.47,0,0,0,3.6-3.34V47.39h-4.6Z"/><rect class="cls-21" x="1722.16" y="25.95" width="1.77" height="21.44"/><rect class="cls-23" x="1723.93" y="25.95" width="1.77" height="21.44"/><path class="cls-18" d="M1718.47,22.67h-4.76c-1.47,0-2.67.75-2.67,1.68v0c0,.93,1.2,1.68,2.67,1.68h10.39V22.67Z"/><path class="cls-22" d="M1737.16,24.35c0-.93-1.2-1.68-2.67-1.68H1724.1v3.39h10.39c1.47,0,2.67-.75,2.67-1.68Z"/><path class="cls-23" d="M1724.1,22.67h9.16v0c0-1.78-2.29-3.23-5.11-3.23h-4.05Z"/><path class="cls-21" d="M1724.1,19.41h-4c-2.82,0-5.12,1.45-5.12,3.23v0h9.17Z"/><path class="cls-22" d="M1727.78,19.41h0c0-.8-1-1.45-2.3-1.45h-1.38v1.46Z"/><path class="cls-18" d="M1724.1,18h-1.38c-1.27,0-2.3.65-2.3,1.45h3.68Z"/><path class="cls-18" d="M1717.41,181.55h-5.66c-1.75,0-3.17.89-3.17,2v0c0,1.1,1.42,2,3.17,2h12.35v-4Z"/><path class="cls-22" d="M1739.62,183.54c0-1.1-1.42-2-3.17-2H1724.1v4h12.35c1.75,0,3.17-.89,3.17-2Z"/><path class="cls-23" d="M1724.1,181.55H1735v0c0-2.12-2.72-3.83-6.08-3.83h-4.81Z"/><path class="cls-21" d="M1724.1,177.68h-4.81c-3.36,0-6.08,1.71-6.08,3.83v0h10.89Z"/><path class="cls-22" d="M1728.47,177.68v0c0-.95-1.22-1.73-2.73-1.73h-1.64v1.75Z"/><path class="cls-18" d="M1724.1,175.93h-1.64c-1.51,0-2.74.78-2.74,1.73v0h4.38Z"/><path class="cls-18" d="M1724.13,48.63h-4.29A2.74,2.74,0,0,1,1717,46v0h7.12Z"/><path class="cls-22" d="M1724.13,48.63h4.28a2.73,2.73,0,0,0,2.83-2.63v0h-7.11Z"/><path class="cls-24" d="M1720.33,32.52c0,1.63-1,2.94-2.31,2.94s-2.31-1.31-2.31-2.94,1-2.93,2.31-2.93S1720.33,30.9,1720.33,32.52Z"/><path class="cls-25" d="M1719.51,32.52a1.53,1.53,0,1,1-3,0,1.53,1.53,0,1,1,3,0Z"/><path class="cls-26" d="M246.16,121.63h0a1.93,1.93,0,0,0,2.52-1.59l0-.22a2,2,0,0,0-.82-1.84l-1.56-1.42a3.06,3.06,0,0,1-.92-1.92l-.15-1c-.14-1-1.2-2-1.92-1.84h0a.63.63,0,0,0-.42.79l2,7.64A1.94,1.94,0,0,0,246.16,121.63Z"/><path class="cls-26" d="M249.52,112.53h0a.8.8,0,0,1-1.08.3l-4.14-2.34a.8.8,0,0,1-.29-1.08h0a.78.78,0,0,1,1.07-.3l4.14,2.34A.8.8,0,0,1,249.52,112.53Z"/><path class="cls-26" d="M250,121.16l.54-6.46a1.94,1.94,0,0,0-.06-.68l-2.51-7.9c-.24-.8-1.31-.2-1.22.46l1,6a3.82,3.82,0,0,1-.29,2L246.4,117s-2.86,2.82-.26,5.17c1.63,1.48,2.82.71,3.41.07A1.88,1.88,0,0,0,250,121.16Z"/><path class="cls-27" d="M249.23,120.77l-2.46.25a.88.88,0,0,1-.92-.66l-3.35-14.83a.65.65,0,0,1,.58-.81l2.46-.25a.88.88,0,0,1,.92.66L249.81,120A.65.65,0,0,1,249.23,120.77Z"/><path class="cls-28" d="M248.85,120.81l-2.47.25a.88.88,0,0,1-.91-.66l-3.35-14.83a.65.65,0,0,1,.58-.81l2.46-.25a.88.88,0,0,1,.92.66L249.43,120A.65.65,0,0,1,248.85,120.81Z"/><polygon class="cls-29" points="248.7 119.36 245.77 119.65 242.6 105.61 245.52 105.32 248.7 119.36"/><rect class="cls-30" x="247.13" y="121.38" width="6.23" height="5.4" transform="translate(-24.27 175.68) rotate(-37.02)"/><path class="cls-27" d="M246,124.69c4.2,7.44,11.39,16.29,13.8,22.43,4.22,3.19,9.89.81,9.75-1.79-.1-2.06-10.38-20.77-15-24.43Z"/><path class="cls-27" d="M269.83,147.5c.8-3.62-3.08-5.56-10.3-7.52s-12.68-8.16-20.47-7.78-11.2,10.18-3.19,12.86,24.42,5.52,29.45,5S269.83,147.5,269.83,147.5Z"/><path class="cls-27" d="M233,130.3c9.66.87,13.15,9.89,14.12,17.29s-3.76,28.58-2,39.39c1.61,10.11-.8,13.83-.8,13.83l-6.46-1.53Z"/><path class="cls-27" d="M232.1,183c1.85-3.35,7.9-5.09,10-2.6,10,12.11,7.81,48.57,8.29,55.22.58,8-5.07,14-12.44-1.12S227.27,191.75,232.1,183Z"/><path class="cls-27" d="M229.9,178.86c7.42,2.3,6,10.85,4.64,21.3-1.92,15-6.38,33.3-7.52,37.9-1.92,7.82-9.18,13.79-11.51-2.88s-1.33-45.66,6-52.46,8.44-3.86,8.44-3.86"/><path class="cls-31" d="M222.41,282.47c-2.83.82-5.59,1.06-5.86,2.57s-.66,10.83-.66,10.83l5.82,0,.86-1.16,4.57,1.18,9.09,0v-2.69s-7.63-3.74-8.92-5.21Z"/><path class="cls-30" d="M236.82,132.28c1.78,2.14,5.86,9.56,7.09,18.09s.41,28.82.18,31.61-19.22,5-20.76,2.52-5.44-37.88-5.44-37.88c0-12.14,9.14-18,15.06-15.43C234.32,131.79,236,131.32,236.82,132.28Z"/><path class="cls-27" d="M223.89,233.81c-4.43-1.78-7.27,1.73-8,5-3.75,16.69,0,48.92,0,48.92l10.25-2s1.28-41,.85-46S223.89,233.81,223.89,233.81Z"/><path class="cls-31" d="M248.87,283.16c-2.83.74-5.58.95-5.85,2.3s-.65,9.71-.65,9.71l5.81,0,.86-1,4.58,1,9.09,0v-2.4s-7.64-3.37-8.93-4.68Z"/><path class="cls-27" d="M246.45,232.5c-4.58-1.36-7.08,2.39-7.51,5.72-2.19,17,4.46,48.73,4.46,48.73l9.14-2.48S250.92,243,250,238.1,246.45,232.5,246.45,232.5Z"/><polygon class="cls-30" points="212.14 197.72 218.18 195.93 217.46 190.97 211.29 191.86 212.14 197.72"/><path class="cls-32" d="M236.91,134.58c5.65,13.39,7.17,19.44,5.1,29.68s0,15.18,0,15.18l-2.57,7.46-5.58-5.33a104,104,0,0,1,3.68-22.24c3.15-10.3-2.44-24-2.44-24Z"/><path class="cls-27" d="M226.66,129.49c-2,2.28,7.63,5.24,7.35,14.76s-8.57,22.92-9.07,32.09-7.13,22.77-5.77,30.9c0,0-10-3.85-9-10.92s5.83-11.22,6.79-22.88-2.61-15.18-6-21.62c-1.86-3.5-2.52-13.23,3.33-15.89S226.66,129.49,226.66,129.49Z"/><path class="cls-26" d="M219.73,202.72a1,1,0,0,1-.14,1.55,6.49,6.49,0,0,0-.79.7l-.84.85a.55.55,0,0,1-.78,0,1.27,1.27,0,0,1,0-1.76l.9-1.21a1,1,0,0,1,1.66-.16Z"/><path class="cls-26" d="M219.18,204.27h0a.92.92,0,0,1-1-.81l-.24-2.1a.92.92,0,0,1,.81-1h0a.93.93,0,0,1,1,.81l.23,2.11A.92.92,0,0,1,219.18,204.27Z"/><path class="cls-26" d="M219.49,201.51h0a.83.83,0,0,1-1.16.18l-1.54-1.13a.83.83,0,0,1-.19-1.17h0a.84.84,0,0,1,1.17-.18l1.54,1.13A.83.83,0,0,1,219.49,201.51Z"/><rect class="cls-31" x="220.3" y="205.31" width="0.83" height="2.47" transform="translate(459.61 391.79) rotate(174.69)"/><path class="cls-31" d="M210.65,207.09a7.51,7.51,0,0,1,5.52-2.89,5.1,5.1,0,0,1,4,1.9l1.18-1a6.63,6.63,0,0,0-5.2-2.45,9.12,9.12,0,0,0-6.7,3.45Z"/><path class="cls-26" d="M217.6,199.08l-.37-.29-5.46.58h0a7.17,7.17,0,0,0-.14,2h0l0,.11.42,4v0a.8.8,0,0,0,.88.7h0a.79.79,0,0,0,.7-.88v0a.07.07,0,0,1,.06-.07h0s.07,0,.07.06l.06.54a.8.8,0,0,0,.9.71.82.82,0,0,0,.68-.9l0-.13a.07.07,0,0,1,.06-.07h0s.07,0,.08.06l0,.38a.79.79,0,0,0,.87.71h0a.8.8,0,0,0,.71-.87l-.06-.54a.08.08,0,0,1,.05-.08.06.06,0,0,1,.08.06l0,.19a.8.8,0,0,0,.88.7h0a.78.78,0,0,0,.7-.87l-.34-3.23-.45-2.23A1.23,1.23,0,0,0,217.6,199.08Z"/><path class="cls-26" d="M214.34,191.29l2.07,6.93,1.22.89a1.22,1.22,0,0,1,.41.71c.16.8.47,2.31.47,2.31-1.58.43-2.69-1.33-3.63-1.42.15,1.45-2.89,2.4-3.24.77l0-.11h0a7.17,7.17,0,0,1,.14-2l.74-7.91Z"/><path class="cls-26" d="M213.09,206.38h0a.81.81,0,0,1-.89-.72L212,204a.82.82,0,0,1,.73-.89h0a.82.82,0,0,1,.89.73l.16,1.66A.8.8,0,0,1,213.09,206.38Z"/><path class="cls-26" d="M216.55,207.29h0a.91.91,0,0,1-1-.81l-.37-3.32a.91.91,0,0,1,.81-1h0a.92.92,0,0,1,1,.82l.37,3.31A.91.91,0,0,1,216.55,207.29Z"/><path class="cls-26" d="M215,207.13h0a.83.83,0,0,1-1-.59l-.82-2.9a.83.83,0,0,1,.59-1h0a.83.83,0,0,1,1,.59l.82,2.9A.83.83,0,0,1,215,207.13Z"/><path class="cls-26" d="M218.23,206.85h0a.87.87,0,0,1-.94-.77l-.28-2.76a.86.86,0,0,1,.77-.94h0a.85.85,0,0,1,.94.77l.28,2.75A.86.86,0,0,1,218.23,206.85Z"/><rect class="cls-31" x="209.87" y="206.28" width="0.83" height="2.47" transform="translate(438.92 394.64) rotate(174.68)"/><rect class="cls-31" x="196.33" y="207.94" width="38.39" height="26.32" transform="translate(450.61 421.28) rotate(174.68)"/><rect class="cls-31" x="198.69" y="207.72" width="38.39" height="26.32" transform="translate(455.31 420.62) rotate(174.68)"/><path class="cls-33" d="M195.94,217.78s7.13,3.51,19.49,2.36,18.73-5.92,18.73-5.92l-.75-8-38.22,3.56Z"/><path class="cls-33" d="M213.62,221c.1,1,.17,1.83.17,1.83a1.69,1.69,0,1,0,3.36-.31s-.08-.84-.17-1.83Z"/><polygon class="cls-30" points="209.54 195.82 210.54 201.07 217.28 197.4 216.02 192.29 209.54 195.82"/><path class="cls-27" d="M207,175.59c3.6.87,6.65-2.63,8.76-9.82s7.25-15.13,7-22.92-11.84-10.08-14.69-2.13-4.51,23-4.13,28S207,175.59,207,175.59Z"/><path class="cls-27" d="M218,196.09c-1-6.39-4.38-18.85-4.21-25.45-2.65-4.58-8.79-4.59-9.68-2.15-.71,1.94,1,20.67,4.73,31.31Z"/><path class="cls-34" d="M226.36,169.35c3.84-19,1.65-22.42,1.65-22.42l3-1.67-2.6-2.14a14.58,14.58,0,0,0-.8-6.73c-1.17-3.19-2.87-5-1.7-6.72.38-.55,1.64-1.42,2.3-1.18,1.37.51,2,3.73,3.21,5.8a24.42,24.42,0,0,1,2.7,11.62C233.51,153.55,226.36,169.35,226.36,169.35Z"/><path class="cls-34" d="M236.28,130.19c2.49,1.11,4.57,3.86,6,6.31a36.49,36.49,0,0,1,2.29,4.94l-1.13,1.85,1.86.48s0,9.43-.08,13.34-.7,15.15-.7,15.15-.21-17.24-1-21.92-3.07-13.63-5.64-16.4c-1.22-1.32-1.49-2-3.72-2.54s-2.15-1.23-1.26-1.5A11.25,11.25,0,0,1,236.28,130.19Z"/><polygon class="cls-32" points="237.11 131.41 237.21 135.38 235.4 136.01 232.26 132.11 234.57 130.95 237.11 131.41"/><path class="cls-26" d="M235.91,112.36l-8.33,2.53-.85,14.35a2.44,2.44,0,0,0,2.39,2.59l4.55.08a2.45,2.45,0,0,0,2.49-2.48Z"/><path class="cls-30" d="M238,131.13a4.15,4.15,0,0,0-1.79-2.14,5.38,5.38,0,0,1-4.27,1.32,16.65,16.65,0,0,1-5.29-1.41s-1.13,1,2.49,4.26a24.88,24.88,0,0,0,3.67,2.59s1.22-3.46,2.53-3.65,2.54,2,2.54,2A5.54,5.54,0,0,0,238,131.13Z"/><path class="cls-26" d="M229.86,124.08c6.78,3,12.11,2.11,12.31-.15.18-2-.29-4.86-.21-5.38s.83-.67.78-1.51-1.76-2.37-2.32-4-1.92-7.27-4.59-7.82-7.28-1.08-9,3.24-2.6,12.66-1.07,14.1A7.12,7.12,0,0,0,229.86,124.08Z"/><path class="cls-35" d="M230.06,115.82c-.31-2.82-.07-5.6,2.38-5.73a36.27,36.27,0,0,0,6.44-1,2.17,2.17,0,0,0,.67-4,2.54,2.54,0,0,0,0-.39,3.39,3.39,0,0,0-3.79-2.91,2.38,2.38,0,0,0-3.89-.22,3.35,3.35,0,0,0-3.31.78,3.39,3.39,0,0,0-5.43,2.91,3.39,3.39,0,0,0-2.13,3.62,3.34,3.34,0,0,0,.57,1.46,3.36,3.36,0,0,0,0,4.61,3.44,3.44,0,0,0-.71,2.58,3.38,3.38,0,0,0,3,2.91,3.35,3.35,0,0,0-.18,1.58,3.7,3.7,0,0,0,3.33,3c.25,0,.33-4.2-.17-5.29a11.22,11.22,0,0,1-.73-2.87c-.12-1.47.59-2.35,1.9-1.93a3.34,3.34,0,0,1,1.21,1.43C230,117.73,230.16,116.69,230.06,115.82Z"/><path class="cls-26" d="M249.73,114.69h0a.85.85,0,0,1-1.19-.18l-3-4.15a.86.86,0,0,1,.19-1.19h0a.86.86,0,0,1,1.19.18l3,4.15A.86.86,0,0,1,249.73,114.69Z"/><path class="cls-26" d="M250.06,115.7h0a.85.85,0,0,1-1.17.29l-3.22-1.93a.86.86,0,0,1-.29-1.17h0a.85.85,0,0,1,1.17-.28l3.22,1.92A.86.86,0,0,1,250.06,115.7Z"/><rect class="cls-36" x="722.07" y="119.65" width="1.62" height="7.45"/><path class="cls-37" d="M727.05,118c0,1.73-1.87,3.13-4.17,3.13s-4.17-1.4-4.17-3.13,1.87-3.12,4.17-3.12S727.05,116.28,727.05,118Z"/><path class="cls-38" d="M722.88,113.64c-2.61,0-4.73,1.61-4.73,3.59h9.46C727.61,115.25,725.49,113.64,722.88,113.64Z"/><rect class="cls-36" x="718.15" y="117.23" width="9.46" height="1.19"/><rect class="cls-36" x="746.05" y="119.65" width="1.62" height="7.45"/><path class="cls-37" d="M751,118c0,1.73-1.87,3.13-4.17,3.13s-4.17-1.4-4.17-3.13,1.87-3.12,4.17-3.12S751,116.28,751,118Z"/><path class="cls-38" d="M746.86,113.64c-2.61,0-4.73,1.61-4.73,3.59h9.46C751.59,115.25,749.47,113.64,746.86,113.64Z"/><rect class="cls-36" x="742.13" y="117.23" width="9.46" height="1.19"/><rect class="cls-36" x="770.03" y="119.65" width="1.62" height="7.45"/><path class="cls-37" d="M775,118c0,1.73-1.87,3.13-4.17,3.13s-4.17-1.4-4.17-3.13,1.86-3.12,4.17-3.12S775,116.28,775,118Z"/><path class="cls-38" d="M770.84,113.64c-2.62,0-4.73,1.61-4.73,3.59h9.45C775.56,115.25,773.45,113.64,770.84,113.64Z"/><rect class="cls-36" x="766.11" y="117.23" width="9.46" height="1.19"/><rect class="cls-36" x="794" y="119.65" width="1.62" height="7.45"/><path class="cls-37" d="M799,118c0,1.73-1.86,3.13-4.16,3.13s-4.17-1.4-4.17-3.13,1.86-3.12,4.17-3.12S799,116.28,799,118Z"/><path class="cls-38" d="M794.81,113.64c-2.61,0-4.72,1.61-4.72,3.59h9.45C799.54,115.25,797.43,113.64,794.81,113.64Z"/><rect class="cls-36" x="790.09" y="117.23" width="9.46" height="1.19"/><rect class="cls-36" x="817.98" y="119.65" width="1.62" height="7.45"/><path class="cls-37" d="M823,118c0,1.73-1.86,3.13-4.17,3.13s-4.17-1.4-4.17-3.13,1.87-3.12,4.17-3.12S823,116.28,823,118Z"/><path class="cls-38" d="M818.79,113.64c-2.61,0-4.72,1.61-4.72,3.59h9.45C823.52,115.25,821.41,113.64,818.79,113.64Z"/><rect class="cls-36" x="814.07" y="117.23" width="9.45" height="1.19"/><rect class="cls-38" x="724.38" y="182.91" width="9.95" height="58.86"/><rect class="cls-38" x="805.61" y="182.91" width="9.95" height="58.86"/><rect class="cls-39" x="711.73" y="128.09" width="116.47" height="64.7"/><path class="cls-36" d="M828.21,195.28H711.73a2.49,2.49,0,0,1-2.49-2.49v-64.7a2.5,2.5,0,0,1,2.49-2.49H828.21a2.49,2.49,0,0,1,2.48,2.49v64.7A2.48,2.48,0,0,1,828.21,195.28Zm-114-5h111.5V130.58H714.22Z"/><rect class="cls-36" x="720.97" y="238.03" width="16.78" height="8.28" rx="1.24"/><rect class="cls-36" x="802.19" y="238.03" width="16.78" height="8.28" rx="1.24"/><path class="cls-40" d="M819.35,164.71c-4.54-3.32-15.41-5.57-17.5-8.05-2.34-2.78.73-6,4-8.44s7.08-5.23,6.23-8.25c-1-3.56-8.35-5.7-15-5.74s-13,1.4-19.52,2.29c-5.22.72-11.14,1.06-16.24-.1a16.89,16.89,0,0,1-6.42-2.9H729.48a30.45,30.45,0,0,0-3.83,2.74c-3.06,2.67-4.33,6.3-1.21,9.12,1.81,1.64,4.86,2.81,6.5,4.5,2.31,2.38,1.37,5.33-.62,7.8s-4.91,4.71-6.66,7.23-2.11,5.57.86,7.74c4.56,3.33,14.05,2.94,20.64,5.06,6,1.94.8,6.1,12.06,9.06h42.7c9.54-.86,17.09-4.25,19.43-7.07Z"/><path class="cls-41" d="M801.41,160.49a279.91,279.91,0,0,0-29-2c-9.57-.2-19.27.57-28.78.22-11.17-.42-3.65-4.28,2.19-5.9,8-2.23,16.91-3.28,25.81-4.12,10.42-1,21-1.67,31.53-2l5-.2c2.26-1.81,4.2-3.75,4.07-5.82-1.12,0-2.44,0-3.67,0-20.28.48-42.93,1.39-61.83,5.45a70.77,70.77,0,0,0-15,4.85c1.22,2.16.28,4.62-1.42,6.73a32,32,0,0,1-2.72,2.91l.43.34a18.62,18.62,0,0,0,7.14,2.84c10.45,2.19,23.94.39,34.56.55,9.37.14,23.32,0,31.67,2.4,9.21,2.66-11.18,4.82-14.72,5.12-9.95.84-20.08.86-30.13,1.1-8.1.19-16.91.48-24.23,2.4,4.24.76,9,1.14,12.84,2.37a5.65,5.65,0,0,1,2.59,1.53c1-.12,1.94-.22,2.79-.26,2.63-.12,5.28-.17,7.91-.22,10.58-.24,21.25-.3,31.69-1.28,9.31-.87,22.55-2.44,25.18-7.91C817.57,164.9,809.45,161.49,801.41,160.49Z"/><path class="cls-14" d="M1154.62,186a3.2,3.2,0,0,1-.54,0h-37.86a9.08,9.08,0,1,1,4.71-17,14.67,14.67,0,0,1,28.91-3.5,11.1,11.1,0,0,1,9.35.3,9.33,9.33,0,0,1,4.4,4.39C1167.26,178,1161.9,185.68,1154.62,186Z"/><path class="cls-15" d="M1134.91,164.75c3.41,2.51,1.38,4.55-1.13,1.14-2.51,3.41-4.55,1.37-1.14-1.14-3.41-2.51-1.37-4.55,1.14-1.14C1136.29,160.2,1138.32,162.24,1134.91,164.75Z"/><path class="cls-16" d="M1134.58,164c4.19-.64,4.19,2.24,0,1.6.64,4.19-2.24,4.19-1.61,0-4.18.64-4.18-2.24,0-1.6C1132.34,159.76,1135.22,159.76,1134.58,164Z"/><path class="cls-17" d="M1134.69,164.75a.91.91,0,1,1-.91-.91A.91.91,0,0,1,1134.69,164.75Z"/><path class="cls-15" d="M1155.43,173.46c2.87,2.11,1.16,3.82-1,.95-2.12,2.87-3.83,1.16-1-.95-2.87-2.11-1.16-3.83,1-1C1156.59,169.63,1158.3,171.35,1155.43,173.46Z"/><path class="cls-16" d="M1155.15,172.78c3.52-.53,3.52,1.89,0,1.35.54,3.53-1.89,3.53-1.35,0-3.52.54-3.52-1.88,0-1.35C1153.26,169.26,1155.69,169.26,1155.15,172.78Z"/><path class="cls-17" d="M1155.24,173.46a.77.77,0,0,1-1.53,0,.77.77,0,1,1,1.53,0Z"/><path class="cls-15" d="M1117.14,176.69c3.14,2.31,1.26,4.19-1.05,1.05-2.31,3.14-4.19,1.26-1-1.05-3.14-2.31-1.26-4.19,1-1.05C1118.4,172.5,1120.28,174.38,1117.14,176.69Z"/><path class="cls-16" d="M1116.83,176c3.86-.59,3.86,2.06,0,1.48.58,3.86-2.07,3.86-1.48,0-3.86.58-3.86-2.07,0-1.48C1114.76,172.09,1117.41,172.09,1116.83,176Z"/><circle class="cls-17" cx="1116.09" cy="176.69" r="0.84"/><path class="cls-14" d="M1201.65,185.75a3.26,3.26,0,0,1-.55,0h-37.86a9.08,9.08,0,1,1,4.71-17,14.67,14.67,0,0,1,28.91-3.51,11.12,11.12,0,0,1,9.36.3,9.44,9.44,0,0,1,4.39,4.39C1214.29,177.77,1208.92,185.41,1201.65,185.75Z"/><path class="cls-15" d="M1181.94,164.48c3.41,2.51,1.37,4.55-1.14,1.14-2.51,3.41-4.55,1.37-1.14-1.14-3.41-2.51-1.37-4.54,1.14-1.13C1183.31,159.94,1185.35,162,1181.94,164.48Z"/><path class="cls-16" d="M1181.6,163.68c4.19-.64,4.19,2.24,0,1.61.64,4.18-2.24,4.18-1.6,0-4.19.63-4.19-2.25,0-1.61C1179.36,159.49,1182.24,159.49,1181.6,163.68Z"/><path class="cls-17" d="M1181.71,164.48a.91.91,0,1,1-.91-.91A.91.91,0,0,1,1181.71,164.48Z"/><path class="cls-15" d="M1202.46,173.19c2.87,2.11,1.15,3.83-1,1-2.11,2.87-3.83,1.15-1-1-2.87-2.11-1.15-3.83,1-1C1203.61,169.36,1205.33,171.08,1202.46,173.19Z"/><path class="cls-16" d="M1202.18,172.51c3.52-.53,3.52,1.89,0,1.36.53,3.52-1.89,3.52-1.36,0-3.52.53-3.52-1.89,0-1.36C1200.29,169,1202.71,169,1202.18,172.51Z"/><path class="cls-17" d="M1202.26,173.19a.76.76,0,0,1-.76.76.77.77,0,0,1-.77-.76.78.78,0,0,1,.77-.77A.77.77,0,0,1,1202.26,173.19Z"/><path class="cls-15" d="M1164.16,176.42c3.14,2.31,1.27,4.19-1.05,1.05-2.31,3.14-4.18,1.26-1-1.05-3.14-2.31-1.27-4.19,1-1C1165.43,172.23,1167.3,174.11,1164.16,176.42Z"/><path class="cls-16" d="M1163.85,175.68c3.86-.59,3.86,2.07,0,1.48.59,3.86-2.06,3.86-1.48,0-3.85.59-3.85-2.07,0-1.48C1161.79,171.82,1164.44,171.82,1163.85,175.68Z"/><circle class="cls-17" cx="1163.11" cy="176.42" r="0.84"/><g id="ツアー"><g id="_4" data-name="4"><path class="cls-42" d="M1050.19,245.39a1.11,1.11,0,0,0,1.09,1h15c.16-1.54-.35-2.94-.27-4.62h0c-.07-4.46.84-9.88,1.17-13.92h-8.65c.1,1.72,1.35,8.92,1.37,12-.51,2.88-4.91,2.6-6.75,3.26C1052,243.37,1050.26,244,1050.19,245.39Z"/><path class="cls-43" d="M1050.12,245.39a1,1,0,0,0,1,1h15.18a1.38,1.38,0,0,0,0-.2.08.08,0,0,1,0,0c0-.08,0-.16,0-.24s0-.35,0-.52v0c0-1.18-.26-2.38-.32-3.57h0a9.14,9.14,0,0,1,0-1.17s-2.76,4.44-13.25,2.62a7.47,7.47,0,0,0-1.09.39,2.93,2.93,0,0,0-1.5,1.34h0A1.19,1.19,0,0,0,1050.12,245.39Z"/><path class="cls-44" d="M1050.12,245.39a1,1,0,0,0,1,1h15.18a1.38,1.38,0,0,0,0-.2.08.08,0,0,1,0,0c0-.08,0-.15,0-.23h0c0-.16,0-.32,0-.5v0Z"/><path class="cls-42" d="M1081.66,247a1.11,1.11,0,0,0,1.43.38l13.33-7c-.56-1.43-1.67-2.43-2.37-4h0c-2.12-3.92-3.83-9.15-5.41-12.88l-7.66,4c.88,1.48,5.32,7.29,6.77,10,.88,2.8-3.15,4.59-4.48,6C1082.35,244.33,1081.09,245.72,1081.66,247Z"/><path class="cls-43" d="M1081.6,247a1,1,0,0,0,1.37.41l13.45-7-.06-.18,0,0-.09-.22c-.08-.15-.16-.31-.25-.46s0,0,0,0c-.59-1-1.33-2-1.93-3h0a9.29,9.29,0,0,1-.54-1s-.39,5.21-10.52,8.46a7,7,0,0,0-.79.84,3,3,0,0,0-.71,1.88h0v0A1,1,0,0,0,1081.6,247Z"/><path class="cls-44" d="M1081.6,247a1,1,0,0,0,1.37.41l13.45-7-.06-.18,0,0a1.89,1.89,0,0,0-.09-.21h0c-.07-.14-.14-.29-.23-.45h0Z"/><path class="cls-42" d="M986,119.89v-4.5l-5.44-.61s-1.48,3.73,1,6.53Z"/><rect class="cls-45" x="978.06" y="110.24" width="10.07" height="5.58" transform="translate(794.33 1084.43) rotate(-85.56)"/><rect class="cls-46" x="978.34" y="110.54" width="10.07" height="5.02" transform="translate(794.57 1084.73) rotate(-85.56)"/><rect class="cls-47" x="979.41" y="110.58" width="8.01" height="3.99" transform="matrix(0.08, -1, 1, 0.08, 795.07, 1084.33)"/><path class="cls-45" d="M982.64,117.16a.44.44,0,1,0,.82.34.43.43,0,0,0-.24-.58A.44.44,0,0,0,982.64,117.16Z"/><path class="cls-42" d="M1003.84,246.5l14.08,0c-.59-4,.09-13,.09-17.73l-8.47.71,2.44,10.12a2.57,2.57,0,0,1-1.75,2.77c-2.61,1-5.6.5-7.27,2.56A1,1,0,0,0,1003.84,246.5Z"/><path class="cls-48" d="M1018.35,245.17a3.45,3.45,0,0,1-.43,1.35l-14.21,0a1,1,0,0,1-1-1.34v0c.54-1.49,2.43-3.71,9-4a16.23,16.23,0,0,0,6-.13A10,10,0,0,1,1018.35,245.17Z"/><path class="cls-49" d="M1006.91,244.67a.28.28,0,0,1-.23-.18,3,3,0,0,0-1.5-1.69.29.29,0,0,1-.16-.38.28.28,0,0,1,.37-.16,3.63,3.63,0,0,1,1.82,2,.29.29,0,0,1-.16.38A.36.36,0,0,1,1006.91,244.67Z"/><path class="cls-49" d="M1009.14,244.4a.3.3,0,0,1-.24-.2,4,4,0,0,0-1.76-2.18.28.28,0,0,1-.12-.39.27.27,0,0,1,.38-.12,4.46,4.46,0,0,1,2.05,2.52.28.28,0,0,1-.19.36A.25.25,0,0,1,1009.14,244.4Z"/><path class="cls-49" d="M1011.69,244.09a.29.29,0,0,1-.24-.19,5.19,5.19,0,0,0-1.78-2.39.28.28,0,0,1-.08-.4.28.28,0,0,1,.39-.08,5.65,5.65,0,0,1,2,2.68.29.29,0,0,1-.18.37A.29.29,0,0,1,1011.69,244.09Z"/><path class="cls-50" d="M1002.76,245.14l15.59,0a3.45,3.45,0,0,1-.43,1.35l-14.21,0a1,1,0,0,1-1-1.34Z"/><path class="cls-42" d="M1036.67,242.92l12.19-7c-2.54-3.2-6.29-11.41-7.94-15.39l-7,4,6.34,8.34a2.59,2.59,0,0,1-.12,3.29c-1.75,2.17-4.59,3.24-5,5.86A1,1,0,0,0,1036.67,242.92Z"/><path class="cls-48" d="M1048.55,234.49a3.52,3.52,0,0,1,.31,1.39l-12.3,7.11a1,1,0,0,1-1.5-.68v0c-.29-1.56.23-4.43,5.72-8a14,14,0,0,0,5.1-2.95A8.8,8.8,0,0,1,1048.55,234.49Z"/><path class="cls-49" d="M1038.29,239.82a.32.32,0,0,1-.18-.06,3,3,0,0,0-2.14-.71.29.29,0,0,1-.09-.57,3.62,3.62,0,0,1,2.59.83.3.3,0,0,1,0,.4A.28.28,0,0,1,1038.29,239.82Z"/><path class="cls-49" d="M1040.09,238.47a.26.26,0,0,1-.19-.07,4.06,4.06,0,0,0-2.63-1,.3.3,0,0,1-.3-.27.29.29,0,0,1,.28-.3,4.54,4.54,0,0,1,3,1.15.3.3,0,0,1,0,.41A.27.27,0,0,1,1040.09,238.47Z"/><path class="cls-49" d="M1042.14,236.93a.26.26,0,0,1-.19-.07,5.21,5.21,0,0,0-2.75-1.18.28.28,0,0,1-.27-.3.29.29,0,0,1,.3-.27,5.66,5.66,0,0,1,3.1,1.31.3.3,0,0,1,0,.41A.32.32,0,0,1,1042.14,236.93Z"/><path class="cls-50" d="M1035.06,242.29l13.49-7.8a3.52,3.52,0,0,1,.31,1.39l-12.3,7.11a1,1,0,0,1-1.5-.68Z"/><path class="cls-42" d="M1010.18,138.44a20.2,20.2,0,0,1-14.89-.15c-10.75-4.24-13.44-15.89-13.67-17a13.35,13.35,0,0,1,4.39-1.42c1.92,3.82,5.12,8.57,10.1,9.66,3,.66,5.2-.35,10.56-1.63a98.57,98.57,0,0,1,15.07-2.33C1021.38,126.76,1018.68,135,1010.18,138.44Z"/><path class="cls-51" d="M1045.74,225.7s-4.55,5.54-9.12,5c-5-8.63-15.13-27.23-15.37-53.23-.46.22-7.23,27.63-2.22,57.91,0,0-6.64,2.9-9.9,1-1.91-11.79-8.72-42.12-1.18-82.52q4.41,0,9-.07c5.72-.12,11.23-.41,16.52-.81a130.3,130.3,0,0,1,2.35,13.93c.92,8.22.31,9.92.84,19.72C1037.21,196.69,1037.68,204.42,1045.74,225.7Z"/><path class="cls-42" d="M1021.26,125.74a9.48,9.48,0,0,1-.12-1.24,32,32,0,0,1,.59-6.79c.07-.32.12-.49.14-.47s0-.14.07-.22a2.67,2.67,0,0,1,1.81-1.58h0a3.93,3.93,0,0,1,3.47.69l0,.05a2.08,2.08,0,0,1,.71,2s0,.08,0,.12,0,.1,0,.15a24.44,24.44,0,0,0-.56,5.58,8.59,8.59,0,0,0,.16,1.9C1033.4,127.39,1015.74,132.2,1021.26,125.74Z"/><path class="cls-52" d="M1020.88,125.47a75.92,75.92,0,0,0-6.45,8.93c-1.34,2.16-2.49,4.26-3.47,6.24a26.35,26.35,0,0,1-10.18.27,25.78,25.78,0,0,1-7.26-2.37,18.5,18.5,0,0,1,1.08-7,17.58,17.58,0,0,1,1.61-3.36c3.1.48,6,.35,11.43-1A49.25,49.25,0,0,1,1020.88,125.47Z"/><path class="cls-52" d="M1035,162.93c-6-4.78-8.21,5.66-14.73,5.84-5.15.15-11.41.86-13.85-2.67-1.28-1.83-1-4.69-.25-10.34a54.79,54.79,0,0,1,2.2-11.44,44.4,44.4,0,0,1,11.24-17.64,3.1,3.1,0,0,0,1.4,1.69c1.33.67,3.27.12,4.56-1.51h0c.5.68,1.23,1.72,2,3,1,1.76,4,7.1,6,19.31A110.88,110.88,0,0,1,1035,162.93Z"/><path class="cls-42" d="M1043.53,154.54a28.83,28.83,0,0,1-1.38,3.34h0a36.24,36.24,0,0,1-4.78,7.27c-.49.58-1,1.17-1.54,1.75,0,0-1.66.14-3.79-2.09a32.61,32.61,0,0,0,4-10.52,16.93,16.93,0,0,0,.44-3.18c0-7.33-8-9.88-9.93-17.8a15.54,15.54,0,0,1,.2-7.64C1036.5,126.82,1048.73,139,1043.53,154.54Z"/><path class="cls-52" d="M1044.59,151.79a17.17,17.17,0,0,1-.58,2.5c-.41-1.63-5.48-2.66-10.53-1.32a29.87,29.87,0,0,0-4.58-9.89c-3.22-4.54-4.34-12.21-2.19-17.41C1039.56,126.67,1047,139.24,1044.59,151.79Z"/><path class="cls-53" d="M1021.19,104.75a1.83,1.83,0,0,0-2.4.5c-.89,1.33.12,2.23-1,3.4s-1.81,1.38-1.49,2.5,1.18,1.23.8,2.63c0,0,4.2-4,4.76-6.51S1021.19,104.75,1021.19,104.75Z"/><path class="cls-42" d="M1017.61,121.48c1.78,2.28,5.07,2.46,7.31,2a5.82,5.82,0,0,0,2.7-1.24h0c6.66-6.61,1.84-16.57-3.46-16.18-1.84.14-4.19,3.26-5.42,5.12s-2.47,3.81-2.32,6.57A6.32,6.32,0,0,0,1017.61,121.48Z"/><path class="cls-53" d="M1020.31,108.23s-1.17-1.44.07-2.5,1.16-2.66,2.88-2.39a7.92,7.92,0,0,0,4.21,0,2.77,2.77,0,0,1,3.37,2.46c-.07,1.18,2.43,1.18,2.8,2.77a6.52,6.52,0,0,1,0,2.76c0,.7,2.18,1.6,1.75,3.25s-1.8,1.39-2.07,2.45.55,2.86-.67,3.46a3.42,3.42,0,0,1-3.37-.28s2.26-4.33.14-5.24c-1-.44-2-1-1.68-2.57s-1.91-1.07-2.45-1.86-.15-1.76-1.14-2S1022.51,109.52,1020.31,108.23Z"/><path class="cls-42" d="M1032.26,116.76a1.76,1.76,0,1,1-1.24-2.45A2,2,0,0,1,1032.26,116.76Z"/><path class="cls-54" d="M1044.59,151.79a17.17,17.17,0,0,1-.58,2.5s-1.31-3.31-10.53-1.32c0,0-.19-.82-.62-2.09,7-2.3,11.73.91,11.73.91Z"/><path class="cls-42" d="M984.12,118.2a4,4,0,0,0,.84-4.47.5.5,0,0,1,.24-.66c.53-.18.71.48.94.82a6,6,0,0,1-.13,6C985.34,121.18,982.81,118.82,984.12,118.2Z"/><path class="cls-42" d="M980.46,115.93c-1.67-.43-1-2.3.35-1.07h0C981.67,115.06,981.28,116.14,980.46,115.93Z"/><path class="cls-42" d="M980.4,114.83c-1.9-.91-.11-2.4.49-1,0,0,.07.06.09.06s0,0,0,0C981.83,114.23,981.11,115.18,980.4,114.83Z"/><path class="cls-42" d="M980.3,113.69l-.49-.41c-.66-.6.42-1.27,1-.77l.48.4C981.91,113.51,980.82,114.19,980.3,113.69Z"/><path class="cls-42" d="M980.37,112.68l-.49-.41c-.66-.6.42-1.27,1-.77l.48.41C982,112.5,980.89,113.18,980.37,112.68Z"/><path class="cls-55" d="M1018.65,232.64c.12.91.24,1.82.38,2.74,0,0-6.41,2.9-9.55,1,0,0-.15-.77-.39-2.24C1009.09,234.13,1014.36,235.47,1018.65,232.64Z"/><path class="cls-55" d="M1046.34,227.28s-5.18,4.68-9.72,3.64c0,0-.39-.73-1-2.08a12.49,12.49,0,0,0,9.63-4.24C1045.89,226.34,1046.34,227.28,1046.34,227.28Z"/><path class="cls-56" d="M1050.44,125.05a11.77,11.77,0,0,1-.64-10.39c2.1-4.78,7.5-5.46,7.5-5.46s19.47-2.28,15.51,36h-22.48S1048,134.43,1050.44,125.05Z"/><path class="cls-57" d="M1070.09,133.84s14.1,7.83,15.77,20.33-12.72,8.22-12.72,8.22Z"/><path class="cls-42" d="M1061.42,141.13c2.37,3.18,6.55,8.43,3.71,12.24-5.55,4.5-16,3.36-22-.38-1-.88-.75-.09-1.53,1.23-1.17,2.14,1.57,3.52,2.92,4.66,7.43,5.29,18.34,6.45,26,1,8.06-6.21,4.31-18.15-.53-25.24C1065.74,128.7,1057,135.34,1061.42,141.13Z"/><path class="cls-58" d="M1049.66,166a38.82,38.82,0,0,0,4.87,11.09,4.3,4.3,0,0,1,3.13-.58c1.17-2.78-.85-3.65-.87-6.17,1.26-12.05.07-26.19-.21-38.33C1045.46,136.69,1046.3,154.63,1049.66,166Z"/><path class="cls-43" d="M1095.55,229s-6.72,8.46-15.56,8.39q-.71-1.41-1.35-2.76c-8.59-18.06-8.57-29.08-13-49a.44.44,0,0,0,0-.1c-.12-.82.24,26.9,4.42,49.72.06.35.12.7.19,1.05.14.73.28,1.45.43,2.17,0,0-10.36,4.09-16.34.12l-.28-2.75c-.91-9.39-3.71-40.87-2.65-64,0,0,11.79-7,21.5-12.24,0,0,5.77,7.11,8.81,26.65,2.54,16.27,7.11,27.09,12.63,39.84Z"/><path class="cls-58" d="M1051,169.15c8.59,4,28.06-4.45,27.72-4.62.58-3.61-3.42-7.08-3.72-11.22.09-9.49-6.86-22.22-12.84-21.95L1057,132a31,31,0,0,0-5.94,9.27c-2.4,5.75-.32,7.69.27,12.45C1052.22,158.18,1049,165.5,1051,169.15Z"/><path class="cls-57" d="M1054.82,133.18a33.07,33.07,0,0,0-3.58,7.47s.22-3.52,1.23-5.29A2.89,2.89,0,0,1,1054.82,133.18Z"/><path class="cls-57" d="M1065,131.47s-3.87,4.59-1.57,12.68c0,0,.63-7.5,3.45-12.2A2.11,2.11,0,0,0,1065,131.47Z"/><path class="cls-59" d="M1057.28,136.41a3.53,3.53,0,0,0,.57,0,6.63,6.63,0,0,0,4.84-2.29,9,9,0,0,0,1.59-2.55l.08-.23a12.59,12.59,0,0,0-1.32-.15h0l-5.53.72c-.33.11-.65.23-1,.37a10,10,0,0,0-.57,1.25C1055.45,134.94,1055.48,136.26,1057.28,136.41Z"/><path class="cls-42" d="M1056.89,132c0,.18-1.88-3.11-1.72-4.94.29-3.62,6.44-7.56,6-4-.22-.08,1.82,8.09,1.82,8.09-.28,1.78-3.2,3.43-5,3.5C1055.91,134.78,1056.89,132,1056.89,132Z"/><path class="cls-42" d="M1063.64,120.54c.16,2.48,0,5.36-1.55,7.38h0a6.16,6.16,0,0,1-2.4,1.85c-.69.13-4,.65-6.25-1.39a8,8,0,0,1-2.1-3.88,12.72,12.72,0,0,1-.57-5.56,8.15,8.15,0,0,1,1.68-4.46,4.28,4.28,0,0,1,1.38-1.25C1056.69,111.87,1063.33,115.78,1063.64,120.54Z"/><path class="cls-56" d="M1052.92,116.79a32.29,32.29,0,0,0,2.73,1.85,29.65,29.65,0,0,0,6.28,2.82l2.33-2.09a8.85,8.85,0,0,0,0-2.76c0-.27-.59-3.33-2.82-4.78-3.77-2.45-10.32,1.06-10.28,3.16C1051.22,115.69,1052,116.29,1052.92,116.79Z"/><path class="cls-42" d="M1065.43,121.4a1.79,1.79,0,1,1-1.78-2.15A2,2,0,0,1,1065.43,121.4Z"/><path class="cls-58" d="M1044.42,158.48a14.69,14.69,0,0,0,1.69,1.44c3.73,2.57,11,6,16.77,4.81s13.61-5.73,12.66-18-9.21-14.79-9.21-14.79c-2.9,5.25-3.2,12.16-3.2,12.16,2.57,4.84,1.12,9.29-4,11-3.53,1.16-8.39.48-11.06-.05a6.66,6.66,0,0,1-1.85-.62A4.73,4.73,0,0,1,1044.42,158.48Z"/><path class="cls-42" d="M1043.56,153.49c-.38-.72-2.76-4.82-3.51-4.38s.52,1.58.64,2.16a11,11,0,0,0-5-1.58.5.5,0,0,0-.14,1,10.82,10.82,0,0,1,2.36.92c-1-.23-3.15-.84-3.37-.15a.47.47,0,0,0,.33.58,19.21,19.21,0,0,1,3.32,1.3q-.73-.18-1.47-.39c-.66-.19-2-1-2.34-.31s2.14,1.52,4.39,2.18c-.83-.12-1.7-.29-2.51-.48a.46.46,0,0,0-.28.88c1.2.39,7.61,3.38,6.62.25a.86.86,0,0,0,.27-.61A1,1,0,0,0,1043.56,153.49Z"/><path class="cls-54" d="M995.19,139.35l-1.67-.81a18.3,18.3,0,0,1,1.12-7,18.81,18.81,0,0,1,1.64-3.36,11,11,0,0,0,2,.23h0A26.77,26.77,0,0,0,995.19,139.35Z"/><path class="cls-54" d="M1028.57,125.87a9,9,0,0,1-.9.69c-.47.31-1.06.67-1.71,1-1.64.85-3.64,1.57-4.91,1.19a1.79,1.79,0,0,1-1.35-1.38,2.4,2.4,0,0,1-.06-.7,4,4,0,0,1,.24-1.21h0c.84,0,1.3,0,1.3,0,0,.15-1,4.17,5.46.2h0A10.24,10.24,0,0,1,1028.57,125.87Z"/><path class="cls-54" d="M1024.75,136.81c-6.22,0-9.57-1.84-9.71-1.93l.89-1.59s3.42,1.85,9.66,1.68l.05,1.82Z"/><path class="cls-54" d="M1023.57,140.91c-6.23,0-9.57-1.84-9.72-1.92l.89-1.6s3.42,1.85,9.67,1.68l0,1.83Z"/><path class="cls-59" d="M1045.92,154.28l2,.64s.42,3.26-2.19,4.87a6.69,6.69,0,0,1-1.76-1.43A5.9,5.9,0,0,0,1045.92,154.28Z"/></g><g id="_3" data-name="3"><path class="cls-3" d="M1130.48,120.76a10.34,10.34,0,0,1-.11-1.29,34.82,34.82,0,0,1,.57-7.06c.06-.33.11-.51.13-.48a1.55,1.55,0,0,1,.07-.23,2.6,2.6,0,0,1,1.74-1.65h0a3.59,3.59,0,0,1,3.33.72s0,0,0,0a2.31,2.31,0,0,1,.68,2.09s0,.08,0,.11,0,.11,0,.17a27.08,27.08,0,0,0-.53,5.79,9.46,9.46,0,0,0,.15,2C1142.13,122.48,1125.19,127.48,1130.48,120.76Z"/><path class="cls-3" d="M1134.54,129.77c-4.19,5.76-7,13.65-13.89,17.2a9.43,9.43,0,0,1-8.8-.73c-7.51-5.49-2.4-15.85.92-22.15,1.61-2,2.84-7.47,6.13-5.92a2,2,0,0,1,.71,2.31c-1.69,5.87-4.66,12.33-3.27,18.32.41.42-.13-.3.12-.26l.44-.06c-.47-.07-.55.06-.16-.36,3.55-4.5,5.47-9.91,9-14.79C1129,118.71,1138.68,124.13,1134.54,129.77Z"/><path class="cls-46" d="M1130.5,120.68c-2,6.76-6.67,22.91-10.15,26.63a8.12,8.12,0,0,1-5.76,2.5,9,9,0,0,1-6-3.05c-3.8-4.2-1.66-14.3,5-25.07a5.19,5.19,0,0,0,4.52,1.63c0,.45,0,1-.08,1.61h0c-.32,3.6-.83,6.26-1,6.95C1118,126.4,1125.47,121,1130.5,120.68Z"/><path class="cls-3" d="M1140.76,242.8l.18.21c0,.17.32.43.49.43.12-.16,7.69.15,7.29-.52h.11c.36-2.24-1.55-2-1.16-4.25l1.7-56.74-13,4.3c-.09,2.64,5.23,53,5.23,53A9.17,9.17,0,0,0,1140.76,242.8Z"/><path class="cls-3" d="M1110.46,243.73l14.62-5.75s4.59-45.38,5.19-49.93l-13.84-2.31,2.67,50.65a2.77,2.77,0,0,1-1.86,3c-2.77,1.06-6,.54-7.71,2.74A1.08,1.08,0,0,0,1110.46,243.73Z"/><path class="cls-48" d="M1125.31,243.09a3.93,3.93,0,0,1-.47,1.5h-15.76a1.11,1.11,0,0,1-1.06-1.48v0c.58-1.66,2.68-4.14,9.92-4.51a15.28,15.28,0,0,0,6.54,0A9.83,9.83,0,0,1,1125.31,243.09Z"/><path class="cls-48" d="M1148.42,244.59H1142a1.41,1.41,0,0,1-1.42-1.48v0c.08-1.77.82-4.47,4.63-4.51s4.56,2.72,4.64,4.51v0A1.42,1.42,0,0,1,1148.42,244.59Z"/><path class="cls-49" d="M1112.66,242.55a.32.32,0,0,1-.3-.19,3.44,3.44,0,0,0-1.66-1.89.32.32,0,0,1-.18-.41.31.31,0,0,1,.41-.18,4,4,0,0,1,2,2.24.31.31,0,0,1-.17.41A.25.25,0,0,1,1112.66,242.55Z"/><path class="cls-60" d="M1127.12,108.55a14.53,14.53,0,0,1,.38-4.84l1.69.61Z"/><path class="cls-3" d="M1128.42,115.91a9.11,9.11,0,0,0,7,1.54,8.32,8.32,0,0,0,1.92-.57h0a4.28,4.28,0,0,0,.55-.49h0c7.9-10.12-5.94-23.32-9.94-9.88a19.33,19.33,0,0,0-1.51,4.24,4.31,4.31,0,0,0,2,5.16Z"/><path class="cls-60" d="M1126.13,99.84c.87-2.33,4-3.9,7.18-1.51,2.43,1.85,4.8,1.56,5,3.77,4.63,1.5,3,6.61,3,6.61h-2.24a6.8,6.8,0,0,1-3-4.77h0a5.67,5.67,0,0,1-1.69.06,10.81,10.81,0,0,0-5.85.73C1126.77,105.61,1125.17,102.44,1126.13,99.84Z"/><path class="cls-60" d="M1131.66,118.94c2.64.23,6.61-.66,7.91-3.61a5.52,5.52,0,0,0,.37-2.92l-.87-3.71-1.62-1.47c.6,4.82-.08,6.21-.85,6.56-1.66.75-4.32-3.19-8.39-2.64a6.35,6.35,0,0,0-1.87.56c-.07.29-.85,3.57,1.23,5.69A6,6,0,0,0,1131.66,118.94Zm-4.81-4.86c.41-3.36,5.42-.12,5.84,1.26C1130.75,115.68,1127.88,115.84,1126.85,114.08Z"/><path class="cls-3" d="M1141.35,110.53a1.39,1.39,0,1,1-1.2-1.81A1.56,1.56,0,0,1,1141.35,110.53Z"/><path class="cls-49" d="M1115.14,242.25a.31.31,0,0,1-.31-.22,4.45,4.45,0,0,0-2-2.43.31.31,0,0,1-.13-.43.32.32,0,0,1,.43-.13,5,5,0,0,1,2.27,2.8.31.31,0,0,1-.21.4Z"/><path class="cls-49" d="M1118,241.91a.32.32,0,0,1-.3-.22,5.72,5.72,0,0,0-2-2.66.33.33,0,0,1-.09-.44.32.32,0,0,1,.45-.09,6.3,6.3,0,0,1,2.23,3,.32.32,0,0,1-.19.41Z"/><path class="cls-49" d="M1142.85,240.49a.31.31,0,0,1-.29-.18.33.33,0,0,1,.16-.43c.11,0,2.8-1.25,5,0a.32.32,0,1,1-.33.55c-1.87-1.1-4.34,0-4.37,0A.27.27,0,0,1,1142.85,240.49Z"/><path class="cls-50" d="M1108,243.09h17.28a3.93,3.93,0,0,1-.47,1.5h-15.76a1.11,1.11,0,0,1-1.06-1.48Z"/><path class="cls-50" d="M1148.42,244.59H1142a1.41,1.41,0,0,1-1.42-1.48v0h9.27v0A1.42,1.42,0,0,1,1148.42,244.59Z"/><path class="cls-51" d="M1153.34,235c-5.5,1-12.12,1.84-17.63,0,0,0-1.48-36.82-3.1-56.93l-1.2,57a29.19,29.19,0,0,1-15.7.69s-.88-59.71,2-74.05c-.31.27,22.51,2.26,30.7-.9C1150.08,168.17,1152.69,219.72,1153.34,235Z"/><path class="cls-55" d="M1120.35,162.21c0,.28-1.58,28.09-1.76,74.07l-1-.15c.19-45.93,1.75-73.7,1.77-74Z"/><path class="cls-55" d="M1124.12,164.19c0,.58-2.2,57.16-2.27,72.3-.35,0-.7,0-1,0,.07-15.19,2.25-71.73,2.27-72.31Z"/><path class="cls-55" d="M1127.74,164.85c0,.57-2.09,55.52-2.11,71.42l-1,.11c0-15.8,2.09-71,2.11-71.57Z"/><path class="cls-55" d="M1130.65,164.84c0,.58-1.33,53.2-2,70.92l-1,.21c.68-17.45,2-70.57,2-71.15Z"/><path class="cls-55" d="M1137.76,235.53l-1-.25c-.26-17.9-3.1-70.26-3.13-70.82l1-.06C1134.65,165,1137.53,217.84,1137.76,235.53Z"/><path class="cls-55" d="M1140.92,236l-1-.09c-1-16.28-3.27-70.16-3.29-70.73l1,0C1137.64,165.66,1139.88,219.89,1140.92,236Z"/><path class="cls-55" d="M1145.11,236l-1,0c-1-13-4.93-69.78-5-70.39l1-.07C1140.18,166.16,1144.07,223.05,1145.11,236Z"/><path class="cls-55" d="M1148.52,235.7l-1,.11c-.74-14.86-4.53-61.3-5.56-73.74-.15-1.89-.24-3-.25-3.08l1-.09c0,.08.09,1.17.25,3C1144,174.27,1147.76,220.72,1148.52,235.7Z"/><path class="cls-55" d="M1151.89,235.22l-1,.17c-1.56-14-4.51-60.19-5.38-73.9-.15-2.37-.23-3.77-.24-3.86l1-.07c0,.1.09,1.44.23,3.71C1147.36,174.76,1150.33,221.16,1151.89,235.22Z"/><path class="cls-46" d="M1149.4,164.68a43,43,0,0,1-32.07.94c-.08-1.35-.15-3.2-.11-5.4a79.8,79.8,0,0,1,1-11.54c1.7-11.22,2.55-16.84,4.58-20.18a24.51,24.51,0,0,1,7.66-7.81c-.28,2,.17,3.74,5.68.22.76.54,1.68-.22,1.68-.22a69.9,69.9,0,0,1,7.74,15.77A74,74,0,0,1,1149.4,164.68Z"/><path class="cls-48" d="M1118.67,123.32c0,.45,0,1-.09,1.61h0c-3.92.73-5.56-1.8-5.56-1.8.68-.91,1.13-1.44,1.13-1.44A5.19,5.19,0,0,0,1118.67,123.32Z"/><path class="cls-48" d="M1138.22,120.69c-1.51,1.58-4.53,3.49-7,3.33a2.27,2.27,0,0,1-2.19-3.12,10.84,10.84,0,0,1,1.33-.22c-.31,1.83.11,3.14,6-.16C1136.9,120.58,1137.65,120.57,1138.22,120.69Z"/><path class="cls-61" d="M1124.2,117a3,3,0,0,0,.26-1l2-.74a.9.9,0,0,0,.53-1.15l-.2-.54a.89.89,0,0,0-1.15-.53l-2,.74h0a2.83,2.83,0,0,0-3-.67l-6.17,2.28a1.82,1.82,0,0,0-1.08,2.34l.72,2a1.83,1.83,0,0,0,2.35,1.08l6.17-2.28A2.85,2.85,0,0,0,1124.2,117Z"/><rect class="cls-62" x="1117.02" y="113.87" width="4.13" height="5.73" transform="translate(28.91 395.1) rotate(-20.28)"/><path class="cls-3" d="M1116.5,115.19c-.34-1.72,1.75-1.92,1.16-.16v0C1117.85,115.9,1116.66,116,1116.5,115.19Z"/><path class="cls-3" d="M1117.5,114.64c0-2.14,2.22-1.19,1.22,0,0,0,0,.09,0,.13h0C1118.71,115.67,1117.49,115.46,1117.5,114.64Z"/><path class="cls-3" d="M1118.54,114l.17-.63c.26-.87,1.39-.2,1.15.52l-.17.63C1119.43,115.42,1118.3,114.75,1118.54,114Z"/><path class="cls-3" d="M1119.52,113.64l.17-.63c.26-.87,1.39-.19,1.15.53l-.17.62C1120.41,115,1119.28,114.36,1119.52,113.64Z"/><path class="cls-3" d="M1119.2,119.75a6.61,6.61,0,0,0,2.42-3.38.71.71,0,0,1,1.4.22c-.08,2.22-2.4,4.89-4,5.59-.41.32-.43-.26-.76-.67a1,1,0,0,1-.2-.47Z"/><path class="cls-3" d="M1142.2,122.3c19.66,8.07,19.93,20.71,19.93,20.71s.18,8.32-10.6,18.34c-.28.25-.92.85-1.58.7-.5-.11-.86-.8-1.66-2.1-.9-1.71-1.18-2.11.48-2.84a48.86,48.86,0,0,0,5-4.09c3.54-3,6.29-7.89,3.45-12.21-4-6-10.83-9.68-17.24-18.67A2.93,2.93,0,0,1,1142.2,122.3Z"/><path class="cls-46" d="M1138.22,120.69a32.87,32.87,0,0,1,12.6,5.51c2,1.46,12.43,9,11.55,18.48a21.09,21.09,0,0,1-3.11,8.28,28.17,28.17,0,0,1-5.62,6.95,5.16,5.16,0,0,0-3.2-4,112.16,112.16,0,0,0,2.53-10.95,6.57,6.57,0,0,0-.06-3.23c-.76-2.55-3.16-3.83-4.81-4.79-4.81-2.8-11-6.4-11.72-10.63C1136.19,125.15,1136.29,123.3,1138.22,120.69Z"/><path class="cls-3" d="M1151,159.53a1.08,1.08,0,0,0-.43-.95,1.14,1.14,0,0,0-1-1.43,13.62,13.62,0,0,0-6.66,1.19,12.42,12.42,0,0,0-2.54,1.55.64.64,0,0,0,.71,1.05,10.58,10.58,0,0,1,2.21-1c-1.53.82-3,1.81-2.67,2.43.61.92,1.76-.36,2.54-.49.77-.3,1.55-.57,2.35-.81-.55.3-1.1.58-1.66.85-.62.48-2.65.69-2.36,1.69s2.16-.22,2.93-.37,1.4-.57,2.09-.88c-.64.39-1.3.77-2,1.12a.64.64,0,0,0,.51,1.17l.8-.3a26.41,26.41,0,0,0,5.45-2.78A1.13,1.13,0,0,0,1151,159.53Z"/><path class="cls-44" d="M1146.25,142.41c-12.85.41-23-9.46-21.67-19.33.22-1.51,2.66-2.39,2.46-1.32-1.84,10,10.32,20.27,21.9,18.11,1.49-.32,1.3,2.15.46,2.28A17.46,17.46,0,0,1,1146.25,142.41Z"/><path class="cls-43" d="M1144.38,140.71a7.91,7.91,0,0,1-10.81,2.85l-2.2-1.28a7.91,7.91,0,0,1-2.85-10.81,1.35,1.35,0,0,1,.81-.62,1.32,1.32,0,0,1,.34,0,1.25,1.25,0,0,1,.67.18l13.56,7.9a1.22,1.22,0,0,1,.49.49A1.32,1.32,0,0,1,1144.38,140.71Z"/><path class="cls-44" d="M1144.39,139.38a7.91,7.91,0,0,1-8.64.45l-2.2-1.28a7.91,7.91,0,0,1-3.88-7.74h0a4.07,4.07,0,0,1,2.19.53l11,6.39a4.17,4.17,0,0,1,1.55,1.65Z"/><rect class="cls-58" x="1130.4" y="134.53" width="1.62" height="4.02" transform="translate(222.55 -550.92) rotate(30.23)"/><path class="cls-59" d="M1131.51,137.74h-.06l-1.39-.82a.1.1,0,0,1,0-.15l.79-1.36s0-.05.07-.05a.08.08,0,0,1,.08,0l1.4.81a.11.11,0,0,1,0,.15l-.8,1.37a.1.1,0,0,1-.06.05Zm-1.25-1,1.21.7.69-1.17-1.21-.71Z"/><rect class="cls-58" x="1137.73" y="138.8" width="1.62" height="4.02" transform="translate(225.69 -554.03) rotate(30.23)"/><path class="cls-59" d="M1138.84,142l0,0-1.4-.81a.11.11,0,0,1,0-.15l.8-1.37s0,0,.06,0a.14.14,0,0,1,.09,0l1.4.81a.11.11,0,0,1,0,.15l-.79,1.37a.12.12,0,0,1-.07,0Zm-1.25-1,1.21.71.69-1.18-1.21-.71Z"/></g><g id="_2" data-name="2"><path class="cls-42" d="M962.8,246.8h-5.91a1.28,1.28,0,0,1-1.22-1.64c.43-1.5,1.42-2.84,1.28-4.51s-.81-10.22-1-12.14h6.71c0,2.15,0,9.92,0,11.9C962.08,242.34,965.91,246.29,962.8,246.8Z"/><path class="cls-48" d="M962.81,246.8h-5.95c-1.84-.24-1.31-2.1-.63-3.11a6.17,6.17,0,0,1,7.28,0C964.21,244.82,964.53,246.68,962.81,246.8Z"/><path class="cls-50" d="M962.87,246.8h-6.09a1.2,1.2,0,0,1-1.17-1.43H964A1.2,1.2,0,0,1,962.87,246.8Z"/><ellipse class="cls-54" cx="953.63" cy="114.24" rx="5.75" ry="7.25" transform="translate(426.1 916.85) rotate(-63.52)"/><ellipse class="cls-52" cx="951.55" cy="119.52" rx="8.31" ry="15.51" transform="translate(502.94 967.16) rotate(-69.27)"/><path class="cls-53" d="M959.89,141.27h-20c.19.41,1.69-12.72,1.09-18.75l8.25-8.61s9.42-3.56,10.5,12.32C960.44,136.91,959.89,141.27,959.89,141.27Z"/><path class="cls-44" d="M960.84,178.13l-15.06,2.36s-7.43-31-4.49-40.89c.63-2.12,23.61-13.13,31.34,17l.69,4.41A15,15,0,0,1,960.84,178.13Z"/><path class="cls-51" d="M944.68,135.21s-12.22,2.63-16.88,19.52l11.8,2.69Z"/><path class="cls-53" d="M949.7,114.11c-6.59-2.93-11,7.54-7.58,12.94Z"/><path class="cls-42" d="M958.41,172.45H936.12a106.69,106.69,0,0,1,3-26.29c1.24-5,1.95-9,6.71-11.66a32.36,32.36,0,0,1,.54-9,2.53,2.53,0,0,1,1.66-1.9,2.76,2.76,0,0,1,3.66,3.18,31.26,31.26,0,0,0-.35,7.91c9.67,3.09,4.74,14.08,5.4,21.46A83.23,83.23,0,0,0,958.41,172.45Z"/><path class="cls-42" d="M941.25,245.07a5.08,5.08,0,0,1,0,1H926.33a1.07,1.07,0,0,1-.88-1.68,4.87,4.87,0,0,1,2.77-1.55c1.86-.51,6.17-.37,6.67-3.22.12-1.63-1.22-10.05-1.35-11.84h8.54C941.69,232.76,940.3,240.14,941.25,245.07Z"/><path class="cls-48" d="M941.25,245.57a3.56,3.56,0,0,1,0,.47h-15a1,1,0,0,1-.91-1.43h0a3.77,3.77,0,0,1,2.56-1.7c10.37,1.79,13.09-2.59,13.09-2.59C940.91,241.73,941.27,243.85,941.25,245.57Z"/><path class="cls-50" d="M941.25,245.07a5.08,5.08,0,0,1,0,1h-15a1,1,0,0,1-.91-1.43h16A3.78,3.78,0,0,1,941.25,245.07Z"/><path class="cls-42" d="M955.42,124.2c-.39,2.46-1.22,5.24-3.17,6.86h0a5.6,5.6,0,0,1-1.29.81,7.06,7.06,0,0,1-1.47.46,7.93,7.93,0,0,1-7.21-3.32,8.46,8.46,0,0,1-.77-6.61,11,11,0,0,1,3.27-5.67c1.89-2.75,6-2.6,8.28-.37A9.21,9.21,0,0,1,955.42,124.2Z"/><path class="cls-63" d="M964.07,239.7s-4.56,1.63-7.73.3c-1.93-9.9-7.52-29.86-9.43-49.14,0-.78-6.3,27.12-4.69,48.51-2,.68-6.38,1.73-8.42.11-1.47-10.07-5.4-38.62.69-68.87,0,0,12.94,1.56,24.4-1.3,0,0,5,8.27,3.74,26C961.58,212.47,962.37,229.57,964.07,239.7Z"/><path class="cls-51" d="M960.09,169s-11.19,12.67-26.2,3c0,0,.92-27.7,10.23-36.11a9.64,9.64,0,0,1,.8-.66s1.26,5.59,8.11,0a6,6,0,0,1,.72.35C961.21,139.74,957.06,155.88,960.09,169Z"/><path class="cls-53" d="M946.59,115.18s-.69,6.76,6.95,9.54l2.75-1.52C959,118,954.12,110.24,946.59,115.18Z"/><path class="cls-64" d="M942.32,240.4s-6,2.32-8.58.12c0,0-.1-.81-.28-2.17a11.22,11.22,0,0,0,8.73-.7h0C942.22,238.57,942.27,239.49,942.32,240.4Z"/><path class="cls-64" d="M964.2,239.62s-4.83,1.79-8.19.32c0,0-.2-1-.54-2.66,0,0,3,1.58,8.29-.39C963.91,238,964.06,238.9,964.2,239.62Z"/><path class="cls-42" d="M957,125.45c-.61,2.79-4,2.07-3.45-.73S957.56,122.64,957,125.45Z"/><path class="cls-42" d="M955.26,136.79c6.07,4.49,11.85,12.84,12.45,20.26.62,14.06-12.47,15.18-22.45,9.76a2,2,0,0,1,1.42-3.73,23,23,0,0,0,4.91.87c14.39.4,5.73-11.19.15-16.4C951.74,147.55,951.21,133.94,955.26,136.79Z"/><path class="cls-51" d="M961.73,169c-.36.1-.74.18-.74.18l-.77.15s0-4.6-3.17-6.1a9,9,0,0,0-1.09-9.52c-3.75-4.55-8.39-7.28-3.36-18.48a12.82,12.82,0,0,1,3.36.92c4.7,2,6.85,6.36,8.62,10.08,2.33,4.92,4.47,9.41,3.13,14.67A12.84,12.84,0,0,1,961.73,169Z"/><path class="cls-52" d="M941.62,113.59s11.68-3.37,19.31,10.9v-5.62l-3.88-3.69-2.76-2.2-3.9-1-5.71-.33Z"/><path class="cls-55" d="M953.3,135.48l-1.12,1.43c-5.55,4.24-8.4,0-8.4,0l.11-1.19c.26-.19.52-.35.79-.51,0,0,1.23,4.28,7.92,0A6.37,6.37,0,0,1,953.3,135.48Z"/><path class="cls-43" d="M952.6,135.21s-3.11,8.17,4,19.43a53.91,53.91,0,0,1-.69-18.51A3.22,3.22,0,0,0,952.6,135.21Z"/><path class="cls-55" d="M962,168.84l-.28.14c-.48.13-1,.24-1.51.33,0,0,0-4.6-3.17-6.1a8.57,8.57,0,0,0,.64-1.81A6.9,6.9,0,0,1,962,168.84Z"/><path class="cls-43" d="M944.68,135.21s-6.88,12.45-6.5,18.32c0,0-1.94-7.21,3.39-17.13A3.3,3.3,0,0,1,944.68,135.21Z"/><polygon class="cls-61" points="944.13 171.85 927.79 174.46 927.79 150.59 944.13 147.98 944.13 171.85"/><polygon class="cls-65" points="927.8 150.59 927.8 174.46 924.53 173.15 915.98 169.7 915.98 145.83 918.36 146.79 922.79 148.57 927.8 150.59"/><polygon class="cls-65" points="941.98 169.85 929.94 171.78 929.94 168.25 941.98 166.31 941.98 169.85"/><path class="cls-42" d="M916.22,161.9l-.14,0-.1,0-.18-.06-.33-.18a1.55,1.55,0,0,1-.27-.24,1.05,1.05,0,0,1-.17-.28c-.13-.29.09-.59.48-.67a.91.91,0,0,1,.75.15l.29.21h0c.43.07.71.38.62.69A.82.82,0,0,1,916.22,161.9Z"/><path class="cls-42" d="M916.09,160.77l-.11-.05-.09,0-.15-.08a2.61,2.61,0,0,1-.3-.2,1.6,1.6,0,0,1-.25-.27,1.19,1.19,0,0,1-.15-.35c-.06-.31.24-.6.68-.64a.82.82,0,0,1,.9.51s0,0,0,0a.15.15,0,0,0,.06,0l0,0h0s0,0,0,0c.4.13.58.48.4.76A.93.93,0,0,1,916.09,160.77Z"/><path class="cls-42" d="M915.92,159.59l-.59-.4a.48.48,0,0,1-.06-.82,1,1,0,0,1,1.13,0l.59.4a.48.48,0,0,1,0,.82A1,1,0,0,1,915.92,159.59Z"/><path class="cls-42" d="M916,158.54l-.59-.4a.47.47,0,0,1-.05-.81,1,1,0,0,1,1.12,0l.59.4a.47.47,0,0,1,.05.81A1,1,0,0,1,916,158.54Z"/><polygon class="cls-65" points="941.98 154.65 929.94 156.59 929.94 153.05 941.98 151.11 941.98 154.65"/><polygon class="cls-65" points="941.98 162.25 929.94 164.19 929.94 160.65 941.98 158.71 941.98 162.25"/><path class="cls-62" d="M918.81,152.26c-.66,1.71-.66,1.87-.33,3.3.21.89-1.4,1.5-2.5.49V145.83l2.38,1a1.38,1.38,0,0,0-.7,1.59C918.26,150.07,919.47,150.55,918.81,152.26Z"/><path class="cls-62" d="M927.8,150.59v13.12a1.7,1.7,0,0,1-1.42-.2c-1.41-1,.55-3,0-3.52s-1.37-.43-2.74.83-2.36-.93-1.26-2.63.33-2.85-.88-5.93a3.12,3.12,0,0,1,1.29-3.69Z"/><path class="cls-62" d="M924.53,173.15,916,169.7v-5a1.48,1.48,0,0,1,1.23-.1c3.19,1,2.54,3.84,4.68,4.17s2.68-2.36,3.73-1.26S927.23,172.07,924.53,173.15Z"/><path class="cls-62" d="M927.28,168a.22.22,0,0,1-.18-.1c-.09-.18-.19-.34-.28-.5a.22.22,0,0,1,.06-.29.2.2,0,0,1,.28.07c.1.16.2.33.29.5a.21.21,0,0,1-.07.29A.19.19,0,0,1,927.28,168Zm-.85-1.37a.2.2,0,0,1-.17-.09,7.06,7.06,0,0,0-.63-.78.22.22,0,0,1,0-.3.21.21,0,0,1,.29,0,6.88,6.88,0,0,1,.67.83.22.22,0,0,1,0,.29A.21.21,0,0,1,926.43,166.67ZM925,165.23a.15.15,0,0,1-.09,0,2.25,2.25,0,0,0-.9-.23.2.2,0,0,1-.19-.22.21.21,0,0,1,.22-.2,2.75,2.75,0,0,1,1,.27.22.22,0,0,1,.09.29A.21.21,0,0,1,925,165.23Zm-2-.27h0a4.27,4.27,0,0,1-1-.17.21.21,0,0,1,.11-.4,4.61,4.61,0,0,0,1,.15.2.2,0,0,1,.19.22A.2.2,0,0,1,923,165Zm-1.94-.54-.09,0a4.38,4.38,0,0,1-.88-.63.22.22,0,0,1,0-.3.21.21,0,0,1,.29,0,3.73,3.73,0,0,0,.78.57.22.22,0,0,1,.09.29A.21.21,0,0,1,921,164.42ZM919.56,163a.19.19,0,0,1-.17-.1,5,5,0,0,1-.45-1,.2.2,0,0,1,.13-.27.19.19,0,0,1,.25.13,4.74,4.74,0,0,0,.41.91.22.22,0,0,1-.06.29A.2.2,0,0,1,919.56,163Zm-.67-2a.21.21,0,0,1-.2-.18,10.63,10.63,0,0,1-.1-1.07.2.2,0,1,1,.4,0c0,.25,0,.63.1,1a.21.21,0,0,1-.16.24Zm-.06-2.1h-.05a.21.21,0,0,1-.15-.25,3.87,3.87,0,0,1,.42-1,.19.19,0,0,1,.27-.09.21.21,0,0,1,.08.29,4,4,0,0,0-.38.92A.19.19,0,0,1,918.83,158.93Zm.91-1.88a.19.19,0,0,1-.1,0,.21.21,0,0,1-.07-.29c.15-.26.32-.58.47-.91a.19.19,0,0,1,.26-.11.22.22,0,0,1,.11.28c-.16.36-.34.68-.49,1A.22.22,0,0,1,919.74,157.05Zm.79-1.94h0a.21.21,0,0,1-.16-.24l0-.25a2.44,2.44,0,0,0,0-.27,3.83,3.83,0,0,0,0-.47.21.21,0,0,1,.18-.24.2.2,0,0,1,.22.18,3.32,3.32,0,0,1,0,.53,3,3,0,0,1,0,.31l0,.28A.21.21,0,0,1,920.53,155.11Zm-.21-2.08a.21.21,0,0,1-.2-.15c-.09-.32-.2-.65-.31-1v0a.22.22,0,0,1,.13-.27.2.2,0,0,1,.26.13v0c.1.32.22.65.31,1a.21.21,0,0,1-.13.26Zm-.64-2a.21.21,0,0,1-.2-.16,4.47,4.47,0,0,1-.19-1.08.21.21,0,0,1,.2-.22.2.2,0,0,1,.21.2,4.27,4.27,0,0,0,.17,1,.21.21,0,0,1-.14.26Zm0-2.06a.16.16,0,0,1-.09,0,.21.21,0,0,1-.09-.28,2.08,2.08,0,0,1,.74-.88.19.19,0,0,1,.27.08.22.22,0,0,1-.07.29,1.61,1.61,0,0,0-.58.7A.2.2,0,0,1,919.7,149Z"/><path class="cls-44" d="M921.13,164.19l.65-.66a.21.21,0,0,0-.3-.3l-.65.65-.66-.65a.21.21,0,0,0-.3.3l.65.66-.65.65a.2.2,0,0,0,0,.3.18.18,0,0,0,.15.07.19.19,0,0,0,.15-.07l.66-.65.65.65a.19.19,0,0,0,.15.07.18.18,0,0,0,.15-.07.2.2,0,0,0,0-.3Z"/><path class="cls-42" d="M947.29,164.63a1,1,0,0,0-.09-1.56,11.75,11.75,0,0,0-5.34-2.41c-.65,0-2.66-.53-2.77.37a.52.52,0,0,0,.48.58,9,9,0,0,1,2.18.42c-1.14-.15-3.06-.44-3.18.32,0,.94,1.39.62,2,.91s1.35.36,2,.59c-.53-.06-1.05-.14-1.57-.22-.69,0-2.11-.84-2.45,0-.36.65,1.82,1.21,4,1.58l-1.13-.09c-.41,0-1.15-.28-1.29.31s.67.73,1.08.84a22.06,22.06,0,0,0,5.12.75,1,1,0,0,0,.78-1.53A.82.82,0,0,0,947.29,164.63Z"/><path class="cls-43" d="M947.4,163.27a4.85,4.85,0,0,1-1.44,3.91,1.39,1.39,0,0,0,1.37.64,5,5,0,0,0,1.44-4.24A1.78,1.78,0,0,0,947.4,163.27Z"/><path class="cls-44" d="M947.5,166.51h0a.58.58,0,0,0,.73-.35l.45-1.28a.56.56,0,0,0-.34-.72h0a.57.57,0,0,0-.73.34l-.46,1.28A.58.58,0,0,0,947.5,166.51Z"/></g><g id="_1" data-name="1"><path class="cls-42" d="M871.75,120.7l-.11.26a31,31,0,0,1-1.89,3.43l-3.34-1.45s.65-5.42,3.6-6.08c.7-.16,1.25,1.66,1.53,2.85C871.68,120.27,871.75,120.7,871.75,120.7Z"/><path class="cls-60" d="M829.79,133.68a12.74,12.74,0,0,1-4.65-7.92c-.58-4.89,2.1-8.66,5.39-9.34Z"/><path class="cls-42" d="M819.72,246.14h5.91a1.28,1.28,0,0,0,1.22-1.64c-.43-1.49-1.42-2.84-1.27-4.51s.8-10.21.94-12.14h-6.7c0,2.15-.23,9.93,0,11.91C820.14,242.68,816.61,245.63,819.72,246.14Z"/><path class="cls-46" d="M819.71,246.14h5.95c1.84-.24,1.31-2.1.63-3.11a6.17,6.17,0,0,0-7.28,0C818.31,244.16,818,246,819.71,246.14Z"/><path class="cls-66" d="M819.65,246.14h6.09a1.2,1.2,0,0,0,1.17-1.43h-8.43A1.2,1.2,0,0,0,819.65,246.14Z"/><path class="cls-42" d="M851.78,246.14H838.87c-.22-.68.42-3.8.29-4.95.05-.72-1-10-1-10.91h7.41l-1.2,9.54a2.39,2.39,0,0,0,1.62,2.56c2.39.91,5.1.47,6.63,2.34A.93.93,0,0,1,851.78,246.14Z"/><path class="cls-46" d="M838.48,244.89a3.16,3.16,0,0,0,.39,1.24h13a.93.93,0,0,0,.88-1.22c-.5-1.4-2.21-3.42-8.21-3.74a12.64,12.64,0,0,1-5.4,0A8,8,0,0,0,838.48,244.89Z"/><path class="cls-66" d="M852.76,244.9H838.48a3.16,3.16,0,0,0,.39,1.24h13A.92.92,0,0,0,852.76,244.9Z"/><path class="cls-46" d="M846.09,236l-.6,2.05h0a9.46,9.46,0,0,1-6,.39,7.92,7.92,0,0,1-1.09-.39c0-.68,0-1.37-.07-2.05q-.86-24.39-3.34-47.94a76,76,0,0,0-2.94,8.38c-3.57,12.46-2.29,19.84-5.44,39.54l-.34,2.07a15.67,15.67,0,0,1-8.21-.26c0-.54,0-1.66,0-2.21-.27-30.76-.71-36.34-.08-46.26a192,192,0,0,1,2.28-19.67c5.22-2,19.81-7.07,26.1-.69,2.92,3,1.51,5.82,1.48,20.46C847.81,189.46,847.73,230.4,846.09,236Z"/><path class="cls-42" d="M839.86,149.37c6.69,1.8,14.4,4,20.82.75,9-4.56,10.77-16.94,9-26.24-.2-1.47-.65-3.26-2.54-2.91-2.12.52-1.29,3-1.51,4.59-1.34,16.95-6.9,19.46-22.32,13.89C836.79,137.24,833.39,147.1,839.86,149.37Z"/><path class="cls-58" d="M866.57,145.4l-.33.51h0a13.37,13.37,0,0,1-4.61,4.56c-4.14,2.42-8.53,1.77-10.74,1.44a34.27,34.27,0,0,1-7.3-2.19c-1.91-.71-3.47-1.39-4.55-1.89v-11.6s.74.16,1.92.53a34.86,34.86,0,0,1,4.5,1.74c4.11,1.89,9,4.13,11.93,2.35a5.38,5.38,0,0,0,1.72-1.94,94.67,94.67,0,0,0,6.06-11.35h0c.14-.51.27-1,.4-1.61,0,0,2.94,1.31,4.4,0,0,0,.11.54.22,1.47h0C870.56,130.63,870.88,138.64,866.57,145.4Z"/><path class="cls-67" d="M869.37,128.37c-.35.28-1.12,0-1.72-.53s-.76-.27-1.52,0-.94-.28-1-.32h0a4.27,4.27,0,0,1,.4-1.61s2.94,1.31,4.4,0a2.65,2.65,0,0,1,.22,1.47h0C869.62,127.39,869.71,128.08,869.37,128.37Z"/><path class="cls-42" d="M830.26,139.65c-3-.09-5.92,1.33-8.28,2.82-5.09,3.14-8.46,7.95-12.39,12.22-4.92,4.77-11.29,8.42-17.66,11.3-2.11.88-1.62,4.32.61,3.86,8-1.42,15.9-4.09,22.64-8.67,5.11-3.57,9.18-9,15.31-11a3.84,3.84,0,0,1-.59,0C837,150.56,837.32,140.08,830.26,139.65Z"/><path class="cls-58" d="M831.94,137.16a39.22,39.22,0,0,1-5.23,12.23,38.77,38.77,0,0,1-6.45,7.6,47,47,0,0,1-11.37,8.52c-6.87,3.66-11.5,3.85-12.55,3.87-.51,0-.93,0-1.22,0-1.8-2.48-1.65-4.13-1.65-4.13l1.17-.7h0c11.05-6.47,16.53-12.37,19.49-16.75a23.26,23.26,0,0,1,5.73-6.23A24.51,24.51,0,0,1,831.94,137.16Z"/><path class="cls-60" d="M831.94,116.84a6.65,6.65,0,0,1,6.74,1c3.16,2.62,1.82,10.38,1.82,10.38Z"/><path class="cls-42" d="M837.33,135l.06,1.77c1.13,1,0,2.73-.89,2.8-1.39.11-4-1.74-4.56-2.37,0,0,.06-1.7,0-2.48Z"/><path class="cls-42" d="M827.35,128.13c.52,2.38,1.49,5,3.47,6.51h0a5.58,5.58,0,0,0,1.31.72,7,7,0,0,0,1.45.37c1.62.21,7.48-1.53,8.19-5.74.24-1.46-.23-2.63-.94-4.39a16.82,16.82,0,0,0-3.51-5.35c-2-2.57-6-2.2-8.1.1A9,9,0,0,0,827.35,128.13Z"/><path class="cls-58" d="M847.47,169.84c-11.32,6.43-27.09,0-27.09,0,.1-2.08.29-5.1.68-8.73.61-5.73.91-8.59,1.8-11.37a27.46,27.46,0,0,1,8.22-12.18s2.92,4.2,5.56,2.2c1-.77-.7-2.69-.37-2.55,3.16,1.3,6.9,7.13,6.9,7.13,3.3,5,3.25,4.12,3.83,5.6,1,2.64.78,4.52.59,9.58C847.51,162,847.42,165.48,847.47,169.84Z"/><path class="cls-60" d="M835.47,118.83s1,6.57-6.26,9.7l-2.76-1.33C823.55,122.23,827.85,114.44,835.47,118.83Z"/><path class="cls-42" d="M825.89,129.43c.7,2.68,4.08,1.76,3.32-.9S825.14,126.76,825.89,129.43Z"/><path class="cls-67" d="M828.86,137.32a2.18,2.18,0,0,0,1.46,2.39c1.74.56,1.22,2.51,3.24,2.43s2.1-2,4.1-1.12c2.16,1,3.06-1,2.43-2s1.14-.9.42-2.35c0,0-1.93-1-3.08,0,0,0-.14,1.74-1.34,2-.78.18-3-.77-4.15-1.57A4.12,4.12,0,0,0,828.86,137.32Z"/><path class="cls-67" d="M838,144a.76.76,0,1,1-.59-.89A.75.75,0,0,1,838,144Z"/><path class="cls-67" d="M838.4,146.82a.76.76,0,1,1-.59-.9A.75.75,0,0,1,838.4,146.82Z"/><path class="cls-68" d="M820.61,169.12s15.24,4.66,26.84-.4a4.12,4.12,0,0,1,.52,2.85s-8.56,6.19-27.77.64A5.08,5.08,0,0,1,820.61,169.12Z"/><rect class="cls-69" x="834.36" y="170.69" width="6.02" height="4.17" rx="2.08" transform="translate(-10.54 62.8) rotate(-4.27)"/><path class="cls-51" d="M838.19,153.48a.18.18,0,0,1-.13,0c-6-4.94-9.37-15.94-9.41-16.05a.22.22,0,0,1,.15-.27.21.21,0,0,1,.26.15c0,.11,3.26,10.74,9.07,15.68a26.48,26.48,0,0,0,2.17-16.21.21.21,0,1,1,.42-.07,28.75,28.75,0,0,1-.54,12.14,19.82,19.82,0,0,1-1.8,4.58.23.23,0,0,1-.15.1Z"/><rect class="cls-70" x="835.29" y="153.25" width="6.26" height="8.78" transform="matrix(1, -0.07, 0.07, 1, -9.41, 62.84)"/><ellipse class="cls-60" cx="830.53" cy="115.24" rx="4.04" ry="4.69" transform="translate(35.66 382.14) rotate(-26.46)"/><polygon class="cls-60" points="867.43 122.75 865.17 93.55 867.35 93.51 869.61 122.71 867.43 122.75"/><polygon class="cls-71" points="844.76 104.61 867.39 112.37 865.96 93.51 844.76 104.61"/><path class="cls-42" d="M865.64,123c-.14-2.87.08-3.07,1.5-4.79.19-.23.66-1.25,1.05-1s-.1,1.53-.1,1.53l-.93,2.24S865.6,124.16,865.64,123Z"/><path class="cls-42" d="M870.54,118a6.36,6.36,0,0,0-1.65,1.22.42.42,0,0,1-.65-.06.39.39,0,0,1,0-.48,7.15,7.15,0,0,1,1.67-1.8.64.64,0,0,1,1,.39A.59.59,0,0,1,870.54,118Z"/><path class="cls-42" d="M871.52,118.37a.56.56,0,0,1-.39.37,5.78,5.78,0,0,0-2,1.1.47.47,0,0,1-.72,0,.43.43,0,0,1,0-.55,6.25,6.25,0,0,1,2.21-1.7A.65.65,0,0,1,871.52,118.37Z"/><path class="cls-42" d="M871.75,119.45a.61.61,0,0,1-.32.23,8.68,8.68,0,0,0-2.16,1.06.51.51,0,0,1-.78-.23.48.48,0,0,1,.12-.55,9.62,9.62,0,0,1,2.34-1.47C871.6,118.17,872.07,119,871.75,119.45Z"/><path class="cls-42" d="M871.46,120.78a7.41,7.41,0,0,0-2.22.57.48.48,0,0,1-.45-.84,8.63,8.63,0,0,1,2.48-1A.65.65,0,1,1,871.46,120.78Z"/><path class="cls-42" d="M785.78,165.08c-.26.63,1.67.83,2.13,1.27a10.67,10.67,0,0,1-2.33.79,45,45,0,0,1-4.5-.21.4.4,0,0,0-.12.79c1.43.32,2.88.57,4.33.75v0a32.88,32.88,0,0,1-4.41.69.82.82,0,0,0-.49.22c-1.12,1.14,4.77.35,5.27.31h0a19.24,19.24,0,0,1-4.07,1.14.76.76,0,0,0-.51.31c-.82,1.19,4.9-.07,5.39-.28h0a19.75,19.75,0,0,1-3,1.39.81.81,0,0,0-.41.34c-.73,1.28,4-.5,4.46-.72a12.07,12.07,0,0,0,5-2.06c.71-.51.08-3.83-.78-3.78a15.86,15.86,0,0,1-2.71-.41C788.41,165.4,786.18,164.34,785.78,165.08Z"/><path class="cls-51" d="M836.14,154.81a.23.23,0,0,1-.22-.2.21.21,0,0,1,.2-.23l4.25-.31a.22.22,0,0,1,.23.2.21.21,0,0,1-.2.23l-4.25.31Z"/><path class="cls-51" d="M836.29,156.43a.22.22,0,0,1-.21-.2.21.21,0,0,1,.2-.23l4.25-.31a.23.23,0,0,1,.23.2.21.21,0,0,1-.2.23l-4.25.31Z"/><path class="cls-51" d="M836.39,158a.22.22,0,0,1-.21-.2.21.21,0,0,1,.2-.23l4.25-.3a.21.21,0,0,1,.23.19.21.21,0,0,1-.2.23l-4.25.31Z"/></g></g><rect class="cls-72" x="290.97" y="189.78" width="12.33" height="47.21"/><rect class="cls-73" x="287.45" y="188.57" width="19.37" height="10.29"/><rect class="cls-74" x="295.03" y="189.78" width="12.33" height="47.21"/><rect class="cls-75" x="291.52" y="188.57" width="19.37" height="10.29"/><rect class="cls-76" x="301.2" y="208.55" width="182.98" height="28.45"/><rect class="cls-72" x="300.2" y="202.49" width="185.58" height="9.68"/><rect class="cls-74" x="477.77" y="189.78" width="12.33" height="47.21"/><rect class="cls-75" x="474.25" y="188.57" width="19.37" height="10.29"/><path class="cls-17" d="M328.76,211.39s5.44-12.11,32.08-15.14,33.89,5.45,46.6,0,23.61-17.55,47.21-17.55c40.8,0,46,29.66,46,29.66Z"/><rect class="cls-77" x="323.21" y="208.55" width="182.98" height="28.45"/><rect class="cls-74" x="322.21" y="202.49" width="185.58" height="9.68"/><rect class="cls-72" x="495.38" y="189.78" width="12.33" height="47.21"/><rect class="cls-73" x="491.86" y="188.57" width="19.37" height="10.29"/><rect class="cls-72" x="312.65" y="189.78" width="12.33" height="47.21"/><rect class="cls-73" x="309.13" y="188.57" width="19.37" height="10.29"/><rect class="cls-74" x="499.78" y="189.78" width="12.33" height="47.21"/><rect class="cls-75" x="496.26" y="188.57" width="19.37" height="10.29"/><rect class="cls-74" x="317.05" y="189.78" width="12.33" height="47.21"/><rect class="cls-75" x="313.53" y="188.57" width="19.37" height="10.29"/><path class="cls-75" d="M385.2,168.48l-3.49,27.68h0c0,1.18-4.94,2.14-11,2.14s-11-1-11-2.14h-.05l-3.5-27.68Z"/><ellipse class="cls-75" cx="370.64" cy="168.28" rx="14.56" ry="3.11"/><path class="cls-78" d="M370.64,172.73c-2.66,0-15.91-.21-15.91-4.45s13.25-4.45,15.91-4.45,15.9.21,15.9,4.45S373.29,172.73,370.64,172.73Zm-12.86-4.45c1.42.73,5.83,1.76,12.86,1.76s11.43-1,12.86-1.76c-1.43-.73-5.84-1.76-12.86-1.76S359.2,167.55,357.78,168.28Z"/><path class="cls-72" d="M356.07,169.46V166a14.46,14.46,0,0,1,14.35-14.54h.32A14.46,14.46,0,0,1,385.09,166v3.45h1.36V166a15.8,15.8,0,0,0-15.71-15.9h-.32A15.8,15.8,0,0,0,354.71,166v3.45Z"/><path class="cls-74" d="M377.29,154.39a16.44,16.44,0,0,0-12.48,0,2.37,2.37,0,0,1-2.93-.82l0,0a2.16,2.16,0,0,1,1.4-2.93,20.6,20.6,0,0,1,15.58,0,2.17,2.17,0,0,1,1.41,2.93l0,0A2.37,2.37,0,0,1,377.29,154.39Z"/><rect class="cls-77" x="436.07" y="142.21" width="41.29" height="3.23" transform="translate(196.48 545.76) rotate(-74.56)"/><path class="cls-77" d="M444.43,188.3l-9.34-2.58.53-14.65A10.53,10.53,0,0,1,449,161.31l2.73.75Z"/><path class="cls-77" d="M444.43,188.3l9.35,2.58L460.84,178a10.53,10.53,0,0,0-6.42-15.22l-2.74-.76Z"/><path class="cls-76" d="M444.43,188.3,436.06,186l.5-13.2A9.47,9.47,0,0,1,448.51,164l2.46.68Z"/><path class="cls-76" d="M444.43,188.3l8.38,2.31L459.15,179a9.47,9.47,0,0,0-5.73-13.7l-2.45-.68Z"/><path class="cls-76" d="M464.62,126.85a12.08,12.08,0,0,1-3-.4,8.28,8.28,0,0,1-6-6.55,4.94,4.94,0,0,1,6.16-5.7l5.87,1.63a4.94,4.94,0,0,1,2.58,7.8C469.6,125.63,467.51,126.85,464.62,126.85Zm-4.2-10.14a2.27,2.27,0,0,0-1.72.81,2.23,2.23,0,0,0-.49,1.83,5.6,5.6,0,0,0,4,4.48,9.53,9.53,0,0,0,2.42.33c1.33,0,2.82-.37,3-1.41l.07-.35.23-.27a2.26,2.26,0,0,0,.51-2.2,2.2,2.2,0,0,0-1.55-1.51L461,116.8A2.15,2.15,0,0,0,460.42,116.71Z"/><path class="cls-77" d="M467.19,119.15l-6.79-1.87a1.88,1.88,0,0,1-1.3-2.3v0a1.87,1.87,0,0,1,2.3-1.31l6.78,1.88a1.85,1.85,0,0,1,1.3,2.29v0A1.86,1.86,0,0,1,467.19,119.15Z"/><g id="告白"><g id="愛を伝える"><polygon class="cls-79" points="1567.19 282.68 1566.63 281.98 1566.63 243.84 1567.19 245.51 1567.19 282.68"/><polygon class="cls-79" points="1420.89 282.68 1421.46 281.98 1421.46 243.84 1420.89 245.51 1420.89 282.68"/><rect class="cls-80" x="1415.89" y="201.87" width="4.91" height="44.27"/><rect class="cls-80" x="1567.29" y="201.87" width="4.91" height="44.27"/><rect class="cls-80" x="1425.55" y="200.14" width="4.91" height="48.43"/><rect class="cls-80" x="1435.71" y="198.75" width="4.91" height="48.43"/><rect class="cls-80" x="1445.87" y="197.71" width="4.91" height="48.43"/><rect class="cls-80" x="1456.03" y="197.71" width="4.91" height="48.43"/><rect class="cls-80" x="1466.19" y="197.71" width="4.91" height="48.43"/><rect class="cls-80" x="1476.35" y="197.71" width="4.91" height="48.43"/><rect class="cls-80" x="1486.51" y="197.71" width="4.91" height="48.43"/><rect class="cls-80" x="1496.67" y="197.71" width="4.92" height="48.43"/><rect class="cls-80" x="1506.83" y="197.71" width="4.91" height="48.43"/><rect class="cls-80" x="1516.99" y="197.71" width="4.92" height="48.43"/><rect class="cls-80" x="1527.15" y="197.71" width="4.91" height="48.43"/><rect class="cls-80" x="1537.31" y="197.71" width="4.91" height="48.43"/><rect class="cls-80" x="1547.47" y="198.75" width="4.91" height="48.43"/><rect class="cls-80" x="1557.63" y="201.18" width="4.91" height="48.43"/><path class="cls-80" d="M1569.69,208.6a306.35,306.35,0,0,0-151.3,0l-2.76-6.7a319.25,319.25,0,0,1,156.83,0Z"/><rect class="cls-80" x="1566.91" y="254.74" width="5.66" height="27.94"/><polygon class="cls-79" points="1415.89 240.6 1407.78 252.89 1494.04 252.89 1494.04 240.6 1415.89 240.6"/><polygon class="cls-79" points="1572.2 240.6 1580.31 252.89 1494.04 252.89 1494.04 240.6 1572.2 240.6"/><rect class="cls-80" x="1407.78" y="236.73" width="5.87" height="52.87"/><rect class="cls-80" x="1415.51" y="254.74" width="5.66" height="27.94"/><rect class="cls-81" x="1413.65" y="252.89" width="163.72" height="7.27"/><rect class="cls-80" x="1574.44" y="236.73" width="5.87" height="52.87"/><rect class="cls-81" x="1572.58" y="233.39" width="9.35" height="3.35"/><polygon class="cls-79" points="1581.92 233.38 1572.2 222.3 1567.29 222.3 1572.58 233.38 1581.92 233.38"/><polygon class="cls-82" points="1572.58 236.73 1567.29 224.81 1567.29 222.3 1572.58 233.38 1572.58 236.73"/><polygon class="cls-81" points="1413.65 289.6 1414.21 288.9 1414.21 235.06 1413.65 236.73 1413.65 289.6"/><polygon class="cls-81" points="1574.44 289.6 1573.88 288.9 1573.88 235.06 1574.44 236.73 1574.44 289.6"/><rect class="cls-81" x="1406.17" y="233.39" width="9.35" height="3.35"/><polygon class="cls-79" points="1406.17 233.38 1415.89 222.3 1420.8 222.3 1415.51 233.38 1406.17 233.38"/><polygon class="cls-82" points="1415.51 236.73 1420.8 224.81 1420.8 222.3 1415.51 233.38 1415.51 236.73"/><path class="cls-3" d="M1457.46,226.62c-.33,2.44-.55,2.19-1.46,7.4-.25,1.45-.56,3.31-1.13,6-.33,1.53-.33,1.4-.52,2.35-.76,3.88-.57,5.28-1.11,5.43s-1.8-1.42-2.2-3.15.21-2.72.58-4.75c.52-2.85-.25-3.37-.4-8.16,0-.89.06-2.7.23-6.32,0,0,.39-8,2.61-11a1.27,1.27,0,0,1,.45-.4,2.17,2.17,0,0,1,1.31,0C1457,214.08,1458.46,219.33,1457.46,226.62Z"/><path class="cls-5" d="M1469.5,245.91a5.75,5.75,0,0,1,3.89,2.73c1.27,2.16.56,5.1-.7,8.46a322.16,322.16,0,0,1-13.9,30.65c-.17.32-.5,1.38-1.33,1.61-1.41.39-3.22-1.82-3.72-2.44C1448.39,280.37,1460.76,244.9,1469.5,245.91Z"/><path class="cls-5" d="M1432,234.06c2.85-1.46,6-.7,11.07,1.2,7.71,2.87,15.87,6,23.59,8.86,2.89.25,8.82,3.34,6.79,9.09-2.24,6.3-6.33,2.69-7.58,3.06-6.49-.78-18.7-2.33-31.37-4.5-1.71-.3-4.73-.86-6.43-3.2C1425.13,244.49,1427.25,236.49,1432,234.06Z"/><path class="cls-5" d="M1451.39,283.82c-2.94,1.48-3.29,8.29-3.29,8.29h0c-.68,1,8.53,6.31,14.91,8,1.77.46,2.2-2.69,2.3-3.06,1.14-4.16-3.49-8.2-4.9-9.43C1459.38,286.68,1454.38,282.32,1451.39,283.82Z"/><path class="cls-5" d="M1478.35,244.45a5.76,5.76,0,0,1,4.37,1.94c2.31,2.55,1.38,6.7,1,8.43-4,18.93.34,31.7-8,35.62a4.38,4.38,0,0,1-3.29.61C1464.43,288.29,1469.89,245.52,1478.35,244.45Z"/><path class="cls-5" d="M1431.67,250.57c-7.54-4.56,4.34-8.83,8.17-11.37,3.15-2.08,7.34-1.54,11.1-.91,8.14,1.36,33.42,1.63,33.4,11.85,0,6.66-5.67,3.84-6.82,4.44C1470.84,254.94,1439.25,255.15,1431.67,250.57Z"/><path class="cls-5" d="M1468.89,288.26c-2,2.83,1.2,9.44,1.2,9.44h0c-.11,1.28,11.35,1.78,18.23.21,1.91-.44.68-3.62.58-4-1.08-4.49-7.56-6-9.53-6.5C1477.93,287,1470.93,285.37,1468.89,288.26Z"/><path class="cls-83" d="M1447.67,194.23c-3.5-1.31-8.67,0-12.08,2.9-1.77,1.53-4.54,4.81-5.59,16a82.59,82.59,0,0,0,2.66,29.32L1455.5,239C1458.9,215.24,1455.7,197.23,1447.67,194.23Z"/><path class="cls-3" d="M1425.93,206.86a25.85,25.85,0,0,0-4.12,9.72c-.54,2.28-1.46,6.13.25,7.28a2.73,2.73,0,0,0,2,.22c2.31-.47,3.32-3,5-5.76,2.33-3.84,3.09-3.46,5.08-6.58,3.41-5.37,5.42-13.23,3.43-14.42S1429.32,202,1425.93,206.86Z"/><path class="cls-3" d="M1430,231c1.55,4.28,2.76,5.87,5.88,13,1.34,3.09,1.72,4.19,1.21,4.67-.76.71-3.31-.14-4.56-1.8a5.15,5.15,0,0,1-.9-2.73c-.37-4-4.08-5-7.62-11a21.55,21.55,0,0,1-2.83-11c.06-1.53.32-3,1.21-3.36,1.09-.42,3.27.7,4.06,1.72h0l1.75,5.21Z"/><path class="cls-83" d="M1440.71,198.22c0-1.95-2-2.42-3.91-1.89a14.31,14.31,0,0,0-6.27,3.74,47.4,47.4,0,0,0-6.9,10.91c.29.43,7.89,4.93,9.58,5C1436.61,212.15,1440.64,203.46,1440.71,198.22Z"/><path class="cls-3" d="M1443.53,199.69h0c2.14-.2,3.78-1.44,3.64-2.78l-.54-5.56-8.44-.75,1.21,7C1439.53,199,1441.38,199.89,1443.53,199.69Z"/><path class="cls-3" d="M1440.92,188.65l-4.94,1.09a2.38,2.38,0,0,1-2.84-1.73,2.31,2.31,0,0,1,1.79-2.75l5.22-1.15Z"/><path class="cls-3" d="M1440.17,174.33a8.54,8.54,0,0,1,7.81,1c2.42,1.66,3,4.09,3.72,6.86.58,2.31,1.67,6.65-.85,9.44a7.75,7.75,0,0,1-3,1.88,12.42,12.42,0,0,1-7.74.55,3.58,3.58,0,0,1-2.14-1.45c-2.24-3.33-2.43-7.32-2.93-11.14C1434.82,179.76,1436.42,175.83,1440.17,174.33Z"/><path class="cls-5" d="M1438.61,178.51c.84-1.7,3.15-2,5.08-2s4.2-.11,5.33-1.65.46-3.61-.93-4.77a8,8,0,0,0-5.15-1.5,13.34,13.34,0,0,0-10.27,4.38c-2.34,2.83-3.38,8.8-.25,11.56a3.91,3.91,0,0,0,4.91,0C1439.14,182.87,1437.67,180.41,1438.61,178.51Z"/><path class="cls-3" d="M1536.49,208.51c-2.8,3.33-4,2.93-6.91,6.78a7.91,7.91,0,0,1-3.94,3.37c-.91.28-2.94.66-3.62-.18-1.71-2.1,6-10.55,9.72-14.62,4.67-5.12,8.92-9.78,10.14-9S1541,203.18,1536.49,208.51Z"/><path class="cls-3" d="M1515.37,214.36c-5.95-.06-9.45,1.37-12.93-.38a13.66,13.66,0,0,0-3-1.12c-1.85-.45-4.62-.71-4.94,0s2.75,2.91,3.09,3.13c4.25,2.71,6.69,1.7,17.39,3.19,2.81.39,6.33,1,10.11-.58.89-.36,2.1-.87,2.08-1.49C1527.09,215.79,1520.94,214.43,1515.37,214.36Z"/><path class="cls-84" d="M1538.49,194.64c1.87-.72,4.9-.44,5.09,1.5.21,2.18-7.52,15.34-10.11,17.65-.52-.12-7.57-5.39-8.22-6.9C1527.69,202.44,1533.47,196.58,1538.49,194.64Z"/><path class="cls-3" d="M1516.74,247a6.81,6.81,0,0,0-3.67,2.54c-1.22,2-.62,4.52.6,8,2,5.59,3.15,6.72,5,11.13a100.25,100.25,0,0,1,4.69,13.39,11.06,11.06,0,0,0,3.38,5.82c.59.5,1.77,1.48,2.81,1.17,1.28-.39,1.85-2.54,1.76-3.39C1530.72,280.49,1524.37,244.53,1516.74,247Z"/><path class="cls-5" d="M1564.36,246.62a6.94,6.94,0,0,0,2.74-6.48c-.3-4.1-11.3-5.38-14.31-6.65-3.5-1.47-7.51-.17-11.08,1.13-7.73,2.83-15.91,5.89-23.65,8.72C1515.17,243.56,1557.8,252.51,1564.36,246.62Z"/><path class="cls-5" d="M1531.24,285.61l1.76,5.29h0a9.3,9.3,0,0,1-4,5.58c-2.74,1.66-7.07,2.14-9.38-.08a4.44,4.44,0,0,1-1.41-3.16c.09-2.32,2.61-3.77,5.39-5.37S1529.5,284.44,1531.24,285.61Z"/><path class="cls-3" d="M1510.73,246.11c-1.59-.49-3.51.68-4.49,1.64-2.24,2.21-1.88,5.72-1.62,8.34,1,9.38,3.37,18.63,3.5,28.05,0,2.24,0,5.57,1.91,6.62a4.23,4.23,0,0,0,4.83-1.06,3.7,3.7,0,0,0,.56-2.69c-.9-7.36.13-14.87-.78-22.23C1513,251.38,1513.32,246.89,1510.73,246.11Z"/><path class="cls-5" d="M1563.88,246.62c1.9-1.7-2.43-3.26-2.66-6.48-.29-4.1-11.29-5.38-14.31-6.65-1.92-.8-3.13-.07-11.07,1.13-16.43,2.49-17.83,2.76-20.15,3.82a32.12,32.12,0,0,0-11.56,9.08l20,9.44S1560,250.07,1563.88,246.62Z"/><path class="cls-5" d="M1515.48,288.86l0,5.05a9.42,9.42,0,0,1-1.63,1.83,9.23,9.23,0,0,1-3.58,1.78c-2.17.6-8,1.61-9.62-1a3.81,3.81,0,0,1-.26-3.24,4,4,0,0,1,1.36-1.7,16.49,16.49,0,0,1,6.33-3C1510.9,288,1514.3,287.34,1515.48,288.86Z"/><path class="cls-84" d="M1543.45,193.56c3-.39,8.49-.62,12.2,2.64,3.55,3.11,3.8,7.89,4,10.26.52,7.27,2.22,17.83,7,33.68l-35.11-3.94,3.24-17.81-2.1-9.4a10.86,10.86,0,0,1,1.5-11.39A12,12,0,0,1,1543.45,193.56Z"/><path class="cls-3" d="M1561.91,210.52c.75,7.81-1.08,16.62-3.62,16.87-1.34.13-3.06-2.11-3.38-4.13-.24-1.47.36-2.31.65-3.66.73-3.31-1.25-5.62-2.24-8.3-2.28-6.18.81-14.17,2.94-14.37C1558.64,196.72,1561.16,202.8,1561.91,210.52Z"/><path class="cls-3" d="M1549.14,222c-6.58.28-14.49,1.81-16.34,1.48-2.59-.46-4.69-.34-4.9.66-.16.77,1.6,2.14,3.48,2.72,2.36.74,4.1,0,6.32-.45s5.86.14,13.27,1.27c4.87.74,6.93,1.26,8.53-.07a4.22,4.22,0,0,0,1.36-3.32C1560.76,222,1557.12,221.7,1549.14,222Z"/><path class="cls-84" d="M1553.89,196.64c.86-1.76,4.22-1.26,5.72,0,1.68,1.46,4.11,15.32,3.82,18.72-.45.26-9.32,1-10.85.38C1551.25,210.9,1551.57,201.38,1553.89,196.64Z"/><path class="cls-3" d="M1546.08,198.58h0c-2.22,0-4-1.23-4-2.71l.05-6.14,8.6-1.62-.6,7.82C1550.12,197.41,1548.3,198.59,1546.08,198.58Z"/><path class="cls-3" d="M1546.85,185.76l5.44.73a2.56,2.56,0,0,0,2.89-2.13,2.51,2.51,0,0,0-2.19-2.8l-5.75-.77Z"/><path class="cls-3" d="M1547.66,170.62c-3.07-.41-5.66,1.7-6.48,2.4-3.51,3-3.8,7.56-3.9,9a22.51,22.51,0,0,0,.12,3.39c.2,2.4.32,3.62,1.09,4.67a6,6,0,0,0,2.74,1.92,13.15,13.15,0,0,0,8.41-.12,3.91,3.91,0,0,0,2.17-1.76c2.09-3.79,1.91-8.12,2.07-12.28A7.15,7.15,0,0,0,1547.66,170.62Z"/><path class="cls-5" d="M1570.68,190.62a28.21,28.21,0,0,0-17-12l-3.27,2.23A25.32,25.32,0,0,1,1564,194.28a18,18,0,0,0,1.6,3.38,4.22,4.22,0,0,0,3.11,2c2,.09,3.55-1.77,3.73-3.66A8.64,8.64,0,0,0,1570.68,190.62Z"/><path class="cls-30" d="M1552.68,183.33a2,2,0,0,0,2,1.62,3,3,0,0,0,2.34-1.4,5.51,5.51,0,0,0,.77-2.66,6.18,6.18,0,0,0-.57-3.37,3.54,3.54,0,0,0-2.79-1.93"/><path class="cls-5" d="M1539.1,178.57c.64.47,1.18.22,3.81.14,3.57-.11,5.36-.16,6.37.51,2.57,1.7,1.16,6.29,2.83,6.81,1.1.33,2.69-1.34,3.51-2.6,2.24-3.47,2.56-10-2-13.6s-11.52-2.41-14.19,1.13C1537.61,173.38,1537.47,177.4,1539.1,178.57Z"/></g><path class="cls-85" d="M1495,182.79a1.6,1.6,0,0,1-.89.27,1.49,1.49,0,0,1-.75-.24c-2.69-1.65-6.1-2.2-7.67-5.23-1.43-2.76-1.16-7.23,1.38-8.62,1.71-.94,4.42-.49,5.33.57a8.43,8.43,0,0,1,1,1.42c.37.74.39,1.14.59,1.16.41,0,.49-1.49,1.59-2.58a4.75,4.75,0,0,1,7.31,1.34c1.21,2.25-.09,4.78-.79,6.14C1502,177,1501,179,1495,182.79Z"/></g><path class="cls-14" d="M1252.05,186a3.32,3.32,0,0,1-.55,0h-37.86a9.08,9.08,0,1,1,4.71-17,14.67,14.67,0,0,1,28.91-3.51,11.1,11.1,0,0,1,9.35.3,9.39,9.39,0,0,1,4.4,4.4C1264.69,178,1259.32,185.67,1252.05,186Z"/><path class="cls-15" d="M1232.34,164.74c3.41,2.51,1.37,4.55-1.14,1.14-2.51,3.41-4.55,1.37-1.14-1.14-3.41-2.51-1.37-4.54,1.14-1.13C1233.71,160.2,1235.75,162.23,1232.34,164.74Z"/><path class="cls-16" d="M1232,163.94c4.19-.64,4.19,2.24,0,1.61.64,4.18-2.24,4.18-1.6,0-4.19.63-4.19-2.25,0-1.61C1229.76,159.75,1232.64,159.75,1232,163.94Z"/><path class="cls-17" d="M1232.11,164.74a.91.91,0,1,1-.91-.91A.91.91,0,0,1,1232.11,164.74Z"/><path class="cls-15" d="M1252.85,173.45c2.87,2.11,1.16,3.83-.95,1-2.12,2.87-3.83,1.15-1-1-2.87-2.11-1.16-3.82,1-1C1254,169.63,1255.72,171.34,1252.85,173.45Z"/><path class="cls-16" d="M1252.57,172.77c3.53-.53,3.53,1.89,0,1.36.54,3.52-1.88,3.52-1.35,0-3.52.53-3.52-1.89,0-1.36C1250.69,169.25,1253.11,169.25,1252.57,172.77Z"/><path class="cls-17" d="M1252.66,173.45a.77.77,0,0,1-.76.77.78.78,0,0,1-.77-.77.77.77,0,0,1,.77-.76A.76.76,0,0,1,1252.66,173.45Z"/><path class="cls-15" d="M1214.56,176.68c3.14,2.31,1.26,4.19-1,1-2.31,3.14-4.19,1.26-1-1-3.14-2.31-1.26-4.19,1-1.05C1215.82,172.49,1217.7,174.37,1214.56,176.68Z"/><path class="cls-16" d="M1214.25,175.94c3.86-.58,3.86,2.07,0,1.48.59,3.86-2.06,3.86-1.48,0-3.85.59-3.85-2.06,0-1.48C1212.19,172.09,1214.84,172.09,1214.25,175.94Z"/><circle class="cls-17" cx="1213.51" cy="176.68" r="0.84"/></g></g></svg>