<svg xmlns="http://www.w3.org/2000/svg" viewBox="0 0 1920 1080"><defs><style>.cls-1{fill:#e6f0d8;}.cls-2{fill:#ba995f;opacity:0.3;}.cls-3{fill:#1d1453;}.cls-4{fill:#d85b3c;}.cls-5{fill:#0f0d41;}.cls-32,.cls-6{fill:#e79c92;}.cls-7{fill:#7e2b28;}.cls-67,.cls-8{fill:#fff;}.cls-8{stroke:#7e2b28;stroke-miterlimit:10;stroke-width:0.25px;}.cls-9{fill:#d1c6a8;}.cls-10{fill:#c0a081;}.cls-11{fill:#cbac8a;}.cls-12{fill:#84a23d;}.cls-13{fill:#8caa43;}.cls-14{fill:#7e9e37;}.cls-15{fill:#d15736;}.cls-16{fill:#b2452e;}.cls-17{fill:#e09927;}.cls-18{fill:#ecb42a;}.cls-19{fill:#c0d8db;}.cls-20{fill:#f1d554;}.cls-21{fill:#87abaf;}.cls-22{fill:#b0cdd3;}.cls-23{fill:#833023;}.cls-24{fill:#7dcdfc;}.cls-25{fill:#f2cf58;}.cls-26{fill:#b3eaf3;}.cls-26,.cls-27,.cls-28,.cls-31,.cls-32,.cls-33,.cls-34,.cls-35,.cls-36,.cls-37,.cls-38,.cls-39,.cls-40,.cls-41,.cls-42,.cls-43,.cls-44{fill-rule:evenodd;}.cls-27{fill:#81bbc4;}.cls-28,.cls-29{fill:#2a4480;}.cls-30,.cls-31{fill:#95d1dc;}.cls-33{fill:#e9a931;}.cls-34{fill:#f2ece6;}.cls-35{fill:#57290f;}.cls-37{fill:#1d305d;}.cls-38{fill:#2e3033;}.cls-39{fill:#965b3e;}.cls-40{fill:#567ba3;}.cls-41{fill:#7cb2bb;}.cls-42{fill:#151e2b;}.cls-43{fill:#7390cc;}.cls-44{fill:#402a49;}.cls-45{fill:#87683a;}.cls-46{fill:#442f11;}.cls-47{fill:#736357;}.cls-48{fill:#d9924e;}.cls-49{fill:#ce8a43;}.cls-50{fill:#55381a;}.cls-51{fill:#9f6c42;}.cls-52{fill:#3a5533;}.cls-53{fill:#ae7759;}.cls-54{fill:#e0a527;}.cls-55{fill:#442e15;}.cls-56{fill:#a20012;}.cls-57{fill:#9f6a35;}.cls-58{fill:#92644d;}.cls-59{fill:#392614;}.cls-60{fill:#dc9b55;}.cls-61{fill:#c88443;}.cls-62{fill:#8f603d;}.cls-63{fill:#7a5436;}.cls-64{fill:#eae2d8;}.cls-65{fill:#e1a87e;}.cls-66{fill:#4d5060;}.cls-68{fill:#556c8b;}.cls-69{fill:#bd6c50;}.cls-70{fill:#67615c;}.cls-71{fill:#585858;}.cls-72{fill:#929298;}</style></defs><g id="レイヤー_2" data-name="レイヤー 2"><g id="object"><g id="暮らす"><rect class="cls-1" width="1920" height="1080"/><ellipse class="cls-2" cx="960" cy="655.12" rx="885.05" ry="323.38"/><path class="cls-3" d="M197.53,285.44s-2.4,9.15,1,22.42c2.08,8.1,1.29,21.41,1.47,23.26s-39.11,24.77-39.86,25.23c-1.66,1,4,9.83,9.6,11.12,0,0,38.38-21.31,41.15-22.88s6-21.26,6-21.26,3.29,10.7,3.89,16.28c.77,7.08,5,32.66,4.73,39.24-.06,1.56,10.57,2.44,13.89-3.16-1-5.4-3.29-39.88-3.85-43.2s-8.21-37.73-8.58-41.05S199.84,283.5,197.53,285.44Z"/><path class="cls-4" d="M159.73,356.8s-3.24.64-4.09,1.53c0,0,5.2,19.19,7.45,22.37s9.14,6.25,9.4,5.71-.93-2.6-2.64-5.56,4.35-13.58,4.35-14.17-2.72-1.56-4.66-.22C164.17,365.44,160.09,358.53,159.73,356.8Z"/><path class="cls-5" d="M163.09,380.7c-2.25-3.18-7.45-22.37-7.45-22.37a4.18,4.18,0,0,0-1.4,1.38s5.2,19.19,7.46,22.38,8.88,6.05,9.39,5.7a11.3,11.3,0,0,0,1.28-1.32h0C171.4,386.58,165.21,383.69,163.09,380.7Z"/><path class="cls-4" d="M226.55,379.5a42.77,42.77,0,0,0-.15,5.52s23.67,1.08,31.35-1c0,0,.11-2.6-5.51-4.48s-11.41-3.89-12.39-7.25a9,9,0,0,0-2.06,4.5A13.17,13.17,0,0,1,226.55,379.5Z"/><path class="cls-5" d="M257.75,384c-7.68,2.06-31.35,1-31.35,1,0,.8,0,2.12,0,2.44,0,0,23.67,1.08,31.35-1A21,21,0,0,0,257.75,384Z"/><path class="cls-6" d="M202.42,227.12a33.13,33.13,0,0,0,2.13-6.54c.81-3.89-2.72-9-2.72-9l16.66-2.64q.8,5.79,1.6,11.56a1.91,1.91,0,0,1,.16,1.7c-.6,1-2.33.2-3.56.74-.92.4-.22,10-.44,13S201.41,229.06,202.42,227.12Z"/><path class="cls-3" d="M204.37,217.1s1-5.13,1.48-5.59c0,0,11.46,2.73,11.35,2.8s3.71-12.77,3.71-12.77.88-2.82-3.51-5.31c-4.92-2.8-16.16-2.75-18.32,5.75C197.38,208.64,203.78,213.84,204.37,217.1Z"/><path class="cls-6" d="M220.73,201.24c.88,1.11,1.3,6.91,1.66,7.84.44,1.14,2.48,2.77,2.7,3.29s-.87,1.54-1.49,2.18c0,3.3-.42,5.78-1,6.51-.17.2-.36.38-.36.38a5.7,5.7,0,0,1-1.72,1.07c-1.22.46-3.95,0-6.17-1.73a10.09,10.09,0,0,1-3.28-4.46s-.25.93-1.67.73-4.21-3.48-3.53-5.54,3.63-1.42,4.32.35a6.25,6.25,0,0,0,2.59,0c-.29-1.18-.68-2.65-.83-3.53s2-1.43,2.26-1.92-.71-3-.79-3.77C213.3,201.75,219.85,200.14,220.73,201.24Z"/><path class="cls-7" d="M202.81,224.48a15.36,15.36,0,0,1,1-3.17c.34-.3,12.9,6.49,13.24,7.4a22.83,22.83,0,0,1,.92,4.72C217.92,234.2,203,225.48,202.81,224.48Z"/><path class="cls-8" d="M203.12,224.68s-2.23.48-6.69,8.92c-3.21,6.07-2.22,41.53-4.49,54.32,0,0,24.16,6.55,35.12,4.25,0,0-.86-16.48-1.93-25.15s-4.84-30.46-7.53-35A43,43,0,0,0,203.12,224.68Z"/><path class="cls-6" d="M203.63,250.23c-.22,0-.6,15.5-.38,18s25.71,14.1,27.06,14.55,1.71,2,2.26,2.81,4.16,2.34,5,2.35c1.07,0,5.07-4.75,4.93-6-.21-1.81-4.76-3.13-5.69-3.27s-1.95.25-3.41-.4S215.9,266,215,263.7c-.38-1,.91-12.84.91-12.84S206.69,249.8,203.63,250.23Z"/><path class="cls-7" d="M201.87,256.12s-1.26-22.63,6.72-25c8.88-2.63,8.26,16.9,8.36,25C217,256.15,210.5,256.42,201.87,256.12Z"/><path class="cls-3" d="M300.41,342.79c-8.57-4.15-24.2-19.27-36-31.33-10-10.23-21.88-23.1-24-25.93a10.07,10.07,0,0,1,.82-1c1.27,2,44.94,49.89,60.86,57.6Z"/><path class="cls-9" d="M319.71,367.57c0-1-11.12-8.72-9-11.41,0,0-4.41,4.26-4.05,5.58,1,3.53,9.38,6.55,10.22,7.84,1.38,2.12,3.31,4.6,3.5,5.26.32,1.06.16,2.62,1.34,3.13s4.79.94,3.94-.23S319.76,368.72,319.71,367.57Z"/><path class="cls-9" d="M319.71,367.57c0-1-11.12-8.72-9-11.41,0,0-4.41,4.26-4.05,5.58,1,3.53,9.38,6.55,10.22,7.84,1.38,2.12,3.31,4.6,3.5,5.26.32,1.06.16,2.62,1.34,3.13s4.79.94,3.94-.23S319.76,368.72,319.71,367.57Z"/><path class="cls-9" d="M264.32,375.88c.16-1,6.81-7.68,9.42-9.89l-10-6.85c.42,1.48,2.56,6.42,2.33,6.85-.47.91-5.25,6.85-5.75,8.11s3,7.93,3.14,9-.37,2.6.68,3.34,4.5,1.88,3.91.56S264.14,377,264.32,375.88Z"/><path class="cls-9" d="M264.32,375.88c.16-1,6.81-7.68,9.42-9.89l-10-6.85c.42,1.48,2.56,6.42,2.33,6.85-.47.91-5.25,6.85-5.75,8.11s3,7.93,3.14,9-.37,2.6.68,3.34,4.5,1.88,3.91.56S264.14,377,264.32,375.88Z"/><path class="cls-9" d="M267.48,346.23s-8.35,7.24-13.71,3.39-2.77-8.85-3.07-9.82-4.33,7.59,2,12.22,14.54-1,14.79-1.56S268.92,346,267.48,346.23Z"/><path class="cls-9" d="M263.28,356.84A13.18,13.18,0,0,1,272,343.48c7.21-2.64,23.64,2.44,28.05-.45s3.94-11.39,5.06-14,5.18-4.86,7.53-4.44a7,7,0,0,0,5.71-1.26c1.21-1,2.65-1.18,3.09-.45a6.47,6.47,0,0,1,.47,3.08,5.07,5.07,0,0,1-.63,1.3,8.09,8.09,0,0,1-.15,2.33c-.25.72-5.74,5.14-5.83,6.46s-1.64,17.54-2.52,19.79-7.77,9.23-8.21,10.35-4.75,16.68-4.63,18.36,2.49,1.81,2.81,3-6.3,1.11-6.42,0a32.38,32.38,0,0,1,.56-4.05c.89-5.17,1.88-12.34,2.32-18.34-5.84-.18-14.33-3.55-19.62-4.46a18.56,18.56,0,0,1,.18,5.66c-.42,2.71-7.41,9.46-7.11,10.57s6.93,7.67,8,8.63-2.53,1.33-3.79,1.09-1.45-1.81-2-2.77-6.5-5.59-6.56-6.95,3.62-7.08,3.67-8.1C272.13,366.65,264.13,364.65,263.28,356.84Z"/><path class="cls-4" d="M301.52,341.67l-.17.22.28,1.51a6.13,6.13,0,0,1,1.43,1.66c1.58,2.38,10.35,7.85,10.35,7.85.14-.9.28-1.93.43-3A21.56,21.56,0,0,1,301.52,341.67Z"/><path class="cls-9" d="M320,330.94a6.19,6.19,0,0,0,1.19-1.31,8.09,8.09,0,0,0,.15-2.33,31.74,31.74,0,0,1-2.28,2.55C320.29,329.7,320,330.94,320,330.94Z"/><path class="cls-9" d="M314.2,347c.58-4.93,1.07-10.15,1.11-10.88a2.28,2.28,0,0,1,.55-1l-3.39,4.13C310.64,341.43,314.75,342,314.2,347Z"/><path class="cls-9" d="M278.47,354.91c-.24,1.45,1.13,5.84,1.13,5.84,3,.52,7.14,1.85,11.18,2.93C288.18,363,278.71,353.47,278.47,354.91Z"/><path class="cls-9" d="M279.6,360.75a1.65,1.65,0,0,0,.06.32C279.62,360.87,279.6,360.75,279.6,360.75Z"/><path class="cls-9" d="M293.1,364.26h0a31.77,31.77,0,0,0,6.12.95s.45-5.34.72-6.77C300.14,357.42,296.25,364.54,293.1,364.26Z"/><path class="cls-3" d="M319.67,323.43a1.34,1.34,0,0,1,1-1.08c1.09-.16,1.5,2.06,1.18,2.26S319.67,323.89,319.67,323.43Z"/><path class="cls-4" d="M301.77,341.35a21.13,21.13,0,0,0,12.2,7.49s.14,1.63-.27,2c0,0-9.51-2.58-12.75-8.56C301,342.32,301.12,341.5,301.77,341.35Z"/><path class="cls-10" d="M1338.19,182.13h-7.46a14.34,14.34,0,0,1-14.32-14.32V155.56h4.16v12.25A10.17,10.17,0,0,0,1330.73,178h7.46Z"/><path class="cls-10" d="M1341.71,192l-.14-4.15h.14a11.11,11.11,0,0,0,11.1-11.1v-9.58H1357v9.58A15.27,15.27,0,0,1,1341.71,192Z"/><path class="cls-10" d="M1355.84,181.26l-.14-4.15h.14a11.11,11.11,0,0,0,11.1-11.1v-9.58h4.15V166A15.27,15.27,0,0,1,1355.84,181.26Z"/><rect class="cls-11" x="1335.13" y="143.66" width="4.26" height="71.85"/><rect class="cls-10" x="1339.38" y="143.66" width="4.26" height="71.85"/><circle class="cls-12" cx="1317.16" cy="147.73" r="24.34" transform="translate(959.59 1424.01) rotate(-80.75)"/><circle class="cls-13" cx="1336.54" cy="127" r="29.47" transform="translate(998.01 1426.18) rotate(-80.82)"/><circle class="cls-14" cx="1359.98" cy="152.88" r="19.2"/><path class="cls-10" d="M1777.9,191.53h-9.42A17.58,17.58,0,0,1,1750.93,174V158.5h4.15V174a13.41,13.41,0,0,0,13.4,13.39h9.42Z"/><path class="cls-10" d="M1781.43,184l-.17-4.15h.17A14.59,14.59,0,0,0,1796,165.31v-4.53h4.15v4.53A18.74,18.74,0,0,1,1781.43,184Z"/><path class="cls-10" d="M1795.63,176.26l-.17-2.08h.17a15.62,15.62,0,0,0,15.61-15.61V154h2.08v4.53A17.72,17.72,0,0,1,1795.63,176.26Z"/><rect class="cls-11" x="1774.03" y="131.36" width="5.38" height="90.8"/><rect class="cls-10" x="1779.41" y="131.36" width="5.38" height="90.8"/><circle class="cls-14" cx="1805.15" cy="141.06" r="25.73"/><circle class="cls-13" cx="1775.81" cy="110.31" r="37.25"/><circle class="cls-12" cx="1753.9" cy="141.54" r="25.73"/><path class="cls-10" d="M1185.19,193.27H1179a12,12,0,0,1-12-12V171.08h3.47v10.23a8.5,8.5,0,0,0,8.49,8.49h6.22Z"/><path class="cls-10" d="M1188.13,201.48,1188,198h.11a9.28,9.28,0,0,0,9.27-9.27v-8h3.47v8A12.75,12.75,0,0,1,1188.13,201.48Z"/><path class="cls-10" d="M1199.93,192.54l-.11-3.47h.11a9.27,9.27,0,0,0,9.27-9.26v-8h3.47v8A12.75,12.75,0,0,1,1199.93,192.54Z"/><rect class="cls-11" x="1182.64" y="161.14" width="3.56" height="60"/><rect class="cls-10" x="1186.19" y="161.14" width="3.56" height="60"/><circle class="cls-12" cx="1167.64" cy="164.55" r="20.32" transform="translate(817.51 1290.54) rotate(-80.75)"/><circle class="cls-13" cx="1183.81" cy="147.23" r="24.61" transform="translate(849.68 1292.42) rotate(-80.82)"/><circle class="cls-14" cx="1203.39" cy="168.84" r="16.03"/><path class="cls-10" d="M1094.13,192.87h-9a16.84,16.84,0,0,1-16.82-16.82V161.23h4v14.82a12.85,12.85,0,0,0,12.84,12.84h9Z"/><path class="cls-10" d="M1097.5,185.69l-.16-4h.16a14,14,0,0,0,14-14V163.4h4v4.35A18,18,0,0,1,1097.5,185.69Z"/><path class="cls-10" d="M1111.11,178.24l-.16-2h.16a15,15,0,0,0,15-15V157h2v4.34A17,17,0,0,1,1111.11,178.24Z"/><rect class="cls-11" x="1090.42" y="135.22" width="5.16" height="87.01"/><rect class="cls-10" x="1095.58" y="135.22" width="5.16" height="87.01"/><circle class="cls-14" cx="1120.24" cy="144.51" r="24.66"/><circle class="cls-13" cx="1092.13" cy="115.05" r="35.69"/><circle class="cls-12" cx="1071.12" cy="144.97" r="24.66"/><path class="cls-10" d="M393.28,188.94h-7.45a14.34,14.34,0,0,1-14.32-14.32V162.37h4.15v12.25a10.19,10.19,0,0,0,10.17,10.17h7.45Z"/><path class="cls-10" d="M396.8,198.77l-.13-4.15h.13a11.11,11.11,0,0,0,11.1-11.1V174h4.15v9.57A15.27,15.27,0,0,1,396.8,198.77Z"/><path class="cls-10" d="M410.93,188.07l-.13-4.15h.13a11.11,11.11,0,0,0,11.1-11.1v-9.58h4.16v9.58A15.27,15.27,0,0,1,410.93,188.07Z"/><rect class="cls-11" x="390.22" y="150.47" width="4.26" height="71.85"/><rect class="cls-10" x="394.48" y="150.47" width="4.26" height="71.85"/><circle class="cls-12" cx="372.26" cy="154.55" r="24.34" transform="translate(159.88 497.12) rotate(-80.75)"/><circle class="cls-13" cx="391.63" cy="133.81" r="29.47" transform="matrix(0.16, -0.99, 0.99, 0.16, 197.08, 499.09)"/><circle class="cls-14" cx="415.08" cy="159.69" r="19.2"/><path class="cls-10" d="M648.75,194.68h-9.42a17.57,17.57,0,0,1-17.55-17.55V161.66h4.15v15.47a13.41,13.41,0,0,0,13.4,13.4h9.42Z"/><path class="cls-10" d="M652.27,187.19l-.16-4.16h.16a14.59,14.59,0,0,0,14.58-14.57v-4.53H671v4.53A18.75,18.75,0,0,1,652.27,187.19Z"/><path class="cls-10" d="M666.48,179.41l-.17-2.07h.17a15.64,15.64,0,0,0,15.61-15.62v-4.53h2.07v4.53A17.7,17.7,0,0,1,666.48,179.41Z"/><rect class="cls-11" x="644.88" y="134.51" width="5.38" height="90.8"/><rect class="cls-10" x="650.26" y="134.51" width="5.38" height="90.8"/><circle class="cls-14" cx="675.99" cy="144.22" r="25.73"/><circle class="cls-13" cx="646.66" cy="113.47" r="37.25"/><circle class="cls-12" cx="624.74" cy="144.69" r="25.73"/><path class="cls-15" d="M1577.7,77.81c-1.31.52-2.61,1-3.93,1.55-.29-.73-.6-1.45-.94-2.12h4.62C1577.54,77.42,1577.62,77.62,1577.7,77.81Z"/><path class="cls-16" d="M1539.72,57V76.86h-89.38a32.35,32.35,0,0,1,29-19.84Z"/><rect class="cls-17" x="1459.58" y="63.82" width="5.28" height="119.24"/><rect class="cls-17" x="1525.79" y="68.8" width="5.27" height="109.37"/><rect class="cls-18" x="1461.93" y="63.82" width="5.27" height="119.24"/><rect class="cls-18" x="1528.14" y="68.8" width="5.28" height="109.37"/><rect class="cls-16" x="1461.73" y="110.21" width="71.03" height="9.2"/><rect class="cls-19" x="1470.75" y="110.21" width="5.55" height="67.48"/><rect class="cls-19" x="1482.61" y="110.21" width="5.55" height="67.48"/><rect class="cls-19" x="1494.47" y="110.21" width="5.55" height="67.48"/><rect class="cls-19" x="1506.33" y="110.21" width="5.55" height="67.48"/><rect class="cls-19" x="1518.19" y="110.21" width="5.55" height="67.48"/><rect class="cls-18" x="1495.12" y="168.49" width="71.03" height="9.2"/><rect class="cls-16" x="1495.12" y="110.21" width="71.03" height="9.2"/><rect class="cls-17" x="1492.77" y="63.82" width="5.28" height="119.24"/><rect class="cls-17" x="1558.98" y="68.8" width="5.27" height="109.37"/><path class="cls-17" d="M1531.06,68.8v0Z"/><rect class="cls-18" x="1495.12" y="63.82" width="5.27" height="119.24"/><rect class="cls-18" x="1561.33" y="68.8" width="5.28" height="109.37"/><path class="cls-18" d="M1497.24,183.06H1447V155.8a24.88,24.88,0,0,1,24.88-24.88h.5a24.88,24.88,0,0,1,24.88,24.88Z"/><rect class="cls-18" x="1397.82" y="130.92" width="75.83" height="51.76"/><path class="cls-20" d="M1422.7,183.06h-50.26V155.8a24.88,24.88,0,0,1,24.88-24.88h.5a24.88,24.88,0,0,1,24.88,24.88Z"/><path class="cls-15" d="M1377,178.46V155.79a20.3,20.3,0,0,1,20.28-20.27h.5a20.3,20.3,0,0,1,20.28,20.27v22.67Z"/><rect class="cls-21" x="1501.8" y="110.21" width="5.55" height="67.48"/><rect class="cls-21" x="1513.66" y="110.21" width="5.55" height="67.48"/><rect class="cls-21" x="1525.52" y="110.21" width="5.55" height="67.48"/><rect class="cls-21" x="1537.38" y="110.21" width="5.55" height="67.48"/><rect class="cls-21" x="1549.24" y="110.21" width="5.55" height="67.48"/><rect class="cls-22" x="1504.15" y="110.21" width="5.55" height="67.48"/><rect class="cls-22" x="1516.01" y="110.21" width="5.55" height="67.48"/><rect class="cls-22" x="1527.87" y="110.21" width="5.55" height="67.48"/><rect class="cls-22" x="1539.73" y="110.21" width="5.55" height="67.48"/><rect class="cls-22" x="1551.59" y="110.21" width="5.55" height="67.48"/><path class="cls-16" d="M1577.45,77.24h-66.56A32.32,32.32,0,0,0,1481.4,57h65.7A32.38,32.38,0,0,1,1577.45,77.24Z"/><polygon class="cls-18" points="1381.32 183.06 1372.89 183.06 1337.01 216.8 1345.45 216.8 1381.32 183.06"/><polygon class="cls-23" points="1430.79 185.41 1386.48 216.8 1386.48 219.15 1394.91 219.15 1430.79 185.41"/><polygon class="cls-23" points="1430.79 183.06 1422.35 183.06 1386.48 216.8 1394.91 216.8 1430.79 183.06"/><polygon class="cls-23" points="1381.32 185.41 1337.01 216.8 1337.01 219.15 1345.45 219.15 1381.32 185.41"/><polygon class="cls-24" points="1381.32 183.06 1372.89 183.06 1337.01 216.8 1345.45 216.8 1381.32 183.06"/><polygon class="cls-16" points="1427.52 186.13 1422.63 190.73 1364.73 190.73 1364.73 187.66 1427.52 183.45 1427.52 186.13"/><polygon class="cls-16" points="1420.81 192.65 1415.92 197.25 1358.02 197.25 1358.02 194.18 1420.81 189.96 1420.81 192.65"/><polygon class="cls-16" points="1413.81 199.17 1408.92 203.77 1351.02 203.77 1351.02 200.7 1413.81 196.48 1413.81 199.17"/><polygon class="cls-16" points="1406.74 205.68 1401.85 210.28 1343.95 210.28 1343.95 207.22 1406.74 203 1406.74 205.68"/><polygon class="cls-16" points="1399.81 212.2 1394.91 216.8 1337.02 216.8 1337.02 213.74 1399.81 209.52 1399.81 212.2"/><polygon class="cls-15" points="1427.52 183.06 1422.63 187.66 1364.73 187.66 1369.62 183.06 1427.52 183.06"/><polygon class="cls-15" points="1420.6 189.58 1415.71 194.18 1357.81 194.18 1362.71 189.58 1420.6 189.58"/><polygon class="cls-15" points="1413.67 196.1 1408.78 200.7 1350.88 200.7 1355.77 196.1 1413.67 196.1"/><polygon class="cls-15" points="1406.74 202.62 1401.85 207.22 1343.95 207.22 1348.84 202.62 1406.74 202.62"/><polygon class="cls-15" points="1399.81 209.13 1394.91 213.74 1337.02 213.74 1341.91 209.13 1399.81 209.13"/><path class="cls-15" d="M1511.14,77.81l-3.93,1.55c-.29-.73-.6-1.45-.94-2.12a3.48,3.48,0,0,0-.2-.38,28.7,28.7,0,0,0-51.1,0c-.4.79-.78,1.64-1.12,2.5l-3.91-1.55c.12-.33.26-.65.4-1a32.35,32.35,0,0,1,29-19.84h2a32.3,32.3,0,0,1,29.32,19.84c.06.12.11.24.17.38S1511.06,77.62,1511.14,77.81Z"/><path class="cls-15" d="M1510.89,77.24h-4.62a28.18,28.18,0,0,0-24.87-16V57A32.32,32.32,0,0,1,1510.89,77.24Z"/><rect class="cls-17" x="1554.77" y="170.38" width="4.75" height="46.42"/><ellipse class="cls-17" cx="1555.63" cy="193.59" rx="23.28" ry="23.1" transform="translate(318.74 1156.7) rotate(-45)"/><path class="cls-25" d="M1584.5,189.66a23.22,23.22,0,1,1-19-18.95A23.23,23.23,0,0,1,1584.5,189.66Z"/><path class="cls-18" d="M1573.58,191.54a12.14,12.14,0,1,1-9.91-9.91A12.15,12.15,0,0,1,1573.58,191.54Z"/><rect class="cls-17" x="1496.17" y="170.38" width="4.75" height="46.42"/><ellipse class="cls-17" cx="1497.03" cy="193.59" rx="23.28" ry="23.1" transform="translate(301.43 1115.07) rotate(-44.99)"/><path class="cls-25" d="M1525.9,189.66a23.22,23.22,0,1,1-19-18.95A23.24,23.24,0,0,1,1525.9,189.66Z"/><path class="cls-18" d="M1515,191.54a12.14,12.14,0,1,1-9.9-9.91A12.14,12.14,0,0,1,1515,191.54Z"/><rect class="cls-17" x="1436.93" y="180.38" width="4" height="39.11"/><path class="cls-17" d="M1456.93,196.62a19.56,19.56,0,1,1-16-16A19.58,19.58,0,0,1,1456.93,196.62Z"/><path class="cls-25" d="M1462,196.62a19.57,19.57,0,1,1-16-16A19.59,19.59,0,0,1,1462,196.62Z"/><path class="cls-18" d="M1452.77,198.2a10.23,10.23,0,1,1-8.34-8.35A10.23,10.23,0,0,1,1452.77,198.2Z"/><path class="cls-26" d="M1619.81,156.34l-5.13,30.81-35.5.43C1579.51,170.42,1586.71,155,1619.81,156.34Z"/><path class="cls-27" d="M1600.35,204.44h0a1.53,1.53,0,0,1,2.17,0l28.34,28.34a1.54,1.54,0,0,1,0,2.17h0a1.54,1.54,0,0,1-2.16,0l-28.35-28.35A1.54,1.54,0,0,1,1600.35,204.44Z"/><path class="cls-27" d="M1627.69,204.44h0a1.52,1.52,0,0,0-2.16,0l-28.34,28.34a1.53,1.53,0,0,0,0,2.17h0a1.54,1.54,0,0,0,2.16,0l28.34-28.35A1.52,1.52,0,0,0,1627.69,204.44Z"/><path class="cls-26" d="M1648.87,185.62v1.63c0,10.15-6.69,18.46-14.86,18.46h-40c-8.17,0-14.86-8.31-14.86-18.46v-1.63Z"/><path class="cls-28" d="M1629.42,218.38a15.19,15.19,0,1,1-15.18,15.19,15.19,15.19,0,0,1,15.18-15.19Zm0,2.41a12.78,12.78,0,1,0,12.78,12.78A12.78,12.78,0,0,0,1629.42,220.79Z"/><path class="cls-28" d="M1629.42,230.62a2.95,2.95,0,1,1-3,2.95A2.95,2.95,0,0,1,1629.42,230.62Z"/><rect class="cls-29" x="1628.69" y="219.91" width="1.47" height="27.14"/><rect class="cls-29" x="1615.85" y="232.75" width="27.14" height="1.47"/><rect class="cls-29" x="1615.85" y="232.75" width="27.14" height="1.47" transform="translate(311.83 1220.14) rotate(-44.98)"/><rect class="cls-29" x="1628.69" y="219.91" width="1.47" height="27.14" transform="translate(312.09 1220.48) rotate(-45)"/><path class="cls-28" d="M1598.62,218.38a15.19,15.19,0,1,1-15.18,15.19,15.18,15.18,0,0,1,15.18-15.19Zm0,2.41a12.78,12.78,0,1,0,12.78,12.78A12.78,12.78,0,0,0,1598.62,220.79Z"/><path class="cls-28" d="M1598.62,230.62a2.95,2.95,0,1,1-2.95,2.95A2.95,2.95,0,0,1,1598.62,230.62Z"/><rect class="cls-29" x="1597.89" y="219.91" width="1.47" height="27.14"/><rect class="cls-29" x="1585.05" y="232.75" width="27.14" height="1.47"/><rect class="cls-29" x="1585.05" y="232.75" width="27.14" height="1.47" transform="translate(302.82 1198.37) rotate(-44.98)"/><rect class="cls-29" x="1597.89" y="219.91" width="1.47" height="27.14" transform="translate(303.07 1198.7) rotate(-45)"/><rect class="cls-30" x="1597.39" y="204.46" width="33.26" height="4.97" rx="2.24"/><path class="cls-31" d="M1579.54,184.12h69a1.48,1.48,0,0,1,1.49,1.46v.32a1.49,1.49,0,0,1-1.49,1.46h-69a1.48,1.48,0,0,1-1.49-1.46v-.32A1.48,1.48,0,0,1,1579.54,184.12Z"/><path class="cls-27" d="M1649,169.77h0a1.53,1.53,0,0,1,.62,2.07l-15.34,28.45a1.54,1.54,0,0,1-2.08.62h0a1.54,1.54,0,0,1-.61-2.07l15.34-28.45A1.53,1.53,0,0,1,1649,169.77Z"/><path class="cls-32" d="M1672.4,124.91l-8.1-.73c-.43.2-3.85.32-5.44,1.44a2.1,2.1,0,0,0,.58,3.54c1.39.47,3.71,1.53,6.8,2.66,4.57,1.67,9.89,3.25,12.36,3.05,7.9-.63,8-9.44,3.54-10.43C1679.93,124,1676.71,124,1672.4,124.91Z"/><path class="cls-33" d="M1672.29,124.75l-3.18-.29-1,8.64c4.28,1.45,8.69,2.62,10.93,2.45,8.58-.68,8.65-10.24,3.84-11.31C1680.46,123.7,1677,123.75,1672.29,124.75Z"/><path class="cls-32" d="M1657.7,127.3c-1.66-6.43.26-10.8-1.6-17.67l-.68-1.64-.27-2.68c.06-.84-.18-1.5.58-1.56.17-.77.26-1.19,1-1.21.16-.8.7-1.86,1.21-1.4.09-.66.49-1.53,1.32-1.23,0,0,.62,3.94.67,4.5,1.19-1.57,1-3.17,2.52-2.5.77.35.1,1.28-.63,3.08-.86,2.1-.09,1.84-1.63,3.46-.86.91,3.72,15.53,4.08,16.58C1665.64,129,1658.9,131.62,1657.7,127.3Z"/><path class="cls-32" d="M1645.44,119.63a3.42,3.42,0,0,1,2-5.79c2.59-.37,4.55,1.51,6.68,5.14a1.73,1.73,0,0,1,.3,1.67c-.59,1.87-1.93,4.76-1.4,6.23.11.17.23.33.35.5a9.45,9.45,0,0,1,1,1.43c.1.22.14.43,0,.56.06.17.05.51-.22.51a.34.34,0,0,1-.18.52c0,.22,0,.4-.36.41.32.32.08.6-.17.63-.56.07-1.28-.79-1.62-1.18l-.68-.86c-.43-.7-1.2-.92-1.35-1.52-.1-.37,0-.71-.11-1.19-.63-1.53-1-3,0-4.46C1648.34,121.47,1646.38,120.74,1645.44,119.63Z"/><path class="cls-32" d="M1665.1,113.45l-.14.41c-.23.49-.56.45-.81.17a5.94,5.94,0,0,1-.62-1.37l.83.3Z"/><path class="cls-32" d="M1661.48,107c.3.38.89,1.67,1.48,2.74a8.4,8.4,0,0,0,.94,1.42,7.74,7.74,0,0,1,1.38.81,2.11,2.11,0,0,1,.6,1.48,5.74,5.74,0,0,1,0,1.22c-.06.44-.17.85-.21,1.15-.28-.08-.35-.12-.36-.52a2.08,2.08,0,0,0-.33.58c-.79-.29-.6-.89-.12-1.5.07-.28.17-.42.11-.54-.2-.38-1.14-.29-1.53-.28s-.45-.17-.81-.73c-1.13-.41-1.34-.4-2.95-2.07Z"/><path class="cls-32" d="M1662,116.13l-.32.3c-.43.31-.71.12-.8-.24a6,6,0,0,1,.11-1.5l.59.66Z"/><path class="cls-32" d="M1658.39,111.36c-2.49,3.21-5.66,4.93-11.37,4.32-3.22-1.22-3.49-2.48-3.81-3.3-.74-1.87,2.58-2.89,6.74-6.9,3.75-3.61,7-7.77,8.56-7.58.84.11,1.69,1,3.08,3.2C1663.51,104.06,1662.32,106.29,1658.39,111.36Z"/><path class="cls-34" d="M1652.06,115.4c-1.63,1.7-4.32,5.89-7.35,4.84a6.17,6.17,0,0,1-3.44-3.13c-1-2.89,1.4-6.15,3.74-7.49A22.24,22.24,0,0,0,1652.06,115.4Z"/><path class="cls-32" d="M1644.14,118.85a3.41,3.41,0,0,1,3.95-4.67c2.54.59,3.7,3.06,4.37,7.21a1.74,1.74,0,0,1-.33,1.66c-1.29,1.61-3.74,4-3.55,5.52l1.71,1.07c.44.29,1.39.88,1.4,1.44,0,.25-.24.53-.6.26,0,.34-.12.43-.35.42a.34.34,0,0,1-.48.25c0,.27-.31.32-.48.29-.1.18-.32.17-.56.11a10.55,10.55,0,0,1-1.55-.8c-1.31-.72-2.54-.86-2.13-2.45-.19-2.45-.53-4.93,1.63-6.34C1646.18,121.63,1644.62,120.23,1644.14,118.85Z"/><path class="cls-32" d="M1683.58,125.61l-8.11,2.44c1.09-3,1.34-8.5,3.75-12.71l8.89,3.15c-1.22,1.34-1.52,2.21-2.79,3.72A10.7,10.7,0,0,0,1683.58,125.61Z"/><path class="cls-32" d="M1676,113.33c-.14.18-.34.43-.55.75a5.89,5.89,0,0,0-.56,1,3.36,3.36,0,0,0-.29,1.29,3,3,0,0,0,1,2,5.93,5.93,0,0,0,4,1.82,2.12,2.12,0,0,0,1.13-.11c.64-.32.9-1.14,1.45-2.09.61.58,1.27.75,2.06-.28a19,19,0,0,0,4.36-2.41s1.83-7.2,1.71-7.33-4.89-2.7-4.89-2.7c-1.13.46-2.55.63-3.8,1.21a10.7,10.7,0,0,0-3,2.14,1.69,1.69,0,0,0-.73,1.13,1.49,1.49,0,0,1-.15.52c-.77,1.08-2.48,1.27-2.64,1.61A1.49,1.49,0,0,0,1676,113.33Z"/><path class="cls-35" d="M1682.66,113.23c-.28.52-.53,1-.68,1.36s-.33.59-.28.8a5.3,5.3,0,0,0,1.92-.59c1-.23,2.29-.37,2.77.27s-.59,1.74-1.68,2.28a1.84,1.84,0,0,0-1,1.17c-.19.87.68,1,.91,2.07a14.12,14.12,0,0,1,0,2.72c1.59-1.5,2-2.19,3.38-2.84,1.9-.9,4.3-3.7,4.48-6l0,.17c.11-1.8.24-2.42-.62-4a5.52,5.52,0,0,0-.71-2.69c-1-1.8-2.92-2.4-4.64-3a15.13,15.13,0,0,0-6.28-.6c-.27,2.79,1.29,3.64,3.45,4.58a5,5,0,0,1-1.71,4.34l.64-.15Z"/><path class="cls-36" d="M1675.06,231.62c.73,8.64-7.68,7.52-10,7.88-2.35.07-2.46,1.43-2.53,2.25-.26,3,6.34,2.72,8.59,2.61,3.24-.16,5.49-1.78,7.21-.59.47.33,3.67.31,4.34.13,1.54-.39,1.61-2.92,1.61-4.57,0-2.34-1-3.41-2.4-5.84l-.36-1.87Z"/><path class="cls-37" d="M1680.56,163.88c.39,3.68,3.2,7.4,3.48,12.29s-2.57,15.94-2.9,22.48l1.77,6.39-.51,30.35-9.44-.07-1.23-35.27-2.43-33.67Z"/><path class="cls-38" d="M1673.91,226.33l-4.7.18a1.14,1.14,0,0,0-1,1.19c2.21,12.69-8.18,11.21-11,11.62-2.47.08-2.71,1.49-2.87,2.35-.57,3.15,6.34,2.84,8.69,2.72,3.4-.17,5.91-1.85,7.59-.61.45.34,3.79.32,4.51.14,1.64-.41,2-3,2.14-4.77.23-2.44-.76-3.56-1.92-6.1l-.55-5.58C1674.78,226.92,1674.46,226.29,1673.91,226.33Z"/><path class="cls-37" d="M1676.29,165.24l.67,1.47,1-.08c.74,5.58,1.57,9.07.45,13.39-1.94,9.54-3.22,11.23-4.59,23.19l3,8.23,1.08,23.88-8.8-.45-4.71-32.15L1662,180.2c-.44-4.2.89-11.62,1.81-16.27Z"/><path class="cls-33" d="M1684.11,157.11c-1.51,4.93-1.27,10.08-1,14.24-2.63,1.6-14.07,2.24-20.6.55.86-7.36,1.15-10.82,1.47-14.76.65-7.95-1.22-19.06,2.32-25.82,1.47-2.8,2.19-2.68,5.06-4,1.49-.66,3.64-1.56,4.66-3,1.35.38,6.47-.22,9-1.1,4.77,6,5.87,10.07,3.63,18.73C1687.61,145.77,1686,150.38,1684.11,157.11Z"/><path class="cls-32" d="M1651.21,128.36c-.89-7.14,1.78-11.58.74-19.22l-.5-1.86.08-2.91c.18-.91,0-1.65.84-1.61.29-.8.44-1.24,1.29-1.15.29-.84,1-1.9,1.5-1.34.19-.69.74-1.57,1.6-1.14,0,0,.11,4.33.09,4.93,1.5-1.51,1.56-3.26,3.05-2.33.78.48-.06,1.39-1.1,3.22-1.22,2.13-.36,2-2.24,3.5-1,.85,1.85,17.22,2.08,18.39C1659.52,131.25,1651.9,133.17,1651.21,128.36Z"/><path class="cls-32" d="M1661.43,106.4a11.92,11.92,0,0,1,.67,1.94c.14.79,0,4.43.16,5a8.51,8.51,0,0,1,.86,1.42,2.19,2.19,0,0,1-.18,1.65,6.7,6.7,0,0,1-.63,1.1c-.27.37-.57.69-.76.94-.22-.21-.25-.28-.07-.65a2.05,2.05,0,0,0-.59.38c-.58-.67-.11-1.12.63-1.44.2-.22.36-.3.36-.44,0-.45-.9-.83-1.25-1s-.33-.38-.38-1.06a13.16,13.16,0,0,1-1.68-3.35c-.24-.57-.47-2.47-.55-2.69a4.6,4.6,0,0,1-.28-.55,6,6,0,0,1-.14-.92c-.07-.68-.46-1.57-.54-2.4-.22-2.28.23-3.63,1.6-4.06,1.18-.37,2.72.06,3,2.69A27.34,27.34,0,0,1,1661.43,106.4Z"/><path class="cls-32" d="M1667.08,126.3l-8.78-.78c-.46.21-4.18.34-5.9,1.55a2.28,2.28,0,0,0,.63,3.84c1.51.51,4,1.66,7.37,2.88,5,1.81,10.73,3.53,13.4,3.31,8.57-.68,8.65-10.23,3.84-11.31C1675.25,125.26,1671.75,125.31,1667.08,126.3Z"/><path class="cls-33" d="M1667.08,126.3l-3.19-.28-1,8.64c4.29,1.45,8.7,2.62,10.94,2.44,8.57-.68,8.65-10.23,3.84-11.31C1675.25,125.26,1671.75,125.31,1667.08,126.3Z"/><path class="cls-32" d="M1667.13,101.84c-.24.58.17.88,0,1.09a.76.76,0,0,1-.71,0,1.35,1.35,0,0,0-.27.27c-.28.33-.25.54-.43.83a1.72,1.72,0,0,1-1,.69,2.37,2.37,0,0,1-.79.07c-1.36-.13-3-2.72-3-2.72a10.22,10.22,0,0,1-2-4.89c-.08-1.12.77-2.48,2-3.57,2.3-2,4.23-1.55,5.59-.35,2.19,1.91,3,4.14,2.28,6.33C1668.53,100.51,1667.36,101.27,1667.13,101.84Z"/><path class="cls-39" d="M1659.41,99.28a7.75,7.75,0,0,1-.47-2.06c-.08-1.12.77-2.48,2-3.57,2.3-2,4.23-1.55,5.59-.36a6.42,6.42,0,0,1,2.55,4.91c-.69-.86-1.19-1.77-1.58-1.64s-.41.67-.76,1.08c-.74.86-1.58.84-2.61,1.93.25-1.47-.2-2.53-1.87-2.19a3.82,3.82,0,0,0-2.85,1.89Z"/><path class="cls-32" d="M1490.26,160.71c.35,5.39.68,12.54.58,17.95l-4.92,2.25a1.47,1.47,0,0,1-.37-.74c-.25-1.79-1.92-9.9-2.63-14.75-1-7.12.55-8.46,2.3-9.27C1487.21,155.22,1490.05,157.34,1490.26,160.71Z"/><path class="cls-32" d="M1495.22,195.19c-1.34-3.61-2.38-11.25-4.35-16.63-1.1-3-3.26-3.57-4-2.67-1.21,1.52-2,2.41-.87,5.91,1.59,4.83,5.52,12.53,6.55,14.73Z"/><path class="cls-32" d="M1457.62,238c.43,4.64,11.69,8,11.92,10.06-1,.45-6.26.61-8.3.25-2.68-.47-4.08-1.59-6.37-1.71l-.07,1.3-2.76,0-.17-2.63c-.34-5,1.15-4.86,1.35-7.25Z"/><path class="cls-40" d="M1465.64,245.09c2.1,1.17,3.81,2.16,3.9,3-1,.45-6.26.61-8.3.25-2.68-.47-4.08-1.59-6.37-1.71l-.07,1.3-2.76,0-.12-2.62a7.5,7.5,0,0,1,.36-4.49C1454.06,243.3,1461.81,246.12,1465.64,245.09Z"/><path class="cls-32" d="M1468.56,205.92l-10.82,33.3-6.32-1c1.6-4.44,2.26-11.47,2.74-16.94.57-6.44,1.12-7.77,3.54-11.48l2.75-5.9C1459.73,200.12,1469.7,200.33,1468.56,205.92Z"/><path class="cls-32" d="M1468.69,205c-.42,3.52-5.83,5.67-8.21,1.53l-6.17-17.41c-3.62-2-5.23-5.91-5.79-7.9-1.35-4.8,0-7.37,1-10.37l13.26-.57C1464.3,182.34,1467.39,190.55,1468.69,205Z"/><path class="cls-41" d="M1459.85,204.73l-5.54-15.64c-3.62-2-5.23-5.91-5.79-7.9-1.35-4.8,0-7.37,1-10.37l13.26-.57c1.52,12.09,4.63,20,5.89,34.48Z"/><path class="cls-32" d="M1455.06,232.73a27.13,27.13,0,0,0-.12,5.51c.64,4.64,12,8,12.37,10.06-1,.45-6.22.61-8.28.25-2.71-.47-4.15-1.59-6.45-1.71v1.3l-3.09,0-.29-2.63c-.56-5,1.11-4.87,1-7.25l-.22-5.84Z"/><path class="cls-40" d="M1463.28,245.34c2.15,1.17,3.91,2.16,4,3-1,.45-6.22.61-8.28.25-2.71-.47-4.15-1.59-6.45-1.71v1.3l-3.09,0-.24-2.62a7.47,7.47,0,0,1,.16-4.49C1451.29,243.55,1459.49,246.37,1463.28,245.34Z"/><path class="cls-32" d="M1460.4,204.86l-5.36,34.7-5,.09c.78-4.65-.56-11.62-1.07-17.08-.6-6.44-.3-7.84,1.41-11.94l1.64-6.29-1.72-18.4c-3-2.78-3.62-7-3.67-9.08-.14-5,2.46-7.06,4.13-9.73l12.37,2.63c-.46,3.74-.16,8.25-.07,12.92C1464.09,190.41,1461.66,196.94,1460.4,204.86Z"/><path class="cls-41" d="M1491.65,150.83c-3.47-.06-6.7-1.36-9.59-.18-4,1.63-7.48,5.07-10.68,8-8.05,7.27-15.75,4.31-21,8.58L1463,179.53a50.18,50.18,0,0,0,7-3.12,51.16,51.16,0,0,0,9.15-6.32c1.58,1.15,2.83,1.77,7.5.61,1.49-3.67,2.1-6.22,3.56-9.55C1490.86,158.47,1491.05,154.22,1491.65,150.83Z"/><path class="cls-41" d="M1449.23,204.73c.08-10.17,2.47-13.36-1.4-22.43a15.3,15.3,0,0,1-1.15-5.44,12.92,12.92,0,0,1,1.73-7c2-3.67,4.07-4.05,8.25-5.14l6.52,5.07c-.46,3.74-.16,8.25-.07,12.92,1,7.69.61,14.63,1.11,22.23Z"/><path class="cls-32" d="M1498.73,158.14c-5.57-3.54-12.29,4.76-12.74,5.27l2.38-11.83a22.14,22.14,0,0,0,9.49-3.23Z"/><path class="cls-32" d="M1498.35,159.55a5.4,5.4,0,0,0,3.22,1.72l.46,0a4.87,4.87,0,0,0,1.57-.51,1.74,1.74,0,0,1,.93-.35c.49,0,1,.81,1.78.33a5,5,0,0,1,1.57-2.43c.87-.69,1.81-.3,3.43-1.68a5.5,5.5,0,0,0,2-4.55c-.18-3.15-2.12-7.51-4.71-8.32-7.14-2.24-10.46,8.18-10.49,8.33S1496.28,157.21,1498.35,159.55Z"/><path class="cls-42" d="M1512.74,154.85c1.15-1.31,1.26-6.92-1.7-9.89a11.12,11.12,0,0,0-4.87-2.75c-4.71-1.29-11.71,1.75-15.83,5.23-5.41,4.58,1.39,6.49-8.86,15.34,4.64,4.58,14.94-11.63,19.62-9.13C1504.23,154.91,1513.7,160.44,1512.74,154.85Z"/><path class="cls-32" d="M1484.76,198.48c1.14,2.37,1.21,1.79.19,4.2l-2,.46a23.64,23.64,0,0,1-.9-2.26c0-.14.2-3.78.2-3.78l1-.54Z"/><path class="cls-28" d="M1505.77,224.91a37.19,37.19,0,0,1,2.63,9.28c.26,1.67,0,1.85-.49,3.46l-1.88,4.17a6.08,6.08,0,0,1-4-.6l.76-4.25-1-4.07-.79-.05a38.73,38.73,0,0,0-1.4,5l-1,6a14.17,14.17,0,0,1-4.38,0c.2-2.63,0-5.57,0-8.2,0-3.22,0-5.87.31-9.55Z"/><path class="cls-37" d="M1505.77,241a20.84,20.84,0,0,0,.81,3.29c.3.59.8,1.89-.13,2.22a5.18,5.18,0,0,1-3.26-.24c-.48-.27-.48-1.56-.69-2.79a9.42,9.42,0,0,0-.45-1.36c-.26-.69,0-1.26.61-2.61l1.93,1.1Z"/><path class="cls-37" d="M1498.33,243.21a10.76,10.76,0,0,0,.41,3.56c.14.84,0,1.22-.81,1.32a23.09,23.09,0,0,1-3.35,0c-1.51-.08-.91-1.36-.57-2.83l.46-2,2.1-.13Z"/><path class="cls-32" d="M1515.16,218.73l0,.5c0,.61-.41.71-.8.52a6.53,6.53,0,0,1-1.23-1.19l1,0Z"/><path class="cls-32" d="M1512,216.43c.75.62,1.73.24,2.66.6a2.43,2.43,0,0,1,1.27,1.32,6.94,6.94,0,0,1,.48,1.3c.13.5.19,1,.27,1.31-.33,0-.42,0-.6-.39a2.15,2.15,0,0,0-.1.76c-1,0-1-.69-.77-1.55,0-.32,0-.52-.12-.61-.37-.32-1.33.18-1.74.34-.78.32-1.15-.81-2-.79Z"/><path class="cls-43" d="M1501.88,208.27c1.95.25,2.46,1,4.31,3.85l1.56,2,4.75,2.33a15.9,15.9,0,0,1-.78,2.63c-2.81-.82-4.59-.65-6.81-2.95a47.15,47.15,0,0,0,1.67,9.69,50.42,50.42,0,0,1-12.66,1c.38-4.6-.62-6.61-2.26-10.63-.53-1.28-2.74-2.6-3.55-5.77-.39-1.54,3.43-1.41,7.92-1.74A33.79,33.79,0,0,1,1501.88,208.27Z"/><path class="cls-43" d="M1490,213.93c-2-2.1-5.41-3.74-5.92-4.67-.71-1.29-1.37-3.28-2.06-7.42l3.35.45,2.6,4.82,2.62.71a10,10,0,0,1,2.57,1.28Z"/><path class="cls-44" d="M1496.72,197.7a4.41,4.41,0,0,0-4.92,2.63.71.71,0,0,1,.26-.2,6.3,6.3,0,0,0-.5,2.61c0,3.34,2.15,6.37,5.16,6.37s5.3-3.13,5.31-6.47a4.27,4.27,0,0,0-1.7-3.8,1.88,1.88,0,0,1,.55.39C1500.54,197.9,1497.76,197.49,1496.72,197.7Z"/><path class="cls-32" d="M1496.72,210.76a2.2,2.2,0,0,0,1.25-.59,4.58,4.58,0,0,0,2.18-1.33c.38-.55.29-1.16.47-1.8a1,1,0,0,0,.56-.63c.17-.68.93-.79,1-1.88s-.8-.84-1-.59a9.71,9.71,0,0,0,.19-1.66c-.38-2.6-1.76-3.6-4.61-3.6s-4.24,1-4.62,3.6a10.83,10.83,0,0,0,.19,1.66c-.19-.25-1-.5-1,.59s.78,1.2.94,1.88a1.07,1.07,0,0,0,.56.63,5.62,5.62,0,0,0,.47,1.8,4.63,4.63,0,0,0,2.18,1.33A2.26,2.26,0,0,0,1496.72,210.76Z"/><path class="cls-44" d="M1500.8,205.52a11.32,11.32,0,0,0,.6-1.19c2.32-5.93-5.27-7.82-8.2-4.82-1.15,1.17-1.68,3.08-.53,6.23.41-1.53-.68-5,2.06-5.35,1.18,1.5,1.58,1.46,5,2.82C1500.85,203.66,1500.85,204.1,1500.8,205.52Z"/><path class="cls-32" d="M1488,156.53c-.93,5.32-2.29,12.35-3.66,17.58l-5.31,1a1.52,1.52,0,0,1-.19-.8c.18-1.8.47-10.08.92-15,.66-7.16,2.53-8.09,4.41-8.47C1486.32,150.48,1488.58,153.21,1488,156.53Z"/><path class="cls-32" d="M1484.7,191.21c-.46-3.82.33-11.49-.32-17.19-.36-3.16-2.33-4.24-3.24-3.52-1.54,1.19-2.54,1.86-2.24,5.54.41,5.06,2.42,13.47,2.9,15.85Z"/><path class="cls-32" d="M1484.73,201.14h.07a2.71,2.71,0,0,0,.23-.64h0v0h0v0h0l0,0h0v0h0v0h0v0h0v-.06h0v0h0v0h0a11.56,11.56,0,0,0,.68-2.64c0-.92-.4-1.54-.91-4.16,0-.2-.23-1.19-.19-1.18l-.28-3.59-3.15-.52.49,3.13h0a10.16,10.16,0,0,0-.65,1.5c-.48,1.48.34,2.24.25,3.73h0a3.65,3.65,0,0,1-.23.93c-.17,0-.33.46-.43.71a1.31,1.31,0,0,0-.07.55v.06h0c-.05.23-.18.62,0,.83a1,1,0,0,0,.23.2,5.09,5.09,0,0,0,.34.54c.19.24.51.35,1.19.57a1.15,1.15,0,0,0,.36.09l0,0h-.06c-.6-.05-1-.26-1.4,0a.93.93,0,0,0-.4.35l1.48.45c.46.14.41.17.86,0,.17,0,1.42-.45,1.49-.5Zm-2.48-4,.08.05c-.18.31-.36.62-.55.93s-.48.9-.52.92l0,0a7.2,7.2,0,0,0,.77-1.38c.1-.2.19-.37.27-.54Zm1,.57.19.05c-.39.76-.74,1.28-1.14,2l-.17-.08c.21-.32.51-.86.8-1.38l.32-.59Zm.87,1.37c-.09.31-.18.66-.26,1.07l-.75.48,0-.05C1483.43,200.15,1483.75,199.63,1484.07,199.1Z"/><path class="cls-32" d="M1501.9,201.6l-2.87-3.32c-4.09.3-6.26,1-7.18-3.79l2.62-1c.65,2.19.77,2.2,4.08,2C1501.27,195.29,1500.53,198.25,1501.9,201.6Z"/><path class="cls-10" d="M538.26,198h-5.55A10.68,10.68,0,0,1,522,187.29v-9.12h3.1v9.12a7.57,7.57,0,0,0,7.57,7.57h5.55Z"/><path class="cls-10" d="M540.88,205.28l-.1-3.09h.1a8.28,8.28,0,0,0,8.27-8.27v-7.13h3.09v7.13A11.38,11.38,0,0,1,540.88,205.28Z"/><path class="cls-10" d="M551.4,197.31l-.1-3.09h.1a8.28,8.28,0,0,0,8.27-8.27v-7.13h3.09V186A11.37,11.37,0,0,1,551.4,197.31Z"/><rect class="cls-11" x="535.98" y="169.31" width="3.17" height="53.51"/><rect class="cls-10" x="539.15" y="169.31" width="3.17" height="53.51"/><circle class="cls-12" cx="522.6" cy="172.34" r="18.13" transform="translate(268.48 660.44) rotate(-80.75)"/><circle class="cls-13" cx="537.03" cy="156.9" r="21.95" transform="translate(296.49 662.03) rotate(-80.82)"/><circle class="cls-14" cx="554.49" cy="176.17" r="14.3"/><path class="cls-10" d="M298.17,202h-6.06a11.3,11.3,0,0,1-11.28-11.29v-10h2.67v10a8.63,8.63,0,0,0,8.61,8.62h6.06Z"/><path class="cls-10" d="M300.44,197.18l-.11-2.67h.11a9.39,9.39,0,0,0,9.38-9.38v-2.91h2.67v2.91A12.07,12.07,0,0,1,300.44,197.18Z"/><path class="cls-10" d="M309.58,192.18l-.11-1.34h.11a10,10,0,0,0,10-10v-2.92H321v2.92A11.4,11.4,0,0,1,309.58,192.18Z"/><rect class="cls-11" x="295.68" y="163.29" width="3.46" height="58.41"/><rect class="cls-10" x="299.15" y="163.29" width="3.46" height="58.41"/><circle class="cls-14" cx="315.7" cy="169.54" r="16.55"/><circle class="cls-13" cx="296.83" cy="149.75" r="23.96"/><circle class="cls-12" cx="282.73" cy="169.84" r="16.55"/><path class="cls-45" d="M762.15,239.34a6.38,6.38,0,0,1,.22-1.09c1.07-2.05,5-.48,9.21-2.33,2.37-1,4.61-3.09,4.27-4.1s-3.69-.86-5.63-.75c-9.93.58-27.17.49-34.39.38-3.27,0-7.83-.31-8.26,1.15-.31,1,1.45,2.41,1.76,2.66,1.14.89,2,.92,5.17,1.78,3.47.94,4.09,1.35,4.46,2s.16.81.25,3c.1,2.62.12,4,.89,4.92a5.43,5.43,0,0,0,2.62,1.54,24.73,24.73,0,0,0,14.28.32c2.23-.63,4.56-2,5-4C762.19,243.56,761.64,242.23,762.15,239.34Z"/><path class="cls-46" d="M742.52,232.47a3.37,3.37,0,0,0-2.62.87.83.83,0,0,0-.11.15c-.27.65.47,2.51,1.56,3.52.47.44,1.2.9,6.84,1.05h0c3-.2,6.82,0,10-.49a3.91,3.91,0,0,0,2.23-1.23c.9-.9,1.91-2.59,1.65-3.33a.63.63,0,0,0-.11-.19c-.84-1.11-3.47-.77-4.78-.62,0,0-2.88.33-5.48.41C749.42,232.69,745.78,232.51,742.52,232.47Z"/><path class="cls-47" d="M712.5,115.3c-1.73-1.18-3.84-.57-4.47.72a2.86,2.86,0,0,0,1.28,3.49,3.35,3.35,0,0,0,2.45.12,3.74,3.74,0,0,0,1.86-.93,4.3,4.3,0,0,0,1-3,65.55,65.55,0,0,1,.73-6.61s.08-.74,2-.59a11.79,11.79,0,0,1,3.08.62c.4.13.72.27.94.36.06,6-.26,7.31-.58,7.34s-.34-.63-1-.92a2.18,2.18,0,0,0-2.34.58,2.08,2.08,0,0,0-.58,1.51,3.19,3.19,0,0,0,3.26,2.45c2.44-.51,2.67-7.85,2.7-8.9,0,0,.71-4.65-.22-4.94s-5.57-1.11-7.21-.78c0,0-1,0-1.15.89S713.35,115.39,712.5,115.3Z"/><path class="cls-48" d="M731.08,108.13a2.3,2.3,0,0,0-2.4-.18,2.4,2.4,0,0,0-1.15,2,2.8,2.8,0,0,0,2.13,2.66,3.06,3.06,0,0,0,3.19-1.51,4.23,4.23,0,0,0-.07-3.71c-.27-.73-.48-.85-1.88-2.94-1.53-2.28-1.67-2.69-1.51-3,.27-.54,1.14-.39,2.66-.71a11.92,11.92,0,0,0,3.37-1.29,3.08,3.08,0,0,1-1.24-.66c-.51-.46-.53-.82-.89-1-.52-.22-1,.31-2,.89-2,1.18-3.23,1-3.42,1.78-.08.3.07.49.52,1.3a32.22,32.22,0,0,0,2.19,4.85A3.23,3.23,0,0,1,731.08,108.13Z"/><path class="cls-49" d="M666.79,246.58s-.46,1.49,0,2.15,2.81,1.91,5.89,1.65,4.06-1.25,4.91-2.56,1.77-3,3.14-3.67,1.58-.68,1.67-.94a8.85,8.85,0,0,0,0-1.41Z"/><path class="cls-49" d="M707.83,247.48l-15.58-4.77s0,1.22,0,1.4.29.3,1.66.95,2.3,2.36,3.15,3.67,1.83,2.29,4.91,2.55,5.43-1,5.89-1.64S707.83,247.48,707.83,247.48Z"/><path class="cls-50" d="M673.79,239.5c-.19.07-4.45,4.85-5.89,5.87s-1.64,1.93,0,2.58,6.48.86,8.05-.26,3.08-3.53,4.46-4.48,1.9-1,2-1.41,0-2.37,0-2.37Z"/><path class="cls-50" d="M706.72,246.27c-1.44-1-5.7-5.79-5.89-5.87l-8.58-.06s-.07,2,0,2.37.59.45,2,1.4,2.88,3.37,4.46,4.49,6.41.91,8.05.26S708.16,247.29,706.72,246.27Z"/><path class="cls-51" d="M675.56,176.12c-4.29,4.59-1.78,11.15-2.71,34.08-.19,4.66-.47,11.43-1.17,16.79-.07.5-.18,1.61-.41,3.83-.71,7-.63,7.65-.13,8.27,1,1.23,3.35,1.23,8.08,1.22,2.67,0,3.19-.28,3.53-.52,1-.71,1.46-2,2-7,.27-2.53.33-3.8.43-4.88s2.55-40,2.75-40.51,1.18-.28.93,2.66c-.47,5.63,0,32.77.67,36.64,0,.06.3,1.74.63,4,.13.88.16,1.16.18,1.31a37.17,37.17,0,0,1,.23,3.75c.08,3.35.13,5,.94,5.65s1.48.51,2.81.15c2.15-.57,8.81.59,9.31-1s-.18-3.22-.23-4.7c0-.77,0-.62,0-1.21a41.06,41.06,0,0,0-.52-5.17,3.65,3.65,0,0,1-.07-.91,53.82,53.82,0,0,0,0-7.47c-.17-5.88-1.45-45.83-1.45-45.83S676.94,174.64,675.56,176.12Z"/><path class="cls-52" d="M680.94,128.14c-.21.11-7.61,2.55-9.11,5.49s-4.39,10.79-4.39,10.79l8.45,1.77.81-1.11s-.61,22.69-1.14,26.8-1,5.48-1,5.68,12-1.77,17.18,0,10.45-1.87,10.45-1.87l-2.15-29.83,5-3s-1.19-9.65-4.35-11.19-19.74-3.49-19.74-3.49Z"/><path class="cls-52" d="M695.7,111.33a28.16,28.16,0,0,0-1.91-3.74c-2-2.56-6.59-2.89-9.34-1.61s-3.91,3.32-4.45,6.12-1.38,3.69-1.38,3.69,11-6.62,17.08-4.46Z"/><path class="cls-53" d="M694.35,123.8l.22,3.94s-4.13,2.33-6.76,1.71-1.3-5.25-1.3-5.25Z"/><path class="cls-54" d="M683.66,124.21c.36.05,5,3.36,6.62,3.93s4-2.29,6-3.16,2.3-1.31,2.07,2.19-.71,8.4-2.33,10.86a18.33,18.33,0,0,0-2.28,5.54s-3.48-.65-4.39-3.54-3-4.08-4.28-5.64-4.8-10.61-1.44-10.18Z"/><path class="cls-52" d="M693.49,138.71c.06,0,.06-.1,0-.13a1.83,1.83,0,0,0-.32-.14s0-.05-.06-.05a3,3,0,0,0-1.11-.08l.12-.1a.1.1,0,0,0,0-.16l.19-.16c.05,0,0-.15,0-.14s-.11,0-.07-.05l.12-.18a1.65,1.65,0,0,0,.32-.49c.11-.17.21-.34.32-.5s0-.12-.09-.09a3.08,3.08,0,0,0-1.15,1.45l-.17.14a2.09,2.09,0,0,1,0-.25.05.05,0,0,0,0,0c0-.05,0-.13-.08-.27s-.06-.4-.1-.6l-.24-1.2c0-.07-.13,0-.12,0a16.19,16.19,0,0,0,.26,2.3s0,0,0,0l-.41-.61c0-.07-.14,0-.11.06a5.74,5.74,0,0,0-.94-1.23c0-.05-.12,0-.09.07a13.69,13.69,0,0,0,1,1.57,2.11,2.11,0,0,1,.36.43,9,9,0,0,0-2.08-.13c-.1,0-.1.15,0,.16.51,0,1,.11,1.54.14l.31,0h0l-.27,0c-.06,0-.09.1,0,.13a3.1,3.1,0,0,0-.61.41.08.08,0,0,0,0,.12.09.09,0,0,0,.11.09l.22-.09a7.57,7.57,0,0,0,1.16-.29l0,0a.09.09,0,0,0,.08,0,.09.09,0,0,0,.12.08l0,0h0l0,0,0,0,.05,0a.64.64,0,0,0,.55-.12.11.11,0,0,0,0-.12h.35c.3,0,.56.15.86.1Zm-3.37-1.89a2,2,0,0,0-.16-.2c.27.32.53.63.79,1a.06.06,0,0,0,.09,0,.33.33,0,0,0,.14.35l.08.13s0,0,0,0h0a11.57,11.57,0,0,1-.94-1.27Z"/><path class="cls-52" d="M696.36,133.62a.86.86,0,0,0-.26.08.13.13,0,0,1,0-.06c0-.07,0-.15,0-.22a2.14,2.14,0,0,1,.11-.32,2.94,2.94,0,0,0,.16-.58.75.75,0,0,0-.08-.51s-.06,0-.08,0a.55.55,0,0,0-.11.2A1.06,1.06,0,0,0,696,132c0-.09-.16,0-.14.06a5.32,5.32,0,0,1,.06,1l0,.3,0,.05h0s-.06,0-.09,0a5.61,5.61,0,0,0-1.24-1.24l-.08-.08a0,0,0,0,0-.07,0v0a.11.11,0,0,0,0,.14,1.92,1.92,0,0,0,.27.39,3.86,3.86,0,0,0,.88,1.06c.06,0,.1,0,.14,0a.14.14,0,0,1,0,.06l-.07,0a1.13,1.13,0,0,0-.36-.06,6.29,6.29,0,0,0-1.88.27c-.09,0-.07.17,0,.16h0a.06.06,0,0,0,.06,0c.4,0,.81,0,1.22-.08a.05.05,0,0,0,0,0h.16a.07.07,0,0,0,.07.07l.36-.08a.63.63,0,0,1,.25,0s-.5.24-.49.23l-.39.22-.71.29c-.07,0-.07.15,0,.14h0l-.31.2s0,.14.05.11a16.29,16.29,0,0,0,1.85-.63,1.64,1.64,0,0,0-.08.74l0,.13a.07.07,0,0,0,.06.09c0,.19.06.39.1.55s.13.06.14,0,0-.26,0-.39a4.41,4.41,0,0,0,.25-1.31h0c0-.13.09-.25.13-.38a.06.06,0,0,0,0-.07.93.93,0,0,0,.3-.19c.06-.05,0-.15-.08-.13Zm-.1-1.23a1.87,1.87,0,0,1-.08.57v-.07a2.57,2.57,0,0,0,0-.48c0-.19.07-.33.09,0Z"/><path class="cls-52" d="M689.84,130.11a9.24,9.24,0,0,1-.19,2c0,.1.13.18.18.07v0h0l.06-.14,0,0a4,4,0,0,0,.37-1.5.15.15,0,0,0,0-.08c0-.18,0-.37,0-.55a.14.14,0,0,0-.06-.14,1.29,1.29,0,0,0,0-.26.08.08,0,0,0-.07-.08V129c0-.06-.06-.08-.11-.05v-.06a2.18,2.18,0,0,0-.18-.42.07.07,0,0,0-.08,0,1.47,1.47,0,0,0-.22-.21,2.08,2.08,0,0,0-.74-.51h0c-.1,0-.14.11-.06.16l.84.64a1.22,1.22,0,0,1,.18.36l-.09-.08a.08.08,0,0,0-.13.06h0a2.76,2.76,0,0,0-1.88-1,.09.09,0,0,0-.07.13c.25.47,1,.54,1.42.8a3.14,3.14,0,0,1,.57.44,1.47,1.47,0,0,0,.08.28l0,0a3.23,3.23,0,0,0-3,0c-.08,0-.08.18,0,.17a10.62,10.62,0,0,1,1.87,0s.3,0,.54,0a.05.05,0,0,0,0,.08l.24,0,.13.05a4.3,4.3,0,0,0-1.13,1.16c-.16.26-.29.6-.15.63-.07.1-.16.19-.24.3a.1.1,0,0,0,.09.14h.07a.09.09,0,0,0,.09-.05,3.59,3.59,0,0,0,.14-.43,1.86,1.86,0,0,0,.25-.17,9.07,9.07,0,0,0,1.2-1.33Zm-2.77-.5c.14,0,.65-.11.95-.17a.15.15,0,0,0,0,.07s0,0,0,.05l-1,.05Zm1.4,1.76a1.61,1.61,0,0,1,.15-.36,2.43,2.43,0,0,1,.14-.2h.06l.25-.16q-.32.36-.6.72Z"/><path class="cls-52" d="M691.87,130.78c.34-.1.67-.2,1-.27a3.8,3.8,0,0,0,.53,0,.06.06,0,0,0,.07,0h.09a4.14,4.14,0,0,0-1.34,1.93c0,.1.1.14.15.07s.16-.2.23-.3a.12.12,0,0,0,.1,0l1.22-1.27c.2-.16.4-.31.6-.44a.09.09,0,0,0,0-.16l.18-.18a.13.13,0,0,0,0-.12.27.27,0,0,0,.13-.27.1.1,0,0,0-.07-.09l-.17-.07a.1.1,0,0,0-.09,0c.31-.31.23-1.93.27-2.35,0-.1-.12-.13-.18-.07-.21.17-.2.41-.23.67s0,1.38-.06,1.8l-.06-.07-.19-.24c-.14-.19-.27-.39-.41-.56s-.24-.28-.36-.41a1.33,1.33,0,0,0-.41-.47.06.06,0,0,0-.06,0l-.13-.12a.12.12,0,0,0-.17.17l.21.23c0,.61.5.93,1,1.27a.7.7,0,0,0,.15.59,3.71,3.71,0,0,0-2,.59c-.08,0,0,.2.07.16Z"/><path class="cls-52" d="M693.8,142.92l0,0a12.56,12.56,0,0,0,.51-1.61.07.07,0,0,0-.13,0c-.1.3-.2.59-.31.89h0c0-.52-.23-1.56-.59-1.41-.11.05-.07.15,0,.23.07.26.29.51.37.79a2.29,2.29,0,0,1,0,.94.76.76,0,0,0-.23-.33,1.12,1.12,0,0,0-.33-.2,5.66,5.66,0,0,1-.56-.13l0,0a.06.06,0,0,0-.08.1.35.35,0,0,0,.19.1l.1.07a.05.05,0,0,0,0,.07c.2.18.45.57.74.63l.12.25s0,.08,0,.12a.08.08,0,0,0,.15.06h0s.13,0,.12-.08a1.11,1.11,0,0,0-.07-.26h0c0-.05,0-.1,0-.14Z"/><path class="cls-52" d="M686.33,132.07a.12.12,0,0,0,0-.21,1.75,1.75,0,0,0-.43-.22l-.16-.07a9,9,0,0,1,1,0c.13,0,.17-.22,0-.24a11.28,11.28,0,0,0-1.59-.22,2.1,2.1,0,0,1,.13-.26c.1-.14.26-.27.37-.4a3.35,3.35,0,0,0,.51-.95.06.06,0,0,0,0-.07,2.2,2.2,0,0,0,.09-.21c.05-.16-.15-.24-.27-.15a4.45,4.45,0,0,0-1.55,2.13,1.62,1.62,0,0,0-.42.2c-.07,0,0,.14.07.11l.29-.1a2,2,0,0,0,0,.24.11.11,0,0,0,.21.06.05.05,0,0,1,0,0h0c-.12.92,1,1.77,1.62,2.3.07.06.2,0,.16-.09-.14-.35-.28-.69-.44-1,0-.07-.22-.4-.33-.66a2.92,2.92,0,0,0,.44.19.1.1,0,0,0,.12-.08l.17.15c.25.2.46.4.73.58.11.06.2-.08.13-.17a4.53,4.53,0,0,0-.91-.79Zm-1-1.4c.22-.31.45-.62.7-.93h0c0,.25-.39.67-.75,1l0-.08Zm.48,2.3c.08.16.16.33.23.5s.1.22-.11,0a3.12,3.12,0,0,1-.64-.72,1.82,1.82,0,0,1-.18-1,2.15,2.15,0,0,0,.29.25c.13.33.27.66.41,1Z"/><path class="cls-54" d="M695.7,111.33s-.6-2.66-1.91-3.74c-2-1.62-13,.7-13.56,3.5a17.08,17.08,0,0,1-1.61,4.7s11-6.62,17.08-4.46Z"/><path class="cls-50" d="M681.26,116.45a47.47,47.47,0,0,0-4.56,15.26c-.09.75,1.09.75,1.18,0a45.75,45.75,0,0,1,4.4-14.67c.33-.67-.68-1.27-1-.59Z"/><path class="cls-50" d="M680.18,118.55c.29-.39,0-.77-.42-.83a.57.57,0,0,0-1-.38c-3.73,4.24-7.45,8-7.94,13.88-.07.76,1.11.75,1.17,0a15.88,15.88,0,0,1,3.78-8.62c-1.73,2.65-3,5.52-2.71,8.81.07.75,1.25.76,1.18,0-.51-5,3.13-9.06,5.92-12.86Z"/><path class="cls-50" d="M680.7,124.49a.59.59,0,0,0-1.14-.31,24.31,24.31,0,0,0,.82,15.46c.28.7,1.42.39,1.14-.31a23.23,23.23,0,0,1-.82-14.84Z"/><path class="cls-50" d="M681.33,123.87c-.71,1.75-.45,3.83-.47,5.68,0,2.33-.05,4.65-.08,7a.59.59,0,0,0,1.18,0c0-2.07,0-4.13.07-6.2s-.31-4.31.44-6.14c.29-.71-.85-1-1.14-.32Z"/><path class="cls-50" d="M686,135.36c-1.57-.14-1.49-6.56-1.6-7.77a32.66,32.66,0,0,1-.26-7.9c.11-.74-1-1.07-1.14-.32-.52,3.69.14,7.46.5,11.14.2,2-.23,5.78,2.5,6,.76.07.75-1.11,0-1.18Z"/><path class="cls-50" d="M684.15,122.6a30.45,30.45,0,0,1,3.23,13.24.59.59,0,0,0,1.17,0A31.67,31.67,0,0,0,685.17,122c-.34-.68-1.35-.09-1,.59Z"/><path class="cls-50" d="M705.63,133.24a21.83,21.83,0,0,0-2.61-4.82c-.19-1-.43-1.95-.71-2.91-.44-1.47-1.11-2.88-1.62-4.33a.63.63,0,0,0,.68-.88,36.26,36.26,0,0,0-4.76-7.47c-.49-.58-1.32.25-.84.84a33.78,33.78,0,0,1,3.39,4.94.58.58,0,0,0-.23.59c.34,2.07,1.4,4,2,6l.06.22a13.71,13.71,0,0,1-1.91-4.81.48.48,0,0,0-.46-.43c-.17-.77-.34-1.54-.5-2.32a.6.6,0,0,0,0-.52c-.18-.34-.36-.67-.53-1a.59.59,0,0,0-1,.59l.09.18a.58.58,0,0,0-.7.4c-.82,2.68-.82,5.61-1.43,8.35-.54,2.45-1.22,4.73-.88,7.26.1.74,1.24.43,1.14-.32-.37-2.73.66-5.39,1.17-8,0,1.81.17,3.62.27,5.43.13,2.43.51,5.18-.21,7.53a.59.59,0,0,0,1.14.32c1.46-4.81-.49-10.2.1-15.13.07-.57-.61-.7-1-.4a31.21,31.21,0,0,1,.71-4.36v0c.45,2.25,1,4.48,1.53,6.71-.36-.15-.85,0-.81.51s.13,1.26.24,1.88a.6.6,0,0,0-.64.73A78.76,78.76,0,0,1,699,137.7c.08.75,1.26.76,1.18,0q-.34-3.19-.93-6.34a17.79,17.79,0,0,0,3.24,4.86c.52.56,1.35-.28.84-.83a17.27,17.27,0,0,1-1.88-2.42.53.53,0,0,0,.48-.71c-.66-2.07-1.27-4.14-1.84-6.24.57.92,1.19,1.82,1.8,2.73.2,1,.36,2,.47,3.06.09.75,1.27.76,1.18,0,0-.16,0-.32-.06-.49a14.93,14.93,0,0,1,1,2.23c.25.71,1.39.4,1.14-.31Zm-5.51-2.81a16,16,0,0,1-1-3.43c.31,1.15.64,2.29,1,3.43Z"/><path class="cls-53" d="M687.36,111.87s-3.16-.37-3.65,3.92,1.58,8.89,3.45,9.92c3.12,1.72,6.42,2.31,8.54-4,.52-1.56.19-7.18-.3-8.21s-5-2.51-8-1.63Z"/><path class="cls-55" d="M685.72,134.94a51.2,51.2,0,0,0-.45-8.83c-.23-1.27-.51-2.54-.74-3.82a.55.55,0,0,0,.17-.4,37.54,37.54,0,0,1,.88-7.69c.16-.74-1-1.06-1.14-.32,0,.16-.07.32-.1.48a.56.56,0,0,0-.39,0,2.33,2.33,0,0,0-1.41,1.36v0c-.11-.75-1.25-.43-1.14.32.06.41.09.81.11,1.22a.57.57,0,0,0-.64.57c0,2.19-.87,4.12-1.53,6.18a41.54,41.54,0,0,0-1.41,5.8c-.1.57-.18,1.14-.25,1.71a16,16,0,0,1,.27-4.75c.77-3.62,2.32-7,3.41-10.56.23-.72-.91-1-1.13-.31-.14.45-.29.91-.45,1.36h0a.59.59,0,0,0-.94-.17,20.22,20.22,0,0,0-5.65,18.09c.14.75,1.27.43,1.13-.31a19,19,0,0,1,4.7-16.26,22.9,22.9,0,0,1-2.18,4.75,11.79,11.79,0,0,0-1.76,3.85,18.45,18.45,0,0,0,0,4.33,12.58,12.58,0,0,1-1.08,6.09c-.32.69.7,1.29,1,.6a13.31,13.31,0,0,0,1.2-4c.22-1.84-.16-3.65-.09-5.49a7.64,7.64,0,0,1,.94-3.33c-.2.81-.38,1.63-.5,2.46a21.42,21.42,0,0,0,.79,8.56,12.64,12.64,0,0,1-.81,5.17c-.31.69.7,1.29,1,.6a11.83,11.83,0,0,0,.88-3.1.59.59,0,0,0,.62-.73c-.13-.52-.27-1-.4-1.56a66,66,0,0,1,.4-6.68,41.07,41.07,0,0,1,1.11-4.79c-.15.63-.28,1.25-.38,1.88A36.23,36.23,0,0,0,680,137.4a.67.67,0,0,0,.17.36,9.56,9.56,0,0,0,.54,4.66c.28.7,1.42.4,1.14-.31-1.13-2.82-.34-5.59.45-8.36a31.29,31.29,0,0,1,.32,4.85.59.59,0,0,0,1.18,0,47,47,0,0,0-.74-7.78c.16-.72.3-1.45.42-2.18a61.19,61.19,0,0,0,1.09,6.36v.47a.53.53,0,0,0,.26.46,17.63,17.63,0,0,0,1.45,3.56.59.59,0,0,0,1-.59,17.82,17.82,0,0,1-1.56-4Zm-4.86-.55a29.06,29.06,0,0,1,.48-8.95,1.94,1.94,0,0,0,0-.2,26.91,26.91,0,0,0,.19,3.47c.08.62.16,1.24.25,1.86-.29,1.27-.62,2.54-1,3.82Zm2.29-12.74a.6.6,0,0,0-.16-.24l0-.85c.07.5.16,1,.26,1.49,0-.14-.09-.27-.13-.4Z"/><path class="cls-55" d="M705.77,132.34a16.17,16.17,0,0,0-2.12-5.27c-.32-.56-.65-1.11-1-1.67a16.22,16.22,0,0,0-2-5.76c-1.15-2.38-3.15-4.26-4.11-6.73-.24-.63-1.18-.45-1.17.11a5.91,5.91,0,0,0-.8-.67c-.62-.44-1.21.58-.59,1a5.08,5.08,0,0,1,1.74,2.23.59.59,0,0,0-.16.56c.65,3-.5,6.48-.81,9.5-.23,2.3-.8,5,.51,7,.4.64,1.42,0,1-.59-1.33-2.12-.53-5.63-.16-8.12a26.64,26.64,0,0,0,2.09,7.9,18,18,0,0,0-.47,4.19c0,.76,1.2.76,1.17,0a15,15,0,0,1,.17-2.59,13.76,13.76,0,0,0,2.38,2.89.94.94,0,0,0,.12.09,3.71,3.71,0,0,1-.43,1.85.59.59,0,0,0,1,.6c.88-1.53.5-3.18.2-4.83-.11-.63-.24-1.25-.38-1.86l.05.1c.37.66,1.39.07,1-.6a22.6,22.6,0,0,1-2.66-7.53c.37.55.76,1.08,1.07,1.58,0,.12,0,.24,0,.36a.53.53,0,0,0,.57.57,17.82,17.82,0,0,1,2.57,6c.14.74,1.27.43,1.14-.32Zm-8.52-16,.31.45a.75.75,0,0,0-.15.24c0-.23-.1-.46-.16-.69Zm.29,1.44c.15.37.28.74.41,1.11a.59.59,0,0,0-.15.52,57.22,57.22,0,0,1,.91,7.25c-.4-2.9-.72-5.81-1.14-8.71l0-.17Zm1.08,11.89c-.19-.53-.35-1.07-.49-1.62a.73.73,0,0,0,.61-.35v.4a13.65,13.65,0,0,1-.12,1.57Zm1.44-8.87a.71.71,0,0,0-.29,0c-.1-.38-.2-.75-.32-1.12.21.36.41.74.61,1.12Zm.75,11.35c.16.71.41,1.54.59,2.39a13.21,13.21,0,0,1-2-2.95c.17-1,.35-1.94.43-2.92.36,1.15.68,2.31.95,3.48Z"/><path class="cls-50" d="M684.34,113.91c0,.15-.08.3-.13.46a.48.48,0,0,0-.66.1,6.81,6.81,0,0,0-.87,1.27.61.61,0,0,0-1.11-.39A30.63,30.63,0,0,0,676.38,131c0,.76,1.13.75,1.17,0a29.52,29.52,0,0,1,4.94-14.91,21.14,21.14,0,0,0-1.44,5.19,37.72,37.72,0,0,0-.65,8.94c0,.75,1.21.75,1.18,0a36.15,36.15,0,0,1,.47-7.91,20.09,20.09,0,0,1,1.62-6c-1.42,5.58-2,11.35,0,16.89.26.71,1.4.41,1.14-.31-2.25-6.16-1.13-12.57.68-18.69.22-.72-.92-1-1.14-.31Z"/><path class="cls-50" d="M701.87,127a50.22,50.22,0,0,0-2.42-8.69,15.4,15.4,0,0,0-4.62-6.13.61.61,0,0,0-1,.21.64.64,0,0,0-.13,1.1c4.49,3.33,3.09,9.78,3.53,14.59.06.75,1.24.75,1.17,0-.31-3.5.15-7.49-.86-10.87a14.4,14.4,0,0,1,1.16,2.6,60.48,60.48,0,0,1,2,7.5c.14.74,1.28.43,1.13-.31Z"/><path class="cls-56" d="M678.41,116.39c0,.59.34,2.61,1.91,1.38s4.18-4.13,8.11-4.81,7.91.49,8.2,0,1-1.78-.93-2.56c-5.54-2.22-17.12,1.38-17.29,6Z"/><path class="cls-57" d="M714.41,134.86s-.34,0,0-.47a41.1,41.1,0,0,1,4.08-3,.58.58,0,0,0,.44.37,1.93,1.93,0,0,1,1.72.95,2.19,2.19,0,0,1,.19,1.88,10.53,10.53,0,0,0,.3,1.06s-4.65,2.88-4.91,2.76a28.4,28.4,0,0,1-1.82-3.53Z"/><path class="cls-58" d="M699.14,148.56s2.11,5.74,3.58,7.49,2.9,2.19,3.63,2.14-.24-8.6-.24-8.6l-1.28-5s-6.63,2.92-5.69,3.95Z"/><path class="cls-59" d="M693.58,114.68a2.47,2.47,0,0,0-2.44,2.11l-.29,0a3,3,0,0,0-1.08.09,2.6,2.6,0,0,0-2.61-2.08,2.48,2.48,0,1,0,2.65,2.47,2.6,2.6,0,0,1,.63-.11s.43,0,.67.05a2.47,2.47,0,1,0,2.47-2.5Z"/><path class="cls-60" d="M700.06,149s-1.38-4.32-4.92-5.57-5.73-1-7.78,1.24-3,3.15-6.42,3.21-8.59.92-10.62,3.67-2.29,8.32-.78,11.33,5.63,7.73,8,8.9,9,.66,11-1.89,2.18-7.08,3.93-8.45,5.41-2.11,7.05-3.9,2-5.2.61-8.54Z"/><polygon class="cls-61" points="691.06 149.25 714.41 134.86 716.23 138.09 693.77 152.93 691.06 149.25"/><path class="cls-51" d="M695.7,152.44a4.7,4.7,0,1,0-4.69,4.37,4.54,4.54,0,0,0,4.69-4.37Z"/><path class="cls-61" d="M682.65,163.39l-5-8.67a1.06,1.06,0,0,0-1.44-.38l-.05,0a1,1,0,0,0-.39,1.43l5,8.67a1,1,0,0,0,1.44.39l0,0a1.06,1.06,0,0,0,.38-1.44Z"/><path class="cls-50" d="M694.87,152.44a3.87,3.87,0,1,0-3.86,3.61,3.74,3.74,0,0,0,3.86-3.61Z"/><path class="cls-53" d="M668.35,144.61c-.09.16-3.81,8.46-3.71,9.49s2.08,3.89,4.68,5.61,12.64,5.55,13.2,6a33.86,33.86,0,0,1,3,3.05c.48.57,1.52,2,1.43,2.36s1.54,0,2.13-2.15a4.34,4.34,0,0,0-1.52-4.47c-.75-.54.49.21,1.32,0s1.12-.35-.84-.89-3.38-2-5-2.26-10-7.37-10.56-7.91,2-4.95,3.47-7.28Z"/><path class="cls-54" d="M682.46,160.23a.6.6,0,0,0-.91.12c-.39.56-.26,1.35-.53,2a4.26,4.26,0,0,1-1.17,1.69c-.72.63.22,1.84,1,1.33a4.75,4.75,0,0,0,1.72-2.36c.3-.79.64-2.16-.13-2.77Z"/><path class="cls-56" d="M681.71,159.79a.66.66,0,0,0-1,.13c-.34.66-.41,1.4-.76,2.07a4.84,4.84,0,0,1-1.26,1.64c-.92.74.38,2,1.29,1.3a5.73,5.73,0,0,0,1.68-2.41c.4-.91.74-1.88.08-2.73Z"/><path class="cls-52" d="M680.53,159.4a.3.3,0,0,0-.45.06,16.3,16.3,0,0,1-1.15,2.09,9.16,9.16,0,0,0-1.5,2.08.68.68,0,0,0,.83.83,4.73,4.73,0,0,0,2.31-2.45c.43-.83.8-1.9,0-2.61Z"/><path class="cls-58" d="M703.45,156.81s-.58-2.7,2.66-7.22a36.29,36.29,0,0,0,4.09-7.51c.26-.18-.79-4.14-1.15-3.92l-1.13.7a1.54,1.54,0,0,1,.5-1.43,8.27,8.27,0,0,1,3-1.27c.69-.12.89-.38,1.57.46a7,7,0,0,1,.94,4.87c-.25,2.21-4.26,13-5.22,14.56s-1.77,4.55-5.25.76Z"/><path class="cls-62" d="M674.73,185.34c-.29,3.85-1.33,8.65-.66,9.36s7.09.18,8.19-.61.67-8.24.67-8.24Z"/><path class="cls-62" d="M702.49,200.92l-8.2.52s-1.1,8.6,0,9.38,7.54,0,8.21-.72S702.78,204.77,702.49,200.92Z"/><path class="cls-63" d="M674.73,185.34c-.15,1.95,2.79,4,5.56,3.25s2.64-2.74,2.64-2.74Z"/><path class="cls-63" d="M694.29,201.44s-.13,1.95,2.64,2.74,5.71-1.3,5.56-3.26Z"/><path class="cls-64" d="M678.63,187.13a.59.59,0,1,0,.58.58A.58.58,0,0,0,678.63,187.13Z"/><path class="cls-64" d="M698.59,202.72a.58.58,0,1,0,.58.58A.58.58,0,0,0,698.59,202.72Z"/><polygon class="cls-65" points="781.39 251.04 781.58 267.68 786.02 267.49 787.97 251.43 781.39 251.04"/><polygon class="cls-66" points="780.74 265.15 787.15 265.18 789.19 270.73 776.11 270.73 780.74 265.15"/><rect class="cls-67" x="776.11" y="270.73" width="13.08" height="2.3"/><polygon class="cls-65" points="759.16 251.69 760.53 263.55 756.05 267.26 765.83 266.86 765.46 264.93 766.22 251.69 759.16 251.69"/><path class="cls-66" d="M766.71,270.92l-1.25-6.05s-.2,1.63-2.85,1.65-3.32-1.85-3.56-1.76-11.2,3.5-11.2,3.5l-.63,2.65,16.88,1.18Z"/><polygon class="cls-67" points="766.81 273.03 743.8 273.03 743.71 270.91 766.71 270.92 766.81 273.03"/><path class="cls-67" d="M743.71,270.91c-.21-3.19,4.14-2.65,4.14-2.65l1.16,2.65Z"/><polygon class="cls-67" points="751.98 266.74 752.45 268.05 753.08 267.78 752.49 266.58 751.98 266.74"/><polygon class="cls-67" points="753.86 266.1 754.33 267.42 754.96 267.15 754.37 265.94 753.86 266.1"/><polygon class="cls-67" points="755.74 265.47 756.21 266.79 756.84 266.52 756.24 265.31 755.74 265.47"/><polygon class="cls-67" points="757.62 264.84 758.09 266.15 758.72 265.89 758.12 264.68 757.62 264.84"/><path class="cls-68" d="M777,236.28c.21,3.32,1.66,27.78,1.66,27.78l9,1.83s1.33-24.92.25-35.84C787.14,222.16,776.33,225.76,777,236.28Z"/><path class="cls-68" d="M787.75,230.07c-.44-6.41-2.27-23.24-3.38-31.25-1.29-9.32-18.5-7.75-15.28,4.32,1.86,7,7.77,25.1,7.77,25.1s0,2.67.34,2.83C778.05,236.3,788.34,238.61,787.75,230.07Z"/><path class="cls-68" d="M768.13,236.28c-.21,3.32-1.09,30.1-1.09,30.1l-8.89-2.51s-2-22.9-.95-33.82C758,222.16,768.79,225.76,768.13,236.28Z"/><path class="cls-68" d="M757.79,231.14c-.86-6.36-1.54-24.11-2.07-32.18-.63-9.39,15.6-10.47,14.89,2-.41,7.22-2.53,26.17-2.53,26.17l.24,2.83C768.55,235.26,758.94,239.62,757.79,231.14Z"/><path class="cls-69" d="M755.29,198.09c2.09-17.22-.52-32.15-3.49-39.67s21.24-11.82,25.26-6.66,9.53,37.47,7,45S755.29,198.09,755.29,198.09Z"/><path class="cls-65" d="M761.25,153.27c.46.15,2.75.85,4.2-.38a3.8,3.8,0,0,0,1.14-2.54,28,28,0,0,0-.5-9.45h-7.2a17.47,17.47,0,0,0,.57,8.62A17.07,17.07,0,0,0,761.25,153.27Z"/><path class="cls-65" d="M753,133.72c-1.18,3.82-1.1,4.55-.47,5.66a1.78,1.78,0,0,1,.24.76,4.86,4.86,0,0,1-.38,2c-.76,1.54,0,6.82,2.79,8.07,2.31,1.05,5.23-1.07,6.54-2,3.32-2.42,8-7.85,5.4-11.45s-2.14-4.37-5.6-4.72S753,133.72,753,133.72Z"/><path class="cls-70" d="M766.88,146.37c-4.15,1.53-4.5,2.5-6.51-1.24s-2.35-7-3.45-6.67-1,3.26-1,3.26l-.9-.2s-.14-2.22-.35-4.44-3.18-3.06-4.22-2.23c.76-3,2.23-3.62,5.48-4.59s5.44-2.82,9.69.26a8.39,8.39,0,0,1,2.68,10.37A24.84,24.84,0,0,0,766.88,146.37Z"/><path class="cls-69" d="M753.11,187.32c-3-.36-3.43-3.84-3-9.89s-2.17-12.3.11-18.18c1.95-5.06,10.1-5.39,10,1.45s-1.77,20.3-3.47,24S753.11,187.32,753.11,187.32Z"/><polygon class="cls-71" points="1192.22 243.28 1207.19 243.28 1202.91 197.5 1202.91 94.09 1196.5 94.09 1196.5 197.5 1192.22 243.28"/><path class="cls-71" d="M1169.73,66.25a30,30,0,1,0,30-30A30,30,0,0,0,1169.73,66.25Z"/><path class="cls-72" d="M1199.71,92.48a26.23,26.23,0,1,0-26.23-26.23A26.26,26.26,0,0,0,1199.71,92.48Z"/><path class="cls-67" d="M1202.46,46.2h-.77l-.63-1.11-.14-.38-.14.38-.63,1.11h-.84l1.09-1.86-1-1.74h.76l.58,1,.12.37.13-.37.55-1h.85l-1,1.77Z"/><path class="cls-67" d="M1198.88,46.2h-.71V42.6h.71Z"/><path class="cls-67" d="M1197.41,46.2h-.7V42.6h.7Z"/><path class="cls-67" d="M1189.07,49.32h-.71V45.73h.71Z"/><path class="cls-67" d="M1181.84,57.28h-.7v-3.6h.7Z"/><path class="cls-67" d="M1180.38,57.28h-.71v-3.6h.71Z"/><path class="cls-67" d="M1179.66,68.15h-.7v-3.6h.7Z"/><path class="cls-67" d="M1178.2,68.15h-.71v-3.6h.71Z"/><path class="cls-67" d="M1176.73,68.15h-.7v-3.6h.7Z"/><path class="cls-67" d="M1182.87,79h-.7v-3.6h.7Z"/><path class="cls-67" d="M1181,75.41h.82L1180.48,79h-.5l-1.33-3.62h.73l.69,2.11.11.62h0l.09-.62Z"/><path class="cls-67" d="M1189.49,83.37h.82L1189,87h-.5l-1.34-3.62h.74l.69,2.11.1.61h0l.09-.61Z"/><path class="cls-67" d="M1200.68,86.28h.81l-1.34,3.63h-.51l-1.33-3.63h.74l.69,2.11.1.62h0l.1-.61Z"/><path class="cls-67" d="M1198,89.88h-.7v-3.6h.7Z"/><path class="cls-67" d="M1212.71,83.4h.81L1212.18,87h-.5l-1.34-3.62h.74l.69,2.11.1.61h0l.1-.61Z"/><path class="cls-67" d="M1210,87h-.71V83.4h.71Z"/><path class="cls-67" d="M1208.54,87h-.71V83.4h.71Z"/><path class="cls-67" d="M1221.17,75.4h.82L1220.64,79h-.5l-1.34-3.63h.74l.69,2.11.11.62h0l.09-.62Z"/><path class="cls-67" d="M1218.47,79h-.71V75.4h.71Z"/><path class="cls-67" d="M1217,79h-.7V75.4h.7Z"/><path class="cls-67" d="M1215.54,79h-.7V75.4h.7Z"/><path class="cls-67" d="M1223.47,68.15h-.71V64.56h.71Z"/><path class="cls-67" d="M1222.33,68.15h-.76l-.64-1.11-.14-.38-.14.38-.63,1.11h-.84l1.09-1.86-1-1.73h.76l.58,1,.12.37.13-.37.55-1h.85l-1,1.76Z"/><path class="cls-67" d="M1220,57.28h-.77l-.64-1.11-.13-.38-.14.38-.63,1.11h-.84l1.09-1.86-1-1.74h.77l.58,1,.12.37.12-.37.55-1h.85l-1,1.77Z"/><path class="cls-67" d="M1212.6,49.32h-.77l-.63-1.11-.14-.38-.14.38-.63,1.11h-.84l1.09-1.86-1-1.73h.77l.58,1,.12.37.13-.37.55-1h.84l-1,1.76Z"/><path class="cls-67" d="M1209,49.32h-.71V45.73h.71Z"/><path class="cls-67" d="M1199.27,66.38c6.45,3.76,6.68,4.08,6.57,4.27s-.51.16-7-3.6-11.6-6.93-11.5-7.12S1192.81,62.64,1199.27,66.38Z"/><path class="cls-67" d="M1193.56,62.66a.76.76,0,0,1,.27,1,.75.75,0,1,1-.27-1Z"/><path class="cls-67" d="M1195.69,63.49a1.1,1.1,0,1,1-1.5.4A1.11,1.11,0,0,1,1195.69,63.49Z"/><path class="cls-67" d="M1201.75,64c-3,5.21-3.34,5.35-3.58,5.21s-.29-.51,2.71-5.71,5.64-9.31,5.88-9.17S1204.76,58.76,1201.75,64Z"/><path class="cls-67" d="M1203.78,61.71a1.13,1.13,0,1,1-.41-1.55A1.14,1.14,0,0,1,1203.78,61.71Z"/><path class="cls-67" d="M1204.73,59.66a.94.94,0,0,1-1.27.34.93.93,0,0,1-.33-1.27.92.92,0,0,1,1.26-.33A.93.93,0,0,1,1204.73,59.66Z"/><path class="cls-67" d="M1202.48,63.56a.94.94,0,0,0-.34-1.27.93.93,0,0,0-.93,1.61A.94.94,0,0,0,1202.48,63.56Z"/><path class="cls-71" d="M1199.45,67.88a1,1,0,1,1,1-1A1,1,0,0,1,1199.45,67.88Z"/><path class="cls-71" d="M1199.71,102.1a35.89,35.89,0,0,0,35.85-35.85h-2.14a33.71,33.71,0,1,1-67.42,0h-2.14A35.89,35.89,0,0,0,1199.71,102.1Z"/><path class="cls-71" d="M1162.07,65.32a2.86,2.86,0,1,0,2.86-2.87A2.86,2.86,0,0,0,1162.07,65.32Z"/><path class="cls-71" d="M1237.35,65.32a2.86,2.86,0,1,1-2.86-2.87A2.86,2.86,0,0,1,1237.35,65.32Z"/><rect class="cls-72" x="1195.25" y="196.13" width="8.91" height="5.09"/><rect class="cls-72" x="1190.97" y="242.79" width="17.47" height="5.09"/></g></g></g></svg>