<svg xmlns="http://www.w3.org/2000/svg" xmlns:xlink="http://www.w3.org/1999/xlink" viewBox="0 0 1920 1080.09"><defs><style>.cls-1,.cls-11{fill:none;}.cls-2{clip-path:url(#clip-path);}.cls-3{fill:#e6f0d8;}.cls-4{clip-path:url(#clip-path-3);}.cls-5{fill:#1d1453;}.cls-6{fill:#d85b3c;}.cls-7{fill:#0f0d41;}.cls-39,.cls-8{fill:#e79c92;}.cls-9{fill:#7e2b28;}.cls-10{fill:#fff;}.cls-11{stroke:#7e2b28;stroke-miterlimit:10;stroke-width:0.25px;}.cls-12{fill:#d1c6a8;}.cls-13{opacity:0.8;}.cls-14{clip-path:url(#clip-path-4);}.cls-15{fill:#c0a081;}.cls-16{fill:#cbac8a;}.cls-17{fill:#7e9e37;}.cls-18{fill:#9ebc3f;}.cls-19{fill:#84a23d;}.cls-20{clip-path:url(#clip-path-5);}.cls-21{clip-path:url(#clip-path-6);}.cls-22{clip-path:url(#clip-path-7);}.cls-23{fill:#d15736;}.cls-24{fill:#b2452e;}.cls-25{fill:#e09927;}.cls-26{fill:#ecb42a;}.cls-27{fill:#c0d8db;}.cls-28{fill:#f1d554;}.cls-29{fill:#87abaf;}.cls-30{fill:#b0cdd3;}.cls-31{fill:#833023;}.cls-32{fill:#7dcdfc;}.cls-33{fill:#f2cf58;}.cls-34{fill:#b3eaf3;}.cls-34,.cls-35,.cls-36,.cls-38,.cls-39,.cls-40,.cls-41,.cls-42,.cls-43,.cls-44,.cls-45,.cls-46,.cls-47,.cls-48,.cls-49,.cls-50,.cls-51{fill-rule:evenodd;}.cls-35{fill:#81bbc4;}.cls-36,.cls-37{fill:#2a4480;}.cls-38{fill:#95d1dc;}.cls-40{fill:#e9a931;}.cls-41{fill:#f2ece6;}.cls-42{fill:#57290f;}.cls-44{fill:#1d305d;}.cls-45{fill:#2e3033;}.cls-46{fill:#965b3e;}.cls-47{fill:#567ba3;}.cls-48{fill:#7cb2bb;}.cls-49{fill:#151e2b;}.cls-50{fill:#7390cc;}.cls-51{fill:#402a49;}.cls-52{clip-path:url(#clip-path-8);}.cls-53{fill:#87683a;}.cls-54{fill:#442f11;}.cls-55{fill:#736357;}.cls-56{fill:#d9924e;}.cls-57{fill:#ce8a43;}.cls-58{fill:#55381a;}.cls-59{fill:#9f6c42;}.cls-60{fill:#3a5533;}.cls-61{fill:#ae7759;}.cls-62{fill:#e0a527;}.cls-63{fill:#442e15;}.cls-64{fill:#a20012;}.cls-65{fill:#9f6a35;}.cls-66{fill:#92644d;}.cls-67{fill:#392614;}.cls-68{fill:#dc9b55;}.cls-69{fill:#c88443;}.cls-70{fill:#8f603d;}.cls-71{fill:#7a5436;}.cls-72{fill:#eae2d8;}.cls-73{fill:#e1a87e;}.cls-74{fill:#4d5060;}.cls-75{fill:#556c8b;}.cls-76{fill:#bd6c50;}.cls-77{fill:#67615c;}.cls-78{fill:#585858;}.cls-79{fill:#929298;}.cls-80{fill:#53599b;}.cls-81{fill:#a6b6ea;}.cls-82{fill:#69798c;}.cls-83{fill:#111e33;}.cls-84{fill:#ebd3bb;}.cls-85{fill:#558955;}.cls-86{fill:#95b7db;}.cls-87{fill:#fcfc65;}.cls-88{fill:#253d62;}.cls-89{fill:#b4dbde;}.cls-90{fill:#ccc7d3;}.cls-91{fill:#0d1928;}.cls-92{fill:#918656;}.cls-93{opacity:0.3;}.cls-94{clip-path:url(#clip-path-9);}.cls-95{fill:#ba995f;}.cls-96{clip-path:url(#clip-path-10);}</style><clipPath id="clip-path" transform="translate(0 0)"><rect class="cls-1" width="1920" height="1080.09"/></clipPath><clipPath id="clip-path-3" transform="translate(0 0)"><rect class="cls-1" y="-0.01" width="1920" height="1080.09"/></clipPath><clipPath id="clip-path-4" transform="translate(0 0)"><rect class="cls-1" x="1729.44" y="73.06" width="102.72" height="149.1"/></clipPath><clipPath id="clip-path-5" transform="translate(0 0)"><rect class="cls-1" x="1047.75" y="79.35" width="332.7" height="142.87"/></clipPath><clipPath id="clip-path-6" transform="translate(0 0)"><rect class="cls-1" x="792.18" y="102.04" width="219.25" height="120.79"/></clipPath><clipPath id="clip-path-7" transform="translate(0 0)"><rect class="cls-1" x="1338.29" y="57" width="247.81" height="162.48"/></clipPath><clipPath id="clip-path-8" transform="translate(0 0)"><rect class="cls-1" x="248.73" y="76.21" width="454.28" height="149.1"/></clipPath><clipPath id="clip-path-9" transform="translate(0 0)"><rect class="cls-1" x="29.47" y="347.27" width="1861.06" height="732.82"/></clipPath><clipPath id="clip-path-10" transform="translate(0 0)"><rect class="cls-1" x="96.14" y="87.64" width="92.11" height="133.7"/></clipPath></defs><g id="レイヤー_2" data-name="レイヤー 2"><g id="完成"><g id="暮らす_修正後"><g class="cls-2"><g class="cls-2"><rect class="cls-3" width="1920" height="1080"/><g class="cls-4"><path class="cls-5" d="M198.81,285.44s-2.4,9.15,1,22.42c2.08,8.1,1.29,21.41,1.47,23.25s-39.11,24.77-39.86,25.24c-1.66,1,4,9.83,9.6,11.12,0,0,38.38-21.32,41.15-22.89s6-21.25,6-21.25,3.29,10.69,3.89,16.27c.77,7.09,5,32.67,4.73,39.24-.06,1.56,10.57,2.45,13.89-3.16-1-5.39-3.3-39.87-3.85-43.19s-8.21-37.73-8.58-41.06-27.13-7.93-29.44-6" transform="translate(0 0)"/><path class="cls-6" d="M161,356.79s-3.24.65-4.09,1.54c0,0,5.2,19.18,7.45,22.37s9.14,6.25,9.4,5.7-.93-2.59-2.64-5.55,4.35-13.58,4.35-14.18-2.72-1.55-4.66-.22c-5.37-1-9.45-7.92-9.81-9.66" transform="translate(0 0)"/><path class="cls-7" d="M164.37,380.7c-2.25-3.19-7.45-22.38-7.45-22.38a4.22,4.22,0,0,0-1.4,1.39s5.2,19.18,7.45,22.37,8.89,6.06,9.4,5.7a10.57,10.57,0,0,0,1.28-1.32c-1,.11-7.16-2.77-9.28-5.76" transform="translate(0 0)"/><path class="cls-6" d="M227.83,379.5a42.7,42.7,0,0,0-.15,5.52s23.67,1.07,31.35-1c0,0,.11-2.59-5.51-4.47s-11.41-3.89-12.39-7.26a9,9,0,0,0-2.06,4.51,13.21,13.21,0,0,1-11.24,2.69" transform="translate(0 0)"/><path class="cls-7" d="M259,384c-7.68,2.06-31.35,1-31.35,1,0,.79,0,2.12,0,2.44,0,0,23.67,1.07,31.35-1a21,21,0,0,0,0-2.44" transform="translate(0 0)"/><path class="cls-8" d="M203.7,227.11a32.83,32.83,0,0,0,2.13-6.53c.81-3.9-2.72-9.05-2.72-9.05l16.66-2.63q.79,5.78,1.6,11.56a1.91,1.91,0,0,1,.16,1.7c-.6,1-2.33.19-3.56.74-.92.4-.22,10-.44,13s-14.84-6.9-13.83-8.84" transform="translate(0 0)"/><path class="cls-5" d="M205.65,217.09s1-5.13,1.48-5.58c0,0,11.46,2.73,11.35,2.79s3.71-12.76,3.71-12.76.88-2.82-3.51-5.31c-4.92-2.8-16.16-2.76-18.32,5.75-1.7,6.65,4.7,11.85,5.29,15.11" transform="translate(0 0)"/><path class="cls-8" d="M222,201.24c.88,1.1,1.3,6.91,1.66,7.83.44,1.14,2.48,2.78,2.7,3.29s-.87,1.55-1.49,2.19c0,3.29-.42,5.78-1,6.5-.18.21-.36.39-.36.39a5.72,5.72,0,0,1-1.72,1.06c-1.22.46-3.95-.05-6.17-1.73a10,10,0,0,1-3.28-4.46s-.25.94-1.67.74-4.21-3.48-3.53-5.54,3.63-1.42,4.32.34a6.25,6.25,0,0,0,2.59.05c-.29-1.17-.68-2.65-.83-3.53s2-1.42,2.26-1.91-.71-3-.79-3.77c-.1-.94,6.45-2.55,7.33-1.45" transform="translate(0 0)"/><path class="cls-9" d="M204.09,224.47a15.29,15.29,0,0,1,1-3.16c.34-.3,12.9,6.48,13.24,7.4a22.87,22.87,0,0,1,.92,4.71c0,.78-15-7.95-15.13-8.95" transform="translate(0 0)"/><path class="cls-10" d="M204.4,224.67s-2.23.48-6.69,8.93c-3.21,6.06-2.22,41.53-4.49,54.32,0,0,24.16,6.55,35.12,4.24,0,0-.86-16.47-1.93-25.15s-4.84-30.46-7.53-35a43.37,43.37,0,0,0-14.48-7.36" transform="translate(0 0)"/><path class="cls-11" d="M204.4,224.67s-2.23.48-6.69,8.93c-3.21,6.06-2.22,41.53-4.49,54.32,0,0,24.16,6.55,35.12,4.24,0,0-.86-16.47-1.93-25.15s-4.84-30.46-7.53-35A43.37,43.37,0,0,0,204.4,224.67Z" transform="translate(0 0)"/><path class="cls-8" d="M204.91,250.23c-.22,0-.6,15.49-.38,18s25.71,14.09,27.06,14.54,1.71,2,2.26,2.81,4.16,2.35,5,2.36c1.07,0,5.07-4.75,4.93-6-.21-1.82-4.76-3.13-5.69-3.27s-1.95.25-3.41-.4S217.18,266,216.3,263.7c-.39-1,.9-12.85.9-12.85s-9.23-1-12.29-.62" transform="translate(0 0)"/><path class="cls-9" d="M203.15,256.12s-1.26-22.64,6.72-25c8.88-2.64,8.26,16.89,8.36,25,0,0-6.45.28-15.08,0" transform="translate(0 0)"/><path class="cls-5" d="M301.69,342.79c-8.57-4.15-24.2-19.28-36-31.33-10-10.23-21.88-23.11-24-25.94a11.53,11.53,0,0,1,.82-1c1.27,2,44.94,49.9,60.86,57.61Z" transform="translate(0 0)"/><path class="cls-12" d="M321,367.57c-.05-1-11.12-8.72-9-11.42,0,0-4.41,4.27-4.05,5.58,1,3.53,9.38,6.56,10.22,7.85,1.38,2.11,3.3,4.6,3.5,5.25.32,1.06.16,2.63,1.34,3.14s4.79.94,3.94-.24-5.89-9-5.94-10.16" transform="translate(0 0)"/><path class="cls-12" d="M321,367.57c-.05-1-11.12-8.72-9-11.42,0,0-4.41,4.27-4.05,5.58,1,3.53,9.38,6.56,10.22,7.85,1.38,2.11,3.3,4.6,3.5,5.25.32,1.06.16,2.63,1.34,3.14s4.79.94,3.94-.24-5.89-9-5.94-10.16" transform="translate(0 0)"/><path class="cls-12" d="M265.6,375.87c.16-1,6.81-7.67,9.42-9.89l-10-6.84c.42,1.48,2.56,6.41,2.33,6.84-.47.91-5.25,6.85-5.75,8.12s3,7.92,3.14,9-.37,2.61.68,3.34,4.5,1.89,3.91.57-3.95-10-3.77-11.16" transform="translate(0 0)"/><path class="cls-12" d="M265.6,375.87c.16-1,6.81-7.67,9.42-9.89l-10-6.84c.42,1.48,2.56,6.41,2.33,6.84-.47.91-5.25,6.85-5.75,8.12s3,7.92,3.14,9-.37,2.61.68,3.34,4.5,1.89,3.91.57-3.95-10-3.77-11.16" transform="translate(0 0)"/><path class="cls-12" d="M268.76,346.23s-8.35,7.23-13.71,3.38-2.77-8.85-3.07-9.81-4.33,7.58,2,12.22,14.54-1,14.79-1.57,1.44-4.48,0-4.22" transform="translate(0 0)"/><path class="cls-12" d="M264.56,356.83a13.19,13.19,0,0,1,8.73-13.36c7.21-2.63,23.64,2.45,28-.44s3.94-11.4,5.06-14,5.18-4.85,7.53-4.43a7,7,0,0,0,5.71-1.27c1.21-1,2.65-1.17,3.09-.45a6.47,6.47,0,0,1,.47,3.08,5.15,5.15,0,0,1-.63,1.31,8.1,8.1,0,0,1-.15,2.33c-.25.72-5.75,5.13-5.83,6.46s-1.64,17.53-2.52,19.78-7.77,9.23-8.21,10.36-4.75,16.67-4.63,18.36,2.49,1.8,2.81,3-6.3,1.11-6.42,0a32.14,32.14,0,0,1,.56-4.05c.89-5.17,1.88-12.35,2.32-18.35-5.84-.18-14.33-3.55-19.62-4.45a18.56,18.56,0,0,1,.18,5.66c-.42,2.7-7.41,9.45-7.11,10.56s6.93,7.68,8,8.64-2.53,1.32-3.79,1.08-1.45-1.8-2-2.77-6.5-5.59-6.56-6.95,3.62-7.07,3.67-8.1c.12-2.22-7.88-4.23-8.73-12" transform="translate(0 0)"/><path class="cls-6" d="M302.8,341.66a2.11,2.11,0,0,1-.17.22l.28,1.52a5.91,5.91,0,0,1,1.43,1.66c1.58,2.37,10.35,7.84,10.35,7.84.14-.89.28-1.92.43-3a21.6,21.6,0,0,1-12.32-8.22" transform="translate(0 0)"/><path class="cls-12" d="M321.23,330.93a6.24,6.24,0,0,0,1.19-1.31,8,8,0,0,0,.15-2.32,33.31,33.31,0,0,1-2.28,2.54c1.28-.14.94,1.09.94,1.09" transform="translate(0 0)"/><path class="cls-12" d="M315.48,347c.58-4.93,1.07-10.15,1.11-10.87a2.23,2.23,0,0,1,.55-1l-3.39,4.12c-1.83,2.24,2.28,2.79,1.73,7.77" transform="translate(0 0)"/><path class="cls-12" d="M279.75,354.91c-.24,1.44,1.13,5.84,1.13,5.84,3,.52,7.14,1.85,11.18,2.92-2.6-.67-12.07-10.2-12.31-8.76" transform="translate(0 0)"/><path class="cls-12" d="M280.88,360.75a2,2,0,0,0,.06.32l-.06-.32" transform="translate(0 0)"/><path class="cls-12" d="M294.38,364.26h0a32.5,32.5,0,0,0,6.12.94s.45-5.34.72-6.76c.2-1-3.69,6.1-6.84,5.82" transform="translate(0 0)"/><path class="cls-5" d="M321,323.42a1.34,1.34,0,0,1,1-1.08c1.09-.16,1.5,2.06,1.18,2.27s-2.22-.72-2.22-1.19" transform="translate(0 0)"/><path class="cls-6" d="M303.05,341.35a21.14,21.14,0,0,0,12.2,7.48s.14,1.64-.27,2c0,0-9.51-2.58-12.75-8.55,0,0,.17-.82.82-1" transform="translate(0 0)"/><g class="cls-13"><g class="cls-14"><path class="cls-15" d="M1779.18,191.52h-9.42A17.57,17.57,0,0,1,1752.21,174V158.5h4.15V174a13.41,13.41,0,0,0,13.4,13.4h9.42Z" transform="translate(0 0)"/><path class="cls-15" d="M1782.71,184l-.17-4.15h.17a14.59,14.59,0,0,0,14.57-14.58v-4.53h4.15v4.53A18.75,18.75,0,0,1,1782.71,184" transform="translate(0 0)"/><path class="cls-15" d="M1796.91,176.25l-.17-2.07h.17a15.63,15.63,0,0,0,15.61-15.61V154h2.08v4.53a17.71,17.71,0,0,1-17.69,17.68" transform="translate(0 0)"/><rect class="cls-16" x="1775.31" y="131.36" width="5.38" height="90.8"/><rect class="cls-15" x="1780.69" y="131.36" width="5.38" height="90.8"/><path class="cls-17" d="M1832.16,141.06a25.74,25.74,0,1,1-25.73-25.73,25.73,25.73,0,0,1,25.73,25.73" transform="translate(0 0)"/><path class="cls-18" d="M1814.34,110.31a37.25,37.25,0,1,1-37.25-37.25,37.24,37.24,0,0,1,37.25,37.25" transform="translate(0 0)"/><path class="cls-19" d="M1780.91,141.53a25.74,25.74,0,1,1-25.73-25.73,25.73,25.73,0,0,1,25.73,25.73" transform="translate(0 0)"/></g></g><g class="cls-13"><g class="cls-20"><path class="cls-15" d="M1339.47,182.12H1332a14.34,14.34,0,0,1-14.32-14.32V155.56h4.16V167.8A10.18,10.18,0,0,0,1332,178h7.46Z" transform="translate(0 0)"/><path class="cls-15" d="M1343,192l-.14-4.15h.14a11.11,11.11,0,0,0,11.1-11.1v-9.58h4.15v9.58A15.27,15.27,0,0,1,1343,192" transform="translate(0 0)"/><path class="cls-15" d="M1357.12,181.25l-.14-4.15h.14a11.11,11.11,0,0,0,11.1-11.1v-9.57h4.15V166a15.27,15.27,0,0,1-15.25,15.25" transform="translate(0 0)"/><rect class="cls-16" x="1336.41" y="143.66" width="4.26" height="71.85"/><rect class="cls-15" x="1340.66" y="143.66" width="4.26" height="71.85"/><path class="cls-19" d="M1342.78,147.73a24.34,24.34,0,1,1-24.34-24.34,24.34,24.34,0,0,1,24.34,24.34" transform="translate(0 0)"/><path class="cls-18" d="M1367.29,127a29.48,29.48,0,1,1-29.47-29.47A29.48,29.48,0,0,1,1367.29,127" transform="translate(0 0)"/><path class="cls-17" d="M1380.45,152.87a19.2,19.2,0,1,1-19.19-19.19,19.2,19.2,0,0,1,19.19,19.19" transform="translate(0 0)"/><path class="cls-15" d="M1186.47,193.26h-6.22a12,12,0,0,1-12-12V171.08h3.47V181.3a8.5,8.5,0,0,0,8.49,8.5h6.22Z" transform="translate(0 0)"/><path class="cls-15" d="M1189.41,201.48l-.11-3.47h.11a9.28,9.28,0,0,0,9.27-9.27v-8h3.47v8a12.75,12.75,0,0,1-12.74,12.74" transform="translate(0 0)"/><path class="cls-15" d="M1201.21,192.54l-.11-3.47h.11a9.28,9.28,0,0,0,9.27-9.27v-8H1214v8a12.75,12.75,0,0,1-12.74,12.74" transform="translate(0 0)"/><rect class="cls-16" x="1183.92" y="161.14" width="3.56" height="60"/><rect class="cls-15" x="1187.47" y="161.14" width="3.56" height="60"/><path class="cls-19" d="M1189.24,164.54a20.33,20.33,0,1,1-20.32-20.32,20.33,20.33,0,0,1,20.32,20.32" transform="translate(0 0)"/><path class="cls-18" d="M1209.71,147.23a24.62,24.62,0,1,1-24.62-24.62,24.61,24.61,0,0,1,24.62,24.62" transform="translate(0 0)"/><path class="cls-17" d="M1220.7,168.84a16,16,0,1,1-16-16,16,16,0,0,1,16,16" transform="translate(0 0)"/><path class="cls-15" d="M1095.41,192.87h-9a16.84,16.84,0,0,1-16.81-16.82V161.22h4v14.83a12.85,12.85,0,0,0,12.84,12.84h9Z" transform="translate(0 0)"/><path class="cls-15" d="M1098.78,185.69l-.16-4h.16a14,14,0,0,0,14-14V163.4h4v4.34a18,18,0,0,1-18,17.95" transform="translate(0 0)"/><path class="cls-15" d="M1112.39,178.24l-.16-2h.16a15,15,0,0,0,15-15v-4.35h2v4.35a17,17,0,0,1-16.95,17" transform="translate(0 0)"/><rect class="cls-16" x="1091.7" y="135.22" width="5.16" height="87.01"/><rect class="cls-15" x="1096.86" y="135.22" width="5.16" height="87.01"/><path class="cls-17" d="M1146.17,144.51a24.66,24.66,0,1,1-24.65-24.66,24.66,24.66,0,0,1,24.65,24.66" transform="translate(0 0)"/><path class="cls-18" d="M1129.1,115a35.7,35.7,0,1,1-35.69-35.69A35.69,35.69,0,0,1,1129.1,115" transform="translate(0 0)"/><path class="cls-19" d="M1097.06,145a24.66,24.66,0,1,1-24.66-24.66A24.66,24.66,0,0,1,1097.06,145" transform="translate(0 0)"/></g></g><g class="cls-13"><g class="cls-21"><path class="cls-15" d="M970.44,186.63H963a14.33,14.33,0,0,1-14.32-14.32V160.07h4.15v12.24A10.18,10.18,0,0,0,963,182.48h7.45Z" transform="translate(0 0)"/><path class="cls-15" d="M974,196.47l-.13-4.15H974a11.11,11.11,0,0,0,11.1-11.1v-9.58h4.15v9.58A15.27,15.27,0,0,1,974,196.47" transform="translate(0 0)"/><path class="cls-15" d="M988.09,185.76l-.13-4.15h.13a11.11,11.11,0,0,0,11.1-11.1v-9.57h4.15v9.57a15.27,15.27,0,0,1-15.25,15.25" transform="translate(0 0)"/><rect class="cls-16" x="967.38" y="148.17" width="4.26" height="71.85"/><rect class="cls-15" x="971.64" y="148.17" width="4.26" height="71.85"/><path class="cls-19" d="M973.75,152.24a24.34,24.34,0,1,1-24.33-24.34,24.33,24.33,0,0,1,24.33,24.34" transform="translate(0 0)"/><path class="cls-18" d="M998.26,131.51A29.47,29.47,0,1,1,968.79,102a29.46,29.46,0,0,1,29.47,29.47" transform="translate(0 0)"/><path class="cls-17" d="M1011.43,157.38a19.2,19.2,0,1,1-19.2-19.19,19.2,19.2,0,0,1,19.2,19.19" transform="translate(0 0)"/><path class="cls-15" d="M820.37,205.46H815a10,10,0,0,1-9.95-10v-8.77h2.35v8.77a7.61,7.61,0,0,0,7.6,7.6h5.33Z" transform="translate(0 0)"/><path class="cls-15" d="M822.37,201.21l-.09-2.35h.09a8.27,8.27,0,0,0,8.26-8.26V188H833v2.57a10.62,10.62,0,0,1-10.62,10.61" transform="translate(0 0)"/><path class="cls-15" d="M830.42,196.81l-.09-1.18h.09a8.86,8.86,0,0,0,8.85-8.85v-2.57h1.18v2.57a10,10,0,0,1-10,10" transform="translate(0 0)"/><rect class="cls-16" x="818.18" y="171.36" width="3.05" height="51.47"/><rect class="cls-15" x="821.23" y="171.36" width="3.05" height="51.47"/><path class="cls-17" d="M850.41,176.86a14.59,14.59,0,1,1-14.59-14.59,14.59,14.59,0,0,1,14.59,14.59" transform="translate(0 0)"/><path class="cls-18" d="M840.3,159.42a21.11,21.11,0,1,1-21.11-21.11,21.11,21.11,0,0,1,21.11,21.11" transform="translate(0 0)"/><path class="cls-19" d="M821.35,177.12a14.59,14.59,0,1,1-14.58-14.58,14.59,14.59,0,0,1,14.58,14.58" transform="translate(0 0)"/></g></g><g class="cls-13"><g class="cls-22"><path class="cls-23" d="M1579,77.8c-1.31.52-2.61,1-3.93,1.55-.29-.72-.6-1.44-.94-2.12h4.62c.09.19.17.39.25.57" transform="translate(0 0)"/><path class="cls-24" d="M1541,57V76.85h-89.38a32.32,32.32,0,0,1,29-19.83Z" transform="translate(0 0)"/><rect class="cls-25" x="1460.86" y="63.82" width="5.28" height="119.24"/><rect class="cls-25" x="1527.07" y="68.8" width="5.28" height="109.37"/><rect class="cls-26" x="1463.21" y="63.82" width="5.28" height="119.24"/><rect class="cls-26" x="1529.42" y="68.8" width="5.28" height="109.37"/><rect class="cls-24" x="1463.01" y="110.21" width="71.03" height="9.2"/><rect class="cls-27" x="1472.03" y="110.21" width="5.55" height="67.48"/><rect class="cls-27" x="1483.89" y="110.21" width="5.55" height="67.48"/><rect class="cls-27" x="1495.75" y="110.21" width="5.55" height="67.48"/><rect class="cls-27" x="1507.61" y="110.21" width="5.55" height="67.48"/><rect class="cls-27" x="1519.47" y="110.21" width="5.55" height="67.48"/><rect class="cls-26" x="1496.4" y="168.49" width="71.03" height="9.2"/><rect class="cls-24" x="1496.4" y="110.21" width="71.03" height="9.2"/><rect class="cls-25" x="1494.05" y="63.82" width="5.28" height="119.24"/><rect class="cls-25" x="1560.26" y="68.8" width="5.28" height="109.37"/><path class="cls-25" d="M1532.34,68.8v0Z" transform="translate(0 0)"/><rect class="cls-26" x="1496.4" y="63.82" width="5.28" height="119.24"/><rect class="cls-26" x="1562.61" y="68.8" width="5.28" height="109.37"/><path class="cls-26" d="M1498.52,183.06h-50.26V155.79a24.88,24.88,0,0,1,24.88-24.88h.5a24.88,24.88,0,0,1,24.88,24.88Z" transform="translate(0 0)"/><rect class="cls-26" x="1399.1" y="130.92" width="75.83" height="51.76"/><path class="cls-28" d="M1424,183.06h-50.26V155.79a24.88,24.88,0,0,1,24.88-24.88h.5A24.88,24.88,0,0,1,1424,155.79Z" transform="translate(0 0)"/><path class="cls-23" d="M1378.32,178.46V155.79a20.31,20.31,0,0,1,20.28-20.28h.5a20.31,20.31,0,0,1,20.28,20.28v22.67Z" transform="translate(0 0)"/><rect class="cls-29" x="1503.08" y="110.21" width="5.55" height="67.48"/><rect class="cls-29" x="1514.94" y="110.21" width="5.55" height="67.48"/><rect class="cls-29" x="1526.8" y="110.21" width="5.55" height="67.48"/><rect class="cls-29" x="1538.66" y="110.21" width="5.55" height="67.48"/><rect class="cls-29" x="1550.52" y="110.21" width="5.55" height="67.48"/><rect class="cls-30" x="1505.43" y="110.21" width="5.55" height="67.48"/><rect class="cls-30" x="1517.29" y="110.21" width="5.55" height="67.48"/><rect class="cls-30" x="1529.15" y="110.21" width="5.55" height="67.48"/><rect class="cls-30" x="1541.01" y="110.21" width="5.55" height="67.48"/><rect class="cls-30" x="1552.87" y="110.21" width="5.55" height="67.48"/><path class="cls-24" d="M1578.73,77.23h-66.56A32.31,32.31,0,0,0,1482.68,57v0h65.7a32.38,32.38,0,0,1,30.35,20.23" transform="translate(0 0)"/><polygon class="cls-26" points="1382.6 183.06 1374.17 183.06 1338.29 216.8 1346.73 216.8 1382.6 183.06"/><polygon class="cls-31" points="1432.07 185.41 1387.76 216.8 1387.76 219.15 1396.19 219.15 1432.07 185.41"/><polygon class="cls-31" points="1432.07 183.06 1423.63 183.06 1387.76 216.8 1396.19 216.8 1432.07 183.06"/><polygon class="cls-31" points="1382.6 185.41 1338.29 216.8 1338.29 219.15 1346.73 219.15 1382.6 185.41"/><polygon class="cls-32" points="1382.6 183.06 1374.17 183.06 1338.29 216.8 1346.73 216.8 1382.6 183.06"/><polygon class="cls-24" points="1428.8 186.13 1423.91 190.73 1366.01 190.73 1366.01 187.66 1428.8 183.44 1428.8 186.13"/><polygon class="cls-24" points="1422.09 192.65 1417.2 197.25 1359.3 197.25 1359.3 194.18 1422.09 189.96 1422.09 192.65"/><polygon class="cls-24" points="1415.09 199.16 1410.2 203.77 1352.3 203.77 1352.3 200.7 1415.09 196.48 1415.09 199.16"/><polygon class="cls-24" points="1408.02 205.68 1403.13 210.28 1345.23 210.28 1345.23 207.22 1408.02 203 1408.02 205.68"/><polygon class="cls-24" points="1401.09 212.2 1396.19 216.8 1338.3 216.8 1338.3 213.74 1401.09 209.52 1401.09 212.2"/><polygon class="cls-23" points="1428.8 183.06 1423.91 187.66 1366.01 187.66 1370.9 183.06 1428.8 183.06"/><polygon class="cls-23" points="1421.88 189.58 1416.99 194.18 1359.09 194.18 1363.98 189.58 1421.88 189.58"/><polygon class="cls-23" points="1414.95 196.1 1410.06 200.7 1352.16 200.7 1357.05 196.1 1414.95 196.1"/><polygon class="cls-23" points="1408.02 202.62 1403.13 207.22 1345.23 207.22 1350.12 202.62 1408.02 202.62"/><polygon class="cls-23" points="1401.09 209.13 1396.19 213.74 1338.3 213.74 1343.19 209.13 1401.09 209.13"/><path class="cls-23" d="M1512.41,77.8l-3.92,1.55c-.29-.72-.6-1.44-.94-2.12a3.48,3.48,0,0,0-.2-.38,28.7,28.7,0,0,0-51.1,0c-.4.8-.78,1.64-1.12,2.5l-3.91-1.55c.12-.32.26-.64.4-1a32.32,32.32,0,0,1,29-19.83h2A32.27,32.27,0,0,1,1512,76.85c.06.12.11.25.17.38s.17.39.24.57" transform="translate(0 0)"/><path class="cls-23" d="M1512.17,77.23h-4.62a28.17,28.17,0,0,0-24.87-16V57a32.31,32.31,0,0,1,29.49,20.21" transform="translate(0 0)"/><rect class="cls-25" x="1556.05" y="170.38" width="4.75" height="46.42"/><path class="cls-25" d="M1579.8,189.66a23.22,23.22,0,1,1-19-19,23.25,23.25,0,0,1,19,19" transform="translate(0 0)"/><path class="cls-33" d="M1585.78,189.66a23.22,23.22,0,1,1-19-19,23.24,23.24,0,0,1,19,19" transform="translate(0 0)"/><path class="cls-26" d="M1574.86,191.53a12.14,12.14,0,1,1-9.91-9.91,12.15,12.15,0,0,1,9.91,9.91" transform="translate(0 0)"/><rect class="cls-25" x="1497.45" y="170.38" width="4.75" height="46.42"/><path class="cls-25" d="M1521.19,189.66a23.22,23.22,0,1,1-19-19,23.24,23.24,0,0,1,19,19" transform="translate(0 0)"/><path class="cls-33" d="M1527.18,189.66a23.22,23.22,0,1,1-19-19,23.25,23.25,0,0,1,19,19" transform="translate(0 0)"/><path class="cls-26" d="M1516.25,191.53a12.14,12.14,0,1,1-9.9-9.91,12.14,12.14,0,0,1,9.9,9.91" transform="translate(0 0)"/><rect class="cls-25" x="1438.21" y="180.38" width="4" height="39.11"/><path class="cls-25" d="M1458.21,196.62a19.56,19.56,0,1,1-16-16,19.57,19.57,0,0,1,16,16" transform="translate(0 0)"/><path class="cls-33" d="M1463.26,196.62a19.57,19.57,0,1,1-16-16,19.58,19.58,0,0,1,16,16" transform="translate(0 0)"/><path class="cls-26" d="M1454.05,198.2a10.22,10.22,0,1,1-8.34-8.35,10.24,10.24,0,0,1,8.34,8.35" transform="translate(0 0)"/></g></g><path class="cls-34" d="M1621.09,156.34l-5.13,30.8-35.5.44c.33-17.16,7.53-32.55,40.63-31.24" transform="translate(0 0)"/><path class="cls-35" d="M1601.63,204.43h0a1.55,1.55,0,0,1,2.17,0l28.34,28.35a1.53,1.53,0,0,1,0,2.16h0a1.52,1.52,0,0,1-2.16,0l-28.35-28.34a1.55,1.55,0,0,1,0-2.17" transform="translate(0 0)"/><path class="cls-35" d="M1629,204.43h0a1.54,1.54,0,0,0-2.16,0l-28.34,28.35a1.53,1.53,0,0,0,2.16,2.16L1629,206.6a1.53,1.53,0,0,0,0-2.17" transform="translate(0 0)"/><path class="cls-34" d="M1650.15,185.61v1.63c0,10.16-6.69,18.47-14.86,18.47h-40c-8.17,0-14.86-8.31-14.86-18.47v-1.63Z" transform="translate(0 0)"/><path class="cls-36" d="M1630.7,218.38a15.18,15.18,0,1,1-15.18,15.18,15.19,15.19,0,0,1,15.18-15.18m0,2.4a12.78,12.78,0,1,0,12.78,12.78,12.78,12.78,0,0,0-12.78-12.78" transform="translate(0 0)"/><path class="cls-36" d="M1630.7,230.61a2.95,2.95,0,1,1-3,2.95,2.95,2.95,0,0,1,3-2.95" transform="translate(0 0)"/><rect class="cls-37" x="1629.97" y="219.91" width="1.47" height="27.14"/><rect class="cls-37" x="1617.13" y="232.75" width="27.14" height="1.47"/><rect class="cls-37" x="1617.13" y="232.74" width="27.14" height="1.47" transform="translate(312.04 1220.81) rotate(-44.97)"/><rect class="cls-37" x="1629.97" y="219.91" width="1.47" height="27.14" transform="translate(312.5 1221.43) rotate(-45)"/><path class="cls-36" d="M1599.9,218.38a15.18,15.18,0,1,1-15.18,15.18,15.18,15.18,0,0,1,15.18-15.18m0,2.4a12.78,12.78,0,1,0,12.78,12.78,12.78,12.78,0,0,0-12.78-12.78" transform="translate(0 0)"/><path class="cls-36" d="M1599.9,230.61a2.95,2.95,0,1,1-3,2.95,2.95,2.95,0,0,1,3-2.95" transform="translate(0 0)"/><rect class="cls-37" x="1599.17" y="219.91" width="1.47" height="27.14"/><rect class="cls-37" x="1586.33" y="232.75" width="27.14" height="1.47"/><rect class="cls-37" x="1586.33" y="232.74" width="27.14" height="1.47" transform="translate(303.02 1199.05) rotate(-44.97)"/><rect class="cls-37" x="1599.17" y="219.91" width="1.47" height="27.14" transform="translate(303.48 1199.65) rotate(-45)"/><path class="cls-38" d="M1600.91,204.45h28.78a2.24,2.24,0,0,1,2.24,2.24v.49a2.24,2.24,0,0,1-2.24,2.24h-28.78a2.25,2.25,0,0,1-2.24-2.24v-.49a2.25,2.25,0,0,1,2.24-2.24" transform="translate(0 0)"/><path class="cls-38" d="M1580.82,184.12h69a1.48,1.48,0,0,1,1.49,1.46v.32a1.49,1.49,0,0,1-1.49,1.46h-69a1.48,1.48,0,0,1-1.49-1.46v-.32a1.47,1.47,0,0,1,1.49-1.46" transform="translate(0 0)"/><path class="cls-35" d="M1650.24,169.76h0a1.53,1.53,0,0,1,.62,2.07l-15.34,28.46a1.54,1.54,0,0,1-2.08.62h0a1.54,1.54,0,0,1-.62-2.07l15.35-28.46a1.53,1.53,0,0,1,2.07-.62" transform="translate(0 0)"/><path class="cls-39" d="M1673.68,124.91l-8.1-.73c-.43.2-3.85.32-5.44,1.43a2.1,2.1,0,0,0,.58,3.54c1.39.48,3.7,1.53,6.8,2.66,4.57,1.67,9.89,3.25,12.36,3.06,7.9-.63,8-9.44,3.54-10.43-2.21-.5-5.43-.45-9.74.47" transform="translate(0 0)"/><path class="cls-40" d="M1673.57,124.74l-3.18-.28-1,8.64c4.28,1.45,8.69,2.62,10.93,2.44,8.58-.68,8.65-10.23,3.84-11.31-2.39-.53-5.88-.48-10.56.51" transform="translate(0 0)"/><path class="cls-39" d="M1659,127.29c-1.66-6.42.26-10.8-1.6-17.66l-.68-1.65-.27-2.67c.06-.85-.18-1.5.58-1.57.17-.77.26-1.19,1-1.2.16-.81.7-1.86,1.21-1.41.09-.65.49-1.52,1.32-1.23,0,0,.62,3.95.67,4.5,1.19-1.56,1-3.17,2.52-2.5.77.36.1,1.29-.63,3.08-.86,2.1-.09,1.85-1.63,3.47-.86.9,3.72,15.53,4.08,16.58,1.32,3.92-5.42,6.59-6.62,2.26" transform="translate(0 0)"/><path class="cls-39" d="M1646.71,119.62a3.42,3.42,0,0,1,2-5.79c2.59-.37,4.55,1.52,6.68,5.14a1.73,1.73,0,0,1,.3,1.67c-.59,1.88-1.93,4.76-1.4,6.24l.35.5a9.44,9.44,0,0,1,1,1.42c.1.23.14.44,0,.57.06.17.05.5-.22.51a.34.34,0,0,1-.18.52c0,.22,0,.39-.37.41.33.31.09.6-.16.63-.56.06-1.28-.8-1.63-1.19l-.67-.85c-.43-.7-1.2-.93-1.35-1.52-.1-.38,0-.72-.11-1.2-.63-1.52-1-3,0-4.46-1.35-.75-3.31-1.48-4.26-2.6" transform="translate(0 0)"/><path class="cls-39" d="M1666.38,113.45l-.14.41c-.23.48-.56.44-.81.17a6.14,6.14,0,0,1-.62-1.37l.83.29Z" transform="translate(0 0)"/><path class="cls-39" d="M1662.76,107c.3.38.89,1.66,1.48,2.74a8.86,8.86,0,0,0,.94,1.42,7.18,7.18,0,0,1,1.38.81,2.09,2.09,0,0,1,.6,1.48,5.65,5.65,0,0,1,0,1.21c-.06.44-.17.85-.21,1.15-.28-.08-.35-.12-.36-.51a2.08,2.08,0,0,0-.33.58c-.79-.29-.6-.9-.12-1.5.07-.28.17-.43.11-.54-.2-.38-1.14-.29-1.53-.29s-.45-.16-.81-.72c-1.13-.42-1.34-.4-3-2.08Z" transform="translate(0 0)"/><path class="cls-39" d="M1663.32,116.13l-.32.29c-.43.32-.71.13-.8-.24a5.93,5.93,0,0,1,.11-1.49l.59.65Z" transform="translate(0 0)"/><path class="cls-39" d="M1659.67,111.35c-2.49,3.22-5.66,4.93-11.37,4.33-3.22-1.22-3.49-2.48-3.81-3.31-.74-1.86,2.58-2.89,6.74-6.89,3.75-3.61,7-7.77,8.56-7.58.84.1,1.69,1,3.08,3.2,1.92,3,.73,5.18-3.2,10.25" transform="translate(0 0)"/><path class="cls-41" d="M1653.34,115.39c-1.63,1.71-4.32,5.9-7.35,4.84a6.11,6.11,0,0,1-3.44-3.12c-1-2.89,1.4-6.16,3.74-7.5a22.11,22.11,0,0,0,7,5.78" transform="translate(0 0)"/><path class="cls-39" d="M1645.42,118.85a3.42,3.42,0,0,1,3.95-4.68c2.54.59,3.69,3.06,4.37,7.21a1.73,1.73,0,0,1-.33,1.66c-1.29,1.62-3.74,3.95-3.55,5.53l1.71,1.07c.44.29,1.39.87,1.4,1.44,0,.25-.24.52-.6.25,0,.34-.12.44-.35.42a.34.34,0,0,1-.48.26c0,.26-.31.32-.48.29-.1.17-.32.17-.56.1a9.48,9.48,0,0,1-1.55-.79c-1.31-.73-2.54-.87-2.13-2.46-.19-2.45-.53-4.93,1.63-6.33-1-1.2-2.55-2.59-3-4" transform="translate(0 0)"/><path class="cls-39" d="M1684.86,125.6l-8.11,2.45c1.09-3,1.34-8.5,3.75-12.72l8.89,3.15c-1.22,1.34-1.52,2.21-2.79,3.72a10.7,10.7,0,0,0-1.74,3.4" transform="translate(0 0)"/><path class="cls-39" d="M1677.31,113.33c-.14.18-.34.43-.55.75a5.14,5.14,0,0,0-.56,1,3.32,3.32,0,0,0-.29,1.29,3.07,3.07,0,0,0,1,2,5.91,5.91,0,0,0,4,1.81,2.16,2.16,0,0,0,1.13-.1c.64-.32.9-1.14,1.45-2.09.61.57,1.27.74,2.06-.29a18.6,18.6,0,0,0,4.36-2.41s1.83-7.19,1.71-7.32-4.89-2.7-4.89-2.7c-1.13.46-2.55.62-3.8,1.21a10.7,10.7,0,0,0-3,2.14,1.68,1.68,0,0,0-.73,1.12,1.55,1.55,0,0,1-.15.53c-.77,1.08-2.48,1.27-2.64,1.61a1.49,1.49,0,0,0,.9,1.53" transform="translate(0 0)"/><path class="cls-42" d="M1683.94,113.22c-.28.52-.53,1-.68,1.37s-.33.58-.28.8a5.3,5.3,0,0,0,1.92-.59c1-.24,2.29-.38,2.77.26s-.59,1.75-1.68,2.29a1.82,1.82,0,0,0-1,1.17c-.19.87.68,1,.91,2.07a14,14,0,0,1,0,2.71c1.59-1.49,2-2.18,3.38-2.84,1.9-.9,4.3-3.69,4.48-6l0,.17c.1-1.8.24-2.42-.62-4.06a5.49,5.49,0,0,0-.71-2.68c-1-1.81-2.92-2.4-4.64-3a15.27,15.27,0,0,0-6.28-.61c-.27,2.8,1.29,3.64,3.45,4.59a5.06,5.06,0,0,1-1.71,4.34l.64-.15Z" transform="translate(0 0)"/><path class="cls-43" d="M1676.34,231.62c.73,8.63-7.68,7.52-10,7.87-2.35.08-2.46,1.43-2.53,2.26-.26,3,6.34,2.71,8.59,2.6,3.24-.16,5.49-1.77,7.21-.58a12.76,12.76,0,0,0,4.34.13c1.54-.39,1.61-2.92,1.61-4.57,0-2.34-1-3.42-2.4-5.85l-.36-1.86Z" transform="translate(0 0)"/><path class="cls-44" d="M1681.84,163.87c.39,3.69,3.2,7.41,3.48,12.29s-2.57,16-2.9,22.49l1.77,6.39-.51,30.35-9.44-.08L1673,200l-2.43-33.67Z" transform="translate(0 0)"/><path class="cls-45" d="M1675.19,226.32l-4.7.18a1.15,1.15,0,0,0-1,1.2c2.21,12.69-8.18,11.21-11,11.62-2.47.07-2.71,1.49-2.87,2.35-.57,3.15,6.34,2.83,8.69,2.72,3.4-.17,5.91-1.85,7.59-.61.45.33,3.79.31,4.51.13,1.64-.41,2-3,2.14-4.77.23-2.43-.76-3.56-1.92-6.09l-.55-5.58c-.06-.55-.38-1.19-.93-1.15" transform="translate(0 0)"/><path class="cls-44" d="M1677.57,165.23l.67,1.47,1-.08c.74,5.58,1.57,9.08.45,13.4-1.94,9.54-3.22,11.22-4.59,23.18l3,8.23,1.08,23.88-8.8-.45-4.71-32.15-2.36-22.52c-.44-4.19.89-11.62,1.81-16.26Z" transform="translate(0 0)"/><path class="cls-40" d="M1685.39,157.1c-1.51,4.93-1.27,10.08-1,14.25-2.63,1.59-14.07,2.24-20.6.55.86-7.37,1.15-10.82,1.47-14.76.65-7.95-1.22-19.06,2.32-25.82,1.47-2.81,2.19-2.69,5.06-4,1.49-.67,3.64-1.57,4.66-3.06,1.35.38,6.47-.21,9-1.1,4.77,6,5.87,10.08,3.63,18.73-1,3.84-2.62,8.44-4.49,15.17" transform="translate(0 0)"/><path class="cls-39" d="M1652.49,128.36c-.89-7.15,1.78-11.58.74-19.22l-.5-1.87.08-2.91c.18-.9,0-1.64.84-1.6.29-.81.44-1.25,1.29-1.15.29-.85,1-1.9,1.5-1.35.19-.69.74-1.57,1.6-1.14,0,0,.11,4.33.09,4.94,1.5-1.52,1.56-3.27,3-2.34.78.49-.07,1.4-1.1,3.22-1.22,2.14-.36,2-2.24,3.5-1,.85,1.85,17.22,2.08,18.4.88,4.41-6.74,6.33-7.43,1.52" transform="translate(0 0)"/><path class="cls-39" d="M1662.71,106.39a12.27,12.27,0,0,1,.67,1.94c.14.8,0,4.44.16,5a8.16,8.16,0,0,1,.86,1.43,2.16,2.16,0,0,1-.18,1.64,6.61,6.61,0,0,1-.63,1.1c-.27.38-.57.69-.76,1-.22-.21-.26-.28-.07-.65a1.9,1.9,0,0,0-.59.37c-.58-.66-.11-1.12.63-1.44.2-.21.36-.3.36-.43,0-.45-.9-.83-1.25-1s-.33-.37-.38-1.06a13,13,0,0,1-1.68-3.35c-.24-.57-.47-2.46-.55-2.68a4,4,0,0,1-.28-.55,6.16,6.16,0,0,1-.14-.93c-.07-.67-.46-1.56-.54-2.39-.22-2.28.23-3.63,1.6-4.07,1.18-.37,2.72.06,3,2.7a27,27,0,0,1-.27,3.45" transform="translate(0 0)"/><path class="cls-39" d="M1668.36,126.3l-8.78-.79c-.46.22-4.18.35-5.9,1.55a2.29,2.29,0,0,0,.63,3.85c1.51.51,4,1.65,7.37,2.88,5,1.81,10.73,3.52,13.4,3.31,8.57-.68,8.65-10.24,3.84-11.31-2.39-.54-5.89-.49-10.56.51" transform="translate(0 0)"/><path class="cls-40" d="M1668.36,126.3l-3.19-.29-1,8.65c4.29,1.45,8.7,2.62,10.94,2.44,8.57-.68,8.65-10.24,3.84-11.31-2.39-.54-5.89-.49-10.56.51" transform="translate(0 0)"/><path class="cls-39" d="M1668.41,101.83c-.24.59.17.88,0,1.09s-.33.16-.71,0a2.26,2.26,0,0,0-.27.27c-.28.34-.25.55-.43.84a1.72,1.72,0,0,1-1,.69,2.37,2.37,0,0,1-.79.07c-1.36-.14-3-2.72-3-2.72a10.26,10.26,0,0,1-2-4.9c-.08-1.11.77-2.48,2-3.57,2.3-2,4.23-1.54,5.59-.35,2.19,1.91,3,4.15,2.28,6.34-.3.87-1.47,1.63-1.7,2.2" transform="translate(0 0)"/><path class="cls-46" d="M1660.69,99.27a8,8,0,0,1-.47-2.06c-.08-1.11.77-2.48,2-3.57,2.3-2,4.23-1.54,5.59-.35a6.41,6.41,0,0,1,2.55,4.91c-.69-.86-1.19-1.78-1.58-1.64s-.41.67-.76,1.08c-.74.86-1.58.84-2.61,1.93.25-1.48-.2-2.54-1.87-2.19a3.84,3.84,0,0,0-2.85,1.88Z" transform="translate(0 0)"/><path class="cls-39" d="M1491.54,160.7c.35,5.39.68,12.54.58,18l-4.92,2.25a1.47,1.47,0,0,1-.37-.74c-.25-1.79-1.92-9.9-2.63-14.74-1-7.13.55-8.46,2.3-9.28,2-.93,4.83,1.2,5,4.56" transform="translate(0 0)"/><path class="cls-39" d="M1496.5,195.19c-1.34-3.61-2.38-11.25-4.35-16.63-1.1-3-3.26-3.58-4-2.67-1.21,1.52-2,2.41-.87,5.91,1.59,4.82,5.52,12.53,6.55,14.73Z" transform="translate(0 0)"/><path class="cls-39" d="M1458.9,238c.43,4.64,11.69,8,11.92,10.07-1,.44-6.26.61-8.3.25-2.68-.48-4.08-1.59-6.37-1.71l-.07,1.3-2.76,0-.17-2.63c-.34-5,1.15-4.87,1.35-7.25Z" transform="translate(0 0)"/><path class="cls-47" d="M1466.92,245.09c2.1,1.17,3.81,2.15,3.9,3-1,.44-6.26.61-8.3.25-2.68-.48-4.08-1.59-6.37-1.71l-.07,1.3-2.76,0-.12-2.63a7.47,7.47,0,0,1,.36-4.48c1.78,2.55,9.53,5.36,13.36,4.34" transform="translate(0 0)"/><path class="cls-39" d="M1469.84,205.91,1459,239.22l-6.32-1c1.6-4.44,2.26-11.47,2.74-16.94.57-6.44,1.12-7.76,3.54-11.48l2.75-5.89c-.72-3.79,9.24-3.58,8.11,2" transform="translate(0 0)"/><path class="cls-39" d="M1470,205c-.42,3.52-5.83,5.67-8.21,1.54l-6.17-17.41c-3.62-2-5.23-5.92-5.79-7.91-1.35-4.8,0-7.37,1-10.36l13.26-.57c1.52,12.09,4.61,20.29,5.91,34.71" transform="translate(0 0)"/><path class="cls-48" d="M1461.13,204.73l-5.54-15.64c-3.63-2-5.23-5.92-5.79-7.91-1.35-4.8,0-7.37,1-10.36l13.26-.57c1.52,12.08,4.63,20,5.89,34.48Z" transform="translate(0 0)"/><path class="cls-39" d="M1456.34,232.73a27,27,0,0,0-.12,5.5c.64,4.64,12,8,12.37,10.07-1,.44-6.22.61-8.28.25-2.71-.48-4.15-1.6-6.45-1.71v1.3l-3.09,0-.29-2.63c-.56-5,1.11-4.87,1-7.25l-.22-5.85Z" transform="translate(0 0)"/><path class="cls-47" d="M1464.56,245.34c2.15,1.17,3.91,2.15,4,3-1,.44-6.22.61-8.28.25-2.71-.48-4.15-1.6-6.45-1.71v1.3l-3.09,0-.24-2.63a7.44,7.44,0,0,1,.16-4.48c1.89,2.55,10.09,5.36,13.88,4.34" transform="translate(0 0)"/><path class="cls-39" d="M1461.68,204.85l-5.36,34.71-5,.09c.78-4.66-.56-11.62-1.07-17.09-.6-6.44-.3-7.84,1.41-11.93l1.64-6.3-1.72-18.39c-3-2.79-3.62-7-3.67-9.08-.14-5,2.46-7.07,4.13-9.73l12.37,2.62c-.46,3.74-.16,8.25-.07,12.93,1,7.73-1.45,14.25-2.71,22.17" transform="translate(0 0)"/><path class="cls-48" d="M1492.93,150.82c-3.47-.06-6.7-1.36-9.59-.18-4,1.64-7.48,5.08-10.68,8-8.05,7.28-15.75,4.31-21,8.59l12.63,12.34a51.58,51.58,0,0,0,16.13-9.44c1.58,1.14,2.83,1.76,7.5.61,1.49-3.67,2.1-6.22,3.56-9.56.64-2.67.83-6.92,1.43-10.32" transform="translate(0 0)"/><path class="cls-48" d="M1450.51,204.73c.08-10.18,2.47-13.36-1.4-22.43a15.34,15.34,0,0,1-1.15-5.44,12.89,12.89,0,0,1,1.73-7c2-3.68,4.07-4.06,8.25-5.14l6.51,5.06c-.45,3.74-.15,8.25-.06,12.93,1,7.69.61,14.62,1.11,22.22Z" transform="translate(0 0)"/><path class="cls-39" d="M1500,158.13c-5.57-3.54-12.29,4.76-12.74,5.27l2.38-11.82a22.16,22.16,0,0,0,9.49-3.24Z" transform="translate(0 0)"/><path class="cls-39" d="M1499.63,159.54a5.37,5.37,0,0,0,3.22,1.73l.46,0a4.61,4.61,0,0,0,1.57-.52,1.79,1.79,0,0,1,.93-.34c.49-.05,1,.81,1.78.33a5.07,5.07,0,0,1,1.57-2.44c.87-.68,1.81-.29,3.43-1.67a5.52,5.52,0,0,0,2-4.56c-.18-3.14-2.12-7.5-4.71-8.32-7.14-2.24-10.46,8.18-10.49,8.34s-1.78,5.15.29,7.49" transform="translate(0 0)"/><path class="cls-49" d="M1514,154.85c1.15-1.31,1.26-6.93-1.7-9.9a11.12,11.12,0,0,0-4.87-2.75c-4.71-1.28-11.71,1.76-15.83,5.24-5.41,4.57,1.39,6.48-8.86,15.34,4.64,4.57,14.94-11.63,19.62-9.14,3.13,1.26,12.6,6.8,11.64,1.21" transform="translate(0 0)"/><path class="cls-39" d="M1486,198.48c1.14,2.36,1.21,1.79.19,4.2l-2,.46s-.93-2.12-.9-2.26.19-3.78.19-3.78l1-.54Z" transform="translate(0 0)"/><path class="cls-36" d="M1507.05,224.91a37,37,0,0,1,2.63,9.28c.26,1.67,0,1.85-.49,3.45l-1.88,4.18a6.21,6.21,0,0,1-4-.6L1504,237l-1-4.07-.79,0a38.87,38.87,0,0,0-1.4,5l-1,5.95a13.57,13.57,0,0,1-4.38,0c.2-2.62,0-5.56,0-8.19,0-3.22,0-5.88.31-9.56Z" transform="translate(0 0)"/><path class="cls-44" d="M1507.05,241a19.31,19.31,0,0,0,.81,3.29c.3.6.8,1.89-.13,2.22a5.18,5.18,0,0,1-3.26-.24c-.48-.26-.48-1.56-.69-2.78a9.57,9.57,0,0,0-.45-1.37c-.26-.69,0-1.26.61-2.6l1.93,1.09Z" transform="translate(0 0)"/><path class="cls-44" d="M1499.61,243.2a10.82,10.82,0,0,0,.41,3.57c.14.84,0,1.21-.81,1.31a23,23,0,0,1-3.35,0c-1.51-.09-.91-1.36-.57-2.83l.46-2,2.1-.13Z" transform="translate(0 0)"/><path class="cls-39" d="M1516.44,218.73l0,.5c0,.61-.41.71-.8.52a7.22,7.22,0,0,1-1.23-1.19l1,0Z" transform="translate(0 0)"/><path class="cls-39" d="M1513.32,216.42c.75.62,1.73.24,2.66.61a2.41,2.41,0,0,1,1.27,1.31,7.79,7.79,0,0,1,.49,1.31c.12.49.18,1,.26,1.31-.33,0-.42,0-.6-.39a2.12,2.12,0,0,0-.1.75c-1,0-1-.69-.77-1.54,0-.32,0-.52-.12-.62-.37-.32-1.33.18-1.74.35-.78.31-1.15-.82-2-.79Z" transform="translate(0 0)"/><path class="cls-50" d="M1503.16,208.27c1.94.24,2.46.95,4.3,3.85l1.57,2,4.75,2.32a16,16,0,0,1-.78,2.64c-2.81-.83-4.59-.66-6.81-2.95a47.17,47.17,0,0,0,1.67,9.68,50.43,50.43,0,0,1-12.66,1c.38-4.6-.62-6.62-2.26-10.64-.53-1.27-2.74-2.59-3.55-5.76-.39-1.54,3.43-1.42,7.92-1.74a32.83,32.83,0,0,1,5.85-.35" transform="translate(0 0)"/><path class="cls-50" d="M1491.28,213.93c-2-2.11-5.41-3.75-5.92-4.68-.71-1.29-1.37-3.27-2.06-7.41l3.35.45,2.6,4.82,2.62.7a10,10,0,0,1,2.57,1.29Z" transform="translate(0 0)"/><path class="cls-51" d="M1498,197.69a4.42,4.42,0,0,0-4.92,2.63,1.42,1.42,0,0,1,.25-.2,6.5,6.5,0,0,0-.49,2.61c0,3.34,2.15,6.37,5.16,6.37s5.3-3.13,5.31-6.46a4.26,4.26,0,0,0-1.7-3.8,1.71,1.71,0,0,1,.55.39c-.34-1.34-3.12-1.74-4.16-1.54" transform="translate(0 0)"/><path class="cls-39" d="M1498,210.75a2.14,2.14,0,0,0,1.25-.59,4.49,4.49,0,0,0,2.18-1.32,5.5,5.5,0,0,0,.47-1.8,1,1,0,0,0,.56-.64c.17-.67.93-.79,1-1.88s-.8-.84-1-.59a9.6,9.6,0,0,0,.19-1.65c-.38-2.61-1.76-3.61-4.61-3.61s-4.24,1-4.62,3.61a10.71,10.71,0,0,0,.19,1.65c-.19-.25-1-.5-1,.59s.78,1.21.94,1.88a1.06,1.06,0,0,0,.56.64,5.76,5.76,0,0,0,.47,1.8,4.54,4.54,0,0,0,2.18,1.32,2.17,2.17,0,0,0,1.26.59" transform="translate(0 0)"/><path class="cls-51" d="M1502.08,205.51a11.32,11.32,0,0,0,.6-1.19c2.32-5.93-5.27-7.81-8.2-4.82-1.15,1.18-1.68,3.08-.53,6.24.41-1.53-.68-5,2.06-5.36,1.18,1.51,1.58,1.46,5,2.83,1.12.45,1.12.89,1.07,2.3" transform="translate(0 0)"/><path class="cls-39" d="M1489.27,156.53c-.93,5.31-2.29,12.34-3.66,17.58l-5.31,1a1.58,1.58,0,0,1-.19-.81c.18-1.8.47-10.07.92-15,.66-7.17,2.53-8.09,4.41-8.47,2.16-.44,4.42,2.29,3.83,5.62" transform="translate(0 0)"/><path class="cls-39" d="M1486,191.21c-.46-3.82.33-11.49-.32-17.19-.36-3.16-2.33-4.24-3.24-3.53-1.54,1.19-2.54,1.87-2.24,5.54.41,5.06,2.42,13.47,2.9,15.85Z" transform="translate(0 0)"/><path class="cls-39" d="M1486,201.13h.07a3,3,0,0,0,.23-.65v-.07l0,0v0h0v-.14h0v-.07h0a11.49,11.49,0,0,0,.68-2.63c0-.93-.4-1.55-.91-4.17,0-.2-.23-1.19-.19-1.17l-.28-3.59-3.15-.52.49,3.12h0a10.06,10.06,0,0,0-.65,1.49c-.48,1.49.34,2.25.25,3.73h0a3.75,3.75,0,0,1-.23.93c-.17,0-.33.46-.43.71a1.26,1.26,0,0,0-.07.54v.07h0c0,.22-.18.62,0,.83a1.81,1.81,0,0,0,.23.2,5.65,5.65,0,0,0,.34.54c.18.24.51.35,1.19.57a1.53,1.53,0,0,0,.36.09h0l0,0c-.6,0-1-.25-1.4,0a.91.91,0,0,0-.4.34c.42.12,1,.3,1.48.46s.41.16.86,0c.17-.06,1.42-.45,1.49-.51m-2.48-4,.08.05c-.18.31-.36.62-.55.93s-.48.89-.52.92l-.06,0a6.86,6.86,0,0,0,.78-1.38c.1-.21.19-.38.27-.54m1,.57.19,0c-.39.76-.74,1.29-1.14,2l-.17-.08c.21-.32.51-.86.8-1.38l.32-.58m.87,1.36c-.09.32-.18.66-.26,1.07l-.75.49,0-.06c.33-.44.65-1,1-1.5" transform="translate(0 0)"/><path class="cls-39" d="M1503.18,201.59l-2.87-3.31c-4.09.3-6.26,1-7.18-3.8l2.62-1c.65,2.19.77,2.19,4.08,2,2.72-.18,2,2.79,3.35,6.13" transform="translate(0 0)"/><g class="cls-13"><g class="cls-52"><path class="cls-15" d="M394.56,188.93h-7.45a14.34,14.34,0,0,1-14.32-14.32V162.37h4.15v12.24a10.18,10.18,0,0,0,10.17,10.17h7.45Z" transform="translate(0 0)"/><path class="cls-15" d="M398.08,198.77l-.13-4.15h.13a11.11,11.11,0,0,0,11.1-11.1v-9.58h4.15v9.58a15.27,15.27,0,0,1-15.25,15.25" transform="translate(0 0)"/><path class="cls-15" d="M412.21,188.06l-.13-4.15h.13a11.11,11.11,0,0,0,11.1-11.1v-9.57h4.16v9.57a15.27,15.27,0,0,1-15.26,15.25" transform="translate(0 0)"/><rect class="cls-16" x="391.5" y="150.47" width="4.26" height="71.85"/><rect class="cls-15" x="395.76" y="150.47" width="4.26" height="71.85"/><path class="cls-19" d="M397.88,154.54a24.34,24.34,0,1,1-24.34-24.34,24.34,24.34,0,0,1,24.34,24.34" transform="translate(0 0)"/><path class="cls-18" d="M422.39,133.81a29.48,29.48,0,1,1-29.48-29.47,29.47,29.47,0,0,1,29.48,29.47" transform="translate(0 0)"/><path class="cls-17" d="M435.55,159.68a19.2,19.2,0,1,1-19.19-19.19,19.19,19.19,0,0,1,19.19,19.19" transform="translate(0 0)"/><path class="cls-15" d="M650,194.67h-9.42a17.56,17.56,0,0,1-17.55-17.54V161.65h4.15v15.48a13.41,13.41,0,0,0,13.4,13.39H650Z" transform="translate(0 0)"/><path class="cls-15" d="M653.55,187.18l-.16-4.15h.16a14.6,14.6,0,0,0,14.58-14.58v-4.53h4.15v4.53a18.75,18.75,0,0,1-18.73,18.73" transform="translate(0 0)"/><path class="cls-15" d="M667.76,179.41l-.17-2.08h.17a15.63,15.63,0,0,0,15.61-15.61v-4.53h2.07v4.53a17.71,17.71,0,0,1-17.68,17.69" transform="translate(0 0)"/><rect class="cls-16" x="646.16" y="134.51" width="5.38" height="90.8"/><rect class="cls-15" x="651.54" y="134.51" width="5.38" height="90.8"/><path class="cls-17" d="M703,144.21a25.74,25.74,0,1,1-25.74-25.73A25.73,25.73,0,0,1,703,144.21" transform="translate(0 0)"/><path class="cls-18" d="M685.19,113.46a37.25,37.25,0,1,1-37.25-37.25,37.25,37.25,0,0,1,37.25,37.25" transform="translate(0 0)"/><path class="cls-19" d="M651.76,144.69A25.74,25.74,0,1,1,626,119a25.73,25.73,0,0,1,25.74,25.74" transform="translate(0 0)"/><path class="cls-15" d="M539.54,198H534a10.68,10.68,0,0,1-10.67-10.67v-9.11h3.09v9.11a7.59,7.59,0,0,0,7.58,7.58h5.55Z" transform="translate(0 0)"/><path class="cls-15" d="M542.16,205.28l-.1-3.1h.1a8.27,8.27,0,0,0,8.26-8.26v-7.13h3.1v7.13a11.38,11.38,0,0,1-11.36,11.36" transform="translate(0 0)"/><path class="cls-15" d="M552.68,197.3l-.1-3.09h.1A8.28,8.28,0,0,0,561,186v-7.14H564V186a11.36,11.36,0,0,1-11.36,11.35" transform="translate(0 0)"/><rect class="cls-16" x="537.26" y="169.3" width="3.17" height="53.51"/><rect class="cls-15" x="540.43" y="169.3" width="3.17" height="53.51"/><path class="cls-19" d="M542,172.34a18.13,18.13,0,1,1-18.13-18.13A18.13,18.13,0,0,1,542,172.34" transform="translate(0 0)"/><path class="cls-18" d="M560.26,156.9a22,22,0,1,1-22-22,22,22,0,0,1,22,22" transform="translate(0 0)"/><path class="cls-17" d="M570.06,176.17a14.3,14.3,0,1,1-14.29-14.3,14.29,14.29,0,0,1,14.29,14.3" transform="translate(0 0)"/><path class="cls-15" d="M280.73,202h-6.06a11.29,11.29,0,0,1-11.29-11.28v-10h2.67v10a8.63,8.63,0,0,0,8.62,8.61h6.06Z" transform="translate(0 0)"/><path class="cls-15" d="M283,197.17l-.11-2.67H283a9.38,9.38,0,0,0,9.37-9.37v-2.92H295v2.92a12.05,12.05,0,0,1-12,12" transform="translate(0 0)"/><path class="cls-15" d="M292.13,192.17l-.11-1.33h.11a10.06,10.06,0,0,0,10.05-10.05v-2.91h1.33v2.91a11.39,11.39,0,0,1-11.38,11.38" transform="translate(0 0)"/><rect class="cls-16" x="278.24" y="163.29" width="3.46" height="58.41"/><rect class="cls-15" x="281.7" y="163.29" width="3.46" height="58.41"/><path class="cls-17" d="M314.81,169.53A16.56,16.56,0,1,1,298.26,153a16.55,16.55,0,0,1,16.55,16.55" transform="translate(0 0)"/><path class="cls-18" d="M303.35,149.75a24,24,0,1,1-24-24,24,24,0,0,1,24,24" transform="translate(0 0)"/><path class="cls-19" d="M281.84,169.84a16.56,16.56,0,1,1-16.55-16.56,16.55,16.55,0,0,1,16.55,16.56" transform="translate(0 0)"/></g></g><path class="cls-53" d="M919.31,237.15a6,6,0,0,1,.23-1.09c1.06-2.05,5-.48,9.2-2.34,2.38-1,4.62-3.08,4.27-4.09s-3.69-.87-5.63-.75c-9.93.57-27.17.48-34.39.37-3.27-.05-7.82-.31-8.26,1.15-.3,1,1.45,2.42,1.77,2.67,1.14.89,2,.92,5.16,1.78,3.47.93,4.09,1.34,4.46,2s.16.81.25,3c.1,2.61.12,4,.9,4.92a5.44,5.44,0,0,0,2.61,1.54,24.67,24.67,0,0,0,14.29.31c2.22-.62,4.55-2,4.94-4,.24-1.21-.3-2.53.2-5.42" transform="translate(0 0)"/><path class="cls-54" d="M899.68,230.28a3.33,3.33,0,0,0-2.62.87.4.4,0,0,0-.1.15c-.28.64.46,2.5,1.55,3.52.48.44,1.21.9,6.84,1,3-.2,6.83,0,10-.48a4,4,0,0,0,2.24-1.23c.89-.91,1.9-2.59,1.65-3.34a.56.56,0,0,0-.12-.18c-.84-1.12-3.46-.78-4.77-.62,0,0-2.88.33-5.48.41-2.26.07-5.91-.11-9.17-.14" transform="translate(0 0)"/><path class="cls-55" d="M869.66,113.11a3.08,3.08,0,0,0-4.47.71,2.88,2.88,0,0,0,1.28,3.5,3.4,3.4,0,0,0,2.45.12,3.92,3.92,0,0,0,1.86-.93,4.26,4.26,0,0,0,1-3c.09-1.56.28-3.7.73-6.61,0,0,.09-.75,2-.59a11.84,11.84,0,0,1,3.09.61c.4.14.72.27.94.37.06,6-.26,7.31-.59,7.34s-.34-.63-1-.93a2.19,2.19,0,0,0-2.92,2.1,3.18,3.18,0,0,0,3.26,2.44c2.45-.51,2.68-7.84,2.7-8.89,0,0,.71-4.65-.21-5s-5.58-1.11-7.21-.78c0,0-1,0-1.16.89s-.79,8.67-1.65,8.59" transform="translate(0 0)"/><path class="cls-56" d="M888.24,105.94a2.28,2.28,0,0,0-2.39-.18,2.45,2.45,0,0,0-1.16,2,2.8,2.8,0,0,0,2.13,2.66A3.07,3.07,0,0,0,890,109a4.26,4.26,0,0,0-.06-3.71,15.93,15.93,0,0,0-1.89-2.94c-1.53-2.28-1.66-2.7-1.5-3,.26-.53,1.13-.38,2.66-.71a11.38,11.38,0,0,0,3.36-1.29,3.14,3.14,0,0,1-1.24-.66c-.51-.46-.53-.82-.88-1-.52-.23-1.05.3-2,.88-2,1.18-3.23,1-3.42,1.78-.08.31.07.49.52,1.3a32.83,32.83,0,0,0,2.2,4.86,3.26,3.26,0,0,1,.52,1.47" transform="translate(0 0)"/><path class="cls-57" d="M824,244.39s-.45,1.49,0,2.15,2.81,1.91,5.89,1.65,4.06-1.25,4.91-2.56,1.77-3,3.15-3.67,1.57-.69,1.66-1a8.72,8.72,0,0,0,0-1.4Z" transform="translate(0 0)"/><path class="cls-57" d="M865,245.29l-15.58-4.78s0,1.23,0,1.41.29.29,1.67.94,2.29,2.36,3.14,3.67,1.83,2.3,4.91,2.56,5.44-1,5.89-1.65,0-2.15,0-2.15" transform="translate(0 0)"/><path class="cls-58" d="M831,237.3c-.19.08-4.45,4.86-5.89,5.87s-1.64,1.94,0,2.59,6.48.85,8.06-.26,3.07-3.54,4.45-4.49,1.9-1,2-1.4,0-2.37,0-2.37Z" transform="translate(0 0)"/><path class="cls-58" d="M863.88,244.08c-1.44-1-5.69-5.8-5.89-5.87l-8.58-.07s-.07,2,0,2.37.59.46,2,1.41,2.89,3.37,4.46,4.48,6.42.92,8,.26,1.44-1.57,0-2.58" transform="translate(0 0)"/><path class="cls-59" d="M832.72,173.92c-4.29,4.6-1.78,11.16-2.71,34.09-.19,4.65-.47,11.42-1.17,16.78-.06.51-.18,1.62-.4,3.84-.72,7-.64,7.65-.14,8.27,1,1.22,3.35,1.22,8.08,1.21,2.67,0,3.19-.27,3.53-.51,1-.71,1.46-2,2-7,.28-2.53.33-3.8.43-4.89s2.55-40,2.75-40.51,1.18-.28.93,2.67c-.47,5.62,0,32.77.67,36.64,0,.06.3,1.74.63,4,.13.88.17,1.16.18,1.32a34.26,34.26,0,0,1,.23,3.75c.09,3.35.13,5,.94,5.65s1.49.51,2.82.15c2.15-.58,8.8.59,9.31-1s-.19-3.22-.24-4.7c0-.77,0-.62,0-1.2a42.57,42.57,0,0,0-.51-5.17,3.51,3.51,0,0,1-.08-.91,52.14,52.14,0,0,0,0-7.48c-.17-5.87-1.44-45.82-1.44-45.82s-24.46-.62-25.84.85" transform="translate(0 0)"/><path class="cls-60" d="M838.1,126c-.2.1-7.6,2.54-9.11,5.48s-4.39,10.8-4.39,10.8l8.45,1.77.81-1.12s-.61,22.69-1.14,26.8-1,5.49-1,5.68,12-1.76,17.19,0,10.45-1.86,10.45-1.86l-2.16-29.83,5-3S861,131,857.84,129.44,838.1,126,838.1,126" transform="translate(0 0)"/><path class="cls-60" d="M852.86,109.14A27.56,27.56,0,0,0,851,105.4c-2-2.56-6.59-2.89-9.34-1.61s-3.91,3.31-4.45,6.11-1.38,3.7-1.38,3.7,11-6.62,17.08-4.46" transform="translate(0 0)"/><path class="cls-61" d="M851.52,121.61l.21,3.94s-4.13,2.33-6.76,1.71-1.29-5.26-1.29-5.26Z" transform="translate(0 0)"/><path class="cls-62" d="M840.82,122c.36,0,5,3.36,6.62,3.92s4-2.29,6-3.15,2.3-1.31,2.07,2.19-.7,8.4-2.33,10.86a18.33,18.33,0,0,0-2.28,5.54s-3.47-.66-4.39-3.54-3-4.08-4.27-5.64-4.81-10.62-1.45-10.18" transform="translate(0 0)"/><path class="cls-60" d="M850.65,136.52a.07.07,0,0,0,0-.13,1.22,1.22,0,0,0-.33-.14s0-.05-.05-.06a3.25,3.25,0,0,0-1.11-.07s.08-.06.11-.1a.1.1,0,0,0,0-.16l.19-.17a.09.09,0,0,0-.06-.14c-.13,0-.11,0-.07-.05l.12-.17a1.42,1.42,0,0,0,.32-.5l.33-.5c0-.06,0-.12-.1-.09a3.19,3.19,0,0,0-1.15,1.45l-.17.15v-.25a.05.05,0,0,0,0,0c0-.05,0-.14-.07-.27s-.07-.4-.11-.6c-.07-.4-.16-.8-.24-1.2,0-.07-.12,0-.12,0a16.17,16.17,0,0,0,.26,2.31,0,0,0,0,0,0,0l-.4-.62a.07.07,0,0,0-.12.07,5.44,5.44,0,0,0-.94-1.23c0-.05-.12,0-.09.07a16.26,16.26,0,0,0,1,1.56,2.94,2.94,0,0,1,.35.44,8.5,8.5,0,0,0-2.08-.13.08.08,0,1,0,0,.15l1.54.15.31,0h0a1.32,1.32,0,0,0-.28,0,.08.08,0,0,0,0,.13,2.72,2.72,0,0,0-.61.41.07.07,0,0,0,0,.11c0,.06,0,.12.12.09l.22-.08a7.75,7.75,0,0,0,1.15-.29l0,0a.09.09,0,0,0,.08,0,.09.09,0,0,0,.12.07h0l0,0a.05.05,0,0,0,0,0l.05,0a.64.64,0,0,0,.55-.12.11.11,0,0,0,0-.12l.35,0c.31,0,.56.16.86.11m-3.37-1.89s-.1-.13-.15-.2q.4.47.78,1a.06.06,0,0,0,.09,0,.31.31,0,0,0,.14.34l.08.13v0h0a14.35,14.35,0,0,1-.94-1.27" transform="translate(0 0)"/><path class="cls-60" d="M853.53,131.42c-.18.05-.22.05-.27.09a.15.15,0,0,1,0-.07,1.55,1.55,0,0,0,0-.21c.05-.17.11-.34.11-.33a2.84,2.84,0,0,0,.16-.57.81.81,0,0,0-.07-.51.06.06,0,0,0-.09,0,.43.43,0,0,0-.11.19,1.25,1.25,0,0,0-.09-.25c0-.08-.15,0-.14.07a6.24,6.24,0,0,1,.07,1c0,.1,0,.2,0,.3s0,0,0,0h0a.1.1,0,0,0-.08,0,5.84,5.84,0,0,0-1.25-1.23l-.08-.08s-.07,0-.06,0v0a.09.09,0,0,0,0,.13,1.67,1.67,0,0,0,.27.39,3.72,3.72,0,0,0,.89,1.06.13.13,0,0,0,.13,0l0,0-.08,0a1.09,1.09,0,0,0-.36-.06,6.33,6.33,0,0,0-1.88.27c-.08,0-.07.16,0,.15h0a0,0,0,0,0,.06.05l1.22-.07,0,0H852a.06.06,0,0,0,.07.06l.35-.07a.74.74,0,0,1,.25,0s-.5.25-.48.24l-.4.22-.71.29c-.07,0-.07.15,0,.14h0l-.31.21c-.05,0,0,.14,0,.11s1.33-.38,1.85-.63a1.52,1.52,0,0,0-.07.74.5.5,0,0,0,0,.13s0,.07.06.08c0,.2.07.39.1.56s.14.05.14,0l.06-.39a4.4,4.4,0,0,0,.24-1.31h0c0-.12.09-.25.13-.37s0-.06,0-.08a.75.75,0,0,0,.3-.18.08.08,0,0,0-.07-.14m-.11-1.22a1.81,1.81,0,0,1-.08.56v-.06a2.66,2.66,0,0,0,0-.49c0-.19.08-.32.09,0" transform="translate(0 0)"/><path class="cls-60" d="M847,127.92a9.15,9.15,0,0,1-.19,2c0,.1.13.19.18.08v0a.84.84,0,0,0,.06-.14l0,0a4.18,4.18,0,0,0,.36-1.5.11.11,0,0,0,0-.08l0-.55a.13.13,0,0,0,0-.15s0-.09,0-.25a.1.1,0,0,0-.07-.08l0-.38a.06.06,0,0,0-.1,0s0,0,0-.07a1.78,1.78,0,0,0-.18-.41.08.08,0,0,0-.07,0l-.23-.2a1.89,1.89,0,0,0-.74-.51h0c-.1,0-.15.11-.07.16l.85.64a1.49,1.49,0,0,1,.17.36.24.24,0,0,0-.09-.08.08.08,0,0,0-.13.05h0a2.79,2.79,0,0,0-1.87-1,.09.09,0,0,0-.08.13c.26.47,1,.54,1.42.81a3.14,3.14,0,0,1,.57.44,1.8,1.8,0,0,0,.09.28l0,0a3.23,3.23,0,0,0-3,0c-.07,0-.07.17,0,.16a10.51,10.51,0,0,1,1.86,0s.31,0,.54,0a0,0,0,0,0,.05.07h.23l.13,0a4.41,4.41,0,0,0-1.13,1.15c-.15.27-.29.61-.14.64-.08.1-.17.19-.24.29a.1.1,0,0,0,.08.15h.08a.09.09,0,0,0,.08-.05,3.26,3.26,0,0,0,.15-.44l.25-.16a9.62,9.62,0,0,0,1.19-1.33m-2.77-.5c.14,0,.65-.12.95-.18a.22.22,0,0,0,0,.08.08.08,0,0,0,0,.05l-1,0m1.4,1.76a2.39,2.39,0,0,1,.15-.37l.14-.19H846l.25-.16c-.21.23-.4.48-.6.72" transform="translate(0 0)"/><path class="cls-60" d="M849,128.59a8.35,8.35,0,0,1,1-.28,1.85,1.85,0,0,0,.52-.05.08.08,0,0,0,.07.05l.09,0a4.24,4.24,0,0,0-1.34,1.94c0,.09.1.14.15.06l.24-.29a.12.12,0,0,0,.09,0l1.22-1.27c.2-.15.4-.3.61-.44a.08.08,0,0,0,0-.15l.18-.19a.11.11,0,0,0,0-.11.27.27,0,0,0,.13-.27.11.11,0,0,0-.07-.1l-.16-.06a.09.09,0,0,0-.1,0c.32-.31.24-1.93.27-2.35,0-.1-.11-.13-.18-.08s-.2.41-.23.68,0,1.38,0,1.8l-.07-.07-.19-.24c-.14-.19-.27-.39-.4-.56s-.24-.28-.37-.42a1.33,1.33,0,0,0-.41-.47H850l-.13-.12c-.11-.1-.28.06-.17.17l.22.24c0,.6.49.92,1,1.26a.72.72,0,0,0,.15.59,3.67,3.67,0,0,0-2,.6.09.09,0,0,0,.07.16" transform="translate(0 0)"/><path class="cls-60" d="M851,140.73s0,0,0,0a11.7,11.7,0,0,0,.51-1.62c0-.08-.1-.11-.13,0l-.3.89h0c0-.52-.24-1.56-.6-1.41-.11.05-.07.14-.05.22.07.27.3.52.37.8a2.44,2.44,0,0,1,.06.93.93.93,0,0,0-.24-.33,1,1,0,0,0-.33-.19c-.14-.06-.42-.06-.56-.13l-.05,0c-.06,0-.13,0-.07.1a.32.32,0,0,0,.18.11l.11.06a.08.08,0,0,0,0,.08c.2.18.45.57.74.63a1.36,1.36,0,0,1,.13.24s0,.09,0,.13.11.14.15.06h0s.13,0,.12-.08a.77.77,0,0,0-.07-.26h0l0-.13" transform="translate(0 0)"/><path class="cls-60" d="M843.5,129.87a.11.11,0,0,0,0-.2,2.32,2.32,0,0,0-.44-.23l-.16-.06a6,6,0,0,1,1,0c.14,0,.17-.23,0-.25a13,13,0,0,0-1.59-.22,1.23,1.23,0,0,1,.14-.25c.09-.14.25-.27.36-.41a3.46,3.46,0,0,0,.52-.94.06.06,0,0,0,0-.07,1,1,0,0,0,.09-.21c0-.17-.15-.24-.26-.15a4.36,4.36,0,0,0-1.56,2.13,1.38,1.38,0,0,0-.41.19.07.07,0,0,0,.06.12,1.25,1.25,0,0,1,.29-.1c0,.08,0,.16-.05.24a.11.11,0,0,0,.21.06l0-.05h0c-.12.92,1,1.77,1.63,2.3.06.05.19,0,.15-.09-.13-.35-.28-.69-.44-1,0-.06-.21-.39-.33-.66a2.66,2.66,0,0,0,.45.2.08.08,0,0,0,.11-.08,1.14,1.14,0,0,1,.17.15,8.09,8.09,0,0,0,.74.57c.1.07.2-.08.12-.16a4.83,4.83,0,0,0-.9-.8m-1-1.39c.23-.32.46-.63.7-.93h0c0,.25-.4.66-.76,1l.05-.07m.49,2.29c.07.17.15.34.23.5s.09.23-.11,0a2.59,2.59,0,0,1-.64-.72,1.63,1.63,0,0,1-.18-1l.28.25c.14.32.27.65.42,1" transform="translate(0 0)"/><path class="cls-62" d="M852.86,109.14s-.6-2.66-1.91-3.74c-2-1.62-13,.7-13.56,3.5a17.08,17.08,0,0,1-1.61,4.7s11-6.62,17.08-4.46" transform="translate(0 0)"/><path class="cls-58" d="M838.42,114.26a47.38,47.38,0,0,0-4.55,15.26c-.1.75,1.08.74,1.18,0a45.73,45.73,0,0,1,4.39-14.67c.33-.68-.68-1.27-1-.59" transform="translate(0 0)"/><path class="cls-58" d="M837.34,116.36a.53.53,0,0,0-.41-.84.58.58,0,0,0-1-.37c-3.73,4.24-7.45,8-7.94,13.88-.06.75,1.11.75,1.18,0A15.84,15.84,0,0,1,833,120.4c-1.74,2.66-3.05,5.52-2.72,8.82.08.74,1.26.75,1.18,0-.5-5,3.13-9.07,5.92-12.86" transform="translate(0 0)"/><path class="cls-58" d="M837.86,122.3a.59.59,0,0,0-1.14-.31,24.38,24.38,0,0,0,.82,15.46c.28.69,1.42.39,1.14-.32a23.27,23.27,0,0,1-.82-14.83" transform="translate(0 0)"/><path class="cls-58" d="M838.5,121.68c-.72,1.75-.46,3.83-.48,5.68,0,2.33,0,4.65-.07,7a.59.59,0,0,0,1.18,0l.06-6.2c0-2-.3-4.31.44-6.15.29-.7-.85-1-1.13-.31" transform="translate(0 0)"/><path class="cls-58" d="M843.11,133.17c-1.57-.15-1.48-6.56-1.6-7.77a33.26,33.26,0,0,1-.26-7.91c.11-.74-1-1.06-1.13-.31-.53,3.69.13,7.46.5,11.14.19,2-.24,5.77,2.49,6,.76.07.75-1.11,0-1.17" transform="translate(0 0)"/><path class="cls-58" d="M841.32,120.41a30.44,30.44,0,0,1,3.22,13.24.59.59,0,0,0,1.18,0,31.86,31.86,0,0,0-3.39-13.84c-.33-.68-1.35-.08-1,.6" transform="translate(0 0)"/><path class="cls-58" d="M862.79,131a22,22,0,0,0-2.61-4.81c-.19-1-.42-2-.71-2.92-.44-1.46-1.1-2.87-1.62-4.32a.64.64,0,0,0,.68-.89,35.52,35.52,0,0,0-4.76-7.46c-.48-.59-1.31.25-.83.83a33.72,33.72,0,0,1,3.38,4.94.63.63,0,0,0-.23.6c.34,2.07,1.4,4,2,5.95l.06.22a13.68,13.68,0,0,1-1.91-4.82.47.47,0,0,0-.46-.42c-.17-.77-.34-1.55-.49-2.32a.63.63,0,0,0,0-.52c-.17-.34-.35-.68-.53-1a.6.6,0,0,0-.81-.22.61.61,0,0,0-.21.81l.09.18a.57.57,0,0,0-.7.39c-.82,2.69-.82,5.61-1.43,8.36-.54,2.45-1.22,4.73-.87,7.25.1.75,1.23.43,1.13-.31-.37-2.73.66-5.4,1.18-8.05,0,1.82.16,3.62.26,5.44.13,2.43.51,5.17-.21,7.53a.59.59,0,0,0,1.14.31c1.46-4.8-.48-10.19.1-15.12.07-.58-.6-.7-1-.4a28.52,28.52,0,0,1,.71-4.36v0c.45,2.25,1,4.49,1.53,6.71a.55.55,0,0,0-.81.51q.08,1,.24,1.89a.6.6,0,0,0-.64.73,78.44,78.44,0,0,1,1.65,9.75c.08.75,1.26.75,1.18,0-.22-2.13-.54-4.24-.93-6.35a17.92,17.92,0,0,0,3.24,4.87c.52.55,1.36-.28.84-.84a15.89,15.89,0,0,1-1.87-2.41.53.53,0,0,0,.47-.71q-1-3.1-1.83-6.24c.56.92,1.19,1.82,1.79,2.72.2,1,.36,2,.48,3.07.08.75,1.26.75,1.18,0,0-.16-.05-.33-.07-.49a15.54,15.54,0,0,1,1,2.23c.25.71,1.39.4,1.13-.32m-5.5-2.81a16,16,0,0,1-1-3.42c.31,1.14.64,2.29,1,3.42" transform="translate(0 0)"/><path class="cls-61" d="M844.52,109.68s-3.15-.37-3.64,3.91,1.57,8.9,3.44,9.93c3.12,1.71,6.42,2.3,8.54-4,.52-1.55.2-7.17-.3-8.21s-5-2.51-8-1.62" transform="translate(0 0)"/><path class="cls-63" d="M842.89,132.74a52.1,52.1,0,0,0-.45-8.82c-.24-1.28-.52-2.54-.74-3.82a.56.56,0,0,0,.16-.4,37.64,37.64,0,0,1,.88-7.7c.16-.74-1-1-1.14-.31,0,.16-.06.32-.1.48a.54.54,0,0,0-.38,0,2.34,2.34,0,0,0-1.42,1.35v0c-.11-.75-1.25-.43-1.14.31a10.22,10.22,0,0,1,.11,1.23.56.56,0,0,0-.63.56c0,2.2-.87,4.13-1.54,6.18a41.34,41.34,0,0,0-1.41,5.81c-.09.57-.17,1.13-.25,1.7a16.34,16.34,0,0,1,.28-4.74c.77-3.63,2.32-7,3.41-10.56a.59.59,0,0,0-1.14-.31c-.14.45-.29.9-.44,1.35h0a.58.58,0,0,0-.93-.18,20.23,20.23,0,0,0-5.66,18.1c.14.74,1.27.43,1.14-.31a19,19,0,0,1,4.69-16.26A22.59,22.59,0,0,1,834,121.1a11.79,11.79,0,0,0-1.76,3.85,18.53,18.53,0,0,0,0,4.34,12.51,12.51,0,0,1-1.08,6.09c-.32.68.7,1.28,1,.59a13.23,13.23,0,0,0,1.19-4c.23-1.84-.16-3.65-.09-5.49a7.73,7.73,0,0,1,1-3.34,25.13,25.13,0,0,0-.51,2.47,21.6,21.6,0,0,0,.79,8.56,12.5,12.5,0,0,1-.81,5.17c-.31.69.71,1.29,1,.6a11.94,11.94,0,0,0,.88-3.1.58.58,0,0,0,.62-.73q-.19-.8-.39-1.56a60.87,60.87,0,0,1,.4-6.69,41.35,41.35,0,0,1,1.1-4.78c-.14.62-.28,1.25-.38,1.88a35.87,35.87,0,0,0,.2,10.24.56.56,0,0,0,.17.36,9.35,9.35,0,0,0,.54,4.66c.27.7,1.41.39,1.13-.31-1.13-2.82-.34-5.59.45-8.37a32.76,32.76,0,0,1,.33,4.85.59.59,0,0,0,1.18,0,48.11,48.11,0,0,0-.75-7.77c.16-.73.3-1.45.42-2.18a64,64,0,0,0,1.09,6.36c0,.15,0,.31,0,.46a.52.52,0,0,0,.25.47,17.33,17.33,0,0,0,1.46,3.56c.37.66,1.38.07,1-.6a17.14,17.14,0,0,1-1.55-4M838,132.2a29,29,0,0,1,.49-8.95c0-.07,0-.14,0-.21a26.82,26.82,0,0,0,.2,3.47q.11.93.24,1.86c-.29,1.27-.62,2.54-1,3.83m2.29-12.74a.63.63,0,0,0-.16-.25q0-.42,0-.84c.07.5.16,1,.26,1.48-.05-.13-.08-.26-.13-.39" transform="translate(0 0)"/><path class="cls-63" d="M862.93,130.15a16.28,16.28,0,0,0-2.11-5.27l-1-1.67a16.14,16.14,0,0,0-2-5.77c-1.15-2.38-3.15-4.25-4.1-6.73-.24-.63-1.19-.45-1.18.11a6.75,6.75,0,0,0-.8-.67c-.62-.43-1.21.59-.59,1a5.13,5.13,0,0,1,1.75,2.24.57.57,0,0,0-.17.56c.65,3-.5,6.48-.81,9.5-.23,2.29-.79,4.95.51,7,.4.64,1.42,0,1-.59-1.34-2.12-.54-5.64-.17-8.12a27,27,0,0,0,2.09,7.9,18,18,0,0,0-.47,4.19c0,.76,1.21.76,1.18,0a14,14,0,0,1,.16-2.59,14,14,0,0,0,2.38,2.89l.12.08a3.75,3.75,0,0,1-.43,1.86.59.59,0,0,0,1,.59c.87-1.52.49-3.17.19-4.83-.11-.62-.24-1.24-.38-1.86l.06.1c.36.67,1.38.07,1-.59A22.44,22.44,0,0,1,857.6,122c.36.56.76,1.09,1.06,1.58,0,.12,0,.25,0,.36a.52.52,0,0,0,.56.57,18.22,18.22,0,0,1,2.58,6c.13.75,1.26.43,1.13-.31m-8.52-16c.11.15.21.3.32.44a.82.82,0,0,0-.16.25c-.05-.23-.1-.46-.16-.69m.3,1.44c.14.37.28.74.4,1.11a.58.58,0,0,0-.15.52,57,57,0,0,1,.92,7.25c-.41-2.9-.72-5.81-1.15-8.71,0-.06,0-.11,0-.17m1.07,11.89c-.19-.53-.35-1.08-.49-1.63a.68.68,0,0,0,.61-.35v.41a11.73,11.73,0,0,1-.12,1.57m1.44-8.87a.57.57,0,0,0-.29,0c-.1-.38-.2-.75-.31-1.13.2.36.41.74.6,1.13M858,130c.17.71.41,1.54.59,2.39a13.62,13.62,0,0,1-2-3c.18-1,.35-1.94.44-2.92.35,1.15.67,2.31.94,3.49" transform="translate(0 0)"/><path class="cls-58" d="M841.51,111.72c0,.15-.09.3-.13.45a.51.51,0,0,0-.67.11,6.63,6.63,0,0,0-.87,1.27.61.61,0,0,0-1.11-.39,30.72,30.72,0,0,0-5.19,15.64c0,.76,1.14.76,1.18,0a29.43,29.43,0,0,1,4.94-14.9,21.67,21.67,0,0,0-1.45,5.18,37.76,37.76,0,0,0-.65,8.94c0,.76,1.21.76,1.18,0a36.68,36.68,0,0,1,.47-7.9,20.12,20.12,0,0,1,1.63-6c-1.43,5.57-2,11.35,0,16.89.25.71,1.39.4,1.13-.31-2.24-6.16-1.12-12.57.68-18.69a.59.59,0,0,0-1.13-.31" transform="translate(0 0)"/><path class="cls-58" d="M859,124.77a50.25,50.25,0,0,0-2.43-8.69A15.37,15.37,0,0,0,852,110a.62.62,0,0,0-1,.21.64.64,0,0,0-.13,1.1c4.49,3.33,3.09,9.78,3.53,14.58.07.75,1.25.76,1.18,0-.32-3.49.14-7.49-.87-10.87a14.4,14.4,0,0,1,1.16,2.6,60.64,60.64,0,0,1,2,7.51c.14.74,1.28.42,1.14-.32" transform="translate(0 0)"/><path class="cls-64" d="M835.57,114.2c0,.59.35,2.6,1.92,1.37s4.17-4.12,8.1-4.81,7.91.49,8.2,0,1-1.78-.93-2.55c-5.53-2.23-17.12,1.38-17.29,6" transform="translate(0 0)"/><path class="cls-65" d="M871.57,132.67s-.34,0,0-.47a40.68,40.68,0,0,1,4.08-3,.6.6,0,0,0,.44.37,1.88,1.88,0,0,1,1.72.95,2.21,2.21,0,0,1,.2,1.88,10.53,10.53,0,0,0,.29,1.05s-4.64,2.88-4.91,2.76a28.32,28.32,0,0,1-1.82-3.52" transform="translate(0 0)"/><path class="cls-66" d="M856.3,146.37s2.11,5.73,3.58,7.48,2.9,2.19,3.64,2.15-.25-8.6-.25-8.6l-1.28-5s-6.62,2.92-5.69,4" transform="translate(0 0)"/><path class="cls-67" d="M850.74,112.49a2.48,2.48,0,0,0-2.44,2.11l-.28,0a2.87,2.87,0,0,0-1.09.1,2.42,2.42,0,1,0,0,.39,2.78,2.78,0,0,1,.63-.11s.43,0,.68,0a2.47,2.47,0,1,0,2.46-2.5" transform="translate(0 0)"/><path class="cls-68" d="M857.22,146.81s-1.38-4.31-4.92-5.56-5.73-1-7.78,1.24-3,3.14-6.42,3.21-8.59.91-10.62,3.67-2.29,8.31-.78,11.32,5.63,7.73,8,8.91,9,.66,10.94-1.9,2.18-7.07,3.94-8.45,5.4-2.1,7-3.9,2-5.2.6-8.54" transform="translate(0 0)"/><polygon class="cls-69" points="848.22 147.06 871.57 132.67 873.39 135.9 850.93 150.74 848.22 147.06"/><path class="cls-59" d="M852.86,150.25a4.7,4.7,0,1,0-4.69,4.37,4.54,4.54,0,0,0,4.69-4.37" transform="translate(0 0)"/><path class="cls-69" d="M839.82,161.2l-5-8.67a1,1,0,0,0-1.44-.39l0,0a1.06,1.06,0,0,0-.38,1.44l5,8.67a1.06,1.06,0,0,0,1.44.38l0,0a1,1,0,0,0,.39-1.43" transform="translate(0 0)"/><path class="cls-58" d="M852,150.25a3.87,3.87,0,1,0-3.87,3.6,3.74,3.74,0,0,0,3.87-3.6" transform="translate(0 0)"/><path class="cls-61" d="M825.52,142.42c-.1.16-3.82,8.45-3.72,9.48s2.08,3.9,4.69,5.62,12.63,5.55,13.19,6a30.25,30.25,0,0,1,3,3.05c.49.57,1.52,2,1.43,2.36s1.54,0,2.13-2.15a4.34,4.34,0,0,0-1.52-4.47c-.75-.54.49.2,1.32,0s1.13-.34-.83-.88-3.39-2-5.06-2.26-10-7.37-10.56-7.91,2-4.95,3.47-7.28Z" transform="translate(0 0)"/><path class="cls-62" d="M839.62,158a.59.59,0,0,0-.9.12c-.39.55-.27,1.35-.53,2a4.47,4.47,0,0,1-1.17,1.7c-.73.63.21,1.84,1,1.32a4.64,4.64,0,0,0,1.71-2.36c.3-.78.64-2.15-.13-2.76" transform="translate(0 0)"/><path class="cls-64" d="M838.87,157.6a.66.66,0,0,0-1,.13c-.33.65-.41,1.39-.76,2.06a5,5,0,0,1-1.26,1.65c-.92.74.38,2,1.3,1.29a5.82,5.82,0,0,0,1.68-2.4c.39-.92.73-1.88.07-2.73" transform="translate(0 0)"/><path class="cls-60" d="M837.7,157.21a.3.3,0,0,0-.46.06,16.88,16.88,0,0,1-1.15,2.08,10,10,0,0,0-1.5,2.08.67.67,0,0,0,.83.83,4.6,4.6,0,0,0,2.31-2.44c.43-.83.8-1.91,0-2.61" transform="translate(0 0)"/><path class="cls-66" d="M860.61,154.62s-.58-2.7,2.66-7.22a36.19,36.19,0,0,0,4.09-7.52c.26-.17-.79-4.13-1.15-3.91l-1.13.7a1.54,1.54,0,0,1,.5-1.43,7.91,7.91,0,0,1,3-1.27c.68-.12.88-.38,1.57.46a7,7,0,0,1,.93,4.87c-.25,2.21-4.26,13-5.22,14.55s-1.77,4.55-5.25.77" transform="translate(0 0)"/><path class="cls-70" d="M831.89,183.15c-.29,3.84-1.33,8.65-.66,9.36s7.09.17,8.19-.61.67-8.24.67-8.24Z" transform="translate(0 0)"/><path class="cls-70" d="M859.66,198.73l-8.2.52s-1.1,8.59,0,9.38,7.54,0,8.21-.72.28-5.33,0-9.18" transform="translate(0 0)"/><path class="cls-71" d="M831.89,183.15c-.14,1.95,2.8,4,5.56,3.25s2.64-2.74,2.64-2.74Z" transform="translate(0 0)"/><path class="cls-71" d="M851.46,199.24s-.13,2,2.63,2.74,5.71-1.29,5.57-3.25Z" transform="translate(0 0)"/><path class="cls-72" d="M835.79,184.94a.58.58,0,1,0,.59.58.58.58,0,0,0-.59-.58" transform="translate(0 0)"/><path class="cls-72" d="M855.75,200.52a.59.59,0,1,0,.58.59.58.58,0,0,0-.58-.59" transform="translate(0 0)"/><polygon class="cls-73" points="938.55 248.85 938.74 265.49 943.19 265.3 945.13 249.24 938.55 248.85"/><polygon class="cls-74" points="937.91 262.96 944.31 262.99 946.35 268.54 933.27 268.54 937.91 262.96"/><rect class="cls-10" x="933.27" y="268.54" width="13.08" height="2.3"/><polygon class="cls-73" points="916.32 249.5 917.69 261.36 913.21 265.07 923 264.67 922.62 262.74 923.38 249.5 916.32 249.5"/><path class="cls-74" d="M923.88,268.72l-1.25-6s-.2,1.63-2.86,1.64-3.32-1.84-3.56-1.75l-11.2,3.5-.63,2.64,16.88,1.19Z" transform="translate(0 0)"/><polygon class="cls-10" points="923.97 270.84 900.96 270.84 900.87 268.72 923.88 268.73 923.97 270.84"/><path class="cls-10" d="M900.87,268.71c-.21-3.18,4.14-2.64,4.14-2.64l1.16,2.64Z" transform="translate(0 0)"/><polygon class="cls-10" points="909.15 264.55 909.62 265.86 910.25 265.59 909.65 264.39 909.15 264.55"/><polygon class="cls-10" points="911.02 263.91 911.49 265.23 912.12 264.96 911.53 263.75 911.02 263.91"/><polygon class="cls-10" points="912.9 263.28 913.37 264.6 914 264.33 913.41 263.12 912.9 263.28"/><polygon class="cls-10" points="914.78 262.65 915.25 263.96 915.88 263.7 915.28 262.49 914.78 262.65"/><path class="cls-75" d="M934.15,234.08c.21,3.33,1.66,27.78,1.66,27.78l9,1.83s1.33-24.92.25-35.83c-.78-7.9-11.59-4.29-10.93,6.22" transform="translate(0 0)"/><path class="cls-75" d="M944.91,227.87c-.44-6.4-2.27-23.23-3.38-31.24-1.29-9.32-18.5-7.76-15.28,4.32,1.86,7,7.77,25.1,7.77,25.1s0,2.67.34,2.83c.85,5.22,11.15,7.53,10.55-1" transform="translate(0 0)"/><path class="cls-75" d="M925.29,234.08c-.2,3.33-1.09,30.11-1.09,30.11l-8.88-2.52s-2-22.9-1-33.81c.78-7.9,11.59-4.29,10.93,6.22" transform="translate(0 0)"/><path class="cls-75" d="M915,229c-.86-6.36-1.53-24.12-2.07-32.18-.62-9.39,15.6-10.47,14.89,2-.41,7.21-2.52,26.16-2.52,26.16l.24,2.84c.23,5.29-9.39,9.65-10.54,1.17" transform="translate(0 0)"/><path class="cls-76" d="M912.46,195.89c2.08-17.21-.53-32.15-3.5-39.66s21.24-11.83,25.26-6.66,9.54,37.46,7,45-28.72,1.29-28.72,1.29" transform="translate(0 0)"/><path class="cls-73" d="M918.41,151.08c.46.15,2.75.84,4.2-.38a3.8,3.8,0,0,0,1.14-2.54,27.71,27.71,0,0,0-.5-9.45h-7.2a17.38,17.38,0,0,0,.58,8.62,16.85,16.85,0,0,0,1.78,3.75" transform="translate(0 0)"/><path class="cls-73" d="M910.16,131.53c-1.17,3.81-1.09,4.55-.47,5.66a1.78,1.78,0,0,1,.24.76,4.86,4.86,0,0,1-.38,2c-.76,1.53,0,6.82,2.79,8.07,2.32,1.05,5.23-1.08,6.55-2,3.32-2.41,8-7.84,5.39-11.45s-2.14-4.37-5.6-4.72-8.52,1.77-8.52,1.77" transform="translate(0 0)"/><path class="cls-77" d="M924,144.18c-4.15,1.53-4.5,2.5-6.5-1.25s-2.36-7-3.46-6.66-1,3.26-1,3.26l-.9-.21s-.14-2.22-.34-4.44-3.19-3-4.22-2.22c.76-3,2.22-3.62,5.47-4.59s5.44-2.82,9.69.25a8.41,8.41,0,0,1,2.68,10.38,24.84,24.84,0,0,0-1.38,5.48" transform="translate(0 0)"/><path class="cls-76" d="M910.28,185.12c-3-.36-3.43-3.84-3-9.88s-2.16-12.3.11-18.19c2-5.05,10.1-5.39,10,1.45s-1.77,20.31-3.46,24-3.66,2.6-3.66,2.6" transform="translate(0 0)"/><polygon class="cls-78" points="1193.5 243.28 1208.47 243.28 1204.19 197.5 1204.19 94.09 1197.78 94.09 1197.78 197.5 1193.5 243.28"/><path class="cls-78" d="M1171,66.25a30,30,0,1,0,30-30,30,30,0,0,0-30,30" transform="translate(0 0)"/><path class="cls-79" d="M1201,92.48a26.23,26.23,0,1,0-26.23-26.23A26.26,26.26,0,0,0,1201,92.48" transform="translate(0 0)"/><polygon class="cls-10" points="1203.74 46.2 1202.97 46.2 1202.34 45.09 1202.2 44.71 1202.06 45.09 1201.43 46.2 1200.59 46.2 1201.68 44.34 1200.65 42.6 1201.41 42.6 1201.99 43.64 1202.11 44.01 1202.23 43.64 1202.79 42.6 1203.64 42.6 1202.63 44.37 1203.74 46.2"/><rect class="cls-10" x="1199.45" y="42.6" width="0.71" height="3.6"/><rect class="cls-10" x="1197.99" y="42.6" width="0.71" height="3.6"/><rect class="cls-10" x="1189.64" y="45.72" width="0.71" height="3.6"/><rect class="cls-10" x="1182.42" y="53.68" width="0.7" height="3.6"/><rect class="cls-10" x="1180.95" y="53.68" width="0.71" height="3.6"/><rect class="cls-10" x="1180.24" y="64.55" width="0.7" height="3.6"/><rect class="cls-10" x="1178.77" y="64.55" width="0.71" height="3.6"/><rect class="cls-10" x="1177.31" y="64.55" width="0.71" height="3.6"/><rect class="cls-10" x="1183.44" y="75.41" width="0.7" height="3.6"/><polygon class="cls-10" points="1182.29 75.41 1183.11 75.41 1181.76 79.03 1181.26 79.03 1179.92 75.41 1180.66 75.41 1181.35 77.52 1181.46 78.14 1181.48 78.14 1181.58 77.52 1182.29 75.41"/><polygon class="cls-10" points="1190.77 83.37 1191.59 83.37 1190.24 86.99 1189.73 86.99 1188.4 83.37 1189.14 83.37 1189.83 85.48 1189.93 86.09 1189.96 86.09 1190.05 85.48 1190.77 83.37"/><polygon class="cls-10" points="1201.95 86.28 1202.77 86.28 1201.43 89.91 1200.92 89.91 1199.59 86.28 1200.33 86.28 1201.02 88.39 1201.12 89.01 1201.14 89.01 1201.24 88.39 1201.95 86.28"/><rect class="cls-10" x="1198.55" y="86.28" width="0.7" height="3.6"/><polygon class="cls-10" points="1213.99 83.4 1214.8 83.4 1213.46 87.02 1212.96 87.02 1211.62 83.4 1212.36 83.4 1213.05 85.5 1213.15 86.12 1213.17 86.12 1213.27 85.51 1213.99 83.4"/><rect class="cls-10" x="1210.58" y="83.4" width="0.71" height="3.6"/><rect class="cls-10" x="1209.11" y="83.4" width="0.71" height="3.6"/><polygon class="cls-10" points="1222.45 75.4 1223.27 75.4 1221.92 79.03 1221.42 79.03 1220.08 75.4 1220.82 75.4 1221.51 77.51 1221.62 78.13 1221.64 78.13 1221.73 77.51 1222.45 75.4"/><rect class="cls-10" x="1219.04" y="75.4" width="0.71" height="3.6"/><rect class="cls-10" x="1217.58" y="75.4" width="0.7" height="3.6"/><rect class="cls-10" x="1216.12" y="75.4" width="0.7" height="3.6"/><rect class="cls-10" x="1224.04" y="64.55" width="0.7" height="3.6"/><polygon class="cls-10" points="1223.61 68.15 1222.85 68.15 1222.21 67.04 1222.07 66.66 1221.93 67.04 1221.3 68.15 1220.46 68.15 1221.55 66.28 1220.52 64.55 1221.28 64.55 1221.86 65.59 1221.98 65.95 1222.11 65.59 1222.66 64.55 1223.51 64.55 1222.51 66.32 1223.61 68.15"/><polygon class="cls-10" points="1221.27 57.28 1220.5 57.28 1219.86 56.17 1219.73 55.79 1219.59 56.17 1218.96 57.28 1218.12 57.28 1219.21 55.42 1218.17 53.68 1218.94 53.68 1219.52 54.72 1219.64 55.08 1219.76 54.72 1220.31 53.68 1221.16 53.68 1220.16 55.45 1221.27 57.28"/><polygon class="cls-10" points="1213.88 49.32 1213.11 49.32 1212.47 48.21 1212.34 47.83 1212.2 48.21 1211.57 49.32 1210.73 49.32 1211.82 47.46 1210.78 45.73 1211.55 45.73 1212.13 46.76 1212.25 47.13 1212.38 46.76 1212.93 45.73 1213.77 45.73 1212.77 47.49 1213.88 49.32"/><rect class="cls-10" x="1209.59" y="45.72" width="0.71" height="3.6"/><path class="cls-10" d="M1200.55,66.38c6.45,3.75,6.68,4.08,6.57,4.26s-.51.16-7-3.59-11.6-6.94-11.5-7.12,5.43,2.7,11.89,6.45" transform="translate(0 0)"/><path class="cls-10" d="M1194.84,62.65a.75.75,0,1,1-1,.27.76.76,0,0,1,1-.27" transform="translate(0 0)"/><path class="cls-10" d="M1197,63.48a1.12,1.12,0,0,1,.4,1.51,1.09,1.09,0,0,1-1.5.39,1.1,1.1,0,1,1,1.1-1.9" transform="translate(0 0)"/><path class="cls-10" d="M1203,64c-3,5.2-3.34,5.34-3.58,5.2s-.29-.5,2.71-5.7,5.64-9.31,5.88-9.17-2,4.46-5,9.67" transform="translate(0 0)"/><path class="cls-10" d="M1205.06,61.71a1.13,1.13,0,1,1-.41-1.55,1.13,1.13,0,0,1,.41,1.55" transform="translate(0 0)"/><path class="cls-10" d="M1206,59.65a.92.92,0,1,1-.34-1.26.92.92,0,0,1,.34,1.26" transform="translate(0 0)"/><path class="cls-10" d="M1203.76,63.55a.93.93,0,0,0-.34-1.26.93.93,0,0,0-.93,1.6.92.92,0,0,0,1.27-.34" transform="translate(0 0)"/><path class="cls-78" d="M1200.73,67.87a1,1,0,1,1,1-1,1,1,0,0,1-1,1" transform="translate(0 0)"/><path class="cls-78" d="M1201,102.1a35.89,35.89,0,0,0,35.85-35.85h-2.14a33.71,33.71,0,0,1-67.42,0h-2.14A35.89,35.89,0,0,0,1201,102.1" transform="translate(0 0)"/><path class="cls-78" d="M1163.35,65.31a2.86,2.86,0,1,0,2.86-2.86,2.86,2.86,0,0,0-2.86,2.86" transform="translate(0 0)"/><path class="cls-78" d="M1238.63,65.31a2.86,2.86,0,1,1-2.86-2.86,2.86,2.86,0,0,1,2.86,2.86" transform="translate(0 0)"/><rect class="cls-79" x="1196.53" y="196.13" width="8.91" height="5.09"/><rect class="cls-79" x="1192.25" y="242.79" width="17.46" height="5.09"/><path class="cls-80" d="M725.51,262.94c-1.5.13-1.89.28-2,.94a7.16,7.16,0,0,0,1,2.5s2.86-.89,2.83-.94-1.84-2.5-1.84-2.5" transform="translate(0 0)"/><path class="cls-81" d="M722.84,268.78h3.09a.55.55,0,0,0,.55-.56v-1a.55.55,0,0,0-.55-.55H723.4a.56.56,0,0,0-.56.55Z" transform="translate(0 0)"/><path class="cls-8" d="M715.47,194.75c-2.64-6.72-4.31-18.46-6.77-21.8s-4.94-1.46-5.41.52,4.62,15.24,9.05,20.88,3.13.4,3.13.4" transform="translate(0 0)"/><polygon class="cls-8" points="730.06 241.94 727.66 261 732.87 264.84 722.23 265.38 722.83 261.08 723.29 240.96 730.06 241.94"/><path class="cls-82" d="M721.85,268.71a46.89,46.89,0,0,1,.48-6.29s.34,1.7,3.26,1.69,3.52-1.95,3.79-1.86S742,265.82,742,265.82l.9,2.88-18.51,1.24s-2.51.73-2.51-1.23" transform="translate(0 0)"/><rect class="cls-10" x="721.4" y="268.24" width="23.8" height="2.13" transform="translate(-0.37 1.02) rotate(-0.08)"/><path class="cls-10" d="M745.2,268.7c0-3.32-3.51-2.88-3.51-2.88l-.79,2.89Z" transform="translate(0 0)"/><polygon class="cls-10" points="737.31 264.26 736.89 265.64 736.17 265.37 736.74 264.1 737.31 264.26"/><polygon class="cls-10" points="735.2 263.62 734.77 264.99 734.06 264.72 734.63 263.46 735.2 263.62"/><polygon class="cls-10" points="733.08 262.97 732.66 264.35 731.95 264.07 732.51 262.81 733.08 262.97"/><polygon class="cls-10" points="730.97 262.32 730.55 263.7 729.83 263.43 730.4 262.16 730.97 262.32"/><path class="cls-83" d="M725.16,188.56c2.54-7.38,10.89-2,12,2.63,3,12.06-1.82,33.11-2.19,37.66-.5,6.28-10.34,11.93-10.47-1.25-.19-18.62-2.31-30.44.64-39" transform="translate(0 0)"/><path class="cls-83" d="M724.85,224.85c-.82,5.7-3.26,34.43-3.26,34.43l6.55.94s7-30.31,7.23-34.2-9.71-6.83-10.52-1.17" transform="translate(0 0)"/><polygon class="cls-8" points="720.61 247.34 717.45 265.46 713.17 265.04 713.98 247.56 720.61 247.34"/><polygon class="cls-82" points="718.53 262.69 712.4 262.72 707.52 269.08 719.21 269.17 718.53 262.69"/><rect class="cls-10" x="707.52" y="268.79" width="11.69" height="2.12"/><path class="cls-83" d="M715.6,188.05c3.11-7.15,11-1.1,11.77,3.58,2,12.25-4.44,32.86-5.17,37.36-1,6.22-10.9,9.27-10-3.87,1.29-18.59-.25-28.73,3.38-37.07" transform="translate(0 0)"/><path class="cls-83" d="M712.22,225.12c-.19,5.75.53,34.58.53,34.58l6.62.21S723,229,722.8,225.13s-10.4-5.73-10.58,0" transform="translate(0 0)"/><path class="cls-8" d="M704.78,176.14c2.71.86,4.47-2,6.47-7.36s7.13-9.14,7.38-15.13-7-9.28-9.62-3.34-5.93,18.31-5.91,22.19,1.68,3.64,1.68,3.64" transform="translate(0 0)"/><path class="cls-84" d="M734.79,145.82a32.39,32.39,0,0,0-11.28-1.74c-.68,0-1.44.07-2.26.15-3.42.3-3.42.3-10,2.6-7.47,2.62,1.33,45.76,1.33,45.76s-.44,7.5,9,7.5c16,0,17.6-2.37,17.6-2.37s-1.32-19.12-1.82-29.17c0,0,8.3-14.66,1.38-20.5a25,25,0,0,0-4-2.23" transform="translate(0 0)"/><polygon class="cls-8" points="733.18 129.47 725.99 128.6 720.46 145.42 727.21 147.64 733.18 129.47"/><path class="cls-8" d="M728.6,124.63a9.53,9.53,0,0,1,5.84,1.07c2.32,1.58,2.9,4.07,3.29,5.74a10.07,10.07,0,0,1-.3,6.64c-1.12,2.52-3.91,5.44-7.36,5.3-4.23-.17-7.81-4.84-7.44-8.67.44-4.57,2.63-9.55,6-10.08" transform="translate(0 0)"/><path class="cls-8" d="M716.82,144.85c2.44-.41,5.24-1.36,7.13-1.36a46.62,46.62,0,0,1,7.95,1.42c-.45,3.05-3.59,5.65-7.4,5.65-4,0-7.55-2.4-7.68-5.71" transform="translate(0 0)"/><path class="cls-8" d="M744.32,178.36c2.66-1,2.28-4.33.49-9.8s-.11-11.59-3.64-16.43-11.27-2.9-9.61,3.37,6.75,18,9.18,21.05,3.58,1.81,3.58,1.81" transform="translate(0 0)"/><path class="cls-8" d="M742.35,173.16c-1.16,2.47-.81,3.55-.5,4.1a3.23,3.23,0,0,0,3.36,1.41c4.12-.77,10.3-10.41,15-16.28.84-1,2.35-2.69,1.86-3.6s-2.94-.83-4.73,0a8,8,0,0,0-3.28,3c-4.27,6.06-8.91,5.41-11.7,11.39" transform="translate(0 0)"/><path class="cls-8" d="M764.63,153.13h0a.65.65,0,0,1-.91-.15l-2.29-3.24a.67.67,0,0,1,.16-.92.66.66,0,0,1,.92.16l2.28,3.24a.65.65,0,0,1-.16.91" transform="translate(0 0)"/><path class="cls-8" d="M764.38,152.48h0a.65.65,0,0,1-.77-.52l-.74-3.9a.66.66,0,0,1,1.29-.25l.74,3.9a.66.66,0,0,1-.52.77" transform="translate(0 0)"/><path class="cls-8" d="M761.93,159.81l2.71-4.68a1.87,1.87,0,0,0,.2-.53l1.32-7a.29.29,0,0,0-.27-.34,1.18,1.18,0,0,0-1.21.83l-1.38,4.43a3.12,3.12,0,0,1-.94,1.43l-1.67,1.43s-3.15,1.09-2,3.79c.7,1.7,1.87,1.54,2.54,1.27a1.49,1.49,0,0,0,.73-.65" transform="translate(0 0)"/><path class="cls-85" d="M756.68,155.42h6.15a.49.49,0,0,0,.49-.39l2.84-13.56A.51.51,0,0,0,766,141c-.09-.09-.5-.5-.64-.5l-5.86.36a.5.5,0,0,0-.49.4l-3.24,13.41c0,.18.44.51.57.62a.48.48,0,0,0,.33.12" transform="translate(0 0)"/><path class="cls-85" d="M756.24,155h6.15a.5.5,0,0,0,.49-.4l2.84-13.55a.51.51,0,0,0-.49-.61h-6.15a.5.5,0,0,0-.49.4l-2.84,13.56a.5.5,0,0,0,.49.6" transform="translate(0 0)"/><polygon class="cls-86" points="756.17 153.68 762.83 153.68 765.44 141.17 758.78 141.17 756.17 153.68"/><path class="cls-8" d="M758.87,158.79h0a1.6,1.6,0,0,0,2.46-.3l.1-.15a1.63,1.63,0,0,0,0-1.68L760.8,155a2.59,2.59,0,0,1,0-1.78l.24-.78c.25-.82-.17-2-.79-2.07a.52.52,0,0,0-.6.44l-1.24,6.46a1.59,1.59,0,0,0,.48,1.48" transform="translate(0 0)"/><path class="cls-87" d="M718.78,130.32a2.79,2.79,0,0,1,1.48-1.67,2.8,2.8,0,0,1,0-1.74,2.88,2.88,0,0,1,1.66-1.75,2.76,2.76,0,0,1,.1-1.3,2.85,2.85,0,0,1,2.93-1.94,2.83,2.83,0,0,1,5.14-.21,2.84,2.84,0,0,1,1.73,0,2.8,2.8,0,0,1,1,.62,2,2,0,0,1,2.84,1.59,2.85,2.85,0,0,1,1.79,3.57c0,.1-.09.2-.14.3a1.85,1.85,0,0,1-1.16,2.85,1.38,1.38,0,0,1-1.35,1.91c-1.94-.1-3.43,4.13-3.43,4.13l-1.11.27a4.51,4.51,0,0,0,.54-2.38c-.19-.74-1.77-1.33-2.56,2.26-.9,4-7.12,4.59-6.71,1.45a2.22,2.22,0,0,1-1.1-.24,2.85,2.85,0,0,1-1.24-3.34,2.72,2.72,0,0,1,.71-1.12,2.83,2.83,0,0,1-1.16-3.27" transform="translate(0 0)"/><path class="cls-10" d="M714.41,269.14h2.53a.54.54,0,0,0,.55-.55v-1a.55.55,0,0,0-.55-.56h-2.53a.56.56,0,0,0-.56.56v1a.55.55,0,0,0,.56.55" transform="translate(0 0)"/><path class="cls-84" d="M733.14,148.67c3.28-2.31,6.5-1,8.06,1.89s3.12,9.07,3.12,9.07a12,12,0,0,1-4.42,5.21c-3.25,2.33-5.07,1.61-5.07,1.61s-3.05-8-4-10.82a6.3,6.3,0,0,1,2.27-7" transform="translate(0 0)"/><path class="cls-84" d="M715.36,147.83c-3.44-2.06-6.56-.52-7.9,2.48s-2.43,9.27-2.43,9.27a12,12,0,0,0,4.78,4.88c3.42,2.08,5.18,1.23,5.18,1.23s2.45-8.2,3.15-11.09a6.3,6.3,0,0,0-2.78-6.77" transform="translate(0 0)"/><path class="cls-80" d="M672.62,262.89c-1.57.13-2,.29-2.09,1s1,2.62,1,2.62,3-.94,3-1-1.93-2.63-1.93-2.63" transform="translate(0 0)"/><path class="cls-81" d="M669.81,269h3.65a.18.18,0,0,0,.18-.18V267a.18.18,0,0,0-.18-.18H670a.18.18,0,0,0-.18.18Z" transform="translate(0 0)"/><path class="cls-8" d="M662.06,191.22c-2.77-7.06-4.52-19.4-7.11-22.91s-5.19-1.54-5.69.55,4.86,16,9.52,21.94,3.28.42,3.28.42" transform="translate(0 0)"/><path class="cls-73" d="M677.59,244.48l-2.86,17,5.53,3.34c-3,1.94-6.49,2.13-8.67.49a5.55,5.55,0,0,1-1.82-2.48q.29-9.57.58-19.14Z" transform="translate(0 0)"/><path class="cls-88" d="M669.34,268.45a41.69,41.69,0,0,1,.43-5.6s.3,1.51,2.9,1.51,3.14-1.74,3.38-1.66,11.2,3.18,11.2,3.18l.8,2.56-16.47,1.11s-2.24.65-2.24-1.1" transform="translate(0 0)"/><rect class="cls-89" x="668.94" y="268.46" width="22.55" height="1.97" transform="translate(-0.37 0.94) rotate(-0.08)"/><path class="cls-89" d="M691.49,268.44c0-3-4.24-2.56-4.24-2.56l-1,2.57Z" transform="translate(0 0)"/><polygon class="cls-89" points="683.1 264.49 682.72 265.72 682.09 265.48 682.59 264.35 683.1 264.49"/><polygon class="cls-89" points="681.22 263.92 680.84 265.14 680.21 264.9 680.71 263.78 681.22 263.92"/><polygon class="cls-89" points="679.34 263.34 678.96 264.57 678.33 264.33 678.83 263.2 679.34 263.34"/><polygon class="cls-89" points="677.45 262.77 677.08 264 676.45 263.75 676.95 262.63 677.45 262.77"/><path class="cls-90" d="M672.25,184.72c2.67-7.76,11.45-2.07,12.63,2.77,3.1,12.67-1.91,34.79-2.3,39.57-.53,6.6-10.87,12.54-11-1.31-.19-19.57-2.42-32,.68-41" transform="translate(0 0)"/><path class="cls-90" d="M671.93,222.85c-.86,6-3.43,36.19-3.43,36.19l6.89,1s7.32-31.85,7.59-35.94-10.2-7.18-11.05-1.24" transform="translate(0 0)"/><polygon class="cls-73" points="667.2 250.22 663.91 265.82 659.73 265.51 660.72 250.48 667.2 250.22"/><polygon class="cls-88" points="664.52 263.63 659.26 263.66 655.08 269.12 665.11 269.19 664.52 263.63"/><rect class="cls-89" x="655.08" y="268.86" width="10.04" height="1.82"/><path class="cls-90" d="M662.2,184.18c3.27-7.51,11.58-1.15,12.37,3.76,2.09,12.88-4.66,34.54-5.43,39.27-1,6.54-11.46,9.74-10.49-4.07,1.36-19.53-.26-30.2,3.55-39" transform="translate(0 0)"/><path class="cls-90" d="M658.65,223.13c-.2,6.05.56,36.35.56,36.35l7,.22s3.77-32.45,3.6-36.55-10.93-6-11.12,0" transform="translate(0 0)"/><path class="cls-8" d="M650.83,171.66c2.85.91,4.7-2.07,6.8-7.74s7.49-9.6,7.76-15.89-7.37-9.76-10.11-3.51-6.23,19.24-6.21,23.32,1.76,3.82,1.76,3.82" transform="translate(0 0)"/><path class="cls-91" d="M682.38,139.8A33.93,33.93,0,0,0,670.52,138c-.71,0-1.52.07-2.38.15-3.59.33-3.59.33-10.48,2.74-7.85,2.75,1.39,48.09,1.39,48.09s-.47,7.89,9.48,7.89c16.79,0,18.5-2.5,18.5-2.5s-1.39-20.09-1.91-30.66c0,0,8.71-15.4,1.45-21.54a26.72,26.72,0,0,0-4.19-2.34" transform="translate(0 0)"/><polygon class="cls-8" points="679.38 125.17 671.82 124.25 666 141.93 673.1 144.26 679.38 125.17"/><path class="cls-8" d="M675.92,117.65c3.62-.57,6.09,0,7.44,1.51.94,1,1,2.27,1.22,4.64.23,2.55.44,4.94-.66,7.53-.27.65-2.55,5.83-6.45,6s-8.26-4.69-7.82-9.12c.46-4.79,2.76-10,6.27-10.59" transform="translate(0 0)"/><path class="cls-8" d="M663.49,138.77c2.56-.42,5.51-1.42,7.49-1.42a49.46,49.46,0,0,1,8.36,1.49c-.48,3.2-3.78,5.93-7.78,5.93-4.25,0-7.94-2.51-8.07-6" transform="translate(0 0)"/><path class="cls-8" d="M683.91,173.75c3-.08,3.77-3.49,3.91-9.54s3.94-11.52,2.13-17.55-10.15-6.82-10.7,0,.4,20.22,1.75,24.07,2.91,3,2.91,3" transform="translate(0 0)"/><path class="cls-8" d="M696.32,186.38c-1-3.33-4.26-13.62-8.82-17.81-.75-.69-2.36-2.13-4-1.77a3.39,3.39,0,0,0-2.46,2.92c-.52,4.38,7.23,13.6,11.65,20.13.71,1,1.83,3.16,3,3s1.88-2,1.83-3.55a4.62,4.62,0,0,0-1.28-2.91" transform="translate(0 0)"/><path class="cls-8" d="M699.71,196.43h0a.64.64,0,0,1,.41-.82l3.74-1.21a.66.66,0,0,1,.83.42.65.65,0,0,1-.42.82l-3.74,1.21a.65.65,0,0,1-.82-.42" transform="translate(0 0)"/><path class="cls-8" d="M700.4,196.38h0a.65.65,0,0,1,.72-.58l3.91.45a.65.65,0,0,1-.15,1.3L701,197.1a.66.66,0,0,1-.57-.72" transform="translate(0 0)"/><path class="cls-8" d="M694.19,191.91l3.62,3.93a1.7,1.7,0,0,0,.45.35l6.21,3.31a.29.29,0,0,0,.41-.16,1.2,1.2,0,0,0-.43-1.39l-3.79-2.61a3.11,3.11,0,0,1-1.07-1.31l-.86-2s-.11-3.31-3-3c-1.81.17-2,1.32-1.94,2a1.49,1.49,0,0,0,.4.89" transform="translate(0 0)"/><path class="cls-92" d="M684.83,117.1a6.06,6.06,0,0,1-1,8.34c-.12,0-.84.13-1,.13-2-.11-3.61,4.34-3.61,4.34l-1.16.28a4.81,4.81,0,0,0,.57-2.49c-.2-.79-1.87-1.41-2.7,2.37-.94,4.26-7.48,4.82-7,1.52h-.18s-4.32-7.66-.27-15.07c2.75-5,14.24-2.52,16.32.57" transform="translate(0 0)"/><path class="cls-89" d="M660.55,269.41H664a.18.18,0,0,0,.17-.18v-1.84a.18.18,0,0,0-.17-.18h-3.47a.18.18,0,0,0-.18.18v1.84a.18.18,0,0,0,.18.18" transform="translate(0 0)"/><path class="cls-8" d="M696.05,189.3h0a1.6,1.6,0,0,0-.44,2.43l.11.13a1.6,1.6,0,0,0,1.58.53l1.73-.15a2.54,2.54,0,0,1,1.69.51l.67.45c.7.48,1.92.42,2.19-.14a.51.51,0,0,0-.24-.69l-5.75-3.08a1.59,1.59,0,0,0-1.54,0" transform="translate(0 0)"/><path class="cls-91" d="M683.34,141.63c4.12-.88,7.44,2.79,7.74,6.24s-1.5,9-1.5,9a12.67,12.67,0,0,1-6.43,3.21c-4.11.9-5.56-.55-5.56-.55s.36-9,.66-12.1a6.61,6.61,0,0,1,5.09-5.77" transform="translate(0 0)"/><path class="cls-91" d="M662,141.91c-3.61-2.17-6.9-.55-8.31,2.6s-2.55,9.75-2.55,9.75a12.57,12.57,0,0,0,5,5.13c3.6,2.19,5.44,1.29,5.44,1.29s2.58-8.61,3.31-11.65a6.6,6.6,0,0,0-2.92-7.12" transform="translate(0 0)"/><g class="cls-93"><g class="cls-94"><path class="cls-95" d="M960,347.27c-513.92,0-930.53,176.25-930.53,393.67,0,144.4,183.78,270.64,457.79,339.15h945.48c274-68.51,457.79-194.75,457.79-339.15,0-217.42-416.62-393.67-930.53-393.67" transform="translate(0 0)"/></g></g><g class="cls-13"><g class="cls-96"><path class="cls-15" d="M140.74,193.86h-8.45a15.75,15.75,0,0,1-15.73-15.73V164.25h3.72v13.88a12,12,0,0,0,12,12h8.45Z" transform="translate(0 0)"/><path class="cls-15" d="M143.9,187.14l-.15-3.72h.15A13.08,13.08,0,0,0,157,170.35v-4.06h3.72v4.06a16.81,16.81,0,0,1-16.79,16.79" transform="translate(0 0)"/><path class="cls-15" d="M156.64,180.17l-.16-1.86h.16a14,14,0,0,0,14-14v-4.06h1.86v4.06a15.88,15.88,0,0,1-15.86,15.86" transform="translate(0 0)"/><rect class="cls-16" x="137.27" y="139.92" width="4.83" height="81.42"/><rect class="cls-15" x="142.1" y="139.92" width="4.83" height="81.42"/><path class="cls-17" d="M188.25,148.61a23.08,23.08,0,1,1-23.08-23.07,23.08,23.08,0,0,1,23.08,23.07" transform="translate(0 0)"/><path class="cls-18" d="M172.27,121a33.4,33.4,0,1,1-33.4-33.4,33.41,33.41,0,0,1,33.4,33.4" transform="translate(0 0)"/><path class="cls-19" d="M142.29,149A23.08,23.08,0,1,1,119.21,126,23.07,23.07,0,0,1,142.29,149" transform="translate(0 0)"/></g></g></g></g></g></g></g></g></svg>