<svg xmlns="http://www.w3.org/2000/svg" xmlns:xlink="http://www.w3.org/1999/xlink" viewBox="0 0 1920 1080"><defs><style>.cls-1{fill:none;clip-rule:evenodd;}.cls-2{fill:#e6f0d8;}.cls-3{fill:#ba995f;opacity:0.3;}.cls-4{fill:#9bd5fc;}.cls-5{fill:#9e8a61;}.cls-6{fill:#ccb89d;}.cls-7{fill:#a18b6e;}.cls-8{fill:#b9a283;}.cls-9{fill:#8caa43;}.cls-10{fill:#95af4b;}.cls-11{fill:#e695b1;}.cls-12{fill:#e175a3;}.cls-13{fill:#f2cf58;}.cls-14,.cls-21{fill:#e79c92;}.cls-15,.cls-54,.cls-64{fill:#fff;}.cls-16{fill:#4d5060;}.cls-17{fill:#253d62;}.cls-18{fill:#355178;}.cls-19{fill:#c0cdd9;}.cls-19,.cls-20,.cls-21,.cls-22,.cls-23,.cls-24,.cls-25,.cls-27,.cls-51,.cls-52,.cls-53,.cls-54,.cls-55{fill-rule:evenodd;}.cls-20{fill:#3e6e9a;}.cls-22{fill:#dfe5eb;}.cls-23{fill:#5291cf;}.cls-24{fill:#2e2423;}.cls-25{fill:#e7e7e7;}.cls-26{clip-path:url(#clip-path);}.cls-27{fill:#365991;}.cls-28{fill:#c34420;}.cls-29{fill:#375c78;}.cls-30{fill:#457490;}.cls-31{fill:#4f4e50;}.cls-32{fill:#6d6e70;}.cls-33{fill:#917a4a;}.cls-34{fill:#e5e5e6;}.cls-35{fill:#cfd1d2;}.cls-36{fill:#434244;}.cls-37{fill:#583c1c;}.cls-38{fill:#adb4dc;}.cls-39{fill:#7a81b1;}.cls-40{fill:#59595b;}.cls-41{fill:#99481d;}.cls-42{fill:#babcbe;}.cls-43{fill:#cc5e96;}.cls-44{fill:#3d4e75;}.cls-45{fill:#919395;}.cls-46{fill:#dc9b3a;}.cls-47{fill:#808083;}.cls-48{fill:#f9f9f9;opacity:0.5;}.cls-49{fill:#585858;}.cls-50{fill:#929298;}.cls-52{fill:#8179e4;}.cls-53{fill:#6abba8;}.cls-55{fill:#da376c;}.cls-56{fill:#e1a87e;}.cls-57{fill:#5ea2a5;}.cls-58{fill:#283660;}.cls-59{fill:#111e33;}.cls-60{fill:#b0cdd3;}.cls-61{fill:#df7d22;}.cls-62{fill:#ecb42a;}.cls-63{fill:#89aeb2;}.cls-64{stroke:#000;stroke-miterlimit:10;stroke-width:0.25px;}.cls-65{fill:#576afa;}</style><clipPath id="clip-path"><path class="cls-1" d="M861.61,215.09a7.65,7.65,0,1,1-2.8-10.45,7.65,7.65,0,0,1,2.8,10.45Z"/></clipPath></defs><g id="レイヤー_2" data-name="レイヤー 2"><g id="object"><g id="遊ぶ"><rect class="cls-2" width="1920" height="1080"/><ellipse class="cls-3" cx="960" cy="655.12" rx="885.05" ry="323.38"/><path class="cls-4" d="M1018.7,118.17a.54.54,0,0,0-.82.15.61.61,0,0,0,.15.76c.1.08.42.15.7.29a3.14,3.14,0,0,1,.54.32,2.49,2.49,0,0,0-.09-.67A1.9,1.9,0,0,0,1018.7,118.17Z"/><path class="cls-4" d="M1015.61,117.17a.56.56,0,0,0-.62.54.59.59,0,0,0,.54.59,3.92,3.92,0,0,0,.8-.19c.32-.09.63-.15.63-.15a5,5,0,0,0-.53-.41A2.27,2.27,0,0,0,1015.61,117.17Z"/><path class="cls-4" d="M1012.47,117.4a.55.55,0,0,0-.41.71.59.59,0,0,0,.69.38,4.49,4.49,0,0,0,.7-.42l.55-.33a5,5,0,0,0-.62-.23A2.17,2.17,0,0,0,1012.47,117.4Z"/><path class="cls-4" d="M1009.61,118.77a.57.57,0,0,0-.13.81.59.59,0,0,0,.79.12,4.32,4.32,0,0,0,.51-.67l.36-.53s-.3,0-.65,0A2.67,2.67,0,0,0,1009.61,118.77Z"/><path class="cls-4" d="M1007.33,120.87a.56.56,0,0,0,0,.81.58.58,0,0,0,.8-.06,11.77,11.77,0,0,0,.56-1.39A4.54,4.54,0,0,0,1007.33,120.87Z"/><path class="cls-4" d="M1005.48,123.3a.55.55,0,0,0,.16.79.57.57,0,0,0,.78-.17,8.44,8.44,0,0,0,.34-1.46A4.88,4.88,0,0,0,1005.48,123.3Z"/><path class="cls-4" d="M1003.94,125.92a.57.57,0,1,0,1,.52,7.63,7.63,0,0,0,.17-1.5A5.4,5.4,0,0,0,1003.94,125.92Z"/><path class="cls-4" d="M1021.15,82.1a.61.61,0,0,1,.13-.79.56.56,0,0,1,.8.14,4.31,4.31,0,0,1,.27,1.5A11.49,11.49,0,0,1,1021.15,82.1Z"/><path class="cls-4" d="M1019.29,80a.6.6,0,0,1-.08-.79.55.55,0,0,1,.81-.08,4.19,4.19,0,0,1,.64,1.4A13.82,13.82,0,0,1,1019.29,80Z"/><path class="cls-4" d="M1016.94,78.64a.58.58,0,0,1-.35-.7.55.55,0,0,1,.74-.36,2.35,2.35,0,0,1,.67.59,4.8,4.8,0,0,1,.39.53l-.63,0A3.61,3.61,0,0,1,1016.94,78.64Z"/><path class="cls-4" d="M1014.26,78.23a.58.58,0,0,1-.58-.53.55.55,0,0,1,.54-.6,2.33,2.33,0,0,1,.86.29,5.15,5.15,0,0,1,.55.35L1015,78A3.62,3.62,0,0,1,1014.26,78.23Z"/><path class="cls-4" d="M1011.6,78.8a.57.57,0,0,1-.73-.28.55.55,0,0,1,.3-.76,2.28,2.28,0,0,1,.9,0,3.92,3.92,0,0,1,.64.13l-.48.41A3.8,3.8,0,0,1,1011.6,78.8Z"/><path class="cls-4" d="M1009.26,80.26a.58.58,0,0,1-.8-.07.55.55,0,0,1,.08-.8A4.1,4.1,0,0,1,1010,79,12.68,12.68,0,0,1,1009.26,80.26Z"/><path class="cls-4" d="M1007.25,82.27a.56.56,0,1,1-.86-.73,4.93,4.93,0,0,1,1.37-.67A9,9,0,0,1,1007.25,82.27Z"/><path class="cls-4" d="M1005.54,84.58a.57.57,0,0,1-.95-.63,5.22,5.22,0,0,1,1.27-.83A7.27,7.27,0,0,1,1005.54,84.58Z"/><path class="cls-4" d="M1004.05,87.06a.57.57,0,0,1-.77.22.55.55,0,0,1-.22-.77,5.36,5.36,0,0,1,1.19-.94A7.86,7.86,0,0,1,1004.05,87.06Z"/><path class="cls-4" d="M1002.73,89.64a.57.57,0,0,1-.76.27.56.56,0,0,1-.27-.75,5.49,5.49,0,0,1,1.13-1A8,8,0,0,1,1002.73,89.64Z"/><path class="cls-4" d="M1001.53,92.3a.57.57,0,0,1-.74.31.57.57,0,0,1-.3-.75,5.38,5.38,0,0,1,1.08-1A7.1,7.1,0,0,1,1001.53,92.3Z"/><path class="cls-4" d="M1000.45,95a.57.57,0,0,1-1.06-.41,5.84,5.84,0,0,1,1-1.09A6.37,6.37,0,0,1,1000.45,95Z"/><path class="cls-4" d="M999.46,97.76a.57.57,0,1,1-1.08-.37,6.26,6.26,0,0,1,1-1.12A6.32,6.32,0,0,1,999.46,97.76Z"/><path class="cls-4" d="M998.54,100.54a.57.57,0,0,1-.71.37.56.56,0,0,1-.37-.71,5.35,5.35,0,0,1,1-1.15A7.23,7.23,0,0,1,998.54,100.54Z"/><path class="cls-4" d="M997.68,103.35a.57.57,0,0,1-.7.38.57.57,0,0,1-.39-.7,6,6,0,0,1,.95-1.18A6.91,6.91,0,0,1,997.68,103.35Z"/><path class="cls-4" d="M996.89,106.16a.58.58,0,0,1-.7.4.57.57,0,0,1-.4-.69,6,6,0,0,1,.92-1.2A6.39,6.39,0,0,1,996.89,106.16Z"/><path class="cls-4" d="M996.14,109a.57.57,0,0,1-1.1-.28,6.16,6.16,0,0,1,.9-1.21A6.21,6.21,0,0,1,996.14,109Z"/><path class="cls-4" d="M995.44,111.85a.57.57,0,1,1-1.1-.27,6.25,6.25,0,0,1,.88-1.22A6.48,6.48,0,0,1,995.44,111.85Z"/><path class="cls-4" d="M994.79,114.7a.58.58,0,0,1-.68.44.57.57,0,0,1-.43-.68,6.26,6.26,0,0,1,.86-1.24A6.76,6.76,0,0,1,994.79,114.7Z"/><path class="cls-4" d="M994.17,117.57a.56.56,0,0,1-.67.44.57.57,0,0,1-.44-.67,6,6,0,0,1,.84-1.25A6.57,6.57,0,0,1,994.17,117.57Z"/><path class="cls-4" d="M993.59,120.45a.57.57,0,1,1-1.11-.22,6.19,6.19,0,0,1,.83-1.26A6.37,6.37,0,0,1,993.59,120.45Z"/><path class="cls-4" d="M993.06,123.33a.57.57,0,1,1-1.12-.2,6,6,0,0,1,.81-1.27A6.67,6.67,0,0,1,993.06,123.33Z"/><path class="cls-4" d="M992.56,126.22a.57.57,0,1,1-1.12-.18,6,6,0,0,1,.79-1.29A6.37,6.37,0,0,1,992.56,126.22Z"/><path class="cls-4" d="M1019.16,82.18a.58.58,0,0,1,.09-.78.55.55,0,0,1,.8.08,2.19,2.19,0,0,1,.26.85c0,.34.05.64.05.64A13.18,13.18,0,0,1,1019.16,82.18Z"/><path class="cls-4" d="M1017.18,80.47a.6.6,0,0,1-.25-.73.53.53,0,0,1,.76-.28,2,2,0,0,1,.59.69,4.38,4.38,0,0,1,.29.58s-.3-.07-.61-.12A4.48,4.48,0,0,1,1017.18,80.47Z"/><path class="cls-4" d="M1014.71,80.05a.6.6,0,0,1-.62-.46.55.55,0,0,1,.48-.67,2.08,2.08,0,0,1,.88.25,3.74,3.74,0,0,1,.55.33s-.29.1-.57.23A5.64,5.64,0,0,1,1014.71,80.05Z"/><path class="cls-4" d="M1012.3,81a.59.59,0,0,1-.77-.15.55.55,0,0,1,.14-.8,2.33,2.33,0,0,1,.87-.18,3.79,3.79,0,0,1,.64,0l-.38.5A3.68,3.68,0,0,1,1012.3,81Z"/><path class="cls-4" d="M1010.24,82.82a.57.57,0,0,1-.79,0,.55.55,0,0,1-.05-.8,4.28,4.28,0,0,1,1.39-.58A10.66,10.66,0,0,1,1010.24,82.82Z"/><path class="cls-4" d="M1008.52,85a.57.57,0,0,1-.78.15.55.55,0,0,1-.16-.78,4.77,4.77,0,0,1,1.27-.8A7.66,7.66,0,0,1,1008.52,85Z"/><path class="cls-4" d="M1007.06,87.45a.56.56,0,0,1-1-.54,5.44,5.44,0,0,1,1.17-.92A7.21,7.21,0,0,1,1007.06,87.45Z"/><path class="cls-4" d="M1005.81,90a.56.56,0,0,1-.75.27.56.56,0,0,1-.29-.74,5.69,5.69,0,0,1,1.1-1A6.52,6.52,0,0,1,1005.81,90Z"/><path class="cls-4" d="M1004.7,92.63a.55.55,0,0,1-.72.31.54.54,0,0,1-.33-.72,5.81,5.81,0,0,1,1-1.06A6.23,6.23,0,0,1,1004.7,92.63Z"/><path class="cls-4" d="M1003.72,95.32a.55.55,0,0,1-.71.34.56.56,0,0,1-.36-.71,5.68,5.68,0,0,1,1-1.1A6.14,6.14,0,0,1,1003.72,95.32Z"/><path class="cls-4" d="M1002.85,98a.55.55,0,0,1-.7.37.57.57,0,0,1-.39-.7,5.75,5.75,0,0,1,1-1.13A6,6,0,0,1,1002.85,98Z"/><path class="cls-4" d="M1002.06,100.8a.57.57,0,0,1-.69.39.56.56,0,0,1-.4-.69,5.59,5.59,0,0,1,.91-1.17A6.35,6.35,0,0,1,1002.06,100.8Z"/><path class="cls-4" d="M1001.34,103.58a.57.57,0,0,1-1.1-.27,5.6,5.6,0,0,1,.88-1.19A6.27,6.27,0,0,1,1001.34,103.58Z"/><path class="cls-4" d="M1000.69,106.37a.57.57,0,0,1-1.11-.24,5.89,5.89,0,0,1,.86-1.21A6,6,0,0,1,1000.69,106.37Z"/><path class="cls-4" d="M1000.09,109.18A.57.57,0,0,1,999,109a5.45,5.45,0,0,1,.84-1.23A6.26,6.26,0,0,1,1000.09,109.18Z"/><path class="cls-4" d="M999.55,112a.58.58,0,0,1-.66.45.56.56,0,0,1-.46-.65,6,6,0,0,1,.81-1.24A6.34,6.34,0,0,1,999.55,112Z"/><path class="cls-4" d="M999,114.83a.56.56,0,0,1-.65.46.57.57,0,0,1-.47-.65,6.49,6.49,0,0,1,.8-1.25A6.84,6.84,0,0,1,999,114.83Z"/><path class="cls-4" d="M998.58,117.67a.57.57,0,0,1-.65.46.55.55,0,0,1-.47-.63,6.12,6.12,0,0,1,.77-1.27A6.56,6.56,0,0,1,998.58,117.67Z"/><path class="cls-4" d="M998.15,120.52a.57.57,0,0,1-1.12-.17,6,6,0,0,1,.76-1.27A6.33,6.33,0,0,1,998.15,120.52Z"/><path class="cls-4" d="M997.76,123.36a.57.57,0,0,1-.64.48.56.56,0,0,1-.49-.62,5.9,5.9,0,0,1,.75-1.28A6.1,6.1,0,0,1,997.76,123.36Z"/><path class="cls-4" d="M997.39,126.22a.56.56,0,0,1-.63.48.55.55,0,0,1-.49-.62,5.81,5.81,0,0,1,.73-1.28A6,6,0,0,1,997.39,126.22Z"/><path class="cls-4" d="M1015.79,83a.64.64,0,0,1-.32-.69.54.54,0,0,1,.77-.35,1.88,1.88,0,0,1,.66.72,3.43,3.43,0,0,1,.27.62s-.3-.1-.62-.17S1015.91,83.05,1015.79,83Z"/><path class="cls-4" d="M1013.49,83.33a.59.59,0,0,1-.77-.13.53.53,0,0,1,.15-.81,1.86,1.86,0,0,1,.93-.18,2.41,2.41,0,0,1,.67.09,3.56,3.56,0,0,0-.46.43A5.56,5.56,0,0,1,1013.49,83.33Z"/><path class="cls-4" d="M1011.57,85.33a.58.58,0,0,1-.79.15.57.57,0,0,1-.14-.81,4.6,4.6,0,0,1,1.35-.78A12.8,12.8,0,0,1,1011.57,85.33Z"/><path class="cls-4" d="M1010.2,87.84a.57.57,0,1,1-1.05-.43,4.91,4.91,0,0,1,1.11-1.08A10.86,10.86,0,0,1,1010.2,87.84Z"/><path class="cls-4" d="M1009.26,90.62a.57.57,0,1,1-1.09-.32,5.56,5.56,0,0,1,1-1.19A8,8,0,0,1,1009.26,90.62Z"/><path class="cls-4" d="M1008.46,93.49a.56.56,0,0,1-.69.42.57.57,0,0,1-.4-.7,6,6,0,0,1,.91-1.23A6.52,6.52,0,0,1,1008.46,93.49Z"/><path class="cls-4" d="M1007.76,96.39a.57.57,0,1,1-1.11-.26,6.76,6.76,0,0,1,.88-1.25A6.59,6.59,0,0,1,1007.76,96.39Z"/><path class="cls-4" d="M1007.11,99.3a.56.56,0,0,1-.67.45.57.57,0,0,1-.44-.68,6.65,6.65,0,0,1,.86-1.27A6.41,6.41,0,0,1,1007.11,99.3Z"/><path class="cls-4" d="M1006.51,102.23a.57.57,0,0,1-.67.46.56.56,0,0,1-.44-.68,6,6,0,0,1,.84-1.28A7.3,7.3,0,0,1,1006.51,102.23Z"/><path class="cls-4" d="M1005.94,105.17a.58.58,0,0,1-.67.46.57.57,0,0,1-.45-.67,6.28,6.28,0,0,1,.83-1.29A6.49,6.49,0,0,1,1005.94,105.17Z"/><path class="cls-4" d="M1005.39,108.11a.57.57,0,0,1-.66.47.58.58,0,0,1-.46-.67,6.75,6.75,0,0,1,.82-1.3A6.41,6.41,0,0,1,1005.39,108.11Z"/><path class="cls-4" d="M1004.87,111.06a.58.58,0,0,1-.66.47.57.57,0,0,1-.46-.67,6.37,6.37,0,0,1,.8-1.3A6.78,6.78,0,0,1,1004.87,111.06Z"/><path class="cls-4" d="M1004.36,114a.58.58,0,0,1-.65.48.59.59,0,0,1-.47-.67,6.37,6.37,0,0,1,.8-1.3A6.67,6.67,0,0,1,1004.36,114Z"/><path class="cls-4" d="M1003.87,117a.57.57,0,1,1-1.12-.18,6.26,6.26,0,0,1,.79-1.31A6.59,6.59,0,0,1,1003.87,117Z"/><path class="cls-4" d="M1003.4,119.92a.57.57,0,1,1-1.12-.18,6.59,6.59,0,0,1,.78-1.31A6.5,6.5,0,0,1,1003.4,119.92Z"/><path class="cls-4" d="M1002.94,122.88a.57.57,0,0,1-1.13-.17,6.91,6.91,0,0,1,.78-1.32A6.83,6.83,0,0,1,1002.94,122.88Z"/><path class="cls-4" d="M1002.49,125.84a.58.58,0,0,1-.65.49.57.57,0,0,1-.47-.66,6,6,0,0,1,.77-1.32A6.83,6.83,0,0,1,1002.49,125.84Z"/><path class="cls-4" d="M1052.87,81.45a.56.56,0,0,1,.8-.14.58.58,0,0,1,.13.79,9.7,9.7,0,0,1-1.2.85A4.56,4.56,0,0,1,1052.87,81.45Z"/><path class="cls-4" d="M1054.93,79.16a.57.57,0,0,1,.82.08.6.6,0,0,1-.08.79c-.23.16-1.37.51-1.37.53A4.13,4.13,0,0,1,1054.93,79.16Z"/><path class="cls-4" d="M1057.63,77.58a.55.55,0,0,1,.73.36.57.57,0,0,1-.34.7,3.7,3.7,0,0,1-.82,0l-.64,0a4.8,4.8,0,0,1,.39-.53A2.24,2.24,0,0,1,1057.63,77.58Z"/><path class="cls-4" d="M1060.73,77.1a.55.55,0,0,1,.55.6.59.59,0,0,1-.59.53,3.58,3.58,0,0,1-.77-.27l-.6-.22a6.06,6.06,0,0,1,.56-.35A2.35,2.35,0,0,1,1060.73,77.1Z"/><path class="cls-4" d="M1063.79,77.76a.56.56,0,0,1,.3.76.58.58,0,0,1-.74.28,4.85,4.85,0,0,1-.63-.53c-.24-.22-.47-.41-.47-.41a3.92,3.92,0,0,1,.64-.13A2.28,2.28,0,0,1,1063.79,77.76Z"/><path class="cls-4" d="M1066.42,79.39a.55.55,0,0,1,.07.8.57.57,0,0,1-.79.07,11,11,0,0,1-.76-1.26A4.15,4.15,0,0,1,1066.42,79.39Z"/><path class="cls-4" d="M1068.57,81.54a.55.55,0,0,1-.08.8.57.57,0,0,1-.79-.07,8.75,8.75,0,0,1-.5-1.4A5.07,5.07,0,0,1,1068.57,81.54Z"/><path class="cls-4" d="M1070.36,84a.56.56,0,0,1-.16.79.58.58,0,0,1-.79-.16,8,8,0,0,1-.32-1.46A5,5,0,0,1,1070.36,84Z"/><path class="cls-4" d="M1071.9,86.51a.56.56,0,0,1-.23.77.56.56,0,0,1-.76-.22,7.12,7.12,0,0,1-.2-1.49A5.6,5.6,0,0,1,1071.9,86.51Z"/><path class="cls-4" d="M1073.25,89.16a.55.55,0,0,1-.27.75.56.56,0,0,1-.75-.27,6.58,6.58,0,0,1-.1-1.49A5.49,5.49,0,0,1,1073.25,89.16Z"/><path class="cls-4" d="M1074.47,91.86a.58.58,0,0,1-.31.75.57.57,0,0,1-.74-.31,6.37,6.37,0,0,1,0-1.49A5.66,5.66,0,0,1,1074.47,91.86Z"/><path class="cls-4" d="M1075.56,94.61a.55.55,0,0,1-.33.73.56.56,0,0,1-.73-.32,7,7,0,0,1,0-1.5A5.84,5.84,0,0,1,1075.56,94.61Z"/><path class="cls-4" d="M1076.57,97.39a.57.57,0,1,1-1.07.37,7,7,0,0,1,.07-1.49A5.58,5.58,0,0,1,1076.57,97.39Z"/><path class="cls-4" d="M1077.5,100.2a.57.57,0,0,1-.37.71.56.56,0,0,1-.71-.37,6.58,6.58,0,0,1,.11-1.49A6,6,0,0,1,1077.5,100.2Z"/><path class="cls-4" d="M1078.36,103a.56.56,0,0,1-.38.7.57.57,0,0,1-.71-.38,6.8,6.8,0,0,1,.15-1.5A6.07,6.07,0,0,1,1078.36,103Z"/><path class="cls-4" d="M1079.16,105.87a.55.55,0,0,1-.4.69.57.57,0,0,1-.69-.4,6.49,6.49,0,0,1,.17-1.49A6,6,0,0,1,1079.16,105.87Z"/><path class="cls-4" d="M1079.91,108.72a.57.57,0,0,1-.41.69.56.56,0,0,1-.68-.41,6.21,6.21,0,0,1,.2-1.49A5.81,5.81,0,0,1,1079.91,108.72Z"/><path class="cls-4" d="M1080.62,111.58a.57.57,0,0,1-1.11.27,6.39,6.39,0,0,1,.23-1.49A6.7,6.7,0,0,1,1080.62,111.58Z"/><path class="cls-4" d="M1081.28,114.46a.58.58,0,0,1-.44.68.57.57,0,0,1-.67-.44,6.21,6.21,0,0,1,.25-1.48A6.26,6.26,0,0,1,1081.28,114.46Z"/><path class="cls-4" d="M1081.89,117.34a.56.56,0,1,1-1.1.23,6.13,6.13,0,0,1,.26-1.48A6,6,0,0,1,1081.89,117.34Z"/><path class="cls-4" d="M1082.47,120.23a.57.57,0,0,1-.44.67.58.58,0,0,1-.67-.45,6.29,6.29,0,0,1,.29-1.48A5.83,5.83,0,0,1,1082.47,120.23Z"/><path class="cls-4" d="M1083,123.13a.57.57,0,1,1-1.12.2,6.67,6.67,0,0,1,.31-1.47A6.4,6.4,0,0,1,1083,123.13Z"/><path class="cls-4" d="M1083.52,126a.58.58,0,0,1-.48.65.56.56,0,0,1-.64-.47,7,7,0,0,1,.32-1.47A5.61,5.61,0,0,1,1083.52,126Z"/><path class="cls-4" d="M1054.9,81.48a.55.55,0,0,1,.8-.08.58.58,0,0,1,.1.78c-.18.2-1.21.77-1.2.79a4.94,4.94,0,0,1,.05-.64A2.4,2.4,0,0,1,1054.9,81.48Z"/><path class="cls-4" d="M1057.26,79.46a.53.53,0,0,1,.76.28.58.58,0,0,1-.25.73,4.52,4.52,0,0,1-.77.14c-.32,0-.61.12-.61.12a3.65,3.65,0,0,1,.28-.58A2.13,2.13,0,0,1,1057.26,79.46Z"/><path class="cls-4" d="M1060.38,78.92a.54.54,0,0,1,.48.67.59.59,0,0,1-.61.46,5.08,5.08,0,0,1-.72-.32c-.29-.13-.58-.23-.58-.23a3.55,3.55,0,0,1,.56-.33A2,2,0,0,1,1060.38,78.92Z"/><path class="cls-4" d="M1063.28,80.07a.56.56,0,0,1,.15.8.59.59,0,0,1-.77.15,4.17,4.17,0,0,1-.51-.63c-.19-.26-.38-.5-.38-.5a3.94,3.94,0,0,1,.65,0A2.27,2.27,0,0,1,1063.28,80.07Z"/><path class="cls-4" d="M1065.55,82.06a.55.55,0,0,1,0,.8.56.56,0,0,1-.78,0,8.28,8.28,0,0,1-.55-1.34A4.25,4.25,0,0,1,1065.55,82.06Z"/><path class="cls-4" d="M1067.38,84.4a.57.57,0,0,1-1,.63,8.36,8.36,0,0,1-.32-1.43A4.94,4.94,0,0,1,1067.38,84.4Z"/><path class="cls-4" d="M1068.89,86.91a.57.57,0,0,1-1,.54,7.08,7.08,0,0,1-.17-1.46A5.7,5.7,0,0,1,1068.89,86.91Z"/><path class="cls-4" d="M1070.18,89.53a.57.57,0,0,1-1,.47,7.31,7.31,0,0,1-.07-1.47A5.17,5.17,0,0,1,1070.18,89.53Z"/><path class="cls-4" d="M1071.31,92.22a.57.57,0,0,1-1.06.41,6.82,6.82,0,0,1,0-1.47A5.8,5.8,0,0,1,1071.31,92.22Z"/><path class="cls-4" d="M1072.3,95a.57.57,0,0,1-1.07.37,7.41,7.41,0,0,1,.08-1.47A5.37,5.37,0,0,1,1072.3,95Z"/><path class="cls-4" d="M1073.19,97.71a.56.56,0,0,1-.38.7.55.55,0,0,1-.7-.37,6.1,6.1,0,0,1,.13-1.46A5.75,5.75,0,0,1,1073.19,97.71Z"/><path class="cls-4" d="M1074,100.5a.57.57,0,0,1-1.09.3,6.18,6.18,0,0,1,.18-1.46A5.83,5.83,0,0,1,1074,100.5Z"/><path class="cls-4" d="M1074.71,103.31a.55.55,0,0,1-.42.67.56.56,0,0,1-.68-.4,6.27,6.27,0,0,1,.22-1.46A5.6,5.6,0,0,1,1074.71,103.31Z"/><path class="cls-4" d="M1075.37,106.13a.56.56,0,0,1-1.1.24,6,6,0,0,1,.25-1.45A5.55,5.55,0,0,1,1075.37,106.13Z"/><path class="cls-4" d="M1076,109a.56.56,0,0,1-.44.66.57.57,0,0,1-.67-.44,6.17,6.17,0,0,1,.28-1.45A5.83,5.83,0,0,1,1076,109Z"/><path class="cls-4" d="M1076.53,111.8a.57.57,0,0,1-1.12.2,6.43,6.43,0,0,1,.3-1.44A6,6,0,0,1,1076.53,111.8Z"/><path class="cls-4" d="M1077,114.64a.57.57,0,0,1-1.12.19,6.18,6.18,0,0,1,.33-1.44A6.07,6.07,0,0,1,1077,114.64Z"/><path class="cls-4" d="M1077.5,117.5a.57.57,0,0,1-1.12.17,6,6,0,0,1,.34-1.43A6,6,0,0,1,1077.5,117.5Z"/><path class="cls-4" d="M1077.93,120.35a.58.58,0,0,1-.49.64.56.56,0,0,1-.63-.47,5.84,5.84,0,0,1,.36-1.44A6.46,6.46,0,0,1,1077.93,120.35Z"/><path class="cls-4" d="M1078.32,123.22a.56.56,0,0,1-1.12.14,6.1,6.1,0,0,1,.38-1.42A5.94,5.94,0,0,1,1078.32,123.22Z"/><path class="cls-4" d="M1078.69,126.08a.56.56,0,0,1-.5.62.56.56,0,0,1-.63-.48,6.47,6.47,0,0,1,.4-1.42A6.25,6.25,0,0,1,1078.69,126.08Z"/><path class="cls-4" d="M1058.71,82a.55.55,0,0,1,.78.35.63.63,0,0,1-.33.69c-.11,0-.44.06-.76.13a6.15,6.15,0,0,0-.61.17,2.74,2.74,0,0,1,.27-.62A1.86,1.86,0,0,1,1058.71,82Z"/><path class="cls-4" d="M1062.09,82.39a.55.55,0,0,1,.15.81.59.59,0,0,1-.77.13,6.69,6.69,0,0,1-.53-.6,3.56,3.56,0,0,0-.46-.43,2.59,2.59,0,0,1,.67-.09A1.9,1.9,0,0,1,1062.09,82.39Z"/><path class="cls-4" d="M1064.31,84.67a.57.57,0,0,1-.13.81.58.58,0,0,1-.79-.15,13.24,13.24,0,0,1-.43-1.44A4.48,4.48,0,0,1,1064.31,84.67Z"/><path class="cls-4" d="M1065.8,87.41a.57.57,0,0,1-.32.76.59.59,0,0,1-.73-.33,10.86,10.86,0,0,1-.06-1.51A4.53,4.53,0,0,1,1065.8,87.41Z"/><path class="cls-4" d="M1066.78,90.3a.56.56,0,0,1-.37.72.58.58,0,0,1-.71-.4,7.38,7.38,0,0,1,.11-1.51A5,5,0,0,1,1066.78,90.3Z"/><path class="cls-4" d="M1067.59,93.21a.57.57,0,1,1-1.1.28,6.42,6.42,0,0,1,.19-1.51A6.39,6.39,0,0,1,1067.59,93.21Z"/><path class="cls-4" d="M1068.3,96.13a.57.57,0,1,1-1.11.26,7.2,7.2,0,0,1,.23-1.51A6.32,6.32,0,0,1,1068.3,96.13Z"/><path class="cls-4" d="M1069,99.07a.57.57,0,1,1-1.11.23,7.68,7.68,0,0,1,.25-1.5A6.65,6.65,0,0,1,1069,99.07Z"/><path class="cls-4" d="M1069.56,102a.58.58,0,0,1-.44.68.57.57,0,0,1-.67-.46,6.15,6.15,0,0,1,.27-1.5A6.41,6.41,0,0,1,1069.56,102Z"/><path class="cls-4" d="M1070.13,105a.57.57,0,0,1-.45.67.57.57,0,0,1-.66-.46,6.49,6.49,0,0,1,.29-1.5A6.32,6.32,0,0,1,1070.13,105Z"/><path class="cls-4" d="M1070.68,107.91a.58.58,0,0,1-.45.67.56.56,0,0,1-.66-.47,6.41,6.41,0,0,1,.3-1.5A6.8,6.8,0,0,1,1070.68,107.91Z"/><path class="cls-4" d="M1071.21,110.86a.57.57,0,1,1-1.12.2,6.88,6.88,0,0,1,.31-1.5A6.8,6.8,0,0,1,1071.21,110.86Z"/><path class="cls-4" d="M1071.71,113.82a.56.56,0,1,1-1.11.19,6.15,6.15,0,0,1,.32-1.49A6.41,6.41,0,0,1,1071.71,113.82Z"/><path class="cls-4" d="M1072.2,116.78a.56.56,0,0,1-.47.66.58.58,0,0,1-.65-.48,6.59,6.59,0,0,1,.33-1.49A6.26,6.26,0,0,1,1072.2,116.78Z"/><path class="cls-4" d="M1072.68,119.74a.57.57,0,1,1-1.12.18,6.5,6.5,0,0,1,.34-1.49A6.59,6.59,0,0,1,1072.68,119.74Z"/><path class="cls-4" d="M1073.14,122.71a.56.56,0,0,1-.47.65.57.57,0,0,1-.65-.48,6.37,6.37,0,0,1,.34-1.49A6.43,6.43,0,0,1,1073.14,122.71Z"/><path class="cls-4" d="M1073.59,125.67a.57.57,0,1,1-1.12.17,6.29,6.29,0,0,1,.35-1.49A6.47,6.47,0,0,1,1073.59,125.67Z"/><path class="cls-5" d="M1029.28,62.16s4.92,4.42,5.07,10.83-7.6,14.31-7.6,14.31h10.73V60.18Z"/><path class="cls-5" d="M1045.68,62.16s-4.92,4.42-5.07,10.83,7.6,14.31,7.6,14.31h-10.73V60.18Z"/><path class="cls-6" d="M1024.24,61.44s.2-8.56,13.24-8.56v8.56Z"/><path class="cls-6" d="M1050.71,61.44s-.19-8.56-13.23-8.56v8.56Z"/><path class="cls-4" d="M1050.09,64.33a.56.56,0,0,1-.56.56.57.57,0,0,1-.57-.56,6.08,6.08,0,0,1,.57-1.39A6.15,6.15,0,0,1,1050.09,64.33Z"/><path class="cls-4" d="M1050.09,67a.57.57,0,0,1-.56.57A.58.58,0,0,1,1049,67a6.29,6.29,0,0,1,.57-1.39A6.35,6.35,0,0,1,1050.09,67Z"/><path class="cls-4" d="M1050.09,69.61a.56.56,0,0,1-.56.57.57.57,0,0,1-.57-.57,6.29,6.29,0,0,1,.57-1.39A6.35,6.35,0,0,1,1050.09,69.61Z"/><path class="cls-4" d="M1050.09,72.26a.56.56,0,0,1-.56.56.57.57,0,0,1-.57-.56,6.08,6.08,0,0,1,.57-1.39A6.15,6.15,0,0,1,1050.09,72.26Z"/><path class="cls-4" d="M1050.09,74.9a.57.57,0,0,1-.56.57.58.58,0,0,1-.57-.57,6.29,6.29,0,0,1,.57-1.39A6.35,6.35,0,0,1,1050.09,74.9Z"/><path class="cls-4" d="M1050.09,77.54a.56.56,0,0,1-.56.57.57.57,0,0,1-.57-.57,6.29,6.29,0,0,1,.57-1.39A6.35,6.35,0,0,1,1050.09,77.54Z"/><path class="cls-4" d="M1050.09,80.19a.56.56,0,0,1-.56.56.57.57,0,0,1-.57-.56,6.29,6.29,0,0,1,.57-1.39A6.35,6.35,0,0,1,1050.09,80.19Z"/><path class="cls-4" d="M1050.09,82.83a.57.57,0,0,1-.56.57.58.58,0,0,1-.57-.57,6.29,6.29,0,0,1,.57-1.39A6.35,6.35,0,0,1,1050.09,82.83Z"/><path class="cls-4" d="M1044,64.33a.57.57,0,0,1-1.14,0,6.08,6.08,0,0,1,.57-1.39A6.08,6.08,0,0,1,1044,64.33Z"/><path class="cls-4" d="M1044,67a.57.57,0,1,1-1.14,0,6.29,6.29,0,0,1,.57-1.39A6.29,6.29,0,0,1,1044,67Z"/><path class="cls-4" d="M1044,69.61a.57.57,0,1,1-1.14,0,6.29,6.29,0,0,1,.57-1.39A6.29,6.29,0,0,1,1044,69.61Z"/><path class="cls-4" d="M1044,72.26a.57.57,0,0,1-1.14,0,6.08,6.08,0,0,1,.57-1.39A6.08,6.08,0,0,1,1044,72.26Z"/><path class="cls-4" d="M1044,74.9a.57.57,0,1,1-1.14,0,6.29,6.29,0,0,1,.57-1.39A6.29,6.29,0,0,1,1044,74.9Z"/><path class="cls-4" d="M1044,77.54a.57.57,0,1,1-1.14,0,6.29,6.29,0,0,1,.57-1.39A6.29,6.29,0,0,1,1044,77.54Z"/><path class="cls-4" d="M1044,80.19a.57.57,0,0,1-1.14,0,6.29,6.29,0,0,1,.57-1.39A6.29,6.29,0,0,1,1044,80.19Z"/><path class="cls-4" d="M1044,82.83a.57.57,0,1,1-1.14,0,6.29,6.29,0,0,1,.57-1.39A6.29,6.29,0,0,1,1044,82.83Z"/><path class="cls-4" d="M1034.62,64.67a.57.57,0,0,1-1.14,0,6.29,6.29,0,0,1,.57-1.39A6.29,6.29,0,0,1,1034.62,64.67Z"/><path class="cls-4" d="M1034.62,67.31a.57.57,0,0,1-1.14,0,6.29,6.29,0,0,1,.57-1.39A6.29,6.29,0,0,1,1034.62,67.31Z"/><path class="cls-4" d="M1034.62,70a.57.57,0,0,1-1.14,0,6.08,6.08,0,0,1,.57-1.39A6.08,6.08,0,0,1,1034.62,70Z"/><path class="cls-4" d="M1034.62,72.6a.57.57,0,1,1-1.14,0,6.29,6.29,0,0,1,.57-1.39A6.29,6.29,0,0,1,1034.62,72.6Z"/><path class="cls-4" d="M1034.62,75.24a.57.57,0,1,1-1.14,0,6.29,6.29,0,0,1,.57-1.39A6.29,6.29,0,0,1,1034.62,75.24Z"/><path class="cls-4" d="M1034.62,77.89a.57.57,0,0,1-1.14,0,6.08,6.08,0,0,1,.57-1.39A6.08,6.08,0,0,1,1034.62,77.89Z"/><path class="cls-4" d="M1034.62,80.53a.57.57,0,0,1-1.14,0,6.29,6.29,0,0,1,.57-1.39A6.29,6.29,0,0,1,1034.62,80.53Z"/><path class="cls-4" d="M1034.62,83.17a.57.57,0,0,1-1.14,0,6.29,6.29,0,0,1,.57-1.39A6.29,6.29,0,0,1,1034.62,83.17Z"/><path class="cls-4" d="M1038.05,64a.57.57,0,0,1-1.14,0,6.29,6.29,0,0,1,.57-1.39A6.29,6.29,0,0,1,1038.05,64Z"/><path class="cls-4" d="M1038.05,66.62a.57.57,0,0,1-1.14,0,6.29,6.29,0,0,1,.57-1.39A6.29,6.29,0,0,1,1038.05,66.62Z"/><path class="cls-4" d="M1038.05,69.27a.57.57,0,1,1-1.14,0,6.29,6.29,0,0,1,.57-1.39A6.29,6.29,0,0,1,1038.05,69.27Z"/><path class="cls-4" d="M1038.05,71.91a.57.57,0,1,1-1.14,0,6.29,6.29,0,0,1,.57-1.39A6.29,6.29,0,0,1,1038.05,71.91Z"/><path class="cls-4" d="M1038.05,74.56a.57.57,0,0,1-1.14,0,6.08,6.08,0,0,1,.57-1.39A6.08,6.08,0,0,1,1038.05,74.56Z"/><path class="cls-4" d="M1038.05,77.2a.57.57,0,0,1-1.14,0,6.29,6.29,0,0,1,.57-1.39A6.29,6.29,0,0,1,1038.05,77.2Z"/><path class="cls-4" d="M1038.05,79.85a.57.57,0,0,1-1.14,0,6.2,6.2,0,0,1,.57-1.4A6.2,6.2,0,0,1,1038.05,79.85Z"/><path class="cls-4" d="M1038.05,82.49a.57.57,0,1,1-1.14,0,6.29,6.29,0,0,1,.57-1.39A6.29,6.29,0,0,1,1038.05,82.49Z"/><path class="cls-4" d="M1029.07,64.67a.57.57,0,0,1-1.13,0,6.29,6.29,0,0,1,.57-1.39A6.35,6.35,0,0,1,1029.07,64.67Z"/><path class="cls-4" d="M1029.07,67.31a.57.57,0,1,1-1.13,0,6.29,6.29,0,0,1,.57-1.39A6.35,6.35,0,0,1,1029.07,67.31Z"/><path class="cls-4" d="M1029.07,70a.57.57,0,0,1-1.13,0,6.08,6.08,0,0,1,.57-1.39A6.15,6.15,0,0,1,1029.07,70Z"/><path class="cls-4" d="M1029.07,72.6a.57.57,0,1,1-1.13,0,6.29,6.29,0,0,1,.57-1.39A6.35,6.35,0,0,1,1029.07,72.6Z"/><path class="cls-4" d="M1029.07,75.24a.57.57,0,1,1-1.13,0,6.29,6.29,0,0,1,.57-1.39A6.35,6.35,0,0,1,1029.07,75.24Z"/><path class="cls-4" d="M1029.07,77.89a.57.57,0,0,1-1.13,0,6.08,6.08,0,0,1,.57-1.39A6.15,6.15,0,0,1,1029.07,77.89Z"/><path class="cls-4" d="M1029.07,80.53a.57.57,0,1,1-1.13,0,6.29,6.29,0,0,1,.57-1.39A6.35,6.35,0,0,1,1029.07,80.53Z"/><path class="cls-4" d="M1029.07,83.17a.57.57,0,1,1-1.13,0,6.29,6.29,0,0,1,.57-1.39A6.35,6.35,0,0,1,1029.07,83.17Z"/><path class="cls-4" d="M1026,64a.57.57,0,1,1-1.13,0,6.29,6.29,0,0,1,.57-1.39A6.35,6.35,0,0,1,1026,64Z"/><path class="cls-4" d="M1026,66.62a.57.57,0,1,1-1.13,0,6.29,6.29,0,0,1,.57-1.39A6.35,6.35,0,0,1,1026,66.62Z"/><path class="cls-4" d="M1026,69.27a.57.57,0,1,1-1.13,0,6.29,6.29,0,0,1,.57-1.39A6.35,6.35,0,0,1,1026,69.27Z"/><path class="cls-4" d="M1026,71.91a.57.57,0,1,1-1.13,0,6.29,6.29,0,0,1,.57-1.39A6.35,6.35,0,0,1,1026,71.91Z"/><path class="cls-4" d="M1026,74.56a.57.57,0,0,1-1.13,0,6.08,6.08,0,0,1,.57-1.39A6.15,6.15,0,0,1,1026,74.56Z"/><path class="cls-4" d="M1026,77.2a.57.57,0,1,1-1.13,0,6.29,6.29,0,0,1,.57-1.39A6.35,6.35,0,0,1,1026,77.2Z"/><path class="cls-4" d="M1026,79.85a.57.57,0,0,1-1.13,0,6.2,6.2,0,0,1,.57-1.4A6.26,6.26,0,0,1,1026,79.85Z"/><path class="cls-4" d="M1026,82.49a.57.57,0,1,1-1.13,0,6.29,6.29,0,0,1,.57-1.39A6.35,6.35,0,0,1,1026,82.49Z"/><path class="cls-4" d="M1040.75,65a.57.57,0,1,1-1.13,0,6.35,6.35,0,0,1,.56-1.39A6.29,6.29,0,0,1,1040.75,65Z"/><path class="cls-4" d="M1040.75,67.65a.57.57,0,1,1-1.13,0,6.23,6.23,0,0,1,.56-1.38A6.17,6.17,0,0,1,1040.75,67.65Z"/><path class="cls-4" d="M1040.75,70.3a.57.57,0,0,1-1.13,0,6.35,6.35,0,0,1,.56-1.39A6.29,6.29,0,0,1,1040.75,70.3Z"/><path class="cls-4" d="M1040.75,72.94a.57.57,0,1,1-1.13,0,6.35,6.35,0,0,1,.56-1.39A6.29,6.29,0,0,1,1040.75,72.94Z"/><path class="cls-4" d="M1040.75,75.59a.57.57,0,0,1-1.13,0,6.26,6.26,0,0,1,.56-1.4A6.2,6.2,0,0,1,1040.75,75.59Z"/><path class="cls-4" d="M1040.75,78.23a.57.57,0,1,1-1.13,0,6.35,6.35,0,0,1,.56-1.39A6.29,6.29,0,0,1,1040.75,78.23Z"/><path class="cls-4" d="M1040.75,80.87a.57.57,0,1,1-1.13,0,6.35,6.35,0,0,1,.56-1.39A6.29,6.29,0,0,1,1040.75,80.87Z"/><path class="cls-4" d="M1040.75,83.52a.57.57,0,1,1-1.13,0,6.35,6.35,0,0,1,.56-1.39A6.29,6.29,0,0,1,1040.75,83.52Z"/><path class="cls-4" d="M1047,64.67a.57.57,0,0,1-1.13,0,6.29,6.29,0,0,1,.57-1.39A6.35,6.35,0,0,1,1047,64.67Z"/><path class="cls-4" d="M1047,67.31a.57.57,0,1,1-1.13,0,6.29,6.29,0,0,1,.57-1.39A6.35,6.35,0,0,1,1047,67.31Z"/><path class="cls-4" d="M1047,70a.57.57,0,0,1-1.13,0,6.08,6.08,0,0,1,.57-1.39A6.15,6.15,0,0,1,1047,70Z"/><path class="cls-4" d="M1047,72.6a.57.57,0,1,1-1.13,0,6.29,6.29,0,0,1,.57-1.39A6.35,6.35,0,0,1,1047,72.6Z"/><path class="cls-4" d="M1047,75.24a.57.57,0,1,1-1.13,0,6.29,6.29,0,0,1,.57-1.39A6.35,6.35,0,0,1,1047,75.24Z"/><path class="cls-4" d="M1047,77.89a.57.57,0,0,1-1.13,0,6.08,6.08,0,0,1,.57-1.39A6.15,6.15,0,0,1,1047,77.89Z"/><path class="cls-4" d="M1047,80.53a.57.57,0,1,1-1.13,0,6.29,6.29,0,0,1,.57-1.39A6.35,6.35,0,0,1,1047,80.53Z"/><path class="cls-4" d="M1047,83.17a.57.57,0,1,1-1.13,0,6.29,6.29,0,0,1,.57-1.39A6.35,6.35,0,0,1,1047,83.17Z"/><path class="cls-4" d="M1032,64.33a.57.57,0,0,1-1.13,0,6.08,6.08,0,0,1,.57-1.39A6.15,6.15,0,0,1,1032,64.33Z"/><path class="cls-4" d="M1032,67a.57.57,0,1,1-1.13,0,6.29,6.29,0,0,1,.57-1.39A6.35,6.35,0,0,1,1032,67Z"/><path class="cls-4" d="M1032,69.61a.57.57,0,1,1-1.13,0,6.29,6.29,0,0,1,.57-1.39A6.35,6.35,0,0,1,1032,69.61Z"/><path class="cls-4" d="M1032,72.26a.57.57,0,0,1-1.13,0,6.08,6.08,0,0,1,.57-1.39A6.15,6.15,0,0,1,1032,72.26Z"/><path class="cls-4" d="M1032,74.9a.57.57,0,1,1-1.13,0,6.29,6.29,0,0,1,.57-1.39A6.35,6.35,0,0,1,1032,74.9Z"/><path class="cls-4" d="M1032,77.54a.57.57,0,1,1-1.13,0,6.29,6.29,0,0,1,.57-1.39A6.35,6.35,0,0,1,1032,77.54Z"/><path class="cls-4" d="M1032,80.19a.57.57,0,0,1-1.13,0,6.29,6.29,0,0,1,.57-1.39A6.35,6.35,0,0,1,1032,80.19Z"/><path class="cls-4" d="M1032,82.83a.57.57,0,1,1-1.13,0,6.29,6.29,0,0,1,.57-1.39A6.35,6.35,0,0,1,1032,82.83Z"/><path class="cls-7" d="M1025.91,143.35a14.71,14.71,0,0,1,7.15,12.61c.21,9-10.72,20.19-10.72,20.19h15.14V137.88Z"/><path class="cls-7" d="M1049,143.35a14.71,14.71,0,0,0-7.15,12.61c-.21,9,10.73,20.19,10.73,20.19h-15.14V137.88Z"/><path class="cls-7" d="M1027,98.55a13.27,13.27,0,0,1,6.45,11.38c.19,8.16-9.68,18.22-9.68,18.22h13.67V93.61Z"/><path class="cls-7" d="M1047.91,98.55a13.27,13.27,0,0,0-6.45,11.38c-.19,8.16,9.68,18.22,9.68,18.22h-13.66V93.61Z"/><path class="cls-6" d="M990.25,127.89s1.42,18.24,47.23,18.24V127.89Z"/><path class="cls-6" d="M1084.71,127.89s-1.42,18.24-47.23,18.24V127.89Z"/><polygon class="cls-6" points="1020.41 178.83 1016.45 183.38 1037.48 183.38 1037.48 178.15 1020.41 178.83"/><polygon class="cls-6" points="1054.54 178.83 1058.51 183.38 1037.48 183.38 1037.48 178.15 1054.54 178.83"/><path class="cls-8" d="M1087.42,127.89a2,2,0,0,1-2,2h-96a2,2,0,0,1-2-2h0a2,2,0,0,1,2-2h96a2,2,0,0,1,2,2Z"/><path class="cls-8" d="M1054.7,179a2.43,2.43,0,0,0,.17-.89,2.46,2.46,0,0,0-2.47-2.47h-29.85a2.47,2.47,0,0,0-2.47,2.47,2.65,2.65,0,0,0,.17.89Z"/><polygon class="cls-7" points="1037.48 183.38 1016.45 183.38 1016.45 191.08 1037.48 191.08 1058.51 191.08 1058.51 183.38 1037.48 183.38"/><path class="cls-6" d="M1049.53,96.71a2.47,2.47,0,0,0-2.47-2.47h-19.17a2.47,2.47,0,0,0-2.46,2.47h0a2.47,2.47,0,0,0,2.46,2.47h19.17a2.47,2.47,0,0,0,2.47-2.47Z"/><path class="cls-6" d="M1037.48,97.21s-16.24,2-23.15-10.57h23.15Z"/><path class="cls-6" d="M1037.48,97.21s16.24,2,23.14-10.57h-23.14Z"/><path class="cls-8" d="M1062.27,85.34a1.29,1.29,0,0,0-1.3-1.29h-47a1.29,1.29,0,0,0-1.3,1.29h0a1.3,1.3,0,0,0,1.3,1.3h47a1.3,1.3,0,0,0,1.3-1.3Z"/><path class="cls-8" d="M1052.17,61.44a1.21,1.21,0,0,0-1.22-1.22H1024a1.22,1.22,0,0,0-1.23,1.22h0a1.23,1.23,0,0,0,1.23,1.22H1051a1.22,1.22,0,0,0,1.22-1.22Z"/><path class="cls-4" d="M1061,115a.57.57,0,0,0,.74-.24.54.54,0,0,0-.21-.76,4.6,4.6,0,0,0-1.46-.09A8.67,8.67,0,0,0,1061,115Z"/><path class="cls-4" d="M1063.25,116.49a.56.56,0,0,0,.76-.12.54.54,0,0,0-.08-.79,4.59,4.59,0,0,0-1.44-.3A9.09,9.09,0,0,0,1063.25,116.49Z"/><path class="cls-4" d="M1065.28,118.3a.56.56,0,0,0,.77,0,.55.55,0,0,0,0-.79,4.41,4.41,0,0,0-1.37-.54A9.25,9.25,0,0,0,1065.28,118.3Z"/><path class="cls-4" d="M1067,120.42a.56.56,0,0,0,.76.15.55.55,0,0,0,.19-.77,4.27,4.27,0,0,0-1.26-.77A10.24,10.24,0,0,0,1067,120.42Z"/><path class="cls-4" d="M1068.25,122.8a.56.56,0,0,0,.73.28.54.54,0,0,0,.31-.72,4.69,4.69,0,0,0-1.1-1A8.32,8.32,0,0,0,1068.25,122.8Z"/><path class="cls-4" d="M1069.09,125.38a.57.57,0,0,0,.67.4.55.55,0,0,0,.44-.66,4.11,4.11,0,0,0-.91-1.15A8.57,8.57,0,0,0,1069.09,125.38Z"/><path class="cls-4" d="M1063,122.41a.56.56,0,0,0,.69-.31.54.54,0,0,0-.26-.74,4,4,0,0,0-1.43.1A7.94,7.94,0,0,0,1063,122.41Z"/><path class="cls-4" d="M1065.13,123.71a.58.58,0,0,0,.76-.08.54.54,0,0,0,0-.79,2.15,2.15,0,0,0-.8-.25,3.81,3.81,0,0,0-.61-.06l.28.52A3.92,3.92,0,0,0,1065.13,123.71Z"/><path class="cls-4" d="M1066.69,125.64a.59.59,0,0,0,.73.21.54.54,0,0,0,.28-.74,2.17,2.17,0,0,0-.66-.54,3.61,3.61,0,0,0-.55-.27s0,.28.09.59A3.34,3.34,0,0,0,1066.69,125.64Z"/><path class="cls-9" d="M230.25,179.47A22.32,22.32,0,0,1,240,197.86a13.79,13.79,0,1,1,7.16,25.8,2.88,2.88,0,0,1-.41,0H289.7a3.85,3.85,0,0,0,.48,0,16.82,16.82,0,1,0-8.73-31.46,27.19,27.19,0,0,0-51.2-12.73Z"/><path class="cls-10" d="M188.77,223.63a4.57,4.57,0,0,0,.84.05h57.14a2.88,2.88,0,0,0,.41,0,13.8,13.8,0,1,0-7.16-25.8,22.3,22.3,0,0,0-43.95-5.33,16.89,16.89,0,0,0-14.22.45,14.24,14.24,0,0,0-6.68,6.68C169.56,211.51,177.71,223.11,188.77,223.63Z"/><path class="cls-11" d="M253.5,181.87c-5.56,4.09-2.24,7.41,1.86,1.85,4.09,5.56,7.41,2.24,1.85-1.85,5.56-4.1,2.24-7.42-1.85-1.85C251.26,174.45,247.94,177.77,253.5,181.87Z"/><path class="cls-12" d="M254.05,180.56c-6.83-1-6.83,3.66,0,2.62-1,6.83,3.66,6.83,2.62,0,6.83,1,6.83-3.66,0-2.62C257.71,173.73,253,173.73,254.05,180.56Z"/><circle class="cls-13" cx="255.36" cy="181.87" r="1.48"/><path class="cls-11" d="M213.8,201.76c-5.56,4.1-2.24,7.42,1.85,1.85,4.1,5.57,7.42,2.25,1.86-1.85,5.56-4.09,2.24-7.41-1.86-1.85C211.56,194.35,208.24,197.67,213.8,201.76Z"/><path class="cls-12" d="M214.34,200.45c-6.83-1-6.83,3.66,0,2.62-1,6.83,3.66,6.83,2.63,0,6.82,1,6.82-3.66,0-2.62C218,193.62,213.31,193.62,214.34,200.45Z"/><circle class="cls-13" cx="215.65" cy="201.76" r="1.48"/><path class="cls-11" d="M291.8,208.19c-3.5,2.58-1.41,4.68,1.17,1.17,2.58,3.51,4.67,1.41,1.17-1.17,3.5-2.58,1.41-4.67-1.17-1.17C290.39,203.52,288.3,205.61,291.8,208.19Z"/><path class="cls-12" d="M292.14,207.37c-4.3-.66-4.3,2.3,0,1.65-.65,4.3,2.31,4.3,1.66,0,4.3.65,4.3-2.31,0-1.65C294.45,203.06,291.49,203.06,292.14,207.37Z"/><path class="cls-13" d="M292,208.19a.93.93,0,1,0,.93-.93A.93.93,0,0,0,292,208.19Z"/><path class="cls-9" d="M128.73,179.42a22.3,22.3,0,0,1,9.75,18.38,13.79,13.79,0,1,1,7.16,25.8,1.93,1.93,0,0,1-.41,0h43a2.58,2.58,0,0,0,.48,0,16.82,16.82,0,1,0-8.73-31.46,27.19,27.19,0,0,0-51.2-12.72Z"/><path class="cls-10" d="M87.25,223.58a4.52,4.52,0,0,0,.83,0h57.15a1.93,1.93,0,0,0,.41,0,13.79,13.79,0,1,0-7.16-25.8,22.3,22.3,0,0,0-43.95-5.33,16.88,16.88,0,0,0-14.22.45,14.28,14.28,0,0,0-6.69,6.69C68,211.45,76.19,223.06,87.25,223.58Z"/><path class="cls-11" d="M152,181.81c-5.56,4.1-2.24,7.42,1.86,1.86,4.09,5.56,7.41,2.24,1.85-1.86,5.56-4.09,2.24-7.41-1.85-1.85C149.74,174.4,146.42,177.72,152,181.81Z"/><path class="cls-12" d="M152.53,180.5c-6.83-1-6.83,3.66,0,2.62-1,6.83,3.65,6.83,2.62,0,6.83,1,6.83-3.66,0-2.62C156.18,173.67,151.49,173.67,152.53,180.5Z"/><circle class="cls-13" cx="153.84" cy="181.81" r="1.48"/><path class="cls-11" d="M112.28,201.7c-5.56,4.1-2.24,7.42,1.85,1.86,4.1,5.56,7.42,2.24,1.86-1.86,5.56-4.09,2.24-7.41-1.86-1.85C110,194.29,106.72,197.61,112.28,201.7Z"/><path class="cls-12" d="M112.82,200.39c-6.83-1-6.83,3.66,0,2.63-1,6.82,3.66,6.82,2.62,0,6.83,1,6.83-3.66,0-2.63C116.48,193.56,111.79,193.56,112.82,200.39Z"/><circle class="cls-13" cx="114.13" cy="201.7" r="1.48"/><path class="cls-11" d="M190.28,208.14c-3.51,2.58-1.41,4.67,1.17,1.17,2.58,3.5,4.67,1.41,1.17-1.17,3.5-2.58,1.41-4.68-1.17-1.17C188.87,203.46,186.77,205.56,190.28,208.14Z"/><path class="cls-12" d="M190.62,207.31c-4.3-.65-4.3,2.31,0,1.65-.65,4.31,2.31,4.31,1.65,0,4.31.66,4.31-2.3,0-1.65C192.93,203,190,203,190.62,207.31Z"/><path class="cls-13" d="M190.51,208.14a.94.94,0,1,0,.94-.94A.94.94,0,0,0,190.51,208.14Z"/><path class="cls-9" d="M971.71,177.05a22.31,22.31,0,0,1,9.75,18.38,13.79,13.79,0,1,1,7.16,25.81,2.88,2.88,0,0,1-.41,0h43a3.85,3.85,0,0,0,.48,0,16.83,16.83,0,1,0-8.73-31.47,27.19,27.19,0,0,0-51.2-12.72Z"/><path class="cls-10" d="M930.23,221.21a4.52,4.52,0,0,0,.83,0h57.15a2.88,2.88,0,0,0,.41,0,13.8,13.8,0,1,0-7.16-25.81,22.3,22.3,0,0,0-44-5.32,16.89,16.89,0,0,0-14.22.45,14.2,14.2,0,0,0-6.68,6.68C911,209.08,919.17,220.69,930.23,221.21Z"/><path class="cls-11" d="M995,179.45c-5.56,4.09-2.24,7.41,1.86,1.85,4.09,5.56,7.41,2.24,1.85-1.85,5.56-4.1,2.24-7.42-1.85-1.86C992.72,172,989.4,175.35,995,179.45Z"/><path class="cls-12" d="M995.51,178.14c-6.83-1-6.83,3.65,0,2.62-1,6.83,3.65,6.83,2.62,0,6.83,1,6.83-3.66,0-2.62C999.16,171.31,994.47,171.31,995.51,178.14Z"/><circle class="cls-13" cx="996.82" cy="179.45" r="1.48"/><path class="cls-11" d="M955.26,199.34c-5.56,4.09-2.24,7.41,1.85,1.85,4.1,5.56,7.42,2.24,1.86-1.85,5.56-4.1,2.24-7.42-1.86-1.85C953,191.92,949.7,195.24,955.26,199.34Z"/><path class="cls-12" d="M955.8,198c-6.83-1-6.83,3.66,0,2.62-1,6.83,3.66,6.83,2.62,0,6.83,1,6.83-3.66,0-2.62C959.46,191.2,954.77,191.2,955.8,198Z"/><circle class="cls-13" cx="957.11" cy="199.34" r="1.48"/><path class="cls-11" d="M1033.26,205.77c-3.5,2.58-1.41,4.68,1.17,1.17,2.58,3.51,4.67,1.41,1.17-1.17,3.5-2.58,1.41-4.67-1.17-1.17C1031.85,201.1,1029.76,203.19,1033.26,205.77Z"/><path class="cls-12" d="M1033.6,205c-4.3-.66-4.3,2.3,0,1.65-.65,4.3,2.31,4.3,1.66,0,4.3.65,4.3-2.31,0-1.65C1035.91,200.64,1033,200.64,1033.6,205Z"/><path class="cls-13" d="M1033.49,205.77a.94.94,0,1,0,1.87,0,.94.94,0,0,0-1.87,0Z"/><path class="cls-9" d="M1075.11,177.05a22.3,22.3,0,0,1,9.76,18.38,13.79,13.79,0,1,1,7.15,25.81,2.68,2.68,0,0,1-.4,0h43a3.62,3.62,0,0,0,.47,0,16.82,16.82,0,1,0-8.72-31.47,27.2,27.2,0,0,0-51.21-12.72Z"/><path class="cls-10" d="M1033.64,221.21a4.52,4.52,0,0,0,.83,0h57.15a2.68,2.68,0,0,0,.4,0,13.8,13.8,0,1,0-7.15-25.81,22.3,22.3,0,0,0-9.76-18.38,22.28,22.28,0,0,0-34.19,13.06,16.88,16.88,0,0,0-14.22.45,14.22,14.22,0,0,0-6.69,6.68C1014.42,209.08,1022.58,220.69,1033.64,221.21Z"/><path class="cls-11" d="M1098.37,179.45c-5.56,4.09-2.24,7.41,1.85,1.85,4.1,5.56,7.42,2.24,1.86-1.85,5.56-4.1,2.24-7.42-1.86-1.86C1096.13,172,1092.81,175.35,1098.37,179.45Z"/><path class="cls-12" d="M1098.91,178.14c-6.82-1-6.82,3.65,0,2.62-1,6.83,3.66,6.83,2.63,0,6.82,1,6.82-3.66,0-2.62C1102.57,171.31,1097.88,171.31,1098.91,178.14Z"/><circle class="cls-13" cx="1100.22" cy="179.45" r="1.48"/><path class="cls-11" d="M1058.67,199.34c-5.56,4.09-2.24,7.41,1.85,1.85,4.1,5.56,7.42,2.24,1.86-1.85,5.56-4.1,2.24-7.42-1.86-1.85C1056.43,191.92,1053.11,195.24,1058.67,199.34Z"/><path class="cls-12" d="M1059.21,198c-6.83-1-6.83,3.66,0,2.62-1,6.83,3.66,6.83,2.62,0,6.83,1,6.83-3.66,0-2.62C1062.87,191.2,1058.17,191.2,1059.21,198Z"/><circle class="cls-13" cx="1060.52" cy="199.34" r="1.48"/><path class="cls-11" d="M1136.67,205.77c-3.51,2.58-1.41,4.68,1.17,1.17,2.58,3.51,4.67,1.41,1.17-1.17,3.5-2.58,1.41-4.67-1.17-1.17C1135.26,201.1,1133.16,203.19,1136.67,205.77Z"/><path class="cls-12" d="M1137,205c-4.3-.66-4.3,2.3,0,1.65-.65,4.3,2.31,4.3,1.65,0,4.31.65,4.31-2.31,0-1.65C1139.32,200.64,1136.36,200.64,1137,205Z"/><path class="cls-13" d="M1136.9,205.77a.94.94,0,1,0,.94-.93A.94.94,0,0,0,1136.9,205.77Z"/><g id="サッカー少年"><path class="cls-14" d="M998.07,164.22l-5.7-1.31-.76,2.89s-4.26,1.66-6.78,2.31l-12.63,3.22,3,6.76,18.07-9,5.07-1.53Z"/><path class="cls-15" d="M990.46,171l2.84-1.41,5-2-.27-3.37c-.27-.06-5.85-.44-5.85-.44l-.81,1.94-2.93,1.05Z"/><path class="cls-16" d="M1005.14,168.81l1.83-1.29-3-2.67-1.38,2.93Z"/><rect class="cls-15" x="1006.3" y="163.29" width="1.09" height="6.88" transform="translate(260.7 863.02) rotate(-52.42)"/><path class="cls-15" d="M1009.24,169.27c-1.5,1.95-4.1-.46-4.1-.46l.67-2.18Z"/><path class="cls-16" d="M993.11,159.92l-1.41,4.53s.78-1,2.73-.09a4.79,4.79,0,0,1,2.59,3.69,14,14,0,0,1,6.16,0l1.19-2.85-8.89-5.1Z"/><polygon class="cls-15" points="993.05 160.05 1004.45 165.59 1004.46 164.2 993.59 158.94 993.05 160.05"/><polygon class="cls-15" points="1002.3 168.04 1002.47 166.98 1001.9 166.94 1001.87 167.96 1002.3 168.04"/><polygon class="cls-15" points="1001.01 167.96 1001.17 166.91 1000.61 166.86 1000.58 167.88 1001.01 167.96"/><polygon class="cls-15" points="999.66 168 999.82 166.94 999.26 166.9 999.23 167.92 999.66 168"/><polygon class="cls-15" points="998.36 167.99 998.52 166.94 997.96 166.89 997.93 167.92 998.36 167.99"/><path class="cls-14" d="M931.36,208l4.1-4-2-2.14,1.72-6.78,3.89-13L933,178l-3.06,23.4-1.44,5Z"/><path class="cls-15" d="M930.43,197.37c-.33,2.57-.63,4.16-.63,4.16l-1.34,4.86,2.9,1.57,4.1-4-2-2.14a23.77,23.77,0,0,0,1.24-3.63Z"/><path class="cls-14" d="M951.58,133.14c2.62,2,.1,4.4-4.8,6.14s-12.32,5.21-13.79,4.22-.81-2.1,1-2.69,7.42-5,10.39-6.19S949.57,131.63,951.58,133.14Z"/><path class="cls-14" d="M948.87,116c-3.78-1-5.62,3.11-4.43,6.37s.3,6.35.88,8.2,1.1,5.83,3.22,6.52,3.82,0,3.77-1.64S951,125,951.47,123.85,953,117.13,948.87,116Z"/><path class="cls-14" d="M935.83,141c-.32-1-1.44-1.78-3.47-1.91a29.9,29.9,0,0,0-4.66-.14,8.55,8.55,0,0,0-1.48.26c-.69.34-.56.87.84.7a7,7,0,0,1,2.45,0,17.52,17.52,0,0,0-2.34.23c-.72.18-2.14.27-2.12.7s.54.6,1.72.33a8.52,8.52,0,0,1,2.79,0,9.48,9.48,0,0,0-2.68.78c-1,.53-1.29.64-1.15,1s.83.5,1.55.06a4.39,4.39,0,0,1,2.12-.53c.5,0,.4.23.14.3s-1.39.6-1.78.79-.65,1.06.21.78,1.13-.86,2.91-.84,1.66.57,3.11.34A2.52,2.52,0,0,0,935.83,141Z"/><path class="cls-14" d="M929.72,138.79c-.39.71.94,1,1.84,1.18s.68.89,1.56,1.51,2.34.6,2.53-.19a1.88,1.88,0,0,0-1.55-2.07C932.67,138.9,930,138.22,929.72,138.79Z"/><path class="cls-17" d="M950.58,152.33c-3.31,2.18-2.93,4.74-1.15,8s14.61,19.06,16.46,20.12,6.43,1.46,4.89-2.85-3.19-11.8-7.64-17.65S953.57,150.36,950.58,152.33Z"/><path class="cls-17" d="M985.09,173.63c-3.08,1.29-5.49,2.47-7.14,3.31-1.89,1-3.91,1.72-5.77,2.76s-3.18,1.94-4.74,1.44a3.76,3.76,0,0,1-1.52-1c-1.46-1.41-.8-5.1,1.17-7.11,1.5-1.53,3.21-1.5,6.69-2.27a49.85,49.85,0,0,0,9.11-2.95Z"/><path class="cls-18" d="M948.2,146.61c-.68,6.46-1.2,8.79,2.5,10.51s6.06,5.1,9.6,1,4.17-8,2.12-10.73a17.81,17.81,0,0,0-4.46-4.2Z"/><path class="cls-18" d="M957.05,154.2c-2.71-2.89-5.17-2.08-8,.23s-15,15.23-15.67,17.24.07,7.45,4,5.21,11.21-5.79,16.21-11.17a51,51,0,0,0,5.17-6.18C960.36,156.68,958.7,156,957.05,154.2Z"/><path class="cls-18" d="M930.73,193.93c.44-6.13.56-7.61,1.24-14,.81-7.63,1.79-8.55,2.65-9a4.88,4.88,0,0,1,4.79.56c2.78,2.16,1.38,7.46-.26,13.68a65.8,65.8,0,0,1-3.31,9.51Z"/><path class="cls-15" d="M949.46,115.83a6.14,6.14,0,0,0-3.17,1.18c-.91.74-1.31,1.75-2,3.82-1.11,3.23-1.66,4.85-1.69,5a16.66,16.66,0,0,0,.5,8.05,22.15,22.15,0,0,1,1.75,4.56c1.5,5.72.06,9.68,2.23,10.77.41.21,1.38.28,3.28,0,3.8-.56,4.79-.66,7.15-2a4.53,4.53,0,0,0,2-1.68,3.08,3.08,0,0,0-.07-2.38c-1.41-3.78-1.16-7.93-1.76-11.9-1-6.53.1-8.2-1.95-11.35C952.88,115.55,951.19,115.61,949.46,115.83Z"/><path class="cls-14" d="M945,123c5.26-3.46,8.55-6.21,6.44-8s-4.73,1.37-5.21,3.49S945,123,945,123Z"/><path class="cls-14" d="M949.59,109.4l-5.51,3.07,2.53,5.87c.75,1.37,6.48-1.16,5.76-2.48Z"/><path class="cls-14" d="M949.49,112.34c-3.61,4.4-7.59,5.59-8.5,4.11-.81-1.31-1.47-3.44-1.7-3.77s-.8-.17-1.06-.77.4-2.23.23-3.55-1.17-5.65.47-6.94,5.86-3.32,8.5-.93,4.29,5.55,3.73,7.06S949.49,112.34,949.49,112.34Z"/><path class="cls-17" d="M942.05,105.88c4.6-.15,6.41,2.36,6.41,2.36a1.45,1.45,0,0,1,.59-1.7c1-.51,1.61.14,1.63,1.11a3,3,0,0,1-1.06,2.66l1,2.2a11,11,0,0,1,1.25-4.56c1.17-1.75,1-4.92-.32-7.2s-3.65-4.19-8.27-3.35C937.64,98.43,933.85,106.15,942.05,105.88Z"/><path class="cls-14" d="M959.39,149.53c-.37.52-2.39,1.8-2.35,1.89s-1.25,3-1.25,3a.79.79,0,0,0,1-.1,10.31,10.31,0,0,0,1.25-2.7l2-.83Z"/><path class="cls-14" d="M962,145.92c1.78.31,2.31,1.49,1.59,3.18a7.77,7.77,0,0,1-2,2.72s-.59,1.8-.91,3.12-1.32.91-1-.2.7-3.27.7-3.27l-.94,1.89a10.61,10.61,0,0,1-.75,2.38c-.37.52-.86.42-.81-.27a32.41,32.41,0,0,1,.83-3.35l-.55.8a20,20,0,0,1-1,2.53c-.29.41-1,.13-1,0L957.4,152a39.31,39.31,0,0,0,2.24-3.31C960.32,147.49,961,145.75,962,145.92Z"/><path class="cls-14" d="M967.63,128.09c3.21-.57,3.27,2.94,1.2,7.7s-4.74,12-6.47,12.42-2.23-.12-1.41-1.85,1.68-9,2.84-12S965.15,128.53,967.63,128.09Z"/><path class="cls-14" d="M951.59,118.36c-3.19,2.27-1.12,6.32,2.15,7.45s5.13,3.77,6.93,4.49,5.22,2.82,7.09,1.61,2.4-3,1.1-4-8.92-5.55-9.52-6.66S955.1,115.86,951.59,118.36Z"/><path class="cls-16" d="M923.93,210.94l-.45,2.16,4-.14-1-3Z"/><rect class="cls-15" x="920.72" y="213.04" width="6.77" height="1.08" transform="translate(-16.74 93.56) rotate(-5.74)"/><path class="cls-15" d="M920.68,213.38c-.24-2.41,3.25-2.44,3.25-2.44l1,2Z"/><path class="cls-16" d="M937.55,206.45l-3-3.58s.43,1.19-1.4,2.29a4.65,4.65,0,0,1-4.42.16,13.9,13.9,0,0,1-3.28,5.1l1.6,2.62,9.08-4.71Z"/><polygon class="cls-15" points="937.48 206.33 926.79 212.76 927.52 213.78 938.11 207.37 937.48 206.33"/><polygon class="cls-15" points="925.93 209.68 926.72 210.38 927.06 209.94 926.23 209.37 925.93 209.68"/><polygon class="cls-15" points="926.69 208.66 927.47 209.36 927.81 208.92 926.98 208.34 926.69 208.66"/><polygon class="cls-15" points="927.38 207.52 928.16 208.22 928.5 207.78 927.67 207.21 927.38 207.52"/><polygon class="cls-15" points="928.08 206.45 928.87 207.15 929.21 206.71 928.38 206.14 928.08 206.45"/><path class="cls-19" d="M902.61,212.89c-1.24.77-3.69.89-5.2,1.62s-2.44,2.38-3.9,2.76a9,9,0,0,1-4.86-.48,2.12,2.12,0,0,1-1-2.33c.28-.71,1.82-1.24,2.64-1.94a26.55,26.55,0,0,0,3-2.89c.51-.63.24-1.84,1-2.14,1.3-.5,4.77-1.86,6.54-1.46s2.72,3.48,2.91,4a2.41,2.41,0,0,1-1.15,2.88Z"/><path class="cls-20" d="M882.12,187.42c-.76,1.27.29,3.34,1.24,5.24a44.79,44.79,0,0,0,5.37,7.8c1.71,2,3.07,2.83,4.26,4.47a4.85,4.85,0,0,1,1,4.15c-.19,1.23,3.74,1.62,4.92,1.13,1-.41.72-1.73,1.63-3,.49-.66-1.45-2-1.93-3-.33-.64-.48-.94-1.46-3a72.28,72.28,0,0,1-2.62-7.69c-.76-2.6-1.26-4-3.35-5.52s-4.12-2.92-5.68-3.07c-.49-.05-3.42,2.48-3.42,2.48Z"/><path class="cls-21" d="M891,174.51c10.43-4.75-3.34,2.24-3.34,2.24a25.66,25.66,0,0,0-6.6,6.7,5.49,5.49,0,0,0,.1,4.49c.54,1.27,1.67,3.07,3.14,3.15s4.45-1.83,5.68-2.68c.8-.56.79-2,1.68-2.41,1.31-.64,4.75-.51,6.53-1.64,2.43-1.54,8.42-7.85,8.42-7.85s-5.18-6.75-15.61-2Z"/><path class="cls-22" d="M913.19,161.9c-2.37-1-10.31,3-12.9,3.8-1,.3-2,2.59-2.72,3s-2.64,3-3.64,3.47c-3,1.5-7.3,4.64-7.33,5.14-.05.74,5,3.1,7.15,4.8s3.77,4.21,4.2,4.1a67.74,67.74,0,0,0,6.75-3.58c2.75-1.62,9.18-2.31,11-4.26a9.92,9.92,0,0,0,2.37-7.3,23.42,23.42,0,0,0-2.69-7.49A3.94,3.94,0,0,0,913.19,161.9Z"/><path class="cls-20" d="M928.73,192.83c-2.27-1.67-5.76,3.46-6.28,5s0,2.57,1.3,3.63c2.06,1.67,8,5.64,10.35,7.55,2.91,2.34,1.73,4.34,3.56,5.32s5.35-2.79,4.9-3.86c-.64-1.48-1.46-1.61-2.11-2.28a28.63,28.63,0,0,1-2.58-3.26c-3.25-4.44-3.2-7.76-9.14-12.14Z"/><path class="cls-21" d="M917.55,174.41c-.26-1.71-14.3.52-13.55,2.88.58,1.86,2,3.35,3,5,1.43,2.39,4.26,6.93,5.66,8.76.83,1.08,2.42,2.24,2.94,3a9.29,9.29,0,0,0,1.84,2.2c1.14.83,2.08.67,3.44,1.59a12.94,12.94,0,0,1,2.32,2.3c.23.27,3.52-.35,4.51-2.66s.56-4,.25-4.19c-1.44-.91-3-1.47-4.23-3.13-1.85-2.61-3.91-8.27-5.07-10.27-.42-.72-1.52-1-1.68-1.84s.8-2.45.62-3.67Z"/><path class="cls-22" d="M900.51,167.21c-1.22.08-1.28,1.52-1.3,2.67s2.52,5.79,2.75,6.52c.59,1.85,2,3.35,3,5,1.83,2.85,3.91,7.11,5.67,8.57,1,.83,5.85.84,7.92.07,3.18-1.19,4.81-3.37,4.2-4.53-.83-1.56-1.91-5.3-2.58-6.7a40.86,40.86,0,0,1-1.07-5.51,28,28,0,0,0-2.16-6.55c-.61-1.21-1.38-3-2.7-3C911.53,163.82,903.11,167.05,900.51,167.21Z"/><path class="cls-19" d="M933.08,221.7c1.3.44,4,1,5.63.2,1.17-.58,1.9-1.87,2.83-3.26a13.92,13.92,0,0,1,1.27-2c.45-.5,1.28-.76,1.76-1.21a5.25,5.25,0,0,0,1.37-2c.22-.54-1.06-1.81-1.45-2.23a22.62,22.62,0,0,1-2.13-2.07c-.43-.56-1,1.74-1.28,2.18a2,2,0,0,1-1.35,1,2.09,2.09,0,0,1-1.39-.13,4.68,4.68,0,0,0-2.42.13c-.46.23.1.47.28,1.14a4.13,4.13,0,0,1,.47,2,5.58,5.58,0,0,1-1,2.78c-.58.69-2.22.89-2.63,1.53s-.63,1.73.09,2Z"/><path class="cls-21" d="M924.63,161.1a2.3,2.3,0,0,1-1.28-.08c-.36-.1-.88-.61-1-.55s.24.67.48.91a3.35,3.35,0,0,0,1,.65c.28.11.53-.05.83.16a.46.46,0,0,1,.06.67c-.19.16-.77.08-1.07.21s-.27.5-.62.6a3.34,3.34,0,0,1-1.61,0,4.38,4.38,0,0,1-1.33-.75,5.76,5.76,0,0,1-1.71-1.79,7.49,7.49,0,0,1-.38-3c0-.51,1-2,1.29-2a3,3,0,0,1,1.66.81,10.68,10.68,0,0,1,1.31,2,2.87,2.87,0,0,0,1.13,1c.41.19,1,.21,1.18.4s.3.58.07.74Z"/><path class="cls-21" d="M915.07,135.45c-1.74-.31-.73,4.3.18,5.13s.09,2.17.25,3.42c.27,2.05,1.11,6.76,1.37,8.87.16,1.37-.18,2.73,0,3.9a6.08,6.08,0,0,0,.53,2.06c.37.93,0,1.1.55,1.72s1,1.8,1.52,1.68,1.19,0,1.36-.13c.49-.3.1-.84-.13-.92a4,4,0,0,0-.87-.17c-.2,0-.13-1.07-.15-1.69s.9-2,0-3.07c-.17-.22.35-2.09.52-3.13.29-1.79.83-5.37,1-7.62a57.15,57.15,0,0,0-.32-5.88c0-1.61.36-3.36-.88-4s-3.57.05-4.95-.19Z"/><path class="cls-23" d="M904.53,136c.55,2.36,1,5.22,1.94,6.05s1.7-.81,3.36-1,3.55,1.35,4.91,1.31c1.1,0,2.82-3.61,3.23-4.47s1.32-2.47,1-2.84a32,32,0,0,0-4.17-1.91c-1.74-.54-3.26-.59-4.93-1.38-1.25-.6-1.76-1.48-3.34-2.27s-4.31-1.24-4.44-.4,2.4,6.89,2.4,6.89Z"/><path class="cls-21" d="M899.85,130.64c.77,1.3-6.36,7.33-7.13,6.52-.62-.66-1.13-2.21-2.35-3.41-.8-.79-4.81-1.22-4.81-1.22s3.54-5.09,4-5.85c1-1.67,5.6-2.91,6.07-1.54,1.24,3.67,3.76,4.71,4.22,5.5Z"/><path class="cls-24" d="M883.4,120.62a7.67,7.67,0,0,1,.46-2.22,1.38,1.38,0,0,1,.2-.37c.57-.69.93-1.56,1.42-1.78.2-.08-1.39-2.09-.81-2a16.39,16.39,0,0,0,4.11.53c.12,0-1-2.11-.54-2,.72.15,2.41,1.51,2.83,1.5a5.32,5.32,0,0,1,1.61.35,7.62,7.62,0,0,1,5.12,1.74c1.8,1.65,1.64,4.55,1.61,5.11a12.48,12.48,0,0,1-.51,2.64c-.49,1.68-1,2.28-.88,3.51.08.95.49,1.48.24,1.53a9.1,9.1,0,0,1-3-2.32,11.86,11.86,0,0,0-.76-1.51c-.45-.55-.76-.34-.92-.25-.43.25-1,3.33-1.32,3.71-.86.88-.17.25-.83-.08a51.65,51.65,0,0,1-6.76-4.13C883.71,123.81,883.35,121.38,883.4,120.62Z"/><path class="cls-21" d="M885,133.09c-.31-.25-.62-2.73-1.08-3.46s-1.31-1.06-1.22-1.73,1.44-1.41,1.27-2.4a6.19,6.19,0,0,1,.56-3.48,3.6,3.6,0,0,1,.68-.88c.25-.25,1.72,3,1.87,2.86.39-.39.79-2.29,1.12-2.08.83.51.34.92.83,1.8a15.15,15.15,0,0,0,.83,1.57c.38.56,1.23,1.69,1.52,1.55s-.12-.66.16-1.56a2.31,2.31,0,0,1,.51-.91,1.36,1.36,0,0,1,.33-.27,1,1,0,0,1,1.45.32,3.31,3.31,0,0,1,.44,2.33,5.29,5.29,0,0,1-1.61,2.84c-.67.58-.42-.08-1,.38s-.06,1-.68,1.68a6.12,6.12,0,0,1-2.77,1.58A3.35,3.35,0,0,1,885,133.09Z"/><path class="cls-23" d="M898.53,129.56c-1.11.48-2.73.84-3.68,1.78-1.17,1.16-3.11,2.92-3.58,4.84-.63,2.57-1.07,7.34-.17,10.58.84,3,5.14,13,7.13,17.2.93,2-.09,3.2.69,3.52,2,.82,5.91.72,8.8-.37a29.89,29.89,0,0,0,7.32-4.55c.67-.35-1.87-6.63-3.95-11.24-1-2.26-1.83-4.43-2.27-5.78-1-2.92.07-4.92-.22-7.68-.21-2-.45-5.52-2.13-7.53-1-1.22-3.48-1.9-5-1.83a9.54,9.54,0,0,0-3,1.06Z"/><path class="cls-21" d="M877.13,153.75a5.81,5.81,0,0,0-1.09-2.18c-.42-.51-1.5-.93-1.81-.76a.76.76,0,0,0-.32.68c-.09.29-1.18-.22-1.83-.57s-.46-.29-.84-.49-1.35.49-1.47.91.3,1.07.32,1.59c0,.69-.39.34-.37,1.22,0,.43.17.57.21,1.32a3.84,3.84,0,0,0,.38,2c1,.95,4.85.91,5.89.7a.51.51,0,0,0,.21-.1,10.92,10.92,0,0,1,1.69,0c2.59.24,6.79,1.29,9.75,1.44,1.29.07,2.43.05,3.72.07a7.36,7.36,0,0,0,2.79-.24c.64-.28,1.13-2.2,1.49-2.9a20,20,0,0,0,1.68-3.41c.78-2.36,1.57-6.72,2.21-8.82.46-1.51,2-4,1.28-5.43-.91-1.74-6.57-2.54-6.57-2.54-1,1.38-1.57,4.79-2.22,6.66-1.79,5.12.11,8.64-2,10.11-.79.56-.76-.07-4.49.43-3.07.4-4.71,1-7.43.61A10.42,10.42,0,0,1,877.13,153.75Z"/><path class="cls-23" d="M891.89,137.06c-1,1.37-.29,4.33-.57,6-.24,1.41-.42,2.58-.66,4s-.65,5-.31,5.43c1,1.32,6.64,1.74,8.06,2.22.21.07.43-1.4.59-2.82.13-1.1.58-3.05.85-5.37.18-1.57,1.73-2.51,1.9-4a11,11,0,0,0-.51-5.27c-.43-1.33-1.27-3.53-4.38-3.7-2.33-.14-5,3.52-5,3.52Z"/><path class="cls-25" d="M861.61,215.09a7.65,7.65,0,1,1-2.8-10.45,7.65,7.65,0,0,1,2.8,10.45Z"/><g class="cls-26"><path class="cls-27" d="M845.16,211.48s0,0,0,0l.35,3.07,0,0,3.05.67a0,0,0,0,0,0,0l1.53-2.65a0,0,0,0,0,0,0l-2.1-2.31h0l-2.83,1.22Zm4.1-7.08s0,0,0,0l.35,3.07a0,0,0,0,0,0,0l3,.66s0,0,0,0l1.53-2.65a0,0,0,0,0,0,0l-2.1-2.31a0,0,0,0,0,0,0l-2.83,1.22Zm1.41,13.34,0,0,.36,3.07s0,0,0,0l3,.67,0,0,1.53-2.65a0,0,0,0,0,0,0l-2.1-2.3s0,0,0,0l-2.83,1.23Zm6.07-4.24a0,0,0,0,0,0,0,22.74,22.74,0,0,0-.36-3.07s0,0,0,0a26.78,26.78,0,0,0-3-.67l0,0a22.49,22.49,0,0,0-1.53,2.65,0,0,0,0,0,0,0,25.44,25.44,0,0,0,2.1,2.31s0,0,0,0a22.2,22.2,0,0,0,2.83-1.23Zm.65-7.46,0,0,.35,3.06s0,0,0,0l3,.66h0l1.53-2.65a0,0,0,0,0,0,0l-2.1-2.31h0L857.39,206Zm1,8.36s0,0,0,0l.35,3.06,0,0,3,.66s0,0,0,0l1.53-2.65a0,0,0,0,0,0,0l-2.1-2.31a0,0,0,0,0,0,0l-2.83,1.22Z"/></g></g><path class="cls-9" d="M556.54,178.48a22.3,22.3,0,0,1,9.75,18.38,13.79,13.79,0,1,1,7.16,25.8,1.93,1.93,0,0,1-.41,0h43a2.58,2.58,0,0,0,.48,0,16.82,16.82,0,1,0-8.73-31.46,27.19,27.19,0,0,0-51.2-12.72Z"/><path class="cls-10" d="M515.06,222.64a4.52,4.52,0,0,0,.83.05H573a1.93,1.93,0,0,0,.41,0,13.79,13.79,0,1,0-7.16-25.8,22.3,22.3,0,0,0-43.95-5.33,16.89,16.89,0,0,0-14.22.46,14.22,14.22,0,0,0-6.69,6.68C495.85,210.51,504,222.12,515.06,222.64Z"/><path class="cls-11" d="M579.79,180.87c-5.56,4.1-2.24,7.42,1.86,1.86,4.09,5.56,7.41,2.24,1.85-1.86,5.56-4.09,2.24-7.41-1.85-1.85C577.55,173.46,574.23,176.78,579.79,180.87Z"/><path class="cls-12" d="M580.34,179.56c-6.83-1-6.83,3.66,0,2.62-1,6.83,3.65,6.83,2.62,0,6.83,1,6.83-3.65,0-2.62C584,172.73,579.3,172.73,580.34,179.56Z"/><circle class="cls-13" cx="581.65" cy="180.87" r="1.48"/><path class="cls-11" d="M540.09,200.77c-5.56,4.09-2.24,7.41,1.85,1.85,4.1,5.56,7.42,2.24,1.86-1.85,5.56-4.1,2.24-7.42-1.86-1.86C537.85,193.35,534.53,196.67,540.09,200.77Z"/><path class="cls-12" d="M540.63,199.45c-6.83-1-6.83,3.66,0,2.63-1,6.83,3.66,6.83,2.62,0,6.83,1,6.83-3.66,0-2.63C544.29,192.63,539.6,192.63,540.63,199.45Z"/><circle class="cls-13" cx="541.94" cy="200.77" r="1.48"/><path class="cls-11" d="M618.09,207.2c-3.5,2.58-1.41,4.67,1.17,1.17,2.58,3.5,4.67,1.41,1.17-1.17,3.5-2.58,1.41-4.68-1.17-1.17C616.68,202.52,614.59,204.62,618.09,207.2Z"/><path class="cls-12" d="M618.43,206.37c-4.3-.65-4.3,2.31,0,1.65-.65,4.31,2.31,4.31,1.65,0,4.31.66,4.31-2.3,0-1.65C620.74,202.07,617.78,202.07,618.43,206.37Z"/><path class="cls-13" d="M618.32,207.2a.94.94,0,1,0,.94-.94A.94.94,0,0,0,618.32,207.2Z"/><path class="cls-28" d="M578.2,173.54l-2.58-.32a95.62,95.62,0,0,0-7,16.75l-2.22,6.74s.28,2.83,3.91,3.34,7.44-10.67,7.44-10.67Z"/><path class="cls-15" d="M570,189a11.23,11.23,0,0,1,3.73,6.47c.45,2.14.09,3.28-.32,3.58-.55.77-2,2-2.62.77C569.85,198.61,570,189,570,189Z"/><path class="cls-29" d="M601.15,267.63,615.49,254l-7.75-6-3.93,5,.88,1.32,0,0h0a46.78,46.78,0,0,0-2.65,4.56C600.35,262.15,598.89,266.31,601.15,267.63Z"/><rect class="cls-15" x="598.83" y="260.36" width="19.87" height="1.87" transform="translate(-12.24 492) rotate(-43.61)"/><path class="cls-30" d="M602,258.81l2.54,1.36a2.14,2.14,0,0,0,2.9-.87l.47-.86a2.16,2.16,0,0,0-.88-2.91l-2.38-1.28h0A46.78,46.78,0,0,0,602,258.81Z"/><path class="cls-31" d="M578.2,233.48c-1.25-1.88-2.74-25-3.59-28.79-.09-.37,6.24-2.42,6.24-2.42l6.51,3.25.15,23.8,21,18.43-5.9,6.52-3.14-2.74v0C592.37,245.29,579.16,234.91,578.2,233.48Z"/><polygon class="cls-32" points="608.54 247.75 606.97 245.81 600.54 252.97 602.64 254.27 608.54 247.75"/><path class="cls-29" d="M559,270.26h20.09l-1.47-9.85-6.37.9L571,262.9h0a44,44,0,0,0-5.13,1.49C562.24,265.68,558.26,267.72,559,270.26Z"/><rect class="cls-15" x="558.94" y="269.99" width="20.14" height="1.9"/><path class="cls-30" d="M565.81,264.4l.91,2.77a2.18,2.18,0,0,0,2.74,1.4l.94-.31a2.19,2.19,0,0,0,1.39-2.75l-.85-2.6h0A44,44,0,0,0,565.81,264.4Z"/><path class="cls-31" d="M596.51,210s2.44,6.43-5.55,15.52c-2.14,2.84-7.19,10.19-7.19,10.19l-6.09,26.41-8.67-.38s5.7-27.38,6.35-28.72c9.23-17.14,11.16-22,11.16-22Z"/><polygon class="cls-32" points="569.01 261.76 569.01 259.3 578.51 260.02 577.68 262.14 569.01 261.76"/><path class="cls-28" d="M596.92,197.44c0,.33,0,2.37,0,2.62.21,3.71,1.1,8.79,1.1,8.79,0,4.23-12.21,4.54-15.37,3.9-10.19-.89-8.7-5.38-8.7-5.38.1-.45.21-1,.33-1.74.92-5.39,2.39-17.14,2.37-17.83,0-.31,0-.6,0-.88.23-.75-1.48-13.66-1-13.7a27.73,27.73,0,0,1,5.66-4.5c.34-.2.7-.41,1.07-.6l.27-.14.71-.35a16,16,0,0,1,5.26-1.49,20.07,20.07,0,0,1,4.67,1.62c.46.22.92.46,1.37.7l.5.28.78.46a20.52,20.52,0,0,1,6.86,7.26l-.54.74c-.35.67-3.18,7.4-4.33,10.4-.11.47-.21,1-.3,1.48,0,.2-.07.41-.1.62a.07.07,0,0,0,0,.05A61.32,61.32,0,0,0,596.92,197.44Z"/><path class="cls-14" d="M592.52,168.52a14.26,14.26,0,0,1-6,5.33,8.46,8.46,0,0,1-2.07-5.77l1-5.15,3.52,1,3.51-4.2V164Z"/><path class="cls-15" d="M595.56,164.37a7.64,7.64,0,0,0-3-.57v2.83a26,26,0,0,1-4,5.27,23.42,23.42,0,0,1-2.08,1.89,21.2,21.2,0,0,0,4.87-1.3,21.63,21.63,0,0,0,4.94-2.77s.76.43,2.2,1.43C600.68,171.06,600.49,166.4,595.56,164.37Z"/><path class="cls-15" d="M584.26,167.35a14.6,14.6,0,0,0,2.23,6.5,8.52,8.52,0,0,1-2-1.19,6.7,6.7,0,0,1-2.48-3.73,2.44,2.44,0,0,1-.05-1.25c.48-1.6,3.13-2,3.13-2Z"/><path class="cls-14" d="M585.38,147.89h0s5.23-1.32,8,5a11.45,11.45,0,0,1,0,8s-3.66,5.24-8,6.72c-3,.92-6.12-4.43-6.12-9.88C579.26,152.56,582,148.33,585.38,147.89Z"/><path class="cls-14" d="M592.93,159l-.08,2.44c2,.81,3.79-1.16,4.16-2.82.18-.83,0-1.58-.66-1.86-1.41-.58-2.53.78-3.07,1.62A5.79,5.79,0,0,0,592.93,159Z"/><path class="cls-33" d="M589.7,147.06c5.65.44,4.32,2.91,4.32,2.91s3.36-1,1.15,6.73a4.18,4.18,0,0,0-2,1.71,13.6,13.6,0,0,1-1,3.42,21.06,21.06,0,0,1-.21-4.41,4.33,4.33,0,0,1-2.76-3.37c-4.6,2.22-10.62,2.37-12.18,1.45C576.72,155.39,580.48,146.89,589.7,147.06Z"/><polygon class="cls-34" points="583.63 218.56 583.64 218.55 583.64 218.55 583.63 218.56"/><path class="cls-14" d="M604.89,185.48l-7.29-1.34,2.14,13.19-11.29,9.26h-.1a18.18,18.18,0,0,1,2.41,3c1.71-.93,14.63-8,15.46-10.24C607.12,197,604.89,185.48,604.89,185.48Z"/><path class="cls-14" d="M582.92,212.12c-.24.76-1.2,1-1.4.57s1-3.59,1.31-3.93a19.46,19.46,0,0,1,2.25-1.28h-2.23s-.76,1.09-1.68,2.3c-1.12,1-.77-.22-.78-.71s1.87-3.26,2.36-3.3,2.5,0,3.48,0a22.17,22.17,0,0,1,2.95.24c1.07,1.12,1.1,2.28,1.78,3.47a5,5,0,0,1-5,1.26c-.17.12-.78,2.24-1.51,2.22-.34-.06-.48-.7-.48-.7-.44,1-.78,1-1,.85S582.92,212.12,582.92,212.12Z"/><path class="cls-28" d="M598.18,176.55s1.42-6,5,.41c1.82,4.83,4.81,19.48,3.25,22.82a14.28,14.28,0,0,1-7.11-2.38s-1.05-4.9-2-9.78c.06-1,.66-7.27.36-9.1,1.62-2-.36-.37.88-2.07"/><path class="cls-32" d="M565.43,166l5.09-.11a.56.56,0,0,1,.66.43l2.28,10.88a.77.77,0,0,1-.59.91l-4.93-.13a.56.56,0,0,1-.66-.43l-2.5-10.8C564.71,166.44,565.13,166.06,565.43,166Z"/><path class="cls-15" d="M565.14,166.31l5.09-.11a.55.55,0,0,1,.66.43l2.28,10.88a.56.56,0,0,1-.43.66l-5.09.11a.55.55,0,0,1-.66-.43L564.71,167A.56.56,0,0,1,565.14,166.31Z"/><path class="cls-35" d="M567.59,170.48c.19.8.69,1.37,1.13,1.27s.64-.83.46-1.63-.69-1.38-1.13-1.28S567.41,169.68,567.59,170.48Z"/><path class="cls-32" d="M565.53,166.8l1,0a.28.28,0,0,1,0,.55l-1,0a.28.28,0,0,1-.28-.27h0A.28.28,0,0,1,565.53,166.8Z"/><path class="cls-14" d="M564,180.23s-.9-5.28-.67-6.57,2.71-3.55,3.11-3.89,3.14-1.57,3.53-1.23,0,.91-.76,1.33-1.83,1-1.91,1S565.7,173,565.7,173s2.11-.76,2.57-.86a9,9,0,0,1,3.08,0c.2.23.15.72-.65.82a2.74,2.74,0,0,1,1.13.25c.2.16.56,1-1.83,1,0,0,1.17-.09,1.21.37s-2.57.62-2.57.62a3.1,3.1,0,0,1-1.58,2.36l.32,2.45Z"/><path class="cls-14" d="M565.79,177.8l1.36.43a75,75,0,0,0,4.15,12.82c2,4.79,1.61,8.72.06,9.56s-4.32-1.41-5.23-4.39-2.41-17.44-2.41-17.44Z"/><path class="cls-15" d="M602.68,197.64a17.19,17.19,0,0,1-3.53-1.19c-.74-.45-.64.42-.45.76,0,0-1,.73-.89,1.16s1.92,1.9,4.13,2.51a8.21,8.21,0,0,0,4.13.32c.32-.16-.16-1.27.13-1.41s.85-.41.91-.95S604.14,198,602.68,197.64Z"/><path class="cls-36" d="M579.65,149.89a26.59,26.59,0,0,1,10.45,2.8,18.05,18.05,0,0,1,5,3.41s.93-4.79.62-6.6c-.88-2.37-6.3-5.91-7-6.05s-5.9,1.43-6.44,2.08S579.65,149.89,579.65,149.89Z"/><path class="cls-36" d="M589.92,152.6s-10.77-.14-13.93-1.47,2.18-1.36,3.65-1.24,5.22.07,5.22.07Z"/><path class="cls-15" d="M579.65,149.89a26.59,26.59,0,0,1,10.45,2.8s.42-5,.29-5.46-1.59-3.78-1.59-3.78c-.67-.16-5.9,1.43-6.44,2.08S579.65,149.89,579.65,149.89Z"/><path class="cls-36" d="M316.86,297.38H295.49l.12-2.16.52-9.65h7l.32,2.09,5.14,2.37s6.67.78,8.07,5.19A5.55,5.55,0,0,1,316.86,297.38Z"/><path class="cls-15" d="M316.86,297.38H295.49l.12-2.16h21A5.55,5.55,0,0,1,316.86,297.38Z"/><path class="cls-36" d="M287.27,295.23v2.16s-8.31,3-12.27-.77a9,9,0,0,1,.11-1.78,10,10,0,0,1,2.89-5.62l.76-4.83,6.29,1.71v2.76A59.52,59.52,0,0,1,287.27,295.23Z"/><path class="cls-15" d="M287.27,294.35v2s-8.31,2.78-12.27-.71a7.55,7.55,0,0,1,.11-1.63C280.24,297.12,287.27,294.35,287.27,294.35Z"/><path class="cls-15" d="M287.27,295.23v2.16s-8.31,3-12.27-.77a9,9,0,0,1,.11-1.78C280.24,298.25,287.27,295.23,287.27,295.23Z"/><polygon class="cls-37" points="306.63 211.02 303.88 286.67 294.02 286.67 291.87 228.19 286.31 286.67 277.45 285.88 278.11 210.25 306.63 211.02"/><path class="cls-14" d="M299.46,171.64l6.11,1.32s3.49,8.17,8.9,19.28c0,0,4.61,9.25,0,10.86-4.42,1.34-11.95-17.5-11.95-17.5Z"/><path class="cls-15" d="M278.72,203.48c0,.41,0,3,0,3.3-.26,4.68-1.39,11.08-1.39,11.08,0,5.34,15.39,5.73,19.37,4.91,12.85-1.12,11-6.77,11-6.77-.13-.57-.26-1.31-.42-2.2-1.15-6.79-3-21.61-3-22.48,0-.38,0-.74,0-1.1-.3-.94,1.86-17.22,1.22-17.26a34.62,34.62,0,0,0-7.13-5.68c-.43-.26-.88-.52-1.34-.75l-.35-.18c-.29-.15-.58-.31-.89-.44a19.71,19.71,0,0,0-6.63-1.87,24.69,24.69,0,0,0-5.88,2c-.59.28-1.16.58-1.73.89l-.63.35-1,.58a25.81,25.81,0,0,0-8.65,9.14s.66.91.67.94c.45.84,4,9.33,5.46,13.11.14.59.27,1.21.39,1.87,0,.25.08.5.12.77a.13.13,0,0,1,0,.06A75.42,75.42,0,0,1,278.72,203.48Z"/><path class="cls-38" d="M298.51,174.43S299,216.6,300,225.62c0,0,6.27-.38,9.3-4.19,0,0-4.38-25.35-4.57-30.68s1.38-17.65,1.38-17.65a49.21,49.21,0,0,0-10.35-7.5Z"/><polygon class="cls-38" points="303.67 172.11 306.13 173.1 314.65 186.42 304.93 192.85 303.08 189.36 303.67 172.11"/><polygon class="cls-39" points="295.65 164.94 298.29 174.33 301.91 175.42 297.67 166.3 295.65 164.94"/><path class="cls-38" d="M289.6,220.77a52,52,0,0,1-.42,5.87s-11-.75-15.31-3.54c0,0,1.84-19.55,2.32-26.79h0c0-.61.07-1.13.09-1.54.26-5.34-3.76-19.6-3.76-19.6a28.1,28.1,0,0,1,10.37-9.2l5.5,7.84S290,205.85,289.6,220.77Z"/><path class="cls-14" d="M283.79,167.21a20.29,20.29,0,0,0,9,7,10.21,10.21,0,0,0,3.09-7.54l-1.55-6.74-5.25,1.29-5.21-5.49V156l0,5.2Z"/><path class="cls-14" d="M291.4,140.77h0s-6.55-1.41-9.72,6.51a14.26,14.26,0,0,0,.4,9.95s4.76,6.33,10.13,8c3.77,1,7.41-5.74,7.18-12.5C299.17,146.31,295.66,141.18,291.4,140.77Z"/><path class="cls-14" d="M282.44,154.59l.11,3c-2.53,1-4.72-1.44-5.17-3.49-.22-1,0-2,.82-2.31,1.75-.72,3.14,1,3.81,2A7,7,0,0,1,282.44,154.59Z"/><polygon class="cls-34" points="295.46 224.89 295.46 224.87 295.46 224.87 295.46 224.89"/><path class="cls-14" d="M280.83,192.92c-3.62,6.6-1.18,13.79,3.95,9,3.15-4.56,10-20.26,10.78-22.21-.74-1.55-.24-2.29-1.5-3.27,1.9-.6-1.29-.68-1.29-.68Z"/><path class="cls-32" d="M306.14,175.16l-1.09,0-10-5.8a.48.48,0,0,1-.05-.44.91.91,0,0,1,.53-.39l10,5.76Z"/><path class="cls-40" d="M306.14,175.16l-1.09,0-10-5.8a.48.48,0,0,1-.05-.44l10.17,5.88Z"/><path class="cls-14" d="M302.34,173.67c1,.29,1.28-.47,1-1a5.9,5.9,0,0,0-3.14-1.54,24.54,24.54,0,0,0-2.93,1.43l2.26-2.2s1,0,2.93-.07c1.62-.18,1.39-1,.77-1.18-.5-.35-4-.76-4.65-.29a24.8,24.8,0,0,0-3.6,3,40.22,40.22,0,0,0-2.18,3.93c.39,1.9,1.58,2.77,2.33,4.32a6.32,6.32,0,0,0,4.84-4.24c.24-.09,0,1.94,1.46,1.19a8.68,8.68,0,0,0,0-2.25s-.62,1.75.92,1.26C303.05,175.61,302.34,173.67,302.34,173.67Z"/><path class="cls-14" d="M278.28,177.53c2.34,2.34,6.76,23.14,6.76,23.14s-2.15,7-7.19,3.3c-3.33-3.25-6.81-19.34-6.79-25.83C271.06,178.14,272.55,170.4,278.28,177.53Z"/><path class="cls-36" d="M321.57,161.92l-8.83.52a1,1,0,0,0-1.08.85l-2.41,19.17a1.33,1.33,0,0,0,1.16,1.49l8.52-.93a1,1,0,0,0,1.08-.84l2.8-19.07C322.88,162.58,322.11,162,321.57,161.92Z"/><path class="cls-40" d="M322.12,162.42l-8.83.53a1,1,0,0,0-1.09.84L309.8,183a1,1,0,0,0,.84,1.09l8.83-.53a1,1,0,0,0,1.09-.85l2.4-19.17A1,1,0,0,0,322.12,162.42Z"/><path class="cls-32" d="M318.46,170c-.2,1.42-1,2.48-1.76,2.37s-1.24-1.35-1-2.77,1-2.48,1.77-2.36S318.67,168.58,318.46,170Z"/><path class="cls-36" d="M321.51,163.32l-1.71.11a.48.48,0,0,0-.45.51.48.48,0,0,0,.51.45l1.71-.11a.48.48,0,0,0,.45-.51h0A.49.49,0,0,0,321.51,163.32Z"/><path class="cls-14" d="M325.21,181.73a12.1,12.1,0,0,0,.4-6c-.32-1.62-3.5-4.41-4-4.84s-4-1.91-4.47-1.47,0,1.15,1,1.66,2.32,1.17,2.42,1.24,2,2.63,2,2.63-2.67-.91-3.25-1-3.63-.21-3.88.09-.17.92.83,1a3.46,3.46,0,0,0-1.41.34c-.24.2-.68,1.26,2.33,1.19,0,0-1.49-.09-1.52.49s3.26.72,3.26.72.29,2.27,2,2.94l-.34,3.1Z"/><path class="cls-14" d="M322.78,180.31l-1.75.16A66.55,66.55,0,0,1,314,192.68c-3.16,4.47-2.83,9-1,10.2s5.09-.56,6.69-3.87c1.57-2.85,5.59-17.28,5.59-17.28Z"/><path class="cls-39" d="M282.92,164l-1.94,2.6,3.77,11.44,3.64-4.28S283.89,167.7,282.92,164Z"/><path class="cls-38" d="M282.63,190.32l-9.78,5.06s-5.88-15.24-.34-20.22S281.74,184.72,282.63,190.32Z"/><path class="cls-41" d="M289.21,137.84c-7-1.5-7.9,4.21-8,5.24,0,0-.26-.31-1.92.52s-1.44,5.77-.38,8.07c0,0,2.84.67,3.65,5.43a7,7,0,0,0,0-5,5.5,5.5,0,0,0,2.38-3.58,16.16,16.16,0,0,0,6.87.1s-2.87,1-4.5,1.58c0,0,5.94,1.07,8.43-1.11A18.81,18.81,0,0,1,294.1,151a18.63,18.63,0,0,0,4.93-1.26h0a19.67,19.67,0,0,1,.37,4.79,10.1,10.1,0,0,0,1-5.35c1.32-.62,2.37-1.36,2.54-2.17C303.43,144.47,296.19,139.34,289.21,137.84Z"/><path class="cls-37" d="M376.44,150.6a11.73,11.73,0,0,1,1.56,6.24c0,3.86-.46,9.77,1.06,11.78,0,0-6.34-.16-8.53-4.34s2.6-14.08,2.6-14.08Z"/><path class="cls-14" d="M392.35,293.48c-1.45-.27-19.68,0-19.68,0-1.93-1.2-1.31-3.57-.73-5.15a37.16,37.16,0,0,0,.76-4.49h6.74c-.21,1.06-.32,1.68-.32,1.74.08.38,5.89,2.5,9.88,4.86l.35-.32s-.31.33-.31.35C390.89,291.54,394.3,293.83,392.35,293.48Z"/><path class="cls-15" d="M393.62,293.9h-23l1-5.37s3,.57,4.94-.38a6.08,6.08,0,0,0,3-2.8s3.78,1.74,7.51,3.32h0C390.5,290.14,394.33,291.45,393.62,293.9Z"/><rect class="cls-42" x="370.64" y="293.9" width="23.07" height="2.25" transform="translate(764.35 590.05) rotate(180)"/><path class="cls-36" d="M375.33,284.73a5.47,5.47,0,0,1-4-1.43c-2.43-2.66,0-8.1,2.39-15.45a141.07,141.07,0,0,0,4.52-18.08c-.22-.5-.44-1-.65-1.5l-1.37-3.12h-.06l-6.85-14.52-1.38,11.92-.28,4.71-.5,8.44c-.64,3.31-5,4.9-11.12,9-4,2.7-12.65,9-17.2,12.37l-2.91,2.15c-.19.29,1,4.64,2,8.78v.05c.46,1.91.95,4.49.95,4.49,0,.17-1.43,1.82-2.42.32-.75-1.13-9.93-13.71-9.93-13.71-.42-2,1.53-3.14,2.95-3.75,2.06-.89,3.38-1.19,4.34-2.67a4.76,4.76,0,0,0,.57-3.13c-.17-2.31,3.86-6.87,21.81-16.72v-6.75l0-.11c0-.05,0-.13,0-.21l0-.15c-.55-3-3.5-18.91-3.74-21.68a16.74,16.74,0,0,1,.68-5.39A62.81,62.81,0,0,1,357,208.31c.92-2,1.62-3.26,1.62-3.26,14.1,4.39,20.65-1.82,20.65-1.82l2.46,12.25,0,.07,3.78,18.81a67.59,67.59,0,0,1,1.5,6.88,65.06,65.06,0,0,1,.93,8.62c-.1,3.16-1,5.79-2.24,12.78-1,5.93-2.31,12.54-3.22,17.27h0a5.14,5.14,0,0,1-7.12,4.8Z"/><path class="cls-14" d="M338.37,289.54c.53,2.21,1.1,5.18,1.1,5.18,0,.21-1.65,2.11-2.8.37-.87-1.3-11.46-15.82-11.46-15.82-.49-2.36,1.76-3.63,3.4-4.34a26.1,26.1,0,0,0,5-3.08c.44-.3.88-.62,1.34-1l4.43,6c-2,1.5-3.35,2.47-3.36,2.49-.22.33,1.2,5.35,2.33,10.13C338.37,289.49,338.38,289.52,338.37,289.54Z"/><path class="cls-15" d="M338.3,296.15,325,275.77l5.34-2.25s1.21,3,3.19,4.17a6.43,6.43,0,0,0,4.2,1s.65,4.35,1.4,8.59h0C339.83,291.2,340.88,295.36,338.3,296.15Z"/><rect class="cls-42" x="318.78" y="285.28" width="24.41" height="2.3" transform="translate(271.95 720.15) rotate(-123.12)"/><path class="cls-14" d="M384.49,169.12a6.44,6.44,0,0,1-2.83-1.78c-.76-1.13-2.76-2.79-2.75-3.6s1.18-.8,2.79,1a8.46,8.46,0,0,0,0-1.58c-.09-.52-1.47-3.9-1.39-4.64s.54-.58,1.15.43,1.71,3.51,1.76,3.51a26.12,26.12,0,0,0-.91-3.21,6.78,6.78,0,0,1-.74-2.62c.15-.4.9.09,1.3.91s1.64,3.84,1.74,4.07-.59-3.77-.63-4.13.41-1,.93,0a20.82,20.82,0,0,1,1,4.06,16.12,16.12,0,0,1,.26-2.54c.17-.34.49-.78.72-.17a22.34,22.34,0,0,1,.17,3.47c0,.18,1.42,3.12.73,4.76C387.91,167.91,385.17,169.12,384.49,169.12Z"/><path class="cls-43" d="M398.46,189.21c-1.45-3.66-5.93-16.08-8.27-20.48-.29-1-1.32-.82-1.23-1.26s.08-2.17-.5-2.22-2.36,1.86-3.72,2-2.47,1.18-2.29,1.77c.31.77,1.81.89,1.33,1.39s0,1.93,0,1.93h0c.49,2.1,3.83,16.26,7,21.16C395.27,201.16,400.4,194.46,398.46,189.21Z"/><path class="cls-43" d="M398.3,188.89c-4.23-4.59-15.65-13.5-19.24-15.58-11.43-5.12-7.89,7.9-5.48,10.48,3.17,3.54,10.9,7.83,17.89,12.7C399,201.18,400.3,192.43,398.3,188.89Z"/><path class="cls-14" d="M379.56,214.31c-.55.64-19.62,1.37-21.81,1.39-1.85-1.84-2.54-2.85-.2-9.52,2.23-3.61,1-11.45,1-11.45l-6.25-20.08s2.78-3.6,13.71-6.09c9.91.68,15,9.74,16.91,13.6,1.57,5.62-.06,12.94-2.89,20.43A32.73,32.73,0,0,0,379.56,214.31Z"/><polygon class="cls-14" points="373.07 171.99 362.2 170.56 363.18 162.08 369.96 161.35 371.62 164.5 371.71 164.98 372.07 166.79 373.07 171.99"/><path class="cls-36" d="M398.6,168,391,169.75a.72.72,0,0,0-.7.73l.25,14.22a1,1,0,0,0,1,1l7.36-2a.71.71,0,0,0,.7-.73l.05-14.18C399.62,168.37,399,168,398.6,168Z"/><path class="cls-44" d="M399.05,168.34l-7.63,1.72a.72.72,0,0,0-.7.73L391,185a.73.73,0,0,0,.73.71l7.63-1.73a.7.7,0,0,0,.7-.73L399.78,169A.71.71,0,0,0,399.05,168.34Z"/><path class="cls-45" d="M396,171l-1.26.28c-.2,0-.35.39-.34.78s.18.67.37.63l1.27-.28c.19,0,.34-.39.33-.78h0C396.35,171.24,396.18,171,396,171Z"/><path class="cls-14" d="M352,184.4c-3-4.23.81-14.09,6.42-7,4.16,3.5,14.05,20.69,14.05,20.69,5.1-4.57,11.89-10.81,14.09-13a22.62,22.62,0,0,1,.6-3.31c.37-1.05.91-3.25,1.1-3.77s3.79-1.7,4.31-1.54,2,.15.54,1.06c-1.6.63-3,1.11-3,1.11l-.7,2.43a21.72,21.72,0,0,1,2.09-2c.48-.29,4.27-.56,4.68-.21s-.16,1.32-1.06,1.35c0,0,.88.07,1,.38s-.06.66-1.24.85c0,0,.66.34.61.73-.2.8-2.7.81-2.88.95s.39,3.12-2.26,4.56l-.29.14c-5.58,8.37-14.32,18.91-17.84,19.46C367.64,207.08,355.74,190.5,352,184.4Z"/><path class="cls-43" d="M392.2,186.65c-.06-1.05-2.08-.86-3.44-2.05A5.43,5.43,0,0,1,387,182s-.59,0-.71.44-1,2.07-1.13,2.55-1.45-.06-2.46.77-10.07,10.32-10.16,10.46-9.87-17.46-12.7-20.6-4.62-3.53-4.62-3.53-4.35,1.5-5.19,7.81,17.67,27.28,20.67,28,6.42-2.41,10.62-6.44,7.1-7.87,7.36-9,.75-2.84.75-2.84S392.26,187.68,392.2,186.65Z"/><path class="cls-43" d="M382.32,199.93a28.07,28.07,0,0,0,.06,8.08c.11.7.2,1.09.2,1.09a3.54,3.54,0,0,1-1.3,2.46c.77,1.05,3,2.91-.07,4.14-5.78,3.36-28.24,1.91-28-.9a2.61,2.61,0,0,1,.67-1.58c.41-.45.86-.67.93-1.15a4.14,4.14,0,0,1-.76-4.69,42.4,42.4,0,0,0,2.18-7.22c.12-1.59-.52-4.29-1.19-6.87-.71-2.75-1.46-5.36-1.36-6.36,0,0,1.23.57.63-5.42-.28-2.79,2.64-6.09.94-9.4,4.11-2.57,4.46-1.63,4.46-1.63s10.26,7.4,12.94,7.14c1.66,0,1.38-6.29,1.3-6.39a28.88,28.88,0,0,1,3.49,1.72h0a72.2,72.2,0,0,1,6,9.82,14,14,0,0,1,1.16,4,14.28,14.28,0,0,1,.13,1.81c0,.24,0,.49,0,.74C384.59,193.26,383.05,194.86,382.32,199.93Z"/><path class="cls-46" d="M365.13,214.44a11.37,11.37,0,0,1-5.87.52,16.24,16.24,0,0,1-2.9-.74c-.47-.16-.94-.35-1.4-.54l-.67-.29c-.1,0-.26-.1-.4-.17.42-.44.87-.67.94-1.15a7,7,0,0,0,2.89,1.72A18,18,0,0,0,365.13,214.44Z"/><path class="cls-47" d="M345.91,211.9c-.26.93-3,5.44-2.54,7.57s18,5.7,19.44,3.52,0-10.1,0-10.1Z"/><path class="cls-36" d="M352.51,187a175.05,175.05,0,0,0-5.46,20.42l1.42.29c0-.14,2.18-10.34,5.07-19C353.16,188.06,352.79,187.43,352.51,187Z"/><path class="cls-36" d="M365.23,205.32s-1.48,2.93-2.36,4.41l1.24.74c.82-1.36,1.56-2.75,2.25-4.14Z"/><path class="cls-36" d="M370.24,190.77a14.11,14.11,0,0,0,1,1.49c2.8-11.73,3-20.29,2.74-21l-1.53-1.42C372.73,170.74,372.68,180,370.24,190.77Z"/><path class="cls-31" d="M347.3,206s-2.65,6.88-3.13,7.63,7.41,6.21,8.85,6.4,9.53-1.74,10.81-3.32c.51-1,.65-8.41.65-8.41Z"/><path class="cls-15" d="M355.4,217.33a1.71,1.71,0,0,1-1.92,1.46,1.7,1.7,0,1,1,1.92-1.46Z"/><path class="cls-14" d="M360.37,155.54c-.15,6.94,4.93,12.44,8.45,12.7,3.09-.13,7.56-5.4,7.72-12.35s-3.34-12.65-7.81-12.75S360.53,148.59,360.37,155.54Z"/><path class="cls-37" d="M375.31,146.87s3.7-.12,4.86,1.21-3.84,5.65-8.21,5.77l1.8-2S370.7,153.76,364,153c0,0-4,5.05,1.53,16.57-.61.52-8.66-2.05-9.77-7.86-1.18-8.75,1.48-16.53,10-19S376.08,142.52,375.31,146.87Z"/><path class="cls-48" d="M432.68,156.11s1.71,3-1.74,4a4.19,4.19,0,0,1-.95.1,4,4,0,0,1-2.87-1.12,1.49,1.49,0,0,1-1.07.43,1.23,1.23,0,0,1-1.35-1.08.94.94,0,0,1,.18-.54,1.63,1.63,0,0,1-1.34-1.47,1.77,1.77,0,0,1,1.93-1.54,2.58,2.58,0,0,1,.39,0,1.76,1.76,0,0,1-.68-1.35,1.51,1.51,0,0,1,.18-.72h0a2.93,2.93,0,0,1,3.95-.24s1-.89,1.64-.19.29,1.15.29,1.15,1.71.07,2,1.16A1.06,1.06,0,0,1,432.68,156.11Z"/><path class="cls-48" d="M527.51,159.33s-3.73,3.82-6.77.75a4,4,0,0,1-.6-1,4.1,4.1,0,0,1,.34-3.81,1.55,1.55,0,0,1-1.15-.87,1.68,1.68,0,0,1,1-2.15,1.88,1.88,0,0,1,.89-.15,2.52,2.52,0,0,1,1.57-2.4,2.4,2.4,0,0,1,3.2,1.05,1.94,1.94,0,0,1,.14.45,3.33,3.33,0,0,1,1.69-1.61,3.53,3.53,0,0,1,1.17-.29h0s3.69.73,2.21,4.08c0,0,1.78.45,1.05,1.62s-1.59,1.07-1.59,1.07a2.58,2.58,0,0,1-.78,2.92C528.38,160.08,527.51,159.33,527.51,159.33Z"/><path class="cls-48" d="M425.53,237.13s-4.24-.94-1.51-5.12a7.65,7.65,0,0,1,.89-1,6.23,6.23,0,0,1,3.85-1.83,2.33,2.33,0,0,1,.73-1.42c.76-.72,1.77-.89,2.27-.38a1,1,0,0,1,.25.64,2.06,2.06,0,0,1,2.57,0c.7.73.39,2.16-.69,3.2a3.47,3.47,0,0,1-.43.35,2,2,0,0,1,1.8.49,1.72,1.72,0,0,1,.42.8h0a4.7,4.7,0,0,1-3.83,4.06s-.25,1.7-1.51,1.76-1.25-.71-1.25-.71-1.8,1.61-3,1A1.23,1.23,0,0,1,425.53,237.13Z"/><path class="cls-48" d="M532.69,234.54s1.61,3.54-1.62,4.65a3.37,3.37,0,0,1-.9.12,3.41,3.41,0,0,1-2.68-1.31,1.26,1.26,0,0,1-2.27-.76,1.25,1.25,0,0,1,.18-.63,1.8,1.8,0,0,1,.55-3.51,2.2,2.2,0,0,1,.36,0,2.27,2.27,0,0,1-.63-1.57,2.22,2.22,0,0,1,.16-.85h0a2.39,2.39,0,0,1,3.7-.27s.9-1,1.53-.23.27,1.35.27,1.35,1.61.08,1.89,1.35S532.69,234.54,532.69,234.54Z"/><path class="cls-48" d="M517.7,197.33s15.74,15.93,4.95,30.22-26.36,14-38.82,4.11a8,8,0,0,1-15.7.76,16.72,16.72,0,0,1-28.77-12.35,16.5,16.5,0,0,1,1.54-6.29,12.93,12.93,0,0,1,.53-25.45,22.78,22.78,0,1,1,36-27,19.23,19.23,0,0,1,8-10.59l0,0c.94-.4,11.84-4,20.3,2.94a19,19,0,0,1,7.35,14.7s7.51-2.39,9.6,2.55-2.54,9.17-2.54,9.17,9.21,2.06,8.51,8.84S517.7,197.33,517.7,197.33Z"/><rect class="cls-49" x="467.38" y="225.23" width="17.33" height="13.06"/><rect class="cls-49" x="466.39" y="270.96" width="19.32" height="21.22"/><rect class="cls-50" x="458.43" y="231.26" width="35.24" height="47.41"/><path class="cls-50" d="M456.6,278.67V231.26a1.83,1.83,0,0,1,1.83-1.83h35.24a1.83,1.83,0,0,1,1.83,1.83v47.41a1.83,1.83,0,0,1-1.83,1.83H458.43A1.83,1.83,0,0,1,456.6,278.67Zm35.24-45.58H460.26v43.75h31.58Z"/><rect class="cls-50" x="461.03" y="290.96" width="30.03" height="6.13"/><path class="cls-51" d="M474.13,207.48a25,25,0,0,1-6.33,7.85s-3.72-1.87-4.48-4.83c.94-.15,1.94-.45,2.13-1.12.05-.17,0-.32.1-.35.36-.14,1.55,2.31,2.64,2.72l4.09-6.53Z"/><path class="cls-51" d="M484.94,208.33a24.92,24.92,0,0,0,4.87,8.82s4-1.2,5.25-4c-.9-.31-1.83-.78-1.9-1.47,0-.18,0-.32,0-.37-.33-.19-1.93,2-3.07,2.23l-2.9-7.14S486.14,207.26,484.94,208.33Z"/><path class="cls-51" d="M466.76,190.69s-4.46-2.68-6.58-3.83a3.41,3.41,0,0,0,.09-1.92,19.07,19.07,0,0,1-.54-3.63c0-1.14-1.94-1.37-1.87.05s.69,1.85-.09,2.08-2.14-3.7-3.07-3.24-1,.93-.22,1.48,2,1.55,1.76,2.34-2.12.54-3.35-1.27-2.65.47-1.22,1.29,3.36.93,3.43,1.56-1.39,1.32-2.44.84-1.57.22-.63,1.12,2.2-.6,3.09.08a3,3,0,0,0,4,0l9.3,7.33,1-4.37Z"/><path class="cls-51" d="M494.13,191.1s4.23-3,6.25-4.35a3.47,3.47,0,0,1-.25-1.91,18.23,18.23,0,0,0,.25-3.66c-.11-1.14,1.83-1.52,1.87-.1s-.54,1.9.25,2.06,1.84-3.85,2.81-3.47,1.08.84.34,1.45-1.91,1.72-1.57,2.48,2.16.36,3.24-1.54,2.68.26,1.31,1.19-3.27,1.2-3.29,1.83,1.5,1.2,2.5.64,1.58.1.72,1.07-2.24-.42-3.07.33a3,3,0,0,1-4,.3l-8.68,8.06-1.33-4.28Z"/><path class="cls-52" d="M480.82,178.26s2.42-2.88.84-3.23-3.37,2-3.37,2-1.81-1.95-3.1-1.49-.41,2.47-.41,2.47-5.21,2.65-7.62,2.6a18,18,0,0,0-5.64,1.26s.5,4.33,4.71,3.89c0,0-3.86,3.13-3.32,3.92s2.61.32,2.61.32-4.2,6.94-2.6,8.18a2,2,0,0,0,2.88-.41s-2.08,4.81-.66,6.09.92-.79,1.59-1.07c0,0,.62,3.32,3.46,3.92a5.47,5.47,0,0,1,.26-1.34s7.32,10,19.56.69c0,0-.33.91,1.23.44s1.58-6.74,1.58-6.74,1.93,1.77,2.94.91-1.7-5.51-1.7-5.51,3.28.47,3.55-.83-2.53-2.29-2.53-2.29,1.22-1.93.1-2.47a2.41,2.41,0,0,0-1.94-.17s1.11-1.14,1-2a3.43,3.43,0,0,0,2.57-4.34s-6.1-1.49-8.2-2.28c0,0,3.06-1.46,2.25-2.68s-6.49,1-6.49,1,1.46-.71.91-1.82S480.82,178.26,480.82,178.26Z"/><path class="cls-53" d="M474.37,182.3c.69-1.14.82-3.26-2.34-4.74s-2-5.54-2-5.54-4.4,4-2.22,7.4,3.24,4,3.76,4.06A3,3,0,0,0,474.37,182.3Z"/><path class="cls-53" d="M486.84,183.75c-.66-1.15-.75-3.28,2.45-4.68s2.09-5.49,2.09-5.49,4.31,4.07,2,7.45-3.34,3.95-3.85,4A3,3,0,0,1,486.84,183.75Z"/><path class="cls-51" d="M479.64,193.21c-2.62-.29-5.15-3.09-7.13-1.29s-1.37,8.53,7.27,8.58c10.21.05,8.77-8.18,5.73-8.27S483.16,193.59,479.64,193.21Z"/><path class="cls-54" d="M484.19,192.32s1.13,3.73-1.33,4-1.72-3-1.72-3a13.69,13.69,0,0,0,1.41-.49A5.74,5.74,0,0,1,484.19,192.32Z"/><path class="cls-55" d="M474.22,199.09a6.46,6.46,0,0,1,5-2.74,5,5,0,0,1,4.82,3.54,12.63,12.63,0,0,1-4.25.61A10.28,10.28,0,0,1,474.22,199.09Z"/><path class="cls-54" d="M476.68,200.13s1.59-3.24-.38-3.65-2.62,2.23-2.62,2.23A6.43,6.43,0,0,0,476.68,200.13Z"/><path class="cls-56" d="M1157.35,175.47l-5.34-1.81-1,2.69s-5,4.9-7.44,5.27l-12.41,1.85,2.21,6.77,18.9-10.54,5-1Z"/><path class="cls-15" d="M1149.41,181.18l2.85-1.07,5-1.39.08-3.25c-.25-.09-5.56-1-5.56-1l-1,1.77-2.91.73Z"/><path class="cls-16" d="M1162.87,180.64l1.76-1-2.48-2.67-1.5,2.5Z"/><rect class="cls-15" x="1164.1" y="175.84" width="0.99" height="6.2" transform="translate(234.51 902.3) rotate(-46.61)"/><path class="cls-15" d="M1166.51,181.43c-1.53,1.61-3.64-.79-3.64-.79l.8-1.89Z"/><path class="cls-16" d="M1152.9,171.58l-1.67,3.93s.78-.85,2.45.17a4.27,4.27,0,0,1,2,3.54,12.59,12.59,0,0,1,5.53.53l1.33-2.44-7.5-5.38Z"/><polygon class="cls-15" points="1152.84 171.69 1162.55 177.7 1162.68 176.45 1153.42 170.74 1152.84 171.69"/><polygon class="cls-15" points="1160.4 179.69 1160.65 178.76 1160.14 178.67 1160.03 179.59 1160.4 179.69"/><polygon class="cls-15" points="1159.25 179.51 1159.49 178.57 1158.99 178.48 1158.87 179.4 1159.25 179.51"/><polygon class="cls-15" points="1158.04 179.42 1158.28 178.49 1157.78 178.39 1157.66 179.31 1158.04 179.42"/><polygon class="cls-15" points="1156.87 179.29 1157.11 178.36 1156.61 178.27 1156.49 179.19 1156.87 179.29"/><path class="cls-15" d="M1080.59,203.86l-4.56,8.35-4.36,2.22.75,3.53,6.22.59.4-3.15a42,42,0,0,0,3.44-5.1,40.32,40.32,0,0,0,3-6.45Z"/><path class="cls-14" d="M1110.65,144.13c2.74,2.52-.4,5-6.16,6.42s-14.58,4.48-16.14,3.2-.68-2.49,1.46-2.94,9-4.82,12.5-5.83S1108.54,142.19,1110.65,144.13Z"/><path class="cls-14" d="M1109.55,124.35c-4.17-1.61-6.74,2.89-5.77,6.72s-.38,7.25.06,9.42.58,6.73,2.9,7.76,4.34.44,4.46-1.42-.28-12,.4-13.25S1114.13,126.13,1109.55,124.35Z"/><path class="cls-14" d="M1091.85,151.28c-.23-1.22-1.42-2.18-3.71-2.57a34.25,34.25,0,0,0-5.27-.69,9.05,9.05,0,0,0-1.71.12c-.82.3-.74.92.87.89a8.06,8.06,0,0,1,2.79.25,19,19,0,0,0-2.69,0c-.84.11-2.46.05-2.49.54s.55.74,1.92.57a9.68,9.68,0,0,1,3.16.31,11,11,0,0,0-3.13.58c-1.14.49-1.53.58-1.41.95s.89.66,1.75.24a5.18,5.18,0,0,1,2.47-.36c.57,0,.43.31.12.36s-1.64.53-2.11.69-.86,1.13.15.91,1.38-.84,3.4-.61,1.82.83,3.49.74A2.86,2.86,0,0,0,1091.85,151.28Z"/><path class="cls-14" d="M1085.18,148c-.52.76,1,1.24,2,1.55s.67,1.09,1.6,1.89,2.58,1,2.89.09a2.13,2.13,0,0,0-1.52-2.53C1088.52,148.49,1085.6,147.41,1085.18,148Z"/><path class="cls-57" d="M1107.64,163.06c-3.75,2-3,3.63-1.44,7.25s15.41,21.16,17.26,22.48,8.87-.77,7.7-5.5-6.18-12.37-10.27-19.06S1111,161.29,1107.64,163.06Z"/><path class="cls-57" d="M1154.71,181.11c-5.8,3.14-22,10-24.5,11.59-2.94,1.85-6.65,1.64-6.69-.21-.09-4.17,3.06-8.07,6.64-8.78,3.54-2.51,15.85-7,20.7-9.2Z"/><path class="cls-57" d="M1105.74,156.74c-1.43,6.78-2.24,9.19,1.51,11.42s4.71,4.21,10.07,2.14c7.29-2.81,7-8.71,5.11-11.83s-6-4.26-6-4.26Z"/><path class="cls-57" d="M1114.3,165.75c-2.57-3.36-5.26-2.77-8.56-.63s-17.51,14.54-18.49,16.59,1.7,7.76,6.16,5.8,11.61-4.41,17.5-9.58a54.29,54.29,0,0,0,6-6.71C1119,168.36,1115.86,167.78,1114.3,165.75Z"/><path class="cls-57" d="M1074.89,210.54c2.29-6.12,6.19-15,8.76-21.28,2.74-6.67,4.44-9.32,5.81-8.08,8.24.48,2.6,12.55.65,15.64-1.44,2.27-6.15,13.6-8.36,17.37Z"/><path class="cls-16" d="M1064.23,214l-1.37,1.77,3.69,1.66,1.29-3.07C1066.28,214.28,1064.23,214,1064.23,214Z"/><polygon class="cls-15" points="1060.17 214.81 1059.79 215.84 1066.39 218.07 1066.62 217.21 1060.17 214.81"/><path class="cls-15" d="M1060.17,214.81c.86-2.31,4.06-.77,4.06-.77v2.28Z"/><path class="cls-16" d="M1078.21,221l.81-4.67s-.63,1.12-2.69.44a4.81,4.81,0,0,1-3-3.32,14.07,14.07,0,0,1-6.1.83l-1,3,9.64,3.92Z"/><polygon class="cls-15" points="1078.26 220.89 1060.69 214.87 1059.79 215.84 1077.87 222.06 1078.26 220.89"/><polygon class="cls-15" points="1068.04 214.17 1068.02 215.24 1068.58 215.21 1068.48 214.19 1068.04 214.17"/><polygon class="cls-15" points="1069.33 214.08 1069.31 215.15 1069.87 215.12 1069.77 214.1 1069.33 214.08"/><polygon class="cls-15" points="1070.67 213.87 1070.64 214.93 1071.21 214.91 1071.11 213.89 1070.67 213.87"/><polygon class="cls-15" points="1071.96 213.7 1071.94 214.77 1072.5 214.75 1072.4 213.72 1071.96 213.7"/><path class="cls-58" d="M1101.28,125.94a25.41,25.41,0,0,0-1.07,10.41c.58,6.29,3.6,7.54,4.33,14a22.18,22.18,0,0,1,.24,3.92c-.16,3.32-1.15,4.82-.32,6,.4.55,1.08.84,3.39,1,7.63.57,11.31-1.69,14.52-1.28.3,0,1.3.19,1.62-.3s0-1-.16-1.29c-2.67-5.7-5-24.58-5-24.58-1.9-8.14-.44-12.51-10.8-13.16C1107,120.6,1102.07,122.17,1101.28,125.94Z"/><path class="cls-14" d="M1109.62,120.31c2.88,1.2,2.26,2.09.12,2.76-1.94.62-3.64,3-4.7,4.25s-2-4.29-.15-5.4A16.77,16.77,0,0,1,1109.62,120.31Z"/><path class="cls-14" d="M1101.71,108.65l5.16-.31,3.82,13.07s-.41,1.87-3.15,2.52-3.43-.68-3.43-.68Z"/><path class="cls-14" d="M1105.18,103.81c-1.78-.85-4.07-1.53-6.16-.61a6.65,6.65,0,0,0-3.28,3.46c-.93,2-.68,3.87-.36,5.92.5,3.25.92,6.09,2.85,7,2.74,1.24,7.87-1.28,8.58-4.92C1107.59,110.59,1107.91,105.12,1105.18,103.81Z"/><path class="cls-17" d="M1096.46,101.44c-2.48,2.77-1.74,4.54.76,4.75a32.21,32.21,0,0,0,5.46-.16c.08,3.19.43,4,.79,4.09.1,0,.21,0,1.46-1,.73-.6.93-.78,1.18-.74.5.08.85.71.83,1.37,0,1.11.18,6.08.18,6.08s2.38-5.56,2.15-8.8-2.23-5.72-5.47-5.21-3.37.93-5.32.53S1096.46,101.44,1096.46,101.44Z"/><path class="cls-14" d="M1116.35,160.37c-.49.56-3,1.82-3,1.92s-1.81,3.39-1.81,3.39a.91.91,0,0,0,1.11,0c.63-.42,1.78-3,1.78-3L1117,162Z"/><path class="cls-14" d="M1119.82,156.48c2,.57,2.51,2,1.47,3.89a9.2,9.2,0,0,1-2.64,2.94s-.91,2-1.43,3.52-1.64.91-1.17-.35,1.2-3.73,1.2-3.73l-1.31,2.09a12.68,12.68,0,0,1-1.16,2.69c-.49.56-1,.38-.91-.42a38.57,38.57,0,0,1,1.36-3.8l-.73.87a24.18,24.18,0,0,1-1.43,2.82c-.39.46-1.22,0-1.19-.07s1.85-3.87,1.85-3.87a45.05,45.05,0,0,0,3-3.59C1117.67,158.11,1118.7,156.16,1119.82,156.48Z"/><path class="cls-14" d="M1128.49,136.36c3.81-.28,3.46,3.82.48,9.12s-6.94,13.44-9,13.7-2.59-.4-1.43-2.32,3-10.33,4.73-13.66S1125.55,136.58,1128.49,136.36Z"/><path class="cls-14" d="M1111,123.12c-4,2.28-3,7.76.69,9.47s5.53,5,7.54,6,6.67,3.38,9,2.19,3.16-3.18,1.76-4.48-9.74-7.53-10.31-8.89S1115.34,120.63,1111,123.12Z"/><path class="cls-9" d="M1771.83,176.35a22.25,22.25,0,0,1,9.75,18.38,13.79,13.79,0,1,1,7.16,25.8,1.8,1.8,0,0,1-.4,0h43a2.48,2.48,0,0,0,.47,0,16.82,16.82,0,1,0-8.73-31.46,27.19,27.19,0,0,0-51.2-12.72Z"/><path class="cls-10" d="M1730.36,220.51a4.46,4.46,0,0,0,.83.05h57.15a1.8,1.8,0,0,0,.4,0,13.79,13.79,0,1,0-7.16-25.8,22.3,22.3,0,0,0-43.95-5.33,16.89,16.89,0,0,0-14.22.46,14.24,14.24,0,0,0-6.68,6.68C1711.14,208.38,1719.3,220,1730.36,220.51Z"/><path class="cls-11" d="M1795.09,178.74c-5.56,4.1-2.24,7.42,1.85,1.86,4.1,5.56,7.42,2.24,1.86-1.86,5.56-4.09,2.24-7.41-1.86-1.85C1792.85,171.33,1789.53,174.65,1795.09,178.74Z"/><path class="cls-12" d="M1795.63,177.43c-6.83-1-6.83,3.66,0,2.63-1,6.82,3.66,6.82,2.62,0,6.83,1,6.83-3.66,0-2.63C1799.29,170.61,1794.59,170.61,1795.63,177.43Z"/><circle class="cls-13" cx="1796.94" cy="178.74" r="1.48"/><path class="cls-11" d="M1755.38,198.64c-5.56,4.09-2.24,7.41,1.86,1.85,4.09,5.56,7.41,2.24,1.85-1.85,5.56-4.1,2.24-7.42-1.85-1.86C1753.14,191.22,1749.82,194.54,1755.38,198.64Z"/><path class="cls-12" d="M1755.93,197.33c-6.83-1-6.83,3.65,0,2.62-1,6.83,3.66,6.83,2.62,0,6.83,1,6.83-3.66,0-2.62C1759.59,190.5,1754.89,190.5,1755.93,197.33Z"/><circle class="cls-13" cx="1757.24" cy="198.64" r="1.48"/><path class="cls-11" d="M1833.39,205.07c-3.51,2.58-1.42,4.67,1.16,1.17,2.58,3.5,4.68,1.41,1.17-1.17,3.51-2.58,1.41-4.67-1.17-1.17C1832,200.4,1829.88,202.49,1833.39,205.07Z"/><path class="cls-12" d="M1833.73,204.24c-4.31-.65-4.31,2.31,0,1.66-.66,4.3,2.3,4.3,1.65,0,4.3.65,4.3-2.31,0-1.66C1836,199.94,1833.07,199.94,1833.73,204.24Z"/><path class="cls-13" d="M1833.62,205.07a.94.94,0,0,0,1.87,0,.94.94,0,1,0-1.87,0Z"/><path class="cls-9" d="M1380.81,175.24a22.3,22.3,0,0,1,9.75,18.38,13.79,13.79,0,1,1,7.16,25.8,1.93,1.93,0,0,1-.41,0h43a2.58,2.58,0,0,0,.48,0A16.82,16.82,0,1,0,1432,188a27.19,27.19,0,0,0-51.2-12.72Z"/><path class="cls-10" d="M1339.33,219.4a4.52,4.52,0,0,0,.83,0h57.15a1.93,1.93,0,0,0,.41,0,13.79,13.79,0,1,0-7.16-25.8,22.3,22.3,0,0,0-44-5.33,16.92,16.92,0,0,0-14.22.45,14.28,14.28,0,0,0-6.69,6.69C1320.12,207.27,1328.27,218.88,1339.33,219.4Z"/><path class="cls-11" d="M1404.06,177.63c-5.56,4.1-2.24,7.42,1.86,1.86,4.09,5.56,7.41,2.24,1.85-1.86,5.56-4.09,2.24-7.41-1.85-1.85C1401.82,170.22,1398.5,173.54,1404.06,177.63Z"/><path class="cls-12" d="M1404.61,176.32c-6.83-1-6.83,3.66,0,2.62-1,6.83,3.65,6.83,2.62,0,6.83,1,6.83-3.65,0-2.62C1408.26,169.49,1403.57,169.49,1404.61,176.32Z"/><circle class="cls-13" cx="1405.92" cy="177.63" r="1.48"/><path class="cls-11" d="M1364.36,197.53c-5.56,4.09-2.24,7.41,1.85,1.85,4.1,5.56,7.42,2.24,1.86-1.85,5.56-4.1,2.24-7.42-1.86-1.86C1362.12,190.11,1358.8,193.43,1364.36,197.53Z"/><path class="cls-12" d="M1364.9,196.21c-6.83-1-6.83,3.66,0,2.63-1,6.82,3.66,6.82,2.62,0,6.83,1,6.83-3.66,0-2.63C1368.56,189.39,1363.87,189.39,1364.9,196.21Z"/><circle class="cls-13" cx="1366.21" cy="197.53" r="1.48"/><path class="cls-11" d="M1442.36,204c-3.5,2.58-1.41,4.67,1.17,1.17,2.58,3.5,4.67,1.41,1.17-1.17,3.5-2.58,1.41-4.68-1.17-1.17C1441,199.28,1438.86,201.38,1442.36,204Z"/><path class="cls-12" d="M1442.7,203.13c-4.3-.65-4.3,2.31,0,1.65-.65,4.31,2.31,4.31,1.66,0,4.3.66,4.3-2.3,0-1.65C1445,198.83,1442.05,198.83,1442.7,203.13Z"/><path class="cls-13" d="M1442.59,204a.94.94,0,1,0,.94-.94A.94.94,0,0,0,1442.59,204Z"/><path class="cls-14" d="M1399.8,254.25A5.15,5.15,0,0,1,1403,251c2.26-.87,5,.22,8,1.88,7.8,4.24,19.76,12.3,27,17.47.29.2,1.44.48,1.91,1.46a3.84,3.84,0,0,1-1.52,4.54c-1.65.87-3.45-.69-7.31-2.28s-5.75-1.59-8.6-2.34C1412.85,269.21,1398.53,259.87,1399.8,254.25Z"/><path class="cls-59" d="M1436,275.94c.18.17,4,3.76,7.82,2.42,1.89-.67,2.86-2.23,4-4,.83-1.33,3.31-5.31,1.82-7.27-1.21-1.59-4.39-1-4.77-.91C1439,267.28,1436.4,274.84,1436,275.94Z"/><path class="cls-14" d="M1631,177.23c-1.9.09-3.41,2.21-4,3.74-1,2.85.42,5.95,1.31,7.77,7.56,15.49,11,21.73,12.14,23.72,4.4,8,6.57,13,8.72,12.57,1-.18,1.48-1.36,1.81-2.1,1.4-3.2-.09-6.65-3.17-14.67-3.21-8.37-2.14-6.07-3.39-9C1639,186.32,1635.1,177,1631,177.23Z"/><rect class="cls-60" x="1511.46" y="228.79" width="9.99" height="35.9"/><path class="cls-61" d="M1523.37,264.68h-13.84V223.9h13.84Zm-10,0,6-.07q.08-15.47.17-30.93h-6.14Z"/><rect class="cls-62" x="1356.41" y="216.55" width="337.47" height="6.66" transform="translate(2.01 453.3) rotate(-16.92)"/><rect class="cls-60" x="1634.37" y="162.75" width="5.41" height="29.7" transform="translate(19.15 484.01) rotate(-16.92)"/><rect class="cls-60" x="1637.26" y="181.35" width="52.05" height="4.58" transform="translate(18.54 491.94) rotate(-16.92)"/><polygon class="cls-60" points="1684.11 168.38 1677.34 170.44 1671.6 128.66 1678.37 126.61 1684.11 168.38"/><polygon class="cls-60" points="1689.12 178.17 1685.53 179.26 1679.79 137.49 1683.38 136.4 1689.12 178.17"/><path class="cls-61" d="M1678.75,185.62h0a6,6,0,0,1,5.68,4.21l.06.19a6,6,0,0,1-4,7.41l-19.71,6a5.63,5.63,0,0,1-1.73.26,6,6,0,0,1-5.67-4.21l-.06-.19a5.94,5.94,0,0,1,4-7.41l19.71-6a6,6,0,0,1,1.73-.26Zm0-3.85a9.74,9.74,0,0,0-2.85.42l-19.71,6a9.79,9.79,0,0,0-6.52,12.21l.06.19a9.77,9.77,0,0,0,12.22,6.52l19.71-6a9.79,9.79,0,0,0,6.51-12.22l-.05-.19a9.81,9.81,0,0,0-9.37-6.94Z"/><rect class="cls-60" x="1404.58" y="229.31" width="5.41" height="33.19" transform="translate(-10.64 420.27) rotate(-16.92)"/><rect class="cls-60" x="1363.36" y="264.88" width="52.05" height="4.58" transform="matrix(0.96, -0.29, 0.29, 0.96, -17.62, 415.84)"/><polygon class="cls-60" points="1363.6 266.09 1370.37 264.03 1351.88 226.14 1345.11 228.19 1363.6 266.09"/><polygon class="cls-60" points="1364.89 277.02 1368.47 275.93 1349.98 238.03 1346.4 239.12 1364.89 277.02"/><path class="cls-61" d="M1400.67,270.43a6,6,0,0,1,5.67,4.21l.06.19a6,6,0,0,1-4,7.41l-19.71,6a5.72,5.72,0,0,1-1.73.26,6,6,0,0,1-5.68-4.21l-.06-.19a6,6,0,0,1,4-7.41l19.71-6a5.94,5.94,0,0,1,1.73-.26Zm0-3.85a9.76,9.76,0,0,0-2.86.42l-19.7,6a9.77,9.77,0,0,0-6.52,12.21l.06.19a9.76,9.76,0,0,0,12.21,6.52l19.71-6a9.81,9.81,0,0,0,6.52-12.22l-.06-.19a9.79,9.79,0,0,0-9.36-6.94Z"/><path class="cls-63" d="M1550.58,294.48c-6.15-38.87-62.1-38.87-68.26,0l-3.26-.52c6.74-42.58,68-42.58,74.79,0Z"/><path class="cls-60" d="M1552.34,294.48c-6.15-38.87-62.1-38.87-68.26,0l-3.26-.52c6.74-42.58,68-42.58,74.79,0Z"/><rect class="cls-60" x="1477.3" y="292.5" width="74.79" height="3.96"/><rect class="cls-60" x="1480.82" y="292.5" width="74.79" height="3.96"/><g id="シーソーゲーム"><path class="cls-14" d="M1643.08,177.51c-2,.92-2.53,3.83-2.56,4-.53,3.38,2.1,6.39,3.51,8,19.6,21.88,23,24.69,25.59,23.26a3.38,3.38,0,0,0,1.35-1.42c1.33-2.71-1.64-6.52-8.27-16.15-4.92-7.15-4.36-6.61-5.47-7.94C1655.07,184.64,1647.47,175.51,1643.08,177.51Z"/><path class="cls-59" d="M1671,208.21s2.78,2.91,3,5.29c.57,5-4.23,9.84-7.61,8.8a3.24,3.24,0,0,1-2-1.64C1663.14,218,1665.86,213.11,1671,208.21Z"/><path class="cls-14" d="M1644,146.31c-4.09,5-8.12,11.77-9.59,12.89-2,1.57-3.91,3.76-3.28,4.61s2.37.63,3.89-.48c1-.77,8.32-5.81,13-11.54,3.68-4.46,7-8.8,7.52-11.22.17-.85-.44-1.22-.92-1.62C1652.81,137.44,1649,140.28,1644,146.31Z"/><path class="cls-59" d="M1642.08,124.64c-2.35-4-4.73-8-5.62-12.55l0-.14c-1.47-7.74,5.81-14.25,13.48-12.43a17.48,17.48,0,0,1,4.66,1.79,20.53,20.53,0,0,1,9,10.76C1659.63,119.91,1650.76,123.25,1642.08,124.64Z"/><path class="cls-59" d="M1676.78,170.5c5-3.95,3.2-10.9,2.68-13.81-.65-3.71-11.38,3.81-14.17,2.93-3.23-1-6.65.55-9.68,2.07C1649,165,1626,176.45,1626,176.45l12.25,7.05C1644,182.1,1670.55,175.42,1676.78,170.5Z"/><path class="cls-64" d="M1661.46,123.43c3.39,1.63,4.76,5,5.91,7.79,2.5,6,6.3,14.47,12.09,25.47L1651,164.44a71.41,71.41,0,0,0-3.93-19.3,27.15,27.15,0,0,1-1.78-7.53c-.28-3.37-.59-7,1.48-10.11C1649.78,123,1656.82,121.2,1661.46,123.43Z"/><path class="cls-14" d="M1667.29,135.56a16.49,16.49,0,0,1-1.46,5.86,25,25,0,0,1-5,7.39c-2,2.35-2.74,2.61-3.37,2.64-2.22.12-4.77-2.67-4.16-4.43.11-.32.23-.35,1-1.37,0,0,.79-1.06,1.73-2.61,1.23-2-.53-5.51-.84-7.24-1-5.67,2.9-12.25,5.79-12.36S1667.48,129.85,1667.29,135.56Z"/><path class="cls-14" d="M1647.79,151.84c-6.29,5.87-9.24,9.11-10.82,9.8-2.16,1-3.59,2.15-3.1,3.13s2.67,1.19,4.26.53a51.34,51.34,0,0,0,12.85-7.12c4.08-3.3,7.84-6.57,8.62-8.76a1.08,1.08,0,0,0,.06-.58,2.28,2.28,0,0,0-.73-1.21,16.32,16.32,0,0,0-2-1.84C1655.09,144.77,1651.16,148.7,1647.79,151.84Z"/><path class="cls-64" d="M1658.66,122.28c1.15-1.62,3.47-1.22,5.13,0a11.43,11.43,0,0,1,4.16,5.56,32.57,32.57,0,0,1,.5,11.73c-.56.24-11,.95-12.8.33C1654.46,135.39,1655.57,126.64,1658.66,122.28Z"/><path class="cls-14" d="M1652.14,127.49h0a3.21,3.21,0,0,1-4.11-1.92l-2.51-6.92,5.74-4.23,2.8,9A3.21,3.21,0,0,1,1652.14,127.49Z"/><path class="cls-14" d="M1647.36,115.91l4.28-1a2,2,0,1,0-.89-4l-4.51,1Z"/><path class="cls-14" d="M1643.64,104a5.8,5.8,0,0,0-4.15,3.64c-.76,2.06-.24,4.28.5,6.27.85,2.29,1.32,5,3,7,2.51,2.94,5.85,1,8.24-1.06a3.09,3.09,0,0,0,1.12-2c.47-3.51-.9-6.79-2-10A5.8,5.8,0,0,0,1643.64,104Z"/><path class="cls-59" d="M1638.7,112a14.57,14.57,0,0,0,13.87-2.37,10.88,10.88,0,0,0-4.81-5.31,7.22,7.22,0,0,0-6.83.3C1638.93,106,1637.92,109.78,1638.7,112Z"/><path class="cls-59" d="M1650.26,215.79s3.28,1.79,3.77,3.78c1,4.16-3.87,9.56-7.66,9.52a3.13,3.13,0,0,1-2.36-.89C1642.45,226.25,1645.05,221.32,1650.26,215.79Z"/><path class="cls-14" d="M1380.44,226.47c6.21-.12,13.76.88,15.49.44,2.46-.61,5-.71,5.45.27s-1.12,2.93-2.54,4.07c-3.88,3.09-6.78.4-16.69,1.45,0,0-9.08.93-13-1-.75-.37-.66-1-.67-1.63C1368.44,227.82,1372.89,226.62,1380.44,226.47Z"/><path class="cls-14" d="M1411.09,248.87a5.3,5.3,0,0,1,.28-4.53c1.46-2.81,5.27-3.48,7.31-3.85,4.23-.77,21.82-4.08,29.74-5.9,3.45-.79,7.88-2.19,8.94-.58.7,1.06-.34,3-.55,3.36a8,8,0,0,1-4.5,3.36C1430.88,248.15,1413.86,254,1411.09,248.87Z"/><path class="cls-59" d="M1373.18,266.17c-8.22-1.67.54-12.54,3.07-16.11,2.08-2.94,6-3.82,9.51-4.49,7.66-1.44,20.46-4.67,28.13-6.11l.92,12.21C1409,254.21,1381.44,267.85,1373.18,266.17Z"/><path class="cls-65" d="M1363.27,212.49l-6.94,3.94c-2.19,1-4.92,2.74-6.11,5.71-2,5,1.52,10.38,5.58,17.12,3.51,5.82,8.33,14.16,13.85,24.81l22.5-20.2c-1.21-2.22-9.93-18.16-15.19-25.39a14.17,14.17,0,0,0-3.47-3.46A16.26,16.26,0,0,0,1363.27,212.49Z"/><path class="cls-14" d="M1359.33,236c5.83,4.8,13.68,8.59,16.06,5.69,1.69-2-4.12-8.32-9.94-13.11s-11.91-7-13.6-5S1353.51,231.17,1359.33,236Z"/><path class="cls-14" d="M1375.57,235.61c2.81-1.15,3.93-.9,8-1.66,4.75-.89,7.46-1.4,10.64-3,2.79-1.4,4.4-2.87,7.51-3,.73,0,2.86-.08,3.39,1,.71,1.42-1.68,4.2-2.61,4.75-1.25.73-8.38,5.28-16.32,7.08-6.18,1.4-12.1,2.49-14.78,1.47a2.72,2.72,0,0,1-1.24-2.16C1370.18,237.83,1374.2,236.17,1375.57,235.61Z"/><path class="cls-65" d="M1353.22,221.5c-1.87-.29-2.58,1.51-2.33,3.39a13.3,13.3,0,0,0,2.78,6.37,46,46,0,0,0,9.59,7.94c.46-.22,5.79-6.71,6.06-8.28C1366.1,227.22,1358.27,222.27,1353.22,221.5Z"/><path class="cls-14" d="M1361.5,218.31h0c1.56-1,2.24-2.67,1.54-3.82l-2.94-4.75-6.81,2.41,4.12,5.82C1358.12,219.12,1360,219.27,1361.5,218.31Z"/><path class="cls-14" d="M1355.58,208.41l-3.66,3a2.19,2.19,0,0,1-2.76-3.41l3.85-3.13Z"/><path class="cls-14" d="M1348.05,197.35a6.24,6.24,0,0,1,5.84-1.07c2.24.73,3.77,2.65,4.94,4.6,1.37,2.24,3.36,4.46,3.89,7.15.81,4.07-3,5.63-6.38,6.24a3.4,3.4,0,0,1-2.4-.36c-3.27-1.94-5.11-5.28-7.14-8.35A6.24,6.24,0,0,1,1348.05,197.35Z"/><path class="cls-59" d="M1347.37,201.51a5.79,5.79,0,0,1,4-4.56c2.52-.73,4.7,1.09,4.91.73s-2.75-4.18-7-4.23c-4.68-.06-7.33,4.4-7.51,4.71-2,3.41-1.93,8.5.75,10.55a5.18,5.18,0,0,0,5,.79,3,3,0,0,0,1.56-1.3C1350.06,206.23,1347.05,204.44,1347.37,201.51Z"/><path class="cls-59" d="M1454.15,240.15c.27.13,6,2.74,9.36-.52,1.67-1.61,2-3.9,2.29-6.54.25-1.94,1-7.78-1.49-9.47-2-1.37-5.08.74-5.44,1C1453.23,228.51,1454,238.68,1454.15,240.15Z"/></g></g></g></g></svg>