<svg id="レイヤー_1" data-name="レイヤー 1" xmlns="http://www.w3.org/2000/svg" viewBox="0 0 184.38 181.19"><defs><style>.cls-1{fill:#fffc14;stroke:#e8ac6b;}.cls-1,.cls-2{stroke-miterlimit:10;}.cls-2{fill:#5ea482;stroke:#327454;}</style></defs><path class="cls-1" d="M112,89.24c.6,10.81-13.28,23.4-24.14,21.58-14.81-2.48-21.08-31.28-13-38.65S111.16,74.33,112,89.24Z"/><g id="つぼみ1"><path class="cls-2" d="M76.61,100.47c-1.15,2,3.33,8.8,9.66,10.63C97.66,114.39,112.84,101,113.09,91a17.58,17.58,0,0,0-1.88-7.75c-1.22-2.27-3.79-5.64-5.41-5.12s-.12,4.57-2.73,7.91c-2.38,3-5.08,1.51-9.07,4.65s-2.78,5.94-6.28,8.14C83,101.83,77.67,98.6,76.61,100.47Z"/></g></svg>