<svg id="レイヤー_1" data-name="レイヤー 1" xmlns="http://www.w3.org/2000/svg" viewBox="0 0 184.38 181.19"><defs><style>.cls-1{fill:#fffc14;stroke:#e8ac6b;}.cls-1,.cls-2{stroke-miterlimit:10;}.cls-2{fill:#5ea482;stroke:#327454;}</style></defs><g id="つぼみ2"><path class="cls-1" d="M110.75,76.46c-.49-7.37-11.41-11.81-19.17-15s-26.67-9.34-29.22-4.65c-3.67,6.76,26.23,37,41.12,30.62C107.69,85.66,111,80.79,110.75,76.46Z"/><path class="cls-1" d="M87.69,101.49c-1.51,3.43-5.39,6.56-9.32,6.39-14-.59-26.64-42.57-20.66-46.15S94,87.22,87.69,101.49Z"/><path class="cls-1" d="M94,95.7c-.86,3.62-5.1,5.42-8.9,4.9-14.87-2-32.54-40.72-27.77-43.95S96.87,83.69,94,95.7Z"/><path class="cls-1" d="M104.33,86c-.16,3.6-3.4,6.37-6.64,7.06C83.38,96.1,57,61.13,60.78,56.44S104.91,72.91,104.33,86Z"/><path class="cls-2" d="M108.38,74.09c-2.9,1.75-1.41,5.62-4.88,8.7-3.84,3.4-9.24,1.23-10.8,4-1.12,2,1.27,3.91,0,5.61-1.41,1.89-4.88.17-7.83,2.69-1.57,1.34-.88,2.08-2.58,3.49C79.74,100.7,77,100,76,101.86c-.54,1,0,1.63-.73,2.36-1,1.07-2.6.21-3.39.86-1.57,1.3.31,8.26,4.8,13.29,1.17,1.32,6.42,6.86,14.36,7.59,16.6,1.52,37.91-18.66,37.15-33.81-.38-7.6-6.38-12.77-7.42-13.69C120,77.84,112.69,71.5,108.38,74.09Z"/></g></svg>