<svg id="レイヤー_1" data-name="レイヤー 1" xmlns="http://www.w3.org/2000/svg" viewBox="0 0 184.38 181.19"><defs><style>.cls-1{fill:#fffcf0;stroke:#d6d635;}.cls-1,.cls-2,.cls-4{stroke-miterlimit:10;}.cls-2{fill:#f4e927;stroke:#f4e927;}.cls-3{fill:#d6d635;}.cls-4{fill:#5ea482;stroke:#327454;}</style></defs><g id="つぼみ3_4"><path class="cls-1" d="M102.64,73.64c-6.68-9-9.21-12-13.57-15.38-2.17-1.66-10.53-8.07-13.23-5.94s1.31,10.94,4.29,17.77c4.19,9.54,5,7.35,16.67,25.83,2.15,3.41,3.73,6,6.7,6.66,4.37.91,10.23-2.83,11.54-7.5C115.81,92.38,114.86,90,102.64,73.64Z"/><path class="cls-1" d="M86.4,76.63c-6.67-9-9.21-12-13.57-15.38-2.16-1.66-10.52-8.07-13.23-5.94s1.31,10.94,4.3,17.76c4.18,9.55,5,7.35,16.67,25.83,2.14,3.41,3.72,6,6.7,6.67,4.37.91,10.22-2.83,11.54-7.5C99.57,95.37,98.62,93,86.4,76.63Z"/><path class="cls-1" d="M72.27,84.18c-7.54-8.25-10.37-11.05-15-13.94-2.32-1.44-11.28-7-13.76-4.6s2.39,10.76,6.05,17.25c5.12,9.08,5.74,6.81,19.16,24,2.48,3.18,4.32,5.64,7.34,6,4.43.47,9.89-3.84,10.73-8.62C87.24,101.51,86.06,99.27,72.27,84.18Z"/><path class="cls-1" d="M70.07,94.44C61.78,87,58.7,84.43,53.77,82c-2.44-1.2-11.89-5.87-14.13-3.25s3.41,10.48,7.67,16.59c6,8.55,6.37,6.23,21.37,22.09,2.77,2.93,4.83,5.21,7.87,5.24,4.46,0,9.48-4.77,9.86-9.6C86.63,110.26,85.25,108.15,70.07,94.44Z"/><path class="cls-1" d="M62.11,102.07c-9-6.69-12.25-8.92-17.38-10.88-2.55-1-12.39-4.74-14.38-1.93s4.37,10.12,9.18,15.81c6.73,8,6.92,5.61,23.33,20,3,2.66,5.3,4.73,8.33,4.48,4.44-.37,9-5.63,8.92-10.48C80.07,116.27,78.5,114.3,62.11,102.07Z"/><path class="cls-1" d="M124.12,56.39c-4.82-10.08-6.71-13.59-10.34-17.71-1.8-2-8.77-9.95-11.83-8.39s-.84,11,.78,18.26c2.26,10.18,3.52,8.19,11.36,28.57,1.44,3.76,2.49,6.65,5.28,7.83,4.11,1.74,10.58-.8,12.78-5.13C133.42,77.32,132.94,74.84,124.12,56.39Z"/><path class="cls-1" d="M112.77,62c-5.76-9.57-8-12.88-12-16.64-2-1.86-9.67-9.07-12.57-7.22s.22,11,2.52,18.1c3.22,9.92,4.28,7.82,14,27.35,1.8,3.61,3.12,6.39,6,7.3,4.26,1.34,10.46-1.81,12.23-6.33C124,81.94,123.31,79.51,112.77,62Z"/><path class="cls-2" d="M61.45,122c.77,2.2,2.37,6.75,10.75,6.54,10-.26,22.79-7.08,29.2-10.5,5.76-3.06,19.73-10.5,29.39-21.46,9.31-10.57,8.17-17.11,8-18.14-1.68-7.93-14.49-9-29.69-4.09A103.42,103.42,0,0,0,77.19,91.74C57.15,108.25,61.09,121,61.45,122Z"/><path class="cls-3" d="M76.07,105.39c.45,1.27,1.36,3.87,6.16,3.76,5.71-.14,13-4,16.71-6,3.29-1.75,11.29-6,16.8-12.28,5.33-6.05,4.67-9.8,4.54-10.39-1-4.55-8.29-5.18-17-2.36a58.84,58.84,0,0,0-18.23,9.93C73.6,97.5,75.86,104.8,76.07,105.39Z"/><path class="cls-4" d="M88.53,137.12c-.89,1.82,1.49,2.27,6.66,7.33,3.33,3.26,3.62,4.3,6,4.91a15.28,15.28,0,0,0,9-.74c4.56-1.74,5.56-4.25,13-10.1,5.88-4.65,6.17-3.8,11.78-8.36,5.23-4.24,10.28-8.33,10.71-12.16.23-2-1.07-1.83-2.68-5.28-2.56-5.49-.75-9.17-3-9.45-2-.25-4.26,2.82-12,8.53-2.2,1.62-6.25,4.32-14.36,9.72-8.73,5.81-13.09,8.72-15,9.73C92.16,134.72,89.48,135.17,88.53,137.12Z"/><path class="cls-4" d="M88.18,136.89c-3.07,2.85-.27,8.72,0,9.24.1.2.18.34.22.41,1.93,3.47,5.48,5,6.07,4.47s-3.56-2.58-2.68-7.22c.72-3.87,4.39-6.35,3.52-7.85S90.14,135.08,88.18,136.89Z"/><path class="cls-4" d="M106.07,127.26c-1.56-.7-8.8,4.23-9.27,7.63a3.08,3.08,0,0,0,.19,1.35,46.39,46.39,0,0,0,1.76,6c1.82,3.26,6.3,4.42,6.93,3.83s-2.37-1.81-3.13-5.34C101.22,134.63,107.76,128,106.07,127.26Z"/><path class="cls-4" d="M117.14,120.34c-2.08-.54-7.29,2.82-9,6.11a5.37,5.37,0,0,0-.64,2c-.64,6.29,11.14,10.66,12.44,9.38.45-.44-.82-1.05-1.86-3.51C115.22,127.66,119.83,121,117.14,120.34Z"/><path class="cls-4" d="M126.94,111.85c-2.35-.42-7.88,3.61-8.42,6.43-.21,1.07.42,1.33,3.68,4,4.09,3.32,5.48,4.83,8.73,4.81.37,0,2.22,0,2.6-.56.5-.73-2.17-1.53-3.85-3.14C125.47,119.33,129.86,112.37,126.94,111.85Z"/><path class="cls-4" d="M136.64,104c-1.85,1.16-2.28,3.26-5.61,5.11-1.33.74-2.49,1.09-2.63,1.58-.19.65,1.57,1,3,1.12,4.75.53,8.16-.28,10.73-.4,8-.37,10.92,5.86,12,5,.72-.56-.47-3.16-1.91-5.2C148.42,105.82,140.78,101.45,136.64,104Z"/><path class="cls-1" d="M140.08,70.46c-2.19-10.95-3.16-14.82-5.66-19.71-1.24-2.43-6-11.81-9.4-11s-3.52,10.44-3.74,17.89c-.32,10.42,1.39,8.8,4,30.48.47,4,.77,7.06,3.19,8.9,3.55,2.69,10.45,1.82,13.64-1.83C143.93,93,144.08,90.52,140.08,70.46Z"/><path class="cls-1" d="M65.43,114.71c-9.67-5.61-13.21-7.44-18.53-8.79-2.65-.68-12.86-3.28-14.5-.25s5.51,9.54,10.94,14.63c7.61,7.13,7.52,4.78,25.49,17.18,3.32,2.29,5.81,4.09,8.79,3.49,4.37-.88,8.28-6.63,7.65-11.44C84.91,126.74,83.12,125,65.43,114.71Z"/><path class="cls-1" d="M139.33,105.92c2.4-3.34,1.53-8.27-.3-18-1.7-9-4.27-17.54-10-25.65-2.77-3.93-4.05-4.61-5.08-4.48-4.13.55-5.35,14.33-5.66,17.75-.73,8.25-2.75,31,7.1,35C130,112.45,136.41,110,139.33,105.92Z"/><path class="cls-1" d="M109.1,126.23a9.31,9.31,0,0,0,8-4.82c5.29-9.71-10.86-27.46-19.32-35-3-2.67-10.91-9.7-13.94-7.68-2.48,1.66-.53,8.6.56,12.47,1.34,4.8,3.1,8.29,14,24.21C103.87,123.39,105.86,126.06,109.1,126.23Z"/><path class="cls-1" d="M109.47,125.08c-1.17,4.9-7.86,8.45-13.5,8.69-19.9.85-37.86-39.1-31.43-45.85,1.77-1.85,5.72-1.54,6.06-1.51,5.36.49,8.93,5.46,10.24,7.21C93.9,111.11,111.59,116.27,109.47,125.08Z"/><path class="cls-1" d="M95.06,131.45a8.06,8.06,0,0,1-5.14,8.18c-7.65,3.06-17-7.31-36.53-19.43-1-.59-3.4-2.1-3.87-4.18-.55-2.43,1.89-4.28,2.38-4.66C59.25,105.78,93.57,119.19,95.06,131.45Z"/><path class="cls-1" d="M128.31,113.22a8.09,8.09,0,0,1-8.81,4c-8.06-1.68-10.17-15.51-19.75-36.37-.46-1-1.67-3.62-.91-5.62.88-2.33,3.93-2.53,4.55-2.57C112.6,72.06,133.83,102.18,128.31,113.22Z"/></g></svg>